<?xml version="1.0" encoding="utf-8"?>
<!-- Generator: Adobe Illustrator 23.0.1, SVG Export Plug-In . SVG Version: 6.00 Build 0)  -->
<svg version="1.1" id="Layer_1" xmlns="http://www.w3.org/2000/svg" xmlns:xlink="http://www.w3.org/1999/xlink" x="0px" y="0px"
	 viewBox="0 0 599.8 599.8" style="enable-background:new 0 0 599.8 599.8;" xml:space="preserve">
<style type="text/css">
	.st0{fill:#F7B0C7;}
	.st1{fill:#161314;}
</style>
<g id="E-Bambee">
	<ellipse class="st0" cx="299.9" cy="299.9" rx="208" ry="288"/>
	<polygon class="st1" points="218,340.5 229.1,316.6 204,324.8 223.9,307.5 197.7,304.7 222.9,297 200.1,283.9 226.2,287.1 
		210.7,265.8 233.3,279.3 227.8,253.6 243,275.2 248.4,249.4 253.5,275.2 268.9,253.9 263,279.6 285.8,266.4 270,287.5 296.2,284.7 
		273.1,297.5 298.2,305.6 271.9,307.9 291.5,325.5 266.6,317 277.3,341 258.1,323.1 258.1,349.4 247.8,325.2 237.1,349.2 
		237.5,322.9 	"/>
	<polygon class="st1" points="335.4,520.7 316.1,518.8 327.9,534.2 311,524.7 315.5,543.5 304,527.9 300.5,546.9 296.3,528 
		285.3,544 289.2,525 272.7,535.1 284,519.3 264.8,521.8 281.5,512 262.9,506.5 282.2,504.4 267.5,491.8 285.9,497.6 277.6,480.1 
		292.1,493 291.6,473.6 299.6,491.3 307.1,473.4 307.2,492.7 321.3,479.5 313.5,497.2 331.8,490.8 317.5,503.8 336.8,505.4 
		318.4,511.5 	"/>
	<polygon class="st1" points="417.3,329.6 424.3,320.9 413.2,321.7 423,316.6 412.6,312.9 423.7,312.2 415.6,304.6 426,308.5 
		421.8,298.2 429.7,306 430.1,294.9 434.1,305.3 438.9,295.3 438.4,306.4 446.9,299.2 441.9,309.1 452.6,306 443.9,313 455,314.5 
		444.2,317.4 453.7,323.3 442.7,321.6 449,330.8 439.6,324.8 441.6,335.7 435.5,326.4 432.9,337.2 431.1,326.3 424.3,335.1 
		427.1,324.3 	"/>
	<polygon class="st1" points="336.8,75.9 343.8,64.3 330.5,67 341.7,59.3 328.4,56.4 341.8,53.9 330.8,45.8 344.1,49 337.3,37.1 
		348.1,45.4 346.8,31.9 353.3,43.8 357.6,30.9 358.7,44.4 367.9,34.4 363.4,47.2 375.8,41.8 366.5,51.7 380.1,51.7 367.5,57 
		379.9,62.6 366.3,62.3 375.4,72.4 363.1,66.6 367.2,79.6 358.3,69.2 356.8,82.8 352.9,69.7 346.1,81.5 347.8,68 	"/>
	<polygon class="st1" points="197.7,152.1 196.6,146.5 193.3,151.1 194.5,145.6 189.6,148.5 193,143.9 187.3,144.5 192.3,141.7 
		186.9,140 192.5,139.5 188.3,135.7 193.7,137.5 191.3,132.3 195.5,136.2 195.4,130.5 197.7,135.7 200,130.5 199.9,136.2 
		204.1,132.3 201.8,137.5 207.2,135.7 202.9,139.5 208.6,140 203.1,141.7 208.1,144.5 202.4,143.9 205.8,148.5 200.9,145.6 
		202.2,151.1 198.8,146.5 	"/>
	<polygon class="st1" points="336.8,206.7 332.2,206.2 334.9,209.8 331,207.5 332,212 329.3,208.3 328.4,212.7 327.5,208.3 
		324.8,212 325.8,207.5 321.9,209.8 324.6,206.1 320.1,206.7 324.1,204.4 319.7,203 324.2,202.6 320.8,199.6 325.2,201 323.3,196.9 
		326.6,200 326.6,195.4 328.4,199.6 330.3,195.4 330.2,200 333.6,196.9 331.7,201 336,199.6 332.6,202.6 337.1,203.1 332.8,204.4 	
		"/>
	<polygon class="st1" points="433.8,204.1 420.4,193.7 421.9,210.5 413.9,195.6 408.4,211.6 407.2,194.7 395.7,207.2 401.4,191.2 
		385.8,197.9 397.6,185.7 380.6,185.4 396.3,179 380.9,171.9 397.9,172.4 386.7,159.7 402,167.1 397,150.8 407.9,163.8 409.9,147 
		414.7,163.3 423.3,148.7 421,165.5 434.9,155.7 426,170.1 442.6,166.9 428.6,176.4 445.1,180.1 428.4,183.1 442,193.3 425.5,189.2 
			"/>
	<polygon class="st1" points="116.9,280.4 119.7,272.6 112.1,275.9 117.8,269.9 109.5,269.8 117.1,266.6 109.6,263.2 117.9,263.4 
		112.4,257.2 119.9,260.8 117.4,252.9 122.8,259.2 123.7,250.9 126.1,258.9 130.3,251.7 129.2,259.9 136,255.1 131.6,262.2 
		139.8,260.5 132.9,265.2 141,267 132.9,268.6 139.5,273.5 131.5,271.6 135.6,278.8 129,273.7 129.8,282 125.8,274.7 123.2,282.6 
		122.5,274.3 	"/>
	<polygon class="st1" points="160.6,433.4 167.3,430.5 160.7,427.6 167.9,427.7 163.1,422.3 169.7,425.4 167.4,418.5 172.2,424 
		173,416.8 175.1,423.7 178.7,417.4 177.8,424.6 183.7,420.4 179.9,426.6 187,425.1 181.1,429.3 188.2,430.8 181,432.2 186.9,436.4 
		179.8,434.8 183.4,441.1 177.7,436.7 178.4,443.9 174.9,437.6 172.6,444.5 172,437.2 167.2,442.6 169.5,435.7 162.9,438.7 
		167.9,433.4 	"/>
	<polygon class="st1" points="392.7,416.8 386.5,418 391.7,421.7 385.5,420.3 388.7,425.8 383.6,422 384.4,428.3 381.2,422.8 
		379.3,428.8 378.7,422.5 374.6,427.2 376.6,421.3 370.8,423.9 375.1,419.2 368.8,419.3 374.6,416.8 368.8,414.2 375.1,414.3 
		370.8,409.6 376.6,412.3 374.6,406.3 378.7,411 379.3,404.7 381.2,410.7 384.4,405.2 383.6,411.5 388.7,407.8 385.5,413.2 
		391.7,411.8 386.5,415.5 	"/>
</g>
</svg>
