<?xml version="1.0" encoding="utf-8"?>
<!-- Generator: Adobe Illustrator 23.0.1, SVG Export Plug-In . SVG Version: 6.00 Build 0)  -->
<svg version="1.1" id="Layer_1" xmlns="http://www.w3.org/2000/svg" xmlns:xlink="http://www.w3.org/1999/xlink" x="0px" y="0px"
	 viewBox="0 0 599.8 599.8" style="enable-background:new 0 0 599.8 599.8;" xml:space="preserve">
<style type="text/css">
	.st0{fill:#D9E9B6;}
	.st1{fill:#CEB9DA;}
</style>
<g id="E-Gui">
	<ellipse class="st0" cx="299.9" cy="299.9" rx="211.1" ry="287.5"/>
	<path class="st1" d="M275.8,73.1c0,0-111.4,14.7-85.4,63c26,48.3,148.6-26,200.5,0c52,26-293.4,68.7-245.1,88.2s356.5-29,311.9,12
		c-44.5,41-395.5,48.5-316.5,70.7c78.9,22.3,381-31.3,321,21.5C402.1,381.2,105,396,216.4,414.6c111.4,18.6,256.2-55.7,204.3,0
		S201.6,455.5,261,470.3s51.8,65.3,51.8,65.3"/>
</g>
</svg>
