<?xml version="1.0" encoding="utf-8"?>
<!-- Generator: Adobe Illustrator 23.0.1, SVG Export Plug-In . SVG Version: 6.00 Build 0)  -->
<svg version="1.1" id="Layer_1" xmlns="http://www.w3.org/2000/svg" xmlns:xlink="http://www.w3.org/1999/xlink" x="0px" y="0px"
	 viewBox="0 0 600 600" style="enable-background:new 0 0 600 600;" xml:space="preserve">
<style type="text/css">
	.st0{fill:#F0B9FF;}
	.st1{fill:#FFFDE7;}
</style>
<title>aSpinosaurus</title>
<g id="E-ptero">
	<ellipse class="st0" cx="300" cy="300" rx="225.1" ry="292.1"/>
	<path class="st1" d="M270.3,198.5l-84.1,145.6c-14.7,25.4,3.7,57.2,33,57.2h168.2c29.3,0,47.7-31.8,33-57.2l-84.1-145.6
		C321.6,173.1,284.9,173.1,270.3,198.5z"/>
	<path class="st1" d="M267,433.4l-37.1,64.3c-14.7,25.4,3.7,57.2,33,57.2h74.3c29.3,0,47.7-31.8,33-57.2L333,433.4
		C318.3,407.9,281.7,407.9,267,433.4z"/>
	<path class="st1" d="M270.3,50.1l-37.1,64.3c-14.7,25.4,3.7,57.2,33,57.2h74.3c29.3,0,47.7-31.8,33-57.2l-37.1-64.3
		C321.6,24.7,284.9,24.7,270.3,50.1z"/>
	<path class="st1" d="M416.9,258.3L416.9,258.3c-14.7,25.4,3.7,57.2,33,57.2h0c29.3,0,47.7-31.8,33-57.2l0,0
		C468.2,232.9,431.6,232.9,416.9,258.3z"/>
	<path class="st1" d="M109.8,258.3L109.8,258.3c-14.7,25.4,3.7,57.2,33,57.2h0c29.3,0,47.7-31.8,33-57.2l0,0
		C161.2,232.9,124.5,232.9,109.8,258.3z"/>
	<path class="st1" d="M392.5,436.1L392.5,436.1c-14.7,25.4,3.7,57.2,33,57.2h0c29.3,0,47.7-31.8,33-57.2l0,0
		C443.8,410.7,407.2,410.7,392.5,436.1z"/>
	<path class="st1" d="M148,436.1L148,436.1c-14.7,25.4,3.7,57.2,33,57.2h0c29.3,0,47.7-31.8,33-57.2l0,0
		C199.4,410.7,162.7,410.7,148,436.1z"/>
	<path class="st1" d="M392.5,152.5L392.5,152.5c-14.7,25.4,3.7,57.2,33,57.2h0c29.3,0,47.7-31.8,33-57.2l0,0
		C443.8,127.1,407.2,127.1,392.5,152.5z"/>
	<path class="st1" d="M148,152.5L148,152.5c-14.7,25.4,3.7,57.2,33,57.2h0c29.3,0,47.7-31.8,33-57.2l0,0
		C199.4,127.1,162.7,127.1,148,152.5z"/>
</g>
</svg>
