<?xml version="1.0" encoding="utf-8"?>
<!-- Generator: Adobe Illustrator 23.0.1, SVG Export Plug-In . SVG Version: 6.00 Build 0)  -->
<svg version="1.1" id="Layer_1" xmlns="http://www.w3.org/2000/svg" xmlns:xlink="http://www.w3.org/1999/xlink" x="0px" y="0px"
	 viewBox="0 0 600 600" style="enable-background:new 0 0 600 600;" xml:space="preserve">
<style type="text/css">
	.st0{fill:#A0F9A0;}
	.st1{fill:#F9A5B1;}
</style>
<title>aSpinosaurus</title>
<g id="E-STEGA">
	<ellipse class="st0" cx="300" cy="300" rx="244.5" ry="296.7"/>
	<path class="st1" d="M210.1,397.5c0,0-29.4,84.7,25.3,77.3c-16.6-20.5,16.7-38,16.7-38S207.6,431.9,210.1,397.5z"/>
	<path class="st1" d="M191.7,190.9c0,0-62.8,64-10.1,80.7c-6.3-25.6,31.3-27.2,31.3-27.2S174.8,221,191.7,190.9z"/>
	<path class="st1" d="M295.3,60.9c0,0-83.2,33.4-41.6,69.9c4.5-25.9,39.6-12.4,39.6-12.4S267.7,81.6,295.3,60.9z"/>
	<path class="st1" d="M145.5,301.7c0,0-52.8,55.3-7.7,68.9c-5.6-21.7,26.4-23.6,26.4-23.6S131.4,327.5,145.5,301.7z"/>
	<path class="st1" d="M374.1,212.3c0,0,38.9-80.7-16.3-79.7c14.1,22.2-20.9,35.8-20.9,35.8S380.5,178.4,374.1,212.3z"/>
	<path class="st1" d="M368.7,419.6c0,0,69.7-56.4,19.3-79c3.3,26.1-34.2,23.5-34.2,23.5S389,391.7,368.7,419.6z"/>
	<path class="st1" d="M250.9,536.9c0,0,86.5-23.7,49.4-64.6c-7.5,25.2-40.8,7.8-40.8,7.8S280.7,519.5,250.9,536.9z"/>
	<path class="st1" d="M427.3,314.9c0,0,58.8-48.9,15.5-67.6c3.1,22.2-28.9,20.4-28.9,20.4S444.2,290.9,427.3,314.9z"/>
	<path class="st1" d="M300,300c0,0,38.9-80.7-16.3-79.7c14.1,22.2-20.9,35.8-20.9,35.8S306.4,266.1,300,300z"/>
</g>
</svg>
