<svg xmlns="http://www.w3.org/2000/svg" viewBox="0 0 600 600"><defs><style>.cls-1{fill:#94ad38;}.cls-2{fill:#b1c167;}</style></defs><title>eTyrannosaurus</title><g id="Layer_17" data-name="Layer 17"><path class="cls-1" d="M317.81,587.46c-191.69,0-220.31-169.8-220.31-271,0-161.89,103-303.9,220.31-303.9,89.76,0,184.69,170.3,184.69,331.31C502.5,500.71,393.3,587.46,317.81,587.46Z"/><circle class="cls-2" cx="349.33" cy="415.11" r="16.44"/><circle class="cls-2" cx="292.08" cy="467.18" r="8.53"/><circle class="cls-2" cx="222.66" cy="467.18" r="21.32"/><circle class="cls-2" cx="349.33" cy="33.86" r="12.79"/><circle class="cls-2" cx="370.04" cy="46.65" r="4.26"/><circle class="cls-2" cx="370.04" cy="415.11" r="12.79"/><circle class="cls-2" cx="431.55" cy="291.47" r="25.58"/><circle class="cls-2" cx="118.82" cy="398.66" r="12.79"/><circle class="cls-2" cx="144.39" cy="467.18" r="4.26"/><circle class="cls-2" cx="165.71" cy="518.94" r="4.26"/><circle class="cls-2" cx="405.97" cy="278.68" r="12.79"/><circle class="cls-2" cx="365.78" cy="344.76" r="12.79"/><circle class="cls-2" cx="309.14" cy="518.94" r="12.79"/></g></svg>