<svg id="Layer_1" data-name="Layer 1" xmlns="http://www.w3.org/2000/svg" viewBox="0 0 600 600"><defs><style>.cls-1{fill:#c66;}.cls-2{fill:#933;}</style></defs><title>wintonotitan</title><g id="Layer_17" data-name="Layer 17"><path class="cls-1" d="M317.81,587.46c-191.69,0-220.31-169.8-220.31-271,0-161.89,103-303.9,220.31-303.9,89.76,0,184.69,170.3,184.69,331.31C502.5,500.71,393.3,587.46,317.81,587.46Z"/><circle class="cls-2" cx="412.68" cy="324.89" r="27.72"/><circle class="cls-2" cx="249.03" cy="470.51" r="21.32"/><circle class="cls-2" cx="300" cy="46.65" r="12.79"/><circle class="cls-2" cx="287.21" cy="59.44" r="4.26"/><circle class="cls-2" cx="193.03" cy="423.83" r="62.43"/><circle class="cls-2" cx="130.61" cy="432.37" r="12.79" transform="translate(-111.26 50.92) rotate(-15.57)"/><circle class="cls-2" cx="173.63" cy="491.52" r="4.26" transform="translate(-125.55 64.64) rotate(-15.57)"/><circle class="cls-2" cx="208.06" cy="535.65" r="4.26" transform="translate(-136.14 75.5) rotate(-15.57)"/><ellipse class="cls-2" cx="442.07" cy="285.17" rx="29.4" ry="31.89"/></g></svg>