<?xml version="1.0" encoding="utf-8"?>
<!-- Generator: Adobe Illustrator 23.0.3, SVG Export Plug-In . SVG Version: 6.00 Build 0)  -->
<svg version="1.1" id="Layer_1" xmlns="http://www.w3.org/2000/svg" xmlns:xlink="http://www.w3.org/1999/xlink" x="0px" y="0px"
	 viewBox="0 0 792 612" style="enable-background:new 0 0 792 612;" xml:space="preserve">
<style type="text/css">
	.st0{fill:#4BAA00;}
	.st1{fill:#38E100;}
	.st2{fill:#17CB00;}
	.st3{fill:#FF3F12;}
	.st4{fill:#FF623E;}
	.st5{fill:#FF4D43;}
	.st6{fill:#EBAAFF;}
	.st7{fill:#E871FF;}
	.st8{fill:#F9B5FF;}
</style>
<path class="st0" d="M306,154.1c0,0,10.1,22.5,29.3-7.9s47.3-7.9,47.3-7.9s36,2.3,28.2-23.7s7.9-92.4,39.4-73.2s-13.5,80,0,103.6
	s118.3-58.6,157.7-39.4c39.4,19.1,12.4,39.4,12.4,39.4s-155.4,23.7-143,46.2c12.4,22.5,99.1,32.7,99.1,48.4s-15.8,25.9-12.4,39.4
	s-30.4,18.7-30.4,31.9s56.3,0.8,54.1,32.3s-31.5,81.1-13.5,96.9c18,15.8-1.1,78.8-23.7,49.6c-22.5-29.3,3.4-92.4-11.3-110.4
	s-21.4,11.3-31.5,16.9c-10.1,5.6-23.7-5.6-48.4,2.3s6.8,77.7-20.3,65.3c-27-12.4-32.9-49.6-42.9-59.7s-32.5-13.5-30.3,5.6
	c2.3,19.1,60.8,123.9,57.4,136.3c-3.4,12.4-23.7,30.4-38.3,0c-14.6-30.4-10.1-141.9-39.4-150.9c-29.3-9-19.1,38.3-19.1,38.3
	s24.8,59.7-2.3,58.6s-24.8-14.6-18-58.6c6.8-43.9-9-47.3-13.5-39.4c-4.5,7.9-31.5,15.8-32.7,2.3s-20.3-15.8-29.3-9
	c-9,6.8-38.3,7.9-42.8,27c-4.5,19.1-46.2,52.9-63.1,52.9s-14.6-28.2-7.9-31.5c6.8-3.4,83.3-45,84.5-72.1s-25.9-7.9-28.2-20.3
	c-2.3-12.4-45,14.6-61.4,5.6s-26.5-31.5-17.5-55.2s84.5,9,101.4-7.9s-4.5-24.8-1.1-38.3c3.4-13.5,19.1-37.2,31.5-37.2
	s-19.1-95.7-46.2-98c-27-2.3-20.3-71-1.1-74.4c19.1-3.3,34.9,4.5,36,14.7s-3.4,55.2,23.7,81.1s21.4,45,31.5,39.4
	c10.1-5.6,15.8-57.4,32.7-57.4C319.6,115.8,306,154.1,306,154.1z"/>
<path class="st1" d="M404,552.7c-2.9,0-6.8-4.2-10.1-11c-4.9-10.2-7.8-34.3-10.5-57.5c-0.4-3.6-0.8-7.1-1.3-10.7
	c0.7,1.5,1.5,3.1,2.2,4.7c11.1,23,27.7,57.5,28.9,66.1C411.8,548.1,407.3,552.7,404,552.7z M562.3,487.3c-0.4-0.2-1.8-1-3.9-3.7
	c-10.1-13.1-7.9-37.7-5.9-59.4c1.9-21.5,3.6-40-5.5-51.2c-5.1-6.3-10.8-9.5-16.8-9.5c-10.5,0-16.6,9.1-21.6,16.5
	c-1.7,2.5-4.5,6.7-5.8,7.5c-0.2,0.1-0.7,0.4-2.3,0.4c-1.9,0-4.4-0.4-7.3-0.8c-4.2-0.7-9.5-1.5-15.7-1.5c-7.2,0-14.2,1.1-21.3,3.4
	c-19.9,6.3-17.8,31.8-16.2,50.3c0.4,4.3,0.8,10.1,0.8,14.2c-13-7.4-20.2-23.2-26-36.1c-3.8-8.4-7-15.6-11.6-20.3
	c-6.7-6.8-16.9-11.2-26.1-11.2c-6.7,0-12.5,2.4-16.4,6.8c-0.2,0.2-0.4,0.4-0.6,0.7c-3.3-3.7-7.2-6.4-11.7-7.8
	c-3.4-1.1-6.7-1.6-9.7-1.6c-7,0-13,2.8-17.2,8c-2.2,2.7-3.8,6-4.8,9.4c-1.2-6.2-3.3-11.1-6.3-14.7c-3.4-3.9-7.8-6.1-12.6-6.1
	c-5.6,0-10.8,3-13.8,8.1c-1.6,1.7-8.2,4.8-13.7,4.8c-0.2,0-0.5,0-0.7,0c-1.9-11.9-12.6-20-26.7-20c-6.9,0-13.4,2-18.3,5.7
	c-1.5,1.1-6.4,2.7-10.4,4c-4.4,1.4-9.6,3.1-14.7,5.4c7.6-8.9,11.4-17,11.8-24.7c0.4-8.7-1.6-15.2-6-19.8c-6-6.3-14.5-6.3-17.7-6.3
	c-1.1,0-2.2,0-3.3,0.1c-0.8,0-1.6,0-2.4,0.1c-2-4.3-6.4-8.1-14.1-8.1c-6.1,0-13.6,2.4-22.3,5.1c-8.6,2.7-18.3,5.7-25,5.7
	c-2.5,0-3.6-0.4-3.9-0.6c-11.7-6.5-20.3-23.7-13-42.9c0.3-0.7,2.9-2.5,12-2.5c8.3,0,18.9,1.5,29.2,3c11,1.6,22.3,3.2,32,3.2
	c7.7,0,18.7-0.8,25.8-8c15.6-15.6,8.2-28.9,4.2-36.1c-1.9-3.4-3-5.5-2.7-6.9c1.1-4.6,4.8-12.5,10.5-19.8c6.2-8.1,10.6-9.8,11.4-9.8
	c0,0,0,0,0,0c1.2,0,12.1-0.4,12.7-14.8c0.4-10.2-5.1-33.3-16.4-57.8c-13.3-28.9-27.4-44.2-41.7-45.4c-5.2-0.4-7.4-10.2-7.9-13.2
	c-1.5-8.2-1.1-18.5,1.2-27.5c2.4-9.9,5.8-13.4,6.7-13.9c2.3-0.4,4.7-0.6,6.9-0.6c11.6,0,17.1,5,17.3,6.6c0.1,1.2,0.2,3.7,0.2,6.4
	c0.3,18.2,0.8,56.1,26.5,80.8c12.8,12.3,17.4,22.6,20.4,29.5c2.5,5.8,6,13.7,15.1,13.7c2.6,0,5.2-0.7,7.9-2.2
	c7.6-4.2,11.1-14.6,15.9-29.1c2.2-6.7,4.6-13.6,7.1-19.1c1.3-2.8,2.4-4.6,3.3-5.9c0,5.3-1.8,14.8-4.6,22.8l-1.3,3.8l1.6,3.7
	c0.6,1.4,6.6,13.9,19.7,13.9c0,0,0,0,0,0c9.5,0,18.4-6.7,27.1-20.6c4.8-7.6,10.2-11.2,16.6-11.2c8.3,0,15.9,5.8,16,5.8l2.5,2
	l3.2,0.2c0.2,0,1.2,0.1,2.7,0.1c8.7,0,24.5-1.6,32.6-12.6c3.3-4.5,6.6-12.3,3-24.1c-4.2-13.6-0.1-43.6,10.5-57.8
	c2-2.7,5.1-5.9,8.5-5.9c1.6,0,3.6,0.7,5.7,2c10.8,6.5,6.9,23.2-0.3,48c-5.7,19.7-11.1,38.3-3.2,52.1c2,3.5,7,9.4,18,9.4
	c14,0,34.6-9.6,58.5-20.7c26.1-12.2,55.8-25.9,75.3-25.9c4.1,0,7.6,0.6,10.2,1.9c9.5,4.6,15.3,9.7,15.8,13.7
	c0.3,2.6-1.9,5.5-3.5,7.3c-9,1.4-36.9,6-65.4,12.4c-64.9,14.4-78,25.1-82.2,33.7c-2.3,4.7-2.2,9.8,0.3,14.4
	c8.4,15.2,34.8,23.6,62.9,32.4c12,3.8,29.7,9.4,34.9,13.2c-0.6,4.1-2.9,8.1-5.5,12.7c-4,7-8.9,15.6-6.7,26.1
	c-1.7,1.9-6.8,4.8-10,6.6c-9.1,5.3-20.5,11.8-20.5,23.9c0,4,1.6,11.2,12.5,14.8c4.3,1.4,9.5,2.2,15.1,3c21.4,3.1,27.1,6,26.5,13.8
	c-0.7,10.4-5.1,24.1-9.3,37.2c-8.4,26.3-17.1,53.6-0.8,67.9c3.1,2.7,5,12.3,2.7,23.5C568,481.8,563.8,486.6,562.3,487.3z M324.5,482
	c-8.1-0.3-10.5-1.8-11.3-2.7c-3.5-4.2-0.7-22.4,2.6-43.5c0,0,0.3-1.8,0.3-2.3c0.2,0.8,0.3,1.5,0.4,2l0.2,0.9l0.4,0.8
	c0,0.1,4.2,10.3,7.1,21.7c4.3,17.1,2,22.2,1.5,23c-0.1,0-0.4,0.1-0.9,0.1C324.7,482,324.6,482,324.5,482z M124.7,457.2
	c-0.9,0-1.2,0-1.7-1.1c-1.9-3.4-1.3-9.7-0.3-12.3c6.3-3.3,25.5-14,44.2-27.2c4.6-3.2,8.8-6.4,12.6-9.4c-0.6,1.5-1.1,3-1.5,4.7
	c-1.2,5.2-9.1,16.3-23.5,28.2C139.6,452.6,128.3,457.2,124.7,457.2z"/>
<path class="st2" d="M423.8,375.4c-12.4-12.2-29.8-19.4-46.8-19.4c-5.6,0-10.9,0.8-16,2.3c-1.3-0.5-2.6-1-3.9-1.4
	c-6.3-1.9-12.5-2.9-18.5-2.9c-6.3,0-12.3,1-17.8,3c-7-4.1-14.9-6.3-23.1-6.3c-6.8,0-13.3,1.5-19.2,4.2c-9.7-7.2-22-11.3-35.7-11.3
	c-1.4,0-2.8,0-4.1,0.1c-2.3-7.7-6.3-14.5-11.8-20.2c-2.1-2.2-4.4-4.2-6.8-5.9c1.3-1.1,2.5-2.2,3.8-3.4
	c13.2-13.2,25.5-34.7,13.2-63.8c0.4-0.6,0.9-1.2,1.3-1.8c0,0,0,0,0,0c14-4.3,26.3-15.9,29.6-34.3c7.3-0.2,14.5-2.2,21.4-6
	c4.4-2.4,8.1-5.4,11.2-8.7c4.9,1.7,10.2,2.7,16,2.7c18.1,0,34.1-9.2,47.6-27.3l3.3,2.7l12.6,0.8c0.6,0,2.2,0.1,4.6,0.1
	c13.2,0,25-2.5,35-7.2c4.6,5.7,10.3,10.1,17,13.2c-0.9,8.9,1,17.9,5.5,26.1c14.2,25.8,46.2,35.9,80.1,46.5c1.1,0.3,2.3,0.7,3.7,1.2
	c-0.5,1.7-1,3.5-1.4,5.4c-12.3,7.4-31.1,21.3-31.1,47.3c0,11.5,4.2,21.8,11.6,29.8c-7.1,4.5-12.5,10.3-16.4,15.4
	c-3.4-0.4-7.1-0.6-11.2-0.6c-10.3,0-20.3,1.6-30.4,4.8C440.7,362.4,431.5,366.7,423.8,375.4z M113.5,324.9
	C113.5,324.9,113.5,324.9,113.5,324.9z"/>
</svg>
