<?xml version="1.0" encoding="utf-8"?>
<!-- Generator: Adobe Illustrator 23.0.3, SVG Export Plug-In . SVG Version: 6.00 Build 0)  -->
<svg version="1.0" id="Layer_1" xmlns="http://www.w3.org/2000/svg" xmlns:xlink="http://www.w3.org/1999/xlink" x="0px" y="0px"
	 viewBox="0 0 50 50" style="enable-background:new 0 0 50 50;" xml:space="preserve">
<style type="text/css">
	.st0{fill:#010101;}
</style>
<path class="st0" d="M37.24,14.54c0,0-7.17-9.56-12.27-1.3c0,0-4.67-9.12-12.49,2.61l-0.45-0.13c-1.94-0.58-3.89,0.87-3.89,2.9v5.55
	c0,2.6,1.02,5.1,2.86,6.94c3.23,3.22,8.77,7.96,14.3,9.08c6.33-2.29,12.1-6,14.98-9.98c1.02-1.41,1.53-3.14,1.53-4.88v-6.04
	c0-1.73-1.38-2.98-3.1-3.19C38.11,16,37.57,15.58,37.24,14.54z M36.16,21.39c-0.22,2.39,0,7.04-6.52,5.52c0,0-5.43-0.97-7.82,0.27
	c-2.39,1.25-6.52-0.61-7.17-2.18c-0.65-1.57,0-7.22,0-7.22s4.56-2.61,6.3-1.09c1.74,1.52,4.02-1.52,4.02-1.52s3.8,2.39,5.1,1.3
	C31.38,15.4,37.46,16.93,36.16,21.39z"/>
</svg>
