<svg xmlns="http://www.w3.org/2000/svg" viewBox="0 0 1181 794"><defs><style>.cls-1,.cls-5{fill:#9c3;}.cls-1{stroke:#693;stroke-miterlimit:10;stroke-width:1.86px;}.cls-2{fill:#ad7e48;}.cls-3{fill:#633815;}.cls-4{fill:#50811e;}.cls-6{fill:#867758;}.cls-7{fill:#ffebc2;}.cls-8{fill:#fff;}.cls-9{fill:#39c;}.cls-10{fill:#693;}.cls-11{fill:#fcc;}.cls-12{fill:#f99;}</style></defs><title>logo</title><g id="logo"><g id="zone"><path class="cls-1" d="M848.57,343.63l26.64,58.62a3.73,3.73,0,0,1-.29,3.6l-35.84,54.23,55.91-.69S958.83,380.6,848.57,343.63Z"/><path class="cls-1" d="M947.76,273.76c-9.36-5.29-61.15-14.72-37.56,9.11a114.21,114.21,0,0,1,39.28,24.67,112.74,112.74,0,0,1,26,39.42c6,15.18,9.12,32.28,9.12,50.82a137.87,137.87,0,0,1-4.1,33.7A131.88,131.88,0,0,1,968.63,462a127.43,127.43,0,0,1-18.84,26.21,121.07,121.07,0,0,1-25.06,20.51,123.62,123.62,0,0,1-30.26,13.3,116.52,116.52,0,0,1-15,3.29c58.28,23.84,106.21-42.66,119.85-98.05C1017.42,353.77,999.89,303.18,947.76,273.76Z"/><path class="cls-2" d="M185.22,545.87c-5.86,0-11.67-.15-17.27-.45s-11.39-.75-17.23-1.35l-8.51-.87,5.42-249.64,6.35-1.95a248,248,0,0,1,42.93-9A366.54,366.54,0,0,1,240.23,280a156.38,156.38,0,0,1,51,8.06,118.9,118.9,0,0,1,40.91,23.59,107.17,107.17,0,0,1,26.94,37.8c6.33,14.69,9.54,31.46,9.54,49.84,0,17.2-2.35,33-7,47A127.89,127.89,0,0,1,342,483.83a130,130,0,0,1-30.07,28.35,172.67,172.67,0,0,1-37.58,19.18,226.23,226.23,0,0,1-42.89,11A299.68,299.68,0,0,1,185.22,545.87Zm60.43-87.94a40.24,40.24,0,0,0,4.76-2.44A50.46,50.46,0,0,0,272,429.61a54.19,54.19,0,0,0,3.37-16.84v-2.29a58.91,58.91,0,0,0-1.82-16,34.15,34.15,0,0,0-5.91-12.34,29.4,29.4,0,0,0-10.1-8.28,28.26,28.26,0,0,0-6.07-2.24Z"/><path class="cls-3" d="M350,393.39q0,25.51-6.55,46a125.24,125.24,0,0,1-18.31,36.43,122.41,122.41,0,0,1-27.95,27.41,160.22,160.22,0,0,1-35.52,18.85A209.1,209.1,0,0,1,220.61,533a278.06,278.06,0,0,1-44.71,3.55q-8.57,0-16.76-.46t-16.75-1.36l5.1-244.42a229.62,229.62,0,0,1,41.25-9,343.08,343.08,0,0,1,42.16-2.64q26,0,47.9,7.84a108,108,0,0,1,37.7,22.58,101.62,101.62,0,0,1,24.68,36.06Q350,366.44,350,393.39Zm-74.67,11.66a72.61,72.61,0,0,0-2.09-18.94A45.3,45.3,0,0,0,265.78,370a39.09,39.09,0,0,0-13.2-11.29,43.19,43.19,0,0,0-19.13-4.64L226.17,467A51.48,51.48,0,0,0,246,459.78a60.25,60.25,0,0,0,15.39-13.66,62.41,62.41,0,0,0,10-18,67.52,67.52,0,0,0,3.91-20.49Z"/><polygon class="cls-2" points="364.26 288.15 480.63 282.26 459.08 538.8 364.26 543.55 364.26 288.15"/><path class="cls-3" d="M461.16,281.57l-20,248.06-76.86,4v-247Z"/><polygon class="cls-2" points="471.66 544.47 478.68 278.64 584.57 273.75 633.46 371.55 635.66 281.33 740.59 277.91 726.51 532.87 616.03 542.6 577.96 447.69 571.97 544.47 471.66 544.47"/><path class="cls-3" d="M721.42,276.83l-13.12,247-95.43,8.74-51-132.22-8,134.77h-82l6.56-258.26,91.06-4.37,63,131.13,2.91-123.84Z"/><polygon class="cls-2" points="591.37 653.91 538.82 655.41 520.24 568.02 571.85 564.3 571.94 564.92 611.58 564.92 611.65 564.28 663.32 568.02 645.01 656.11 592.02 657.02 591.37 653.91"/><path class="cls-3" d="M641.26,568.22,625.92,659.1l-37.25.79-8-47.08-8,43.67-37.25,1.31L520,568.22l32.52-2.88L559,619.76l8.78-54.42h25.57l10.23,55.07,5.25-55.07Z"/><path class="cls-2" d="M693.1,654.33a61.85,61.85,0,0,1-13.78-1.51,59.61,59.61,0,0,1-12.17-4.19,49.82,49.82,0,0,1-10.37-6.55,43,43,0,0,1-7.89-8.5,39.31,39.31,0,0,1-5-9.91,34.63,34.63,0,0,1-1.81-11.11,37,37,0,0,1,1.66-10.94,39.93,39.93,0,0,1,4.79-10.1,45.18,45.18,0,0,1,7.56-8.76,50.07,50.07,0,0,1,10.08-7,55.05,55.05,0,0,1,12.19-4.61,57.4,57.4,0,0,1,14-1.67,70.31,70.31,0,0,1,20.63,2.89,49.41,49.41,0,0,1,16.64,8.54A37.73,37.73,0,0,1,744,611.17a38.11,38.11,0,0,1-1.65,11.18,39.8,39.8,0,0,1-4.79,10.18,44.21,44.21,0,0,1-7.65,8.78,49.22,49.22,0,0,1-10.26,6.92,57.35,57.35,0,0,1-12.36,4.49A61,61,0,0,1,693.1,654.33Z"/><path class="cls-3" d="M723.48,612.94a47.48,47.48,0,0,1-1.38,11.51,45.13,45.13,0,0,1-4,10.39,42.62,42.62,0,0,1-6.29,8.88,40,40,0,0,1-8.33,6.92,40.44,40.44,0,0,1-21.6,6.1,41.08,41.08,0,0,1-11.25-1.51,42.57,42.57,0,0,1-10-4.23,39.78,39.78,0,0,1-8.43-6.56,40.58,40.58,0,0,1-6.43-8.52,44.15,44.15,0,0,1-4.13-10.06,42.36,42.36,0,0,1-1.47-11.22,46,46,0,0,1,5.34-21.5,44.86,44.86,0,0,1,6.26-8.92,41,41,0,0,1,8.23-7,39.34,39.34,0,0,1,9.87-4.59A37.58,37.58,0,0,1,681.12,571a48.76,48.76,0,0,1,17.34,2.95,36.7,36.7,0,0,1,22,21.67A47.17,47.17,0,0,1,723.48,612.94Zm-29.11,1.7a18.68,18.68,0,0,0-.82-5.47,15.13,15.13,0,0,0-2.4-4.72,12.21,12.21,0,0,0-3.9-3.34,10.82,10.82,0,0,0-5.34-1.28,13.1,13.1,0,0,0-5.51,1.11,12.67,12.67,0,0,0-4.16,3,13.38,13.38,0,0,0-2.66,4.52,16.38,16.38,0,0,0-.92,5.48,20.21,20.21,0,0,0,.79,5.51,16.56,16.56,0,0,0,2.36,5,12.56,12.56,0,0,0,3.9,3.61,10.51,10.51,0,0,0,5.41,1.37,12.32,12.32,0,0,0,5.54-1.21,12.53,12.53,0,0,0,4.17-3.28,15.13,15.13,0,0,0,2.62-4.75A17.18,17.18,0,0,0,694.37,614.64Z"/><path class="cls-2" d="M776.26,647.89l-.4,7.61H729.2l.21-7.74q.33-12.13.62-24.17t.69-24.23l.26-12.08c.09-4.08.27-8.26.54-12.41l.32-5,5.74-1.73c3.36-1,6.74-1.87,10-2.54s6.61-1.19,9.92-1.57,6.59-.62,9.94-.75,6.56-.2,9.94-.2a73.28,73.28,0,0,1,17.1,2,51.63,51.63,0,0,1,15.39,6.29,35.74,35.74,0,0,1,11.2,10.84,27.51,27.51,0,0,1,4.32,15.2,36.23,36.23,0,0,1-1.09,9.11,27.1,27.1,0,0,1-3.73,8.27,31.54,31.54,0,0,1-6.58,7c-.53.42-1.08.84-1.66,1.25L830.28,649l-50,7.95Z"/><path class="cls-3" d="M804.91,596a44.74,44.74,0,0,1-.88,9.28,27.82,27.82,0,0,1-2.79,7.64,27.44,27.44,0,0,1-4.92,6.43A43.58,43.58,0,0,1,789,625l15.61,27.8-29.51,5.77-10.09-27.93-8.13.27-1.18,27.27h-28.2q.33-15,.63-29.77t.68-29.76q.14-7.54.27-14.95t.52-15a84.39,84.39,0,0,1,9.05-2.82,86.7,86.7,0,0,1,8.95-1.74c3-.41,6-.7,9.11-.85s6.24-.23,9.48-.23a50.88,50.88,0,0,1,14.45,2.06,37.61,37.61,0,0,1,12.36,6.2,31.11,31.11,0,0,1,8.63,10.29A30.44,30.44,0,0,1,804.91,596Zm-29.37,2.1a15.92,15.92,0,0,0-.76-5,11,11,0,0,0-2.23-4,10.18,10.18,0,0,0-3.67-2.63,12.92,12.92,0,0,0-5.14-1,19.42,19.42,0,0,0-2.56.17,17.72,17.72,0,0,0-2.43.49l-1,24.39h1.58a23.8,23.8,0,0,0,5.73-.72,17,17,0,0,0,5.25-2.23,12.42,12.42,0,0,0,3.8-3.87A10.35,10.35,0,0,0,775.54,598.12Z"/><path class="cls-2" d="M811,645.45q.4-18.6.89-37c.33-12.22.74-24.68,1.22-37l.28-7.34h53.49l-1.09,8.37c-1,7.71-2,15.52-2.87,23.23-.6,5-1.09,10.15-1.46,15.28h2.4q3.58,0,7-.06,3.63,0,7.39,0h10.25l-4.46,38.28-73.25,4.67Z"/><path class="cls-3" d="M867.07,621.86,864.31,651l-55.2,4.33q.39-22.89.88-45.51t1.22-45.5H845.3q-1.51,14.36-2.89,28.69t-2,28.88q3.07.14,6.1.13h6.09q3.68,0,7.22-.07T867.07,621.86Z"/><path class="cls-2" d="M892.94,655.93c-2.21,0-4.42,0-6.54-.15s-4.31-.24-6.51-.43l-8.51-.74,2.15-83.85,6.36-1.65a111.74,111.74,0,0,1,16.53-2.93,163.4,163.4,0,0,1,16.33-.83,73.14,73.14,0,0,1,20.38,2.73,51.75,51.75,0,0,1,16.79,8.19,38.32,38.32,0,0,1,11.14,13.2,37.06,37.06,0,0,1,3.89,17,42.83,42.83,0,0,1-2.8,15.76,42,42,0,0,1-8,12.84A49.87,49.87,0,0,1,942,644.79a73.09,73.09,0,0,1-14.85,6.4,100.23,100.23,0,0,1-16.61,3.6A133.44,133.44,0,0,1,892.94,655.93Z"/><path class="cls-3" d="M944.44,607.17a54.33,54.33,0,0,1-2.36,16.56,45.33,45.33,0,0,1-6.59,13.11,44.29,44.29,0,0,1-10.07,9.87,57.76,57.76,0,0,1-12.78,6.78,76.09,76.09,0,0,1-14.79,3.94,100.06,100.06,0,0,1-16.1,1.28q-3.07,0-6-.17c-2-.11-4-.27-6-.49l1.84-88a82.68,82.68,0,0,1,14.85-3.25,123.49,123.49,0,0,1,15.18-.95,50.77,50.77,0,0,1,17.24,2.82,38.94,38.94,0,0,1,13.57,8.13,36.66,36.66,0,0,1,8.89,13A45,45,0,0,1,944.44,607.17Zm-26.89,4.2a25.58,25.58,0,0,0-.75-6.82,16.32,16.32,0,0,0-2.69-5.81,14.08,14.08,0,0,0-4.75-4.06,15.56,15.56,0,0,0-6.89-1.67l-2.62,40.65a18.6,18.6,0,0,0,7.15-2.59,21.55,21.55,0,0,0,5.54-4.92,22.39,22.39,0,0,0,3.6-6.49,23.78,23.78,0,0,0,1.41-7.38Z"/><path class="cls-2" d="M861.65,526.83a125.94,125.94,0,0,1-33.77-4.48,129.7,129.7,0,0,1-30-12.48,121.33,121.33,0,0,1-44.66-44.67,128.88,128.88,0,0,1-12.35-29.64,123.47,123.47,0,0,1-4.43-33.12,132.88,132.88,0,0,1,15.94-63.18A131.58,131.58,0,0,1,771.13,313a123.8,123.8,0,0,1,24.71-20.75,120.22,120.22,0,0,1,29.73-13.63,116.3,116.3,0,0,1,33.89-4.89c18.65,0,36,2.91,51.46,8.66a114.31,114.31,0,0,1,40.42,25.12,112.62,112.62,0,0,1,26,39.42c6,15.18,9.11,32.28,9.11,50.82a137.87,137.87,0,0,1-4.1,33.7A131.86,131.86,0,0,1,970.5,462a127.8,127.8,0,0,1-18.84,26.21,121.13,121.13,0,0,1-25.07,20.51,123.12,123.12,0,0,1-64.94,18.08Zm0-155.75a27.52,27.52,0,0,0-11.41,2.21,25.61,25.61,0,0,0-8.52,6.13,27.41,27.41,0,0,0-5.53,9.31,35.3,35.3,0,0,0-2,11.92A44.79,44.79,0,0,0,836,413.2a35.55,35.55,0,0,0,5.2,10.86,25.38,25.38,0,0,0,8,7.26,19.85,19.85,0,0,0,10.28,2.49,24.84,24.84,0,0,0,19.76-9,32,32,0,0,0,5.66-10.12,37.72,37.72,0,0,0,2-12.29,40.82,40.82,0,0,0-1.86-12.27,31.9,31.9,0,0,0-5.15-10.06,24.75,24.75,0,0,0-7.91-6.67A21.27,21.27,0,0,0,861.65,371.08Z"/><path class="cls-3" d="M967.79,394.05A132,132,0,0,1,964,426a125.51,125.51,0,0,1-11,28.87,119.91,119.91,0,0,1-17.49,24.68,111.42,111.42,0,0,1-23.13,19.21,112.15,112.15,0,0,1-60,16.94,114.5,114.5,0,0,1-31.23-4.19,118.44,118.44,0,0,1-27.78-11.75,111.47,111.47,0,0,1-23.4-18.21,112.79,112.79,0,0,1-17.85-23.68,122.24,122.24,0,0,1-11.48-27.95,117.29,117.29,0,0,1-4.09-31.15A127.24,127.24,0,0,1,751.33,339a124.07,124.07,0,0,1,17.39-24.77,114.75,114.75,0,0,1,22.86-19.48A109.37,109.37,0,0,1,819,282a104.9,104.9,0,0,1,31.14-4.55q26.42,0,48.18,8.19a102.05,102.05,0,0,1,61,60.19Q967.8,367.46,967.79,394.05Zm-80.87,4.73a51.23,51.23,0,0,0-2.27-15.21A42,42,0,0,0,878,370.46a34.14,34.14,0,0,0-10.84-9.29,30.41,30.41,0,0,0-14.84-3.55,36.15,36.15,0,0,0-15.3,3.1,34.9,34.9,0,0,0-11.56,8.47,37.13,37.13,0,0,0-7.38,12.56A45.22,45.22,0,0,0,815.53,397a55.36,55.36,0,0,0,2.19,15.3,45.37,45.37,0,0,0,6.55,13.84,34.92,34.92,0,0,0,10.84,10,29,29,0,0,0,15,3.82,34.25,34.25,0,0,0,15.39-3.37,34.67,34.67,0,0,0,11.57-9.1,41.91,41.91,0,0,0,7.29-13.21A47.76,47.76,0,0,0,886.92,398.78Z"/><g id="hands"><path class="cls-4" d="M832.76,335c-9.56,0-12.72-3.42-16.37-7.38a33.07,33.07,0,0,0-8.1-6.88c-12-7.08-12.92-16.54-10.38-30.49,2.64-14.55,25.85-31,26.84-31.7l.14-.1.16-.07a20.38,20.38,0,0,1,7.79-2.07,5.12,5.12,0,0,1,4.55,2.09c1.86,2.71.34,6.83.16,7.29,0,.1-8.3,17.8-14,30.21,20.84,12,30.37,22,28.32,29.82C850.14,332.09,841,335,832.76,335Z"/><path class="cls-5" d="M825.74,259.92s-23.58,16.58-26.13,30.6-1.28,22.31,9.56,28.69,9.56,14,23.59,14,36.33-9.56-11.48-36.65C827,284.15,835.94,265,835.94,265S840.4,253.55,825.74,259.92Z"/><path class="cls-4" d="M926.73,341.61c9.55,0,12.71-3.42,16.37-7.38a33,33,0,0,1,8.09-6.88c12-7.08,12.93-16.54,10.39-30.49-2.65-14.55-25.86-31-26.84-31.7l-.15-.1-.16-.07a20.34,20.34,0,0,0-7.78-2.07,5.12,5.12,0,0,0-4.56,2.09c-1.86,2.71-.34,6.83-.16,7.29,0,.1,8.3,17.8,14,30.21-20.85,12-30.37,22-28.32,29.82C909.34,338.74,918.45,341.61,926.73,341.61Z"/><path class="cls-5" d="M933.74,266.57s23.59,16.58,26.14,30.6,1.27,22.31-9.56,28.69-9.57,14-23.59,14-36.34-9.56,11.47-36.65c-5.73-12.43-14.66-31.56-14.66-31.56S919.08,260.2,933.74,266.57Z"/></g><path class="cls-4" d="M828.35,187.61a61.41,61.41,0,0,1,6.75-16c-.12-.36-.23-.74-.35-1.16l-.3-1.14a63.37,63.37,0,0,0-7.87,18l.29,0A2.44,2.44,0,0,1,828.35,187.61Z"/><path class="cls-4" d="M824.32,219.07c.13-4.22.37-8.35.74-12.35a4.67,4.67,0,0,1-1.82-.74c-.42,4.18-.69,8.53-.84,13v.27a21,21,0,0,0,1.94,7.33,3.33,3.33,0,0,1,1.84-.62A18.59,18.59,0,0,1,824.32,219.07Z"/><path class="cls-4" d="M874.59,145.27c-10.13,1.91-18.36,5-25,9.26l.87.23a4.13,4.13,0,0,1,1.35.62c6.32-3.73,14.08-6.55,23.58-8.3l-.1-.15A6.19,6.19,0,0,1,874.59,145.27Z"/><path class="cls-4" d="M898.24,143.11a6.12,6.12,0,0,1-.08,1.91l2.55,0A99.32,99.32,0,0,1,919,146.67a3.54,3.54,0,0,1,.86-1.76,100.44,100.44,0,0,0-19.19-1.82Z"/><path class="cls-4" d="M960.08,166.91a6.27,6.27,0,0,1,1.59-1.27,81.58,81.58,0,0,0-20.76-13.93l.07,2.18A79.68,79.68,0,0,1,960.08,166.91Z"/><path class="cls-4" d="M826.52,264.37l-.06-.34c-.69-4.43,3.27-16,3.08-26.21-.07.07-.13.15-.21.22a3.45,3.45,0,0,1-1.71.71,86.57,86.57,0,0,1-1.89,15.08c-.85,4.55-1.53,8.13-1.16,10.51l.08.43c1,4.59,6.54,12.51,15.32,19.88.64-.3,1.29-.59,1.93-.87C832.8,276.32,827.37,268.35,826.52,264.37Z"/><path class="cls-4" d="M985.42,205.38a86.6,86.6,0,0,0-9.28-21.92l-.37.64a6.13,6.13,0,0,1-.92,1.21,85.73,85.73,0,0,1,8.32,19.49A6.19,6.19,0,0,1,985.42,205.38Z"/><path class="cls-4" d="M988.69,227.33c0-.36-.05-.72-.06-1.09l-1.86,1.07a.38.38,0,0,1,0,.1c-2.07,1.67-4.16,2.85-5.81,2.58-1.92-.32-2.34,3.62-2.14,8.54l.06.08,2.12,3.66c-.56-6.28-.25-9.33.16-10.33h.3c1.86,0,4-1,6.52-3.05l.74-.6Z"/><path class="cls-4" d="M981.83,249.41l-.05.12a6,6,0,0,1-1.6,1.8c0,.26.08.52.11.77-4.88,1.16-9.47,2-11.62,1.68-5.75-.82-9-4.1-8.21,4.11s-4.92,30.74-24.61,33.83c-3.64.57-7.51,1-11.41,1.43.75.55,1.49,1.11,2.21,1.69,3.25-.35,6.45-.75,9.5-1.23,20.9-3.28,27.14-26.7,26.22-35.91a10.27,10.27,0,0,1,0-3.34,12.55,12.55,0,0,1,2.22.48,32.5,32.5,0,0,0,3.8.84,10.33,10.33,0,0,0,1.33.08,54,54,0,0,0,11-1.8l1.72-.41-.26-1.74Q982,250.57,981.83,249.41Z"/><path class="cls-5" d="M986.77,227.31l-.87.51a6.22,6.22,0,0,1-9.33-5.39V211a6.15,6.15,0,0,1,3.11-5.39,6.21,6.21,0,0,1,3.49-.82,85.73,85.73,0,0,0-8.32-19.49A6.22,6.22,0,0,1,965,184.1l-5.71-9.89a6.17,6.17,0,0,1,.8-7.3,79.68,79.68,0,0,0-19.1-13l0,.52c.08,2.72-.9,3.91-1.73,4.42a3.46,3.46,0,0,1-1.88.5,8,8,0,0,1-3.71-1.12l-10.19-5.45c-2.76-1.48-4.44-3.52-4.5-5.45a2.85,2.85,0,0,1,0-.64A99.32,99.32,0,0,0,900.71,145l-2.55,0a6.5,6.5,0,0,1-.71,1.91,6.16,6.16,0,0,1-5.39,3.11H880.64a6.16,6.16,0,0,1-5.29-3c-9.5,1.75-17.26,4.57-23.58,8.3a3,3,0,0,1,1.2,1.69c.65,2.45-1.39,5.91-3.57,8.1l-8.06,8.09c-1.24,1.24-2.27,1.83-3.19,1.83a2,2,0,0,1-.55-.07c-1-.27-1.82-1.34-2.5-3.38a61.41,61.41,0,0,0-6.75,16,2.64,2.64,0,0,1,.5.38,2.38,2.38,0,0,1,.65,2c-.52,3.84-1.25,9.49-1.78,14.63a2.46,2.46,0,0,1-.94,1.69,2.15,2.15,0,0,1-1.34.47,1.51,1.51,0,0,1-.3,0l-.08,0c-.37,4-.61,8.13-.74,12.35a18.59,18.59,0,0,0,1.87,6.92,3.41,3.41,0,0,1,3.57,2.94l.86,5.89a3.41,3.41,0,0,1-1.08,3c.19,10.16-3.77,21.78-3.08,26.21l.06.34c.85,4,6.28,11.95,15.38,19.41-.64.28-1.29.57-1.93.87l.33.27c.67-.27,1.35-.54,2-.79,1.29-.48,2.6-.93,3.94-1.35,1.82-.56,3.68-1,5.56-1.43-.21-.32,1.79-.37,1.79-.37l6.21,8.8,8.23-2.77c10-.8,17.65-3.43,23.73-3.73a19,19,0,0,1,2.73,0,16.84,16.84,0,0,0,7.93-1.37c3-1.24,5-.32,2.31.8l.82.28a76.4,76.4,0,0,1,18.86,10.12c3.9-.4,7.77-.86,11.41-1.43,19.69-3.09,25.43-25.63,24.61-33.83s2.46-4.93,8.21-4.11c2.15.31,6.74-.52,11.62-1.68,0-.25-.07-.51-.11-.77a5.88,5.88,0,0,1-3.54,1.17h-5.76a4.57,4.57,0,0,1-4-6.85l4.06-7a4.53,4.53,0,0,1,4-2.28h0a4.5,4.5,0,0,1,3.89,2.2c-.2-4.92.22-8.86,2.14-8.54,1.65.27,3.74-.91,5.81-2.58A.38.38,0,0,0,986.77,227.31Z"/><path class="cls-6" d="M981.78,243.61l-.77-1.34-2.12-3.66-.06-.08a4.5,4.5,0,0,0-3.89-2.2h0a4.53,4.53,0,0,0-4,2.28l-4.06,7a4.57,4.57,0,0,0,4,6.85h5.76a5.88,5.88,0,0,0,3.54-1.17,6,6,0,0,0,1.6-1.8l.05-.12A5.85,5.85,0,0,0,981.78,243.61Zm-.23,3.72a5.1,5.1,0,0,1-.6,1.73,5.57,5.57,0,0,1-.93,1.16,4.94,4.94,0,0,1-3.38,1.32h-5.76a3.61,3.61,0,0,1-3.13-5.41l4.06-7a3.61,3.61,0,0,1,6.25,0l.89,1.54,2,3.46c.11.2.21.4.3.61A4.94,4.94,0,0,1,981.55,247.33Z"/><path class="cls-6" d="M866.86,255.13a5.18,5.18,0,0,1-4.48-7.76l10.51-18.21a2.31,2.31,0,0,1,4,0l10.51,18.21a5.18,5.18,0,0,1-4.48,7.76Z"/><path class="cls-7" d="M875.71,229.83a1,1,0,0,0-1.65,0L863.54,248a3.83,3.83,0,0,0,3.32,5.74h16a3.83,3.83,0,0,0,3.32-5.74Z"/><path class="cls-7" d="M897.28,143.12a5.45,5.45,0,0,0-.66-1.94l-4.06-7a7.17,7.17,0,0,0-12.43,0l-4,7a5.25,5.25,0,0,0,0,5.27,4.78,4.78,0,0,0,.29.44,5.2,5.2,0,0,0,4.27,2.19h11.42a5.22,5.22,0,0,0,4.56-2.63,5.32,5.32,0,0,0,.56-1.41A5.17,5.17,0,0,0,897.28,143.12Z"/><path class="cls-6" d="M898.24,143.11a6.18,6.18,0,0,0-.79-2.4l-4.06-7a8.13,8.13,0,0,0-14.09,0l-4,7a6.1,6.1,0,0,0-.66,4.56,6.19,6.19,0,0,0,.66,1.66l.1.15a6.16,6.16,0,0,0,5.29,3h11.42a6.16,6.16,0,0,0,5.39-3.11,6.5,6.5,0,0,0,.71-1.91A6.12,6.12,0,0,0,898.24,143.11ZM897.18,145a5.32,5.32,0,0,1-.56,1.41,5.22,5.22,0,0,1-4.56,2.63H880.64a5.2,5.2,0,0,1-4.27-2.19,4.78,4.78,0,0,1-.29-.44,5.25,5.25,0,0,1,0-5.27l4-7a7.17,7.17,0,0,1,12.43,0l4.06,7a5.45,5.45,0,0,1,.66,1.94A5.17,5.17,0,0,1,897.18,145Z"/><path class="cls-7" d="M852,157.32a2.09,2.09,0,0,0-1.19-1.38,3.74,3.74,0,0,0-.67-.25l-1.72-.46-6.11-1.63a7.18,7.18,0,0,0-8.78,8.81l1.58,5.88.53,1.94a3.57,3.57,0,0,0,.1.35c.61,2.15,1.29,3.31,2.07,3.52s1.63-.33,2.81-1.52l8.06-8.09C850.78,162.43,852.58,159.31,852,157.32Z"/><path class="cls-6" d="M853,157.07a3,3,0,0,0-1.2-1.69,4.13,4.13,0,0,0-1.35-.62l-.87-.23-7-1.85a8.14,8.14,0,0,0-10,10l1.81,6.68.3,1.14c.12.42.23.8.35,1.16.68,2,1.47,3.11,2.5,3.38a2,2,0,0,0,.55.07c.92,0,2-.59,3.19-1.83l8.06-8.09C851.58,163,853.62,159.52,853,157.07Zm-4.25,7.42-8.06,8.09c-1.18,1.19-2.13,1.7-2.81,1.52s-1.46-1.37-2.07-3.52a3.57,3.57,0,0,1-.1-.35l-.53-1.94-1.58-5.88a7.18,7.18,0,0,1,8.78-8.81l6.11,1.63,1.72.46a3.74,3.74,0,0,1,.67.25,2.09,2.09,0,0,1,1.19,1.38C852.58,159.31,850.78,162.43,848.72,164.49Z"/><path class="cls-7" d="M829.67,235l-.85-5.88a2.46,2.46,0,0,0-1.56-2,2,2,0,0,0-.47-.14,2.42,2.42,0,0,0-.47-.05,2.54,2.54,0,0,0-1.5.51s0,0,0,0l-3.32,2.61a3.51,3.51,0,0,0,.87,6l3.92,1.57a2.58,2.58,0,0,0,1.37.13,2.46,2.46,0,0,0,1.12-.5,2.5,2.5,0,0,0,.74-1A2.41,2.41,0,0,0,829.67,235Z"/><path class="cls-6" d="M830.62,234.82l-.86-5.89a3.39,3.39,0,0,0-3.57-2.94,3.33,3.33,0,0,0-1.84.62.91.91,0,0,0-.17.09l-3.31,2.62A4.47,4.47,0,0,0,822,237l3.92,1.56a3.45,3.45,0,0,0,1.29.26,3,3,0,0,0,.43,0,3.45,3.45,0,0,0,1.71-.71c.08-.07.14-.15.21-.22A3.41,3.41,0,0,0,830.62,234.82Zm-4.37,2.83-3.92-1.57a3.51,3.51,0,0,1-.87-6l3.32-2.61s0,0,0,0a2.54,2.54,0,0,1,1.5-.51,2.42,2.42,0,0,1,.47.05,2,2,0,0,1,.47.14,2.46,2.46,0,0,1,1.56,2l.85,5.88a2.41,2.41,0,0,1-.19,1.36,2.5,2.5,0,0,1-.74,1,2.46,2.46,0,0,1-1.12.5A2.58,2.58,0,0,1,826.25,237.65Z"/><path class="cls-7" d="M981.25,244.7c-.09-.21-.19-.41-.3-.61l-2-3.46-.89-1.54a3.61,3.61,0,0,0-6.25,0l-4.06,7a3.61,3.61,0,0,0,3.13,5.41h5.76a4.94,4.94,0,0,0,3.38-1.32,5.57,5.57,0,0,0,.93-1.16,5.1,5.1,0,0,0,.6-1.73A4.94,4.94,0,0,0,981.25,244.7Z"/><path class="cls-7" d="M992.44,210.5l-6.72-3.88-.3-.17a5.3,5.3,0,0,0-2-.67,4.87,4.87,0,0,0-.66,0,5.27,5.27,0,0,0-5.26,5.27v11.42a5.26,5.26,0,0,0,7.89,4.56l1.29-.75,1.85-1.06,3.88-2.24a7.18,7.18,0,0,0,0-12.44Z"/><path class="cls-6" d="M992.92,209.67l-7-4c-.16-.09-.32-.16-.48-.24a6.21,6.21,0,0,0-8.85,5.63v11.42a6.21,6.21,0,0,0,9.33,5.39l.87-.51,1.86-1.07,4.29-2.47a8.14,8.14,0,0,0,0-14.1Zm-.48,13.27-3.88,2.24-1.85,1.06-1.29.75a5.26,5.26,0,0,1-7.89-4.56V211a5.27,5.27,0,0,1,5.26-5.27,4.87,4.87,0,0,1,.66,0,5.3,5.3,0,0,1,2,.67l.3.17,6.72,3.88a7.18,7.18,0,0,1,0,12.44Z"/><path class="cls-7" d="M979,169.42a7.11,7.11,0,0,0-6.22-3.59h-8.1a5.31,5.31,0,0,0-3.9,1.74,5.49,5.49,0,0,0-.66.9,5.21,5.21,0,0,0,0,5.26l5.71,9.89a5.26,5.26,0,0,0,8.53.82,5.53,5.53,0,0,0,.59-.82l.64-1.11L979,176.6A7.1,7.1,0,0,0,979,169.42Z"/><path class="cls-6" d="M979.82,168.94a8.06,8.06,0,0,0-7.05-4.06h-8.1a6.07,6.07,0,0,0-4.59,2,6.17,6.17,0,0,0-.8,7.3L965,184.1a6.24,6.24,0,0,0,10.78,0l.37-.64,3.68-6.38A8.06,8.06,0,0,0,979.82,168.94Zm-9.44,17.31a5.21,5.21,0,0,1-4.56-2.63l-5.71-9.89a5.21,5.21,0,0,1,0-5.26,5.49,5.49,0,0,1,.66-.9,5.31,5.31,0,0,1,3.9-1.74h8.1A7.18,7.18,0,0,1,979,176.6l-3.41,5.91-.64,1.11a5.53,5.53,0,0,1-.59.82A5.22,5.22,0,0,1,970.38,186.25Z"/><path class="cls-7" d="M940,153.41l-.07-2.16-.16-5a7.26,7.26,0,0,0-11.1-5.94l-7,4.32a4.78,4.78,0,0,0-.69.52,2.8,2.8,0,0,0-1,1.73,2.9,2.9,0,0,0-.06.41c0,1.56,1.59,3.34,4,4.63l10.19,5.46c2,1,3.61,1.28,4.63.65s1.34-1.79,1.28-3.58Z"/><path class="cls-6" d="M941,153.89l-.07-2.18-.17-5.5a8.23,8.23,0,0,0-12.56-6.73l-7,4.33a5.31,5.31,0,0,0-1.31,1.1,3.54,3.54,0,0,0-.86,1.76,2.85,2.85,0,0,0,0,.64c.06,1.93,1.74,4,4.5,5.45l10.19,5.45a8,8,0,0,0,3.71,1.12,3.46,3.46,0,0,0,1.88-.5c.83-.51,1.81-1.7,1.73-4.42ZM938.76,158c-1,.63-2.67.4-4.63-.65l-10.19-5.46c-2.41-1.29-4-3.07-4-4.63a2.9,2.9,0,0,1,.06-.41,2.8,2.8,0,0,1,1-1.73,4.78,4.78,0,0,1,.69-.52l7-4.32a7.26,7.26,0,0,1,11.1,5.94l.16,5,.07,2.16,0,1C940.1,156.23,939.66,157.47,938.76,158Z"/><path class="cls-7" d="M828.16,188.66l-.08,0a1.39,1.39,0,0,0-1-.38H827l-.66.07-4,.44a6.5,6.5,0,0,0-4,11l4.54,4.71a5.34,5.34,0,0,0,.5.46,4,4,0,0,0,1.8.87l.12,0a1.22,1.22,0,0,0,.93-.25,1.59,1.59,0,0,0,.57-1c.53-5.15,1.26-10.81,1.78-14.66A1.39,1.39,0,0,0,828.16,188.66Z"/><path class="cls-6" d="M828.85,188a2.64,2.64,0,0,0-.5-.38,2.44,2.44,0,0,0-1.48-.33l-.29,0-4.4.48a7.46,7.46,0,0,0-4.56,12.59l4.54,4.72a6.31,6.31,0,0,0,1.08.88,4.67,4.67,0,0,0,1.82.74l.08,0a1.51,1.51,0,0,0,.3,0,2.15,2.15,0,0,0,1.34-.47,2.46,2.46,0,0,0,.94-1.69c.53-5.14,1.26-10.79,1.78-14.63A2.38,2.38,0,0,0,828.85,188Zm-12,5a6.38,6.38,0,0,1,5.41-4.24l4-.44.66-.07h.16a1.39,1.39,0,0,1,1,.38l.08,0a1.39,1.39,0,0,1,.39,1.18c-.52,3.85-1.25,9.51-1.78,14.66a1.59,1.59,0,0,1-.57,1,1.22,1.22,0,0,1-.93.25l-.12,0a4,4,0,0,1-1.8-.87,5.34,5.34,0,0,1-.5-.46l-4.54-4.71A6.39,6.39,0,0,1,816.88,193Z"/><path class="cls-6" d="M854.69,206.55a8.92,8.92,0,0,1-9-9.33c0-.27,0-.42,0-.57L848,173.73a2.29,2.29,0,0,1,2.29-2.08,2.25,2.25,0,0,1,1.7.76l15.39,17.06.06.07A9,9,0,0,1,863.66,204l-6,2.09a9.23,9.23,0,0,1-3,.5Z"/><path class="cls-7" d="M866.39,190.33l-2.35-2.6-13-14.42a1,1,0,0,0-1.67.55l-2.28,22.92c0,.17,0,.33,0,.49a7.5,7.5,0,0,0,.28,2.39,7.66,7.66,0,0,0,9.88,5.12l6-2.09a7.66,7.66,0,0,0,3.21-12.31Z"/><path class="cls-6" d="M932.71,210.56a9,9,0,0,1-3-.51l-6-2.09A9,9,0,0,1,920,193.43l15.36-17a2.25,2.25,0,0,1,1.7-.76,2.3,2.3,0,0,1,2.3,2.07l2.28,22.92a8.9,8.9,0,0,1-1.18,5.42,7.89,7.89,0,0,1-.51.77,9,9,0,0,1-7.26,3.72Z"/><path class="cls-7" d="M940.32,200.79,938,177.86a1,1,0,0,0-1.67-.54L926,188.81,924,191l-3,3.31a7.65,7.65,0,0,0,3.17,12.36l6,2.09a7.63,7.63,0,0,0,8.71-2.74,5.62,5.62,0,0,0,.43-.65A7.5,7.5,0,0,0,940.32,200.79Z"/><g id="eyes"><path class="cls-8" d="M912.55,221.4c-7.08,1.6-11.09,10.59-8.94,20.09,1.4,6.18,5,11,9.38,13.24a46.46,46.46,0,0,1,12.57-2c3.61-3.76,5.22-10.27,3.69-17.05C927.11,226.2,919.63,219.8,912.55,221.4Zm11.16,31.41c-.83.05-1.67.11-2.5.2h-.06c-.87.09-1.75.22-2.62.35q-2.5.4-5,1.06a16.64,16.64,0,0,1-6.18-10c-1.65-7.3,1.12-14.41,6-15.52a6.16,6.16,0,0,1,1.36-.15c4.65,0,9.28,5,10.77,11.56C926.57,245,925.86,249.74,923.71,252.81Z"/><path class="cls-9" d="M914.75,228.81a6.16,6.16,0,0,0-1.36.15c-4.92,1.11-7.69,8.22-6,15.52a16.64,16.64,0,0,0,6.18,10q2.49-.66,5-1.06c-1.53.24-3.06.52-4.58.89a15.3,15.3,0,0,1-4.74-8.29,15.76,15.76,0,0,1,.48-9,8.76,8.76,0,0,1,1.48-2.54,2.2,2.2,0,0,1,2.17-1.83,1.92,1.92,0,0,1,.59.09,4.48,4.48,0,0,1,.82-.09c3.72,0,7.63,4.42,8.9,10.07a14.82,14.82,0,0,1-1,10.17c-.47,0-.94.08-1.4.13.83-.09,1.67-.15,2.5-.2,2.15-3.07,2.86-7.77,1.81-12.44C924,233.78,919.4,228.81,914.75,228.81Z"/><path d="M923.65,242.71c-1.27-5.65-5.18-10.07-8.9-10.07a4.48,4.48,0,0,0-.82.09,2.21,2.21,0,1,1-2.8,2.12,2.33,2.33,0,0,1,0-.38,8.76,8.76,0,0,0-1.48,2.54,15.76,15.76,0,0,0-.48,9,15.3,15.3,0,0,0,4.74,8.29c1.52-.37,3-.65,4.58-.89.87-.14,1.75-.26,2.62-.35h.06c.46,0,.93-.1,1.4-.13A14.82,14.82,0,0,0,923.65,242.71Z"/><path d="M921.15,253c-.87.09-1.75.21-2.62.35C919.4,253.24,920.28,253.11,921.15,253Z"/><path class="cls-8" d="M913.81,232.74h.12a1.92,1.92,0,0,0-.59-.09,2.2,2.2,0,0,0-2.17,1.83A5,5,0,0,1,913.81,232.74Z"/><path class="cls-8" d="M913.34,237.06a2.2,2.2,0,0,0,.59-4.33h-.12a5,5,0,0,0-2.64,1.73,2.33,2.33,0,0,0,0,.38A2.21,2.21,0,0,0,913.34,237.06Z"/><path class="cls-8" d="M854.55,221.69C848,220.21,841,226.16,839,235c-1.42,6.29.07,12.33,3.43,15.83a43.12,43.12,0,0,1,11.67,1.84c4-2.05,7.42-6.56,8.71-12.3C864.85,231.53,861.13,223.18,854.55,221.69Zm4.84,21.44a15.44,15.44,0,0,1-5.75,9.24,47.29,47.29,0,0,0-4.64-1c-.81-.12-1.62-.25-2.43-.33h-.06c-.77-.08-1.55-.14-2.32-.18-2-2.86-2.66-7.22-1.68-11.55,1.38-6.13,5.68-10.74,10-10.74a5.29,5.29,0,0,1,1.26.14C858.34,229.75,860.92,236.35,859.39,243.13Z"/><path class="cls-9" d="M853.77,228.72a5.29,5.29,0,0,0-1.26-.14c-4.32,0-8.62,4.61-10,10.74-1,4.33-.32,8.69,1.68,11.55.77,0,1.55.1,2.32.18l-1.3-.12a13.78,13.78,0,0,1-1-9.44c1.19-5.25,4.82-9.36,8.27-9.36a3.94,3.94,0,0,1,.76.09,1.92,1.92,0,0,1,.55-.09,2,2,0,0,1,2,1.7,8.07,8.07,0,0,1,1.38,2.36,14.62,14.62,0,0,1,.44,8.32,14.12,14.12,0,0,1-4.4,7.7c-1.41-.35-2.83-.6-4.25-.82a47.29,47.29,0,0,1,4.64,1,15.44,15.44,0,0,0,5.75-9.24C860.92,236.35,858.34,229.75,853.77,228.72Z"/><path d="M857.65,244.51a14.62,14.62,0,0,0-.44-8.32,8.07,8.07,0,0,0-1.38-2.36,2.09,2.09,0,0,1,0,.35,2.06,2.06,0,1,1-2.6-2,3.94,3.94,0,0,0-.76-.09c-3.45,0-7.08,4.11-8.27,9.36a13.78,13.78,0,0,0,1,9.44l1.3.12h.06c.81.08,1.62.2,2.43.33,1.42.22,2.84.47,4.25.82A14.12,14.12,0,0,0,857.65,244.51Z"/><path d="M849,251.39c-.81-.13-1.62-.25-2.43-.33C847.38,251.14,848.19,251.27,849,251.39Z"/><path class="cls-8" d="M855.83,233.83a2,2,0,0,0-2-1.7,1.92,1.92,0,0,0-.55.09h.11A4.63,4.63,0,0,1,855.83,233.83Z"/><path class="cls-8" d="M851.76,234.18a2.06,2.06,0,1,0,4.11,0,2.09,2.09,0,0,0,0-.35,4.63,4.63,0,0,0-2.45-1.6h-.11A2,2,0,0,0,851.76,234.18Z"/></g><path class="cls-10" d="M911.13,271.94s-.69,4.61-2.34,6.15a22.87,22.87,0,0,1-6.34,3.86,16.84,16.84,0,0,1-7.93,1.37,19,19,0,0,0-2.73,0c-6.08.3-13.76,2.93-23.73,3.73l-8.23,2.77-6.21-8.8-.75-1.05L845,268.76s-1.43-1.64,1.54-4.21l-4.86,3.71c.59-.06,1.32.21,2.18,1.22,1.36,1.58,4.47,6.49,7.37,10.92l.62,1a63.37,63.37,0,0,0,4.71,6.59,14.73,14.73,0,0,1,3.29,4.92l3.2-3.08s1.11-.18,3.63-.54c2.13-.31,26.63-4.07,26.63-4.07s-.62.8-1.68,2c-5.08,5.81-9.36,8.73-12.86,9.88,4.33-.86,10-3.94,17.31-11.24l1.71-.51c1.69-.53,4.4-1.43,7-2.52s5.18-2.43,6.37-3.74c0,0,2.07-3.38,4.42-.61l2.35,2.77Z"/><path class="cls-10" d="M840.06,269.48l1.6-1.22A2.34,2.34,0,0,0,840.06,269.48Z"/><path class="cls-11" d="M866.66,289.24h0c-1.51.22,2.25,11,12.1,7.78,3.5-1.15,7.78-4.07,12.86-9.88.55-.62,1.11-1.28,1.68-2C893.29,285.17,868.79,288.93,866.66,289.24Zm4.18-.63,8.32-1.17c3.4-.54,7.45-1.05,7.57-1.06h0c-2.84.49-6.41,1.05-10.36,1.56-1.51.31-1.78,1.64-1.63,3a4.5,4.5,0,0,1,.16.44l.86,3a12.7,12.7,0,0,1-1-3.44,3.89,3.89,0,0,0-3.52-2.34A2.6,2.6,0,0,0,870.84,288.61Z"/><path class="cls-12" d="M874.89,291.4a4.5,4.5,0,0,0-.16-.44,12.7,12.7,0,0,0,1,3.44Z"/><path class="cls-12" d="M886.73,286.38c-.12,0-4.17.52-7.57,1.06l-8.32,1.17a2.6,2.6,0,0,1,.37,0,3.89,3.89,0,0,1,3.52,2.34c-.15-1.38.12-2.71,1.63-3,3.95-.51,7.52-1.07,10.36-1.56h0Z"/><path class="cls-10" d="M892.15,172.59l1.85-3.31A30.45,30.45,0,0,0,892.15,172.59Z"/><path class="cls-10" d="M891.14,174.39a10.69,10.69,0,0,0-1.14,4,30.42,30.42,0,0,1,2.15-5.79C891.86,173.11,891.52,173.7,891.14,174.39Z"/><path class="cls-10" d="M841.18,206.29c-2.58,4.8-8.81,14.88-8.2,18.57.38,2.27-1.19,13-2.45,20.93,1.69-6.65,4.2-14.12,4-20.31-.31-9.23,8.31-16.92,12-24.42a11.71,11.71,0,0,1,.83-1.4,7.5,7.5,0,0,1-.28-2.39A55,55,0,0,0,841.18,206.29Z"/><path class="cls-10" d="M830.53,245.79a39.35,39.35,0,0,0-1.49,8.94S829.72,250.81,830.53,245.79Z"/><path class="cls-10" d="M890,178.38a16.87,16.87,0,0,0,.06,9.55c-10.75-.21-21-.34-26-.2l2.35,2.6,0,0c4.94,0,14.64-.08,24.71-.1h0c11.76,0,24,0,29.84.12a9.92,9.92,0,0,1,3,.62l2-2.21s-18.21-.53-35.38-.87A34,34,0,0,1,890,178.38Z"/><path class="cls-10" d="M952.26,203.33l-3.28,3a23.17,23.17,0,0,1-6.78,3.62c-.9-1.52-1.87-3-2.88-4.52a5.62,5.62,0,0,1-.43.65c.9,1.4,1.74,2.8,2.51,4.16-2,.7-3.5,1.11-3.5,1.11a11.7,11.7,0,0,0,3.8-.59c3.33,5.88,5.43,10.75,5.43,10.75a37,37,0,0,0-4.62-11C947.94,208.36,952.26,203.33,952.26,203.33Z"/><path class="cls-4" d="M914.76,211.12s-6.67-12.6-15.3-5.41C899.46,205.71,907.1,202.77,914.76,211.12Z"/><path class="cls-4" d="M855.55,205.71c-7-6.78-18,1.6-18,1.6C843.66,202.94,855.55,205.71,855.55,205.71Z"/><path class="cls-5" d="M931.26,506.29S901.55,524.23,864.5,516a1.41,1.41,0,0,0-1.1,2.54c5.51,3.63,13.43,8.35,19.56,10C893.43,531.27,931.05,518.3,931.26,506.29Z"/></g></g></svg>