<svg xmlns="http://www.w3.org/2000/svg" viewBox="0 0 600 600"><defs><style>.cls-1{fill:#933;}.cls-2{fill:#c66;}</style></defs><title>aAlvarezsaurus</title><g id="Layer_17" data-name="Layer 17"><path class="cls-1" d="M324.16,499.92s15.81,18.46,18.73,29.85c0,0-8.7,22-19.74,37.23l14.63,12.18,9.4-3.2,6.91,9.09L331,592.92,304.66,577.1l6.91-35.71-20-5.59-15-24.45Z"/><path class="cls-1" d="M361.38,505.32s-11,9.5-17.35,13.09l2.23,22.9-9.7,7.5s10.4,1.45,18.72-3.3A98.93,98.93,0,0,0,353,528.28l13.12-12.19Z"/><polygon class="cls-1" points="459.2 449.69 454.26 441.87 456.73 450.54 459.2 449.69"/><polyline class="cls-1" points="456.73 451.42 451.79 443.59 454.26 452.26"/><polyline class="cls-1" points="454.26 454.03 449.33 446.2 451.79 454.87"/><polyline class="cls-1" points="451.79 455.75 446.86 447.93 449.33 456.59"/><path class="cls-2" d="M437.08,459.71c23.79-11.89,28.42-13.87,37-7.27S486.64,461,490.6,465l4,4s-23.13-7.93-28.74-6.6l25.44,9.91c-5.95,4.62-19.83-.66-25.44-4-9.59,1.32-53.86,15.2-81.61,36.35L377,510.59s-27.75,15.86-69.38,13.22S262.64,504,259.33,497.38s-33-25.11-33-25.11S168.81,424.1,153,394.66,113.3,295.18,108,251.57,103.39,54.66,131.14,7.08c-4,32.38-16.52,34.36-17.18,132.15s12.56,262.33,130.17,316.52c33.7,5.28,43.62-4,68.73,5.94s24.44,11.9,50.88,14.54,41.62,0,54.84-6.61S437.08,459.71,437.08,459.71Z"/><path class="cls-2" d="M304,507.21s-.17,24.3-5.44,34.82c0,0-21,10.91-39.33,15.13l3.05,18.8,9.19,3.75-.76,11.39-22.55-9.21-9.51-29.23,28.65-22.42-11.43-17.35,4.73-28.28Z"/><path class="cls-2" d="M361.57,505.32s-4.08,13.94-7.48,20.41l14.29,18-4.09,11.56s9.53-4.42,13.95-12.92A98.56,98.56,0,0,0,367,529.13l4.43-17.35Z"/><path class="cls-1" d="M336.56,471.27s4.54,16.2,0,22.8L332,500.68s4.62-22.6,0-31.12C332,469.56,335.66,467.39,336.56,471.27Z"/><path class="cls-1" d="M330,468.29s4.54,16.2,0,22.81l-4.54,6.61s4.63-22.61,0-31.13C325.46,466.58,329.1,464.41,330,468.29Z"/><path class="cls-1" d="M349.34,475.49s4.54,16.2,0,22.8l-4.54,6.61s4.63-22.6,0-31.12C344.8,473.78,348.44,471.61,349.34,475.49Z"/><path class="cls-1" d="M343.11,473.91s4.54,16.2,0,22.81l-4.54,6.6s4.63-22.6,0-31.12C338.57,472.2,342.21,470,343.11,473.91Z"/><circle cx="467.53" cy="454.32" r="1.96"/></g></svg>