<?xml version="1.0" encoding="utf-8"?>
<!-- Generator: Adobe Illustrator 23.0.3, SVG Export Plug-In . SVG Version: 6.00 Build 0)  -->
<svg version="1.0" id="Layer_1" xmlns="http://www.w3.org/2000/svg" xmlns:xlink="http://www.w3.org/1999/xlink" x="0px" y="0px"
	 viewBox="0 0 700 300" style="enable-background:new 0 0 700 300;" xml:space="preserve">
<style type="text/css">
	.st0{fill:#FCF1C6;}
	.st1{fill:#B2B3B2;}
	.st2{fill:#C4C4C4;}
	.st3{fill:#030303;}
	.st4{fill:#EEF0A8;}
</style>
<g id="Ampelosaurus">
	<path class="st0" d="M515.14,88.8c0,0-5.07-8.45-6.19-9.29c-1.13-0.84,0.84,10.51,0,11.45C508.1,91.9,514.02,91.9,515.14,88.8z"/>
	<path class="st0" d="M504.93,87.35c0,0-6.75-11.25-8.25-12.38s1.13,14,0,15.25C495.55,91.48,503.43,91.48,504.93,87.35z"/>
	<path class="st0" d="M495.95,85.41c0,0-9.09-15.15-11.11-16.67c-2.02-1.52,1.52,18.86,0,20.54
		C483.33,90.96,493.93,90.96,495.95,85.41z"/>
	<path class="st0" d="M483.03,82.59c0,0-9.09-15.15-11.11-16.67c-2.02-1.52,1.52,18.86,0,20.54
		C470.4,88.15,481.01,88.15,483.03,82.59z"/>
	<path class="st0" d="M469.57,78.03c0,0-7.95-13.25-9.72-14.58c-1.77-1.33,1.33,16.49,0,17.96S467.8,82.89,469.57,78.03z"/>
	<path class="st0" d="M457.58,75.22c0,0-5.73-9.54-7-10.5c-1.27-0.95,0.95,11.87,0,12.93S456.31,78.72,457.58,75.22z"/>
	<path class="st0" d="M447.05,72.41c0,0-5.73-9.54-7-10.5c-1.27-0.95,0.95,11.87,0,12.93C439.09,75.9,445.77,75.9,447.05,72.41z"/>
	<path class="st0" d="M438.93,71.11c0,0-4.46-7.43-5.45-8.18c-0.99-0.74,0.74,9.25,0,10.07C432.74,73.84,437.94,73.84,438.93,71.11z
		"/>
	<path class="st0" d="M430.74,70.45c0,0-4.46-7.43-5.45-8.18c-0.99-0.74,0.74,9.25,0,10.07C424.55,73.18,429.75,73.18,430.74,70.45z
		"/>
	<path class="st0" d="M423.4,67.23c0,0-4.55-4.38-5.39-4.71s2.29,6.36,1.92,7.09C419.56,70.33,423.22,69.34,423.4,67.23z"/>
	<path class="st0" d="M415.09,67.23c0,0-4.55-4.38-5.39-4.71c-0.84-0.33,2.29,6.36,1.92,7.09
		C411.26,70.33,414.92,69.34,415.09,67.23z"/>
	<path class="st0" d="M407.4,67.7c0,0-4.55-4.38-5.39-4.71c-0.84-0.33,2.29,6.36,1.92,7.09C403.56,70.8,407.22,69.81,407.4,67.7z"/>
	<path class="st0" d="M402.05,67.23c0,0-4.55-4.38-5.39-4.71s2.29,6.36,1.92,7.09C398.21,70.33,401.87,69.34,402.05,67.23z"/>
	<path class="st0" d="M393.13,67.23c0,0-4.55-4.38-5.39-4.71c-0.84-0.33,2.29,6.36,1.92,7.09C389.3,70.33,392.96,69.34,393.13,67.23
		z"/>
	<path class="st0" d="M382.11,68.59c0,0-4.55-4.38-5.39-4.71c-0.84-0.33,2.29,6.36,1.92,7.09C378.27,71.69,381.93,70.7,382.11,68.59
		z"/>
	<path class="st0" d="M374.6,69.27c0,0-4.55-4.38-5.39-4.71c-0.84-0.33,2.29,6.36,1.92,7.09C370.76,72.36,374.42,71.37,374.6,69.27z
		"/>
	<path class="st0" d="M368.01,70.9c0,0-4.55-4.38-5.39-4.71c-0.84-0.33,2.29,6.36,1.92,7.09C364.18,74,367.84,73,368.01,70.9z"/>
	<path class="st0" d="M359.39,72.53c0,0-4.55-4.38-5.39-4.71c-0.84-0.33,2.29,6.36,1.92,7.09
		C355.56,75.63,359.22,74.64,359.39,72.53z"/>
	<path class="st0" d="M351.25,74.56c0,0-4.55-4.38-5.39-4.71c-0.84-0.33,2.29,6.36,1.92,7.09
		C347.41,77.66,351.07,76.67,351.25,74.56z"/>
	<path class="st0" d="M343.06,76.2c0,0-4.55-4.38-5.39-4.71c-0.84-0.33,2.29,6.36,1.92,7.09C339.23,79.3,342.89,78.3,343.06,76.2z"
		/>
	<path class="st0" d="M335.98,78.23c0,0-4.55-4.38-5.39-4.71c-0.84-0.33,2.29,6.36,1.92,7.09C332.14,81.33,335.8,80.34,335.98,78.23
		z"/>
	<path class="st0" d="M327.91,79.39c0,0-4.55-4.38-5.39-4.71c-0.84-0.33,2.29,6.36,1.92,7.09C324.07,82.49,327.73,81.5,327.91,79.39
		z"/>
	<path class="st0" d="M319.37,81.9c0,0-4.55-4.38-5.39-4.71c-0.84-0.33,2.29,6.36,1.92,7.09C315.53,84.99,319.19,84,319.37,81.9z"/>
	<path class="st0" d="M311.37,83.99c0,0-4.55-4.38-5.39-4.71s2.29,6.36,1.92,7.09C307.54,87.09,311.19,86.1,311.37,83.99z"/>
	<path class="st0" d="M302.89,86.34c0,0-4.55-4.38-5.39-4.71c-0.84-0.33,2.29,6.36,1.92,7.09
		C299.06,89.44,302.72,88.44,302.89,86.34z"/>
	<path class="st0" d="M289.24,88.39c0,0-4.55-4.38-5.39-4.71c-0.84-0.33,2.29,6.36,1.92,7.09C285.4,91.49,289.06,90.49,289.24,88.39
		z"/>
	<path class="st0" d="M296.29,87.29c0,0-4.55-4.38-5.39-4.71c-0.84-0.33,2.29,6.36,1.92,7.09C292.45,90.39,296.11,89.4,296.29,87.29
		z"/>
	<path class="st0" d="M280.32,89.34c0,0-4.55-4.38-5.39-4.71c-0.84-0.33,2.29,6.36,1.92,7.09
		C276.49,92.44,280.15,91.45,280.32,89.34z"/>
	<path class="st0" d="M272.92,92.34c0,0-3.65-5.15-4.42-5.64c-0.76-0.48,1.06,6.68,0.56,7.32
		C268.57,94.67,272.35,94.38,272.92,92.34z"/>
	<path class="st0" d="M264.06,93.2c0,0-3.65-5.15-4.42-5.64c-0.76-0.48,1.06,6.68,0.56,7.32C259.72,95.53,263.5,95.24,264.06,93.2z"
		/>
	<path class="st0" d="M255.81,93.76c0,0-3.65-5.15-4.42-5.64c-0.76-0.48,1.06,6.68,0.56,7.32C251.47,96.09,255.25,95.8,255.81,93.76
		z"/>
	<path class="st0" d="M247.05,94.48c0,0-3.65-5.15-4.42-5.64c-0.76-0.48,1.06,6.68,0.56,7.32S246.48,96.52,247.05,94.48z"/>
	<path class="st0" d="M233.25,93.94c0,0-3.65-5.15-4.42-5.64c-0.76-0.48,1.06,6.68,0.56,7.32C228.9,96.27,232.68,95.98,233.25,93.94
		z"/>
	<path class="st0" d="M240.38,94.18c0,0-3.65-5.15-4.42-5.64c-0.76-0.48,1.06,6.68,0.56,7.32
		C236.03,96.51,239.81,96.22,240.38,94.18z"/>
	<path class="st0" d="M224.31,93.21c0,0-3.65-5.15-4.42-5.64c-0.76-0.48,1.06,6.68,0.56,7.32
		C219.96,95.53,223.74,95.24,224.31,93.21z"/>
	<path class="st0" d="M214.05,94.49c0,0-3.65-5.15-4.42-5.64s1.06,6.68,0.56,7.32S213.48,96.53,214.05,94.49z"/>
	<path class="st0" d="M205.2,95.36c0,0-3.65-5.15-4.42-5.64c-0.76-0.48,1.06,6.68,0.56,7.32C200.85,97.68,204.63,97.39,205.2,95.36z
		"/>
	<path class="st0" d="M196.95,95.92c0,0-3.65-5.15-4.42-5.64c-0.76-0.48,1.06,6.68,0.56,7.32C192.6,98.24,196.38,97.95,196.95,95.92
		z"/>
	<path class="st0" d="M188.18,96.63c0,0-3.65-5.15-4.42-5.64c-0.76-0.48,1.06,6.68,0.56,7.32
		C183.83,98.96,187.61,98.67,188.18,96.63z"/>
	<path class="st0" d="M174.38,96.09c0,0-3.65-5.15-4.42-5.64c-0.76-0.48,1.06,6.68,0.56,7.32
		C170.04,98.42,173.82,98.13,174.38,96.09z"/>
	<path class="st0" d="M181.51,96.33c0,0-3.65-5.15-4.42-5.64c-0.76-0.48,1.06,6.68,0.56,7.32
		C177.17,98.66,180.95,98.37,181.51,96.33z"/>
	<path class="st0" d="M165.45,95.36c0,0-3.65-5.15-4.42-5.64c-0.76-0.48,1.06,6.68,0.56,7.32C161.1,97.69,164.88,97.4,165.45,95.36z
		"/>
	<path class="st0" d="M161.95,99.89c0,0-4.33-4.6-5.15-4.97c-0.82-0.37,1.97,6.47,1.57,7.17
		C157.96,102.79,161.66,101.98,161.95,99.89z"/>
	<path class="st0" d="M153.3,101.97c0,0-4.33-4.6-5.15-4.97s1.97,6.47,1.57,7.17C149.31,104.87,153.02,104.06,153.3,101.97z"/>
	<path class="st0" d="M145.2,103.67c0,0-4.33-4.6-5.15-4.97c-0.82-0.37,1.97,6.47,1.57,7.17
		C141.22,106.57,144.92,105.76,145.2,103.67z"/>
	<path class="st0" d="M136.62,105.59c0,0-4.33-4.6-5.15-4.97c-0.82-0.37,1.97,6.47,1.57,7.17S136.34,107.68,136.62,105.59z"/>
	<path class="st0" d="M122.88,106.96c0,0-4.33-4.6-5.15-4.97c-0.82-0.37,1.97,6.47,1.57,7.17
		C118.9,109.87,122.6,109.06,122.88,106.96z"/>
	<path class="st0" d="M129.98,106.22c0,0-4.33-4.6-5.15-4.97c-0.82-0.37,1.97,6.47,1.57,7.17
		C125.99,109.12,129.7,108.31,129.98,106.22z"/>
	<path class="st0" d="M113.93,107.47c0,0-4.33-4.6-5.15-4.97c-0.82-0.37,1.97,6.47,1.57,7.17S113.65,109.57,113.93,107.47z"/>
	<path class="st0" d="M106.4,109.25c0,0-2.73-3.52-3.29-3.83c-0.55-0.32,0.95,4.67,0.62,5.14
		C103.41,111.03,106.06,110.7,106.4,109.25z"/>
	<path class="st0" d="M100.19,110.14c0,0-2.73-3.52-3.29-3.83c-0.55-0.32,0.95,4.67,0.62,5.14
		C97.2,111.91,99.85,111.59,100.19,110.14z"/>
	<path class="st0" d="M94.4,110.79c0,0-2.73-3.52-3.29-3.83s0.95,4.67,0.62,5.14C91.4,112.56,94.06,112.24,94.4,110.79z"/>
	<path class="st0" d="M88.24,111.57c0,0-2.73-3.52-3.29-3.83s0.95,4.67,0.62,5.14C85.25,113.34,87.9,113.02,88.24,111.57z"/>
	<path class="st0" d="M78.5,111.61c0,0-2.73-3.52-3.29-3.83c-0.55-0.32,0.95,4.67,0.62,5.14C75.51,113.39,78.17,113.06,78.5,111.61z
		"/>
	<path class="st0" d="M83.53,111.56c0,0-2.73-3.52-3.29-3.83s0.95,4.67,0.62,5.14C80.54,113.33,83.2,113.01,83.53,111.56z"/>
	<path class="st0" d="M72.18,111.37c0,0-2.73-3.52-3.29-3.83c-0.55-0.32,0.95,4.67,0.62,5.14
		C69.19,113.15,71.85,112.83,72.18,111.37z"/>
	<path class="st0" d="M589.11,78.4c0,0-3.53-2.71-4.15-2.88c-0.61-0.17,2.1,4.28,1.9,4.82S589.15,79.89,589.11,78.4z"/>
	<path class="st0" d="M583.32,80.82c0,0-3.53-2.71-4.15-2.88s2.1,4.28,1.9,4.82S583.36,82.31,583.32,80.82z"/>
	<path class="st0" d="M577.87,82.91c0,0-3.53-2.71-4.15-2.88c-0.61-0.17,2.1,4.28,1.9,4.82S577.91,84.4,577.87,82.91z"/>
	<path class="st0" d="M572.11,85.21c0,0-3.53-2.71-4.15-2.88s2.1,4.28,1.9,4.82S572.15,86.7,572.11,85.21z"/>
	<path class="st0" d="M562.7,87.71c0,0-3.53-2.71-4.15-2.88c-0.61-0.17,2.1,4.28,1.9,4.82S562.74,89.2,562.7,87.71z"/>
	<path class="st0" d="M567.56,86.39c0,0-3.53-2.71-4.15-2.88c-0.61-0.17,2.1,4.28,1.9,4.82S567.6,87.88,567.56,86.39z"/>
	<path class="st0" d="M556.53,89.07c0,0-3.53-2.71-4.15-2.88s2.1,4.28,1.9,4.82S556.57,90.56,556.53,89.07z"/>
	<path class="st0" d="M548.38,90.47c0,0-3.15-4.27-3.8-4.67c-0.65-0.4,0.99,5.6,0.59,6.14S547.93,92.19,548.38,90.47z"/>
	<path class="st0" d="M541.02,91.21c0,0-3.15-4.27-3.8-4.67c-0.65-0.4,0.99,5.6,0.59,6.14S540.57,92.93,541.02,91.21z"/>
	<path class="st0" d="M529.42,90.97c0,0-3.15-4.27-3.8-4.67c-0.65-0.4,0.99,5.6,0.59,6.14S528.97,92.69,529.42,90.97z"/>
	<path class="st0" d="M535.41,91.06c0,0-3.15-4.27-3.8-4.67c-0.65-0.4,0.99,5.6,0.59,6.14S534.97,92.78,535.41,91.06z"/>
	<path class="st0" d="M521.89,90.49c0,0-3.15-4.27-3.8-4.67c-0.65-0.4,0.99,5.6,0.59,6.14C518.28,92.51,521.45,92.21,521.89,90.49z"
		/>
	<path class="st1" d="M664.09,86.78c0,0-1.69-16.89-14.08-16.89c-12.39,0-27.03-5.07-90.1,16.89c-29.28,0-40.54,8.45-104.74-12.39
		S298.06,84.53,298.06,84.53s-29.28,7.88-39.98,7.88c-10.7,0-88.41-1.69-102.49,4.51c-14.08,6.19-52.37,11.83-52.37,11.83
		s-25.9,5.07-30.41,3.38c-4.5-1.69-37.73-4.94-38.86,0.34c9.57,2.47,72.08,7.54,72.08,7.54s112.06-5.63,135.15,0
		s79.4,17.46,86.72,33.79c7.32,16.33,150.35,40.34,180.2-2.63c11.26-18.76,6.76-17.07,6.76-17.07s105.3-46.74,111.5-46.74
		s28.72,4.5,33.79,6.76s-3.66-5.91-3.66-5.91S666.34,91.29,664.09,86.78z"/>
	<path class="st2" d="M650.01,69.89c0,0-29.85-3.74-17.74,17.56c15.2,4.06,27.87,6.66,27.87,6.66s5.63,1.41-3.66-5.91
		c6.34,1,8.37,2.49,7.6-1.41C663.32,82.89,660.85,68.76,650.01,69.89z"/>
	<circle class="st3" cx="652.26" cy="79.46" r="2.82"/>
	<polygon class="st4" points="357.19,87.16 360.61,82.3 366.55,81.95 370.52,86.37 369.55,92.23 364.35,95.12 358.85,92.87 	"/>
	<polygon class="st4" points="374.83,77.77 377.56,74.75 381.62,74.99 383.97,78.32 382.83,82.23 379.06,83.77 375.5,81.79 	"/>
	<polygon class="st4" points="335.98,88.28 337.6,84.91 341.26,84.08 344.18,86.41 344.18,90.16 341.26,92.49 337.6,91.66 	"/>
	<polygon class="st4" points="313.64,89.6 316.3,87.45 319.65,88.19 321.15,91.26 319.69,94.36 316.35,95.14 313.66,93.02 	"/>
	<polygon class="st4" points="302.94,92.49 304.68,91.34 306.67,91.99 307.4,93.94 306.33,95.74 304.26,96.02 302.75,94.57 	"/>
	<polygon class="st4" points="289.24,98.42 290.09,96.66 291.99,96.22 293.52,97.44 293.52,99.4 291.99,100.62 290.09,100.18 	"/>
	<polygon class="st4" points="300.13,100.62 301.26,98.27 303.8,97.69 305.83,99.31 305.83,101.92 303.8,103.54 301.26,102.96 	"/>
	<polygon class="st4" points="318.33,96.92 321.56,93.23 326.45,93.45 329.33,97.41 328.03,102.14 323.52,104.06 319.21,101.74 	"/>
	<polygon class="st4" points="335.98,96.22 339.67,92.94 344.54,93.79 346.92,98.12 345.02,102.68 340.26,104.03 336.24,101.16 	"/>
	<polygon class="st4" points="346.49,110.62 348.49,107.97 351.81,107.88 353.95,110.42 353.3,113.68 350.35,115.2 347.32,113.84
		"/>
	<polygon class="st4" points="353.81,100.62 357.16,99.52 360.11,101.45 360.43,104.96 357.89,107.4 354.4,106.94 352.58,103.92
		"/>
	<polygon class="st4" points="365.07,98.42 370.07,98.3 373.28,102.12 372.29,107.02 367.84,109.3 363.29,107.25 362.06,102.4 	"/>
	<polygon class="st4" points="348.74,91.29 350.89,89.25 353.82,89.65 355.33,92.2 354.28,94.96 351.47,95.87 349,94.24 	"/>
	<polygon class="st4" points="374.27,92.49 379.09,89.94 384.1,92.11 385.52,97.39 382.28,101.79 376.83,102 373.26,97.86 	"/>
	<polygon class="st4" points="385.53,88.28 387.78,87.38 389.89,88.57 390.27,90.96 388.64,92.75 386.23,92.59 384.84,90.61 	"/>
	<polygon class="st4" points="381.59,84.08 382.96,83.65 384.14,84.45 384.25,85.88 383.21,86.86 381.79,86.65 381.07,85.41 	"/>
	<polygon class="st4" points="392.85,82.28 396.12,81.5 398.76,83.57 398.79,86.93 396.19,89.05 392.91,88.33 391.42,85.32 	"/>
	<polygon class="st4" points="386.28,106.49 387.51,105.82 388.8,106.36 389.19,107.71 388.37,108.85 386.97,108.92 386.04,107.87
		"/>
	<polygon class="st4" points="399.99,102.74 400.97,102.31 401.92,102.81 402.12,103.86 401.42,104.68 400.35,104.64 399.71,103.78
			"/>
	<polygon class="st4" points="407.87,86.22 411.59,86.38 413.78,89.39 412.79,92.98 409.37,94.45 406.09,92.69 405.42,89.02 	"/>
	<polygon class="st4" points="400.17,96.22 400.81,94.9 402.24,94.58 403.38,95.49 403.38,96.96 402.24,97.87 400.81,97.55 	"/>
	<polygon class="st4" points="393.04,96.22 393.89,94.46 395.79,94.03 397.32,95.25 397.32,97.2 395.79,98.42 393.89,97.99 	"/>
	<polygon class="st4" points="428.52,87.16 430.1,86.11 431.91,86.71 432.57,88.48 431.6,90.11 429.71,90.37 428.34,89.05 	"/>
	<polygon class="st4" points="451.98,77.02 453.71,76.05 455.56,76.8 456.12,78.71 454.98,80.33 452.99,80.46 451.66,78.98 	"/>
	<polygon class="st4" points="443.35,103.54 443.63,102.96 444.26,102.81 444.77,103.22 444.77,103.87 444.26,104.28 443.63,104.13
			"/>
	<polygon class="st4" points="268.78,100.62 269.63,98.86 271.53,98.42 273.06,99.64 273.06,101.59 271.53,102.81 269.63,102.38
		"/>
	<polygon class="st4" points="254.14,100.62 254.99,98.86 256.89,98.42 258.42,99.64 258.42,101.59 256.89,102.81 254.99,102.38
		"/>
	<polygon class="st4" points="422.51,107.43 423.57,105.23 425.95,104.69 427.86,106.21 427.86,108.65 425.95,110.18 423.57,109.63
			"/>
	<polygon class="st4" points="409.56,115.5 411.48,112.63 414.93,112.35 417.3,114.86 416.81,118.28 413.83,120.03 410.6,118.8 	"/>
	<polygon class="st4" points="394.07,116.06 394.53,115.11 395.56,114.88 396.39,115.54 396.39,116.59 395.56,117.25 394.53,117.02
			"/>
	<polygon class="st4" points="369.86,118.88 371.7,117.87 373.64,118.68 374.22,120.7 372.99,122.41 370.9,122.52 369.5,120.95 	"/>
	<polygon class="st4" points="437.43,110.18 438.28,108.41 440.19,107.98 441.71,109.2 441.71,111.15 440.19,112.37 438.28,111.94
		"/>
	<polygon class="st4" points="455.17,100.62 457.52,100.12 459.38,101.65 459.34,104.06 457.43,105.52 455.1,104.95 454.09,102.76
		"/>
	<polygon class="st4" points="443.35,92.49 444.59,92.37 445.47,93.27 445.31,94.51 444.24,95.17 443.06,94.73 442.66,93.55 	"/>
	<polygon class="st4" points="414.91,101.42 416.42,101.07 417.64,102.02 417.65,103.58 416.45,104.55 414.93,104.22 414.25,102.83
			"/>
	<polygon class="st4" points="403.38,76.65 405.76,75.1 408.45,75.99 409.43,78.65 407.97,81.07 405.15,81.44 403.12,79.47 	"/>
	<polygon class="st4" points="373.8,86.78 374.01,86.34 374.49,86.23 374.87,86.54 374.87,87.03 374.49,87.33 374.01,87.22 	"/>
	<path class="st1" d="M359.59,150.65c0,0-15.33,48.32-14.46,53.65c0.87,5.34-10.82,9.79-9.98,21.71
		c4.38,7.87,14.82,12.56,14.82,12.56s3.25-13.67,0.15-15.91c-3.1-2.23,42.23-52.09,39.62-57.63
		C387.14,159.5,362.54,147.44,359.59,150.65z"/>
	<path class="st1" d="M464.43,150.12c0,0-19.05,45.06-13.57,74.03c-3.42,7.14-3.42,7.14-3.42,7.14l18.36,8.81l-4.37-14.1
		c0,0,10.65-34.41,7.77-36.96s23.23-23.41,22.49-32.25C490.96,147.94,461.49,137.29,464.43,150.12z"/>
	<path class="st0" d="M343.21,235.5c0,0,7.99-13.03,4.05,2.29C345.16,236.76,343.21,235.5,343.21,235.5z"/>
	<path class="st0" d="M347.26,237.79c1.5-4.83,1.08-5.72,3.58-5.54c2.5,0.18-0.53,6.95-0.53,6.95L347.26,237.79z"/>
	<path class="st0" d="M458.5,236.65c0,0,5.59-11.72,7.3,3.44C463.6,239.29,458.5,236.65,458.5,236.65z"/>
	<path class="st2" d="M327.91,153.79c0,0,154.42-21.72,172.66,5.19c-13.48,7.57-55.63,20.67-88.24,15.9S342.17,165.62,327.91,153.79
		z"/>
	<path class="st1" d="M469.72,156.79c0,0,7.61,47.41,26.24,72.75c0,8.45,0,8.45,0,8.45h21.72l-10.7-11.54c0,0-5.63-38.01-9.57-39.14
		c-3.94-1.13,11.54-33.22,6.76-41.39C499.38,137.75,456.86,138.31,469.72,156.79z"/>
	<path class="st1" d="M363.95,143.91c-6.67,1.16-15.6,1.6-7.8,14.46c9.68,15.96,22.39,51.07,25.53,54.47
		c4.22,4.57-3.38,17.07,5.07,28.04c9.01,4.57,21.4,1.83,21.4,1.83s-5.91-15.54-10.14-15.54c-4.22,0,4.22-80.06-1.69-83.61
		C392.55,141.29,375.77,141.86,363.95,143.91z"/>
	<path class="st0" d="M400.17,243.52c0,0-0.37-15.28,4.65-0.27C402.49,243.52,400.17,243.52,400.17,243.52z"/>
	<path class="st0" d="M404.82,243.24c-1.36-4.87-2.2-5.39,0-6.6c2.2-1.21,3.33,6.12,3.33,6.12L404.82,243.24z"/>
	<path class="st0" d="M510.5,238.06c0,0,0.28-12.98,8.07,0.14"/>
</g>
</svg>
