<?xml version="1.0" encoding="utf-8"?>
<!-- Generator: Adobe Illustrator 23.0.3, SVG Export Plug-In . SVG Version: 6.00 Build 0)  -->
<svg version="1.0" id="Layer_1" xmlns="http://www.w3.org/2000/svg" xmlns:xlink="http://www.w3.org/1999/xlink" x="0px" y="0px"
	 viewBox="0 0 400 400" style="enable-background:new 0 0 400 400;" xml:space="preserve">
<style type="text/css">
	.st0{fill:#FFE2B3;}
	.st1{fill:#BCDC9B;}
	.st2{fill:#BAD6A5;}
	.st3{fill:#F8F6BD;}
	.st4{fill:none;}
	.st5{fill:#010101;}
	.st6{fill:#878787;}
	.st7{fill:none;stroke:#010101;stroke-width:1.1602;stroke-miterlimit:10;}
</style>
<g id="A-Ankylosaurus">
	<path class="st0" d="M315.3,174.03l11.13,8.97c1.13,0.91,0.92,2.7-0.39,3.32l-11.23,5.32c-1.32,0.62-2.83-0.34-2.82-1.8l0.1-14.29
		C312.1,173.9,314.02,172.99,315.3,174.03z"/>
	<path class="st0" d="M317.48,216.36l1.79-16.61l-17.63,6.29l11.9,11.73C314.92,219.14,317.27,218.3,317.48,216.36z"/>
	<path class="st1" d="M345.11,190.37c-4.43-8.86-37.1-7.2-37.1-7.2c-29.9-56.48-155.05-36.55-170.56-8.86
		c-15.51,27.69-83.06,29.9-83.06,29.9L33.9,224.7c0,0,63.68-16.61,86.94-4.98c81.96,52.61,146.19,0,146.19,0s26.03-11.08,40.98-6.09
		c13.95,4.65,40.41,0.14,47.95-2.28l-25.63-1.78l0.08-1.16l26.92,1.87l-0.04,0.58C362.28,208.64,354.53,200.34,345.11,190.37z"/>
	<circle class="st0" cx="49.47" cy="205.86" r="16.2"/>
	<path class="st1" d="M146.78,233.3c0,0,4.27,18.11,0,20.88c-4.27,2.77-8.14,8.86-8.14,8.86h42.64l-8.31-9.41h-5.29
		c-2,0-2.72-2.62-1.02-3.66c4.09-2.51,8.54-5.85,8.53-8.54"/>
	<path class="st1" d="M173.54,233.37c0,0,3.02,12.8,0,14.75c-3.02,1.96-5.75,6.26-5.75,6.26h30.12l-5.87-6.65h-3.74
		c-1.41,0-1.92-1.85-0.72-2.58c2.89-1.77,6.03-4.13,6.03-6.03"/>
	<path class="st1" d="M233.07,228.77c0,0,3.02,12.8,0,14.75s-5.75,6.26-5.75,6.26h30.12l-5.87-6.65h-3.74
		c-1.41,0-1.92-1.85-0.72-2.58c2.89-1.77,6.03-4.13,6.03-6.03"/>
	<path class="st2" d="M119.92,189.67c0,0,7.94,9.61,18.72,4.12c7.59-3.88,24.32-12.43,38.94-2.56c12.07,8.15,36.4-8.08,50.62,2.64
		c11.13,8.39,28.24-9.13,41.81,2.55c10.04,8.64,25.97-9.22,38.01-13.24c-15.8-39.03-89.93-36.07-89.93-36.07
		s-60.33,0.57-77.05,25.92C129.9,183.14,119.92,189.67,119.92,189.67z"/>
	<circle class="st0" cx="45.6" cy="221.11" r="16.2"/>
	<path class="st1" d="M243.06,233.3c0,0-0.87,18.67-3.64,20.88c-2.77,2.22-4.43,6.09-4.43,6.09h37.1c0,0-0.55-14.24-3.32-12.1
		c-2.77,2.13-12.18,0-12.18,0s18.13-18.07,10.45-28.46"/>
	<path class="st3" d="M135.3,228.04c0,0,66.29-28.82,136.79-9.45c-30.83,7.18-10.38,16.77-65.74,25.27
		C168.71,244.58,144.5,233.03,135.3,228.04z"/>
	<line class="st4" x1="316.94" y1="195.07" x2="337.43" y2="195.07"/>
	<circle class="st5" cx="327.19" cy="198.26" r="3.19"/>
	<path class="st0" d="M146.71,182.32h15.05c1.86,0,3.02,2.01,2.09,3.62l-7.52,13.03c-0.93,1.61-3.25,1.61-4.18,0l-7.52-13.03
		C143.69,184.33,144.85,182.32,146.71,182.32z"/>
	<path class="st0" d="M187.42,179.53h17.91c1.22,0,1.99,1.32,1.38,2.38l-8.95,15.51c-0.61,1.06-2.14,1.06-2.75,0l-8.95-15.51
		C185.43,180.85,186.2,179.53,187.42,179.53z"/>
	<path class="st0" d="M232.83,177.98h15.38c1.78,0,2.9,1.93,2.01,3.48l-7.69,13.32c-0.89,1.55-3.12,1.55-4.02,0l-7.69-13.32
		C229.93,179.91,231.05,177.98,232.83,177.98z"/>
	<path class="st0" d="M272.06,182.32h15.58c1.74,0,2.83,1.89,1.96,3.39l-7.79,13.49c-0.87,1.51-3.05,1.51-3.92,0l-7.79-13.49
		C269.23,184.2,270.32,182.32,272.06,182.32z"/>
	<path class="st0" d="M167.31,164.3h17.1c1.4,0,2.28,1.52,1.58,2.74l-8.55,14.81c-0.7,1.22-2.46,1.22-3.16,0l-8.55-14.81
		C165.03,165.82,165.91,164.3,167.31,164.3z"/>
	<path class="st0" d="M208.38,160.92h16.93c1.44,0,2.34,1.56,1.62,2.81l-8.46,14.66c-0.72,1.25-2.52,1.25-3.24,0l-8.46-14.66
		C206.03,162.48,206.93,160.92,208.38,160.92z"/>
	<path class="st0" d="M251.79,162.17h16.38c1.56,0,2.54,1.69,1.76,3.05l-8.19,14.19c-0.78,1.35-2.74,1.35-3.52,0l-8.19-14.19
		C249.25,163.86,250.23,162.17,251.79,162.17z"/>
	<path class="st0" d="M305.67,218.32l-1.53-14.21c-0.16-1.45,1.26-2.56,2.63-2.07l11.7,4.18c1.37,0.49,1.76,2.24,0.72,3.27
		l-10.18,10.03C307.84,220.68,305.85,219.97,305.67,218.32z"/>
	<path class="st0" d="M141.09,173.62l-1.59-14.75c-0.14-1.34,1.16-2.37,2.43-1.92l12.15,4.34c1.27,0.45,1.63,2.08,0.67,3.02
		l-10.57,10.42C143.1,175.8,141.25,175.14,141.09,173.62z"/>
	<path class="st0" d="M179.1,154.22l6.84-11.85c0.79-1.37,2.74-1.44,3.62-0.13l6.69,9.84c0.89,1.3,0.11,3.09-1.45,3.32l-13.54,2.01
		C179.5,157.67,178.2,155.77,179.1,154.22z"/>
	<path class="st0" d="M217.44,147.73l8.25-8.13c1.43-1.41,3.83-0.84,4.48,1.06l3.25,9.53c0.65,1.89-0.91,3.81-2.9,3.57l-11.5-1.4
		C216.76,152.08,215.82,149.33,217.44,147.73z"/>
	<path class="st0" d="M250.76,151.98l10-9.86c1.07-1.06,2.88-0.63,3.37,0.8l3.94,11.56c0.49,1.43-0.69,2.87-2.18,2.69l-13.94-1.7
		C250.25,155.26,249.54,153.18,250.76,151.98z"/>
	<path class="st0" d="M278.35,156.89l15.37-2.29c1.19-0.18,2.16,0.95,1.8,2.1l-4.02,12.9c-0.36,1.15-1.8,1.53-2.68,0.71
		l-11.35-10.61C276.48,158.77,277,157.09,278.35,156.89z"/>
	<path class="st1" d="M242.81,237.21c0,0-2.1-30.17,3.02-26.99c5.12,3.17,21.06-2.51,26.26,8.36c0,0-6.28,0.56-3.29,8.96"/>
	<path class="st1" d="M245.82,210.22c18.94-1.48,21.21,9.5,21.21,9.5"/>
	<path class="st1" d="M135.3,228.04c0,0,10.24-10.72,16.12-10.72s24.47-12.41,24.45,10.23c-0.01,13.92-0.68,13.9-0.68,13.9
		S140.2,237.21,135.3,228.04z"/>
	<polygon class="st1" points="266.03,217.39 267.96,221.72 265.51,221.15 	"/>
	<path class="st0" d="M309.64,174.65l11.13,8.97c1.13,0.91,0.92,2.7-0.39,3.32l-11.23,5.32c-1.32,0.62-2.83-0.34-2.82-1.8l0.1-14.29
		C306.44,174.52,308.35,173.61,309.64,174.65z"/>
	<g>
		<path class="st0" d="M336.73,210.01l0.01,0.12c-0.57,1.59,0.78,4.76,2.56,4.55l9.7-1.58c0.12-0.01,6.48-1.38,6.96-1.76
			L336.73,210.01z"/>
		<path class="st0" d="M357.3,210.86c-0.45,0,3.07-0.24,0.71-5.04l-2.04-3.5c-1.03-1.37-10.99-12.47-10.85-11.95l-6.88,18.47
			L357.3,210.86z"/>
	</g>
	<path class="st6" d="M345.57,202.96l-1.05-2.18c-0.42-0.86,0.53-1.75,1.36-1.27c2.31,1.35,5.11,3.09,4.04,3.07
		c-1.06-0.02-2.27,0.46-3.07,0.83C346.38,203.64,345.8,203.44,345.57,202.96z"/>
	<path class="st7" d="M332.94,195.07"/>
</g>
</svg>
