<?xml version="1.0" encoding="utf-8"?>
<!-- Generator: Adobe Illustrator 23.0.3, SVG Export Plug-In . SVG Version: 6.00 Build 0)  -->
<svg version="1.0" id="Layer_1" xmlns="http://www.w3.org/2000/svg" xmlns:xlink="http://www.w3.org/1999/xlink" x="0px" y="0px"
	 viewBox="0 0 500 400" style="enable-background:new 0 0 500 400;" xml:space="preserve">
<style type="text/css">
	.st0{fill:#C9E8FA;}
	.st1{fill:#F9F7E5;}
	.st2{fill:#F4F3B7;}
	.st3{fill:#010101;}
	.st4{fill:#ACC8D6;}
</style>
<g id="A-Brachiosaurus">
	<path class="st0" d="M270.05,280.47c0,0,22.88,86.91,8.39,89.13c-14.5,2.22-50.33-0.6-52.36-8.01
		C224.05,354.17,250.08,266.76,270.05,280.47z"/>
	<path class="st1" d="M275.55,366.19c1.21-8.05,4.73-24.06,11.66-1.31c0.52,1.7-0.59,3.47-2.35,3.72l-6.02,0.89
		C276.91,369.78,275.26,368.12,275.55,366.19z"/>
	<path class="st1" d="M280.93,369.16c0,0-15.69,2.09-18.23,1.36C262.7,370.52,268.98,333.41,280.93,369.16"/>
	<path class="st0" d="M347.02,277.87c0,0,26.35,82.11,12.57,84.98c-13.78,2.86-48.26,1.98-50.58-5.01S327.19,265.76,347.02,277.87z"
		/>
	<path class="st1" d="M356.65,359.73c0.75-7.77,3.31-23.29,11.1-1.85c0.58,1.6-0.39,3.35-2.06,3.69l-5.72,1.16
		C358.14,363.11,356.47,361.6,356.65,359.73z"/>
	<path class="st1" d="M361.95,362.31c0,0-14.93,2.8-17.4,2.23C344.56,364.54,348.68,328.67,361.95,362.31"/>
	<circle class="st2" cx="417.38" cy="36.27" r="18.58"/>
	<path class="st0" d="M321.96,270.62c0,0,45.92,105.87,27.95,111.5c-17.97,5.63-64,9.01-68.02,0
		C277.88,373.11,293.95,257.11,321.96,270.62z"/>
	<path class="st0" d="M434.9,30.24c0,0-46.48-21.62-46.48,31.35c0,52.96-49.87,156.73-49.87,156.73c-1.51-0.82-3.07-1.52-4.67-2.11
		c-57.92-24.34-151.15,5.18-162.72-1.13c-11.89-6.49-41.07,17.29-57.58,32.43s-54.83,0-54.83,0l-27.02-16.21l14.05,22.7
		c0,0,72.42,22.7,75.66,6.49c3.24-16.21,52.96-20.54,57.54,0c4.58,20.54,58.27,51.88,58.27,51.88c47.72,28.1,125.88,0,125.88,0
		s46.91-244.28,59.83-242.12c9.53,1.59,22.65-5.62,31.7-11.26c-0.77,0.13-1.58,0.21-2.45,0.21c-3.45,0-7.7-1.19-12.7-4.76l0.58-0.81
		c8.05,5.73,13.91,5.15,17.55,3.48c1.12-0.71,2.13-1.37,3.03-1.95c0.84-0.73,1.3-1.32,1.37-1.42l0.4,0.3
		C469.46,49.69,434.9,30.24,434.9,30.24z"/>
	<path class="st0" d="M237.12,271.84c0,0,29.38,111.59,10.77,114.44c-18.61,2.85-64.63-0.77-67.23-10.29
		C178.05,366.49,211.48,254.25,237.12,271.84z"/>
	<path class="st1" d="M342.62,379.09c0.4-10.44,2.62-31.37,14.69-3.32c0.9,2.1-0.26,4.51-2.47,5.09l-7.56,1.99
		C344.87,383.47,342.53,381.59,342.62,379.09z"/>
	<path class="st1" d="M349.91,382.12c0,0-19.73,4.9-23.07,4.33C326.84,386.44,329.59,338.2,349.91,382.12"/>
	<path class="st1" d="M244.18,381.91c1.55-10.34,6.07-30.89,14.97-1.68c0.66,2.18-0.76,4.45-3.01,4.78l-7.73,1.14
		C245.93,386.52,243.81,384.39,244.18,381.91z"/>
	<path class="st1" d="M251.09,385.73c0,0-20.15,2.69-23.41,1.75C227.68,387.48,235.74,339.83,251.09,385.73"/>
	<circle class="st3" cx="424.98" cy="40.87" r="2.6"/>
	<circle class="st4" cx="458.12" cy="50.5" r="1.65"/>
	<circle class="st2" cx="225.96" cy="239.09" r="3.65"/>
	<circle class="st2" cx="271.81" cy="222.39" r="11.22"/>
	<circle class="st2" cx="209.29" cy="222.39" r="7.9"/>
	<circle class="st2" cx="291.31" cy="217.85" r="4.23"/>
	<circle class="st2" cx="308.83" cy="230.29" r="3.65"/>
	<circle class="st2" cx="259.32" cy="238.65" r="3.65"/>
	<circle class="st2" cx="287.66" cy="253.5" r="3.65"/>
	<circle class="st2" cx="237.47" cy="226.64" r="5.15"/>
	<circle class="st2" cx="352.25" cy="208.17" r="7.83"/>
	<circle class="st2" cx="365.58" cy="177.17" r="7.83"/>
	<circle class="st2" cx="376.08" cy="146.17" r="6.68"/>
	<circle class="st2" cx="385.76" cy="116.32" r="6.68"/>
	<circle class="st2" cx="375.42" cy="167.13" r="3.65"/>
</g>
</svg>
