<svg xmlns="http://www.w3.org/2000/svg" viewBox="0 0 600 600"><defs><style>.cls-1{fill:#8b5e3c;}.cls-2{fill:#ab7e59;}</style></defs><title>aAntarctosaurus</title><g id="Layer_17" data-name="Layer 17"><path class="cls-1" d="M321.71,340.94v11.95c0,.23,0,.46,0,.68a22.32,22.32,0,0,1-22.31,21.64v15.91h3a7.92,7.92,0,0,1,7.92,7.92h-15a8.39,8.39,0,0,1-8.39-8.39V326.12Z"/><path class="cls-1" d="M385.17,340.94v11.95c0,.23,0,.46,0,.68a22.32,22.32,0,0,1-22.3,21.64v15.91h3a7.91,7.91,0,0,1,7.92,7.92h-15a8.39,8.39,0,0,1-8.39-8.39V326.12Z"/><path class="cls-2" d="M583.2,199.74c-3.62-2.12-7-2.91-13.39,2.33s-49.21,38.14-77.45,64.05-86.46,77.74-94.91,86.18-35.81,9.9-43.08,10.19-64.05,16.88-85-7c-11.36-4.37-12.52-6.4-14.85-13.1s-2.33-15.43-27.08-23.29S139.8,277.77,67.31,291.16c-42.22,11.65-60.56,18-72.49,24.75-1.56-5,25.62-22.13,57.06-34.65s74.24-14.85,110.05-11.06S253.63,281,253.63,281s25,1.46,35.35-2,28.41-10.48,59.56-1.45,37,17.76,59.69,8.73,48.62-20.09,64.63-31.15,44.54-32.32,44.54-32.32l.58-2,1.75,2,.87-5,1.75,2,2-4.36,1.45,1.45,1.46-4.37,1.46,2,1.16-3.49,2,1.45.29-4.07L534,211.1l1.45-4.66,1.75,2.33,1.16-4.66,1.75,2,1.16-3.2,1.75.87.87-4.08,2.62,2,1.75-3.75H550l1.45-2.94,1.46,2s.29-3.2,1.16-3.2h2.33l.29-2,2.92,1.17.58-2.62h2.62s-1.46-3.2.29-2.33a3.26,3.26,0,0,0,3.2-.15s6.7-5.09,11.94-3.64,3.78,3.21,5,5.24.87,2.63,2.91,5.25S588.15,202.66,583.2,199.74Z"/><path class="cls-2" d="M295.43,342.46V356.6a22.31,22.31,0,0,1-22.32,22.31h0v15.91h3a7.93,7.93,0,0,1,7.92,7.93h-15a8.4,8.4,0,0,1-8.39-8.4V374.89a9.59,9.59,0,0,1,3.84-7.68l8.61-6.46L267.25,357a20.5,20.5,0,0,1-.74-34.17h0l7.8-.42A20,20,0,0,1,295.43,342.46Z"/><path class="cls-2" d="M398.49,341.32v14.13a22.31,22.31,0,0,1-22.31,22.32h0v15.91h3a7.91,7.91,0,0,1,7.92,7.92h-15a8.39,8.39,0,0,1-8.39-8.39V373.74a9.6,9.6,0,0,1,3.84-7.68l8.62-6.46-5.87-3.7a20.5,20.5,0,0,1-.73-34.18h0l7.79-.42A20,20,0,0,1,398.49,341.32Z"/><circle class="cls-1" cx="301.09" cy="286.93" r="5.67"/><circle class="cls-1" cx="317.39" cy="295.29" r="2.69"/><circle class="cls-1" cx="330.63" cy="289.76" r="2.83"/><circle class="cls-1" cx="346.57" cy="286.93" r="5.67"/><circle class="cls-1" cx="361.66" cy="292.83" r="3.07"/><circle class="cls-1" cx="376.46" cy="296.05" r="3.46"/><circle class="cls-1" cx="367.85" cy="308.59" r="3.12"/><circle class="cls-1" cx="344.91" cy="308.95" r="4.01"/><circle class="cls-1" cx="334.83" cy="302.62" r="1.36"/><circle class="cls-1" cx="290.67" cy="301.21" r="3.73"/><circle class="cls-1" cx="276.58" cy="292.91" r="3.15"/><circle class="cls-1" cx="263.32" cy="289.92" r="2.99"/><circle class="cls-1" cx="281.88" cy="310.77" r="5.3"/><circle class="cls-1" cx="267.87" cy="307.03" r="1.56"/><circle class="cls-1" cx="283.41" cy="285.41" r="1.52"/><circle class="cls-1" cx="275.01" cy="285.46" r="1.57"/><circle class="cls-1" cx="355.15" cy="304.12" r="2.91"/><circle class="cls-1" cx="358.23" cy="323.04" r="3.08"/><circle class="cls-1" cx="378.04" cy="314.06" r="1.58"/><circle class="cls-1" cx="386.72" cy="301.06" r="1.55"/><circle class="cls-1" cx="387.85" cy="294.33" r="1.73"/><circle class="cls-1" cx="403.75" cy="298.48" r="2.58"/><circle class="cls-1" cx="392.1" cy="304.52" r="2.51"/><circle class="cls-1" cx="323.92" cy="280.05" r="3.83"/><circle class="cls-1" cx="306.5" cy="300.44" r="2.18"/><circle class="cls-1" cx="311.69" cy="279.23" r="3.01"/><circle class="cls-1" cx="359.64" cy="283.82" r="1.58"/><circle cx="575.98" cy="189.15" r="1.89"/></g></svg>