<?xml version="1.0" encoding="utf-8"?>
<!-- Generator: Adobe Illustrator 23.0.3, SVG Export Plug-In . SVG Version: 6.00 Build 0)  -->
<svg version="1.0" id="Layer_1" xmlns="http://www.w3.org/2000/svg" xmlns:xlink="http://www.w3.org/1999/xlink" x="0px" y="0px"
	 viewBox="0 0 400 400" style="enable-background:new 0 0 400 400;" xml:space="preserve">
<style type="text/css">
	.st0{fill:#FCF7BC;}
	.st1{fill:#F8E38F;}
	.st2{fill:#F7DF79;}
	.st3{fill:#FEECA2;}
	.st4{fill:#010101;}
	.st5{fill:#D2E6B3;}
</style>
<g id="A-Bactosarus">
	<path class="st0" d="M203.92,246.16c0,0,4.68,1.72,5.81,4.45c0,0-6.32-0.41-6.54,0.8C202.96,252.61,203.92,246.16,203.92,246.16z"
		/>
	<path class="st0" d="M71.85,161.03c0.33-0.59,1.17-0.61,1.53-0.03l1.14,1.89l1.14,1.89c0.35,0.58-0.06,1.32-0.73,1.34l-2.21,0.05
		l-2.21,0.05c-0.68,0.01-1.12-0.71-0.79-1.3l1.06-1.93L71.85,161.03z"/>
	<path class="st0" d="M78.79,158.22c0.33-0.59,1.17-0.61,1.53-0.03l1.14,1.89l1.14,1.89c0.35,0.58-0.06,1.32-0.73,1.34l-2.21,0.05
		l-2.21,0.05c-0.68,0.01-1.12-0.71-0.79-1.3l1.06-1.93L78.79,158.22z"/>
	<path class="st0" d="M85.64,154.4c0.33-0.59,1.17-0.61,1.53-0.03l1.14,1.89l1.14,1.89c0.35,0.58-0.06,1.32-0.73,1.34l-2.21,0.05
		l-2.21,0.05c-0.68,0.01-1.12-0.71-0.79-1.3l1.06-1.93L85.64,154.4z"/>
	<path class="st0" d="M93.67,151.57c0.33-0.59,1.17-0.61,1.53-0.03l1.14,1.89l1.14,1.89c0.35,0.58-0.06,1.32-0.73,1.34l-2.21,0.05
		l-2.21,0.05c-0.68,0.01-1.12-0.71-0.79-1.3l1.06-1.93L93.67,151.57z"/>
	<path class="st0" d="M101.36,148.75c0.33-0.59,1.17-0.61,1.53-0.03l1.14,1.89l1.14,1.89c0.35,0.58-0.06,1.32-0.73,1.34l-2.21,0.05
		l-2.21,0.05c-0.68,0.01-1.12-0.71-0.79-1.3l1.06-1.93L101.36,148.75z"/>
	<path class="st0" d="M108.28,145.94c0.33-0.59,1.17-0.61,1.53-0.03l1.14,1.89l1.14,1.89c0.35,0.58-0.06,1.32-0.73,1.34l-2.21,0.05
		l-2.21,0.05c-0.68,0.01-1.12-0.71-0.79-1.3l1.06-1.93L108.28,145.94z"/>
	<path class="st0" d="M114.46,142.71c0.33-0.59,1.17-0.61,1.53-0.03l1.14,1.89l1.14,1.89c0.35,0.58-0.06,1.32-0.73,1.34l-2.21,0.05
		l-2.21,0.05c-0.68,0.01-1.12-0.71-0.79-1.3l1.06-1.93L114.46,142.71z"/>
	<path class="st0" d="M124.53,138.51c0.33-0.59,1.17-0.61,1.53-0.03l1.14,1.89l1.14,1.89c0.35,0.58-0.06,1.32-0.73,1.34l-2.21,0.05
		l-2.21,0.05c-0.68,0.01-1.12-0.71-0.79-1.3l1.06-1.93L124.53,138.51z"/>
	<path class="st0" d="M131.06,135.98c0.33-0.59,1.17-0.61,1.53-0.03l1.14,1.89l1.14,1.89c0.35,0.58-0.06,1.32-0.73,1.34l-2.21,0.05
		l-2.21,0.05c-0.68,0.01-1.12-0.71-0.79-1.3l1.06-1.93L131.06,135.98z"/>
	<path class="st0" d="M138.02,134.01c0.33-0.59,1.17-0.61,1.53-0.03l1.14,1.89l1.14,1.89c0.35,0.58-0.06,1.32-0.73,1.34l-2.21,0.05
		l-2.21,0.05c-0.68,0.01-1.12-0.71-0.79-1.3l1.06-1.93L138.02,134.01z"/>
	<path class="st0" d="M146.82,133.08c0.36-0.57,1.21-0.54,1.52,0.06l1.02,1.95l1.02,1.95c0.31,0.6-0.14,1.32-0.82,1.29l-2.2-0.09
		l-2.2-0.09c-0.68-0.03-1.07-0.78-0.71-1.35l1.18-1.86L146.82,133.08z"/>
	<path class="st0" d="M156.79,132.59c0.63-0.24,1.29,0.3,1.18,0.97l-0.36,2.18l-0.36,2.18c-0.11,0.67-0.9,0.97-1.43,0.54l-1.7-1.4
		l-1.7-1.4c-0.52-0.43-0.39-1.27,0.25-1.5l2.06-0.78L156.79,132.59z"/>
	<path class="st0" d="M165.57,133.58c0.63-0.24,1.29,0.3,1.18,0.97l-0.36,2.18l-0.36,2.18c-0.11,0.67-0.9,0.97-1.43,0.54l-1.7-1.4
		l-1.7-1.4c-0.52-0.43-0.39-1.27,0.25-1.5l2.06-0.78L165.57,133.58z"/>
	<path class="st0" d="M174.22,134.81c0.63-0.24,1.29,0.3,1.18,0.97l-0.36,2.18l-0.36,2.18c-0.11,0.67-0.9,0.97-1.43,0.54l-1.7-1.4
		l-1.7-1.4c-0.52-0.43-0.39-1.27,0.25-1.5l2.06-0.78L174.22,134.81z"/>
	<path class="st0" d="M183.16,135.65c0.63-0.24,1.29,0.3,1.18,0.97l-0.36,2.18l-0.36,2.18c-0.11,0.67-0.9,0.97-1.43,0.54l-1.7-1.4
		l-1.7-1.4c-0.52-0.43-0.39-1.27,0.25-1.5l2.06-0.78L183.16,135.65z"/>
	<path class="st0" d="M191.98,137.87c0.63-0.24,1.29,0.3,1.18,0.97l-0.36,2.18l-0.36,2.18c-0.11,0.67-0.9,0.97-1.43,0.54l-1.7-1.4
		l-1.7-1.4c-0.52-0.43-0.39-1.27,0.25-1.5l2.06-0.78L191.98,137.87z"/>
	<path class="st0" d="M200.73,140.08c0.63-0.24,1.29,0.3,1.18,0.97l-0.36,2.18l-0.36,2.18c-0.11,0.67-0.9,0.97-1.43,0.54l-1.7-1.4
		l-1.7-1.4c-0.52-0.43-0.39-1.27,0.25-1.5l2.06-0.78L200.73,140.08z"/>
	<path class="st0" d="M209.73,143.08c0.63-0.24,1.29,0.3,1.18,0.97l-0.36,2.18l-0.36,2.18c-0.11,0.67-0.9,0.97-1.43,0.54l-1.7-1.4
		l-1.7-1.4c-0.52-0.43-0.39-1.27,0.25-1.5l2.06-0.78L209.73,143.08z"/>
	<path class="st0" d="M218.16,146.45c0.63-0.24,1.29,0.3,1.18,0.97l-0.36,2.18l-0.36,2.18c-0.11,0.67-0.9,0.97-1.43,0.54l-1.7-1.4
		l-1.7-1.4c-0.52-0.43-0.39-1.27,0.25-1.5l2.06-0.78L218.16,146.45z"/>
	<path class="st0" d="M225.65,149.51c0.63-0.24,1.29,0.3,1.18,0.97l-0.36,2.18l-0.36,2.18c-0.11,0.67-0.9,0.97-1.43,0.54l-1.7-1.4
		l-1.7-1.4c-0.52-0.43-0.39-1.27,0.25-1.5l2.06-0.78L225.65,149.51z"/>
	<path class="st0" d="M231.54,153.57c0.63-0.24,1.29,0.3,1.18,0.97l-0.36,2.18l-0.36,2.18c-0.11,0.67-0.9,0.97-1.43,0.54l-1.7-1.4
		l-1.7-1.4c-0.52-0.43-0.39-1.27,0.25-1.5l2.06-0.78L231.54,153.57z"/>
	<path class="st0" d="M237.69,156.62c0.63-0.24,1.29,0.3,1.18,0.97l-0.36,2.18l-0.36,2.18c-0.11,0.67-0.9,0.97-1.43,0.54l-1.7-1.4
		l-1.7-1.4c-0.52-0.43-0.39-1.27,0.25-1.5l2.06-0.78L237.69,156.62z"/>
	<path class="st0" d="M244.17,162.02c0.67,0.09,1,0.87,0.59,1.41l-1.34,1.75l-1.34,1.75c-0.41,0.54-1.25,0.43-1.51-0.19l-0.85-2.04
		l-0.85-2.04c-0.26-0.63,0.25-1.3,0.92-1.21l2.19,0.28L244.17,162.02z"/>
	<path class="st0" d="M247.24,168.04c0.67,0.09,1,0.87,0.59,1.41l-1.34,1.75l-1.34,1.75c-0.41,0.54-1.25,0.43-1.51-0.19l-0.85-2.04
		l-0.85-2.04c-0.26-0.63,0.25-1.3,0.92-1.21l2.19,0.28L247.24,168.04z"/>
	<path class="st0" d="M247.79,173.58c0.61-0.3,1.31,0.17,1.27,0.85l-0.15,2.2l-0.15,2.2c-0.05,0.68-0.81,1.05-1.37,0.67l-1.83-1.23
		l-1.83-1.23c-0.56-0.38-0.5-1.22,0.1-1.52l1.98-0.97L247.79,173.58z"/>
	<path class="st0" d="M252.42,178.47c0.61-0.3,1.31,0.17,1.27,0.85l-0.15,2.2l-0.15,2.2c-0.05,0.68-0.81,1.05-1.37,0.67l-1.83-1.23
		l-1.83-1.23c-0.56-0.38-0.5-1.22,0.1-1.52l1.98-0.97L252.42,178.47z"/>
	<path class="st0" d="M255.28,182.77c0.61-0.3,1.31,0.17,1.27,0.85l-0.15,2.2l-0.15,2.2c-0.05,0.68-0.81,1.05-1.37,0.67l-1.83-1.23
		l-1.83-1.23c-0.56-0.38-0.5-1.22,0.1-1.52l1.98-0.97L255.28,182.77z"/>
	<path class="st0" d="M259.5,188.48c0.58-0.35,1.32,0.07,1.33,0.74l0.03,2.21l0.03,2.21c0.01,0.68-0.72,1.11-1.31,0.78l-1.93-1.08
		l-1.93-1.08c-0.59-0.33-0.6-1.18-0.02-1.53l1.9-1.13L259.5,188.48z"/>
	<path class="st0" d="M265.72,190.74c0.08-0.67,0.86-1.01,1.4-0.61l1.77,1.32l1.77,1.32c0.54,0.4,0.45,1.25-0.18,1.52l-2.02,0.88
		l-2.02,0.88c-0.62,0.27-1.3-0.24-1.22-0.91l0.25-2.19L265.72,190.74z"/>
	<path class="st0" d="M272.49,189.47c0.08-0.67,0.86-1.01,1.4-0.61l1.77,1.32l1.77,1.32c0.54,0.4,0.45,1.25-0.18,1.52l-2.02,0.88
		l-2.02,0.88c-0.62,0.27-1.3-0.24-1.22-0.91l0.25-2.19L272.49,189.47z"/>
	<path class="st0" d="M281.99,186.54c0.08-0.67,0.86-1.01,1.4-0.61l1.77,1.32l1.77,1.32c0.54,0.4,0.45,1.25-0.18,1.52l-2.02,0.88
		l-2.02,0.88c-0.62,0.27-1.3-0.24-1.22-0.91l0.25-2.19L281.99,186.54z"/>
	<path class="st0" d="M289.17,184.59c0.08-0.67,0.86-1.01,1.4-0.61l1.77,1.32l1.77,1.32c0.54,0.4,0.45,1.25-0.18,1.52l-2.02,0.88
		l-2.02,0.88c-0.62,0.27-1.3-0.24-1.22-0.91l0.25-2.19L289.17,184.59z"/>
	<path class="st0" d="M295.24,183.47c0.08-0.67,0.86-1.01,1.4-0.61l1.77,1.32l1.77,1.32c0.54,0.4,0.45,1.25-0.18,1.52l-2.02,0.88
		l-2.02,0.88c-0.62,0.27-1.3-0.24-1.22-0.91l0.25-2.19L295.24,183.47z"/>
	<path class="st1" d="M323.52,198.27c0,0-11.54-12.86-22.15-12.76s-34.35,9.39-37.82,8.26c-3.47-1.13-14.83-14.73-19.9-27.69
		c-5.07-12.95-77.99-42.52-118.82-25.34C84,157.91,59.79,168.33,59.79,168.33s40.83-6.48,55.75-4.22
		c14.92,2.25,39.98,7.88,42.8,14.92c2.82,7.04,13.23,21.4,13.23,26.19s38.86,32.94,71.8,21.68c32.94-11.26,26.04-5.35,34.49-11.12
		c0,0,21.68-0.28,24.64,1.69c2.96,1.97,12.11,1.13,12.11,1.13s11.83,6.15,14.08,5.07c0.33-0.16,1.57-0.48,3.04-1.01l-5.85-5.6
		l7.63,4.87c2.36-1.08,4.69-2.66,4.66-4.87C338.16,217.04,338.53,207.27,323.52,198.27z"/>
	<path class="st2" d="M327.55,201.27c-1.27-0.85-13.37,0.56-17.18,0c-3.66-9.29-14.08-12.11-14.08-12.11s0.84,12.81,0.7,16.61
		c-0.14,3.8,0.99,10.56,7.46,12.67c11.54-1.55,20.69,5.07,20.69,5.07s3.01,0.8,6.68-0.53l-5.97-5.94l7.63,5.2
		c1.35-0.72,2.73-1.74,4.06-3.23C340.69,212.62,328.82,202.11,327.55,201.27z"/>
	<ellipse class="st3" cx="332.62" cy="213.66" rx="3.1" ry="1.69"/>
	<circle class="st4" cx="314.6" cy="197.89" r="2.96"/>
	<circle class="st5" cx="238.66" cy="197.89" r="5.54"/>
	<circle class="st5" cx="263.37" cy="203" r="3.46"/>
	<circle class="st5" cx="281.42" cy="197.89" r="2.96"/>
	<circle class="st5" cx="290.37" cy="200.41" r="0.86"/>
	<circle class="st5" cx="278.45" cy="204.94" r="1.51"/>
	<circle class="st5" cx="270.28" cy="208.63" r="2.18"/>
	<ellipse class="st5" cx="256.8" cy="212.61" rx="3.11" ry="1.8"/>
	<circle class="st5" cx="240.31" cy="210.34" r="3.89"/>
	<circle class="st5" cx="229.78" cy="204.28" r="3.88"/>
	<ellipse class="st5" cx="252.43" cy="198.65" rx="4.37" ry="6.29"/>
	<circle class="st5" cx="271.97" cy="199.58" r="1.69"/>
	<path class="st5" d="M298.74,185.69c0,0-6.65,10.55-7.51,12.2c-0.86,1.66-6.85-8.73-6.85-8.73S295.92,185.31,298.74,185.69z"/>
	<path class="st5" d="M265.89,194.93c0,0,4.28,10.65,7.77,8.49c3.49-2.16,1.05-11.07,1.05-11.07L265.89,194.93z"/>
	<path class="st5" d="M239.61,161.25c0,0-13.14,21.47-16.51,21.27s1.88-17.1-4.13-18.98s8.75-9.81,8.75-9.81L239.61,161.25z"/>
	<path class="st5" d="M211.87,146.79c0,0-10.74,17.12-9.42,24.07c-3.47,6.95-9.76,4.88-6.38-6.19c3.38-11.07,9.31-20.24,12.56-19.06
		C211.87,146.79,211.87,146.79,211.87,146.79z"/>
	<path class="st5" d="M189.74,140.02c0,0-14.32,9.81-14.32,15.26c0,5.44,3.38,18.21,3.38,18.21l12.76-18.02l4.21-13.89
		L189.74,140.02z"/>
	<path class="st5" d="M164.4,135.9c0,0-12.7,18.01-11.39,24.96c-3.47,6.95-9.76,4.88-6.38-6.19c3.38-11.07,9.1-18.92,12.56-19.06
		C161.71,135.51,164.4,135.9,164.4,135.9z"/>
	<path class="st1" d="M235.26,221.92c0,0,14.05,16.52,14.61,21.77c0.56,5.26,6.93,30.41,6.93,30.41s-2.4,1.13-3.65,0
		c-1.25-1.13-2.72-6.19-2.72-6.19l0.42,6.69c0,0-3.97,1.06-3.97,0c0-1.06-1.91-10.64-0.85-13.83c1.06-3.19-7.51-11.83-7.3-19.71
		s-18.6-12.1-10.24-17.31C236.85,218.54,235.26,221.92,235.26,221.92z"/>
	<path class="st1" d="M239.53,212.37c0,0,14.19,13.1,15.21,17.66c1.02,4.56,9.19,26.01,9.19,26.01s-2.03,1.23-3.27,0.37
		c-1.23-0.86-3.04-5.17-3.04-5.17l1.03,5.84c0,0-3.45,1.33-3.55,0.4c-0.1-0.93-2.75-9.15-2.12-12.06c0.63-2.91-7.88-9.63-8.47-16.58
		s-17.83-8.76-10.86-14.18C240.61,209.24,239.53,212.37,239.53,212.37z"/>
	<path class="st1" d="M175.42,203c0,0-6.19,15.54,0,33.18c-1.38,11.77-2.06,14.64,0,19.15s-2.75,15.02-2.75,15.02
		s5.53-3.75,8.74-1.5s8.82,3,8.82,3l-2.95-6.01l8.49,1.5l-8.49-9.53c0,0,0.79-13.74,0-18.62c-0.79-4.88,9.28-21.02,8.75-23.84
		S179.73,197.6,175.42,203z"/>
	<path class="st1" d="M193.35,198.92c0,0-5.47,13.71,0,29.28c-1.21,10.39-1.82,12.92,0,16.89c1.82,3.97,1.96,9.1,1.96,9.1
		s0.49,0.84,3.32,2.83c2.83,1.99,7.78,2.65,7.78,2.65l-2.6-5.3l7.49,1.32l-7.49-8.41c0,0,0.7-12.13,0-16.43
		c-0.7-4.31,8.18-18.55,7.72-21.03C211.07,207.33,197.16,194.15,193.35,198.92z"/>
	<path class="st0" d="M174.29,264.71c0,0-2.5,4.32-1.63,7.13c0,0,4.6-4.35,5.54-3.57S174.29,264.71,174.29,264.71z"/>
	<path class="st0" d="M187.72,266.73c0,0,4.87,5.02,4.87,6.05c-1.61,0-8.66-2.61-8.66-2.61S186.22,266.03,187.72,266.73z"/>
	<path class="st0" d="M192.05,262.69c0,0,4.87,5.02,4.87,6.05c-1.61,0-8.66-2.61-8.66-2.61S190.55,261.98,192.05,262.69z"/>
	<path class="st0" d="M209.02,251.2c0,0,4.87,5.02,4.87,6.05c-1.61,0-8.66-2.61-8.66-2.61S207.53,250.49,209.02,251.2z"/>
	<path class="st0" d="M204.29,255.26c0,0,3.71,5.93,3.5,6.94c-1.58-0.34-7.92-4.36-7.92-4.36S202.97,254.26,204.29,255.26z"/>
	<path class="st0" d="M246.51,274.05c0.03-0.79,0.16-3.52,0.43-5.47c0.12-0.84,1.25-1.03,1.65-0.29c0.9,1.66,1.99,4.02,2.58,5.34
		c0.24,0.52-0.08,1.12-0.65,1.23c-1.29,0.24-3.34,0.46-3.92-0.37C246.52,274.36,246.5,274.2,246.51,274.05z"/>
	<path class="st0" d="M252.47,273.67c0.03-0.79,0.16-3.52,0.43-5.47c0.12-0.84,1.25-1.03,1.65-0.29c0.9,1.66,1.99,4.02,2.58,5.34
		c0.24,0.52-0.08,1.12-0.65,1.23c-1.29,0.24-3.34,0.46-3.92-0.37C252.48,273.98,252.46,273.82,252.47,273.67z"/>
	<path class="st0" d="M254.44,256.79c0.03-0.79,0.16-3.52,0.43-5.47c0.12-0.84,1.25-1.03,1.65-0.29c0.9,1.66,1.99,4.02,2.58,5.34
		c0.24,0.52-0.08,1.12-0.65,1.23c-1.29,0.24-3.34,0.46-3.92-0.37C254.44,257.09,254.43,256.94,254.44,256.79z"/>
	<path class="st0" d="M259.69,255.97c0.04-0.74,0.19-3.28,0.47-5.09c0.12-0.78,1.17-0.98,1.54-0.29c0.82,1.54,1.8,3.71,2.33,4.93
		c0.21,0.48-0.09,1.05-0.62,1.15c-1.21,0.24-3.12,0.47-3.64-0.3C259.69,256.25,259.68,256.11,259.69,255.97z"/>
</g>
</svg>
