<?xml version="1.0" encoding="utf-8"?>
<!-- Generator: Adobe Illustrator 23.0.3, SVG Export Plug-In . SVG Version: 6.00 Build 0)  -->
<svg version="1.0" id="Layer_1" xmlns="http://www.w3.org/2000/svg" xmlns:xlink="http://www.w3.org/1999/xlink" x="0px" y="0px"
	 viewBox="0 0 400 600" style="enable-background:new 0 0 400 600;" xml:space="preserve">
<style type="text/css">
	.st0{fill:#F9F1A7;}
	.st1{fill:#010101;}
	.st2{fill:#F6AECD;}
	.st3{fill:#FFF8D1;}
</style>
<g id="A-Brachio">
	<path class="st0" d="M374.47,83.56c0,0-2.54-16.05,0-17.74s-2.54-30.41-27.03-14.36c-14.36-8.29-27.87,32.1-27.87,32.1
		s-25.51,121.17-25.88,153.08c-0.37,31.91-46.92,49.94-46.92,49.94l-62.31,29.29c0,0-57.43,51.07-64.56,88.61
		s-96.84,85.23-96.84,85.23s120.88-12.41,129.89-15.79s118.25-7.9,152.78-56.34c27.77-38.67,9.75-58.19,9.75-58.19
		s7.13-43.17,2.24-48.43c0,0,5.63-36.42,8.63-37.54c3-1.13,6.37-79.96,4.12-85.97c-2.25-6.01,11.98-85.14,13.12-93.86
		c0.78-5.93,8.66-15.7,8.66-15.7s11.61,15.32,14.61,13.44S377.56,89.28,374.47,83.56z"/>
	<path class="st0" d="M252.89,433.11c0,0,10.99,76.73,17.75,85.86c6.76,9.13-5.06,36.54,0.01,38.37c5.07,1.83,45.15,7.3,33.55-9.14
		c-11.6-16.44-14.98-78.56-14.14-89.52c0.84-10.96,18.57-78.56-1.7-79.47C268.08,378.3,235.14,397.49,252.89,433.11z"/>
	<path class="st0" d="M145.81,442.66c0,0,10.99,70.95,17.75,79.4s-5.06,33.79,0.01,35.48c5.07,1.69,45.15,6.75,33.55-8.45
		c-11.59-15.2-14.98-72.64-14.14-82.78c0.84-10.14,18.57-72.65-1.7-73.49S128.06,409.72,145.81,442.66z"/>
	<path class="st0" d="M281.61,410.31c0,0,9.9,66.69,15.99,74.63c6.09,7.94-4.56,31.76,0.01,33.35s40.66,6.34,30.22-7.94
		s-13.49-68.28-12.74-77.8c0.76-9.53,16.72-68.28-1.53-69.07C295.29,362.67,265.63,379.35,281.61,410.31z"/>
	<path class="st0" d="M174.71,415.05c0,0,10.29,66.43,16.62,74.34c6.33,7.91-4.74,31.64,0.01,33.22c4.75,1.58,42.27,6.32,31.42-7.91
		c-10.86-14.23-14.03-68.02-13.24-77.51c0.79-9.49,17.39-68.02-1.59-68.81S158.09,384.2,174.71,415.05z"/>
	<circle class="st1" cx="363.74" cy="63.83" r="3.12"/>
	<path class="st2" d="M218.99,299.64c0,0-4.13,42.42,10.23,52.55c-4.54-17.74,17.54-65.61,17.54-65.61L218.99,299.64z"/>
	<path class="st2" d="M197.31,309.83c0,0-6.48,56.16,10.61,58.55c-26.84-4.92-36-40.53-36-40.53S188.89,313.79,197.31,309.83z"/>
	<path class="st2" d="M155.06,345.85c0,0-23.85,17.63-22.56,29.73c1.28,12.1,29.16,32.37,29.16,32.37L155.06,345.85z"/>
	<path class="st3" d="M290.48,558.71c0,0,0.09-15.65,9.34-8.11S298.36,561.52,290.48,558.71z"/>
	<path class="st3" d="M296.86,555.31c0,0,0.09-15.65,9.34-8.11S304.75,558.12,296.86,555.31z"/>
	<path class="st3" d="M313.82,519.34c0,0,0.09-15.65,9.34-8.11S321.71,522.16,313.82,519.34z"/>
	<path class="st3" d="M320.21,515.95c0,0,0.09-15.65,9.34-8.11C338.79,515.38,328.09,518.76,320.21,515.95z"/>
	<path class="st3" d="M208.83,526.63c0,0,0.09-15.65,9.34-8.11C227.41,526.07,216.71,529.45,208.83,526.63z"/>
	<path class="st3" d="M215.21,523.24c0,0,0.09-15.65,9.34-8.11S223.1,526.05,215.21,523.24z"/>
	<path class="st3" d="M183.6,506c0,0,0.09-15.65,9.34-8.11S191.48,508.81,183.6,506z"/>
	<path class="st3" d="M189.98,557.02c0,0,0.09-15.65,9.34-8.11C208.56,556.46,197.87,559.84,189.98,557.02z"/>
</g>
</svg>
