<?xml version="1.0" encoding="utf-8"?>
<!-- Generator: Adobe Illustrator 23.0.3, SVG Export Plug-In . SVG Version: 6.00 Build 0)  -->
<svg version="1.0" id="Layer_1" xmlns="http://www.w3.org/2000/svg" xmlns:xlink="http://www.w3.org/1999/xlink" x="0px" y="0px"
	 viewBox="0 0 400 400" style="enable-background:new 0 0 400 400;" xml:space="preserve">
<style type="text/css">
	.st0{fill:#FFE2B3;}
	.st1{fill:#F16C93;}
	.st2{fill:#090909;}
	.st3{fill:#F7B4CD;}
	.st4{fill:#FBBE6A;}
	.st5{fill:#F8E1C2;}
</style>
<g id="A-Crono">
	<path class="st0" d="M281.83,81.38c0,0,9.85,10.89,14.33,7.66c4.48-3.23,12.13-21.15,21.94-16.4
		C308.89,65.21,284.29,73.81,281.83,81.38z"/>
	<polygon class="st0" points="323.99,124.22 336.16,112.51 319.93,107.83 	"/>
	<polygon class="st0" points="317.43,124.1 329.6,112.39 313.37,107.71 	"/>
	<polygon class="st0" points="307.48,119.7 319.65,107.98 303.42,103.31 	"/>
	<polygon class="st0" points="302.38,117.95 314.55,106.24 298.32,101.56 	"/>
	<polygon class="st0" points="300.2,111.42 285.15,119.08 299.31,128.28 	"/>
	<polygon class="st0" points="308.66,117.79 293.61,125.45 307.77,134.66 	"/>
	<polygon class="st0" points="316.89,124.91 301.84,132.57 316,141.77 	"/>
	<polygon class="st0" points="321.26,128.06 306.21,135.72 320.37,144.93 	"/>
	<path class="st1" d="M332.39,113.74c2.22,1.01,4.62-1.02,3.96-3.37c-5.32-18.82-17.48-31.21-50.45-42.74
		c-20.12-7.04-35.52,33.06-36.73,39.06c-0.27,1.34-1.43,2.32-2.81,2.32c-9.9-0.01-48.47,2.54-102.6,38.9
		c-63.12,42.4-67.4-26.18-48.55-45.17c7.46-7.52,8.63-17.08,7.31-25.88c-0.54-3.64-5.98-2.96-5.69,0.71
		c0.38,4.76,0.33,8.87-0.59,10.87c-3.06,6.67-30.52,31.2-31.19,44.09c-0.67,12.84-0.51,48.19,36.16,64.04
		c0.24,0.1,0.47,0.24,0.67,0.4c20.21,16.32,14.71,44.67,85.74,37.24c0.42-0.04,0.83-0.18,1.2-0.4
		c26.02-15.69,51.99-38.02,60.94-39.55c9.01-1.54,31.01-38.74,33.38-45.65c2.37-6.9,10.73-13.3,12.56-11.9
		c1.83,1.4,19.49,15.16,22.25,16.11c2.23,0.76,3.82-11.29,4.34-15.94c0.12-1.09-0.39-2.16-1.31-2.74l-22.51-14.26
		c-2.09-1.32-1.64-4.49,0.73-5.17C307.38,112.32,322.32,109.16,332.39,113.74z"/>
	<circle class="st2" cx="304.2" cy="84.14" r="3.65"/>
	<path class="st1" d="M250.85,148.85c0,0,26.54,20.4,27.31,31.43s-4.49,16.44-4.49,16.44l-0.71-10.37l-0.63-4.39l-2.48,13.45
		l-1.97-16.64c0,0-28.2-22.21-22.61-26.07C250.85,148.85,250.85,148.85,250.85,148.85z"/>
	<path class="st1" d="M236.75,158.77c0,0,26.54,20.4,27.31,31.43s-4.49,16.44-4.49,16.44l-0.71-10.37l-0.63-4.39l-2.48,13.45
		l-1.97-16.64c0,0-28.2-22.21-22.61-26.07C236.75,158.77,236.75,158.77,236.75,158.77z"/>
	<circle class="st3" cx="325.41" cy="103.78" r="1.43"/>
	<polygon class="st4" points="237.82,109.47 227.12,140.72 203.47,147.37 207.16,160.25 193.07,143.81 212.35,135.66 216.93,113.35 
			"/>
	<polygon class="st4" points="184.33,125.05 179.05,147.73 188.62,156.79 169.88,147.48 176.25,128.89 	"/>
	<polygon class="st4" points="224.64,159.9 228.18,170.34 220.92,170.75 215.32,156.7 	"/>
	<polygon class="st4" points="190.08,162.82 165.23,154.3 170.86,161.5 	"/>
	<polygon class="st4" points="153.23,141.77 149.84,151.67 143.76,147.9 	"/>
	<path class="st4" d="M119.58,159.92l-14.09,8.31l-16.05-5.5l12.62-2.24C102.06,160.49,112.39,162.5,119.58,159.92z"/>
	<polygon class="st4" points="153.54,171.55 138.23,174.82 137.91,164.97 150.91,160.65 	"/>
	<polygon class="st4" points="124.88,174.87 128.41,185.31 121.16,185.72 115.56,171.68 	"/>
	<polygon class="st4" points="82.49,131.15 86.02,141.59 78.77,142 73.17,127.95 	"/>
	<polygon class="st4" points="250.49,126.3 247.59,144.88 237.14,143.14 239.85,117.87 	"/>
	<path class="st1" d="M160.02,204.87c0,0,29.92,25.11,24.81,45.39c-5.11,20.29-41.6,48.75-41.6,48.75l13.45,23.35
		c0,0,11.82,3.65,15.6,9.49c-8.69-2.92-23.86-3.65-23.86-3.65l15.17,7.56c0,0-17.69-2.1-27.17-2.1c0-13.14-16.61-31.01-8.15-40.49
		c13.91-15.6,12.04-48.16,12.04-48.16s-18.24-15.33-12.04-27C134.48,206.33,160.02,204.87,160.02,204.87z"/>
	<path class="st1" d="M189.84,214.17c0,0,27.11,13.51,26.94,29.73c-0.17,16.22-22.53,44.3-22.53,44.3l14.37,15.17
		c0,0,9.57,0.61,13.49,4.32c-7.08-0.63-18.65,1.57-18.65,1.57l12.81,2.95c0,0-14.05,1.74-21.21,3.46
		c-2.38-9.9-17.81-20.48-13.15-29.17c7.66-14.28,0.35-38.5,0.35-38.5s-16.54-8.25-13.98-18.18
		C170.85,219.9,189.84,214.17,189.84,214.17z"/>
	<path class="st5" d="M160.02,323.58l-1.48,5.52l15.85,3.17C174.38,332.27,166.34,324.56,160.02,323.58z"/>
	<path class="st5" d="M165.41,337.81c0,0-5.94-7.3-12.27-8.27l-1.48,5.52"/>
	<path class="st5" d="M208.58,303.24l-0.55,6.04l16.26-0.28C224.28,309,216,302.8,208.58,303.24z"/>
	<path class="st5" d="M203.25,308.49l-0.55,6.04l16.26-0.28C218.96,314.25,210.67,308.06,203.25,308.49z"/>
	<path class="st5" d="M278.11,181.51l-6.07-0.01l1.74,16.17C273.78,197.68,279.2,188.87,278.11,181.51z"/>
	<path class="st5" d="M272.95,179.75l-5.07-0.97l1.97,16.64C269.85,195.41,274.05,187.1,272.95,179.75z"/>
	<path class="st5" d="M264.21,193.03l-6.07-0.01l1.74,16.17C259.89,209.19,265.31,200.38,264.21,193.03z"/>
	<path class="st5" d="M258.25,191.44l-5.07-0.97l1.97,16.64C255.15,207.11,259.35,198.79,258.25,191.44z"/>
	<path class="st0" d="M273.43,77c0,0,9.85,10.89,14.33,7.66c4.48-3.23,12.13-21.15,21.94-16.4C300.49,60.84,275.89,69.43,273.43,77z
		"/>
</g>
</svg>
