<?xml version="1.0" encoding="utf-8"?>
<!-- Generator: Adobe Illustrator 23.0.1, SVG Export Plug-In . SVG Version: 6.00 Build 0)  -->
<svg version="1.1" id="Layer_1" xmlns="http://www.w3.org/2000/svg" xmlns:xlink="http://www.w3.org/1999/xlink" x="0px" y="0px"
	 viewBox="0 0 599.8 599.8" style="enable-background:new 0 0 599.8 599.8;" xml:space="preserve">
<style type="text/css">
	.st0{fill:#F4F9C0;}
	.st1{fill:#C6F964;}
	.st2{fill:#D2F993;}
	.st3{fill:#070707;}
	.st4{fill:#F4D0A8;}
	.st5{fill:#71A304;}
</style>
<g id="A-chosmo">
	<path class="st0" d="M527.1,311.6c-0.2-1.1,0.6-2.1,1.7-2c10.2,0.4,48.1-0.1,59.1-5.8c-8.2,9.1-22.3,30.7-39.3,35.3
		C534.2,343.1,528.5,319,527.1,311.6z"/>
	<path class="st1" d="M374.9,199.8c0,0-167-49.4-194.3-25.6c-33.2,2.6-96.3,67.3-97.1,73.3c-0.9,6-18.7,78.4-5.1,128.7
		s-22.2,100.5-66.5,92c48.6,36.2,123.6-38.3,113.3-86.9s52-44.3,52-44.3s79.3,59,197.7,42.6c52.8,3.4,82.7-15.3,82.7-15.3
		s12.8,5.1,21.3,4.3c3.4,10.2,39.6,25,52,20.7C543.2,385,374.9,199.8,374.9,199.8z"/>
	<path class="st0" d="M500.5,272.6c0,0,54.9-11.8,76.4-36.7c-12.1,26.9-63.5,54.8-63.5,54.8L500.5,272.6z"/>
	<path class="st2" d="M533.1,396.6c0,0,22.3-12.8,15.5-57.5C520.2,318.7,524,288,524,288s-41.9-34.5-48.5-33.2
		C469,256,400.2,118,400.2,118s-14.3,14.1-23.2,0s-25.3,23-25.3,23l-65.4-15.3l10.2,14.1l-20.4,8.9c0,0,60.6,33.2,75.7,49.8
		s17.6,34.5,14.4,43.5c-3.2,8.9,18.6,3.8,8.3,20.4s25.7-5.1,18.6,10.2s8.7,11.8,7.2,28.3c-1.5,16.5,12.7,13.9,12.7,13.9
		s28,2.6,15.2,26.8s22-4.7,47.4,7.9s20.3,25.3,20.3,25.3S531.9,376.2,533.1,396.6z"/>
	<path class="st0" d="M493.5,269.8c15.2-6.9,46.9-23.3,59.5-44.1c-5.8,21.4-32.9,46.7-45.9,57.8c-3.9,3.3-9.6,3-13.1-0.7l-2.5-2.7
		C488.5,276.9,489.5,271.6,493.5,269.8z"/>
	<circle class="st3" cx="489.7" cy="303.8" r="5.8"/>
	<path class="st4" d="M389.4,134.2c0,0-30.7-6.8-19.6,15.3c8,16,44.5,46.9,64.1,62.7c2.8,2.3,6.7-1,5-4.2
		C426.3,185,401.2,141.1,389.4,134.2z"/>
	<path class="st4" d="M353.6,158.9c-0.2-0.2-18.1-11-18.4-11c-3.2-0.4-19.8-1.7-9.7,14.6c8.6,13.9,49.2,39.5,67.1,50.4
		c1.4,0.8,2.8-1,1.7-2.1L353.6,158.9z"/>
	<circle class="st4" cx="314.9" cy="239.7" r="7.4"/>
	<circle class="st4" cx="207.9" cy="229.1" r="10.6"/>
	<circle class="st4" cx="240.3" cy="197.3" r="2.6"/>
	<circle class="st4" cx="317.4" cy="197.3" r="2.6"/>
	<circle class="st4" cx="128" cy="222.1" r="3.6"/>
	<circle class="st4" cx="96.3" cy="281.1" r="4.6"/>
	<path class="st1" d="M395.9,339.5c0,0,25.4,65.3,18.6,81.1s-9,30.4,1.1,30.4s48.9,6.8,51.5,0c2.5-6.8-0.8-28.1-14.3-30.4
		c-13.5-2.3,3.9-29.2,0-46.2C448.9,357.4,432.5,303.4,395.9,339.5z"/>
	<path class="st1" d="M205.7,316.3c0,0,26.1,67.3,19.2,83.6s-9.2,31.3,1.2,31.3s50.4,7,53.1,0s-0.9-29-14.8-31.3
		c-13.9-2.3,4-30.1,0-47.6C260.3,334.8,243.4,279.2,205.7,316.3z"/>
	<path class="st0" d="M262.1,434.2c0,0-4-36.5,18.3-3.8C277.8,435.3,262.1,434.2,262.1,434.2z"/>
	<path class="st0" d="M280.5,430.4c0,0-11.7-13.1-5.1-17.3c5.1-3.2,6.8,4.3,6,13L280.5,430.4z"/>
	<path class="st0" d="M448.6,454.2c0,0-4-36.5,18.3-3.8C464.3,455.2,448.6,454.2,448.6,454.2z"/>
	<path class="st0" d="M466.9,450.4c0,0-11.7-13.1-5.1-17.3c5.1-3.2,6.8,4.3,6,13L466.9,450.4z"/>
	<path class="st4" d="M205.7,330.5c0,0,133.9,5.8,138.5,19.1c4.6,13.3,30.6,30,30.6,30s-62.8,6.5-91.8-1.4s-71.5-20.1-75.2-23.7
		C204.2,350.9,190.2,329.7,205.7,330.5z"/>
	<path class="st1" d="M145.5,325.1c0,0,32.5,83.6,23.8,103.8s-11.5,38.9,1.5,38.9s62.7,8.7,65.9,0c3.3-8.7-1.1-36.1-18.4-38.9
		s5-37.4,0-59.1C213.3,348,192.3,279,145.5,325.1z"/>
	<path class="st0" d="M218.5,471.7c0,0-4-36.5,18.3-3.8C234.2,472.8,218.5,471.7,218.5,471.7z"/>
	<path class="st0" d="M236.9,467.9c0,0-11.7-13.1-5.1-17.3c5.1-3.2,6.8,4.3,6,13L236.9,467.9z"/>
	<path class="st1" d="M339.7,337.2c0,0,32.5,83.6,23.8,103.8C354.9,461.3,352,480,365,480s62.7,8.7,65.9,0
		c3.3-8.7-1.1-36.1-18.4-38.9c-17.3-2.9,5-37.4,0-59.1C407.6,360.2,386.6,291.1,339.7,337.2z"/>
	<path class="st0" d="M413.2,484.9c0,0-4-36.5,18.3-3.8C428.9,485.9,413.2,484.9,413.2,484.9z"/>
	<path class="st0" d="M431.6,481.1c0,0-11.7-13.1-5.1-17.3c5.1-3.2,6.8,4.3,6,13L431.6,481.1z"/>
	<circle class="st5" cx="538" cy="368.9" r="2.5"/>
</g>
</svg>
