<?xml version="1.0" encoding="utf-8"?>
<!-- Generator: Adobe Illustrator 23.0.1, SVG Export Plug-In . SVG Version: 6.00 Build 0)  -->
<svg version="1.1" id="Layer_1" xmlns="http://www.w3.org/2000/svg" xmlns:xlink="http://www.w3.org/1999/xlink" x="0px" y="0px"
	 viewBox="0 0 599.8 599.8" style="enable-background:new 0 0 599.8 599.8;" xml:space="preserve">
<style type="text/css">
	.st0{fill:#F3F3BA;}
	.st1{fill:#FEF4A4;}
	.st2{fill:#CAE093;}
	.st3{fill:#010101;}
	.st4{fill:#FFC847;}
	.st5{fill:#5EBD75;}
</style>
<g id="A-Chindo">
	<polygon class="st0" points="467.6,310.7 469.6,309.7 471.6,308.7 469.7,307.4 467.9,306.2 467.7,308.4 	"/>
	<polygon class="st0" points="469.6,310.3 471.6,309.4 473.6,308.4 471.8,307.1 469.9,305.9 469.7,308.1 	"/>
	<polygon class="st0" points="465.7,311 467.2,310.3 468.7,309.5 467.3,308.5 465.8,307.4 465.8,309.2 	"/>
	<polygon class="st1" points="556.5,222.7 561.8,222.8 567.1,222.8 564.5,218.2 562,213.6 559.2,218.1 	"/>
	<path class="st2" d="M453.9,266.2l1.9,13.6c0,0,15.3,2.8,16.4,5.9c1.2,3.1,10.8,26,5.8,26.3c-5,0.2-14.7-0.9-14.7-0.9l8.3-4.7
		c0,0,0.4-11.2-4.7-9.8c-5.1,1.4-21.9-6.5-23.1-8.8s-12.7-12.8-7.6-15.9C441.3,268.6,452,252.6,453.9,266.2z"/>
	<polygon class="st1" points="567.1,223.1 572.4,223.2 577.7,223.3 575.1,218.6 572.6,214 569.8,218.6 	"/>
	<polygon class="st1" points="576.1,195 570.8,195.2 565.5,195.3 568.2,199.8 571,204.3 573.5,199.7 	"/>
	<polygon class="st1" points="565.5,195 560.2,195.2 554.9,195.3 557.6,199.8 560.4,204.3 562.9,199.7 	"/>
	<polygon class="st1" points="585.3,195 580,195.2 574.7,195.3 577.4,199.8 580.2,204.3 582.7,199.7 	"/>
	<path class="st2" d="M510.1,185.4c0,0,66.2-16.2,77.8,10.5c-23.2,0-37.1,1.2-38.9,9.3c-1.7,8.1,31.9,17.4,31.9,17.4
		s-40.6,10.5-62.7-12.8c-15.1-7.1-40.6,45.3-40.6,45.3s-4.8,20.9-15.2,25.5c-10.4,4.6-69.6,17.4-69.6,17.4s-5.8,11.6-13.9,11.6
		c-8.1,0-58-7-78.9-24.4c-20.9,3.5-75.4,4.6-112.6,10.5c-37.1,5.8-152.1,0-163.7-9.3c-11.6-9.3-30.2-17.4,32.5-33.7
		c-22.2,6.5-112.6,40.6,78.9,34.8c37.1-7,101-18.6,109.1-25.5c8.1-7,126.5-37.1,152.1-37.1c25.5,0,75.4,15.1,81.3,4.6
		C483.4,219,497.2,187.9,510.1,185.4z"/>
	<circle class="st3" cx="539.1" cy="189.2" r="5.8"/>
	<path class="st4" d="M448,231.6c0,0-3.7,14.5,0,21.1c-7.1-4.2-7.9-22.3-7.9-22.3L448,231.6z"/>
	<path class="st4" d="M419.6,227.1c0,0-3.2,21.3,1.5,25.6c-7.4-4.6-11.6-26.9-11.6-26.9L419.6,227.1z"/>
	<path class="st4" d="M389.8,225.3c0,0,2.3,27.8,9.7,35.6c-11.6-8.1-28.3-32.7-28.3-32.7L389.8,225.3z"/>
	<polygon class="st0" points="447.8,324 450.2,322.9 452.6,321.7 450.4,320.2 448.2,318.7 448,321.4 	"/>
	<path class="st4" d="M352.8,231.7c0,0,8.7,16.3,12.6,17.5c-8.9,0-23.1-15.2-23.1-15.2L352.8,231.7z"/>
	<polygon class="st0" points="450.2,323.6 452.6,322.5 455,321.3 452.8,319.8 450.6,318.3 450.4,321 	"/>
	<polygon class="st0" points="445.6,322.8 447.4,321.9 449.2,321 447.5,319.8 445.8,318.5 445.7,320.7 	"/>
	<path class="st4" d="M324.3,238.2c0,0,2.4,10.2,7.8,14.5c-11.6-5.4-17-12.2-17-12.2L324.3,238.2z"/>
	<path class="st4" d="M289.8,247c0,0-0.8,6.8,2.2,8c-5.9,0-10.2-5.8-10.2-5.8L289.8,247z"/>
	<circle class="st5" cx="576.9" cy="191.8" r="0.8"/>
	<path class="st2" d="M456.1,268.7l-4.9,15.5c0,0,14.8,10.8,14.5,14.7c-0.3,3.9-1.8,33.3-7.2,31c-5.4-2.3-15.2-8.5-15.2-8.5
		l11.2-0.8c0,0,6.1-11.8,0-12.8c-6.1-1.1-20.1-18.1-20.1-21.2c0-3.1-7-20.1,0-20.9C441.4,264.8,461,253.2,456.1,268.7z"/>
	<path class="st2" d="M392.9,298c0,0-6.4,23.8-25,44.1c-6.4,20.9-15.7,22.1-10.5,25.5c5.2,3.5,38.3,12.2,38.9,18
		s13.2,22.6,13.2,22.6l-10.1-7.5l10.1,12.8l-10.1-5.8v9.3c0,0-10-28.4-16.7-29.6c-6.7-1.2-42.9-13.9-40.5-18.6
		c2.5-4.6,15.2-25.5,15.8-35.4s3-43.5,13.1-43.5C381.2,289.8,392.3,287.5,392.9,298z"/>
	<path class="st2" d="M333.9,376.3c2.2-5.7-24.6-29.7-27.8-35.5c-3.2-5.8,6-2.4,22-18.9c27.1-10.1,44.5-29.4,44.5-29.4
		c4.5-10.1-7-13.2-16.4-18c-9.5-4.8-27.8,25.5-33.1,34.5c-5.3,9-27.2,22.4-31.7,25.6s23.3,32.5,29,36.8c0,0-3.3,22.8,3.3,25.9
		c6.6,3.1,18.7,7.4,18.7,7.4l-10.1-8.9l13.9,5.8l-9.7-8.1l8.9,1.9c0,0-14.3-6.2-13.2-10.8C333.3,380,333.9,376.3,333.9,376.3z"/>
	<polygon class="st0" points="403.9,405.7 402.4,407.8 400.8,410 405.7,411.8 410.5,413.7 407.2,409.7 	"/>
	<polygon class="st0" points="406.8,402 405.2,403.6 403.5,405.1 407.2,407.3 410.8,409.4 408.8,405.7 	"/>
	<polygon class="st0" points="400.8,410.8 398.9,411.1 396.9,411.3 398.4,415.3 399.9,419.3 400.4,415.1 	"/>
	<polygon class="st0" points="340.9,395.7 339.7,397.6 338.5,399.5 342.7,400.9 346.8,402.2 343.9,399 	"/>
	<polygon class="st0" points="340.4,391.3 339.6,393.1 338.9,394.9 342.4,395.3 346,395.7 343.2,393.5 	"/>
	<polygon class="st0" points="337.1,398.8 335.9,400.4 334.8,402 338.8,403.6 342.7,405.1 339.9,402 	"/>
</g>
</svg>
