<?xml version="1.0" encoding="utf-8"?>
<!-- Generator: Adobe Illustrator 23.0.3, SVG Export Plug-In . SVG Version: 6.00 Build 0)  -->
<svg version="1.0" id="Layer_1" xmlns="http://www.w3.org/2000/svg" xmlns:xlink="http://www.w3.org/1999/xlink" x="0px" y="0px"
	 viewBox="0 0 400 400" style="enable-background:new 0 0 400 400;" xml:space="preserve">
<style type="text/css">
	.st0{fill:#F3F3BA;}
	.st1{fill:#FEF4A4;}
	.st2{fill:#CAE093;}
	.st3{fill:#010101;}
	.st4{fill:#FFC847;}
	.st5{fill:#5EBD75;}
</style>
<g id="A-Chindo">
	<polygon class="st0" points="298.08,207.5 299.06,207.03 300.03,206.55 299.13,205.94 298.24,205.33 298.16,206.42 	"/>
	<polygon class="st0" points="299.06,207.34 300.03,206.87 301.01,206.39 300.11,205.78 299.21,205.17 299.13,206.26 	"/>
	<polygon class="st0" points="297.17,207.66 297.9,207.31 298.63,206.95 297.94,206.45 297.24,205.94 297.2,206.8 	"/>
	<polygon class="st1" points="341.24,164.83 343.81,164.87 346.38,164.9 345.12,162.66 343.87,160.41 342.55,162.62 	"/>
	<path class="st2" d="M291.45,185.93l0.93,6.59c0,0,7.4,1.38,7.97,2.87c0.57,1.49,5.24,12.63,2.81,12.74
		c-2.43,0.11-7.11-0.46-7.11-0.46l4.01-2.27c0,0,0.19-5.44-2.28-4.75c-2.47,0.69-10.64-3.14-11.19-4.29
		c-0.55-1.15-6.15-6.21-3.71-7.73C285.32,187.11,290.51,179.34,291.45,185.93z"/>
	<polygon class="st1" points="346.38,165.03 348.95,165.06 351.52,165.1 350.26,162.85 349.01,160.61 347.69,162.82 	"/>
	<polygon class="st1" points="350.71,151.41 348.14,151.47 345.56,151.54 346.91,153.73 348.25,155.93 349.48,153.67 	"/>
	<polygon class="st1" points="345.56,151.41 342.99,151.47 340.42,151.54 341.76,153.73 343.1,155.93 344.33,153.67 	"/>
	<polygon class="st1" points="355.17,151.41 352.6,151.47 350.03,151.54 351.37,153.73 352.71,155.93 353.94,153.67 	"/>
	<path class="st2" d="M318.71,146.72c0,0,32.13-7.88,37.73,5.07c-11.26,0-18.02,0.56-18.86,4.5c-0.84,3.94,15.49,8.45,15.49,8.45
		s-19.71,5.07-30.41-6.19c-7.32-3.44-19.71,21.96-19.71,21.96s-2.32,10.14-7.36,12.39c-5.03,2.25-33.75,8.45-33.75,8.45
		s-2.82,5.63-6.76,5.63c-3.94,0-28.16-3.38-38.29-11.83c-10.14,1.69-36.6,2.25-54.62,5.07s-73.77,0-79.4-4.5
		c-5.63-4.5-14.64-8.45,15.77-16.33c-10.77,3.16-54.62,19.71,38.29,16.89c18.02-3.38,48.99-9.01,52.93-12.39
		c3.94-3.38,61.38-18.02,73.77-18.02c12.39,0,36.6,7.32,39.42,2.25C305.76,163.05,312.44,147.94,318.71,146.72z"/>
	<circle class="st3" cx="332.79" cy="148.59" r="2.82"/>
	<path class="st4" d="M288.56,169.14c0,0-1.81,7.05,0,10.24c-3.44-2.06-3.83-10.81-3.83-10.81L288.56,169.14z"/>
	<path class="st4" d="M274.82,166.97c0,0-1.53,10.34,0.72,12.4c-3.57-2.25-5.62-13.07-5.62-13.07L274.82,166.97z"/>
	<path class="st4" d="M260.34,166.07c0,0,1.12,13.5,4.69,17.25c-5.63-3.94-13.72-15.88-13.72-15.88L260.34,166.07z"/>
	<polygon class="st0" points="288.5,213.98 289.67,213.42 290.83,212.86 289.76,212.13 288.69,211.4 288.59,212.69 	"/>
	<path class="st4" d="M242.42,169.21c0,0,4.22,7.91,6.09,8.47c-4.32,0-11.23-7.35-11.23-7.35L242.42,169.21z"/>
	<polygon class="st0" points="289.67,213.79 290.83,213.23 291.99,212.67 290.92,211.94 289.85,211.21 289.76,212.5 	"/>
	<polygon class="st0" points="287.42,213.38 288.29,212.96 289.16,212.54 288.33,211.93 287.5,211.32 287.46,212.35 	"/>
	<path class="st4" d="M228.59,172.35c0,0,1.15,4.96,3.77,7.02c-5.63-2.63-8.27-5.93-8.27-5.93L228.59,172.35z"/>
	<path class="st4" d="M211.82,176.63c0,0-0.38,3.31,1.07,3.88c-2.87,0-4.94-2.82-4.94-2.82L211.82,176.63z"/>
	<circle class="st5" cx="351.11" cy="149.83" r="0.41"/>
	<path class="st2" d="M292.51,187.15l-2.37,7.51c0,0,7.18,5.26,7.03,7.13c-0.15,1.88-0.87,16.14-3.51,15.02
		c-2.64-1.13-7.35-4.13-7.35-4.13l5.43-0.38c0,0,2.98-5.71,0-6.23c-2.98-0.52-9.74-8.78-9.74-10.29c0-1.5-3.38-9.76,0-10.14
		C285.38,185.27,294.88,179.64,292.51,187.15z"/>
	<path class="st2" d="M261.84,201.34c0,0-3.1,11.54-12.11,21.4c-3.1,10.14-7.6,10.7-5.07,12.39c2.53,1.69,18.58,5.91,18.86,8.73
		s6.4,10.98,6.4,10.98l-4.89-3.66l4.89,6.19l-4.89-2.82v4.5c0,0-4.86-13.8-8.11-14.36c-3.25-0.56-20.82-6.76-19.64-9.01
		c1.19-2.25,7.38-12.39,7.66-17.18c0.28-4.79,1.46-21.12,6.36-21.12S261.56,196.27,261.84,201.34z"/>
	<path class="st2" d="M233.21,239.36c1.08-2.77-11.94-14.41-13.5-17.2c-1.57-2.8,2.92-1.17,10.68-9.18
		c13.16-4.92,21.58-14.26,21.58-14.26c2.16-4.88-3.39-6.39-7.98-8.73s-13.51,12.39-16.06,16.74c-2.55,4.35-13.21,10.89-15.4,12.43
		s11.32,15.76,14.09,17.84c0,0-1.58,11.08,1.62,12.58c3.2,1.5,9.05,3.57,9.05,3.57l-4.92-4.32l6.76,2.82l-4.69-3.94l4.32,0.94
		c0,0-6.95-3-6.38-5.26C232.93,241.13,233.21,239.36,233.21,239.36z"/>
	<polygon class="st0" points="267.21,253.6 266.46,254.65 265.7,255.7 268.05,256.59 270.4,257.47 268.81,255.53 	"/>
	<polygon class="st0" points="268.6,251.81 267.81,252.57 267.01,253.33 268.77,254.36 270.52,255.39 269.56,253.6 	"/>
	<polygon class="st0" points="265.7,256.1 264.74,256.21 263.78,256.33 264.5,258.27 265.23,260.2 265.47,258.15 	"/>
	<polygon class="st0" points="236.64,248.76 236.04,249.68 235.44,250.61 237.48,251.26 239.51,251.92 238.07,250.34 	"/>
	<polygon class="st0" points="236.37,246.62 236.01,247.49 235.65,248.35 237.37,248.55 239.08,248.76 237.73,247.69 	"/>
	<polygon class="st0" points="234.78,250.24 234.22,251.04 233.66,251.83 235.59,252.59 237.51,253.34 236.14,251.79 	"/>
</g>
</svg>
