<?xml version="1.0" encoding="utf-8"?>
<!-- Generator: Adobe Illustrator 23.0.1, SVG Export Plug-In . SVG Version: 6.00 Build 0)  -->
<svg version="1.1" id="Layer_1" xmlns="http://www.w3.org/2000/svg" xmlns:xlink="http://www.w3.org/1999/xlink" x="0px" y="0px"
	 viewBox="0 0 599.8 599.8" style="enable-background:new 0 0 599.8 599.8;" xml:space="preserve">
<style type="text/css">
	.st0{fill:#BCE6FB;}
	.st1{fill:#FFF5B9;}
	.st2{fill:#010101;}
	.st3{fill:#FFD98C;}
</style>
<g id="A-Coelophysis">
	<path class="st0" d="M586.3,178.8c-8.8-7.5-36.1-30.1-45.9-30.1c-11.8,0-34.1,26.3-35.4,32.5c-1.2,6.2-31.5,74.5-63.5,73.3
		s-135.1,24.8-174.9,58.4s-69.5,79.5-156.4,45.9c-79.8-30.8-95.8-0.8-97.8,4.3c-0.2,0.4-0.3,0.9-0.3,1.4
		c-0.4,5.7-2.4,47.3,24.3,61.9c0.9,0.5,1.7,1.3,2.1,2.3c13.5,31.4,15.9,19.6,15.9,19.6s-53-81.9-16.6-86.9
		c35.1-4.8,77.8,20.4,80.9,22.2c0.1,0.1,0.3,0.1,0.4,0.2c4,1.8,57.8,25.6,122.1-10.9c0.4-0.2,0.8-0.5,1.1-0.9
		c29.2-31.1,65.8-34,69.9-34.2c0.2,0,0.5,0,0.7,0c5.1,0.5,65.2,6.5,101.2-14.9c30.3-18,50.7-22.1,57.4-23c1.6-0.2,2.9-1.2,3.6-2.6
		c6.6-13.7,40.1-83.8,42.3-96.1c2.3-12.7,42.1-20.1,61.2-10c1,0.5,2,0.6,3,0.4l-7.1-5.9l0.9-1.1l7.5,6.2l-0.4,0.5
		c1-0.4,1.8-1.1,2.3-2.1l2.5-4.7C588.4,182.6,587.9,180.2,586.3,178.8z"/>
	<path class="st1" d="M520,297.5l1.6,11.8c0,0-7.9-5.4-7.4-9.6C514.8,295.4,520,297.5,520,297.5z"/>
	<path class="st1" d="M510.2,338.5l-2.2,11.7c0,0-5.8-7.6-4-11.5C505.9,334.9,510.2,338.5,510.2,338.5z"/>
	<circle class="st2" cx="544.5" cy="166" r="4"/>
	<path class="st0" d="M447.7,302.2l19.4,25.8c0.5,0.7,1.1,1.2,1.9,1.5l23.3,10.6c1.8,0.8,2.9,2.6,2.9,4.5l0,0c0,4.5,5.6,6.7,8.6,3.3
		l7.1-8c2.1-2.4,1.5-6.1-1.4-7.6L481.1,317c-0.5-0.3-0.9-0.6-1.3-1l-22-24.2c-2.2-2.5-6.2-2.1-7.9,0.8l-2.5,4.2
		C446.3,298.4,446.5,300.6,447.7,302.2z"/>
	<path class="st0" d="M448.4,286l26.9,17.8c0.7,0.5,1.5,0.7,2.3,0.8l25.5,2.1c1.9,0.2,3.6,1.4,4.2,3.2l0,0c1.5,4.3,7.5,4.4,9.2,0.2
		l4-9.9c1.2-3-0.7-6.2-3.8-6.7l-31.9-4.8c-0.6-0.1-1.1-0.3-1.6-0.5l-28.9-15.4c-2.9-1.6-6.5,0.1-7.2,3.4l-0.9,4.8
		C445.9,282.9,446.8,284.9,448.4,286z"/>
	<path class="st0" d="M322.5,327.7c0,0-47.2,52.2-48.4,62.1c-1,8.2-0.4,44.2-0.1,56.5c0,2.3,1.9,4.1,4.2,4.1h14.8
		c3.8,0,5.6-4.6,2.9-7.2c-4.1-3.9-8.1-8.8-8.1-13.6c0-9.9-1.2-43.4,24.8-58.4c19.4-11.1,36.1-32.8,43.4-43.2
		c1.9-2.7,0.1-6.3-3.1-6.6C344.1,320.9,329.3,321,322.5,327.7z"/>
	<path class="st0" d="M357.1,315.8c0,0-30,63.6-28.4,73.4c1.4,8.3,12.7,43.2,16.4,54.5c0.6,1.9,2.7,3,4.6,2.4l15.7-4.7
		c3.3-1,3.6-5.5,0.5-7c-5.4-2.5-11.1-6.3-12.6-11.1c-2.9-9.5-13.8-41.2,6.8-63c15.7-16.6,25.5-42.9,29.3-54.7
		c0.9-2.7-1.5-5.4-4.4-4.8C376.5,302.6,361.7,307.1,357.1,315.8z"/>
	<circle class="st3" cx="403.2" cy="286.3" r="3.8"/>
	<circle class="st3" cx="346.3" cy="293.5" r="7.1"/>
	<circle class="st3" cx="376" cy="279.9" r="2.7"/>
	<circle class="st3" cx="427" cy="273" r="9.6"/>
	<circle class="st3" cx="303" cy="302" r="2.5"/>
	<circle class="st3" cx="465.3" cy="250.9" r="1.2"/>
	<path class="st1" d="M503.7,347.9l-9.4,7.2c0,0,0.7-9.5,4.7-11.2C503,342.2,503.7,347.9,503.7,347.9z"/>
	<path class="st1" d="M517.6,308.6l-3.5,11.3c0,0-4.9-8.2-2.6-11.8C513.7,304.4,517.6,308.6,517.6,308.6z"/>
	<path class="st1" d="M360.3,443.5l18-6.7c0,0-13.7-7.2-19.4-3.2C353.2,437.6,360.3,443.5,360.3,443.5z"/>
	<path class="st1" d="M286.5,451l19.3-0.5c0,0-10.6-11.3-17.3-9.3C281.7,443.1,286.5,451,286.5,451z"/>
</g>
</svg>
