<?xml version="1.0" encoding="utf-8"?>
<!-- Generator: Adobe Illustrator 23.0.3, SVG Export Plug-In . SVG Version: 6.00 Build 0)  -->
<svg version="1.0" id="Layer_1" xmlns="http://www.w3.org/2000/svg" xmlns:xlink="http://www.w3.org/1999/xlink" x="0px" y="0px"
	 viewBox="0 0 400 400" style="enable-background:new 0 0 400 400;" xml:space="preserve">
<style type="text/css">
	.st0{fill:#BCE6FB;}
	.st1{fill:#FFF5B9;}
	.st2{fill:#010101;}
	.st3{fill:#FFD98C;}
</style>
<g id="A-Coelophysis">
	<path class="st0" d="M398.64,114.45C392.62,109.32,374.11,94,367.44,94c-8.01,0-23.21,17.88-24.06,22.1
		c-0.84,4.22-21.4,50.68-43.22,49.84c-21.82-0.84-91.93,16.89-118.96,39.7c-27.03,22.81-47.3,54.06-106.43,31.25
		c-54.32-20.95-65.15-0.55-66.56,2.9c-0.12,0.29-0.19,0.6-0.21,0.92c-0.27,3.87-1.62,32.17,16.5,42.12
		c0.64,0.35,1.15,0.89,1.44,1.55c9.18,21.36,10.82,13.32,10.82,13.32S0.73,241.96,25.5,238.58c23.86-3.25,52.94,13.86,55.06,15.13
		c0.09,0.06,0.18,0.1,0.28,0.15c2.69,1.25,39.33,17.42,83.05-7.44c0.27-0.16,0.53-0.36,0.74-0.59
		c19.86-21.17,44.76-23.13,47.56-23.29c0.17-0.01,0.33,0,0.49,0.01c3.46,0.37,44.37,4.39,68.82-10.16
		c20.6-12.26,34.48-15.02,39.08-15.63c1.06-0.14,1.98-0.79,2.44-1.76c4.49-9.34,27.28-57.02,28.8-65.39
		c1.57-8.66,28.63-13.65,41.63-6.77c0.65,0.34,1.36,0.42,2.02,0.29l-4.83-4.02l0.64-0.77l5.1,4.24l-0.3,0.36
		c0.66-0.27,1.23-0.75,1.59-1.43l1.7-3.21C400.07,117.01,399.76,115.41,398.64,114.45z"/>
	<path class="st1" d="M353.57,195.22l1.09,8.01c0,0-5.38-3.65-5.02-6.55S353.57,195.22,353.57,195.22z"/>
	<path class="st1" d="M346.92,223.1l-1.47,7.95c0,0-3.97-5.14-2.73-7.79C343.98,220.61,346.92,223.1,346.92,223.1z"/>
	<circle class="st2" cx="370.2" cy="105.74" r="2.75"/>
	<path class="st0" d="M304.35,198.39l13.19,17.54c0.34,0.45,0.78,0.81,1.29,1.04l15.84,7.2c1.2,0.54,1.97,1.74,1.97,3.05v0
		c0,3.08,3.81,4.53,5.86,2.23l4.83-5.44c1.44-1.62,0.99-4.16-0.92-5.18l-19.33-10.39c-0.34-0.18-0.64-0.42-0.9-0.7l-14.96-16.49
		c-1.52-1.67-4.21-1.4-5.37,0.54l-1.71,2.87C303.45,195.83,303.53,197.3,304.35,198.39z"/>
	<path class="st0" d="M304.87,187.38l18.32,12.08c0.47,0.31,1.01,0.5,1.57,0.54l17.34,1.45c1.31,0.11,2.44,0.97,2.88,2.21v0
		c1.04,2.9,5.12,2.99,6.27,0.13l2.72-6.75c0.81-2.01-0.47-4.25-2.61-4.57l-21.7-3.28c-0.38-0.06-0.74-0.18-1.08-0.36l-19.64-10.49
		c-1.99-1.06-4.44,0.1-4.87,2.31l-0.64,3.27C303.17,185.27,303.74,186.63,304.87,187.38z"/>
	<path class="st0" d="M219.22,215.77c0,0-32.1,35.48-32.94,42.23c-0.7,5.59-0.24,30.1-0.06,38.41c0.03,1.54,1.29,2.77,2.84,2.77
		h10.1c2.57,0,3.82-3.14,1.94-4.9c-2.82-2.64-5.52-6.02-5.52-9.25c0-6.76-0.84-29.56,16.89-39.7c13.19-7.54,24.58-22.32,29.54-29.4
		c1.27-1.81,0.07-4.31-2.14-4.46C233.86,211.08,223.8,211.19,219.22,215.77z"/>
	<path class="st0" d="M242.71,207.61c0,0-20.44,43.26-19.29,49.97c0.96,5.62,8.67,29.42,11.16,37.05c0.43,1.32,1.83,2.04,3.16,1.64
		l10.65-3.22c2.24-0.68,2.45-3.75,0.33-4.74c-3.65-1.72-7.58-4.27-8.58-7.55c-1.96-6.47-9.38-28.05,4.66-42.89
		c10.66-11.27,17.33-29.22,19.92-37.2c0.61-1.87-1.05-3.7-2.97-3.27C255.96,198.68,245.86,201.72,242.71,207.61z"/>
	<circle class="st3" cx="274.1" cy="187.6" r="2.56"/>
	<circle class="st3" cx="235.38" cy="192.46" r="4.86"/>
	<circle class="st3" cx="255.56" cy="183.23" r="1.81"/>
	<circle class="st3" cx="290.29" cy="178.54" r="6.5"/>
	<circle class="st3" cx="205.9" cy="198.28" r="1.68"/>
	<circle class="st3" cx="316.36" cy="163.5" r="0.84"/>
	<path class="st1" d="M342.49,229.45l-6.42,4.9c0,0,0.51-6.48,3.21-7.6C341.98,225.63,342.49,229.45,342.49,229.45z"/>
	<path class="st1" d="M351.92,202.71l-2.39,7.72c0,0-3.34-5.57-1.79-8.06C349.29,199.89,351.92,202.71,351.92,202.71z"/>
	<path class="st1" d="M244.89,294.52l12.28-4.57c0,0-9.32-4.9-13.21-2.17C240.09,290.51,244.89,294.52,244.89,294.52z"/>
	<path class="st1" d="M194.69,299.62l13.1-0.32c0,0-7.22-7.67-11.78-6.35C191.45,294.27,194.69,299.62,194.69,299.62z"/>
</g>
</svg>
