<?xml version="1.0" encoding="utf-8"?>
<!-- Generator: Adobe Illustrator 23.0.1, SVG Export Plug-In . SVG Version: 6.00 Build 0)  -->
<svg version="1.1" id="Layer_1" xmlns="http://www.w3.org/2000/svg" xmlns:xlink="http://www.w3.org/1999/xlink" x="0px" y="0px"
	 viewBox="0 0 599.8 599.8" style="enable-background:new 0 0 599.8 599.8;" xml:space="preserve">
<style type="text/css">
	.st0{fill:#F9F4DF;}
	.st1{fill:#FFF8D1;}
	.st2{fill:#010101;}
	.st3{fill:#FFDB5D;}
	.st4{fill:#EAF5EB;}
</style>
<g id="A-Coloradisaurus">
	<path class="st0" d="M379.4,570.8c0,0,19.2,1.2,24.6-0.9c5.5-2.1-14.3-10.6-14.3-10.6S366,554.3,379.4,570.8z"/>
	<path class="st0" d="M461.5,566.7c0,0,19.2,1.2,24.6-0.9c5.5-2.1-14.3-10.6-14.3-10.6S448.1,550.2,461.5,566.7z"/>
	<path class="st0" d="M539.3,153.1c0,0,6.6-18,6.2-23.9c-0.4-5.9-14.3,10.7-14.3,10.7S519.7,161.2,539.3,153.1z"/>
	<path class="st0" d="M549.3,190.7c0,0,6.6-18,6.2-23.9c-0.4-5.9-14.3,10.7-14.3,10.7S529.6,198.8,549.3,190.7z"/>
	<path class="st1" d="M355.8,252.7c0,0,105.4-59.5,108.1-117.6c2.7-58.1,4-160.8,117.5-120.3c18.9,18.9-9.5,28.4-9.5,28.4
		s-60.7,6.8-60.7,48.7s-4,131.1-23,154.1c-4,33.8-35.1,128.4-66.2,141.9s-83.8,98.7-83.8,98.7s-73,118.9-194.6,106.8
		c-121.6-12.2-123-5.4-131.1-36.5s60.8-50,96-23c-40.5-4-78.4,10.8-71.6,16.2c6.8,5.4,51.4,32.4,175.7-21.6
		c24.3-14.9,41.9-58.1,46-85.1c4-27,28-119.4,55.2-157C340.9,264.9,355.8,252.7,355.8,252.7z"/>
	<circle class="st2" cx="526.4" cy="24" r="9.1"/>
	<circle class="st3" cx="574" cy="19.7" r="2.3"/>
	<path class="st1" d="M485.5,236.6c0,0,23.4,13.2,36-6.6c12.6-19.8,14-43.2,14-43.2l10.7-5.4l6.6,6.6l10.8-1.2v9.6l8.1,3.6
		c0,0-6.3,9.1-13.5,11.2c-7.2,2-37.2,57.3-48.7,57.3s-30.6,13.2-39-2.4C462.1,250.5,485.5,236.6,485.5,236.6z"/>
	<path class="st1" d="M464,196.6c0,0,23.4,13.2,36-6.6c12.6-19.8,14-43.2,14-43.2l10.7-5.4l6.6,6.6l10.8-1.2v9.6l8.1,3.6
		c0,0-6.3,9.1-13.5,11.2c-7.2,2-37.2,57.3-48.7,57.3s-30.6,13.2-39-2.4C440.5,210.4,464,196.6,464,196.6z"/>
	<path class="st1" d="M415.8,370.8c0,0,33.6,47.4,33.3,61.1s-5.2,99.8-7.7,109.2c-2.5,9.4,30.4,18.1,30.4,18.1s7.6,10.6-5.5,11.9
		c-13.1,1.2-52.4,11.2-54.9,0c-2.5-11.2-11.2-98.6-6.9-111.1c4.4-12.5-56.8-12.5-56.1-24.3C349.1,423.9,341.6,339,415.8,370.8z"/>
	<path class="st1" d="M362.1,384.9c0,0,25.4,47.7,23.5,60.4c-1.9,12.6-16.6,91.5-20,99.9c-3.4,8.3,26,20.3,26,20.3
		s5.7,10.7-6.5,10.3c-12.2-0.4-49.7,4.2-50.7-6.5c-1-10.7,1.3-92.3,6.8-103.3s-50.9-18.2-48.9-29.1
		C294.2,426,297.3,346.8,362.1,384.9z"/>
	<path class="st0" d="M571.7,200c0,0,6.6-18,6.2-23.9s-14.3,10.7-14.3,10.7S552.1,208.1,571.7,200z"/>
	<path class="st0" d="M561.6,190.7c0,0,6.6-18,6.2-23.9c-0.4-5.9-14.3,10.7-14.3,10.7S542,198.8,561.6,190.7z"/>
	<path class="st0" d="M527,153.1c0,0,6.6-18,6.2-23.9s-14.3,10.7-14.3,10.7S507.3,161.2,527,153.1z"/>
	<path class="st0" d="M549.4,162.4c0,0,6.6-18,6.2-23.9s-14.3,10.7-14.3,10.7S529.8,170.6,549.4,162.4z"/>
	<path class="st0" d="M459.5,571.3c0,0,19.2,1.2,24.6-0.9s-14.3-10.6-14.3-10.6S446.2,554.7,459.5,571.3z"/>
	<path class="st0" d="M377.5,575.3c0,0,19.2,1.2,24.6-0.9c5.5-2.1-14.3-10.6-14.3-10.6S364.1,558.7,377.5,575.3z"/>
	<polygon class="st4" points="411.2,239.2 418.7,254.3 428.1,240.3 	"/>
	<polygon class="st4" points="355.8,299.9 360.6,288.5 348.3,290 	"/>
	<polygon class="st4" points="398.2,284.7 409.4,282.2 401.6,273.7 	"/>
	<polygon class="st4" points="373.4,266.7 381,260.3 371.6,256.9 	"/>
	<polygon class="st4" points="367.5,339.7 384.7,336.9 373.7,323.5 	"/>
	<polygon class="st4" points="324.3,319.8 334.2,318.3 327.9,310.5 	"/>
	<polygon class="st4" points="388.2,303.6 391.4,298 385,298 	"/>
	<polygon class="st4" points="333.3,363.7 338.7,366.9 338.7,360.6 	"/>
	<polygon class="st4" points="299.9,351.4 303,346 296.8,346 	"/>
	<polygon class="st4" points="442.3,208.1 451.9,208.2 447.2,199.9 	"/>
	<polygon class="st4" points="419.3,219.8 421.7,215.8 417,215.8 	"/>
	<polygon class="st4" points="284.6,408.1 285.8,399.8 278,402.9 	"/>
	<polygon class="st4" points="278.3,461.3 285.9,463.8 284.3,456 	"/>
	<polygon class="st4" points="270.2,446 264.4,437.2 259.8,446.6 	"/>
	<polygon class="st4" points="254,490.1 258.8,491.1 257.3,486.4 	"/>
	<polygon class="st4" points="234.2,523.5 243.1,526.8 241.5,517.4 	"/>
</g>
</svg>
