<?xml version="1.0" encoding="utf-8"?>
<!-- Generator: Adobe Illustrator 23.0.3, SVG Export Plug-In . SVG Version: 6.00 Build 0)  -->
<svg version="1.0" id="Layer_1" xmlns="http://www.w3.org/2000/svg" xmlns:xlink="http://www.w3.org/1999/xlink" x="0px" y="0px"
	 viewBox="0 0 400 400" style="enable-background:new 0 0 400 400;" xml:space="preserve">
<style type="text/css">
	.st0{fill:#F9F4DF;}
	.st1{fill:#FFF8D1;}
	.st2{fill:#010101;}
	.st3{fill:#FFDB5D;}
	.st4{fill:#EAF5EB;}
</style>
<g id="A-Coloradisaurus">
	<path class="st0" d="M248.73,375.38c0,0,11.97,0.75,15.4-0.56c3.43-1.31-8.93-6.65-8.93-6.65S240.38,365.04,248.73,375.38z"/>
	<path class="st0" d="M300.05,372.85c0,0,11.97,0.75,15.4-0.56c3.43-1.31-8.93-6.65-8.93-6.65S291.69,362.51,300.05,372.85z"/>
	<path class="st0" d="M348.7,114.34c0,0,4.13-11.26,3.85-14.92s-8.92,6.66-8.92,6.66S336.4,119.41,348.7,114.34z"/>
	<path class="st0" d="M354.92,137.82c0,0,4.13-11.26,3.85-14.92s-8.92,6.66-8.92,6.66S342.63,142.89,354.92,137.82z"/>
	<path class="st1" d="M233.99,176.58c0,0,65.88-37.17,67.57-73.49s2.53-100.52,73.41-75.18c11.83,11.83-5.91,17.74-5.91,17.74
		s-37.93,4.22-37.93,30.41s-2.53,81.93-14.36,96.29c-2.53,21.12-21.96,80.24-41.39,88.69c-19.43,8.45-52.37,61.66-52.37,61.66
		s-45.61,74.33-121.63,66.73s-76.87-3.38-81.93-22.81s38.01-31.25,59.97-14.36c-25.34-2.53-48.99,6.76-44.77,10.14
		s32.1,20.27,109.81-13.51c15.2-9.29,26.19-36.32,28.72-53.21s17.52-74.63,34.52-98.13C224.7,184.18,233.99,176.58,233.99,176.58z"
		/>
	<circle class="st2" cx="340.63" cy="33.62" r="5.7"/>
	<circle class="st3" cx="370.36" cy="30.92" r="1.41"/>
	<path class="st1" d="M315.08,166.54c0,0,14.63,8.26,22.52-4.13c7.89-12.39,8.73-27.03,8.73-27.03L353,132l4.13,4.13l6.76-0.75v6.01
		l5.07,2.25c0,0-3.94,5.7-8.45,6.98c-4.5,1.28-23.28,35.82-30.41,35.82s-19.15,8.26-24.4-1.5
		C300.44,175.17,315.08,166.54,315.08,166.54z"/>
	<path class="st1" d="M301.59,141.52c0,0,14.63,8.26,22.52-4.13s8.73-27.03,8.73-27.03l6.66-3.38l4.13,4.13l6.76-0.75v6.01
		l5.07,2.25c0,0-3.94,5.7-8.45,6.98c-4.5,1.28-23.28,35.82-30.41,35.82c-7.13,0-19.15,8.26-24.4-1.5
		C286.95,150.15,301.59,141.52,301.59,141.52z"/>
	<path class="st1" d="M271.5,250.4c0,0,20.98,29.63,20.82,38.21c-0.16,8.58-3.28,62.39-4.84,68.24
		c-1.56,5.85,19.03,11.31,19.03,11.31s4.72,6.63-3.45,7.41c-8.18,0.78-32.74,7.02-34.3,0s-7.02-61.61-4.29-69.41
		c2.73-7.8-35.48-7.8-35.09-15.21C229.78,283.55,225.1,230.52,271.5,250.4z"/>
	<path class="st1" d="M237.93,259.21c0,0,15.87,29.83,14.71,37.73c-1.16,7.9-10.4,57.2-12.53,62.41
		c-2.13,5.21,16.23,12.69,16.23,12.69s3.58,6.68-4.06,6.43c-7.64-0.25-31.05,2.61-31.66-4.05s0.8-57.69,4.24-64.57
		c3.44-6.88-31.83-11.39-30.59-18.18C195.5,284.87,197.45,235.37,237.93,259.21z"/>
	<path class="st0" d="M368.95,143.64c0,0,4.13-11.26,3.85-14.92c-0.28-3.66-8.92,6.66-8.92,6.66S356.66,148.7,368.95,143.64z"/>
	<path class="st0" d="M362.64,137.82c0,0,4.13-11.26,3.85-14.92s-8.92,6.66-8.92,6.66S350.35,142.89,362.64,137.82z"/>
	<path class="st0" d="M340.98,114.34c0,0,4.13-11.26,3.85-14.92c-0.28-3.66-8.92,6.66-8.92,6.66S328.68,119.41,340.98,114.34z"/>
	<path class="st0" d="M355.01,120.16c0,0,4.13-11.26,3.85-14.92c-0.28-3.66-8.92,6.66-8.92,6.66S342.72,125.23,355.01,120.16z"/>
	<path class="st0" d="M298.83,375.67c0,0,11.97,0.75,15.4-0.56c3.43-1.31-8.93-6.65-8.93-6.65S290.47,365.32,298.83,375.67z"/>
	<path class="st0" d="M247.52,378.2c0,0,11.97,0.75,15.4-0.56c3.43-1.31-8.93-6.65-8.93-6.65S239.16,367.85,247.52,378.2z"/>
	<polygon class="st4" points="268.63,168.13 273.3,177.58 279.15,168.82 	"/>
	<polygon class="st4" points="233.99,206.06 236.98,198.94 229.31,199.91 	"/>
	<polygon class="st4" points="260.46,196.57 267.49,194.99 262.61,189.7 	"/>
	<polygon class="st4" points="244.96,185.31 249.71,181.29 243.86,179.19 	"/>
	<polygon class="st4" points="241.31,230.92 252.03,229.22 245.2,220.79 	"/>
	<polygon class="st4" points="214.28,218.53 220.46,217.59 216.56,212.71 	"/>
	<polygon class="st4" points="254.24,208.39 256.26,204.9 252.22,204.9 	"/>
	<polygon class="st4" points="219.92,245.97 223.29,247.92 223.29,244.02 	"/>
	<polygon class="st4" points="199.04,238.24 200.99,234.86 197.09,234.86 	"/>
	<polygon class="st4" points="288.05,148.7 294.04,148.78 291.11,143.56 	"/>
	<polygon class="st4" points="273.69,156.02 275.16,153.49 272.23,153.49 	"/>
	<polygon class="st4" points="189.51,273.72 190.26,268.52 185.38,270.47 	"/>
	<polygon class="st4" points="185.57,306.94 190.28,308.53 189.3,303.66 	"/>
	<polygon class="st4" points="180.5,297.37 176.89,291.91 173.97,297.76 	"/>
	<polygon class="st4" points="170.36,324.96 173.38,325.58 172.41,322.65 	"/>
	<polygon class="st4" points="157.97,345.8 163.53,347.88 162.55,342.03 	"/>
</g>
</svg>
