<?xml version="1.0" encoding="utf-8"?>
<!-- Generator: Adobe Illustrator 23.0.1, SVG Export Plug-In . SVG Version: 6.00 Build 0)  -->
<svg version="1.1" id="Layer_1" xmlns="http://www.w3.org/2000/svg" xmlns:xlink="http://www.w3.org/1999/xlink" x="0px" y="0px"
	 viewBox="0 0 599.8 599.8" style="enable-background:new 0 0 599.8 599.8;" xml:space="preserve">
<style type="text/css">
	.st0{fill:#F47A5E;}
	.st1{fill:#FFEBB8;}
	.st2{fill:#010101;}
	.st3{fill:#ABA1CE;}
	.st4{fill:#F9AF8B;}
</style>
<g id="A-Euraptor">
	<path class="st0" d="M586.3,178.7c0,0-40.4-12.6-51.8-15.1c-11.4-2.5-50.5,42.9-72,42.9c-21.5,0-115.6-5.1-162.6,32.8
		s-168.2,26.5-168.2,26.5s-84.6,10.1-119.9,39.1c40.4-9.9,102.3-39.1,135.1-25.3c32.8,13.9,207,30.3,231,10.1
		c24-20.2,48-2.5,75.7-24c27.8-21.5,17.7-31.6,17.7-31.6s40.4-32.8,44.2-40.4C519.4,186.3,600.2,201.4,586.3,178.7z"/>
	<path class="st1" d="M338.6,415.3c0,0,10.3,7.6,7.2,18.1c-10.6-3.2-10.3-13.7-18-13.4S328.4,409.9,338.6,415.3z"/>
	<path class="st1" d="M435.1,418.2c0,0,12.6,2.7,14,13.5c-11,1.5-15.1-8.2-21.9-4.7C420.3,430.5,423.5,417.6,435.1,418.2z"/>
	<circle class="st2" cx="537.5" cy="177" r="5.5"/>
	<path class="st0" d="M337.6,289.3c0,0,24.4,16,27.8,49.7s14.3,39.6,14.3,39.6s-5.9,20.2,0,25.3c5.9,5.1,33.7,24.4,34.5,26.9
		c0.8,2.5,38.7,0,38.7,0s-59.7-15.1-63.1-45.4c-3.4-30.3,5.9-48.8-8.4-74.1c-14.3-25.3-2.5-49.7-21-43.8
		C341.8,273.4,337.6,289.3,337.6,289.3z"/>
	<path class="st0" d="M334.8,273c0,0,9.1,24.2-6.1,50.1c-15.2,25.8-10.5,35.8-10.5,35.8s-14.8,11.4-13.2,18.1
		c1.6,6.7,11.3,35.1,10.6,37.3c-0.7,2.3,27.7,20.3,27.7,20.3s-34.8-42.1-21.4-65.6c13.5-23.4,29.8-31.8,32.8-57.4
		c3-25.6,24.2-36.9,7.9-42.3C346.2,263.8,334.8,273,334.8,273z"/>
	<path class="st0" d="M467.7,234.4c0,0,0.8,22.7,0,26.9c-0.8,4.2,25.3-1.7,29.5,0c4.2,1.7,13.5,15.5,10.9,19.9
		c-2.5,4.5-10.9-19.1-24.4-13.2c-13.5,5.9-34.5,7.6-30.3-4.2C457.6,252.1,447.5,231.9,467.7,234.4z"/>
	<rect x="304.8" y="258" class="st3" width="9.5" height="9.5"/>
	<path class="st1" d="M511,281.9c0,0-2.5,7-8.8,7c0-6.4,5.9-8,4.4-12.2C505.1,272.5,512.3,275.4,511,281.9z"/>
	<rect x="352.2" y="227.4" class="st3" width="3.6" height="3.6"/>
	<path class="st0" d="M463.8,248.1c0,0,0.8,22.7,0,26.9c-0.8,4.2,25.3-1.7,29.5,0c4.2,1.7,13.5,15.5,10.9,19.9
		c-2.5,4.5-10.9-19.1-24.4-13.2c-13.5,5.9-34.5,7.6-30.3-4.2C453.7,265.8,443.6,245.6,463.8,248.1z"/>
	<rect x="380.2" y="227.4" class="st3" width="8.4" height="8.4"/>
	<rect x="345.4" y="244.2" class="st3" width="3.7" height="3.7"/>
	<rect x="420.6" y="216.7" class="st3" width="10.7" height="10.7"/>
	<rect x="316.5" y="235.8" class="st3" width="3.1" height="3.1"/>
	<rect x="246.1" y="266.6" class="st3" width="5.1" height="5.1"/>
	<rect x="275.3" y="258" class="st3" width="2.9" height="2.9"/>
	<rect x="395.2" y="214.5" class="st3" width="3.4" height="3.4"/>
	<path class="st1" d="M506.5,295.7c0,0-2.5,7-8.8,7c0-6.4,5.9-8,4.4-12.2C500.6,286.2,507.8,289.1,506.5,295.7z"/>
	<path class="st1" d="M437.4,419.7c0,0,12.6,2.7,14,13.5c-11,1.5-15.1-8.2-21.9-4.7C422.7,432,425.9,419.1,437.4,419.7z"/>
	<path class="st1" d="M339.8,418.2c0,0,10.3,7.6,7.2,18.1c-10.6-3.2-10.3-13.7-18-13.4S329.5,412.9,339.8,418.2z"/>
	<circle class="st4" cx="571.9" cy="178.5" r="1.5"/>
</g>
</svg>
