<?xml version="1.0" encoding="utf-8"?>
<!-- Generator: Adobe Illustrator 23.0.3, SVG Export Plug-In . SVG Version: 6.00 Build 0)  -->
<svg version="1.0" id="Layer_1" xmlns="http://www.w3.org/2000/svg" xmlns:xlink="http://www.w3.org/1999/xlink" x="0px" y="0px"
	 viewBox="0 0 400 400" style="enable-background:new 0 0 400 400;" xml:space="preserve">
<style type="text/css">
	.st0{fill:#F47A5E;}
	.st1{fill:#FFEBB8;}
	.st2{fill:#010101;}
	.st3{fill:#ABA1CE;}
	.st4{fill:#F9AF8B;}
</style>
<g id="A-Euraptor">
	<path class="st0" d="M333.59,142.68c0,0-19.18-5.99-24.58-7.19c-5.39-1.2-23.98,20.38-34.17,20.38c-10.19,0-54.91-2.4-77.2,15.58
		s-79.84,12.59-79.84,12.59s-40.16,4.8-56.94,18.58c19.18-4.72,48.55-18.58,64.14-11.99c15.58,6.59,98.3,14.39,109.69,4.8
		s22.78-1.2,35.96-11.39c13.19-10.19,8.39-15.01,8.39-15.01s19.18-15.56,20.98-19.16C301.83,146.27,340.19,153.46,333.59,142.68z"/>
	<path class="st1" d="M215.99,255.01c0,0,4.89,3.63,3.41,8.58c-5.04-1.51-4.89-6.51-8.54-6.34S211.13,252.47,215.99,255.01z"/>
	<path class="st1" d="M261.79,256.42c0,0,5.96,1.27,6.67,6.39c-5.21,0.72-7.15-3.89-10.4-2.22
		C254.8,262.26,256.32,256.13,261.79,256.42z"/>
	<circle class="st2" cx="310.42" cy="141.88" r="2.6"/>
	<path class="st0" d="M215.51,195.22c0,0,11.59,7.59,13.19,23.58s6.79,18.78,6.79,18.78s-2.8,9.59,0,11.99
		c2.8,2.4,15.98,11.59,16.38,12.79s18.38,0,18.38,0s-28.37-7.19-29.97-21.58s2.8-23.18-4-35.16c-6.79-11.99-1.2-23.58-9.99-20.78
		C217.51,187.63,215.51,195.22,215.51,195.22z"/>
	<path class="st0" d="M214.19,187.46c0,0,4.31,11.5-2.92,23.78c-7.23,12.27-4.98,17-4.98,17s-7.03,5.4-6.28,8.58
		c0.75,3.18,5.37,16.67,5.02,17.73c-0.34,1.07,13.15,9.63,13.15,9.63s-16.53-20.01-10.14-31.14c6.39-11.13,14.15-15.12,15.57-27.26
		c1.42-12.14,11.5-17.5,3.74-20.1C219.59,183.08,214.19,187.46,214.19,187.46z"/>
	<path class="st0" d="M277.31,169.13c0,0,0.4,10.79,0,12.79c-0.4,2,11.99-0.8,13.99,0c2,0.8,6.39,7.35,5.19,9.47
		c-1.2,2.12-5.19-9.07-11.59-6.27c-6.39,2.8-16.38,3.6-14.39-2C272.51,177.52,267.72,167.93,277.31,169.13z"/>
	<rect x="199.95" y="180.34" class="st3" width="4.52" height="4.52"/>
	<path class="st1" d="M297.86,191.7c0,0-1.2,3.32-4.2,3.32c0-3.05,2.8-3.8,2.1-5.79C295.07,187.23,298.46,188.58,297.86,191.7z"/>
	<rect x="222.44" y="165.79" class="st3" width="1.73" height="1.73"/>
	<path class="st0" d="M275.45,175.64c0,0,0.4,10.79,0,12.79s11.99-0.8,13.99,0c2,0.8,6.39,7.35,5.19,9.47
		c-1.2,2.12-5.19-9.07-11.59-6.27c-6.39,2.8-16.38,3.6-14.39-2C270.66,184.03,265.86,174.44,275.45,175.64z"/>
	<rect x="235.76" y="165.79" class="st3" width="4" height="4"/>
	<rect x="219.24" y="173.78" class="st3" width="1.76" height="1.76"/>
	<rect x="254.94" y="160.72" class="st3" width="5.06" height="5.06"/>
	<rect x="205.52" y="169.78" class="st3" width="1.47" height="1.47"/>
	<rect x="172.09" y="184.41" class="st3" width="2.44" height="2.44"/>
	<rect x="185.94" y="180.34" class="st3" width="1.38" height="1.38"/>
	<rect x="242.88" y="159.66" class="st3" width="1.63" height="1.63"/>
	<path class="st1" d="M295.73,198.22c0,0-1.2,3.32-4.2,3.32c0-3.05,2.8-3.8,2.1-5.79C292.93,193.74,296.33,195.1,295.73,198.22z"/>
	<path class="st1" d="M262.9,257.12c0,0,5.96,1.27,6.67,6.39c-5.21,0.72-7.15-3.89-10.4-2.22
		C255.92,262.97,257.43,256.84,262.9,257.12z"/>
	<path class="st1" d="M216.54,256.42c0,0,4.89,3.63,3.41,8.58c-5.04-1.51-4.89-6.51-8.54-6.34S211.68,253.89,216.54,256.42z"/>
	<circle class="st4" cx="326.78" cy="142.59" r="0.72"/>
</g>
</svg>
