<?xml version="1.0" encoding="utf-8"?>
<!-- Generator: Adobe Illustrator 23.0.3, SVG Export Plug-In . SVG Version: 6.00 Build 0)  -->
<svg version="1.0" id="Layer_1" xmlns="http://www.w3.org/2000/svg" xmlns:xlink="http://www.w3.org/1999/xlink" x="0px" y="0px"
	 viewBox="0 0 400 400" style="enable-background:new 0 0 400 400;" xml:space="preserve">
<style type="text/css">
	.st0{fill:#FDF7BB;}
	.st1{fill:#CEB9DA;}
	.st2{fill:#010101;}
	.st3{fill:#DFEED0;}
	.st4{fill:#D9E9B6;}
	.st5{fill:#9377B6;}
</style>
<g id="A-Guiabasaurus">
	<path class="st0" d="M256.79,266.47c0,0,8.12,1.55,9.92,3.96c-3.01-0.01-5.68-0.91-11.74-0.36
		C254.44,267.27,255.33,266.15,256.79,266.47z"/>
	<path class="st0" d="M237.84,276.59c0,0,7.86,2.55,9.35,5.16c-2.98-0.38-5.52-1.61-11.61-1.82
		C235.41,277.09,236.44,276.09,237.84,276.59z"/>
	<path class="st0" d="M321.88,215.78c0,0,6.44,5.78,6.26,8.88c-1.57-1.6-6.65-7.99-7.06-7.19S319.55,214.96,321.88,215.78z"/>
	<path class="st0" d="M324.45,213.25c0,0,6.44,5.78,6.26,8.88c-1.57-1.6-6.65-7.99-7.06-7.19S322.13,212.42,324.45,213.25z"/>
	<path class="st0" d="M332.56,198.32c0,0,8.64-0.54,10.72,1.76c-2.25,0-10.36-0.86-10.08,0
		C333.48,200.93,330.33,199.4,332.56,198.32z"/>
	<path class="st0" d="M332.56,194.7c0,0,8.64-0.54,10.72,1.76c-2.25,0-10.36-0.86-10.08,0C333.48,197.31,330.33,195.78,332.56,194.7
		z"/>
	<path class="st1" d="M356.22,123.84c0,0-3-7.86-11.34-7.22c-1.92-2.89-5.38,0.84-7.06-0.04c-2.89-1.51-9.95-3.17-11.87,0.36
		c-1.92,3.53-14.44,16.68-13.47,33.05c-0.05,6.74-9.3,9.62-17.32,9.62s-51.01,0-79.57,17.97s-80.53,36.25-91.44,34.97
		s-27.27,0.64-47.48-5.77c-20.21-6.42-37.22-3.85-37.22-3.85s28.23,5.77,32.08,7.38c3.85,1.6,37.22,12.51,55.18,11.23
		s54.86-7.38,81.81-17.97c7.06,4.81,19.25,6.1,19.25,6.1s21.82,5.77,35.93-0.96c14.12-6.74,40.75-12.51,42.35-15.08
		s9.62-10.91,9.62-15.4s16.68-37.54,19.57-37.54S357.61,129.78,356.22,123.84z"/>
	<circle class="st2" cx="334.46" cy="123.84" r="3.05"/>
	<path class="st3" d="M334.46,115.36l-2.25-7.24c0,0-30.64,8.13-19.57,36.47c2.23-9.02,8.84-21.47,14.96-29.16
		C327.6,115.43,331.41,114.58,334.46,115.36z"/>
	<path class="st4" d="M352.74,126.35c0,0-17.57,0.13-22.86,6.15c0-4.57-2.65-8.66-2.65-8.66s-3.37,1.68,0,9.87
		c3.37,8.18-3.85-2.57-3.85-2.57s-2.89-0.16,2.41,6.98c5.29,7.14-5.77-4.01-5.77-4.01s-4.41-0.24,3.37,8.26s-5.69-2.49-5.69-2.49
		s-2.89,1.24,3.13,5.71c6.02,4.47-4.57,1.1-4.81,1.75c-0.24,0.64-1.12,4.09,3.05,7.7c4.17,3.61-5.94-1.28-5.94-1.28
		s-1.92,1.44,3.21,6.5c5.13,5.05-3.46,1.68-6.1-0.96c-2.64-2.65-2.88,4.25,1.93,6.98c4.81,2.73-3.1,4.49-3.8,3.05
		c-0.69-1.44-4.95-5.61-6.07-4.81s6.1,12.75,1.2,12.99c-4.89,0.24-10.19-7.38-10.19-7.38s1.76,14.12-1.36,14.28s-1.84-7.22-5.53-6.9
		c-3.69,0.32-5.29,13.39-10.51,12.27c-5.21-1.12-0.8-8.58-4.89-8.9c-4.09-0.32-3.37,9.3-7.06,8.26c-3.69-1.04-1.84-9.87-4.49-9.95
		c-2.65-0.08-3.53,13.15-7.38,12.91c-3.85-0.24-3.05-10.75-7.3-9.71c-4.25,1.04-2.09,14.44-6.26,12.91
		c-4.17-1.52-4.89-14.28-5.94-14.28c-1.04,0-8.98,5.77-9.95,9.38c-0.96,3.61-5.77,3.21-5.94,0.16c-0.16-3.05-1.28-3.29-2.41-3.13
		c-1.12,0.16-0.32,7.54-4.33,7.98c-4.01,0.44-4.81-1.48-5.13-4.53c-0.32-3.05-4.01,3.53-4.01,3.53s-2.25,9.79-8.74,8.02
		s-12.19,3.77-12.19,3.77s2.57-4.65,1.28-4.65c-1.28,0-8.34,7.22-10.83,7.22c-2.49,0-2.17-4.41-2.17-4.41s-10.11,2.81-11.15,6.66
		s-3.53-1.76-5.37-1.76c-1.84,0-12.11,7.06-13.72,7.06s-4.97,1.84-4.81,0c0.16-1.84,1.44-3.69-1.44-3.05s-10.35,4.77-12.43,3.87
		c-2.09-0.9-79.81-14.21-79.81-14.21l32.08,7.38c0,0,30.88,11.33,49.41,11.27c15,0.2,63.2-6.62,87.59-18.01
		c4.17,4.73,31.64,8.12,31.64,8.12s6.97,1.98,19.82-1.54c3.71-1.44,20.16-7.63,20.16-7.63l23.4-7.44c0,0,3.96-0.38,11.05-13.31
		c1.88-3.38,3.77-11.48,4.71-13.53c0.94-2.05,11.83-26.05,15.94-27.56C340.15,139.96,360.84,128.41,352.74,126.35z"/>
	<circle class="st5" cx="350.9" cy="121.67" r="0.88"/>
	<path class="st4" d="M230.75,206.13c0,0,10.35,12.03,7.22,13.47s-7.94,17.57-7.22,23.1c0.72,5.53-6.74,6.74-6.74,11.31
		s0,27.78,0,27.78s11.31,3.02,16.6,6.39c5.29,3.37-8.3-7.94-8.3-7.94l13.6,6.26c0,0-6.02-10.59-10.95-10.35
		c-4.93,0.24-4.93-20.45-3.01-22.62s22.97-26.64,22.86-34.41S254.09,184.72,230.75,206.13z"/>
	<path class="st4" d="M239.76,205.93c0,0,10.89,8.92,8.38,10.66c-2.51,1.74-4.23,16.57-2.75,21.29s-4.85,6.92-4.14,10.92
		c0.7,3.99,4.28,24.27,4.28,24.27s10.35,0.89,15.49,3.02c5.14,2.13-8.48-5.66-8.48-5.66l12.84,3.37c0,0-6.89-8.32-11.16-7.35
		s-7.46-17.11-6.11-19.3c1.35-2.19,15.96-26.82,14.67-33.59C261.49,206.81,256.85,183.62,239.76,205.93z"/>
	<path class="st4" d="M310.23,183.03c0,0,2.89,11.28,2.57,14.94s4.17,6.87,7.38,10.08c3.21,3.21,11.23,2.57,11.23,2.57l-7.06,2.89
		c0,0-1.6,6.42-5.45,3.21s-13.54-11.14-14.44-16.39C303.56,195.07,300.27,182.71,310.23,183.03z"/>
	<path class="st4" d="M301.45,182.01c0,0,9.8,6.28,12.06,9.19c2.26,2.9,7.74,2.19,12.27,2.35c4.53,0.16,9.97-5.77,9.97-5.77
		l-3.2,6.92c0,0,3.2,5.79-1.81,6.06c-5,0.27-17.5,1.07-21.74-2.17C304.78,195.37,293.95,188.56,301.45,182.01z"/>
	<path class="st0" d="M335.76,187.78c0,0,3.03-2.5,5.28-2.5c-1.44,2.5-5.55,3.09-7.01,6.25S333.01,189.55,335.76,187.78z"/>
	<path class="st0" d="M331.63,210.68c0,0,3.91,0.41,5.48,2.01c-2.79,0.72-6.09-1.8-9.38-0.62
		C324.45,213.25,328.45,209.96,331.63,210.68z"/>
	<path class="st0" d="M261.38,269.48c0,0,7.17,4.12,8.08,6.99c-2.84-0.99-5.07-2.71-10.98-4.18
		C258.91,269.47,260.12,268.7,261.38,269.48z"/>
	<path class="st0" d="M255.48,271.37c0,0,7.17,4.12,8.08,6.99c-2.84-0.99-5.07-2.71-10.98-4.18
		C253,271.36,254.21,270.6,255.48,271.37z"/>
	<path class="st0" d="M242.56,281.12c0,0,6.76,4.75,7.41,7.69c-2.74-1.25-4.8-3.16-10.55-5.16
		C240.09,280.88,241.36,280.24,242.56,281.12z"/>
	<path class="st0" d="M235.56,282.52c0,0,7.17,4.12,8.08,6.99c-2.84-0.99-5.07-2.71-10.98-4.18
		C233.08,282.51,234.29,281.74,235.56,282.52z"/>
</g>
</svg>
