<?xml version="1.0" encoding="utf-8"?>
<!-- Generator: Adobe Illustrator 23.0.1, SVG Export Plug-In . SVG Version: 6.00 Build 0)  -->
<svg version="1.1" id="Layer_1" xmlns="http://www.w3.org/2000/svg" xmlns:xlink="http://www.w3.org/1999/xlink" x="0px" y="0px"
	 viewBox="0 0 600 600" style="enable-background:new 0 0 600 600;" xml:space="preserve">
<style type="text/css">
	.st0{fill:#FFA08B;}
	.st1{fill:#FCFBE0;}
	.st2{fill:#FFFEB9;}
	.st3{fill:#F7F189;}
	.st4{fill:#F9F9A5;}
</style>
<title>aSpinosaurus</title>
<g id="A-Hespo">
	<path class="st0" d="M336.8,309.4c1.3,18.3-3.1,52.3,0,66.1c3.1,13.8,41.3,22.2,42.1,16.8c0.8-5.4,0.9-44.8,0.9-44.8
		c5.4-12.1,24.4-20.6,10.6-30.3C376.6,307.4,335.3,288.4,336.8,309.4z"/>
	<path class="st1" d="M69.4,303.2c0,0-2.6-36.9-1.1-45.6c3.1,7.2,2.3,42.3,5.8,48.2"/>
	<path class="st1" d="M61.9,300.6c0,0-7.7-31.7-7.7-39.5c3.8,5.8,8.2,36.4,12.2,41"/>
	<path class="st1" d="M59.5,300.3c0,0-46.7-21.5-56.3-29"/>
	<path class="st1" d="M49.2,297.4c0,0-30.5-41.4-35.2-52.6c9.1,6.1,34.1,47.8,42.7,52.1"/>
	<path class="st1" d="M52.9,297.2c0,0-19.6-47.5-21.6-59.5c7.3,8.1,21.6,54.6,28.9,60.9"/>
	<ellipse class="st2" cx="312.8" cy="218.5" rx="41.7" ry="32.6"/>
	<path class="st3" d="M312.8,246.4c-14,0-26.3-8-26.3-17.1s12.3-17.1,26.3-17.1c14,0,26.3,8,26.3,17.1S326.8,246.4,312.8,246.4z"/>
	<ellipse class="st2" cx="385.1" cy="222.4" rx="41.7" ry="32.6"/>
	<ellipse class="st3" cx="385.1" cy="233.2" rx="26.3" ry="17.1"/>
	
		<ellipse transform="matrix(0.3521 -0.936 0.936 0.3521 59.2583 575.2109)" class="st2" cx="445.1" cy="244.8" rx="21.6" ry="27.6"/>
	<path class="st3" d="M449.5,262.6c-2.1,0-4.4-0.4-6.5-1.2c-3.6-1.4-6.7-3.7-8.3-6.4c-0.9-1.4-1.2-2.8-0.9-3.7
		c0.5-1.3,3.3-2.7,7.1-2.7c2.1,0,4.4,0.4,6.5,1.2c3.6,1.4,6.7,3.7,8.3,6.4c0.9,1.4,1.2,2.8,0.9,3.7
		C456,261.2,453.2,262.6,449.5,262.6z"/>
	
		<ellipse transform="matrix(0.3521 -0.936 0.936 0.3521 51.2059 624.0823)" class="st2" cx="476.4" cy="275.1" rx="17.3" ry="22.1"/>
	<path class="st3" d="M479.9,282.2c-1.3,0-2.8-0.3-4.2-0.8c-3-1.1-4.6-2.9-5.2-4c0.5-0.2,1.3-0.4,2.4-0.4c1.3,0,2.8,0.3,4.2,0.8
		c3,1.1,4.6,2.9,5.2,4C481.7,282.1,480.9,282.2,479.9,282.2z"/>
	
		<ellipse transform="matrix(0.3521 -0.936 0.936 0.3521 47.3543 668.2306)" class="st2" cx="506.4" cy="299.9" rx="12.7" ry="16.3"/>
	
		<ellipse transform="matrix(0.3521 -0.936 0.936 0.3521 44.0237 672.6708)" class="st3" cx="507.9" cy="304.5" rx="12.7" ry="16.3"/>
	
		<ellipse transform="matrix(0.1313 -0.9913 0.9913 0.1313 163.1627 786.0255)" class="st2" cx="530.1" cy="299.9" rx="6.4" ry="8.1"/>
	
		<ellipse transform="matrix(0.1313 -0.9913 0.9913 0.1313 159.9163 791.5724)" class="st3" cx="531.6" cy="304.5" rx="6.4" ry="8.1"/>
	
		<ellipse transform="matrix(0.1313 -0.9913 0.9913 0.1313 174.2005 802.5886)" class="st2" cx="545.1" cy="301.9" rx="6.4" ry="8.1"/>
	
		<ellipse transform="matrix(0.1313 -0.9913 0.9913 0.1313 170.9542 808.1355)" class="st3" cx="546.6" cy="306.5" rx="6.4" ry="8.1"/>
	<ellipse transform="matrix(0.1313 -0.9913 0.9913 0.1313 185.3234 819.2792)" class="st2" cx="560.2" cy="303.9" rx="5" ry="6.4"/>
	<ellipse transform="matrix(0.1313 -0.9913 0.9913 0.1313 174.6232 828.6553)" class="st3" cx="560.2" cy="314.7" rx="5" ry="6.4"/>
	
		<ellipse transform="matrix(0.9381 -0.3463 0.3463 0.9381 -66.6839 102.16)" class="st2" cx="252.5" cy="237.7" rx="27.6" ry="21.6"/>
	<path class="st3" d="M248.3,255.4c-3.8,0-6.6-1.4-7.1-2.7c-0.7-2,2.3-7.4,9.3-10c2.1-0.8,4.3-1.2,6.4-1.2c3.8,0,6.6,1.4,7.1,2.7
		c0.7,2-2.3,7.4-9.3,10C252.6,255,250.3,255.4,248.3,255.4z"/>
	
		<ellipse transform="matrix(0.9381 -0.3463 0.3463 0.9381 -78.1731 87.7989)" class="st2" cx="206.6" cy="262.7" rx="27.6" ry="21.6"/>
	<path class="st3" d="M203.9,269.6c-3.8,0-6.6-1.4-7.1-2.7c-0.3-0.8,0.1-2.2,1-3.7c1.7-2.7,4.7-5,8.4-6.3c2.1-0.8,4.3-1.2,6.4-1.2
		c3.8,0,6.6,1.4,7.1,2.7c0.3,0.8-0.1,2.2-1,3.7c-1.7,2.7-4.7,5-8.4,6.3C208.2,269.2,205.9,269.6,203.9,269.6z"/>
	
		<ellipse transform="matrix(0.9381 -0.3463 0.3463 0.9381 -84.3309 78.1184)" class="st2" cx="176.4" cy="275.1" rx="18" ry="14.1"/>
	
		<ellipse transform="matrix(0.9381 -0.3463 0.3463 0.9381 -88.0686 78.7862)" class="st3" cx="176.4" cy="285.8" rx="18" ry="14.1"/>
	<ellipse transform="matrix(0.9381 -0.3463 0.3463 0.9381 -92.946 68.1758)" class="st2" cx="144.3" cy="294.2" rx="18" ry="14.1"/>
	<ellipse transform="matrix(0.9381 -0.3463 0.3463 0.9381 -96.6837 68.8436)" class="st3" cx="144.3" cy="305" rx="18" ry="14.1"/>
	<path class="st0" d="M596.8,328.8c0,0-4.1-23.7-34.2-24.9c-30.1-1.2-67.7-4.1-74.7-12.7c-6.9-8.7-89.1-77.6-152.8-57.9
		c-47.5-3.5-120.4,27.8-120.4,27.8s-60.8,41.7-101.9,43.4c-41.1,1.7-83.9-20.3-83.9-20.3l21.4,16.2c0,0,74.1,32.4,110.6,19.1
		s92.6-22.8,119.2-5.9c26.6,16.9,85.7,36,115.2,54.5c29.5,18.5,89.7-25.5,89.7-25.5s45.2-18.5,78.1-12.2c33,6.4,30.8,6.1,30.3,4.3
		c-0.4-1.7-11.9-10.9-4.3-8.5C596.8,328.8,596.8,328.8,596.8,328.8z"/>
	<circle cx="574" cy="313.9" r="3.9"/>
	<path class="st0" d="M441.9,309.4c1.3,18.3-3.1,52.3,0,66.1s41.3,22.2,42.1,16.8c0.8-5.4,0.9-44.8,0.9-44.8
		c5.4-12.1,24.4-20.6,10.6-30.3C481.6,307.4,440.3,288.4,441.9,309.4z"/>
	<path class="st4" d="M293.2,320.6c0,0,225.7,7.9,191.8,22.1C426.8,372.7,293.2,320.6,293.2,320.6z"/>
	<path class="st0" d="M292.5,310.7c1.5,20.8-3.5,59.4,0,75.1c3.5,15.6,46.9,25.2,47.8,19.1c0.9-6.1,1-50.9,1-50.9
		c6.1-13.7,33.2-34,17.6-45.1S290.7,286.8,292.5,310.7z"/>
	<path class="st0" d="M404.2,317.3c1.5,20.8-3.5,59.4,0,75.1s46.9,25.2,47.8,19.1c0.9-6.1,1-50.9,1-50.9c6.1-13.7,27.7-23.3,12-34.4
		C449.3,315.1,402.4,293.4,404.2,317.3z"/>
	<path class="st1" d="M379.2,379.4c3.2,16.8-1.1,14.6-9.4,14.6"/>
	<path class="st1" d="M484.6,380.7c3.2,15.1-1.1,13.1-9.4,13.1"/>
	<path class="st1" d="M341.1,394.1c3.2,14.5-1.1,12.6-9.4,12.6"/>
	<path class="st1" d="M452.2,399.3c3.2,16.9-1.1,14.7-9.4,14.7"/>
</g>
</svg>
