<?xml version="1.0" encoding="utf-8"?>
<!-- Generator: Adobe Illustrator 23.0.3, SVG Export Plug-In . SVG Version: 6.00 Build 0)  -->
<svg version="1.0" id="Layer_1" xmlns="http://www.w3.org/2000/svg" xmlns:xlink="http://www.w3.org/1999/xlink" x="0px" y="0px"
	 viewBox="0 0 500 400" style="enable-background:new 0 0 500 400;" xml:space="preserve">
<style type="text/css">
	.st0{fill:#FFF1BA;}
	.st1{fill:#B4DFD1;}
	.st2{fill:#FDF7BB;}
	.st3{fill:#010101;}
	.st4{fill:#48BA7F;}
	.st5{fill:#F6E0ED;}
</style>
<g id="A-Isi">
	<polygon class="st0" points="478.75,151.2 474.34,151.51 469.92,151.83 471.38,141.1 472.83,130.37 475.79,140.78 	"/>
	<polygon class="st0" points="485.43,154.76 481.01,155.08 476.6,155.39 478.06,144.66 479.51,133.93 482.47,144.35 	"/>
	<polygon class="st0" points="469.92,142.37 465.51,142.68 461.1,143 462.55,132.27 464.01,121.54 466.97,131.95 	"/>
	<polygon class="st0" points="461.1,137.29 456.69,137.6 452.27,137.91 453.73,127.18 455.18,116.45 458.14,126.87 	"/>
	<polygon class="st0" points="450.46,131.64 446.05,131.95 441.63,132.27 443.09,121.54 444.54,110.81 447.5,121.22 	"/>
	<polygon class="st0" points="426.99,123.34 422.58,123.66 418.17,123.97 419.62,113.24 421.07,102.51 424.03,112.93 	"/>
	<polygon class="st0" points="440.15,126.56 435.74,126.87 431.33,127.18 432.78,116.45 434.23,105.72 437.19,116.14 	"/>
	<polygon class="st0" points="418.17,120.91 413.75,121.22 409.34,121.54 410.79,110.81 412.25,100.08 415.21,110.49 	"/>
	<polygon class="st0" points="406.75,116.99 402.88,119.13 399.01,121.27 395.82,110.93 392.63,100.58 399.69,108.79 	"/>
	<polygon class="st0" points="414.31,117.42 410.44,119.56 406.57,121.7 403.37,111.35 400.18,101.01 407.25,109.21 	"/>
	<polygon class="st0" points="395.03,112.7 391.16,114.84 387.29,116.98 384.1,106.63 380.91,96.28 387.97,104.49 	"/>
	<polygon class="st0" points="384.89,111.79 381.02,113.93 377.15,116.07 373.95,105.73 370.76,95.38 377.83,103.59 	"/>
	<polygon class="st0" points="372.86,111.14 368.99,113.29 365.12,115.43 361.92,105.08 358.73,94.73 365.8,102.94 	"/>
	<polygon class="st0" points="348.08,113.48 344.21,115.62 340.33,117.76 337.14,107.42 333.95,97.07 341.01,105.28 	"/>
	<polygon class="st0" points="361.37,110.87 357.5,113.01 353.63,115.15 350.44,104.8 347.24,94.45 354.31,102.66 	"/>
	<polygon class="st0" points="339.05,114.99 335.18,117.13 331.31,119.27 328.11,108.92 324.92,98.58 331.98,106.78 	"/>
	<polygon class="st0" points="328.76,120.54 325.91,123.93 323.07,127.32 316.37,118.8 309.68,110.29 319.22,115.42 	"/>
	<polygon class="st0" points="335.96,118.23 333.12,121.62 330.27,125 323.58,116.49 316.89,107.98 326.43,113.1 	"/>
	<polygon class="st0" points="316.28,120.73 313.43,124.12 310.58,127.51 303.89,119 297.2,110.48 306.74,115.61 	"/>
	<polygon class="st0" points="306.48,123.53 303.64,126.92 300.79,130.31 294.1,121.79 287.41,113.28 296.95,118.41 	"/>
	<polygon class="st0" points="295.02,127.24 292.18,130.63 289.33,134.02 282.64,125.5 275.95,116.99 285.48,122.12 	"/>
	<polygon class="st0" points="272.73,138.32 269.88,141.7 267.04,145.09 260.35,136.58 253.65,128.06 263.19,133.19 	"/>
	<polygon class="st0" points="284.2,131.11 281.35,134.49 278.51,137.88 271.81,129.37 265.12,120.85 274.66,125.98 	"/>
	<polygon class="st0" points="264.84,142.96 261.99,146.35 259.15,149.73 252.46,141.22 245.76,132.71 255.3,137.84 	"/>
	<polygon class="st0" points="258.5,154.7 256.35,158.57 254.19,162.43 246.01,155.34 237.83,148.24 248.17,151.47 	"/>
	<polygon class="st0" points="265.14,151.07 262.99,154.93 260.83,158.8 252.65,151.7 244.47,144.61 254.81,147.84 	"/>
	<polygon class="st0" points="246.28,157.25 244.13,161.11 241.97,164.98 233.79,157.88 225.61,150.79 235.95,154.02 	"/>
	<polygon class="st0" points="237.2,161.85 235.04,165.71 232.89,169.57 224.71,162.48 216.53,155.38 226.86,158.62 	"/>
	<polygon class="st0" points="226.64,167.66 224.49,171.52 222.33,175.38 214.15,168.29 205.97,161.19 216.31,164.42 	"/>
	<polygon class="st0" points="206.84,182.74 204.69,186.61 202.53,190.47 194.35,183.37 186.17,176.28 196.51,179.51 	"/>
	<polygon class="st0" points="216.74,173.49 214.59,177.36 212.43,181.22 204.25,174.13 196.07,167.03 206.41,170.26 	"/>
	<polygon class="st0" points="199.97,188.79 197.82,192.66 195.66,196.52 187.48,189.43 179.3,182.33 189.64,185.56 	"/>
	<polygon class="st0" points="193.96,193.84 192.67,198.07 191.39,202.31 181.89,197.1 172.39,191.9 183.18,192.87 	"/>
	<polygon class="st0" points="194.34,200.9 193.05,205.13 191.76,209.37 182.26,204.16 172.77,198.96 183.55,199.93 	"/>
	<polygon class="st0" points="189.23,208.27 187.95,212.5 186.66,216.73 177.16,211.53 167.66,206.33 178.45,207.3 	"/>
	<polygon class="st0" points="182.66,216.02 181.37,220.25 180.09,224.49 170.59,219.28 161.09,214.08 171.88,215.05 	"/>
	<polygon class="st0" points="173.58,223.93 172.29,228.17 171,232.4 161.51,227.2 152.01,222 162.79,222.96 	"/>
	<polygon class="st0" points="157.43,242.87 156.14,247.11 154.85,251.34 145.35,246.14 135.86,240.94 146.64,241.91 	"/>
	<polygon class="st0" points="166.48,234.41 165.19,238.64 163.9,242.87 154.4,237.67 144.91,232.47 155.69,233.44 	"/>
	<polygon class="st0" points="152,250.24 150.71,254.47 149.42,258.71 139.92,253.51 130.43,248.31 141.21,249.27 	"/>
	<path class="st1" d="M262.5,243.54c0,0,9.42,39.83,4.92,55.82c0,0-2.81,12.03,1.26,22.79c4.07,10.76,0.21,19.22,0.21,19.22
		l-19.24-1.33c0,0,0.33-16.86,1.64-23.75s-15.07-48.48-14.5-52.52S261.48,238.9,262.5,243.54z"/>
	<path class="st2" d="M262.12,340.5c0,0,6.56-16.04,8.79-11.28c2.24,4.76-1.32,12.43-1.32,12.43S265.63,342.51,262.12,340.5z"/>
	<path class="st2" d="M257.35,340.5c0,0,6.56-16.04,8.79-11.28c2.24,4.76-1.32,12.43-1.32,12.43S260.86,342.51,257.35,340.5z"/>
	<path class="st1" d="M179.24,258.07c0,0,9.27,35.61,5.35,49.99c0,0-2.42,10.82,1.49,20.42c3.91,9.6,0.47,17.23,0.47,17.23
		l-17.76-0.97c0,0,0.06-15.12,1.16-21.32c1.1-6.2-14.6-43.3-14.14-46.92C156.27,272.89,178.23,253.92,179.24,258.07z"/>
	<path class="st1" d="M494.98,162.15c3.76-7.52-10.53-12.03-10.53-12.03s-103.77-112.8-252.67,15.04
		c-43.62,3.76-61.66,52.64-61.66,52.64s-13.54,32.34-49.63,31.58c-36.1-0.75-87.23-16.54-113.55,15.79
		c-26.32,32.34,29.33,12.03,29.33,12.03s-22.56,6.02-24.06,0.75s6.02-27.82,66.18-19.55c60.16,8.27,72.94,41.36,72.94,41.36
		s67.68,26.32,111.29-21.81c37.6-24.82,22.56-35.93,22.56-35.93s-16.54-49.05,90.24-77.62c106.78-28.58,110.54,35.34,110.54,35.34
		s10.53,4.51,13.54-6.02C499.49,193.74,491.22,169.67,494.98,162.15z M490.42,200.7v-9.72l0.6,9.73L490.42,200.7z"/>
	<circle class="st3" cx="484.49" cy="160.21" r="3.6"/>
	<circle class="st4" cx="495.29" cy="192.55" r="1.57"/>
	<path class="st2" d="M180.79,344.39c0,0,6.56-16.04,8.79-11.28s-1.32,12.43-1.32,12.43S184.3,346.39,180.79,344.39z"/>
	<path class="st2" d="M176.03,344.39c0,0,6.56-16.04,8.79-11.28s-1.32,12.43-1.32,12.43S179.54,346.39,176.03,344.39z"/>
	<path class="st1" d="M279.45,227.98c0,0,16.17,50.62,11.66,71.68c0,0-2.63,15.79,3.76,29.33c6.39,13.54,2.04,24.82,2.04,24.82
		h-25.69c0,0-1.1-21.81,0-30.83c1.1-9.02-24.47-61.29-24.09-66.55C247.49,251.16,277.67,222.08,279.45,227.98z"/>
	<path class="st1" d="M192.17,255.5c0,0,11.27,43.37,6.49,60.9c0,0-2.95,13.18,1.81,24.87c4.75,11.69,0.56,20.99,0.56,20.99
		l-21.64-1.19c0,0,0.09-18.41,1.43-25.96c1.34-7.55-17.76-52.74-17.2-57.16S190.94,250.44,192.17,255.5z"/>
	<path class="st2" d="M289.43,352.66c0,0,6.56-16.04,8.79-11.28c2.24,4.76-1.32,12.43-1.32,12.43S292.94,354.66,289.43,352.66z"/>
	<path class="st2" d="M284.67,352.66c0,0,6.56-16.04,8.79-11.28c2.24,4.76-1.32,12.43-1.32,12.43S288.18,354.66,284.67,352.66z"/>
	<path class="st2" d="M194.94,360.92c0,0,6.56-16.04,8.79-11.28c2.24,4.76-1.32,12.43-1.32,12.43S198.45,362.93,194.94,360.92z"/>
	<path class="st2" d="M190.17,360.92c0,0,6.56-16.04,8.79-11.28c2.24,4.76-1.32,12.43-1.32,12.43S193.68,362.93,190.17,360.92z"/>
	<path class="st5" d="M443.09,121.54l-11.76,12.39l10.31,23.95l-23.47-12.79l4.41-21.44l8.4-8.23
		C430.98,115.43,442.9,119.65,443.09,121.54z"/>
	<path class="st5" d="M415.21,110.49l-22.03,17.96l12.02,29.42l-27.37-15.71l5.15-26.33l9.8-10.11
		C392.77,105.72,414.99,108.18,415.21,110.49z"/>
	<path class="st5" d="M361.92,105.08l-19.51,25.18l20.65,37.7l-32.78-21.07l-0.5-26.83l7.46-11.94
		C337.24,108.12,361.22,102.86,361.92,105.08z"/>
	<path class="st5" d="M310.99,116.98l-15.37,42.11l20.65,29.5l-36-15.79l5.15-26.33l3.47-20.49
		C288.88,125.97,310.77,114.66,310.99,116.98z"/>
	<path class="st5" d="M267.69,139.78l-8.28,50.06l27.62,30.74l-42.97-17.03l5.15-26.33l-5.15-22.14
		C244.06,155.07,267.47,137.46,267.69,139.78z"/>
	<path class="st5" d="M231.78,165.16l-16.59,27.82l20.65,37.7l-32.78-21.07l-0.5-26.83l7.46-11.94
		C210.02,170.84,231.08,162.94,231.78,165.16z"/>
	<path class="st5" d="M185.53,192.98l-0.55,29.6l20.65,37.7l-32.78-21.07l-0.5-26.83l6.7-11.72
		C179.06,200.67,184.83,190.76,185.53,192.98z"/>
	<path class="st5" d="M161.33,232.46l-0.36,19.5l13.61,24.85l-21.6-13.89l-4.83-20.62l7.66-5.57
		C155.8,236.72,161.36,230.14,161.33,232.46z"/>
	<polygon class="st5" points="133.87,248.04 133.08,255.47 137.96,264.38 130.21,259.4 127.06,249.14 131,248.62 	"/>
	<polygon class="st5" points="117.8,249.19 117.14,255.35 121.18,262.73 114.77,258.6 111.81,248.96 115.03,248.96 	"/>
	<polygon class="st5" points="100.49,247.96 100.16,251.09 102.21,254.84 98.95,252.74 97.04,247.6 99.09,247.84 	"/>
	<polygon class="st5" points="90.19,246.91 89.85,250.04 91.91,253.79 88.65,251.7 86.59,246.51 88.77,246.68 	"/>
	<polygon class="st5" points="76.67,245.73 76.33,248.86 78.39,252.61 75.13,250.51 73.07,245.32 75.25,245.49 	"/>
	<polygon class="st5" points="63.82,244.92 63.45,248.37 65.51,252.12 62.25,250.02 60.19,244.83 62.33,244.89 	"/>
	<polygon class="st5" points="52.64,245.07 52.24,248.77 54.3,252.53 51.04,250.43 48.98,245.24 51.08,245.16 	"/>
	<polygon class="st5" points="40.13,246.53 39.67,250.79 41.73,254.54 38.47,252.44 36.42,247.27 38.51,246.85 	"/>
	<polygon class="st5" points="26.81,250.43 26.64,252.63 27.65,254.47 26.05,253.44 25.04,251.2 25.94,250.75 	"/>
	<polygon class="st5" points="15.56,256.83 16.03,259.61 17.04,261.45 15.44,260.42 14.15,257.94 14.76,257.45 	"/>
	<polygon class="st5" points="5.66,266.78 6.49,269.56 7.5,271.4 5.9,270.37 4.78,267.95 5.17,267.42 	"/>
	<polygon class="st5" points="1.08,273.94 2.55,275.45 4.62,275.8 2.82,276.42 0.38,275.68 0.71,274.79 	"/>
	<polygon class="st5" points="4.76,283.21 7.41,281.14 8.68,279.46 8.4,281.34 6.54,283.44 5.8,283.37 	"/>
</g>
</svg>
