<?xml version="1.0" encoding="utf-8"?>
<!-- Generator: Adobe Illustrator 23.0.1, SVG Export Plug-In . SVG Version: 6.00 Build 0)  -->
<svg version="1.1" id="Layer_1" xmlns="http://www.w3.org/2000/svg" xmlns:xlink="http://www.w3.org/1999/xlink" x="0px" y="0px"
	 viewBox="0 0 599.8 599.8" style="enable-background:new 0 0 599.8 599.8;" xml:space="preserve">
<style type="text/css">
	.st0{fill:#B1DCBF;}
	.st1{fill:#F9F6C4;}
	.st2{fill:#A9DAF5;}
	.st3{fill:#A2D9D3;}
	.st4{fill:#D8ACD0;}
	.st5{fill:#F3F2AB;}
	.st6{fill:#FCE790;}
	.st7{fill:#010101;}
</style>
<g id="A-khaan">
	<path class="st0" d="M538.8,128.6c0,0,49.5,5.4,39.6,44.6c-8.2,6.8-17.5,10.3-17.5,10.3s-28.6-13.2-41.8,11.5
		c-13.2,24.7-34.6,81.4-77.5,86.1c-8.2,21-33,22.5-33,22.5s23.1,23.3,18.1,54.6c-2.6,16.8-5.8,10.4-8.1,0.9c-2-8.3-3.4-19-3.4-19
		l-6.6,42.9l-5-28.8L390.4,374c0,0-34.6-47-54.4-45.3c0,0-20.6,13.2-35.4,10.7s-58.5-36.3-58.5-42.9
		c-13.2,2.5-101.4-22.3-110.4-36.3c-9.9,1.7-84.1,4.1-104.7-14c27.2-17.3,49.5-14.8,72.5-14.8c18.1,3.3,47,13.2,47,13.2
		s59.3,12.4,101.4-1.7c42-14,105.5-10.7,105.5-10.7l86.5,9.1c0,0,42-1.7,51.9-41.2C501.7,160.5,507.5,139.5,538.8,128.6z"/>
	<g>
		<path class="st0" d="M339.5,325.3c0,0-16.9,44.5-30.3,49.5c-13.3,5-19.8,49.5-19.8,49.5l14.7,28.8c0,0,23,8.4,26.4,10.7
			c1.3,0.9-30.5-3.3-30.5-3.3l19.8,10.7l-33.2-5.8c0,0-9.7-35.3-13.8-41c-4.1-5.8-0.1-28.2,17.2-53.8c-4.1-19,6.8-45.3,6.8-45.3
			L339.5,325.3L339.5,325.3z"/>
		<polygon class="st1" points="316,457.4 309.3,461.9 332.9,464.2 		"/>
		<polygon class="st1" points="303.5,462.4 296,467.2 319.8,471.1 		"/>
	</g>
	<g>
		<path class="st0" d="M299.9,343.7c0,0-44.7,16.4-57.2,9.6c-12.5-6.8-50.4,17.4-50.4,17.4l-12.2,30c0,0,8.7,22.8,9.2,26.9
			c0.2,1.6-17.5-25.2-17.5-25.2l4.9,22l-17.4-28.9c0,0,20.3-30.4,21.9-37.3c1.7-6.9,21.2-18.6,51.9-22.3
			c11.6-15.5,38.7-24.6,38.7-24.6L299.9,343.7z"/>
		<polygon class="st1" points="184.6,412.5 176.8,410.4 190.6,429.7 		"/>
		<polygon class="st1" points="172.7,406.4 164.2,403.8 176.7,424.4 		"/>
	</g>
	<g id="feathers">
		<path class="st2" d="M420.8,335.4c0,0-49.1,21.7-44.8,26.8C380.3,367.3,420.8,335.4,420.8,335.4z"/>
		<path class="st2" d="M407,333c0,0-49.1,21.7-44.8,26.8C366.5,364.9,407,333,407,333z"/>
		<path class="st2" d="M389.6,316.7c0,0-49.1,21.7-44.8,26.8C349.1,348.6,389.6,316.7,389.6,316.7z"/>
		<path class="st2" d="M403.7,312.7c0,0-49.1,21.7-44.8,26.8C363.2,344.6,403.7,312.7,403.7,312.7z"/>
		<path class="st2" d="M414.3,316.7c0,0-49.1,21.7-44.8,26.8C373.9,348.6,414.3,316.7,414.3,316.7z"/>
		<path class="st2" d="M384.5,308c0,0-49.1,21.7-44.8,26.8C344,339.9,384.5,308,384.5,308z"/>
		<path class="st3" d="M420.8,336.5c0,0-49.1,21.7-44.8,26.8C380.3,368.4,420.8,336.5,420.8,336.5z"/>
		<path class="st3" d="M416.4,329.4c0,0-49.1,21.7-44.8,26.8C376,361.4,416.4,329.4,416.4,329.4z"/>
		<path class="st3" d="M412.1,322.3c0,0-49.1,21.7-44.8,26.8C371.7,354.2,412.1,322.3,412.1,322.3z"/>
		<path class="st3" d="M425,343.8c0,0-49.1,21.7-44.8,26.8C384.5,375.7,425,343.8,425,343.8z"/>
		<path class="st3" d="M407.8,315.1c0,0-49.1,21.7-44.8,26.8C367.4,347,407.8,315.1,407.8,315.1z"/>
		<path class="st3" d="M401.5,309.1c0,0-49.1,21.7-44.8,26.8C361.1,341.1,401.5,309.1,401.5,309.1z"/>
		<path class="st4" d="M398.2,326.4c0,0-49.1,21.7-44.8,26.8C357.7,358.3,398.2,326.4,398.2,326.4z"/>
		<path class="st4" d="M402.6,315.5c0,0-49.1,21.7-44.8,26.8C362.1,347.4,402.6,315.5,402.6,315.5z"/>
		<path class="st5" d="M425.1,336c0,0-49.1,21.7-44.8,26.8C384.6,367.9,425.1,336,425.1,336z"/>
		<path class="st5" d="M420.7,328.9c0,0-49.1,21.7-44.8,26.8C380.2,360.8,420.7,328.9,420.7,328.9z"/>
		<path class="st5" d="M416.4,321.7c0,0-49.1,21.7-44.8,26.8C376,353.6,416.4,321.7,416.4,321.7z"/>
		<path class="st5" d="M429.3,343.2c0,0-49.1,21.7-44.8,26.8C388.8,375.1,429.3,343.2,429.3,343.2z"/>
		<path class="st5" d="M412.1,314.5c0,0-49.1,21.7-44.8,26.8C371.7,346.4,412.1,314.5,412.1,314.5z"/>
		<path class="st5" d="M393.9,308.6c0,0-49.1,21.7-44.8,26.8C353.4,340.5,393.9,308.6,393.9,308.6z"/>
		<path class="st4" d="M389.6,315.2c0,0-49.1,21.7-44.8,26.8C349.1,347.1,389.6,315.2,389.6,315.2z"/>
		<path class="st4" d="M416.8,334.8c0,0-47.9,24.4-43.2,29.2C378.1,368.8,416.8,334.8,416.8,334.8z"/>
		<path class="st4" d="M395.8,308c0,0-49.1,21.7-44.8,26.8C355.3,339.9,395.8,308,395.8,308z"/>
		<path class="st4" d="M421,343.9c0,0-50.9,17.2-47,22.6C377.9,372,421,343.9,421,343.9z"/>
		<path class="st2" d="M83.3,249.6c0,0-72.5-11.8-71.5-7.2C13,246.9,83.3,249.6,83.3,249.6z"/>
		<path class="st2" d="M117.5,239c0,0-71.6-23.6-71.4-18C46.3,226.5,117.5,239,117.5,239z"/>
		<path class="st2" d="M102.8,240.1c0,0-72.5-11.8-71.4-7.2C32.5,237.4,102.8,240.1,102.8,240.1z"/>
		<path class="st2" d="M123.9,240.1c0,0-67.5-29.1-67.5-24.4C56.3,220.3,123.9,240.1,123.9,240.1z"/>
		<path class="st2" d="M106.3,257.4c0,0-73.4,3.2-71.4,7.4C36.9,269,106.3,257.4,106.3,257.4z"/>
		<path class="st2" d="M90.1,250.2c0,0-73.2-6.6-71.8-2.1C19.7,252.6,90.1,250.2,90.1,250.2z"/>
		<path class="st3" d="M110.5,244.7c0,0-72.5-11.8-71.5-7.2C40.1,242,110.5,244.7,110.5,244.7z"/>
		<path class="st3" d="M101.5,260.8c0,0-72.5-11.8-71.4-7.2C31.1,258.1,101.5,260.8,101.5,260.8z"/>
		<path class="st3" d="M94.5,257.9c0,0-72.5-11.8-71.4-7.2C24.1,255.2,94.5,257.9,94.5,257.9z"/>
		<path class="st3" d="M132.7,240.5c0,0-67.6-28.8-67.6-24.1C65,221.1,132.7,240.5,132.7,240.5z"/>
		<path class="st3" d="M119.1,241.9c0,0-72.5-11.8-71.4-7.2C48.7,239.2,119.1,241.9,119.1,241.9z"/>
		<path class="st3" d="M91.4,247.2c0,0-72.5-11.8-71.4-7.2C21,244.5,91.4,247.2,91.4,247.2z"/>
		<path class="st4" d="M102.8,251.4c0,0-72.5-11.8-71.4-7.2C32.5,248.7,102.8,251.4,102.8,251.4z"/>
		<path class="st4" d="M92.8,253.6c0,0-73.4,2.8-71.5,7C23.3,264.8,92.8,253.6,92.8,253.6z"/>
		<path class="st5" d="M96.8,253.5c0,0-73.1-7.7-71.7-3.2C26.4,254.8,96.8,253.5,96.8,253.5z"/>
		<path class="st5" d="M110.3,257.6c0,0-73.1,7-70.9,11.1C41.5,272.8,110.3,257.6,110.3,257.6z"/>
		<path class="st5" d="M94.3,253.7c0,0-73.2,5.8-71.1,10C25.3,267.9,94.3,253.7,94.3,253.7z"/>
		<path class="st5" d="M110.5,233.7c0,0-72.5-11.8-71.5-7.2C40.1,230.9,110.5,233.7,110.5,233.7z"/>
		<path class="st5" d="M101.5,246.1c0,0-72.5-11.8-71.4-7.2C31.1,243.4,101.5,246.1,101.5,246.1z"/>
		<path class="st5" d="M139.2,243.1c0,0-65.1-34-65.5-29.3C73.2,218.4,139.2,243.1,139.2,243.1z"/>
		<path class="st4" d="M114.3,237.8c0,0-72.5-11.8-71.4-7.2C43.9,235.1,114.3,237.8,114.3,237.8z"/>
		<path class="st4" d="M90.1,250.8c0,0-73.5,0.4-71.7,4.7C20.2,259.8,90.1,250.8,90.1,250.8z"/>
		<path class="st4" d="M96.7,243.1c0,0-72.5-11.8-71.5-7.2C26.3,240.4,96.7,243.1,96.7,243.1z"/>
		<path class="st4" d="M132.1,258.7c0,0-73.2,5.8-71.1,10C63.1,272.9,132.1,258.7,132.1,258.7z"/>
		<path class="st5" d="M420.8,336.5c0,0-22.8,48.6-16.2,49.6C411.2,387.2,420.8,336.5,420.8,336.5z"/>
		<path class="st2" d="M417.1,344.3c0,0-49.1,21.7-44.8,26.8C376.6,376.2,417.1,344.3,417.1,344.3z"/>
		<path class="st4" d="M421.7,345.8c0,0-43.2,31.9-37.8,36C389.2,385.8,421.7,345.8,421.7,345.8z"/>
		<path class="st2" d="M357.9,263.3c0,0-76.6-6.5-75,3.7C284.6,277.2,357.9,263.3,357.9,263.3z"/>
		<path class="st2" d="M376.9,235.7c0,0-76.6-6.5-75,3.7C303.6,249.6,376.9,235.7,376.9,235.7z"/>
		<path class="st2" d="M382.7,274.8c0,0-75.6,28.5-73,37.7C312.2,321.8,382.7,274.8,382.7,274.8z"/>
		<path class="st2" d="M365,262.9c0,0-76.7,5.8-74.6,15.7C292.4,288.5,365,262.9,365,262.9z"/>
		<path class="st3" d="M378.1,284.1c0,0-76.6-6.5-75,3.7C304.9,298.1,378.1,284.1,378.1,284.1z"/>
		<path class="st3" d="M370.5,279.4c0,0-76.6-6.5-75,3.7C297.3,293.3,370.5,279.4,370.5,279.4z"/>
		<path class="st3" d="M365.9,255.6c0,0-76.6-6.5-75,3.7C292.6,269.5,365.9,255.6,365.9,255.6z"/>
		<path class="st4" d="M378.3,261.9c0,0-76.6-6.5-75,3.7C305.1,275.8,378.3,261.9,378.3,261.9z"/>
		<path class="st4" d="M368.2,269.8c0,0-75.7,27.5-73.1,36.8S368.2,269.8,368.2,269.8z"/>
		<path class="st5" d="M372.3,268.5c0,0-76.7,3.2-74.7,13.2C299.5,291.7,372.3,268.5,372.3,268.5z"/>
		<path class="st5" d="M369.8,269.8c0,0-75.1,34.5-72.4,43.6C300.2,322.4,369.8,269.8,369.8,269.8z"/>
		<path class="st5" d="M376.3,250c0,0-76.6-6.5-75,3.7C303,263.9,376.3,250,376.3,250z"/>
		<path class="st4" d="M365,264.2c0,0-76,22.1-73.6,31.6C293.8,305.3,365,264.2,365,264.2z"/>
		<path class="st4" d="M370.8,244.4c0,0-76.6-6.5-75,3.7C297.6,258.4,370.8,244.4,370.8,244.4z"/>
		<path class="st2" d="M310.4,265.6c0,0-76.6-6.5-75,3.7C237.1,279.6,310.4,265.6,310.4,265.6z"/>
		<path class="st2" d="M329.4,238c0,0-76.6-6.5-75,3.7C256.1,252,329.4,238,329.4,238z"/>
		<path class="st2" d="M335.2,277.1c0,0-75.6,28.5-73,37.7C264.7,324.1,335.2,277.1,335.2,277.1z"/>
		<path class="st2" d="M317.5,265.2c0,0-76.7,5.8-74.6,15.7C244.9,290.9,317.5,265.2,317.5,265.2z"/>
		<path class="st3" d="M330.6,286.5c0,0-76.6-6.5-75,3.7C257.4,300.4,330.6,286.5,330.6,286.5z"/>
		<path class="st3" d="M323,281.7c0,0-76.6-6.5-75,3.7C249.7,295.7,323,281.7,323,281.7z"/>
		<path class="st3" d="M318.4,257.9c0,0-76.6-6.5-75,3.7C245.1,271.8,318.4,257.9,318.4,257.9z"/>
		<path class="st4" d="M330.8,264.2c0,0-76.6-6.5-75,3.7C257.6,278.1,330.8,264.2,330.8,264.2z"/>
		<path class="st4" d="M320.7,272.2c0,0-75.7,27.5-73.1,36.8C250.1,318.3,320.7,272.2,320.7,272.2z"/>
		<path class="st5" d="M324.8,270.8c0,0-76.7,3.2-74.7,13.2C252,294.1,324.8,270.8,324.8,270.8z"/>
		<path class="st5" d="M322.3,272.2c0,0-75.1,34.5-72.4,43.6C252.6,324.8,322.3,272.2,322.3,272.2z"/>
		<path class="st5" d="M328.7,252.3c0,0-76.6-6.5-75,3.7C255.5,266.3,328.7,252.3,328.7,252.3z"/>
		<path class="st4" d="M317.5,266.5c0,0-76,22.1-73.6,31.6C246.3,307.6,317.5,266.5,317.5,266.5z"/>
		<path class="st4" d="M323.3,246.8c0,0-76.6-6.5-75,3.7C250.1,260.7,323.3,246.8,323.3,246.8z"/>
		<path class="st2" d="M387.9,267.5c0,0-76.6-6.5-75,3.7C314.6,281.5,387.9,267.5,387.9,267.5z"/>
		<path class="st2" d="M406.8,239.9c0,0-76.6-6.5-75,3.7C333.6,253.8,406.8,239.9,406.8,239.9z"/>
		<path class="st2" d="M412.6,279c0,0-75.6,28.5-73,37.7C342.2,326,412.6,279,412.6,279z"/>
		<path class="st2" d="M395,267.1c0,0-76.7,5.8-74.6,15.7C322.3,292.8,395,267.1,395,267.1z"/>
		<path class="st3" d="M408.1,288.4c0,0-76.6-6.5-75,3.7C334.8,302.3,408.1,288.4,408.1,288.4z"/>
		<path class="st3" d="M400.5,283.6c0,0-76.6-6.5-75,3.7C327.2,297.6,400.5,283.6,400.5,283.6z"/>
		<path class="st3" d="M395.8,259.8c0,0-76.6-6.5-75,3.7C322.6,273.7,395.8,259.8,395.8,259.8z"/>
		<path class="st4" d="M408.3,266.1c0,0-76.6-6.5-75,3.7C335,280,408.3,266.1,408.3,266.1z"/>
		<path class="st4" d="M398.2,274.1c0,0-75.7,27.5-73.1,36.8S398.2,274.1,398.2,274.1z"/>
		<path class="st5" d="M402.3,272.7c0,0-76.7,3.2-74.7,13.2C329.5,295.9,402.3,272.7,402.3,272.7z"/>
		<path class="st5" d="M399.8,274c0,0-75.1,34.5-72.4,43.6C330.1,326.6,399.8,274,399.8,274z"/>
		<path class="st5" d="M406.2,254.2c0,0-76.6-6.5-75,3.7C332.9,268.2,406.2,254.2,406.2,254.2z"/>
		<path class="st4" d="M395,268.4c0,0-76,22.1-73.6,31.6C323.8,309.5,395,268.4,395,268.4z"/>
		<path class="st4" d="M400.8,248.7c0,0-76.6-6.5-75,3.7C327.5,262.6,400.8,248.7,400.8,248.7z"/>
		<path class="st2" d="M419,270c0,0-76.6-6.5-75,3.7C345.7,283.9,419,270,419,270z"/>
		<path class="st2" d="M437.9,242.3c0,0-76.6-6.5-75,3.7C364.7,256.3,437.9,242.3,437.9,242.3z"/>
		<path class="st2" d="M443.8,281.4c0,0-75.6,28.5-73,37.7C373.3,328.4,443.8,281.4,443.8,281.4z"/>
		<path class="st2" d="M426.1,269.5c0,0-76.7,5.8-74.6,15.7C353.4,295.2,426.1,269.5,426.1,269.5z"/>
		<path class="st3" d="M439.2,290.8c0,0-76.6-6.5-75,3.7C365.9,304.8,439.2,290.8,439.2,290.8z"/>
		<path class="st3" d="M431.6,286.1c0,0-76.6-6.5-75,3.7C358.3,300,431.6,286.1,431.6,286.1z"/>
		<path class="st3" d="M427,262.2c0,0-76.6-6.5-75,3.7C353.7,276.2,427,262.2,427,262.2z"/>
		<path class="st4" d="M439.4,268.5c0,0-76.6-6.5-75,3.7C366.1,282.5,439.4,268.5,439.4,268.5z"/>
		<path class="st4" d="M429.3,276.5c0,0-75.7,27.5-73.1,36.8C358.7,322.6,429.3,276.5,429.3,276.5z"/>
		<path class="st5" d="M433.4,275.2c0,0-76.7,3.2-74.7,13.2C360.6,298.4,433.4,275.2,433.4,275.2z"/>
		<path class="st5" d="M430.9,276.5c0,0-75.1,34.5-72.4,43.6C361.2,329.1,430.9,276.5,430.9,276.5z"/>
		<path class="st5" d="M437.3,256.6c0,0-76.6-6.5-75,3.7C364,270.6,437.3,256.6,437.3,256.6z"/>
		<path class="st4" d="M426.1,270.9c0,0-76,22.1-73.6,31.6C354.9,311.9,426.1,270.9,426.1,270.9z"/>
		<path class="st4" d="M431.9,251.1c0,0-76.6-6.5-75,3.7C358.6,265.1,431.9,251.1,431.9,251.1z"/>
		<path class="st2" d="M339.7,308c0,0-76.6-6.5-75,3.7C266.5,321.9,339.7,308,339.7,308z"/>
		<path class="st2" d="M358.7,280.3c0,0-76.6-6.5-75,3.7C285.5,294.3,358.7,280.3,358.7,280.3z"/>
		<path class="st2" d="M364.6,319.5c0,0-75.6,28.5-73,37.7C294.1,366.4,364.6,319.5,364.6,319.5z"/>
		<path class="st2" d="M346.9,307.6c0,0-76.7,5.8-74.6,15.7C274.2,333.2,346.9,307.6,346.9,307.6z"/>
		<path class="st3" d="M360,328.8c0,0-76.6-6.5-75,3.7C286.7,342.8,360,328.8,360,328.8z"/>
		<path class="st3" d="M352.4,324.1c0,0-76.6-6.5-75,3.7C279.1,338,352.4,324.1,352.4,324.1z"/>
		<path class="st3" d="M347.7,300.2c0,0-76.6-6.5-75,3.7C274.5,314.2,347.7,300.2,347.7,300.2z"/>
		<path class="st4" d="M360.2,306.5c0,0-76.6-6.5-75,3.7S360.2,306.5,360.2,306.5z"/>
		<path class="st4" d="M350.1,314.5c0,0-75.7,27.5-73.1,36.8S350.1,314.5,350.1,314.5z"/>
		<path class="st5" d="M354.2,313.2c0,0-76.7,3.2-74.7,13.2C281.4,336.4,354.2,313.2,354.2,313.2z"/>
		<path class="st5" d="M351.7,314.5c0,0-75.1,34.5-72.4,43.6C282,367.1,351.7,314.5,351.7,314.5z"/>
		<path class="st5" d="M358.1,294.7c0,0-76.6-6.5-75,3.7C284.8,308.6,358.1,294.7,358.1,294.7z"/>
		<path class="st4" d="M346.9,308.9c0,0-76,22.1-73.6,31.6C275.7,349.9,346.9,308.9,346.9,308.9z"/>
		<path class="st4" d="M352.7,289.1c0,0-76.6-6.5-75,3.7C279.4,303.1,352.7,289.1,352.7,289.1z"/>
		<path class="st2" d="M260.5,264c0,0-76.6-6.5-75,3.7C187.2,278,260.5,264,260.5,264z"/>
		<path class="st2" d="M279.5,236.4c0,0-76.6-6.5-75,3.7C206.2,250.4,279.5,236.4,279.5,236.4z"/>
		<path class="st2" d="M285.3,275.5c0,0-75.6,28.5-73,37.7C214.8,322.5,285.3,275.5,285.3,275.5z"/>
		<path class="st2" d="M267.6,263.6c0,0-76.7,5.8-74.6,15.7C195,289.3,267.6,263.6,267.6,263.6z"/>
		<path class="st3" d="M280.7,284.9c0,0-76.6-6.5-75,3.7C207.5,298.8,280.7,284.9,280.7,284.9z"/>
		<path class="st3" d="M273.1,280.1c0,0-76.6-6.5-75,3.7C199.8,294.1,273.1,280.1,273.1,280.1z"/>
		<path class="st3" d="M268.5,256.3c0,0-76.6-6.5-75,3.7C195.2,270.3,268.5,256.3,268.5,256.3z"/>
		<path class="st4" d="M280.9,262.6c0,0-76.6-6.5-75,3.7C207.7,276.6,280.9,262.6,280.9,262.6z"/>
		<path class="st4" d="M270.8,270.6c0,0-75.7,27.5-73.1,36.8S270.8,270.6,270.8,270.6z"/>
		<path class="st5" d="M274.9,269.2c0,0-76.7,3.2-74.7,13.2C202.1,292.5,274.9,269.2,274.9,269.2z"/>
		<path class="st5" d="M272.4,270.6c0,0-75.1,34.5-72.4,43.6C202.7,323.2,272.4,270.6,272.4,270.6z"/>
		<path class="st5" d="M278.8,250.7c0,0-76.6-6.5-75,3.7C205.6,264.7,278.8,250.7,278.8,250.7z"/>
		<path class="st4" d="M267.6,265c0,0-76,22.1-73.6,31.6C196.4,306,267.6,265,267.6,265z"/>
		<path class="st4" d="M273.4,245.2c0,0-76.6-6.5-75,3.7C200.2,259.1,273.4,245.2,273.4,245.2z"/>
		<path class="st2" d="M450.8,257c0,0-39.2-3.3-38.4,1.9C413.3,264.1,450.8,257,450.8,257z"/>
		<path class="st2" d="M460.5,242.9c0,0-39.2-3.3-38.4,1.9C423,250,460.5,242.9,460.5,242.9z"/>
		<path class="st2" d="M463.5,262.9c0,0-38.7,14.6-37.4,19.3C427.4,286.9,463.5,262.9,463.5,262.9z"/>
		<path class="st2" d="M454.4,256.8c0,0-39.2,3-38.2,8.1C417.3,269.9,454.4,256.8,454.4,256.8z"/>
		<path class="st3" d="M461.1,267.7c0,0-39.2-3.3-38.4,1.9C423.6,274.8,461.1,267.7,461.1,267.7z"/>
		<path class="st3" d="M457.2,265.2c0,0-39.2-3.3-38.4,1.9C419.7,272.4,457.2,265.2,457.2,265.2z"/>
		<path class="st3" d="M454.9,253c0,0-39.2-3.3-38.4,1.9C417.4,260.2,454.9,253,454.9,253z"/>
		<path class="st4" d="M461.3,256.3c0,0-39.2-3.3-38.4,1.9C423.7,263.4,461.3,256.3,461.3,256.3z"/>
		<path class="st4" d="M456.1,260.4c0,0-38.7,14.1-37.4,18.8C419.9,284,456.1,260.4,456.1,260.4z"/>
		<path class="st5" d="M458.2,259.7c0,0-39.3,1.7-38.3,6.8C420.9,271.6,458.2,259.7,458.2,259.7z"/>
		<path class="st5" d="M456.9,260.4c0,0-38.5,17.7-37.1,22.3C421.2,287.3,456.9,260.4,456.9,260.4z"/>
		<path class="st5" d="M460.2,250.2c0,0-39.2-3.3-38.4,1.9C422.7,257.3,460.2,250.2,460.2,250.2z"/>
		<path class="st4" d="M454.4,257.5c0,0-38.9,11.3-37.7,16.2C418,278.5,454.4,257.5,454.4,257.5z"/>
		<path class="st4" d="M457.4,247.3c0,0-39.2-3.3-38.4,1.9C419.9,254.5,457.4,247.3,457.4,247.3z"/>
		<path class="st2" d="M485.3,243.9c0,0-39,5.2-37.1,10.1C450.2,259,485.3,243.9,485.3,243.9z"/>
		<path class="st2" d="M491.7,228c0,0-39,5.2-37.1,10.1C456.6,243.1,491.7,228,491.7,228z"/>
		<path class="st2" d="M498.9,246.9c0,0-34.7,22.6-32.3,26.9C468.9,278.2,498.9,246.9,498.9,246.9z"/>
		<path class="st2" d="M488.8,242.9c0,0-37.7,11.4-35.6,16.1C455.3,263.8,488.8,242.9,488.8,242.9z"/>
		<path class="st3" d="M497.7,252.1c0,0-39,5.2-37.1,10.1C462.6,267.2,497.7,252.1,497.7,252.1z"/>
		<path class="st3" d="M493.4,250.6c0,0-39,5.2-37.1,10.1C458.3,265.6,493.4,250.6,493.4,250.6z"/>
		<path class="st3" d="M488.4,239.2c0,0-39,5.2-37.1,10.1C453.3,254.2,488.4,239.2,488.4,239.2z"/>
		<path class="st4" d="M495.3,241c0,0-39,5.2-37.1,10.1C460.3,256,495.3,241,495.3,241z"/>
		<path class="st4" d="M491.2,246.1c0,0-34.8,22.1-32.5,26.5C461,276.9,491.2,246.1,491.2,246.1z"/>
		<path class="st5" d="M493.1,244.9c0,0-38,10.1-35.9,14.9C459.2,264.6,493.1,244.9,493.1,244.9z"/>
		<path class="st5" d="M492,245.9c0,0-33.7,25.5-31.4,29.8C462.9,279.8,492,245.9,492,245.9z"/>
		<path class="st5" d="M493,235.2c0,0-39,5.2-37.1,10.1S493,235.2,493,235.2z"/>
		<path class="st4" d="M488.9,243.6c0,0-35.6,19.4-33.3,23.9C457.9,272,488.9,243.6,488.9,243.6z"/>
		<path class="st4" d="M489.7,233.1c0,0-39,5.2-37.1,10.1C454.6,248.1,489.7,233.1,489.7,233.1z"/>
		<path class="st2" d="M499,204.1c0,0-31.6,23.5-27.5,26.8C475.7,234.3,499,204.1,499,204.1z"/>
		<path class="st2" d="M497,187c0,0-31.6,23.5-27.5,26.8C473.6,217.2,497,187,497,187z"/>
		<path class="st2" d="M512.5,200c0,0-19.3,36.6-15.2,39.2C501.4,242,512.5,200,512.5,200z"/>
		<path class="st2" d="M501.6,201.5c0,0-27.4,28.2-23.3,31.3C482.5,236,501.6,201.5,501.6,201.5z"/>
		<path class="st3" d="M513.9,205.2c0,0-31.6,23.5-27.5,26.8C490.5,235.4,513.9,205.2,513.9,205.2z"/>
		<path class="st3" d="M509.3,206c0,0-31.6,23.5-27.5,26.8C486,236.2,509.3,206,509.3,206z"/>
		<path class="st3" d="M499.5,198.4c0,0-31.6,23.5-27.5,26.8C476.1,228.6,499.5,198.4,499.5,198.4z"/>
		<path class="st4" d="M506.4,196.6c0,0-31.6,23.5-27.5,26.8C483,226.8,506.4,196.6,506.4,196.6z"/>
		<path class="st4" d="M505.2,203.1c0,0-19.7,36.2-15.6,38.9C493.8,244.7,505.2,203.1,505.2,203.1z"/>
		<path class="st5" d="M506.3,201.2c0,0-28.3,27.2-24.2,30.4S506.3,201.2,506.3,201.2z"/>
		<path class="st5" d="M505.8,202.5c0,0-17.1,38.7-13,41.2C496.9,246.3,505.8,202.5,505.8,202.5z"/>
		<path class="st5" d="M501.6,192.7c0,0-31.6,23.5-27.5,26.8C478.2,222.9,501.6,192.7,501.6,192.7z"/>
		<path class="st4" d="M502.1,202c0,0-21.7,34.3-17.5,37.1C488.7,241.9,502.1,202,502.1,202z"/>
		<path class="st4" d="M497.6,192.4c0,0-31.6,23.5-27.5,26.8C474.3,222.6,497.6,192.4,497.6,192.4z"/>
		<path class="st2" d="M519.3,173c0,0-32.5,22.2-28.6,25.7C494.7,202.2,519.3,173,519.3,173z"/>
		<path class="st2" d="M517.9,155.9c0,0-32.5,22.2-28.6,25.7S517.9,155.9,517.9,155.9z"/>
		<path class="st2" d="M532.9,169.5c0,0-20.8,35.7-16.8,38.6C520,211,532.9,169.5,532.9,169.5z"/>
		<path class="st2" d="M522,170.5c0,0-28.6,27.1-24.6,30.4C501.4,204.2,522,170.5,522,170.5z"/>
		<path class="st3" d="M534.1,174.7c0,0-32.5,22.2-28.6,25.7C509.5,203.9,534.1,174.7,534.1,174.7z"/>
		<path class="st3" d="M529.5,175.3c0,0-32.5,22.2-28.6,25.7C504.9,204.5,529.5,175.3,529.5,175.3z"/>
		<path class="st3" d="M520,167.3c0,0-32.5,22.2-28.6,25.7C495.4,196.6,520,167.3,520,167.3z"/>
		<path class="st4" d="M526.9,165.8c0,0-32.5,22.2-28.6,25.7C502.3,195,526.9,165.8,526.9,165.8z"/>
		<path class="st4" d="M525.5,172.3c0,0-21.2,35.4-17.2,38.2C512.4,213.4,525.5,172.3,525.5,172.3z"/>
		<path class="st5" d="M526.7,170.4c0,0-29.4,26-25.4,29.4C505.3,203.2,526.7,170.4,526.7,170.4z"/>
		<path class="st5" d="M526.1,171.7c0,0-18.7,38-14.7,40.7C515.4,215.1,526.1,171.7,526.1,171.7z"/>
		<path class="st5" d="M522.3,161.8c0,0-32.5,22.2-28.6,25.7C497.7,191,522.3,161.8,522.3,161.8z"/>
		<path class="st4" d="M522.4,171c0,0-23.1,33.3-19,36.3C507.4,210.3,522.4,171,522.4,171z"/>
		<path class="st4" d="M518.3,161.3c0,0-32.5,22.2-28.6,25.7C493.7,190.5,518.3,161.3,518.3,161.3z"/>
		<path class="st2" d="M535.2,176.8c0,0-34.6,23.6-32.3,28.5C505.3,210.2,535.2,176.8,535.2,176.8z"/>
		<path class="st4" d="M527.4,175.6c0,0-34.8,23.1-32.5,27.9C497.3,208.4,527.4,175.6,527.4,175.6z"/>
		<path class="st5" d="M528.2,175.4c0,0-33.7,26.9-31.3,31.6C499.3,211.8,528.2,175.4,528.2,175.4z"/>
		<path class="st2" d="M189.7,263c0,0-39.2-3.3-38.4,1.9C152.2,270.1,189.7,263,189.7,263z"/>
		<path class="st2" d="M199.4,248.8c0,0-39.2-3.3-38.4,1.9C161.9,256,199.4,248.8,199.4,248.8z"/>
		<path class="st2" d="M202.4,268.9c0,0-38.7,14.6-37.4,19.3C166.3,292.9,202.4,268.9,202.4,268.9z"/>
		<path class="st2" d="M193.3,262.8c0,0-39.2,3-38.2,8.1C156.1,275.9,193.3,262.8,193.3,262.8z"/>
		<path class="st3" d="M200,273.7c0,0-39.2-3.3-38.4,1.9S200,273.7,200,273.7z"/>
		<path class="st3" d="M196.1,271.2c0,0-39.2-3.3-38.4,1.9S196.1,271.2,196.1,271.2z"/>
		<path class="st3" d="M193.8,259c0,0-39.2-3.3-38.4,1.9S193.8,259,193.8,259z"/>
		<path class="st4" d="M200.1,262.2c0,0-39.2-3.3-38.4,1.9C162.6,269.4,200.1,262.2,200.1,262.2z"/>
		<path class="st4" d="M195,266.3c0,0-38.7,14.1-37.4,18.8C158.8,289.9,195,266.3,195,266.3z"/>
		<path class="st5" d="M197.1,265.7c0,0-39.3,1.7-38.3,6.8C159.8,277.5,197.1,265.7,197.1,265.7z"/>
		<path class="st5" d="M195.8,266.3c0,0-38.5,17.7-37.1,22.3C160.1,293.2,195.8,266.3,195.8,266.3z"/>
		<path class="st5" d="M199.1,256.2c0,0-39.2-3.3-38.4,1.9C161.6,263.3,199.1,256.2,199.1,256.2z"/>
		<path class="st4" d="M193.3,263.5c0,0-38.9,11.3-37.7,16.2C156.9,284.4,193.3,263.5,193.3,263.5z"/>
		<path class="st4" d="M196.3,253.3c0,0-39.2-3.3-38.4,1.9C158.8,260.5,196.3,253.3,196.3,253.3z"/>
		<path class="st2" d="M209.6,271.3c0,0-39.2-3.3-38.4,1.9C172.1,278.5,209.6,271.3,209.6,271.3z"/>
		<path class="st2" d="M219.4,257.2c0,0-39.2-3.3-38.4,1.9C181.8,264.3,219.4,257.2,219.4,257.2z"/>
		<path class="st2" d="M222.3,277.2c0,0-38.7,14.6-37.4,19.3C186.3,301.3,222.3,277.2,222.3,277.2z"/>
		<path class="st2" d="M213.3,271.1c0,0-39.2,3-38.2,8.1C176.1,284.3,213.3,271.1,213.3,271.1z"/>
		<path class="st3" d="M220,282c0,0-39.2-3.3-38.4,1.9C182.5,289.1,220,282,220,282z"/>
		<path class="st3" d="M216.1,279.6c0,0-39.2-3.3-38.4,1.9C178.6,286.7,216.1,279.6,216.1,279.6z"/>
		<path class="st3" d="M213.7,267.4c0,0-39.2-3.3-38.4,1.9C176.2,274.5,213.7,267.4,213.7,267.4z"/>
		<path class="st4" d="M220.1,270.6c0,0-39.2-3.3-38.4,1.9C182.6,277.7,220.1,270.6,220.1,270.6z"/>
		<path class="st4" d="M214.9,274.7c0,0-38.7,14.1-37.4,18.8C178.8,298.3,214.9,274.7,214.9,274.7z"/>
		<path class="st5" d="M217,274c0,0-39.3,1.7-38.3,6.8C179.8,285.9,217,274,217,274z"/>
		<path class="st5" d="M215.7,274.7c0,0-38.5,17.7-37.1,22.3C180.1,301.6,215.7,274.7,215.7,274.7z"/>
		<path class="st5" d="M219,264.5c0,0-39.2-3.3-38.4,1.9C181.5,271.7,219,264.5,219,264.5z"/>
		<path class="st4" d="M213.3,271.8c0,0-38.9,11.3-37.7,16.2C176.8,292.8,213.3,271.8,213.3,271.8z"/>
		<path class="st4" d="M216.3,261.7c0,0-39.2-3.3-38.4,1.9C178.7,268.8,216.3,261.7,216.3,261.7z"/>
		<path class="st2" d="M154.3,254.8c0,0-39.2-3.3-38.4,1.9C116.8,261.9,154.3,254.8,154.3,254.8z"/>
		<path class="st2" d="M164,240.6c0,0-39.2-3.3-38.4,1.9C126.5,247.8,164,240.6,164,240.6z"/>
		<path class="st2" d="M167,260.7c0,0-38.7,14.6-37.4,19.3C130.9,284.7,167,260.7,167,260.7z"/>
		<path class="st2" d="M157.9,254.6c0,0-39.2,3-38.2,8.1C120.8,267.7,157.9,254.6,157.9,254.6z"/>
		<path class="st3" d="M164.7,265.4c0,0-39.2-3.3-38.4,1.9C127.1,272.6,164.7,265.4,164.7,265.4z"/>
		<path class="st3" d="M160.7,263c0,0-39.2-3.3-38.4,1.9S160.7,263,160.7,263z"/>
		<path class="st3" d="M158.4,250.8c0,0-39.2-3.3-38.4,1.9C120.9,258,158.4,250.8,158.4,250.8z"/>
		<path class="st4" d="M164.8,254c0,0-39.2-3.3-38.4,1.9C127.3,261.2,164.8,254,164.8,254z"/>
		<path class="st4" d="M159.6,258.1c0,0-38.7,14.1-37.4,18.8C123.5,281.7,159.6,258.1,159.6,258.1z"/>
		<path class="st5" d="M161.7,257.4c0,0-39.3,1.7-38.3,6.8C124.4,269.3,161.7,257.4,161.7,257.4z"/>
		<path class="st5" d="M160.4,258.1c0,0-38.5,17.7-37.1,22.3C124.7,285.1,160.4,258.1,160.4,258.1z"/>
		<path class="st5" d="M163.7,248c0,0-39.2-3.3-38.4,1.9C126.2,255.1,163.7,248,163.7,248z"/>
		<path class="st4" d="M158,255.2c0,0-38.9,11.3-37.7,16.2C121.5,276.2,158,255.2,158,255.2z"/>
		<path class="st4" d="M160.9,245.1c0,0-39.2-3.3-38.4,1.9C123.4,252.3,160.9,245.1,160.9,245.1z"/>
		<path class="st2" d="M273.3,333.4c0,0-39.2-3.3-38.4,1.9C235.8,340.6,273.3,333.4,273.3,333.4z"/>
		<path class="st2" d="M283.1,319.3c0,0-39.2-3.3-38.4,1.9C245.6,326.4,283.1,319.3,283.1,319.3z"/>
		<path class="st2" d="M286,339.3c0,0-38.7,14.6-37.4,19.3C250,363.4,286,339.3,286,339.3z"/>
		<path class="st2" d="M277,333.2c0,0-39.2,3-38.2,8.1C239.8,346.3,277,333.2,277,333.2z"/>
		<path class="st3" d="M283.7,344.1c0,0-39.2-3.3-38.4,1.9C246.2,351.2,283.7,344.1,283.7,344.1z"/>
		<path class="st3" d="M279.8,341.7c0,0-39.2-3.3-38.4,1.9C242.3,348.8,279.8,341.7,279.8,341.7z"/>
		<path class="st3" d="M277.4,329.5c0,0-39.2-3.3-38.4,1.9C239.9,336.6,277.4,329.5,277.4,329.5z"/>
		<path class="st4" d="M283.8,332.7c0,0-39.2-3.3-38.4,1.9C246.3,339.8,283.8,332.7,283.8,332.7z"/>
		<path class="st4" d="M278.6,336.8c0,0-38.7,14.1-37.4,18.8C242.5,360.4,278.6,336.8,278.6,336.8z"/>
		<path class="st5" d="M280.7,336.1c0,0-39.3,1.7-38.3,6.8C243.5,348,280.7,336.1,280.7,336.1z"/>
		<path class="st5" d="M279.4,336.8c0,0-38.5,17.7-37.1,22.3C243.8,363.7,279.4,336.8,279.4,336.8z"/>
		<path class="st5" d="M282.7,326.6c0,0-39.2-3.3-38.4,1.9C245.2,333.8,282.7,326.6,282.7,326.6z"/>
		<path class="st4" d="M277,333.9c0,0-38.9,11.3-37.7,16.2C240.5,354.9,277,333.9,277,333.9z"/>
		<path class="st4" d="M280,323.8c0,0-39.2-3.3-38.4,1.9C242.5,330.9,280,323.8,280,323.8z"/>
		<path class="st2" d="M312.3,345.5c0,0-27.2,28.4-22.6,31.1C294.3,379.2,312.3,345.5,312.3,345.5z"/>
		<path class="st2" d="M307.4,329.1c0,0-27.2,28.4-22.6,31.1C289.4,362.8,307.4,329.1,307.4,329.1z"/>
		<path class="st2" d="M324.9,339.4c0,0-13,39.3-8.5,41.2C320.9,382.5,324.9,339.4,324.9,339.4z"/>
		<path class="st2" d="M314.4,342.6c0,0-22.3,32.4-17.7,34.8C301.3,379.8,314.4,342.6,314.4,342.6z"/>
		<path class="st3" d="M327.1,344.2c0,0-27.2,28.4-22.6,31.1C309.1,377.9,327.1,344.2,327.1,344.2z"/>
		<path class="st3" d="M322.8,345.7c0,0-27.2,28.4-22.6,31.1C304.8,379.4,322.8,345.7,322.8,345.7z"/>
		<path class="st3" d="M311.8,339.9c0,0-27.2,28.4-22.6,31.1C293.8,373.6,311.8,339.9,311.8,339.9z"/>
		<path class="st4" d="M318.3,336.9c0,0-27.2,28.4-22.6,31.1C300.3,370.6,318.3,336.9,318.3,336.9z"/>
		<path class="st4" d="M318.2,343.5c0,0-13.4,39-8.9,41C313.9,386.5,318.2,343.5,318.2,343.5z"/>
		<path class="st5" d="M319,341.5c0,0-23.4,31.6-18.7,34C304.9,377.9,319,341.5,319,341.5z"/>
		<path class="st5" d="M318.8,342.9c0,0-10.4,41-5.9,42.8C317.3,387.6,318.8,342.9,318.8,342.9z"/>
		<path class="st5" d="M312.9,334c0,0-27.2,28.4-22.6,31.1C294.9,367.6,312.9,334,312.9,334z"/>
		<path class="st2" d="M548.9,160.1c0,0-32.4,29.1-33.9,21.9S548.9,160.1,548.9,160.1z"/>
		<path class="st4" d="M315,343c0,0-15.6,37.4-11.1,39.5C308.4,384.6,315,343,315,343z"/>
		<path class="st4" d="M309,334.3c0,0-27.2,28.4-22.6,31.1C291,368,309,334.3,309,334.3z"/>
		<path class="st2" d="M534.5,148.5c0,0-32.4,29.1-33.9,21.9C499.1,163.4,534.5,148.5,534.5,148.5z"/>
		<path class="st2" d="M543,133.1c0,0-39.6,6.3-40.4-0.5C501.7,125.8,543,133.1,543,133.1z"/>
		<path class="st2" d="M537.7,146.5c0,0-35.1,21.2-36.4,14.1C500.1,153.6,537.7,146.5,537.7,146.5z"/>
		<path class="st3" d="M538.9,128.6c0,0-32.4,29.1-33.9,21.9C503.5,143.4,538.9,128.6,538.9,128.6z"/>
		<path class="st3" d="M536.6,134.1c0,0-32.4,29.1-33.9,21.9C501.2,149,536.6,134.1,536.6,134.1z"/>
		<path class="st3" d="M539.7,150.9c0,0-32.4,29.1-33.9,21.9C504.3,165.7,539.7,150.9,539.7,150.9z"/>
		<path class="st4" d="M543.8,142.8c0,0-32.4,29.1-33.9,21.9C508.4,157.7,543.8,142.8,543.8,142.8z"/>
		<path class="st4" d="M537.6,141c0,0-39.4,6.9-40.3,0.1S537.6,141,537.6,141z"/>
		<path class="st5" d="M539.7,140.5c0,0-34.6,22.8-35.9,15.8C502.6,149.3,539.7,140.5,539.7,140.5z"/>
		<path class="st5" d="M538.3,140.5c0,0-40.6,2.3-41.4-4.4C496.2,129.3,538.3,140.5,538.3,140.5z"/>
		<path class="st5" d="M545.5,151.1c0,0-32.4,29.1-33.9,21.9S545.5,151.1,545.5,151.1z"/>
		<path class="st4" d="M537.4,145.7c0,0-38.4,10.5-39.4,3.6C497.1,142.4,537.4,145.7,537.4,145.7z"/>
		<path class="st4" d="M544.3,156.4c0,0-32.4,29.1-33.9,21.9C508.9,171.3,544.3,156.4,544.3,156.4z"/>
	</g>
	<path class="st6" d="M408.6,303.6"/>
	<path class="st6" d="M538.8,128.6l-4.7,53c0,0,22.4-2.8,28.1,3.4c0,0,15.8,7.9,15.8,3l-0.2,0c0.3-2.3-2.7-4.6-2.7-4.6l-3.5-2
		c-1.5-0.7-2.3-1.3-2.3-1.4l0.3-0.4l2.3,1.3c2.2,1.1,6,2.6,10.5,2.7v0.2c3.1-0.1,5.6-1.7,5.6-6.6
		C587.8,133.7,538.8,128.6,538.8,128.6z"/>
	<circle class="st7" cx="559.4" cy="152.2" r="7.4"/>
</g>
</svg>
