<?xml version="1.0" encoding="utf-8"?>
<!-- Generator: Adobe Illustrator 23.0.3, SVG Export Plug-In . SVG Version: 6.00 Build 0)  -->
<svg version="1.0" id="Layer_1" xmlns="http://www.w3.org/2000/svg" xmlns:xlink="http://www.w3.org/1999/xlink" x="0px" y="0px"
	 viewBox="0 0 400 400" style="enable-background:new 0 0 400 400;" xml:space="preserve">
<style type="text/css">
	.st0{fill:#B1DCBF;}
	.st1{fill:#F9F6C4;}
	.st2{fill:#A9DAF5;}
	.st3{fill:#A2D9D3;}
	.st4{fill:#D8ACD0;}
	.st5{fill:#F3F2AB;}
	.st6{fill:#FCE790;}
	.st7{fill:#010101;}
</style>
<g id="A-khaan">
	<path class="st0" d="M317.65,116.13c0,0,24.27,2.67,19.41,21.89c-4.01,3.35-8.59,5.06-8.59,5.06s-14.05-6.47-20.52,5.66
		c-6.47,12.13-16.99,39.96-38.02,42.23c-4.04,10.31-16.18,11.05-16.18,11.05s11.32,11.44,8.9,26.8c-1.3,8.22-2.83,5.1-3.97,0.42
		c-0.99-4.07-1.69-9.31-1.69-9.31l-3.24,21.03l-2.43-14.15l-6.47,9.71c0,0-16.99-23.05-26.69-22.24c0,0-10.11,6.47-17.39,5.26
		c-7.28-1.21-28.71-17.79-28.71-21.03c-6.47,1.21-49.74-10.92-54.19-17.79c-4.85,0.81-41.25,2.02-51.36-6.88
		c13.35-8.49,24.27-7.28,35.59-7.28c8.9,1.62,23.05,6.47,23.05,6.47s29.12,6.07,49.74-0.81s51.77-5.26,51.77-5.26l42.46,4.45
		c0,0,20.63-0.81,25.48-20.22S302.28,121.46,317.65,116.13z"/>
	<g>
		<path class="st0" d="M219.88,212.63c0,0-8.3,21.84-14.85,24.27s-9.73,24.27-9.73,24.27l7.19,14.15c0,0,11.28,4.11,12.94,5.26
			c0.66,0.45-14.96-1.62-14.96-1.62l9.71,5.26l-16.31-2.83c0,0-4.76-17.3-6.78-20.13s-0.05-13.84,8.44-26.38
			c-2.02-9.3,3.33-22.24,3.33-22.24H219.88z"/>
		<polygon class="st1" points="208.33,277.48 205.03,279.68 216.61,280.81 		"/>
		<polygon class="st1" points="202.21,279.9 198.52,282.26 210.17,284.21 		"/>
	</g>
	<g>
		<path class="st0" d="M200.42,221.67c0,0-21.93,8.05-28.06,4.69s-24.71,8.55-24.71,8.55l-5.98,14.71c0,0,4.28,11.21,4.51,13.22
			c0.09,0.8-8.59-12.36-8.59-12.36l2.39,10.78l-8.55-14.17c0,0,9.94-14.94,10.76-18.32c0.81-3.38,10.42-9.11,25.45-10.92
			c5.7-7.62,18.98-12.06,18.98-12.06L200.42,221.67z"/>
		<polygon class="st1" points="143.87,255.45 140.05,254.4 146.79,263.89 		"/>
		<polygon class="st1" points="138.03,252.42 133.83,251.18 139.99,261.25 		"/>
	</g>
	<g id="feathers">
		<path class="st2" d="M259.74,217.59c0,0-24.1,10.66-21.97,13.16S259.74,217.59,259.74,217.59z"/>
		<path class="st2" d="M252.97,216.44c0,0-24.1,10.66-21.97,13.16C233.12,232.1,252.97,216.44,252.97,216.44z"/>
		<path class="st2" d="M244.43,208.42c0,0-24.1,10.66-21.97,13.16C224.58,224.08,244.43,208.42,244.43,208.42z"/>
		<path class="st2" d="M251.36,206.48c0,0-24.1,10.66-21.97,13.16C231.51,222.14,251.36,206.48,251.36,206.48z"/>
		<path class="st2" d="M256.58,208.42c0,0-24.1,10.66-21.97,13.16S256.58,208.42,256.58,208.42z"/>
		<path class="st2" d="M241.92,204.16c0,0-24.1,10.66-21.97,13.16C222.07,219.82,241.92,204.16,241.92,204.16z"/>
		<path class="st3" d="M259.74,218.16c0,0-24.1,10.66-21.97,13.16S259.74,218.16,259.74,218.16z"/>
		<path class="st3" d="M257.59,214.68c0,0-24.1,10.66-21.97,13.16S257.59,214.68,257.59,214.68z"/>
		<path class="st3" d="M255.49,211.16c0,0-24.1,10.66-21.97,13.16C235.64,226.82,255.49,211.16,255.49,211.16z"/>
		<path class="st3" d="M261.8,221.71c0,0-24.1,10.66-21.97,13.16C241.95,237.37,261.8,221.71,261.8,221.71z"/>
		<path class="st3" d="M253.38,207.65c0,0-24.1,10.66-21.97,13.16S253.38,207.65,253.38,207.65z"/>
		<path class="st3" d="M250.3,204.72c0,0-24.1,10.66-21.97,13.16C230.45,220.38,250.3,204.72,250.3,204.72z"/>
		<path class="st4" d="M248.64,213.2c0,0-24.1,10.66-21.97,13.16C228.79,228.85,248.64,213.2,248.64,213.2z"/>
		<path class="st4" d="M250.8,207.84c0,0-24.1,10.66-21.97,13.16C230.95,223.5,250.8,207.84,250.8,207.84z"/>
		<path class="st5" d="M261.85,217.88c0,0-24.1,10.66-21.97,13.16C242,233.54,261.85,217.88,261.85,217.88z"/>
		<path class="st5" d="M259.7,214.39c0,0-24.1,10.66-21.97,13.16C239.85,230.05,259.7,214.39,259.7,214.39z"/>
		<path class="st5" d="M257.59,210.88c0,0-24.1,10.66-21.97,13.16S257.59,210.88,257.59,210.88z"/>
		<path class="st5" d="M263.91,221.42c0,0-24.1,10.66-21.97,13.16S263.91,221.42,263.91,221.42z"/>
		<path class="st5" d="M255.49,207.36c0,0-24.1,10.66-21.97,13.16S255.49,207.36,255.49,207.36z"/>
		<path class="st5" d="M246.54,204.43c0,0-24.1,10.66-21.97,13.16S246.54,204.43,246.54,204.43z"/>
		<path class="st4" d="M244.43,207.68c0,0-24.1,10.66-21.97,13.16C224.58,223.34,244.43,207.68,244.43,207.68z"/>
		<path class="st4" d="M257.78,217.29c0,0-23.48,11.96-21.22,14.34S257.78,217.29,257.78,217.29z"/>
		<path class="st4" d="M247.46,204.16c0,0-24.1,10.66-21.97,13.16S247.46,204.16,247.46,204.16z"/>
		<path class="st4" d="M259.87,221.78c0,0-24.97,8.42-23.08,11.1C238.68,235.57,259.87,221.78,259.87,221.78z"/>
		<path class="st2" d="M94.17,175.49c0,0-35.57-5.78-35.06-3.55C59.64,174.17,94.17,175.49,94.17,175.49z"/>
		<path class="st2" d="M110.95,170.28c0,0-35.14-11.59-35.05-8.85S110.95,170.28,110.95,170.28z"/>
		<path class="st2" d="M103.74,170.83c0,0-35.57-5.78-35.05-3.55C69.21,169.5,103.74,170.83,103.74,170.83z"/>
		<path class="st2" d="M114.07,170.83c0,0-33.1-14.26-33.14-11.97C80.89,161.15,114.07,170.83,114.07,170.83z"/>
		<path class="st2" d="M105.44,179.31c0,0-36.01,1.57-35.05,3.65C71.36,185.04,105.44,179.31,105.44,179.31z"/>
		<path class="st2" d="M97.5,175.81c0,0-35.9-3.22-35.22-1.03C62.96,176.97,97.5,175.81,97.5,175.81z"/>
		<path class="st3" d="M107.5,173.08c0,0-35.57-5.78-35.06-3.55C72.97,171.76,107.5,173.08,107.5,173.08z"/>
		<path class="st3" d="M103.07,181c0,0-35.57-5.78-35.05-3.55C68.53,179.68,103.07,181,103.07,181z"/>
		<path class="st3" d="M99.64,179.57c0,0-35.57-5.78-35.05-3.55C65.1,178.25,99.64,179.57,99.64,179.57z"/>
		<path class="st3" d="M118.37,171.05c0,0-33.15-14.13-33.18-11.84C85.15,161.5,118.37,171.05,118.37,171.05z"/>
		<path class="st3" d="M111.7,171.74c0,0-35.57-5.78-35.05-3.55S111.7,171.74,111.7,171.74z"/>
		<path class="st3" d="M98.1,174.34c0,0-35.57-5.78-35.05-3.55C63.56,173.02,98.1,174.34,98.1,174.34z"/>
		<path class="st4" d="M103.74,176.37c0,0-35.57-5.78-35.05-3.55C69.21,175.05,103.74,176.37,103.74,176.37z"/>
		<path class="st4" d="M98.82,177.45c0,0-36.02,1.36-35.07,3.44C64.7,182.98,98.82,177.45,98.82,177.45z"/>
		<path class="st5" d="M100.77,177.41c0,0-35.85-3.76-35.2-1.56C66.22,178.04,100.77,177.41,100.77,177.41z"/>
		<path class="st5" d="M107.39,179.41c0,0-35.88,3.44-34.81,5.46C73.65,186.9,107.39,179.41,107.39,179.41z"/>
		<path class="st5" d="M99.57,177.54c0,0-35.93,2.85-34.89,4.9C65.71,184.48,99.57,177.54,99.57,177.54z"/>
		<path class="st5" d="M107.5,167.68c0,0-35.57-5.78-35.06-3.55C72.97,166.35,107.5,167.68,107.5,167.68z"/>
		<path class="st5" d="M103.07,173.77c0,0-35.57-5.78-35.05-3.55C68.53,172.45,103.07,173.77,103.07,173.77z"/>
		<path class="st5" d="M121.58,172.31c0,0-31.95-16.67-32.16-14.39C89.21,160.19,121.58,172.31,121.58,172.31z"/>
		<path class="st4" d="M109.36,169.71c0,0-35.57-5.78-35.05-3.55C74.82,168.39,109.36,169.71,109.36,169.71z"/>
		<path class="st4" d="M97.47,176.09c0,0-36.04,0.22-35.16,2.33C63.2,180.53,97.47,176.09,97.47,176.09z"/>
		<path class="st4" d="M100.7,172.31c0,0-35.57-5.78-35.06-3.55C66.16,170.98,100.7,172.31,100.7,172.31z"/>
		<path class="st4" d="M118.08,179.98c0,0-35.93,2.86-34.89,4.9S118.08,179.98,118.08,179.98z"/>
		<path class="st5" d="M259.76,218.16c0,0-11.2,23.85-7.95,24.35C255.05,243,259.76,218.16,259.76,218.16z"/>
		<path class="st2" d="M257.91,221.95c0,0-24.1,10.66-21.97,13.16C238.06,237.6,257.91,221.95,257.91,221.95z"/>
		<path class="st4" d="M260.2,222.71c0,0-21.19,15.66-18.57,17.64C244.25,242.32,260.2,222.71,260.2,222.71z"/>
		<path class="st2" d="M228.89,182.22c0,0-37.6-3.19-36.78,1.83C192.94,189.07,228.89,182.22,228.89,182.22z"/>
		<path class="st2" d="M238.21,168.66c0,0-37.6-3.19-36.78,1.83C202.26,175.51,238.21,168.66,238.21,168.66z"/>
		<path class="st2" d="M241.06,187.85c0,0-37.11,13.97-35.84,18.52C206.48,210.91,241.06,187.85,241.06,187.85z"/>
		<path class="st2" d="M232.38,182.02c0,0-37.61,2.85-36.62,7.72S232.38,182.02,232.38,182.02z"/>
		<path class="st3" d="M238.82,192.44c0,0-37.6-3.19-36.78,1.83C202.87,199.29,238.82,192.44,238.82,192.44z"/>
		<path class="st3" d="M235.08,190.12c0,0-37.6-3.19-36.78,1.83C199.13,196.97,235.08,190.12,235.08,190.12z"/>
		<path class="st3" d="M232.81,178.43c0,0-37.6-3.19-36.78,1.83C196.86,185.28,232.81,178.43,232.81,178.43z"/>
		<path class="st4" d="M238.92,181.52c0,0-37.6-3.19-36.78,1.83C202.97,188.37,238.92,181.52,238.92,181.52z"/>
		<path class="st4" d="M233.96,185.44c0,0-37.14,13.49-35.89,18.05S233.96,185.44,233.96,185.44z"/>
		<path class="st5" d="M235.97,184.77c0,0-37.62,1.59-36.67,6.49C200.25,196.17,235.97,184.77,235.97,184.77z"/>
		<path class="st5" d="M234.74,185.43c0,0-36.86,16.93-35.52,21.37C200.55,211.23,234.74,185.43,234.74,185.43z"/>
		<path class="st5" d="M237.89,175.69c0,0-37.6-3.19-36.78,1.83C201.94,182.54,237.89,175.69,237.89,175.69z"/>
		<path class="st4" d="M232.39,182.67c0,0-37.31,10.85-36.13,15.5C197.45,202.81,232.39,182.67,232.39,182.67z"/>
		<path class="st4" d="M235.24,172.97c0,0-37.6-3.19-36.78,1.83C199.29,179.82,235.24,172.97,235.24,172.97z"/>
		<path class="st2" d="M205.57,183.37c0,0-37.6-3.19-36.78,1.83C169.62,190.22,205.57,183.37,205.57,183.37z"/>
		<path class="st2" d="M214.89,169.81c0,0-37.6-3.19-36.78,1.83C178.93,176.66,214.89,169.81,214.89,169.81z"/>
		<path class="st2" d="M217.74,189c0,0-37.11,13.97-35.84,18.52C183.16,212.05,217.74,189,217.74,189z"/>
		<path class="st2" d="M209.06,183.16c0,0-37.61,2.85-36.62,7.72C173.42,195.76,209.06,183.16,209.06,183.16z"/>
		<path class="st3" d="M215.5,193.59c0,0-37.6-3.19-36.78,1.83C179.55,200.44,215.5,193.59,215.5,193.59z"/>
		<path class="st3" d="M211.76,191.26c0,0-37.6-3.19-36.78,1.83S211.76,191.26,211.76,191.26z"/>
		<path class="st3" d="M209.49,179.57c0,0-37.6-3.19-36.78,1.83C173.54,186.42,209.49,179.57,209.49,179.57z"/>
		<path class="st4" d="M215.6,182.66c0,0-37.6-3.19-36.78,1.83C179.65,189.51,215.6,182.66,215.6,182.66z"/>
		<path class="st4" d="M210.64,186.58c0,0-37.14,13.49-35.89,18.05S210.64,186.58,210.64,186.58z"/>
		<path class="st5" d="M212.65,185.91c0,0-37.62,1.59-36.67,6.49C176.93,197.32,212.65,185.91,212.65,185.91z"/>
		<path class="st5" d="M211.42,186.57c0,0-36.86,16.93-35.52,21.37C177.23,212.38,211.42,186.57,211.42,186.57z"/>
		<path class="st5" d="M214.57,176.83c0,0-37.6-3.19-36.78,1.83C178.62,183.68,214.57,176.83,214.57,176.83z"/>
		<path class="st4" d="M209.07,183.81c0,0-37.31,10.85-36.13,15.5C174.13,203.95,209.07,183.81,209.07,183.81z"/>
		<path class="st4" d="M211.92,174.11c0,0-37.6-3.19-36.78,1.83C175.97,180.96,211.92,174.11,211.92,174.11z"/>
		<path class="st2" d="M243.59,184.29c0,0-37.6-3.19-36.78,1.83C207.63,191.14,243.59,184.29,243.59,184.29z"/>
		<path class="st2" d="M252.9,170.73c0,0-37.6-3.19-36.78,1.83C216.95,177.58,252.9,170.73,252.9,170.73z"/>
		<path class="st2" d="M255.75,189.92c0,0-37.11,13.97-35.84,18.52C221.18,212.98,255.75,189.92,255.75,189.92z"/>
		<path class="st2" d="M247.07,184.09c0,0-37.61,2.85-36.62,7.72C211.43,196.69,247.07,184.09,247.07,184.09z"/>
		<path class="st3" d="M253.51,194.52c0,0-37.6-3.19-36.78,1.83C217.56,201.37,253.51,194.52,253.51,194.52z"/>
		<path class="st3" d="M249.77,192.19c0,0-37.6-3.19-36.78,1.83C213.82,199.04,249.77,192.19,249.77,192.19z"/>
		<path class="st3" d="M247.5,180.5c0,0-37.6-3.19-36.78,1.83C211.55,187.35,247.5,180.5,247.5,180.5z"/>
		<path class="st4" d="M253.61,183.59c0,0-37.6-3.19-36.78,1.83C217.66,190.44,253.61,183.59,253.61,183.59z"/>
		<path class="st4" d="M248.65,187.51c0,0-37.14,13.49-35.89,18.05S248.65,187.51,248.65,187.51z"/>
		<path class="st5" d="M250.67,186.84c0,0-37.62,1.59-36.67,6.49C214.95,198.24,250.67,186.84,250.67,186.84z"/>
		<path class="st5" d="M249.44,187.5c0,0-36.86,16.93-35.52,21.37C215.25,213.3,249.44,187.5,249.44,187.5z"/>
		<path class="st5" d="M252.58,177.76c0,0-37.6-3.19-36.78,1.83S252.58,177.76,252.58,177.76z"/>
		<path class="st4" d="M247.08,184.74c0,0-37.31,10.85-36.13,15.5C212.14,204.88,247.08,184.74,247.08,184.74z"/>
		<path class="st4" d="M249.94,175.04c0,0-37.6-3.19-36.78,1.83C213.99,181.89,249.94,175.04,249.94,175.04z"/>
		<path class="st2" d="M258.85,185.5c0,0-37.6-3.19-36.78,1.83C222.9,192.35,258.85,185.5,258.85,185.5z"/>
		<path class="st2" d="M268.16,171.94c0,0-37.6-3.19-36.78,1.83C232.21,178.79,268.16,171.94,268.16,171.94z"/>
		<path class="st2" d="M271.02,191.13c0,0-37.11,13.97-35.84,18.52C236.44,214.19,271.02,191.13,271.02,191.13z"/>
		<path class="st2" d="M262.34,185.29c0,0-37.61,2.85-36.62,7.72C226.7,197.9,262.34,185.29,262.34,185.29z"/>
		<path class="st3" d="M268.77,195.72c0,0-37.6-3.19-36.78,1.83C232.82,202.57,268.77,195.72,268.77,195.72z"/>
		<path class="st3" d="M265.03,193.4c0,0-37.6-3.19-36.78,1.83C229.08,200.25,265.03,193.4,265.03,193.4z"/>
		<path class="st3" d="M262.77,181.7c0,0-37.6-3.19-36.78,1.83C226.82,188.56,262.77,181.7,262.77,181.7z"/>
		<path class="st4" d="M268.87,184.8c0,0-37.6-3.19-36.78,1.83S268.87,184.8,268.87,184.8z"/>
		<path class="st4" d="M263.92,188.72c0,0-37.14,13.49-35.89,18.05C229.28,211.32,263.92,188.72,263.92,188.72z"/>
		<path class="st5" d="M265.93,188.05c0,0-37.62,1.59-36.67,6.49C230.21,199.45,265.93,188.05,265.93,188.05z"/>
		<path class="st5" d="M264.7,188.71c0,0-36.86,16.93-35.52,21.37C230.51,214.51,264.7,188.71,264.7,188.71z"/>
		<path class="st5" d="M267.85,178.96c0,0-37.6-3.19-36.78,1.83C231.89,185.81,267.85,178.96,267.85,178.96z"/>
		<path class="st4" d="M262.34,185.95c0,0-37.31,10.85-36.13,15.5C227.4,206.09,262.34,185.95,262.34,185.95z"/>
		<path class="st4" d="M265.2,176.25c0,0-37.6-3.19-36.78,1.83C229.25,183.1,265.2,176.25,265.2,176.25z"/>
		<path class="st2" d="M219.98,204.15c0,0-37.6-3.19-36.78,1.83C184.03,211,219.98,204.15,219.98,204.15z"/>
		<path class="st2" d="M229.3,190.59c0,0-37.6-3.19-36.78,1.83C193.35,197.44,229.3,190.59,229.3,190.59z"/>
		<path class="st2" d="M232.15,209.78c0,0-37.11,13.97-35.84,18.52C197.57,232.83,232.15,209.78,232.15,209.78z"/>
		<path class="st2" d="M223.47,203.94c0,0-37.61,2.85-36.62,7.72S223.47,203.94,223.47,203.94z"/>
		<path class="st3" d="M229.91,214.37c0,0-37.6-3.19-36.78,1.83C193.96,221.22,229.91,214.37,229.91,214.37z"/>
		<path class="st3" d="M226.17,212.04c0,0-37.6-3.19-36.78,1.83C190.22,218.89,226.17,212.04,226.17,212.04z"/>
		<path class="st3" d="M223.9,200.35c0,0-37.6-3.19-36.78,1.83C187.95,207.2,223.9,200.35,223.9,200.35z"/>
		<path class="st4" d="M230.01,203.44c0,0-37.6-3.19-36.78,1.83S230.01,203.44,230.01,203.44z"/>
		<path class="st4" d="M225.05,207.36c0,0-37.14,13.49-35.89,18.05C190.41,229.97,225.05,207.36,225.05,207.36z"/>
		<path class="st5" d="M227.06,206.69c0,0-37.62,1.59-36.67,6.49C191.34,218.09,227.06,206.69,227.06,206.69z"/>
		<path class="st5" d="M225.83,207.35c0,0-36.86,16.93-35.52,21.37C191.64,233.15,225.83,207.35,225.83,207.35z"/>
		<path class="st5" d="M228.98,197.61c0,0-37.6-3.19-36.78,1.83C193.03,204.46,228.98,197.61,228.98,197.61z"/>
		<path class="st4" d="M223.48,204.59c0,0-37.31,10.85-36.13,15.5C188.54,224.73,223.48,204.59,223.48,204.59z"/>
		<path class="st4" d="M226.33,194.89c0,0-37.6-3.19-36.78,1.83C190.38,201.74,226.33,194.89,226.33,194.89z"/>
		<path class="st2" d="M181.09,182.59c0,0-37.6-3.19-36.78,1.83C145.14,189.44,181.09,182.59,181.09,182.59z"/>
		<path class="st2" d="M190.41,169.03c0,0-37.6-3.19-36.78,1.83C154.45,175.88,190.41,169.03,190.41,169.03z"/>
		<path class="st2" d="M193.26,188.22c0,0-37.11,13.97-35.84,18.52S193.26,188.22,193.26,188.22z"/>
		<path class="st2" d="M184.58,182.38c0,0-37.61,2.85-36.62,7.72C148.94,194.99,184.58,182.38,184.58,182.38z"/>
		<path class="st3" d="M191.02,192.81c0,0-37.6-3.19-36.78,1.83C155.07,199.66,191.02,192.81,191.02,192.81z"/>
		<path class="st3" d="M187.28,190.49c0,0-37.6-3.19-36.78,1.83C151.33,197.34,187.28,190.49,187.28,190.49z"/>
		<path class="st3" d="M185.01,178.79c0,0-37.6-3.19-36.78,1.83C149.06,185.64,185.01,178.79,185.01,178.79z"/>
		<path class="st4" d="M191.12,181.89c0,0-37.6-3.19-36.78,1.83C155.17,188.74,191.12,181.89,191.12,181.89z"/>
		<path class="st4" d="M186.16,185.81c0,0-37.14,13.49-35.89,18.05S186.16,185.81,186.16,185.81z"/>
		<path class="st5" d="M188.17,185.14c0,0-37.62,1.59-36.67,6.49C152.45,196.54,188.17,185.14,188.17,185.14z"/>
		<path class="st5" d="M186.94,185.8c0,0-36.86,16.93-35.52,21.37C152.75,211.6,186.94,185.8,186.94,185.8z"/>
		<path class="st5" d="M190.09,176.05c0,0-37.6-3.19-36.78,1.83C154.14,182.9,190.09,176.05,190.09,176.05z"/>
		<path class="st4" d="M184.59,183.04c0,0-37.31,10.85-36.13,15.5C149.65,203.18,184.59,183.04,184.59,183.04z"/>
		<path class="st4" d="M187.44,173.34c0,0-37.6-3.19-36.78,1.83C151.49,180.19,187.44,173.34,187.44,173.34z"/>
		<path class="st2" d="M274.46,179.14c0,0-19.25-1.63-18.83,0.94C256.06,182.64,274.46,179.14,274.46,179.14z"/>
		<path class="st2" d="M279.23,172.2c0,0-19.25-1.63-18.83,0.94C260.83,175.7,279.23,172.2,279.23,172.2z"/>
		<path class="st2" d="M280.69,182.02c0,0-18.99,7.15-18.35,9.48C262.99,193.82,280.69,182.02,280.69,182.02z"/>
		<path class="st2" d="M276.25,179.03c0,0-19.25,1.46-18.75,3.95C258.01,185.48,276.25,179.03,276.25,179.03z"/>
		<path class="st3" d="M279.54,184.37c0,0-19.25-1.63-18.83,0.94C261.14,187.88,279.54,184.37,279.54,184.37z"/>
		<path class="st3" d="M277.63,183.18c0,0-19.25-1.63-18.83,0.94C259.23,186.69,277.63,183.18,277.63,183.18z"/>
		<path class="st3" d="M276.47,177.19c0,0-19.25-1.63-18.83,0.94C258.07,180.7,276.47,177.19,276.47,177.19z"/>
		<path class="st4" d="M279.6,178.78c0,0-19.25-1.63-18.83,0.94C261.19,182.28,279.6,178.78,279.6,178.78z"/>
		<path class="st4" d="M277.06,180.78c0,0-19.01,6.9-18.37,9.24C259.33,192.36,277.06,180.78,277.06,180.78z"/>
		<path class="st5" d="M278.09,180.44c0,0-19.26,0.81-18.77,3.32C259.8,186.28,278.09,180.44,278.09,180.44z"/>
		<path class="st5" d="M277.46,180.78c0,0-18.87,8.67-18.18,10.94C259.96,193.99,277.46,180.78,277.46,180.78z"/>
		<path class="st5" d="M279.07,175.79c0,0-19.25-1.63-18.83,0.94S279.07,175.79,279.07,175.79z"/>
		<path class="st4" d="M276.25,179.36c0,0-19.1,5.56-18.49,7.93C258.37,189.68,276.25,179.36,276.25,179.36z"/>
		<path class="st4" d="M277.72,174.4c0,0-19.25-1.63-18.83,0.94S277.72,174.4,277.72,174.4z"/>
		<path class="st2" d="M291.39,172.72c0,0-19.15,2.55-18.18,4.97C274.17,180.11,291.39,172.72,291.39,172.72z"/>
		<path class="st2" d="M294.55,164.91c0,0-19.15,2.55-18.18,4.97C277.33,172.3,294.55,164.91,294.55,164.91z"/>
		<path class="st2" d="M298.09,174.19c0,0-17.01,11.08-15.87,13.21S298.09,174.19,298.09,174.19z"/>
		<path class="st2" d="M293.11,172.23c0,0-18.48,5.57-17.45,7.9C276.68,182.46,293.11,172.23,293.11,172.23z"/>
		<path class="st3" d="M297.48,176.73c0,0-19.15,2.55-18.18,4.97C280.26,184.12,297.48,176.73,297.48,176.73z"/>
		<path class="st3" d="M295.35,175.98c0,0-19.15,2.55-18.18,4.97S295.35,175.98,295.35,175.98z"/>
		<path class="st3" d="M292.93,170.39c0,0-19.15,2.55-18.18,4.97C275.71,177.78,292.93,170.39,292.93,170.39z"/>
		<path class="st4" d="M296.32,171.26c0,0-19.15,2.55-18.18,4.97C279.11,178.65,296.32,171.26,296.32,171.26z"/>
		<path class="st4" d="M294.28,173.77c0,0-17.08,10.84-15.95,12.98C279.45,188.89,294.28,173.77,294.28,173.77z"/>
		<path class="st5" d="M295.21,173.21c0,0-18.63,4.94-17.61,7.29C278.61,182.85,295.21,173.21,295.21,173.21z"/>
		<path class="st5" d="M294.67,173.67c0,0-16.56,12.53-15.4,14.6C280.42,190.34,294.67,173.67,294.67,173.67z"/>
		<path class="st5" d="M295.16,168.46c0,0-19.15,2.55-18.18,4.97C277.95,175.85,295.16,168.46,295.16,168.46z"/>
		<path class="st4" d="M293.18,172.55c0,0-17.46,9.54-16.35,11.73C277.94,186.48,293.18,172.55,293.18,172.55z"/>
		<path class="st4" d="M293.54,167.39c0,0-19.15,2.55-18.18,4.97C276.33,174.78,293.54,167.39,293.54,167.39z"/>
		<path class="st2" d="M298.14,153.16c0,0-15.5,11.53-13.48,13.17C286.68,167.98,298.14,153.16,298.14,153.16z"/>
		<path class="st2" d="M297.12,144.8c0,0-15.5,11.53-13.48,13.17C285.65,159.62,297.12,144.8,297.12,144.8z"/>
		<path class="st2" d="M304.72,151.19c0,0-9.49,17.94-7.47,19.25C299.28,171.76,304.72,151.19,304.72,151.19z"/>
		<path class="st2" d="M299.41,151.9c0,0-13.46,13.84-11.43,15.38C290.02,168.82,299.41,151.9,299.41,151.9z"/>
		<path class="st3" d="M305.42,153.72c0,0-15.5,11.53-13.48,13.17C293.95,168.53,305.42,153.72,305.42,153.72z"/>
		<path class="st3" d="M303.19,154.09c0,0-15.5,11.53-13.48,13.17C291.73,168.91,303.19,154.09,303.19,154.09z"/>
		<path class="st3" d="M298.36,150.38c0,0-15.5,11.53-13.48,13.17C286.9,165.19,298.36,150.38,298.36,150.38z"/>
		<path class="st4" d="M301.75,149.49c0,0-15.5,11.53-13.48,13.17C290.29,164.31,301.75,149.49,301.75,149.49z"/>
		<path class="st4" d="M301.18,152.68c0,0-9.67,17.77-7.64,19.09C295.56,173.09,301.18,152.68,301.18,152.68z"/>
		<path class="st5" d="M301.72,151.74c0,0-13.89,13.36-11.86,14.93S301.72,151.74,301.72,151.74z"/>
		<path class="st5" d="M301.47,152.41c0,0-8.4,18.99-6.38,20.24C297.11,173.89,301.47,152.41,301.47,152.41z"/>
		<path class="st5" d="M299.38,147.6c0,0-15.5,11.53-13.48,13.17C287.91,162.42,299.38,147.6,299.38,147.6z"/>
		<path class="st4" d="M299.64,152.15c0,0-10.63,16.81-8.6,18.19C293.07,171.72,299.64,152.15,299.64,152.15z"/>
		<path class="st4" d="M297.44,147.46c0,0-15.5,11.53-13.48,13.17C285.98,162.28,297.44,147.46,297.44,147.46z"/>
		<path class="st2" d="M308.07,137.92c0,0-15.96,10.88-14.01,12.61C296.01,152.25,308.07,137.92,308.07,137.92z"/>
		<path class="st2" d="M307.39,129.52c0,0-15.96,10.88-14.01,12.61C295.33,143.86,307.39,129.52,307.39,129.52z"/>
		<path class="st2" d="M314.73,136.22c0,0-10.22,17.54-8.25,18.93C308.44,156.55,314.73,136.22,314.73,136.22z"/>
		<path class="st2" d="M309.39,136.71c0,0-14.01,13.28-12.05,14.9C299.31,153.23,309.39,136.71,309.39,136.71z"/>
		<path class="st3" d="M315.32,138.77c0,0-15.96,10.88-14.01,12.61C303.25,153.1,315.32,138.77,315.32,138.77z"/>
		<path class="st3" d="M313.08,139.05c0,0-15.96,10.88-14.01,12.61C301.02,153.39,313.08,139.05,313.08,139.05z"/>
		<path class="st3" d="M308.4,135.14c0,0-15.96,10.88-14.01,12.61C296.34,149.48,308.4,135.14,308.4,135.14z"/>
		<path class="st4" d="M311.83,134.4c0,0-15.96,10.88-14.01,12.61C299.76,148.73,311.83,134.4,311.83,134.4z"/>
		<path class="st4" d="M311.13,137.56c0,0-10.39,17.36-8.42,18.76C304.67,157.72,311.13,137.56,311.13,137.56z"/>
		<path class="st5" d="M311.71,136.64c0,0-14.43,12.78-12.46,14.43S311.71,136.64,311.71,136.64z"/>
		<path class="st5" d="M311.43,137.3c0,0-9.17,18.63-7.2,19.96C306.19,158.59,311.43,137.3,311.43,137.3z"/>
		<path class="st5" d="M309.54,132.41c0,0-15.96,10.88-14.01,12.61S309.54,132.41,309.54,132.41z"/>
		<path class="st4" d="M309.61,136.96c0,0-11.31,16.36-9.34,17.82S309.61,136.96,309.61,136.96z"/>
		<path class="st4" d="M307.61,132.19c0,0-15.96,10.88-14.01,12.61C295.54,146.52,307.61,132.19,307.61,132.19z"/>
		<path class="st2" d="M315.9,139.8c0,0-17,11.58-15.85,13.97C301.21,156.16,315.9,139.8,315.9,139.8z"/>
		<path class="st4" d="M312.07,139.2c0,0-17.08,11.32-15.93,13.71S312.07,139.2,312.07,139.2z"/>
		<path class="st5" d="M312.46,139.11c0,0-16.54,13.19-15.37,15.52C298.27,156.95,312.46,139.11,312.46,139.11z"/>
		<path class="st2" d="M146.35,182.07c0,0-19.25-1.63-18.83,0.94C127.95,185.58,146.35,182.07,146.35,182.07z"/>
		<path class="st2" d="M151.12,175.13c0,0-19.25-1.63-18.83,0.94S151.12,175.13,151.12,175.13z"/>
		<path class="st2" d="M152.58,184.96c0,0-18.99,7.15-18.35,9.48C134.88,196.76,152.58,184.96,152.58,184.96z"/>
		<path class="st2" d="M148.14,181.97c0,0-19.25,1.46-18.75,3.95S148.14,181.97,148.14,181.97z"/>
		<path class="st3" d="M151.43,187.31c0,0-19.25-1.63-18.83,0.94S151.43,187.31,151.43,187.31z"/>
		<path class="st3" d="M149.52,186.12c0,0-19.25-1.63-18.83,0.94S149.52,186.12,149.52,186.12z"/>
		<path class="st3" d="M148.36,180.13c0,0-19.25-1.63-18.83,0.94S148.36,180.13,148.36,180.13z"/>
		<path class="st4" d="M151.48,181.71c0,0-19.25-1.63-18.83,0.94C133.08,185.22,151.48,181.71,151.48,181.71z"/>
		<path class="st4" d="M148.94,183.72c0,0-19.01,6.9-18.37,9.24C131.21,195.29,148.94,183.72,148.94,183.72z"/>
		<path class="st5" d="M149.98,183.38c0,0-19.26,0.81-18.77,3.32C131.69,189.21,149.98,183.38,149.98,183.38z"/>
		<path class="st5" d="M149.35,183.71c0,0-18.87,8.67-18.18,10.94C131.84,196.92,149.35,183.71,149.35,183.71z"/>
		<path class="st5" d="M150.96,178.73c0,0-19.25-1.63-18.83,0.94S150.96,178.73,150.96,178.73z"/>
		<path class="st4" d="M148.14,182.3c0,0-19.1,5.56-18.49,7.93S148.14,182.3,148.14,182.3z"/>
		<path class="st4" d="M149.6,177.34c0,0-19.25-1.63-18.83,0.94C131.2,180.84,149.6,177.34,149.6,177.34z"/>
		<path class="st2" d="M156.14,186.17c0,0-19.25-1.63-18.83,0.94C137.74,189.68,156.14,186.17,156.14,186.17z"/>
		<path class="st2" d="M160.91,179.23c0,0-19.25-1.63-18.83,0.94S160.91,179.23,160.91,179.23z"/>
		<path class="st2" d="M162.37,189.05c0,0-18.99,7.15-18.35,9.48C144.67,200.85,162.37,189.05,162.37,189.05z"/>
		<path class="st2" d="M157.93,186.06c0,0-19.25,1.46-18.75,3.95C139.68,192.51,157.93,186.06,157.93,186.06z"/>
		<path class="st3" d="M161.22,191.4c0,0-19.25-1.63-18.83,0.94S161.22,191.4,161.22,191.4z"/>
		<path class="st3" d="M159.31,190.21c0,0-19.25-1.63-18.83,0.94C140.9,193.72,159.31,190.21,159.31,190.21z"/>
		<path class="st3" d="M158.15,184.23c0,0-19.25-1.63-18.83,0.94C139.74,187.73,158.15,184.23,158.15,184.23z"/>
		<path class="st4" d="M161.27,185.81c0,0-19.25-1.63-18.83,0.94C142.87,189.31,161.27,185.81,161.27,185.81z"/>
		<path class="st4" d="M158.73,187.82c0,0-19.01,6.9-18.37,9.24C141,199.39,158.73,187.82,158.73,187.82z"/>
		<path class="st5" d="M159.76,187.47c0,0-19.26,0.81-18.77,3.32C141.48,193.31,159.76,187.47,159.76,187.47z"/>
		<path class="st5" d="M159.13,187.81c0,0-18.87,8.67-18.18,10.94C141.63,201.02,159.13,187.81,159.13,187.81z"/>
		<path class="st5" d="M160.75,182.82c0,0-19.25-1.63-18.83,0.94C142.34,186.33,160.75,182.82,160.75,182.82z"/>
		<path class="st4" d="M157.93,186.4c0,0-19.1,5.56-18.49,7.93S157.93,186.4,157.93,186.4z"/>
		<path class="st4" d="M159.39,181.43c0,0-19.25-1.63-18.83,0.94S159.39,181.43,159.39,181.43z"/>
		<path class="st2" d="M128.99,178.05c0,0-19.25-1.63-18.83,0.94C110.58,181.55,128.99,178.05,128.99,178.05z"/>
		<path class="st2" d="M133.76,171.1c0,0-19.25-1.63-18.83,0.94C115.35,174.61,133.76,171.1,133.76,171.1z"/>
		<path class="st2" d="M135.22,180.93c0,0-18.99,7.15-18.35,9.48C117.52,192.73,135.22,180.93,135.22,180.93z"/>
		<path class="st2" d="M130.77,177.94c0,0-19.25,1.46-18.75,3.95C112.53,184.39,130.77,177.94,130.77,177.94z"/>
		<path class="st3" d="M134.07,183.28c0,0-19.25-1.63-18.83,0.94C115.66,186.78,134.07,183.28,134.07,183.28z"/>
		<path class="st3" d="M132.15,182.09c0,0-19.25-1.63-18.83,0.94S132.15,182.09,132.15,182.09z"/>
		<path class="st3" d="M130.99,176.1c0,0-19.25-1.63-18.83,0.94C112.59,179.61,130.99,176.1,130.99,176.1z"/>
		<path class="st4" d="M134.12,177.68c0,0-19.25-1.63-18.83,0.94C115.72,181.19,134.12,177.68,134.12,177.68z"/>
		<path class="st4" d="M131.58,179.69c0,0-19.01,6.9-18.37,9.24S131.58,179.69,131.58,179.69z"/>
		<path class="st5" d="M132.61,179.35c0,0-19.26,0.81-18.77,3.32C114.33,185.19,132.61,179.35,132.61,179.35z"/>
		<path class="st5" d="M131.98,179.69c0,0-18.87,8.67-18.18,10.94C114.48,192.9,131.98,179.69,131.98,179.69z"/>
		<path class="st5" d="M133.59,174.7c0,0-19.25-1.63-18.83,0.94C115.19,178.21,133.59,174.7,133.59,174.7z"/>
		<path class="st4" d="M130.78,178.27c0,0-19.1,5.56-18.49,7.93C112.89,188.58,130.78,178.27,130.78,178.27z"/>
		<path class="st4" d="M132.24,173.31c0,0-19.25-1.63-18.83,0.94C113.83,176.82,132.24,173.31,132.24,173.31z"/>
		<path class="st2" d="M187.39,216.64c0,0-19.25-1.63-18.83,0.94C168.99,220.14,187.39,216.64,187.39,216.64z"/>
		<path class="st2" d="M192.16,209.69c0,0-19.25-1.63-18.83,0.94C173.76,213.2,192.16,209.69,192.16,209.69z"/>
		<path class="st2" d="M193.62,219.52c0,0-18.99,7.15-18.35,9.48C175.92,231.32,193.62,219.52,193.62,219.52z"/>
		<path class="st2" d="M189.18,216.53c0,0-19.25,1.46-18.75,3.95S189.18,216.53,189.18,216.53z"/>
		<path class="st3" d="M192.47,221.87c0,0-19.25-1.63-18.83,0.94C174.07,225.38,192.47,221.87,192.47,221.87z"/>
		<path class="st3" d="M190.56,220.68c0,0-19.25-1.63-18.83,0.94C172.16,224.18,190.56,220.68,190.56,220.68z"/>
		<path class="st3" d="M189.4,214.69c0,0-19.25-1.63-18.83,0.94C170.99,218.2,189.4,214.69,189.4,214.69z"/>
		<path class="st4" d="M192.53,216.27c0,0-19.25-1.63-18.83,0.94C174.12,219.78,192.53,216.27,192.53,216.27z"/>
		<path class="st4" d="M189.99,218.28c0,0-19.01,6.9-18.37,9.24C172.26,229.85,189.99,218.28,189.99,218.28z"/>
		<path class="st5" d="M191.02,217.94c0,0-19.26,0.81-18.77,3.32C172.73,223.78,191.02,217.94,191.02,217.94z"/>
		<path class="st5" d="M190.39,218.28c0,0-18.87,8.67-18.18,10.94C172.89,231.49,190.39,218.28,190.39,218.28z"/>
		<path class="st5" d="M192,213.29c0,0-19.25-1.63-18.83,0.94C173.6,216.8,192,213.29,192,213.29z"/>
		<path class="st4" d="M189.18,216.86c0,0-19.1,5.56-18.49,7.93C171.3,227.17,189.18,216.86,189.18,216.86z"/>
		<path class="st4" d="M190.64,211.9c0,0-19.25-1.63-18.83,0.94C172.24,215.41,190.64,211.9,190.64,211.9z"/>
		<path class="st2" d="M206.52,222.58c0,0-13.36,13.95-11.1,15.24C197.69,239.11,206.52,222.58,206.52,222.58z"/>
		<path class="st2" d="M204.12,214.51c0,0-13.36,13.95-11.1,15.24C195.29,231.04,204.12,214.51,204.12,214.51z"/>
		<path class="st2" d="M212.68,219.55c0,0-6.36,19.27-4.15,20.23C210.75,240.73,212.68,219.55,212.68,219.55z"/>
		<path class="st2" d="M207.56,221.13c0,0-10.96,15.9-8.7,17.07S207.56,221.13,207.56,221.13z"/>
		<path class="st3" d="M213.79,221.92c0,0-13.36,13.95-11.1,15.24C204.96,238.44,213.79,221.92,213.79,221.92z"/>
		<path class="st3" d="M211.66,222.66c0,0-13.36,13.95-11.1,15.24C202.83,239.18,211.66,222.66,211.66,222.66z"/>
		<path class="st3" d="M206.27,219.8c0,0-13.36,13.95-11.1,15.24C197.44,236.33,206.27,219.8,206.27,219.8z"/>
		<path class="st4" d="M209.47,218.36c0,0-13.36,13.95-11.1,15.24C200.64,234.89,209.47,218.36,209.47,218.36z"/>
		<path class="st4" d="M209.43,221.6c0,0-6.57,19.13-4.35,20.1C207.3,242.66,209.43,221.6,209.43,221.6z"/>
		<path class="st5" d="M209.81,220.58c0,0-11.46,15.5-9.2,16.7C202.87,238.48,209.81,220.58,209.81,220.58z"/>
		<path class="st5" d="M209.68,221.28c0,0-5.11,20.13-2.91,21.02C208.97,243.2,209.68,221.28,209.68,221.28z"/>
		<path class="st5" d="M206.81,216.9c0,0-13.36,13.95-11.1,15.24C197.98,233.42,206.81,216.9,206.81,216.9z"/>
		<path class="st2" d="M322.58,131.59c0,0-15.92,14.26-16.64,10.77S322.58,131.59,322.58,131.59z"/>
		<path class="st4" d="M207.82,221.33c0,0-7.67,18.35-5.44,19.37C204.61,241.73,207.82,221.33,207.82,221.33z"/>
		<path class="st4" d="M204.88,217.08c0,0-13.36,13.95-11.1,15.24C196.05,233.6,204.88,217.08,204.88,217.08z"/>
		<path class="st2" d="M315.53,125.92c0,0-15.92,14.26-16.64,10.77S315.53,125.92,315.53,125.92z"/>
		<path class="st2" d="M319.69,118.35c0,0-19.41,3.08-19.84-0.24C299.43,114.78,319.69,118.35,319.69,118.35z"/>
		<path class="st2" d="M317.12,124.92c0,0-17.23,10.38-17.85,6.93C298.65,128.4,317.12,124.92,317.12,124.92z"/>
		<path class="st3" d="M317.71,116.13c0,0-15.92,14.26-16.64,10.77S317.71,116.13,317.71,116.13z"/>
		<path class="st3" d="M316.56,118.84c0,0-15.92,14.26-16.64,10.77C299.2,126.12,316.56,118.84,316.56,118.84z"/>
		<path class="st3" d="M318.08,127.08c0,0-15.92,14.26-16.64,10.77S318.08,127.08,318.08,127.08z"/>
		<path class="st4" d="M320.11,123.11c0,0-15.92,14.26-16.64,10.77S320.11,123.11,320.11,123.11z"/>
		<path class="st4" d="M317.08,122.21c0,0-19.32,3.4-19.76,0.07S317.08,122.21,317.08,122.21z"/>
		<path class="st5" d="M318.11,121.98c0,0-16.96,11.2-17.6,7.74C299.87,126.27,318.11,121.98,318.11,121.98z"/>
		<path class="st5" d="M317.42,121.96c0,0-19.94,1.11-20.31-2.17C296.74,116.5,317.42,121.96,317.42,121.96z"/>
		<path class="st5" d="M320.92,127.19c0,0-15.92,14.26-16.64,10.77S320.92,127.19,320.92,127.19z"/>
		<path class="st4" d="M316.98,124.5c0,0-18.83,5.15-19.31,1.79C297.19,122.92,316.98,124.5,316.98,124.5z"/>
		<path class="st4" d="M320.34,129.79c0,0-15.92,14.26-16.64,10.77S320.34,129.79,320.34,129.79z"/>
	</g>
	<path class="st6" d="M253.75,202"/>
	<path class="st6" d="M317.65,116.13l-2.33,26.01c0,0,10.98-1.36,13.77,1.68c0,0,7.77,3.9,7.77,1.48l-0.12-0.02
		c0.14-1.11-1.32-2.25-1.34-2.27l-1.71-1c-0.72-0.36-1.13-0.66-1.14-0.67l0.14-0.21l1.13,0.66c1.1,0.55,2.93,1.27,5.15,1.34l0,0.12
		c1.54-0.06,2.76-0.85,2.76-3.22C341.71,118.63,317.65,116.13,317.65,116.13z"/>
	<circle class="st7" cx="327.76" cy="127.7" r="3.64"/>
</g>
</svg>
