<?xml version="1.0" encoding="utf-8"?>
<!-- Generator: Adobe Illustrator 23.0.3, SVG Export Plug-In . SVG Version: 6.00 Build 0)  -->
<svg version="1.0" id="Layer_1" xmlns="http://www.w3.org/2000/svg" xmlns:xlink="http://www.w3.org/1999/xlink" x="0px" y="0px"
	 viewBox="0 0 600 400" style="enable-background:new 0 0 600 400;" xml:space="preserve">
<style type="text/css">
	.st0{fill:#C6A6CF;}
	.st1{fill:#F9F1C5;}
	.st2{fill:#F7F3B1;}
	.st3{fill:#F5E2B0;}
	.st4{fill:#030303;}
	.st5{fill:#8159A5;}
</style>
<g id="A-Majunga">
	<path class="st0" d="M439.8,205.21c0,0,6.73,2.76,6.54,6.06c-0.19,3.29-18.03-2.27-18.03-2.27L439.8,205.21z"/>
	<path class="st1" d="M446.24,211.72c0,0-2.11,12.8-5.28,17.95c0.57-4.32-3.83-16.63-5.11-19.23
		C434.35,207.38,447.61,205.64,446.24,211.72z"/>
	<path class="st0" d="M417.15,218.66c0,0,6.73,2.76,6.54,6.06c-0.19,3.29-18.03-2.27-18.03-2.27L417.15,218.66z"/>
	<path class="st1" d="M423.76,226.52c0,0-2.11,12.8-5.28,17.95c0.57-4.32-3.83-16.63-5.11-19.23
		C411.87,222.18,425.13,220.44,423.76,226.52z"/>
	<path class="st0" d="M404.2,190.98c0,0,34.16,7.14,37.09,15.77c2.93,8.63-4.6,15.7-4.6,15.7l-5.11-11.77c0,0-37-3.85-32.19-11.77
		C404.2,190.98,404.2,190.98,404.2,190.98z"/>
	<polygon class="st1" points="50.73,89.95 46.69,100.48 39.59,91.71 	"/>
	<polygon class="st1" points="44.41,75.51 39.94,85.86 33.21,76.81 	"/>
	<polygon class="st1" points="57.05,101.89 54.32,112.84 46.21,105 	"/>
	<polygon class="st1" points="52.87,114.04 63.84,111.45 60.6,122.25 	"/>
	<polygon class="st1" points="71.44,120.82 68.2,131.62 60.46,123.41 	"/>
	<polygon class="st1" points="79.94,128.8 75.9,139.33 68.8,130.56 	"/>
	<polygon class="st1" points="89.83,136.35 86.91,147.25 78.93,139.27 	"/>
	<polygon class="st1" points="103.79,142.32 103.37,153.59 93.82,147.59 	"/>
	<polygon class="st1" points="118.92,141.8 124.56,151.57 113.28,151.57 	"/>
	<polygon class="st1" points="128.49,137.53 141.05,146.93 126.63,153.11 	"/>
	<polygon class="st1" points="146.14,132.52 156.3,144.48 140.86,147.29 	"/>
	<polygon class="st1" points="159.72,121.24 171.26,131.86 156.28,136.55 	"/>
	<polygon class="st1" points="172.11,130.05 176.28,114.92 187.3,126.09 	"/>
	<polygon class="st1" points="192.68,111.93 203.7,123.1 188.51,127.06 	"/>
	<polygon class="st1" points="210.3,111 220.46,122.96 205.02,125.77 	"/>
	<polygon class="st1" points="228.55,110.69 235.78,124.61 220.11,123.92 	"/>
	<polygon class="st1" points="260.12,117.15 265.21,131.99 249.81,128.97 	"/>
	<polygon class="st1" points="244.81,111.33 249.89,126.17 234.49,123.15 	"/>
	<polygon class="st1" points="271.24,108.71 281.91,120.21 266.62,123.7 	"/>
	<polygon class="st1" points="288.64,103.95 296.48,117.54 280.79,117.54 	"/>
	<polygon class="st1" points="302.76,102.14 312.21,114.67 296.63,116.59 	"/>
	<polygon class="st1" points="313.38,113.04 320.18,98.9 329.02,111.87 	"/>
	<polygon class="st1" points="336.86,98.9 345.69,111.87 330.05,113.04 	"/>
	<polygon class="st1" points="354.37,101.14 362.21,114.73 346.52,114.73 	"/>
	<polygon class="st1" points="372.86,101.37 377.49,116.36 362.19,112.87 	"/>
	<polygon class="st1" points="402.27,116.13 404.61,131.64 390.01,125.91 	"/>
	<polygon class="st1" points="388.25,107.66 390.59,123.17 375.98,117.44 	"/>
	<polygon class="st1" points="448.76,101.84 458.99,123.08 435.48,121.32 	"/>
	<polygon class="st1" points="521.59,111.72 530.4,140.3 501.25,133.64 	"/>
	<polygon class="st1" points="484.29,108.84 491.24,131.37 468.25,126.12 	"/>
	<polyline class="st1" points="556.82,205.96 556.13,189.21 547.19,203.93 	"/>
	<polyline class="st1" points="553.27,171.27 558.64,188.16 562.26,170.9 	"/>
	<polyline class="st1" points="550.08,171.39 554.18,180.81 557.29,171.08 	"/>
	<polyline class="st1" points="539.87,172.83 551.47,189.41 561.25,171.86 	"/>
	<polyline class="st1" points="526.13,171.73 537.73,188.31 547.51,170.75 	"/>
	<polyline class="st1" points="544.22,204.74 538.36,185.76 523.46,199.92 	"/>
	<polyline class="st1" points="553.36,207.63 549.15,190 536.48,203.77 	"/>
	<polyline class="st1" points="555.43,205.57 547.36,190.7 532.41,200.08 	"/>
	<polyline class="st1" points="534.26,162.49 547.01,182.27 557.76,161.33 	"/>
	<polyline class="st1" points="525.56,165.3 538.31,185.08 549.06,164.14 	"/>
	<polyline class="st1" points="510.45,163.99 523.21,183.76 533.95,162.83 	"/>
	<polyline class="st1" points="530.34,203.36 523.89,180.72 507.51,197.62 	"/>
	<polyline class="st1" points="544.41,209.02 537.96,186.38 521.58,203.28 	"/>
	<polyline class="st1" points="534.87,206.72 528.43,184.08 512.05,200.98 	"/>
	<polyline class="st1" points="528.5,160.19 541.26,179.97 552.01,159.03 	"/>
	<polyline class="st1" points="519.8,163 532.56,182.78 543.31,161.84 	"/>
	<polyline class="st1" points="504.69,161.69 517.45,181.46 528.2,160.52 	"/>
	<polyline class="st1" points="524.58,201.06 518.14,178.42 501.76,195.32 	"/>
	<polyline class="st1" points="538.65,206.72 532.21,184.08 515.83,200.98 	"/>
	<polyline class="st1" points="545.84,208.91 539.39,186.27 523.01,203.17 	"/>
	<path class="st0" d="M31.7,65.7c0,0,30.61,96.53,93,83.58s10.59-32.96,138.91-25.9c30.61-15.29,102.42-23.54,143.62,7.06
		c32.96-22.36,78.87-1.18,78.87-1.18s71.81,5.89,78.87,47.09c-34.14,0-54.15,8.24-54.15,8.24s31.78,16.48,44.73,17.66
		c12.95,1.18-11.77,9.42-11.77,9.42s-77.7-4.71-91.82-8.24s-34.14-8.24-45.91,8.24s-81.23,31.78-124.78,0s-22.37-48.27-97.71-51.8
		C140,178.71,98.8,172.83,88.2,164.59C77.61,156.35,31.7,99.84,31.7,65.7z"/>
	<polygon class="st2" points="461.97,150.37 471.34,141.78 492.4,139.65 509.29,145.6 509.29,155.13 492.4,161.08 471.34,158.96 	
		"/>
	<polygon class="st3" points="473.14,154.94 468.15,150.37 473.14,145.8 491.89,143.91 505.11,148.56 505.11,152.17 491.89,156.82 	
		"/>
	<circle class="st4" cx="500.62" cy="150.33" r="3.01"/>
	<path class="st0" d="M323.12,189.75c0,0,8.37,45,2.62,55.98s-14.13,27.73-14.13,27.73s11.96,18.31,8.07,23.54
		c-3.89,5.23-5.46,13.6-5.46,13.6l-2.62,21.45l16.15-2.62l26.23-0.92c0,0-3.66-12.16-12.56-12.16c-8.89,0,3.14-13.08,3.14-13.08
		s-16.43-34.06-3.66-42.38c19.65-12.82,31.39-46.88,27.73-67.65S320.51,172.93,323.12,189.75z"/>
	<path class="st0" d="M322.04,188.87c0,0-26.03,37.65-37.88,41.31c-11.85,3.66-29.63,9.52-29.63,9.52s-4.56,21.39-11.02,22.32
		s-13.5,5.71-13.5,5.71l-17.06,13.26l13.23,9.61l21.4,22.19c0,0,3.79-15.39-2.48-21.71s11.49-6.99,11.49-6.99
		s12.59-35.65,27.49-32.46c22.94,4.91,55.38-10.76,67.54-28S332.13,175.16,322.04,188.87z"/>
	<polygon class="st2" points="408.72,152.79 410.64,148.79 414.96,147.81 418.42,150.57 418.42,155 414.96,157.76 410.64,156.78 	
		"/>
	<polygon class="st3" points="413.53,153.15 413.36,152.78 413.53,152.42 413.93,152.33 414.24,152.58 414.24,152.99 413.93,153.24 
			"/>
	<polygon class="st2" points="376.52,134.89 380.66,126.3 389.96,124.18 397.41,130.12 397.41,139.65 389.96,145.6 380.66,143.48 	
		"/>
	<polygon class="st3" points="383.55,139.85 381.16,134.89 383.55,129.93 388.92,128.7 393.23,132.13 393.23,137.64 388.92,141.07 	
		"/>
	<polygon class="st2" points="350.59,133.1 353.58,126.89 360.29,125.36 365.68,129.66 365.68,136.55 360.29,140.84 353.58,139.31 	
		"/>
	<polygon class="st3" points="356.47,135.68 355.23,133.1 356.47,130.52 359.26,129.89 361.5,131.67 361.5,134.53 359.26,136.32 	
		"/>
	<polygon class="st2" points="336.5,154.24 339.49,148.03 346.21,146.5 351.6,150.79 351.6,157.68 346.21,161.98 339.49,160.45 	"/>
	<polygon class="st3" points="342.39,156.82 341.15,154.24 342.39,151.66 345.18,151.02 347.41,152.81 347.41,155.67 345.18,157.45 
			"/>
	<polygon class="st2" points="324.65,124.56 327.64,118.35 334.35,116.82 339.74,121.12 339.74,128 334.35,132.3 327.64,130.77 	"/>
	<polygon class="st3" points="330.53,127.14 329.29,124.56 330.53,121.98 333.32,121.34 335.56,123.13 335.56,125.99 333.32,127.77 
			"/>
	<polygon class="st2" points="315.76,149.26 317.68,145.27 322,144.28 325.46,147.05 325.46,151.48 322,154.24 317.68,153.25 	"/>
	<polygon class="st3" points="320.57,149.63 320.4,149.26 320.57,148.9 320.96,148.81 321.28,149.06 321.28,149.46 320.96,149.72 	
		"/>
	<polygon class="st2" points="296.34,134.78 300.48,126.19 309.77,124.07 317.22,130.02 317.22,139.55 309.77,145.5 300.48,143.37 	
		"/>
	<polygon class="st3" points="303.37,139.74 300.98,134.78 303.37,129.82 308.74,128.6 313.04,132.03 313.04,137.54 308.74,140.97 	
		"/>
	<polygon class="st2" points="285.39,139.13 288.38,132.92 295.09,131.39 300.48,135.68 300.48,142.57 295.09,146.87 288.38,145.33 
			"/>
	<polygon class="st3" points="291.27,141.7 290.03,139.13 291.27,136.55 294.06,135.91 296.3,137.7 296.3,140.56 294.06,142.34 	"/>
	<polygon class="st2" points="248.79,142.63 251.78,136.42 258.49,134.89 263.88,139.18 263.88,146.07 258.49,150.37 251.78,148.83 
			"/>
	<polygon class="st3" points="254.67,145.21 253.43,142.63 254.67,140.05 257.46,139.41 259.7,141.2 259.7,144.06 257.46,145.84 	
		"/>
	<polygon class="st2" points="205.98,139.13 208.64,133.6 214.62,132.24 219.41,136.06 219.41,142.19 214.62,146.01 208.64,144.65 	
		"/>
	<polygon class="st3" points="211.53,141.02 210.62,139.13 211.53,137.23 213.58,136.76 215.23,138.07 215.23,140.18 213.58,141.49 
			"/>
	<polygon class="st2" points="223.46,142.63 226.12,137.1 232.09,135.74 236.89,139.56 236.89,145.69 232.09,149.52 226.12,148.15 	
		"/>
	<polygon class="st3" points="229.01,144.52 228.1,142.63 229.01,140.73 231.06,140.26 232.71,141.57 232.71,143.68 231.06,144.99 	
		"/>
	<polygon class="st2" points="432.29,149.32 434,145.77 437.84,144.89 440.92,147.35 440.92,151.3 437.84,153.75 434,152.88 	"/>
	<polygon class="st3" points="432.29,149.32 434,145.77 437.84,144.89 440.92,147.35 440.92,151.3 437.84,153.75 434,152.88 	"/>
	<circle class="st5" cx="548.87" cy="164.34" r="1.68"/>
	<path class="st0" d="M381.33,204.93c0,0,34.16,7.14,37.09,15.77c2.93,8.63-4.6,15.7-4.6,15.7l-5.11-11.77c0,0-37-3.85-32.19-11.77
		C381.33,204.93,381.33,204.93,381.33,204.93z"/>
	<path class="st1" d="M419.1,225.9c0,0-2.11,12.8-5.28,17.95c0.57-4.32-3.83-16.63-5.11-19.23
		C407.21,221.55,420.47,219.82,419.1,225.9z"/>
	<path class="st1" d="M441.87,212.83c0,0-2.11,12.8-5.28,17.95c0.57-4.32-3.83-16.63-5.11-19.23
		C429.98,208.48,443.24,206.74,441.87,212.83z"/>
	<path class="st1" d="M344.08,316.57c0,0,15.54,7.74,20.93,13.49c-5.29-2.45-22.63-2.59-26.42-2.22
		C334.11,328.28,336.83,312.48,344.08,316.57z"/>
	<path class="st1" d="M340.29,319.94c0,0,15.54,7.74,20.93,13.49c-5.29-2.45-22.63-2.59-26.42-2.22
		C330.33,331.64,333.05,315.84,340.29,319.94z"/>
	<path class="st1" d="M248.65,296.53c0,0,4.59,16.74,3.9,24.59c-1.71-5.58-13.16-18.59-15.96-21.17
		C233.28,296.91,246.87,288.4,248.65,296.53z"/>
	<path class="st1" d="M243.62,295.95c0,0,4.59,16.74,3.9,24.59c-1.71-5.58-13.16-18.59-15.96-21.17
		C228.25,296.33,241.84,287.82,243.62,295.95z"/>
</g>
</svg>
