<?xml version="1.0" encoding="utf-8"?>
<!-- Generator: Adobe Illustrator 23.0.3, SVG Export Plug-In . SVG Version: 6.00 Build 0)  -->
<svg version="1.0" id="Layer_1" xmlns="http://www.w3.org/2000/svg" xmlns:xlink="http://www.w3.org/1999/xlink" x="0px" y="0px"
	 viewBox="0 0 700 400" style="enable-background:new 0 0 700 400;" xml:space="preserve">
<style type="text/css">
	.st0{fill:#F4EDDC;}
	.st1{fill:#8788C2;}
	.st2{fill:#010101;}
	.st3{fill:#F0E4F0;}
	.st4{fill:#485CA9;}
</style>
<g id="A-Mosa">
	<polygon class="st0" points="671.72,116.78 668.11,111.17 664.49,105.56 671.16,105.24 677.82,104.91 674.77,110.85 	"/>
	<polygon class="st0" points="662.06,118.05 658.44,112.45 654.83,106.84 661.49,106.51 668.16,106.19 665.11,112.12 	"/>
	<polygon class="st0" points="651.45,118.05 647.84,112.45 644.22,106.84 650.89,106.51 657.55,106.19 654.5,112.12 	"/>
	<polygon class="st0" points="641.88,121.06 638.27,115.45 634.65,109.84 641.32,109.51 647.98,109.19 644.93,115.12 	"/>
	<polygon class="st0" points="631.74,122.72 628.13,117.11 624.52,111.5 631.18,111.17 637.85,110.85 634.79,116.78 	"/>
	<polygon class="st0" points="622.36,123.99 618.74,118.38 615.13,112.77 621.8,112.45 628.46,112.12 625.41,118.05 	"/>
	<polygon class="st0" points="612.97,125.56 609.36,119.95 605.74,114.34 612.41,114.02 619.07,113.69 616.02,119.63 	"/>
	<polygon class="st0" points="602.65,126.99 599.04,121.38 595.42,115.77 602.09,115.45 608.75,115.12 605.7,121.06 	"/>
	<polygon class="st0" points="589.52,126.99 585.91,121.38 582.29,115.77 588.96,115.45 595.62,115.12 592.57,121.06 	"/>
	<polygon class="st0" points="581.63,126.99 578.01,121.38 574.4,115.77 581.06,115.45 587.73,115.12 584.68,121.06 	"/>
	<polygon class="st0" points="569.16,140.65 569.95,147.28 570.73,153.9 564.6,151.27 558.47,148.64 563.81,144.65 	"/>
	<polygon class="st0" points="578.4,143.75 579.19,150.37 579.98,157 573.84,154.37 567.71,151.74 573.06,147.74 	"/>
	<polygon class="st0" points="587.93,148.4 588.72,155.02 589.51,161.65 583.38,159.02 577.24,156.39 582.59,152.39 	"/>
	<polygon class="st0" points="597.85,149.9 598.64,156.52 599.43,163.15 593.3,160.52 587.16,157.89 592.51,153.89 	"/>
	<path class="st1" d="M428.09,183.37c0,0-38.7,81.17-44.72,82.76s61.12-6.39,72.16-36.59c11.04-30.21,5.15-50.25,5.15-50.25
		S439.65,159.23,428.09,183.37z"/>
	<polygon class="st0" points="607.69,152.85 608.48,159.47 609.27,166.1 603.13,163.47 597,160.84 602.34,156.84 	"/>
	<polygon class="st0" points="616.68,155.82 617.47,162.45 618.26,169.07 612.13,166.44 605.99,163.81 611.34,159.82 	"/>
	<polygon class="st0" points="625.81,158.52 626.59,165.15 627.38,171.78 621.25,169.15 615.12,166.51 620.46,162.52 	"/>
	<path class="st1" d="M309.73,236.91c0,0-26.23,48.75-21.08,63.11s26.1-32.36,26.1-32.36s15.15-35.55,13.23-42.72
		C326.05,217.78,318.83,202.26,309.73,236.91z"/>
	<polygon class="st0" points="635.71,161.77 636.5,168.39 637.29,175.02 631.16,172.39 625.02,169.76 630.37,165.76 	"/>
	<polygon class="st0" points="647.51,167.52 648.3,174.15 649.09,180.77 642.95,178.14 636.82,175.51 642.16,171.52 	"/>
	<polygon class="st0" points="654.61,170.99 655.39,177.61 656.18,184.24 650.05,181.61 643.92,178.98 649.26,174.98 	"/>
	<path class="st1" d="M678.85,103.64c0,0-19.15-20.84-83.9-18.58c-64.76,2.25-210.61,25.34-239.33,56.31c-4.9-1.69-7.7,0-7.7,0v5.44
		l-6.01,0.94l-3.94,5.26h-5.44l-3.57,7.13l-7.32-0.94l-3.75,5.79l-5.44-1.09l-6.38,7.13l-5.44-1.88l-6.19,6.19h-5.82l-4.5,4.69
		h-7.51l-5.07,4.5l-7.32-0.94l-3.75,3.57h-4.13l-2.44,2.49h-8.26l-3.19,5.21l-6.95-1.69l-4.69,4.88l-6.01-2.25l-4.32,6.01
		l-8.26-6.01l-5.26,6.01l-8.07-2.25l-1.88,4.5l-8.45-3.57l-2.63,3.57l-4.5-2.63l-4.5,5.07l-6.76-4.69l-6.01,7.88l-5.44-10.89
		l-4.69,6.38l-5.63-3.57l-4.32,3.57l-5.26-5.44l-2.06,1.31c0,0,44.11-77.15-35.1-64.38c-17.64-7.51-19.15-4.88-19.15-4.88
		s-6.01,28.16-53.68,43.55c-9.39,6.01-2.25,8.63-2.25,8.63s96.59-32.43,108.12-18.99c-7.51,8.1-34.91,35.13-6.38,62.91
		s98.73,21.77,98.73,21.77s58.56,12.39,65.7,9.76c8.63,0.37,120.13-9.01,200.47-61.94c16.52-4.13,36.42-16.52,48.43-16.52
		c12.01,0,32.29-4.13,33.79-4.13s68.7,8.35,75.46,12.81c6.76,4.46,9.76-4.55,9.76-4.55s-96.11-40.17-96.86-46.18
		c-0.75-6.01-2.25-20.27,13.89-21.02C593.82,117.16,681.29,111.53,678.85,103.64z"/>
	<circle class="st2" cx="582.29" cy="96.21" r="3.52"/>
	<path class="st3" d="M676.6,103.08c0,0-116,10.7-125.58,12.39c-9.57,1.69-61.94,3.38-77.15,25.34S350.73,200.5,350.73,200.5
		s-77.88,31.53-83.51,40.54c-5.63,9.01-17.46-11.26-17.46-11.26s-14.08,18.02,0,23.65c14.08,5.63,104.18,16.2,164.99-19.27
		c29.76-5.95,75.74-34.22,119.62-53.23c29.05,1.71,30.23-8.58,65.65,0.1c20.27,3.7,40.54,6.45,40.54,6.45l12.01,4.38
		c0,0,9.57-0.94,6.76-7.32s-96.89-37.73-95.96-51.06s11.11-14.96,11.11-14.96s93.67-4.84,102.11-12.26
		C676.6,106.27,681.67,103.08,676.6,103.08z"/>
	<path class="st1" d="M236.81,246.68c0,0-38.29,39.98-37.17,55.19s33.79-24.21,33.79-24.21s24.09-30.22,24.15-37.63
		C257.64,232.6,254.83,215.7,236.81,246.68z"/>
	<path class="st1" d="M443.56,187.85c0,0-16.95,105.04-24.41,108.8c-7.47,3.76,79.4-28.77,81.37-66.2s-14.61-57.9-14.61-57.9
		S448.84,157.04,443.56,187.85z"/>
	<polygon class="st4" points="407.62,126.99 406.77,128.75 404.87,129.19 403.34,127.97 403.34,126.02 404.87,124.8 406.77,125.23 	
		"/>
	<polygon class="st4" points="353.93,155.02 353.08,152.44 354.57,150.17 357.27,149.91 359.16,151.87 358.81,154.56 356.48,155.97 
			"/>
	<polygon class="st4" points="385.47,150.37 384.16,152.14 381.97,152.21 380.54,150.54 380.95,148.39 382.9,147.37 384.91,148.25 	
		"/>
	<polygon class="st4" points="374.96,135.55 373.95,136.15 372.85,135.73 372.49,134.62 373.14,133.64 374.31,133.54 375.12,134.39 
			"/>
	<polygon class="st4" points="320.52,170.99 318.64,169.72 318.45,167.45 320.11,165.89 322.36,166.22 323.51,168.18 322.69,170.3 	
		"/>
	<polygon class="st4" points="299.5,191.87 298.03,191.16 297.67,189.57 298.69,188.3 300.31,188.3 301.33,189.57 300.97,191.16 	
		"/>
	<polygon class="st4" points="273.97,189.99 274.54,188.82 275.81,188.53 276.83,189.34 276.83,190.64 275.81,191.45 274.54,191.16 
			"/>
	<polygon class="st4" points="434.74,147.28 435.38,145.96 436.81,145.63 437.95,146.54 437.95,148.01 436.81,148.92 435.38,148.6 	
		"/>
	<polygon class="st4" points="224.42,215.22 225.99,211.95 229.53,211.14 232.36,213.41 232.36,217.03 229.53,219.3 225.99,218.49 	
		"/>
	<polygon class="st4" points="199.62,211.14 202.8,212.68 203.59,216.13 201.38,218.89 197.85,218.89 195.64,216.13 196.43,212.68 	
		"/>
	<polygon class="st4" points="482.04,104.91 483,102.93 485.14,102.44 486.86,103.81 486.86,106.01 485.14,107.38 483,106.9 	"/>
</g>
</svg>
