<?xml version="1.0" encoding="utf-8"?>
<!-- Generator: Adobe Illustrator 23.0.1, SVG Export Plug-In . SVG Version: 6.00 Build 0)  -->
<svg version="1.1" id="Layer_1" xmlns="http://www.w3.org/2000/svg" xmlns:xlink="http://www.w3.org/1999/xlink" x="0px" y="0px"
	 viewBox="0 0 599.8 599.8" style="enable-background:new 0 0 599.8 599.8;" xml:space="preserve">
<style type="text/css">
	.st0{fill:#F4EDDC;}
	.st1{fill:#8788C2;}
	.st2{fill:#010101;}
	.st3{fill:#F0E4F0;}
	.st4{fill:#485CA9;}
</style>
<g id="A-Mosa">
	<polygon class="st0" points="581.6,231 578.4,226 575.2,221.1 581.1,220.8 586.9,220.5 584.2,225.8 	"/>
	<polygon class="st0" points="573.1,232.1 569.9,227.2 566.7,222.2 572.6,221.9 578.4,221.7 575.8,226.9 	"/>
	<polygon class="st0" points="563.7,232.1 560.6,227.2 557.4,222.2 563.2,221.9 569.1,221.7 566.4,226.9 	"/>
	<polygon class="st0" points="555.3,234.7 552.1,229.8 549,224.9 554.8,224.6 560.7,224.3 558,229.5 	"/>
	<polygon class="st0" points="546.4,236.2 543.2,231.3 540.1,226.3 545.9,226 551.8,225.8 549.1,231 	"/>
	<polygon class="st0" points="538.2,237.3 535,232.4 531.8,227.4 537.7,227.2 543.5,226.9 540.8,232.1 	"/>
	<polygon class="st0" points="529.9,238.7 526.7,233.8 523.5,228.8 529.4,228.5 535.3,228.3 532.6,233.5 	"/>
	<polygon class="st0" points="520.8,240 517.6,235 514.5,230.1 520.3,229.8 526.2,229.5 523.5,234.7 	"/>
	<polygon class="st0" points="509.3,240 506.1,235 502.9,230.1 508.8,229.8 514.6,229.5 512,234.7 	"/>
	<polygon class="st0" points="502.3,240 499.1,235 496,230.1 501.8,229.8 507.7,229.5 505,234.7 	"/>
	<polygon class="st0" points="491.4,252 492.1,257.8 492.7,263.6 487.4,261.3 482,259 486.7,255.5 	"/>
	<polygon class="st0" points="499.5,254.7 500.2,260.5 500.9,266.3 495.5,264 490.1,261.7 494.8,258.2 	"/>
	<polygon class="st0" points="507.9,258.8 508.6,264.6 509.3,270.4 503.9,268.1 498.5,265.8 503.2,262.3 	"/>
	<polygon class="st0" points="516.6,260.1 517.3,265.9 518,271.8 512.6,269.4 507.2,267.1 511.9,263.6 	"/>
	<path class="st1" d="M367.3,289.5c0,0-34,71.4-39.3,72.8c-5.3,1.4,53.8-5.6,63.5-32.2c9.7-26.6,4.5-44.2,4.5-44.2
		S377.5,268.3,367.3,289.5z"/>
	<polygon class="st0" points="525.3,262.7 525.9,268.5 526.6,274.4 521.2,272 515.8,269.7 520.5,266.2 	"/>
	<polygon class="st0" points="533.2,265.3 533.9,271.1 534.5,277 529.2,274.7 523.8,272.3 528.5,268.8 	"/>
	<polygon class="st0" points="541.2,267.7 541.9,273.5 542.6,279.3 537.2,277 531.8,274.7 536.5,271.2 	"/>
	<path class="st1" d="M263.2,336.6c0,0-23.1,42.9-18.5,55.5s23-28.5,23-28.5s13.3-31.3,11.6-37.6
		C277.5,319.8,271.2,306.2,263.2,336.6z"/>
	<polygon class="st0" points="549.9,270.5 550.6,276.4 551.3,282.2 545.9,279.9 540.5,277.6 545.2,274.1 	"/>
	<polygon class="st0" points="560.3,275.6 561,281.4 561.7,287.3 556.3,284.9 550.9,282.6 555.6,279.1 	"/>
	<polygon class="st0" points="566.5,278.7 567.2,284.5 567.9,290.3 562.5,288 557.1,285.7 561.8,282.2 	"/>
	<path class="st1" d="M587.8,219.4c0,0-16.8-18.3-73.8-16.3c-57,2-185.2,22.3-210.5,49.5c-4.3-1.5-6.8,0-6.8,0v4.8l-5.3,0.8
		l-3.5,4.6h-4.8l-3.1,6.3l-6.4-0.8l-3.3,5.1l-4.8-1l-5.6,6.3l-4.8-1.7l-5.4,5.4h-5.1l-4,4.1h-6.6l-4.5,4l-6.4-0.8l-3.3,3.1h-3.6
		l-2.1,2.2h-7.3l-2.8,4.6l-6.1-1.5l-4.1,4.3l-5.3-2l-3.8,5.3l-7.3-5.3l-4.6,5.3l-7.1-2l-1.7,4l-7.4-3.1l-2.3,3.1l-4-2.3l-4,4.5
		l-5.9-4.1l-5.3,6.9l-4.8-9.6l-4.1,5.6l-5-3.1l-3.8,3.1l-4.6-4.8l-1.8,1.2c0,0,38.8-67.9-30.9-56.6c-15.5-6.6-16.8-4.3-16.8-4.3
		s-5.3,24.8-47.2,38.3c-8.3,5.3-2,7.6-2,7.6s85-28.5,95.1-16.7c-6.6,7.1-30.7,30.9-5.6,55.3s86.8,19.1,86.8,19.1s51.5,10.9,57.8,8.6
		c7.6,0.3,105.7-7.9,176.3-54.5c14.5-3.6,32-14.5,42.6-14.5c10.6,0,28.4-3.6,29.7-3.6s60.4,7.3,66.4,11.3c5.9,3.9,8.6-4,8.6-4
		s-84.5-35.3-85.2-40.6c-0.7-5.3-2-17.8,12.2-18.5C513.1,231.3,590,226.4,587.8,219.4z"/>
	<circle class="st2" cx="502.9" cy="212.9" r="3.1"/>
	<path class="st3" d="M585.9,218.9c0,0-102,9.4-110.4,10.9c-8.4,1.5-54.5,3-67.9,22.3c-13.4,19.3-108.3,52.5-108.3,52.5
		s-68.5,27.7-73.4,35.7s-15.4-9.9-15.4-9.9s-12.4,15.8,0,20.8c12.4,5,91.6,14.2,145.1-16.9c26.2-5.2,66.6-30.1,105.2-46.8
		c25.5,1.5,26.6-7.5,57.7,0.1c17.8,3.3,35.7,5.7,35.7,5.7l10.6,3.9c0,0,8.4-0.8,5.9-6.4c-2.5-5.6-85.2-33.2-84.4-44.9
		c0.8-11.7,9.8-13.2,9.8-13.2s82.4-4.3,89.8-10.8C585.9,221.7,590.3,218.9,585.9,218.9z"/>
	<path class="st1" d="M199.1,345.2c0,0-33.7,35.2-32.7,48.5c1,13.4,29.7-21.3,29.7-21.3s21.2-26.6,21.2-33.1
		C217.4,332.8,214.9,318,199.1,345.2z"/>
	<path class="st1" d="M380.9,293.5c0,0-14.9,92.4-21.5,95.7c-6.6,3.3,69.8-25.3,71.6-58.2S418.1,280,418.1,280
		S385.5,266.4,380.9,293.5z"/>
	<polygon class="st4" points="349.3,240 348.5,241.5 346.9,241.9 345.5,240.8 345.5,239.1 346.9,238 348.5,238.4 	"/>
	<polygon class="st4" points="302.1,264.6 301.3,262.3 302.6,260.3 305,260.1 306.7,261.8 306.4,264.2 304.3,265.4 	"/>
	<polygon class="st4" points="329.8,260.5 328.7,262.1 326.7,262.1 325.5,260.7 325.8,258.8 327.5,257.9 329.3,258.7 	"/>
	<polygon class="st4" points="320.6,247.5 319.7,248 318.7,247.6 318.4,246.7 319,245.8 320,245.7 320.7,246.5 	"/>
	<polygon class="st4" points="272.7,278.7 271,277.5 270.9,275.5 272.3,274.2 274.3,274.5 275.3,276.2 274.6,278 	"/>
	<polygon class="st4" points="254.2,297 252.9,296.4 252.6,295 253.5,293.9 254.9,293.9 255.8,295 255.5,296.4 	"/>
	<polygon class="st4" points="231.7,295.4 232.2,294.3 233.4,294.1 234.3,294.8 234.3,295.9 233.4,296.6 232.2,296.4 	"/>
	<polygon class="st4" points="373.1,257.8 373.7,256.6 375,256.3 376,257.1 376,258.4 375,259.2 373.7,259 	"/>
	<polygon class="st4" points="188.2,317.6 189.5,314.7 192.7,314 195.1,316 195.1,319.1 192.7,321.1 189.5,320.4 	"/>
	<polygon class="st4" points="166.4,314 169.2,315.3 169.8,318.4 167.9,320.8 164.8,320.8 162.9,318.4 163.5,315.3 	"/>
	<polygon class="st4" points="414.7,220.5 415.6,218.8 417.5,218.4 419,219.6 419,221.5 417.5,222.7 415.6,222.3 	"/>
</g>
</svg>
