<svg xmlns="http://www.w3.org/2000/svg" viewBox="0 0 600 600"><defs><style>.cls-1{fill:#a56f42;}.cls-2{fill:#c98c51;}.cls-3{fill:#b27747;}</style></defs><title>aOuranosaurus</title><g id="Layer_17" data-name="Layer 17"><path class="cls-1" d="M352.5,269.85s8.77,33.41,3.95,64.47c0,0,78.85,36.85,76,81.4l27.87,7.06L471.42,404s-32.43-77.78-68.94-96.4c0,0,11-27.76,11.41-43.35"/><path class="cls-1" d="M361,312.2s-2.38,33.38-15.58,61.3l-31.76,34.75A37.38,37.38,0,0,1,296.35,419c-18.32,5.25-55.88,17.85-59,33.51l14.54,44.67h26L284.09,519H234.22l-31.17-69.61,48.83-54-13.5-26s-4.16-43.63,2.08-67.53"/><path class="cls-1" d="M345.52,220.48s-11.13-26.39-9.51-55.87a45.69,45.69,0,0,0-28.79-44.89A237.09,237.09,0,0,0,214.05,103s-76.26,21-116.3,66.72c0,0-26.69,61-34.31,114.39L51.72,390.35,198.8,263.14Z"/><path class="cls-2" d="M357.74,278.45s-4.68,34.22-21,61.07c0,0,61.38,69.86,39.07,104.3l23,17.19,17.43-13.12s-.19-84.27-26.79-115.45c0,0,20.74-21.45,27.13-35.68"/><path class="cls-3" d="M479.51,185.93s-31.72,5.36-51.92-7.49l22,24.32Z"/><path class="cls-2" d="M291.49,312.2s-2.38,33.38-15.58,61.3l-31.77,34.75A37.3,37.3,0,0,1,226.87,419c-18.32,5.25-55.88,17.85-59,33.51l14.54,44.67h26L214.61,519H164.74l-31.17-69.61,48.83-54-13.51-26s-4.15-43.63,2.08-67.53Z"/><path class="cls-2" d="M585.07,154.66c-4.81-5.7-8.31-20.24-20-21.49-49.81-5.39-47.11-41.21-79.19-52a217.11,217.11,0,0,0-45.52,3.8c-11.16,2.26-22.41,5.84-31.18,11.45,0,0-45.95,62.2-63.67,124.12,0,0-36.13-28.68-75.31-40h0a112.6,112.6,0,0,0-22.54-4.28A333.72,333.72,0,0,0,188.76,189c-16.43,5.25-33.58,12.46-47.47,22.19A88.69,88.69,0,0,0,127,223.54a537.51,537.51,0,0,0-33.15,54c-17,31.43-35.5,72.69-42.11,112.83,0,0-16.17,35.95-44,53,0,0,62.13-15.67,83.56-41.72s41.4-58.48,66.21-56a57,57,0,0,1,10.16,2c22.8,6.43,47.7,24.68,47.7,24.68a182.85,182.85,0,0,0,26.52,12.5,180.86,180.86,0,0,0,46.6,11.47c20.6,2,43.05-.21,63.76-11.67a100.9,100.9,0,0,0,27-21.91c.66-.75,1.31-1.5,1.93-2.25,1-1.19,2.06-2.4,3.06-3.61a272.55,272.55,0,0,0,25.63-36.83c34.65-59.56,39.77-117.29,39.77-117.29l29.89-16.83c.51,0,48.43-15.27,74.4,7.29a12.07,12.07,0,0,0,4.08,2.28,52.93,52.93,0,0,0,6.81,1.79c4.07-2.38,11.44-7,16.41-12-7.9-4.19-19.81-9.07-45.33-11.95-42.79-4.82-52.4,12.76-68.63,3.39s-9.32-27.11-9.32-27.11,4.23,27.11,25.42,19.49,61.47-5.44,86.43,2.54c7.93,2.53,12.81,5.2,16,7.38l5.72,4.77.65-6.37A30.5,30.5,0,0,0,585.07,154.66Z"/><path class="cls-2" d="M584.3,181.62l-.12.18Z"/><path class="cls-2" d="M585.14,180.25l-.09.18Z"/><path class="cls-2" d="M315.58,212.63s-.11-55.17,3.17-69.27l-12.71,61Z"/><polygon class="cls-2" points="293.33 195.47 296.51 126.84 279.35 190.39 293.33 195.47"/><polygon class="cls-2" points="264.73 187.21 267.28 116.67 253.93 185.94 264.73 187.21"/><polygon class="cls-2" points="232.96 188.48 246.3 185.94 241.86 114.76 232.96 188.48"/><polygon class="cls-2" points="222.16 189.75 215.16 118.57 208.17 194.2 222.16 189.75"/><polygon class="cls-2" points="198 196.11 188.47 126.84 187.84 198.65 198 196.11"/><polygon class="cls-2" points="163.69 152.26 178.94 200.56 168.77 202.46 163.69 152.26"/><polygon class="cls-2" points="140.81 166.24 161.15 213.9 150.34 215.81 140.81 166.24"/><polygon class="cls-2" points="116.02 181.49 144.62 225.34 131.91 233.6 116.02 181.49"/><polygon class="cls-2" points="102.04 205.64 131.91 233.6 124.28 244.41 102.04 205.64"/><polygon class="cls-2" points="95.05 226.61 120.47 251.4 111.58 260.93 95.05 226.61"/><circle cx="478.61" cy="113.35" r="9.35"/></g></svg>