<?xml version="1.0" encoding="utf-8"?>
<!-- Generator: Adobe Illustrator 23.0.3, SVG Export Plug-In . SVG Version: 6.00 Build 0)  -->
<svg version="1.0" id="Layer_1" xmlns="http://www.w3.org/2000/svg" xmlns:xlink="http://www.w3.org/1999/xlink" x="0px" y="0px"
	 viewBox="0 0 400 400" style="enable-background:new 0 0 400 400;" xml:space="preserve">
<style type="text/css">
	.st0{fill:#F9C973;}
	.st1{fill:#030303;}
	.st2{fill:#F9F5C3;}
	.st3{fill:#D5E6A1;}
	.st4{fill:#F9E381;}
</style>
<g id="A-oviraptor">
	<path class="st0" d="M73.61,222.58c0,0,45.63-17.07,56.11-37.04c9.81-18.68,58.29-13.59,58.29-13.59s51.21-24.88,84.98-0.47
		c11.44,0.47,16.34-1.19,18.52-19.17c2.18-17.98,10.9-22.34,10.9-22.34s12.53-13.07,17.98-9.26s2.72,13.07,0,16.89
		c5.99,3.81-9.32-5.75-14.65,0.79c-5.33,6.54,2.91,8.72,2.66,12.11c-3.39-3.15-7.02-2.18-7.02,4.84c0,7.02-2.18,19.61-11.38,24.45
		s-11.62,4.36-11.62,4.36s-10.9,22.03-22.28,23c-11.38,0.97-39.94,15.73-54.72-6.54c-28.45-42.86-89.83,10.96-107.99,20.58
		C79.36,226.52,74.88,224.95,73.61,222.58z"/>
	<circle class="st1" cx="310.3" cy="132.78" r="1.57"/>
	<path class="st2" d="M321.72,138.39c0,0,2.42,3.15,0,9.2c-2.18-4.6-14.53-11.38-18.16-7.99c6.74-0.18,9.31,1.21,9.62,5.08
		c0.31,3.87,5.88,2.91,5.88,2.91s1.85,5.33-10.33,2.91c-3.71-1.69-9.52-5.81-8.8-10.17C300.66,135.97,311.8,131.85,321.72,138.39z"
		/>
	<path class="st2" d="M303.98,128.44"/>
	<path class="st0" d="M221.61,207.51c0,0,18.16,13.44,18.16,19.25c0,5.81,7.63,17.07,12.35,23.61c4.72,6.54,5.45,17.8,5.45,17.8
		s10.17,5.81,10.17,7.63s23.61,5.08,23.61,5.08s-10.17-5.81-11.99-5.45s15.43,3.63,15.43,3.63s-12.53-7.99-15.8-7.26
		c-3.27,0.73-17.43-9.44-17.43-15.25s-7.26-25.79-7.26-25.79s-1.45-31.23-4.72-30.87C246.3,200.25,221.61,207.51,221.61,207.51z"/>
	<path class="st0" d="M225.87,186.11c0,0-1,20.74-5.44,23.71c-4.44,2.97-9.15,14.55-11.74,21.49c-2.58,6.95-10.82,13.25-10.82,13.25
		s0.75,10.74-0.64,11.67c-1.39,0.93,8.17,20.64,8.17,20.64s-0.75-10.74-1.96-11.94c-1.21-1.2,5.11,13.65,5.11,13.65
		s-0.29-13.66-2.52-15.78c-2.22-2.13-1.69-18.15,2.75-21.11c4.44-2.97,16-18.72,16-18.72s23.13-17.06,21.18-19.38
		C244.04,201.27,225.87,186.11,225.87,186.11z"/>
	<path class="st0" d="M269.18,190.44l12.35,12.73l16.71-3.29c0,0,7.63,3.63,7.99,5.09c0.36,1.45-1.51,5.39-1.51,5.39l-0.97-3.87
		c0,0-2.24,5.08-2.72,5.08s1.63-5.75,0.42-6.11c-1.21-0.36-3.81,3.93-3.81,3.93s1.27-4.96,0-4.96s-12.95,3.87-14.95,5.81
		c-2,1.94-7.51-2.78-8.78-4.06c-1.27-1.27-10.05-11.32-10.05-11.32L269.18,190.44z"/>
	<path class="st0" d="M267.89,182.01l9.36,9.65l12.67-2.5c0,0,5.78,2.76,6.06,3.86c0.28,1.1-1.15,4.08-1.15,4.08l-0.73-2.94
		c0,0-1.7,3.86-2.07,3.86s1.24-4.36,0.32-4.64c-0.92-0.28-2.89,2.98-2.89,2.98s0.96-3.76,0-3.76c-0.96,0-9.82,2.94-11.34,4.41
		c-1.51,1.47-5.69-2.11-6.65-3.07s-7.62-8.58-7.62-8.58L267.89,182.01z"/>
	<path class="st3" d="M218.49,171.33L218.49,171.33c1.59,0,2.89-1.3,2.89-2.89v0c0-1.59-1.3-2.89-2.89-2.89h0
		c-1.59,0-2.89,1.3-2.89,2.89v0C215.6,170.02,216.9,171.33,218.49,171.33z"/>
	<path class="st3" d="M212.77,181L212.77,181c1.59,0,2.89-1.3,2.89-2.89l0,0c0-1.59-1.3-2.89-2.89-2.89h0
		c-1.59,0-2.89,1.3-2.89,2.89l0,0C209.88,179.7,211.18,181,212.77,181z"/>
	<path class="st3" d="M260.96,174.22L260.96,174.22c1.59,0,2.89-1.3,2.89-2.89l0,0c0-1.59-1.3-2.89-2.89-2.89l0,0
		c-1.59,0-2.89,1.3-2.89,2.89l0,0C258.07,172.92,259.37,174.22,260.96,174.22z"/>
	<path class="st3" d="M176.01,177.11L176.01,177.11c1.59,0,2.89-1.3,2.89-2.89l0,0c0-1.59-1.3-2.89-2.89-2.89h0
		c-1.59,0-2.89,1.3-2.89,2.89l0,0C173.12,175.81,174.42,177.11,176.01,177.11z"/>
	<circle class="st3" cx="230.14" cy="173.3" r="0.91"/>
	<circle class="st3" cx="197.84" cy="175.95" r="0.73"/>
	<ellipse class="st3" cx="244.57" cy="178.83" rx="1.53" ry="0.72"/>
	<circle class="st3" cx="259.58" cy="187.49" r="1.38"/>
	<circle class="st3" cx="138.35" cy="185.81" r="1.18"/>
	<circle class="st3" cx="152.96" cy="178.11" r="1.45"/>
	<ellipse class="st3" cx="294.58" cy="158.12" rx="1.43" ry="0.36"/>
	<circle class="st3" cx="281.04" cy="173.8" r="0.49"/>
	<circle class="st4" cx="319.36" cy="140.14" r="0.67"/>
	<circle class="st3" cx="243.8" cy="167.67" r="0.77"/>
	<circle class="st3" cx="231.77" cy="164.35" r="2.55"/>
	<path class="st2" d="M297.96,205.62c0,0-0.08,3.62-0.71,4.16c1.34-0.67,2.93-3.73,2.93-3.73S298.19,204.66,297.96,205.62z"/>
	<path class="st2" d="M301.25,207.18c0,0-0.08,4.23-0.72,4.87c1.36-0.78,2.97-4.37,2.97-4.37S301.48,206.06,301.25,207.18z"/>
	<path class="st2" d="M303.83,207.28c0,0,1.23,4.05,0.81,4.85c1.06-1.16,1.49-5.07,1.49-5.07S303.69,206.13,303.83,207.28z"/>
	<path class="st2" d="M289.57,193.45c0,0-0.06,3.1-0.61,3.56c1.15-0.57,2.51-3.2,2.51-3.2S289.76,192.63,289.57,193.45z"/>
	<path class="st2" d="M292.09,194.64c0,0-0.07,3.62-0.62,4.17c1.17-0.67,2.55-3.74,2.55-3.74S292.28,193.67,292.09,194.64z"/>
	<path class="st2" d="M294.02,194.72c0,0,1.05,3.47,0.69,4.16c0.9-1,1.27-4.34,1.27-4.34S293.91,193.74,294.02,194.72z"/>
	<path class="st2" d="M285.44,277.47c0,0,9.73,1.14,11.08,2.46c-1.54-2.65-9.5-6.41-9.5-6.41S282.88,276.8,285.44,277.47z"/>
	<path class="st2" d="M280.63,279.91c0,0,10.72,0.37,12.07,1.69c-1.54-2.65-10.49-5.65-10.49-5.65S278.07,279.24,280.63,279.91z"/>
	<path class="st2" d="M204.76,271.16c0,0,3.61,7.65,3.26,9.24c1.23-2.34,0.35-9.89,0.35-9.89S204.08,268.98,204.76,271.16z"/>
	<path class="st2" d="M200.77,268.76c0,0,4.63,8.02,4.28,9.61c1.23-2.34-0.66-10.27-0.66-10.27S200.1,266.58,200.77,268.76z"/>
</g>
</svg>
