<?xml version="1.0" encoding="utf-8"?>
<!-- Generator: Adobe Illustrator 23.0.1, SVG Export Plug-In . SVG Version: 6.00 Build 0)  -->
<svg version="1.1" id="Layer_1" xmlns="http://www.w3.org/2000/svg" xmlns:xlink="http://www.w3.org/1999/xlink" x="0px" y="0px"
	 viewBox="0 0 599.8 599.8" style="enable-background:new 0 0 599.8 599.8;" xml:space="preserve">
<style type="text/css">
	.st0{fill:#F5EF77;}
	.st1{fill:#F6F5C7;}
	.st2{fill:#F9E8B9;}
	.st3{fill:#090909;}
	.st4{fill:#D5E15D;}
	.st5{fill:#F9EED3;}
	.st6{fill:#F9C687;}
</style>
<g id="A-Pachy">
	<path class="st0" d="M410,233.1c0,0,47.8,27.3,50.3,39.9c2.5,12.6,0,27.7,0,27.7l-5.5-24.6l2.2,22.4l-8.1-24.4l-3.3,14.8l-9.9-22
		c0,0-57.1-20.7-52.7-27.4C387.5,232.8,408.5,228.4,410,233.1z"/>
	<path class="st1" d="M461.2,278.6c0,0,0.9,20.4-1,21.9c-1.3-6-4.8-21.9-4.8-21.9S461.1,275.9,461.2,278.6z"/>
	<path class="st1" d="M454.8,277.5c0,0,3.5,19.1,1.6,20.6c-1.3-6-7.4-20.6-7.4-20.6S454.7,274.8,454.8,277.5z"/>
	<path class="st1" d="M448.3,276.7c0,0,0.3,13.8-2.4,15c-1.8-4.7-6.5-17-6.5-17S448.2,274.7,448.3,276.7z"/>
	<path class="st0" d="M548.6,118.8c-26.3-0.5-83.5,0.7-104.7,19.2c-1,0.9-2.4,1.3-3.7,1.1c-27.2-4-88.5,8-94.2,11.3
		c-5.9,3.3-106.4,26-117.3,43.6c-10.3,16.7-40.2,42.4-43.3,45c-0.2,0.1-0.3,0.3-0.6,0.4c-6.5,4-119.7,74-153.1,31.7
		c-18.7-23.8,0.7-42.2,22.2-54.1c4.9-2.7,1.8-10.3-3.7-8.7C37,212.1,24,218.3,17.4,228.3c-16.8,25.1,5.9,79.6,48.6,103.1
		c42.8,23.5,206.2,6.7,225.5,0c18.6-6.5,133.1-82.3,141.2-87.7c0.3-0.2,0.6-0.3,0.9-0.5c3.6-1.4,27.5-11.2,41.4-37.5
		c12.5-23.5,32.9-17.3,39.7-14.5c1.4,0.6,2.4,1.8,2.7,3.3c2,8.8,10,40.9,17.9,43c9.2,2.5-6.7-31.9-6.7-31.9l11.9,25.7
		c1.6,3.6,6.7,3.7,8.5,0.2l25.2-47.4c0.9-1.7,0.7-3.7-0.5-5.2c-6.9-8.7-29.2-38.6-21.3-52.9C554.4,122.8,552.3,118.9,548.6,118.8z"
		/>
	<path class="st2" d="M547.1,118.8c0,0,44.6,11.4,40.5,29.8c-4.2,18.4-13.2,32.7-13.2,32.7S536.7,128.3,547.1,118.8z"/>
	<circle class="st3" cx="546.2" cy="164.2" r="5.5"/>
	<circle class="st4" cx="548.9" cy="216.1" r="2.7"/>
	<path class="st5" d="M565.7,131.4c0,0,17.4,7.1,18.1,12.2C584.6,148.6,585.9,130.6,565.7,131.4z"/>
	<path class="st0" d="M347.8,298.7c0,0,16.7,103,19.2,130.7c2.5,27.7,33.9,30.2,33.9,30.2l12.6,13.8l-32.9-8.8l21.6,16.4
		c0,0-56.1-2.5-54.4-7.5c1.6-5-5.9-39-14.7-40.2c-8.8-1.3,0-43.3,0-43.3s-61.6-62.3-57.8-79.9C279,292.4,352.4,277.4,347.8,298.7z"
		/>
	<path class="st0" d="M277.9,327.3c0,0-40.4,74.8-52.5,93.9c-12.1,19.1,6.9,36.3,6.9,36.3l1.2,15.2l-16.8-22l5.8,21.3
		c0,0-34.9-29.5-31.4-31.9c3.6-2.4,15.6-28.1,10.5-33.3c-5.1-5.2,21.5-28,21.5-28s-8.8-70.8,2.4-80.3
		C236.7,289,291.5,315.9,277.9,327.3z"/>
	<path class="st0" d="M391,248.7c0,0,57.5,32.9,60.5,48c3,15.1,0,33.4,0,33.4l-6.6-29.7l2.7,27l-9.7-29.3l-4,17.8l-11.9-26.5
		c0,0-68.7-24.9-63.4-33C364,248.4,389.2,243.1,391,248.7z"/>
	<path class="st1" d="M452.7,306c0,0,1,22.5-1.2,24.1c-1.5-6.6-5.3-24.1-5.3-24.1S452.6,303.1,452.7,306z"/>
	<path class="st1" d="M446,304.8c0,0,3.9,21.1,1.7,22.7c-1.5-6.6-8.2-22.7-8.2-22.7S445.8,301.8,446,304.8z"/>
	<path class="st1" d="M436.9,301.7c0,0,1.4,17.5-1.6,18.7c-2-5.2-7.1-18.7-7.1-18.7S436.7,299.4,436.9,301.7z"/>
	<circle class="st6" cx="270" cy="191.4" r="10"/>
	<circle class="st6" cx="398.3" cy="164.2" r="10"/>
	<circle class="st6" cx="326.5" cy="227.2" r="10"/>
	<circle class="st6" cx="311.4" cy="201.4" r="5"/>
	<circle class="st6" cx="349.3" cy="174.2" r="5"/>
	<circle class="st6" cx="270" cy="249" r="5"/>
	<circle class="st6" cx="393.2" cy="213.3" r="5"/>
	<circle class="st6" cx="223.6" cy="232.5" r="5"/>
	<path class="st6" d="M97.3,279.6c0,0,61.7,2.3,61.7-25.6C128.2,268.6,97.3,279.6,97.3,279.6z"/>
	<path class="st1" d="M400.9,459.6c0,0,18,11.3,17.3,15.1c-7-2.4-28.3-7.6-28.3-7.6S398.2,457.5,400.9,459.6z"/>
	<path class="st1" d="M387,469.7c0,0,15.4,8.1,15.2,11.3c-5.5-0.6-19.1-1.1-19.1-1.1S384.8,468.8,387,469.7z"/>
	<path class="st1" d="M231.2,453.6c0,0,7.5,19.9,4.6,22.5c-4.1-6.2-18-23.1-18-23.1S230.3,450.3,231.2,453.6z"/>
	<path class="st1" d="M216.5,453.2c0,0,7.4,15.8,5.3,18.2c-4-3.8-14.6-12.5-14.6-12.5S215.3,451.2,216.5,453.2z"/>
	<path class="st6" d="M444,138c0,0,25.6-7.1,24.5-11.7C461.4,128.5,445.2,131.1,444,138z"/>
	<path class="st6" d="M40.8,225.4c0,0-28,11.6-18.5,28.6C25.7,243.9,31.1,227.4,40.8,225.4z"/>
	<circle class="st6" cx="128.2" cy="327.5" r="2.7"/>
	<circle class="st6" cx="190.5" cy="288.6" r="0.3"/>
	<circle class="st6" cx="237.1" cy="252.3" r="1.7"/>
	<circle class="st6" cx="292.4" cy="180.3" r="1.1"/>
</g>
</svg>
