<?xml version="1.0" encoding="utf-8"?>
<!-- Generator: Adobe Illustrator 23.0.3, SVG Export Plug-In . SVG Version: 6.00 Build 0)  -->
<svg version="1.0" id="Layer_1" xmlns="http://www.w3.org/2000/svg" xmlns:xlink="http://www.w3.org/1999/xlink" x="0px" y="0px"
	 viewBox="0 0 400 400" style="enable-background:new 0 0 400 400;" xml:space="preserve">
<style type="text/css">
	.st0{fill:#F5EF77;}
	.st1{fill:#F6F5C7;}
	.st2{fill:#F9E8B9;}
	.st3{fill:#090909;}
	.st4{fill:#D5E15D;}
	.st5{fill:#F9EED3;}
	.st6{fill:#F9C687;}
</style>
<g id="A-Pachy">
	<path class="st0" d="M247.05,172.12c0,0,19.72,11.29,20.76,16.48s0,11.44,0,11.44l-2.25-10.17l0.92,9.25l-3.34-10.06l-1.38,6.11
		l-4.09-9.09c0,0-23.58-8.55-21.74-11.32S246.42,170.18,247.05,172.12z"/>
	<path class="st1" d="M268.18,190.91c0,0,0.39,8.42-0.43,9.04c-0.55-2.48-2-9.04-2-9.04S268.14,189.81,268.18,190.91z"/>
	<path class="st1" d="M265.54,190.44c0,0,1.46,7.89,0.64,8.51c-0.55-2.48-3.07-8.51-3.07-8.51S265.5,189.34,265.54,190.44z"/>
	<path class="st1" d="M262.87,190.15c0,0,0.11,5.69-0.99,6.18c-0.73-1.93-2.68-7.03-2.68-7.03S262.81,189.3,262.87,190.15z"/>
	<path class="st0" d="M304.27,124.96c-10.87-0.2-34.45,0.29-43.21,7.91c-0.42,0.37-0.98,0.52-1.53,0.44
		c-11.24-1.65-36.54,3.3-38.9,4.65c-2.42,1.38-43.94,10.73-48.44,17.99c-4.26,6.89-16.61,17.51-17.89,18.59
		c-0.07,0.06-0.14,0.11-0.23,0.17c-2.67,1.67-49.42,30.55-63.2,13.07c-7.74-9.81,0.27-17.44,9.15-22.34
		c2.04-1.13,0.73-4.26-1.51-3.6c-5.45,1.61-10.79,4.19-13.52,8.3c-6.92,10.38,2.42,32.87,20.07,42.56s85.11,2.77,93.07,0
		c7.67-2.67,54.93-33.98,58.28-36.2c0.12-0.08,0.24-0.14,0.38-0.19c1.48-0.56,11.36-4.64,17.11-15.5
		c5.14-9.72,13.59-7.16,16.38-5.97c0.57,0.24,0.99,0.75,1.13,1.35c0.84,3.63,4.12,16.87,7.4,17.77c3.81,1.04-2.77-13.15-2.77-13.15
		l4.91,10.6c0.68,1.47,2.76,1.53,3.52,0.1l10.41-19.58c0.37-0.69,0.29-1.53-0.19-2.14c-2.84-3.58-12.07-15.93-8.79-21.85
		C306.65,126.61,305.78,124.99,304.27,124.96z"/>
	<path class="st2" d="M303.66,124.96c0,0,18.43,4.7,16.7,12.31c-1.73,7.61-5.46,13.49-5.46,13.49S299.36,128.86,303.66,124.96z"/>
	<circle class="st3" cx="303.27" cy="143.68" r="2.25"/>
	<circle class="st4" cx="304.4" cy="165.1" r="1.12"/>
	<path class="st5" d="M311.33,130.16c0,0,7.18,2.94,7.48,5.02C319.12,137.25,319.64,129.81,311.33,130.16z"/>
	<path class="st0" d="M221.36,199.23c0,0,6.9,42.53,7.94,53.95s14.01,12.46,14.01,12.46l5.19,5.71l-13.57-3.63l8.9,6.75
		c0,0-23.14-1.04-22.47-3.11c0.67-2.08-2.44-16.09-6.08-16.61c-3.63-0.52,0-17.89,0-17.89s-25.43-25.7-23.87-32.97
		C192.96,196.61,223.28,190.43,221.36,199.23z"/>
	<path class="st0" d="M192.51,211.02c0,0-16.69,30.88-21.69,38.76s2.85,15,2.85,15l0.51,6.26l-6.95-9.09l2.39,8.78
		c0,0-14.42-12.17-12.95-13.18s6.42-11.6,4.33-13.74s8.89-11.55,8.89-11.55s-3.64-29.23,0.98-33.14
		C175.49,195.22,198.13,206.3,192.51,211.02z"/>
	<path class="st0" d="M239.21,178.59c0,0,23.73,13.58,24.98,19.83c1.25,6.24,0,13.77,0,13.77l-2.71-12.24l1.11,11.13l-4.02-12.11
		l-1.67,7.35l-4.93-10.94c0,0-28.38-10.29-26.16-13.62C228.04,178.44,238.45,176.25,239.21,178.59z"/>
	<path class="st1" d="M264.67,202.23c0,0,0.43,9.28-0.48,9.96c-0.6-2.74-2.2-9.96-2.2-9.96S264.62,201.02,264.67,202.23z"/>
	<path class="st1" d="M261.89,201.71c0,0,1.61,8.69,0.71,9.37c-0.6-2.74-3.39-9.37-3.39-9.37S261.84,200.5,261.89,201.71z"/>
	<path class="st1" d="M258.13,200.46c0,0,0.57,7.21-0.64,7.74c-0.81-2.13-2.95-7.74-2.95-7.74S258.07,199.52,258.13,200.46z"/>
	<circle class="st6" cx="189.26" cy="154.91" r="4.14"/>
	<circle class="st6" cx="242.2" cy="143.68" r="4.14"/>
	<circle class="st6" cx="212.58" cy="169.68" r="4.14"/>
	<circle class="st6" cx="206.36" cy="159.05" r="2.07"/>
	<circle class="st6" cx="221.99" cy="147.82" r="2.07"/>
	<circle class="st6" cx="189.26" cy="178.68" r="2.07"/>
	<circle class="st6" cx="240.13" cy="163.97" r="2.07"/>
	<circle class="st6" cx="170.09" cy="171.89" r="2.07"/>
	<path class="st6" d="M117.98,191.31c0,0,25.49,0.96,25.48-10.56C130.72,186.8,117.98,191.31,117.98,191.31z"/>
	<path class="st1" d="M243.3,265.64c0,0,7.43,4.68,7.15,6.25c-2.9-1-11.69-3.12-11.69-3.12S242.18,264.78,243.3,265.64z"/>
	<path class="st1" d="M237.53,269.8c0,0,6.36,3.34,6.29,4.66c-2.26-0.23-7.9-0.46-7.9-0.46S236.66,269.43,237.53,269.8z"/>
	<path class="st1" d="M173.23,263.17c0,0,3.08,8.22,1.91,9.3c-1.71-2.55-7.43-9.55-7.43-9.55S172.86,261.81,173.23,263.17z"/>
	<path class="st1" d="M167.15,262.99c0,0,3.04,6.51,2.19,7.52c-1.66-1.55-6.01-5.14-6.01-5.14S166.69,262.17,167.15,262.99z"/>
	<path class="st6" d="M261.07,132.87c0,0,10.56-2.94,10.1-4.82C268.27,128.97,261.56,130.01,261.07,132.87z"/>
	<path class="st6" d="M94.65,168.94c0,0-11.55,4.78-7.65,11.82C88.39,176.61,90.62,169.76,94.65,168.94z"/>
	<circle class="st6" cx="130.72" cy="211.08" r="1.11"/>
	<circle class="st6" cx="156.43" cy="195.04" r="0.14"/>
	<circle class="st6" cx="175.69" cy="180.05" r="0.7"/>
	<circle class="st6" cx="198.49" cy="150.33" r="0.44"/>
</g>
</svg>
