<svg xmlns="http://www.w3.org/2000/svg" viewBox="0 0 600 600"><defs><style>.cls-1{fill:#f6e277;}.cls-2{fill:#dd916f;}</style></defs><title>aParasaurolophus</title><g id="Layer_17" data-name="Layer 17"><path class="cls-1" d="M584.81,209.18l-7.24,5.52A67.81,67.81,0,0,0,584.81,209.18Z"/><path class="cls-1" d="M579.35,172.68c-4.72-5.58-11.36-13-19.58-21.06-18.89-18.51-46.17-40.38-77.61-51a213.91,213.91,0,0,0-44.61,3.72c-10.93,2.22-22,5.73-30.56,11.23,0,0-45,60.94-62.38,121.62,0,0-35.41-28.1-73.81-39.22h0a110.42,110.42,0,0,0-22.08-4.2A326.64,326.64,0,0,0,191,206.34c-16.11,5.14-32.91,12.2-46.52,21.74a87,87,0,0,0-14,12.1A528,528,0,0,0,98,293.08C81.3,323.88,63.18,364.3,56.7,403.64c0,0-15.83,35.23-43.09,51.94,0,0,60.88-15.36,81.88-40.88s40.56-57.3,64.87-54.86a56.64,56.64,0,0,1,10,2h0c.33,12.11,1.2,21.23,1.2,21.23l13.23,25.45-47.85,52.94,30.54,68.21h48.87l-6.11-21.38H184.76L170.51,464.5c3-15.2,39.2-27.46,57.33-32.69l-26.79,29.64,30.54,68.21h48.87l-6.11-21.38H248.9L234.65,464.5c3.07-15.34,39.87-27.68,57.83-32.83a36.63,36.63,0,0,0,16.92-10.48L321,408.55A93.72,93.72,0,0,0,365.86,388c5.75,13.92,9.83,29.67,8.2,44.48l19,14.2A34.14,34.14,0,0,0,406.64,417c-1.28-17.19-4.48-42.65-12.44-61.39,4.9-6.9,9.41-13.86,13.45-20.8,34-58.37,39-114.95,39-114.95l29.29-16.49c.51,0,50.27.06,75.36,24a114.7,114.7,0,0,0,26.15-12.49L560.56,204l-34.74,3.44-22.4-15.78,22.4,9.16,35.63-2,23.36,10.4L586.24,195A29.92,29.92,0,0,0,579.35,172.68Z"/><path class="cls-2" d="M270.79,198c-1.27.16-63.74,7.95-84.53,52.72a28.38,28.38,0,0,1-26.86,17c-12.22-.41,5.07-34.43,31.6-61.31a326.64,326.64,0,0,1,57.71-12.57A110.42,110.42,0,0,1,270.79,198Z"/><path class="cls-2" d="M123.37,293.75a20.55,20.55,0,0,1-1.33,9.13c-2.19,5.32-7,12.1-17.48,11.44-6-.38-7.33-9.51-6.6-21.24a529,529,0,0,1,32.49-52.9,87,87,0,0,1,14-12.1C135.44,246.05,122.24,275.71,123.37,293.75Z"/><path class="cls-2" d="M579.35,172.68c-4.72-5.58-11.36-13-19.58-21.06-18.89-18.51-46.17-40.37-77.61-51h0S391.43,55.76,313.35,75.25A38.5,38.5,0,0,0,287.2,96.91a32.6,32.6,0,0,0-1.56,4.38c-3.26,11.95,27.13,15,35.35,4.59s20.17-27.64,62.51-.88c8.6,5.44,12.93,13.83,14.37,23.75l54.05-18C485.1,126,565.69,166.58,584.81,209.18L586.24,195A29.92,29.92,0,0,0,579.35,172.68Z"/><circle cx="500.77" cy="150.98" r="9.16"/></g></svg>