<?xml version="1.0" encoding="utf-8"?>
<!-- Generator: Adobe Illustrator 23.0.1, SVG Export Plug-In . SVG Version: 6.00 Build 0)  -->
<svg version="1.1" id="Layer_1" xmlns="http://www.w3.org/2000/svg" xmlns:xlink="http://www.w3.org/1999/xlink" x="0px" y="0px"
	 viewBox="0 0 599.8 599.8" style="enable-background:new 0 0 599.8 599.8;" xml:space="preserve">
<style type="text/css">
	.st0{fill:#90B6E0;}
	.st1{fill:#FFFEF1;}
	.st2{fill:#6C77B9;}
	.st3{fill:#010101;}
</style>
<g id="A-Plesiosaurus">
	<path class="st0" d="M215.6,345.1c0,0-42.9,56.9-50.9,70.7c-7.9,13.8,34.2,0.3,62.9-22.9s18.3-43.5,18.3-43.5
		S246.3,317.4,215.6,345.1z"/>
	<path class="st0" d="M585.5,172.8c0,0-20.3-5.1-32-10.9c-11.6-5.8-31.2,2.2-45,14.5c-13.8,12.3-32.7,10.9-61.7,68.3
		c-4.4,15.3-31.2,37-50.8,38.5c-19.6,1.5-114-18.2-140.9-11.6c-26.9,6.5-90.8,37-113.3,64.6c-22.5,27.6-43.6,24-73.3,18.9
		c-29.8-5.1-56.6,17.4-56.6,17.4s33.4-11.6,47.9-9.4s53,21.1,77,12.3c24-8.7,48.6-29,71.2-24c22.5,5.1,18.9,16,69.7,13.1
		c50.8-2.9,69-13.8,95.9-32.7c26.1-2.2,76.2-42.1,84.2-53.7c8-11.6,53-95.1,68.3-92.2c15.3,2.9,37.8,7.3,54.5,2.9
		C578.3,181.5,593.5,180.8,585.5,172.8z"/>
	<path class="st0" d="M320.8,336.5c0,0-11.1,58.2-12.3,71.6s20-11,31.1-38.4c11.1-27.4,0-39.7,0-39.7S331.9,305,320.8,336.5z"/>
	<path class="st1" d="M207.9,351.4c0,0,40.4-13.6,146-21.3c63.9-11.6,116.7-71.7,127.8-107.5c11.1-35.7,46.5-49.4,59.1-45.5
		c12.6,3.9,34.9,1.9,39.7,11.6c-7,5.5-47.7-0.7-54.5-2.9c-8.2,3.6-23,15-57.1,73.7c-32.7,64.7-95.4,72.2-95.4,72.2
		S295,395.3,207.9,351.4z"/>
	<path class="st2" d="M211.4,288.6c0,0,12.3,22.7,11.8,30.4c-0.5,7.7,16-4.4,16-18.4s-9.2-20.4-9.2-20.4L211.4,288.6z"/>
	<path class="st2" d="M255.1,271.5c0,0,8.2,31.5,5.3,38.7s18.4-4.4,18.4-9.4s6.3-30.5-2.9-30.5C266.7,270.2,258.8,270.6,255.1,271.5
		z"/>
	<path class="st2" d="M302.7,272.3c0,0,1.2,27.3-2.8,28.5c-4.1,1.2,17.2-1.6,19.2-9.4c1.9-7.8-2.4-17.5-2.4-17.5L302.7,272.3z"/>
	<path class="st2" d="M340.9,277.1c0,0-2,12.9-4.9,14.3c-2.9,1.4,16-1.7,16.9-4.7c1-3.1,0-7.9,0-7.9L340.9,277.1z"/>
	<polygon class="st2" points="371.5,281.3 367,286.7 382.9,282.6 	"/>
	<path class="st2" d="M180,305.6c0,0,3.5,17.7,3.5,22.5c0,4.8,11.6-12.6,11.6-18.4c0-5.8-1.4-12.1-1.4-12.1L180,305.6z"/>
	<path class="st2" d="M147.1,330.4c0,0,5,10.3,4,13.7c-1,3.4,12.3-20.2,9.5-25.4C154,321.4,147.1,330.4,147.1,330.4z"/>
	<path class="st2" d="M131,347.2c0,0-4.2,11.9-6.1,12.4c-1.9,0.5-3.3-6.2-3.3-6.2L131,347.2z"/>
	<path class="st2" d="M98.3,358.6c0,0,1.5,4.9,3.9,4.9c2.4,0,5.6-5.6,5.6-5.6L98.3,358.6z"/>
	<polygon class="st2" points="76.6,356.4 79.4,360.7 87.2,357.9 	"/>
	<path class="st2" d="M47.1,355.6l8.1,0.8l7.7-2C63,354.4,52,354.4,47.1,355.6z"/>
	<path class="st2" d="M410.5,280.2c0,0,18.6-4.8,19.2-13.3c-7.1,4.7-19.2,12.2-19.2,12.2V280.2z"/>
	<path class="st2" d="M440.4,256.2c0,0,10.4-10,8.9-16.3C446.8,244.7,440.4,256.2,440.4,256.2z"/>
	<path class="st2" d="M462.8,217.2c0,0,15.4-13.1,15.4-18.8C476.1,199.9,463.2,213.4,462.8,217.2z"/>
	<path class="st2" d="M507.2,177.5c0,0,6.8-2.2,6.8-5.6C512.1,173.4,507.2,177.5,507.2,177.5z"/>
	<circle class="st2" cx="582.1" cy="175" r="0.9"/>
	<circle class="st3" cx="547.4" cy="167.3" r="2.5"/>
	<path class="st0" d="M278.9,337.2c0,0-14.2,79.3-15.8,97.5c-1.6,18.2,25.8-14.9,40-52.3c14.2-37.4,0-54.1,0-54.1
		S293.2,294.2,278.9,337.2z"/>
	<path class="st0" d="M179.3,338.6c0,0-58.3,57.4-69.6,71.7c-11.3,14.4,38.7,6.1,75.2-15.5s28.1-46.3,28.1-46.3
		S218.8,312.2,179.3,338.6z"/>
	<path class="st2" d="M111.1,416.9c0,0,98.6-38.5,100.3-53.4C205.8,386.3,149.5,419.4,111.1,416.9z"/>
	<path class="st2" d="M163.7,421.3c0,0,72.3-28.2,73.5-39.1C233.2,398.9,191.9,423.2,163.7,421.3z"/>
	<path class="st2" d="M266.8,439c0,0,35.6-46.5,32.2-54C302.8,397.3,285.7,429.2,266.8,439z"/>
	<path class="st2" d="M310.1,412c0,0,35.6-46.5,32.2-54C346.2,370.3,329,402.1,310.1,412z"/>
</g>
</svg>
