<?xml version="1.0" encoding="utf-8"?>
<!-- Generator: Adobe Illustrator 23.0.3, SVG Export Plug-In . SVG Version: 6.00 Build 0)  -->
<svg version="1.0" id="Layer_1" xmlns="http://www.w3.org/2000/svg" xmlns:xlink="http://www.w3.org/1999/xlink" x="0px" y="0px"
	 viewBox="0 0 700 400" style="enable-background:new 0 0 700 400;" xml:space="preserve">
<style type="text/css">
	.st0{fill:#90B6E0;}
	.st1{fill:#FFFEF1;}
	.st2{fill:#6C77B9;}
	.st3{fill:#010101;}
</style>
<g id="A-Plesiosaurus">
	<path class="st0" d="M249.35,247.6c0,0-49.95,66.2-59.18,82.28c-9.23,16.08,39.76,0.35,73.18-26.66
		c33.42-27.01,21.33-50.57,21.33-50.57S285,215.32,249.35,247.6z"/>
	<path class="st0" d="M679.63,47.09c0,0-23.65-5.91-37.17-12.67c-13.51-6.76-36.32,2.53-52.37,16.89
		c-16.05,14.36-38.01,12.67-71.8,79.4c-5.07,17.74-36.32,43.08-59.13,44.77s-132.61-21.12-163.87-13.51s-105.58,43.08-131.77,75.18
		s-50.68,27.87-85.31,21.96s-65.88,20.27-65.88,20.27s38.86-13.51,55.75-10.98c16.89,2.53,61.66,24.5,89.54,14.36
		c27.87-10.14,56.59-33.79,82.78-27.87c26.19,5.91,21.96,18.58,81.09,15.2c59.13-3.38,80.24-16.05,111.5-38.01
		c30.41-2.53,88.69-48.99,97.98-62.51s61.66-110.65,79.4-107.27c17.74,3.38,43.92,8.45,63.35,3.38
		C671.18,57.22,688.92,56.38,679.63,47.09z"/>
	<path class="st0" d="M371.67,237.59c0,0-12.87,67.73-14.3,83.23c-1.43,15.5,23.31-12.75,36.17-44.65s0-46.23,0-46.23
		S384.54,200.87,371.67,237.59z"/>
	<path class="st1" d="M240.39,254.88c0,0,47.02-15.77,169.78-24.78c74.33-13.51,135.79-83.46,148.66-125.01
		c12.88-41.55,54.06-57.44,68.7-52.93c14.64,4.5,40.54,2.25,46.18,13.51c-8.17,6.34-55.47-0.84-63.35-3.38
		c-9.54,4.21-26.75,17.46-66.42,85.78c-38.04,75.28-110.96,84-110.96,84S341.66,305.93,240.39,254.88z"/>
	<path class="st2" d="M244.4,181.77c0,0,14.3,26.36,13.74,35.37c-0.56,9.01,18.58-5.07,18.58-21.4s-10.71-23.68-10.71-23.68
		L244.4,181.77z"/>
	<path class="st2" d="M295.3,161.96c0,0,9.57,36.6,6.19,45.05c-3.38,8.45,21.4-5.09,21.4-10.99s7.36-35.46-3.37-35.5
		C308.79,160.47,299.54,160.84,295.3,161.96z"/>
	<path class="st2" d="M350.63,162.88c0,0,1.45,31.72-3.29,33.14c-4.74,1.42,20.04-1.84,22.29-10.91c2.25-9.07-2.81-20.36-2.81-20.36
		L350.63,162.88z"/>
	<path class="st2" d="M395,168.48c0,0-2.29,15-5.66,16.63c-3.38,1.63,18.58-1.93,19.71-5.5s0-9.19,0-9.19L395,168.48z"/>
	<polygon class="st2" points="430.65,173.3 425.38,179.61 443.92,174.8 	"/>
	<path class="st2" d="M207.84,201.65c0,0,4.12,20.56,4.12,26.19s13.51-14.64,13.51-21.4c0-6.76-1.64-14.08-1.64-14.08L207.84,201.65
		z"/>
	<path class="st2" d="M169.57,230.5c0,0,5.79,11.98,4.66,15.93c-1.13,3.94,14.32-23.52,11.1-29.5
		C177.67,219.96,169.57,230.5,169.57,230.5z"/>
	<path class="st2" d="M150.93,249.98c0,0-4.86,13.9-7.11,14.47c-2.25,0.56-3.85-7.23-3.85-7.23L150.93,249.98z"/>
	<path class="st2" d="M112.84,263.21c0,0,1.69,5.75,4.51,5.75s6.48-6.55,6.48-6.55L112.84,263.21z"/>
	<polygon class="st2" points="87.57,260.67 90.89,265.68 99.89,262.4 	"/>
	<path class="st2" d="M53.25,259.79l9.48,0.88l9.01-2.32C71.74,258.35,59.02,258.36,53.25,259.79z"/>
	<path class="st2" d="M476.06,172.07c0,0,21.69-5.58,22.39-15.45c-8.31,5.51-22.39,14.21-22.39,14.21V172.07z"/>
	<path class="st2" d="M510.74,144.18c0,0,12.09-11.64,10.39-18.96C518.29,130.71,510.74,144.18,510.74,144.18z"/>
	<path class="st2" d="M536.82,98.76c0,0,17.87-15.28,17.9-21.86C552.36,78.62,537.32,94.4,536.82,98.76z"/>
	<path class="st2" d="M588.53,52.64c0,0,7.86-2.56,7.95-6.52C594.17,47.79,588.53,52.64,588.53,52.64z"/>
	<circle class="st2" cx="675.58" cy="49.65" r="1.02"/>
	<circle class="st3" cx="635.28" cy="40.75" r="2.96"/>
	<path class="st0" d="M322.98,238.39c0,0-16.55,92.25-18.39,113.37s29.98-17.36,46.52-60.82s0-62.97,0-62.97
		S339.53,188.38,322.98,238.39z"/>
	<path class="st0" d="M207.1,239.97c0,0-67.8,66.75-80.98,83.45c-13.18,16.7,45.06,7.07,87.53-17.98s32.7-53.81,32.7-53.81
		S252.97,209.31,207.1,239.97z"/>
	<path class="st2" d="M127.7,331.02c0,0,114.74-44.73,116.69-62.06C237.92,295.42,172.4,333.95,127.7,331.02z"/>
	<path class="st2" d="M188.97,336.24c0,0,84.07-32.77,85.5-45.47C269.72,310.16,221.72,338.39,188.97,336.24z"/>
	<path class="st2" d="M308.83,356.77c0,0,41.46-54.11,37.41-62.87C350.78,308.28,330.83,345.33,308.83,356.77z"/>
	<path class="st2" d="M359.26,325.33c0,0,41.46-54.11,37.41-62.87C401.21,276.84,381.26,313.89,359.26,325.33z"/>
</g>
</svg>
