<?xml version="1.0" encoding="utf-8"?>
<!-- Generator: Adobe Illustrator 23.0.1, SVG Export Plug-In . SVG Version: 6.00 Build 0)  -->
<svg version="1.1" id="Layer_1" xmlns="http://www.w3.org/2000/svg" xmlns:xlink="http://www.w3.org/1999/xlink" x="0px" y="0px"
	 viewBox="0 0 599.8 599.8" style="enable-background:new 0 0 599.8 599.8;" xml:space="preserve">
<style type="text/css">
	.st0{fill:#FFF8C7;}
	.st1{fill:#DDBAD8;}
	.st2{fill:#FFFCE9;}
	.st3{fill:#010101;}
	.st4{fill:#C686BA;}
</style>
<g id="A-ptero">
	<polygon class="st0" points="324.1,382.4 328,383.7 331.8,385 329,387.3 326.1,389.6 325.1,386 	"/>
	<polygon class="st0" points="336.5,381.3 333.5,384.1 330.6,386.9 330,383.2 329.4,379.6 332.9,380.4 	"/>
	<polygon class="st0" points="318,392.7 321.8,394 325.6,395.3 322.8,397.6 320,399.9 319,396.3 	"/>
	<polygon class="st0" points="330.3,391.6 327.4,394.4 324.4,397.2 323.8,393.5 323.2,389.9 326.8,390.8 	"/>
	<path class="st1" d="M428.8,287.7c16.4,35.5,35.7,46.6,35.7,46.6s3,24.5-9.7,20.1s-29,3-29,3s-38.6-44.6-34.2-64.7
		c4.5-20.1-247.5-110-379.8-79.5c0,0,288,44.2,309.9,107c11.7,33.6,34.2,66.2,34.2,66.2l-25.3,3.7l-12.6,11.2c0,0,16.4-4.5,21.6-4.5
		c5.2,0,15.6,3,23.8-1.5c8.2-4.5,31.2-9.7,31.2-9.7s34.9,37.2,47.6,3l11.2-9.7l24.5,0.7c0,0,10.4,3.1,18.6,2.8
		c-3.6-2.5-6.7-5.3-7.7-8c-0.5-1.3-0.5-2.5-0.1-3.6l1.4,0.6c-0.3,0.7-0.2,1.5,0.1,2.3c1.1,2.8,4.8,5.8,8.9,8.4
		c0.7-0.1,1.3-0.2,1.9-0.4c8.2-2.2,86.2,32,87,19.3C587.9,401.2,445.2,316.8,428.8,287.7z"/>
	<polyline class="st0" points="311,209.8 307.5,208 310.7,206.2 313.8,204.3 314.2,208 314.5,211.6 	"/>
	<polyline class="st0" points="302.1,211.1 299.9,208.2 303.4,207.4 306.9,206.5 305.6,210.2 	"/>
	<polyline class="st0" points="302.9,210 304.6,206.8 306.3,203.5 308.5,206.4 310.7,209.3 	"/>
	<path class="st2" d="M307,222.7c0,0-8.9-16.8,0-15.4c8.9,1.5,15.4,10.9,18.3,14.4"/>
	<polygon class="st0" points="204,219.6 200.5,217.9 197,216.1 200.1,214.2 203.2,212.4 203.6,216 	"/>
	<polygon class="st0" points="196.4,214.6 195.1,218.3 193.8,222 191.5,219.2 189.3,216.3 192.8,215.4 	"/>
	<polygon class="st0" points="200.2,217.3 196.3,217.7 192.4,218.1 194,214.9 195.7,211.6 198,214.5 	"/>
	<circle class="st3" cx="469.4" cy="341.5" r="4.7"/>
	<path class="st2" d="M469.4,368.5c0,0-23.2-5.9-39.1,7.4c-15.9,13.4-37.4,8.6-37.4,8.6s17.8,22.5,28.9,19.7
		c5.5-1.4,23.2-1.2,29.9-23.9c16.1,0.5,22.3-0.6,22.3-0.6s21.2,5.1,22.7,2.2C498.2,378.9,471.7,375.9,469.4,368.5z"/>
	<path class="st1" d="M389.2,365c0,0-22.2,13.8-32.6,14.1c-10.5,0.3-25.9,1-28.8,3.3c-2.6,4.6-2.3,7.2-2.3,7.2l7.5-3.6
		c0,0,29.8-3.6,34.4-3.6c4.6,0,34.1-14.1,29.5-20.3C392.3,355.8,389.2,365,389.2,365z"/>
	<path class="st1" d="M425.8,357.4c0,0-11.4-74.3,48.2-94.4c59.6-20.1-268.2-67.6-268.2-67.6s148.6,51.3,159.8,77.3
		c11.2,26,46.8,94.6,46.8,94.6L425.8,357.4z"/>
	<path class="st2" d="M406,367.2c0,0-39.1-76.5-49.1-76.5c-9.9,0-160.5-59.9-160.5-59.9s-8.9-16.8,0-15.4
		c8.9,1.5,15.4,10.9,18.3,14.4s151.6,51.5,151.6,51.5s52.5,85.9,46.1,85.9S406,367.2,406,367.2z"/>
	<circle class="st4" cx="511.7" cy="363.7" r="1.4"/>
</g>
</svg>
