<?xml version="1.0" encoding="utf-8"?>
<!-- Generator: Adobe Illustrator 23.0.3, SVG Export Plug-In . SVG Version: 6.00 Build 0)  -->
<svg version="1.0" id="Layer_1" xmlns="http://www.w3.org/2000/svg" xmlns:xlink="http://www.w3.org/1999/xlink" x="0px" y="0px"
	 viewBox="0 0 500 400" style="enable-background:new 0 0 500 400;" xml:space="preserve">
<style type="text/css">
	.st0{fill:#FFF8C7;}
	.st1{fill:#DDBAD8;}
	.st2{fill:#FFFCE9;}
	.st3{fill:#010101;}
	.st4{fill:#C686BA;}
</style>
<g id="A-ptero">
	<polygon class="st0" points="268.71,260.39 271.61,261.36 274.51,262.33 272.37,264.07 270.23,265.81 269.47,263.1 	"/>
	<polygon class="st0" points="278.08,259.54 275.84,261.65 273.61,263.76 273.15,261 272.69,258.24 275.38,258.89 	"/>
	<polygon class="st0" points="264.03,268.22 266.93,269.19 269.83,270.16 267.69,271.9 265.55,273.64 264.79,270.93 	"/>
	<polygon class="st0" points="273.39,267.37 271.16,269.48 268.93,271.58 268.47,268.82 268.01,266.07 270.7,266.72 	"/>
	<path class="st1" d="M348.03,188.61c12.39,26.9,27.03,35.34,27.03,35.34s2.25,18.58-7.32,15.2c-9.57-3.38-21.96,2.25-21.96,2.25
		s-29.28-33.79-25.9-48.99c3.38-15.2-187.52-83.34-287.75-60.25c0,0,218.21,33.51,234.82,81.09c8.9,25.48,25.9,50.12,25.9,50.12
		l-19.15,2.82l-9.57,8.45c0,0,12.39-3.38,16.33-3.38s11.83,2.25,18.02-1.13c6.19-3.38,23.65-7.32,23.65-7.32s26.47,28.16,36.04,2.25
		l8.45-7.32l18.58,0.56c0,0,7.87,2.36,14.07,2.15c-2.72-1.89-5.09-4.01-5.87-6.06c-0.37-0.96-0.39-1.88-0.07-2.72l1.04,0.49
		c-0.2,0.53-0.17,1.1,0.07,1.74c0.81,2.12,3.66,4.41,6.77,6.39c0.5-0.07,0.99-0.17,1.44-0.29c6.19-1.69,65.32,24.21,65.89,14.64
		C468.53,274.64,360.41,210.71,348.03,188.61z"/>
	<polyline class="st0" points="258.78,129.6 256.12,128.25 258.5,126.86 260.88,125.47 261.16,128.21 261.43,130.95 	"/>
	<polyline class="st0" points="252.02,130.58 250.32,128.41 253.01,127.78 255.69,127.14 254.7,129.95 	"/>
	<polyline class="st0" points="252.64,129.77 253.91,127.32 255.18,124.87 256.87,127.05 258.57,129.22 	"/>
	<path class="st2" d="M255.73,139.38c0,0-6.76-12.76,0-11.64c6.76,1.13,11.64,8.26,13.89,10.89"/>
	<polygon class="st0" points="177.66,137.07 175.01,135.72 172.35,134.36 174.73,132.97 177.11,131.58 177.39,134.33 	"/>
	<polygon class="st0" points="171.92,133.26 170.93,136.07 169.94,138.88 168.25,136.7 166.56,134.52 169.24,133.89 	"/>
	<polygon class="st0" points="174.8,135.33 171.84,135.61 168.87,135.88 170.14,133.44 171.41,130.99 173.11,133.16 	"/>
	<circle class="st3" cx="378.74" cy="229.39" r="3.53"/>
	<path class="st2" d="M378.74,249.86c0,0-17.58-4.5-29.59,5.63c-12.01,10.14-28.3,6.48-28.3,6.48s13.51,17.04,21.91,14.92
		c4.19-1.06,17.57-0.89,22.62-18.09c12.17,0.38,16.88-0.43,16.88-0.43s16.06,3.88,17.19,1.63S380.55,255.49,378.74,249.86z"/>
	<path class="st1" d="M318.02,247.2c0,0-16.79,10.42-24.73,10.67s-19.6,0.73-21.84,2.47c-1.99,3.48-1.74,5.47-1.74,5.47l5.71-2.73
		c0,0,22.58-2.75,26.06-2.74c3.47,0.01,25.81-10.66,22.33-15.38C320.34,240.25,318.02,247.2,318.02,247.2z"/>
	<path class="st1" d="M345.77,241.41c0,0-8.66-56.31,36.5-71.52s-203.18-51.24-203.18-51.24s112.62,38.86,121.07,58.56
		c8.45,19.71,35.48,71.64,35.48,71.64L345.77,241.41z"/>
	<path class="st2" d="M330.76,248.86c0,0-29.66-57.94-37.17-57.94c-7.51,0-121.63-45.42-121.63-45.42s-6.76-12.76,0-11.64
		s11.64,8.26,13.89,10.89c2.25,2.63,114.88,39.01,114.88,39.01s39.79,65.1,34.91,65.1S330.76,248.86,330.76,248.86z"/>
	<circle class="st4" cx="410.79" cy="246.18" r="1.06"/>
</g>
</svg>
