<svg xmlns="http://www.w3.org/2000/svg" viewBox="0 0 600 600"><defs><style>.cls-1{fill:#486d4d;}.cls-2{fill:#618466;}</style></defs><title>aSpinosaurus</title><g id="Layer_17" data-name="Layer 17"><path class="cls-1" d="M292.86,297.09s-1.38,47.81-12.2,68.28c0,0-41.84,20.58-78,28.11l5.2,37.11,17.92,7.77-2,22.39-44-19.09-17.47-57.92,57.33-42.89L197.9,306.24l10.5-55.46Z"/><path class="cls-2" d="M389.7,213.41c-8.88-32.86-39.08-67.49-39.08-67.49C325.76,132.6,284,127.27,284,127.27c-25.76,7.1-85.26,34.63-85.26,34.63-26.64,29.31-53.82,90.42-53.82,90.42l13,31.25L381.7,247.16Z"/><path class="cls-1" d="M154.63,252.5c6-12.91,28.05-58.91,49.52-83.3,9.5-4.35,57.34-26.06,80.5-32.88,7.81,1.14,39.88,6.28,60.32,16.67,5.11,6.13,27.61,34.1,35.55,60.63l-6.09,25.73-211,34.33Z"/><path class="cls-2" d="M503.37,224.66,490.05,238l-8-12.13-9.77,11.84-11.84-16.88-11.25-3h13.32l9.77,9.77,10.65-12.43,7.11,12.43,8-8.88h78.15l16-.18-3.6-16.08a26.66,26.66,0,0,0-19.37-20c-27.36-7-85.13-20.07-133.33-18.77,0,0-37.3,28.42-46.18,49.73,0,0-51.51-10.65-120.78-8.88,0,0-103,26.64-174.07,78.15,0,0-58.61,44.41-87,48,0,0,78.15,5.33,129.66-5.33L198.92,310l9.61-2.4L242,327.25h0l26.89,15.82s17,.38,39.45-1.4c9.14-.73,19.18-1.81,29.39-3.41l0,0c6.44-1,12.95-2.22,19.32-3.71h0a171,171,0,0,0,24.21-7.32h0a103.8,103.8,0,0,0,11.88-5.45,186,186,0,0,1,17.16-41.48,135.69,135.69,0,0,1,21.91-29.57s111.9,1.78,136.77-7.1l5.41-19Z"/><polygon class="cls-2" points="178.33 254.26 204.09 176.11 197.87 242.72 178.33 254.26"/><polygon class="cls-2" points="239.61 160.13 221.85 235.62 242.27 229.4 239.61 160.13"/><polygon class="cls-2" points="282.24 143.25 268.03 232.06 289.34 226.73 282.24 143.25"/><polygon class="cls-2" points="322.2 167.23 307.11 221.41 329.31 221.41 322.2 167.23"/><polygon class="cls-2" points="352.4 174.34 358.61 227.62 377.26 221.41 352.4 174.34"/><path class="cls-2" d="M306.22,295.12s17.76,44.4,16,67.49c0,0-30.19,35.52-60.39,56.84l19.54,32h19.54l7.1,21.31H260L221,426.55l35.53-62.16L222.74,341.3l-12.43-55.07Z"/><path class="cls-2" d="M379,259.59S368.38,296,359.5,312.88L396.8,360l-10.66,30.19S411,378.6,422.55,356.39c0,0-14.21-20.42-29.3-34.63l11.54-45.29Z"/><circle cx="474.58" cy="182.43" r="9.35"/></g></svg>