<?xml version="1.0" encoding="utf-8"?>
<!-- Generator: Adobe Illustrator 23.0.1, SVG Export Plug-In . SVG Version: 6.00 Build 0)  -->
<svg version="1.1" id="Layer_1" xmlns="http://www.w3.org/2000/svg" xmlns:xlink="http://www.w3.org/1999/xlink" x="0px" y="0px"
	 viewBox="0 0 600 600" style="enable-background:new 0 0 600 600;" xml:space="preserve">
<style type="text/css">
	.st0{fill:#A0F9A0;}
	.st1{fill:#FCFBE0;}
	.st2{fill:#F96969;}
	.st3{fill:#F9A5B1;}
	.st4{fill:#F3F9A0;}
	.st5{fill:#5BFF45;}
</style>
<title>aSpinosaurus</title>
<g id="A-Stega">
	<path class="st0" d="M335.7,320.8c0,0,31.6,39.1,33,67.9c1.4,28.7,0,35.1,0,35.1h-39.3c0,0,1.8-59.7-4.8-66.3
		C318,351,304.8,299.1,335.7,320.8z"/>
	<path class="st0" d="M457.4,312.8c0,0,31.6,39.1,33,67.9c1.4,28.7,0,35.1,0,35.1h-39.3c0,0,1.8-59.7-4.8-66.3
		C439.7,343,426.5,291,457.4,312.8z"/>
	<path class="st1" d="M357.9,424.8c0,0,5-30.4,12.9-14.1C375.2,427,369.3,424.8,357.9,424.8z"/>
	<path class="st1" d="M480.2,415.7c0,0,5-30.4,12.9-14.1C497.6,417.9,491.7,415.7,480.2,415.7z"/>
	<path class="st2" d="M208.9,267.2l-9.2-11.2c0,0,20.6-51.4,10.4-66.1c17.9,23.4,59.8,48.5,59.8,48.5s-1.8,17.1-31.4,22.9
		C208.9,267.2,208.9,267.2,208.9,267.2z"/>
	<path class="st2" d="M271.1,231.2l-6.5-12.6c0,0,32-46.8,25.3-63c12.2,26,47.5,57.9,47.5,57.9s-5.7,16.5-36,17.1
		C271.1,231.2,271.1,231.2,271.1,231.2z"/>
	<path class="st2" d="M432.6,258.8l5.2-10.8c0,0,47.2-18.1,54.6-31.3c-11.3,21.8-15.1,56.5-15.1,56.5s-13.8,8.6-29.3-2.9
		C432.6,258.8,432.6,258.8,432.6,258.8z"/>
	<path class="st2" d="M477.4,277.8l3.1-6.4c0,0,28.1-10.8,32.5-18.7c-6.7,13-9,33.6-9,33.6s-8.2,5.1-17.4-1.7
		C477.4,277.8,477.4,277.8,477.4,277.8z"/>
	<path class="st2" d="M508.3,295.5l0.9-3.4c0,0,13-7.5,14.5-11.7c-2.1,7-1.2,17.5-1.2,17.5s-3.6,3.2-8.9,0.4
		C508.3,295.5,508.3,295.5,508.3,295.5z"/>
	<path class="st2" d="M375.2,228.5l-0.4-13.8c0,0,50.1-34.4,51-51.6c-0.2,28.1,18.4,68.8,18.4,68.8s-12.5,13.8-40.7,5.2
		C375.2,228.5,375.2,228.5,375.2,228.5z"/>
	<path class="st2" d="M326.2,237.5l-6.1-12.7c0,0,33.2-46.2,27-62.4c11.5,26.2,45.9,58.8,45.9,58.8s-6.1,16.3-36.5,16.3
		C326.2,237.5,326.2,237.5,326.2,237.5z"/>
	<path class="st1" d="M81.6,277.4c0,0-2.7-38.5-1.2-47.5c3.3,7.5,2.4,44.1,6.1,50.3C90.2,286.4,81.6,277.4,81.6,277.4z"/>
	<path class="st1" d="M74.1,275c0,0-8-33.1-8-41.1c4,6.1,8.6,37.9,12.7,42.8C82.9,281.5,74.1,275,74.1,275z"/>
	<path class="st1" d="M63.1,280.3c0,0-48.6-22.4-58.6-30.3c11.4,1,55.2,26.5,65.2,26.1C79.8,275.8,63.1,280.3,63.1,280.3z"/>
	<path class="st1" d="M60.5,277.3c0,0-31.8-43.1-36.7-54.8c9.4,6.4,35.5,49.8,44.5,54.4S60.5,277.3,60.5,277.3z"/>
	<path class="st1" d="M64.5,277.1c0,0-20.5-49.5-22.5-62c7.6,8.5,22.5,56.9,30.1,63.5S64.5,277.1,64.5,277.1z"/>
	<path class="st3" d="M241.5,248l-8-11.2c0,0,17.9-51.4,9-66.1c15.5,23.4,51.9,48.5,51.9,48.5s-1.6,17.1-27.2,22.9
		S241.5,248,241.5,248z"/>
	<path class="st3" d="M221.3,278.1L211,269c0,0,5.9-54.1-6.1-66.4c20.4,19.3,61.4,35.7,61.4,35.7s2.3,17-21.4,28.5
		C221.3,278.1,221.3,278.1,221.3,278.1z"/>
	<path class="st3" d="M295.5,226.5l-5.6-12.6c0,0,27.7-46.8,21.9-63c10.6,26,41.2,57.9,41.2,57.9s-4.9,16.5-31.2,17.1
		C295.5,226.5,295.5,226.5,295.5,226.5z"/>
	<path class="st3" d="M435.5,254.1l4.5-10.8c0,0,40.9-18.1,47.4-31.3c-9.8,21.8-13.1,56.5-13.1,56.5s-12,8.6-25.4-2.9
		C435.5,254.1,435.5,254.1,435.5,254.1z"/>
	<path class="st3" d="M474.4,273.1l2.7-6.4c0,0,24.4-10.8,28.2-18.7c-5.8,13-7.8,33.6-7.8,33.6s-7.1,5.1-15.1-1.7
		C474.4,273.1,474.4,273.1,474.4,273.1z"/>
	<path class="st3" d="M494.6,286.8l1.3-5.5c0,0,18.1-12,20.1-18.9c-2.9,11.2-1.7,28.1-1.7,28.1s-5,5.1-12.4,0.7
		S494.6,286.8,494.6,286.8z"/>
	<path class="st3" d="M521.7,292.9l0.8-3.4c0,0,11.3-7.5,12.6-11.7c-1.8,7-1,17.5-1,17.5s-3.1,3.2-7.7,0.4S521.7,292.9,521.7,292.9z
		"/>
	<path class="st3" d="M540.6,295.4l0.4-1.9c0,0,6.3-4.2,7-6.5c-1,3.9-0.6,9.7-0.6,9.7s-1.7,1.8-4.3,0.2
		C540.6,295.4,540.6,295.4,540.6,295.4z"/>
	<path class="st3" d="M394.1,228.9l1.2-13.7c0,0,46.9-27.5,49.7-44.5c-3.3,27.9,8,70.6,8,70.6s-12.3,12-35.6-0.2
		C394.1,228.9,394.1,228.9,394.1,228.9z"/>
	<path class="st3" d="M343.2,232.8l-5.3-12.7c0,0,28.8-46.2,23.4-62.4c10,26.2,39.8,58.8,39.8,58.8s-5.3,16.3-31.6,16.3
		C343.2,232.8,343.2,232.8,343.2,232.8z"/>
	<path class="st0" d="M592.7,308.8c0,0-29.9-17.2-44.8-14c-14.9,3.2-69.7-8.6-105.4-54.3s-166.1-29.4-214.9,11.3
		c-39.8,9.1-122.2,23.5-180.1,20.8c48,20.8,18.1-1.8,84.2,31.7c65.2,4.5,102.3,5.4,108.6,10c6.3,4.5,33.5,14.5,69.7,43.4
		s166.5-3.6,166.5-3.6l63.4-31.2C539.7,322.9,610.3,324.2,592.7,308.8z"/>
	<circle cx="557.6" cy="303.2" r="3.8"/>
	<path class="st3" d="M346.3,271.1c0,0-38-12.7-34.4,11.8c9.1-7.5,17.1,7.2,17.1,7.2S330.9,270.2,346.3,271.1z"/>
	<path class="st3" d="M438.5,261.7c0,0-29-27.7-36.1-4c11.4-2.9,12.3,13.8,12.3,13.8S425,254.3,438.5,261.7z"/>
	<path class="st3" d="M497.2,307.2c0,0-15.4-37-31.5-18.2c11.6,1.9,5.8,17.6,5.8,17.6S487.8,295,497.2,307.2z"/>
	<path class="st3" d="M329,225.8c0,0-38-12.7-34.4,11.8c9.1-7.5,17.1,7.2,17.1,7.2S313.6,224.9,329,225.8z"/>
	<path class="st3" d="M388.8,241.7c0,0-25-23.3-30.8-3c9.7-2.6,10.7,11.7,10.7,11.7S377.1,235.5,388.8,241.7z"/>
	<path class="st3" d="M265.5,277.7c0,0,19.4-35.1-5.3-36c5.7,10.3-10.2,15.5-10.2,15.5S269.2,262.8,265.5,277.7z"/>
	<path class="st3" d="M215.6,300.3c0,0,19.4-35.1-5.3-36c5.7,10.3-10.2,15.5-10.2,15.5S219.3,285.4,215.6,300.3z"/>
	<path class="st3" d="M171.7,299c0,0,13.3-24-3.6-24.6c3.9,7-7,10.6-7,10.6S174.2,288.8,171.7,299z"/>
	<path class="st4" d="M269.8,330.2c0,0,152.3-31.4,217.6,18.4C426.3,377.3,279,377.3,269.8,330.2z"/>
	<path class="st0" d="M432.6,321.5c0,0,29.6,50.4,31.6,82.9s0,39.8,0,39.8h-57.4c0,0,2.1-67-7-75.1
		C372.3,344.4,387.5,296.8,432.6,321.5z"/>
	<path class="st0" d="M320,323.1c0,0,20,48.8,21.9,81.4s0,39.8,0,39.8H288c0,0-0.3-65.2-6.6-75.1C255.9,328.4,277.7,298.4,320,323.1
		z"/>
	<path class="st1" d="M329.9,444.2c0,0,5-30.4,12.9-14.1C347.2,446.4,341.3,444.2,329.9,444.2z"/>
	<path class="st1" d="M454.3,449c0,0,5-30.4,12.9-14.1C471.6,451.2,465.7,449,454.3,449z"/>
	<circle class="st5" cx="585.3" cy="310" r="1.2"/>
</g>
</svg>
