<?xml version="1.0" encoding="utf-8"?>
<!-- Generator: Adobe Illustrator 23.0.1, SVG Export Plug-In . SVG Version: 6.00 Build 0)  -->
<svg version="1.1" id="Layer_1" xmlns="http://www.w3.org/2000/svg" xmlns:xlink="http://www.w3.org/1999/xlink" x="0px" y="0px"
	 viewBox="0 0 1800 599.8" style="enable-background:new 0 0 1800 599.8;" xml:space="preserve">
<style type="text/css">
	.st0{fill:#CCCCCC;}
	.st1{fill:#993333;}
	.st2{fill:#030303;}
</style>
<title>trinisaura</title>
<path class="st0" d="M1527,124.8c-17.5,7.6-23.2-3.5-60.4-25.4c-37.2-21.7-97-47-155.4-60.4c-58.4-13.3-154.7-22.3-229.3-11.2
	S885,72.9,865.3,83.5s-376.4,35-531.1,48.6S24.8,186.3,24.8,186.3c26.1-14.2,227.8-12.7,289.1-12s184.3,16.9,268.7,27.4
	c84.5,10.7,250.6,12,268.7,12s78.1,44.2,102.6,59.1s86.5,12.7,86.5,12.7s157.6,19.7,253.2,12.7c95.7-7.2,184.9-26.9,223.7-34.6
	c38.7-7.7,38.7-42.9,54.9-60.4c27.4-22.5,35.2-45.1,42.9-68.3c7.7-23.2,30.9-16.8,63.2-19.7c32.4-2.8,55.6,6.6,69.6,5.7
	s19-12.7,16.9-14.9c-22.5,5.7-15.5-23.8-15.5-23.8s21,8.5,26,0c-12.7-32.4-34.4-41-76.6-61.3s-57.1-0.7-67.6,5.7
	c-10.5,6.1-51.3,20.3-54.9,40.7c-3.5,20.4-13.3,37.2-15.5,39.4C1549.8,113.5,1538.6,119.6,1527,124.8z"/>
<path class="st0" d="M1455.3,266.3c0,0-14.2,39.4-21.9,61.9c-7.7,22.5,26,54,39.4,68.9c13.4,14.9,7.7,35.9,7.7,35.9l2.8,5l6.3-7
	l-2.2,12.7l5,1.3l7.7-16.8l-0.7,25.4l2.8,5l7-3.5l2.2-30.2l4.2,34.6l7.7-7.7l0.7-24.7l2.2,9.2l6.3,1.3c0,0,5-6.3-1.3-25.4
	s-35.9-58.4-44.4-69.6c-8.5-11.4,14-35.8,49.2-67.6c35.2-31.8,20.3-61.3,20.3-61.3C1484.6,168,1455.3,266.3,1455.3,266.3z"/>
<path class="st0" d="M1508.9,234.5c1.3-2.2-0.7,4.1-9.2,26c-8.5,21.7-32.4,38.5-48.6,40.7c-16,2-25.4,7.7-40.7,11.2
	c-10.5,2.6-20.8,5.8-30.8,9.9c0,0,5.7,37.9,5.7,56.9c0,18.8-2,40,2.2,47c2.6,4.5,5,9.2,7,14l-9.2-3.5l2.2,12.7
	c-10.5,4.2-11.2-6.3-11.2-6.3s-6.3,2.9-10.6-2.8c-2.5-3-4.2-6.6-5-10.5l-4.2,0.7c-1-2.6-2.2-5.2-3.5-7.7c-2.8-5.7-5-26-5-26
	s-12-61.9-14.9-83.8c-2.6-21.7,15.5-32.4,18.4-33.7c2.8-1.5,42.9-7.9,61.9-24.7s-0.7-23.9-0.7-23.9
	C1481.1,184.1,1507.8,236,1508.9,234.5z"/>
<path class="st0" d="M990.9,165.1c0,0,6.3,15.3,24.7,40.7c18.4,25.4,61.9,42.9,61.9,42.9s-5.7,1.3-15.5,14s-20.6,28.9-16.9,52.1
	c3.7,23.2-11.2,37.9-30.9,66.7s-4.2,39.4-4.2,39.4s21.9,39.4,28.2,56.2c6.3,16.9,2.2,42.9-6.3,61.3c13.4-2,23.2-10.5,23.2-10.5
	c-2.1,7.8-3.8,15.8-5,23.8c-2.2,14.2,19.7,21.9,19.7,21.9s2.8,7.9,0.7-7c-2.2-14.9,7-17.7,19.7-54.9c12.7-37.4-24.5-66.3-33.7-93.7
	c-9.2-27.3,20.4-46.6,33.7-55.6s63.2-62.6,89.9-92.8c26.7-30.2-8.5-86.4-8.5-86.4C1158.3,84.1,990.9,165.1,990.9,165.1z"/>
<path class="st0" d="M1058.3,253.8c0,0,14.2,74.6,21.9,104.8c7.9,30.2,5,46.4-16.8,75.3c-21.7,28.7-27.3,110.3-26.7,125.8
	s7.7,16.8,7.7,16.8s5.7-1.3,16.2-0.7c10.5,0.8,36.6,12,36.6,12l2.2-7l45.1-3.5c0,0,7.7,3.5,11.2,6.3s-0.7-2.8-4.2-15.5
	s-15.5-5-54.9-22.5c-39.4-17.5-16.2-37.9-8.5-56.2c7.9-18.4,85.2-123.2,104.2-149.9c19-26.9,25.4-44.4,25.4-44.4
	C1201.2,197.5,1058.3,253.8,1058.3,253.8z"/>
<path class="st1" d="M1571,87c-2.2,19.7-15.5,26-15.5,26l6.3-2.8c6.3-2.8,14.7-9.8,26.7-30.2c12-20.4,14.9-36.6,14.9-36.6
	C1592.3,44.1,1573.2,67.4,1571,87z"/>
<path class="st1" d="M1477.8,106.2c-19.7-13.5-26-5.7-34.6-5c-8.5,0.7-15.6,11.8-45.1,40.7s-7.6,48.6-3.5,49.9s14.6,2,33-8.5
	c18.2-10.5,19-4.8,30.2-14c11.4-9,22.5-15.3,42.2-21c19.7-5.7,26.7-16.9,26.7-16.9C1512,130.5,1497.6,119.7,1477.8,106.2z"/>
<path class="st1" d="M1345.8,48.2c-11.8-4.2-15.3-1.3-40.1,15.5c-24.5,16.8-24.5,31.5-30.9,61.9s-0.9,50.8,30.9,51.4
	c31.7,0.9,23.4-13.4,31.7-30.9c8.3-17.5,22.5-23.9,40-35.9c17.7-12,18.4-6.3,21.9-16.2s11.4-11.4,18.4-18.4
	C1417.8,75.8,1357.9,52.6,1345.8,48.2z"/>
<path class="st1" d="M1266.6,179.5c19,28.2,15.5,59.7,0.7,71.1c-14.9,11.4-55.6,17.7-68.3-14c-12.5-31.5-9-71.3,14.9-80.1
	C1240.6,146.7,1247.6,151.8,1266.6,179.5z"/>
<path class="st1" d="M1107.5,127.7c-28.9-2.2-18.4,26.7-18.4,26.7s18.2,16.8,39.4,22.5s40.9-8.8,35.2-17.5
	C1152.6,141.9,1136.4,129.9,1107.5,127.7z"/>
<path class="st1" d="M1249.8,32.9c-24.1-0.6-54.3-5.7-81-9.8c-26,5-39.3,33-44.4,74.6c-5.1,41.6,28.2,48.6,33,48.6
	c4.8,0,43.6-17.5,62.6-45.7c19-28.2,42.2-35.2,51.4-41.6c9-6.4,34.4-7.9,43.5-18.4C1315,40.6,1273.6,33.6,1249.8,32.9z"/>
<path class="st1" d="M1024.6,38.4c0,0-9.2,3.5-28.2,23.2s-7,48.6,6.3,67.6s32.4,13.4,41.6,3.5c9-9.9,33.7-51.5,30.9-74
	c-2.6-22.5,18.4-30.9,18.4-33L1024.6,38.4z"/>
<path class="st1" d="M869,81.5c-20.4,23.2-4.2,33.1,12,42.9s26,0,36.1-13.8c10.1-13.6,32.2-37,40.7-53.8
	C957.8,56.8,890.9,73,869,81.5z"/>
<path class="st1" d="M764.6,100.3c0,0-21.9,36.5-28.9,68.3c-7.2,31.5,61.1,41.4,70.2,33.7s19.7-24.5,49.9-14s40.9,6.3,37.2-23.2
	s-28.9-39.4-54.3-40.7c-25.3-1.5-14-21.2-13.3-28.2C826.1,88.3,764.6,100.3,764.6,100.3z"/>
<path class="st1" d="M557.6,116.7c0,0-10.1,45.7,7.2,64.3s75.9,22.1,95.2,1.3c19-21-4.6-76.6-4.6-76.6L557.6,116.7z"/>
<path class="st1" d="M380.1,129c-4.2,8.5-9.2,40.9,56.2,48.6c65.4,7.9,64.8-56.9,64.8-56.9C460.4,132.1,384.5,120.7,380.1,129z"/>
<path class="st1" d="M220.5,141.1c-21,4.2-4.2,29.5-4.2,29.5l88,5l-5-7c-5-7,7.7-32.4,7.7-32.4S241.5,136.9,220.5,141.1z"/>
<ellipse class="st2" cx="1706.9" cy="52" rx="7.9" ry="9.2"/>
</svg>
