<svg id="Layer_1" data-name="Layer 1" xmlns="http://www.w3.org/2000/svg" viewBox="0 0 1800 599.8"><defs><style>.cls-1{fill:#ccc;}.cls-2{fill:#933;}.cls-3{fill:#030303;}</style></defs><title>trinisaura</title><path class="cls-1" d="M239.43,106.67c-2.19-2.19-12-19-15.54-39.39S179.47,32.7,169,26.58c-10.51-6.35-25.39-26-67.63-5.69S37.44,49.77,24.75,82.16c5,8.54,26,0,26,0s7,29.54-15.54,23.85c-2.18,2.19,2.85,14,16.86,14.89s37.2-8.54,69.59-5.69,55.58-3.51,63.24,19.69,15.54,45.74,42.89,68.28c16.2,17.51,16.2,52.74,54.93,60.4s128,27.35,223.66,34.58c95.63,7,253.19-12.7,253.19-12.7s61.94,2.19,86.45-12.69,84.47-59.09,102.63-59.09,184.26-1.31,268.74-12c84.47-10.51,207.46-26.7,268.73-27.36s263-2.19,289.09,12c0,0-154.72-40.71-309.44-54.27S954.38,94,934.69,83.47,792.66,39.05,718,27.89,547.12,25.7,488.69,39.05,370.52,77.78,333.31,99.45c-37.2,21.88-42.89,33-60.4,25.39A276.61,276.61,0,0,1,239.43,106.67Z"/><path class="cls-1" d="M243.59,213.68S228.71,243.23,263.94,275s57.78,56.24,49.24,67.62c-8.53,11.16-38.08,50.55-44.42,69.59s-1.32,25.39-1.32,25.39l6.35-1.32,2.19-9.19.66,24.73,7.65,7.66,4.16-34.58,2.19,30.2,7,3.51,2.85-5-.66-25.38L307.49,445l5-1.32L310.34,431l6.34,7,2.85-5s-5.69-21,7.66-35.89,47.05-46.39,39.39-68.93-21.89-61.93-21.89-61.93S315.37,168,243.59,213.68Z"/><path class="cls-1" d="M387.15,230.53s-19.7,7-.66,23.86,59.09,23.2,61.93,24.73c2.85,1.31,21,12,18.39,33.7-2.85,21.88-14.88,83.81-14.88,83.81s-2.19,20.36-5,26.05a73.65,73.65,0,0,0-3.5,7.66l-4.16-.66a23.41,23.41,0,0,1-5,10.5C430,445.87,423.7,443,423.7,443s-.66,10.5-11.17,6.34l2.19-12.69-9.19,3.5a119.37,119.37,0,0,1,7-14c4.16-7,2.19-28.23,2.19-47.05,0-19,5.69-56.9,5.69-56.9a229.37,229.37,0,0,0-30.85-9.85c-15.32-3.5-24.73-9.19-40.71-11.16-16.19-2.19-40.05-19-48.58-40.7-8.54-21.89-10.5-28.23-9.19-26C292.17,236,318.87,184.14,387.15,230.53Z"/><path class="cls-1" d="M628.31,183.27s-35.23,56.24-8.53,86.44,76.59,83.81,89.94,92.79,42.89,28.23,33.7,55.58-46.39,56.24-33.7,93.66c12.69,37.21,21.88,40,19.69,54.93s.66,7,.66,7S752,566,749.77,551.79a213.71,213.71,0,0,0-5-23.85s9.85,8.53,23.2,10.5c-8.53-18.38-12.69-44.42-6.35-61.27s28.23-56.24,28.23-56.24,15.54-10.51-4.15-39.4S751.08,338,754.8,314.79s-7-39.39-16.85-52.09-15.54-14-15.54-14,43.55-17.51,61.93-42.89,24.73-40.71,24.73-40.71S641.66,84.13,628.31,183.27Z"/><path class="cls-1" d="M582.57,295.09s6.35,17.51,25.39,44.43c19,26.7,96.29,131.52,104.17,149.9,7.66,18.38,30.85,38.74-8.54,56.24s-51.43,9.85-54.93,22.54-7.66,18.39-4.16,15.54,11.17-6.34,11.17-6.34l45.08,3.5,2.18,7s26.05-11.16,36.55-12c10.51-.65,16.2.66,16.2.66s7-1.31,7.65-16.85-5-97.17-26.69-125.83c-21.89-28.89-24.73-45.08-16.85-75.28,7.65-30.2,21.88-104.83,21.88-104.83S598.77,197.49,582.57,295.09Z"/><path class="cls-2" d="M196.54,43.43S199.38,59.62,211.42,80s20.35,27.36,26.7,30.2l6.35,2.85s-13.35-6.35-15.54-26S207.7,44.08,196.54,43.43Z"/><path class="cls-2" d="M273.13,131.4s7,11.16,26.7,16.85,30.86,12,42.24,21c11.16,9.19,12,3.5,30.2,14,18.38,10.5,28.88,9.84,33,8.53s26-21-3.5-49.9-36.54-40-45.08-40.7-14.88-8.53-34.58,5S288,130.52,273.13,131.4Z"/><path class="cls-2" d="M382.12,75.82c7,7,14.88,8.53,18.38,18.38s4.16,4.16,21.88,16.19c17.51,12,31.73,18.38,40.05,35.89s0,31.73,31.73,30.86c31.73-.66,37.2-21,30.86-51.43s-6.35-45.08-30.86-61.93c-24.73-16.85-28.23-19.7-40.05-15.54C442.08,52.62,382.12,75.82,382.12,75.82Z"/><path class="cls-2" d="M586.07,156.57c23.86,8.75,27.36,48.58,14.89,80.09-12.7,31.73-53.4,25.39-68.28,14s-18.38-42.89.65-71.12C552.37,151.75,559.38,146.72,586.07,156.57Z"/><path class="cls-2" d="M636.19,159.41c-5.69,8.76,14,23.2,35.23,17.51s39.39-22.54,39.39-22.54,10.51-28.89-18.38-26.7S647.35,141.9,636.19,159.41Z"/><path class="cls-2" d="M485,40.58c9.19,10.51,34.58,12,43.55,18.38,9.19,6.35,32.39,13.35,51.43,41.58s57.77,45.74,62.59,45.74,38.07-7,33-48.58S657.2,28.11,631.16,23.07c-26.7,4.16-56.9,9.2-81,9.85C526.33,33.58,485,40.58,485,40.58Z"/><path class="cls-2" d="M706.44,25.7c0,2.19,21,10.51,18.38,33.05-2.85,22.54,21.88,64.12,30.86,74,9.19,9.85,28.23,15.54,41.57-3.5s25.39-47.92,6.35-67.62-28.23-23.2-28.23-23.2Z"/><path class="cls-2" d="M842.12,56.78c8.53,16.85,30.63,40.26,40.7,53.83,10.07,13.79,19.92,23.64,36.11,13.79s32.39-19.7,12-42.9C909.08,73,842.12,56.78,842.12,56.78Z"/><path class="cls-2" d="M974.51,96.17c.66,7,12,26.7-13.34,28.23-25.39,1.31-50.56,11.16-54.28,40.7s7,33.7,37.21,23.2,40.7,6.34,49.89,14,77.47-2.18,70.25-33.7c-7-31.73-28.89-68.27-28.89-68.27S973.86,88.29,974.51,96.17Z"/><path class="cls-2" d="M1144.55,105.8s-23.63,55.58-4.59,76.59c19.26,20.79,77.9,17.29,95.19-1.31s7.22-64.34,7.22-64.34Z"/><path class="cls-2" d="M1298.84,120.68s-.66,64.77,64.77,56.9c65.43-7.66,60.4-40.05,56.24-48.59C1415.48,120.68,1339.54,132.06,1298.84,120.68Z"/><path class="cls-2" d="M1493,136.21s12.69,25.39,7.66,32.39l-5,7,88-5s16.85-25.38-4.16-29.54S1493,136.21,1493,136.21Z"/><ellipse class="cls-3" cx="93.03" cy="51.96" rx="7.88" ry="9.19"/></svg>