<svg id="Layer_1" data-name="Layer 1" xmlns="http://www.w3.org/2000/svg" viewBox="0 0 472.5 426.21"><defs><style>.cls-1{fill:#94ad38;}.cls-2{fill:#81992b;}.cls-3{fill:#272525;}</style></defs><title>t-rex</title><path class="cls-1" d="M291.14,270.07v25.48c0,.48,0,1,0,1.44a47.56,47.56,0,0,1-47.54,46.12V377h6.34a16.89,16.89,0,0,1,16.89,16.89H234.92A17.89,17.89,0,0,1,217,376V238.49Z"/><path class="cls-1" d="M421.92,81H361.08l17.78,18.92h42.28L410.33,124h-68.4l-.74,65.39a91.73,91.73,0,0,1-91.72,90.7H226.59l-18.77.52-55.42,1.54A150.76,150.76,0,0,1,60.58,393.91l8.75-13.09a127.55,127.55,0,0,0,21.52-70.89A178.09,178.09,0,0,1,268.93,131.84L283.82,69A47.66,47.66,0,0,1,330.21,32.3a48.85,48.85,0,0,1,7.55.59,48.14,48.14,0,0,1,7.36,1.79l76.8,25.26V81Z"/><path class="cls-1" d="M226.58,265.42v30.13A47.56,47.56,0,0,1,179,343.11h0V377h6.34a16.89,16.89,0,0,1,16.89,16.88H170.37A17.88,17.88,0,0,1,152.48,376V334.54a20.45,20.45,0,0,1,8.18-16.37L179,304.39l-12.5-7.89A43.71,43.71,0,0,1,165,223.65h0l16.6-.89A42.71,42.71,0,0,1,226.58,265.42Z"/><path class="cls-2" d="M319.81,207.06a5.54,5.54,0,0,0,5.53-5.53V189.36a5.54,5.54,0,0,0-5.53-5.53H307.75l10.93-14.35a5.53,5.53,0,0,0-8.8-6.7L292.18,186a5.53,5.53,0,0,0,4.4,8.88h17.7v6.64A5.53,5.53,0,0,0,319.81,207.06Z"/><circle class="cls-3" cx="353.4" cy="56.93" r="6.49"/></svg>