<?xml version="1.0" encoding="utf-8"?>
<!-- Generator: Adobe Illustrator 23.0.1, SVG Export Plug-In . SVG Version: 6.00 Build 0)  -->
<svg version="1.1" id="Layer_1" xmlns="http://www.w3.org/2000/svg" xmlns:xlink="http://www.w3.org/1999/xlink" x="0px" y="0px"
	 viewBox="0 0 2103.9 576" style="enable-background:new 0 0 2103.9 576;" xml:space="preserve">
<style type="text/css">
	.st0{fill:#CC6666;}
	.st1{fill:#993333;}
	.st2{fill:#030303;}
</style>
<title>wintonotitan_1</title>
<g>
	<path class="st0" d="M1916.1,0.1c-41.7-1.8-135.7,28.8-216.6,50.4s-127.4,9.1-183.5,6.6s-93.2-25.2-105.1-26.6
		c-12.2-1.8-33.1-9.7-51.5-9c-18.3,1.1-25.5-4.7-25.5-4.7s-14.3-9.8-18.3-4l-48.9-0.7c0,0-9.7-9-14.4,0l-32,1.4
		c0,0-22.6-9.7-26.6,0.7l-29.5,6.5c0,0-21.6-7.2-35.3,7.9c0,0-20.5-7.1-29.5,4c0,0-28.8-3.2-42.5,6.5c-20.2,2.1-32,2.1-48.2,11.1
		c-30.6-4.7-28.1,5.8-45.7,16.2c-35.3-0.7-37.1,7.2-37.8,12.9c-6.5-1.4-23,0-28.8,5.8c-5.4,5.8-14.4,5.8-14.4,5.8
		c-7.9-4.7-16.2,0.7-27,4.3c-19.8-6.1-39.6,6.1-39.6,6.1l-32,0.7c-6.1-5-13.3-3.3-19.1,0.7l-21.6,0.7c-5.4-1.8-19.8-5.8-25.6,1.4
		l-24.1,1.4c-11.2-9.4-22.3-4.7-22.3-4.7s-24.1,3.3-32-0.7c-7.9-4.3-11.9-3.2-21.6,1.4c-9.7,5,7.2,4.7-112.3-4.7s-250.8,3.2-295.1,9
		c-26.3,9.7-107.9,22.3-166.6,31.3c-54.7,1.8-41.7,6.5-41.7,6.5c37.1,25.9,107.6,25.9,217.3,20.1s218.1,23.1,264.5,36
		s200.4,45.6,282.1,58.6c84.9,3.2,81.7,28.8,91.4,43.2s48.2,24.8,58.7,31.3c16.9,31.3,48.2,43.2,76.3,53.6s117.7,7.9,138.5-3.2
		s97.2-15.1,97.2-15.1s154.7,0.7,173.8-9.7c19.1-10.4,65.5-45.7,78.4-68c13-22.3,15.1-30.6,72.3-52.9s216-97.9,255.2-113
		c39.2-15.1,92.1-10.4,133.9-13.7c41.7-3.2,99.7,17.6,118,23.4c18.3,5.8,37.8-1.4,31.3-10.4c-10.4-1.8-14.4-9-14.4-9
		c7.3,1.9,14.8,2.9,22.3,3.2c11.9-18.7,4.7-37.1-16.2-48.2c-18.3-4-34.2-20.9-47.1-36c-12.6-15.5-46.4-16.2-46.4-16.2
		S1957.8,1.9,1916.1,0.1z"/>
	<path class="st1" d="M1360.1,319.6c-22.3,42.8-19.1,87.4-17.6,100.4c1.4,13,60.8,87.5,60.8,87.5s1.5,18.3,4,25.5
		c2.5,7.2,21.6,9.3,31.3,11.9s24.1-3.2,24.1-3.2l19.1,9l-4.7-11.9l4.7-4l15.1,9l-4-9l9-0.7c0,0,1.4-2.5-9-7.2
		c-10.4-5-23.8-18.7-29.5-44.3c-5.4-25.9-17.6-40.3-39.2-73c-21.6-32.7-2.5-75.2-2.5-75.2L1360.1,319.6z"/>
	<path class="st1" d="M1017.6,383c0,32-5.8,34.5-16.9,28.8c0,0-46.8,50.4-69.1,71.3s-14.4,34.5-11.9,46.4
		c17.6,7.9,20.2,14.4,20.2,14.4h-4.7l-0.7,7.9c-3.3-1.1-6.6-2.4-9.7-4c-3.2-1.8,0,4.7,0,4.7s-15.1,5.4-49.7,1.4s-28.1-5-30.6-17.6
		s-1.8-23.8,0.7-53.6s45-78.4,69.1-105.1c24.1-26.3,21.6-25.5,21.6-25.5C979.8,328.6,1017.6,351,1017.6,383z"/>
	<path class="st0" d="M1461.6,226.8c11.2,33.5,7.9,64.8-3.2,84.9c-11.5,20.1-73.8,66.6-97.2,83.5s-22.4,14.8-24.8,51.5
		s4.7,46.4,4,60.8c-1.1,14.4,3.2,28.8,15.1,43.2s4.7,16.9,4.7,16.9h-5.8l-3.2-7.2l-0.7,6.5c-16.3,1-32.7,0.8-48.9-0.7
		c-25.9-2.5-25.2,0-26.6-13.7c-1.4-13.7,1.8-26.6-4.7-45.7c-6.5-19.4-26.6-87.4-23.4-115.5s36.7-57.9,64-94.6
		c27.3-37.1,13.7-59.4,13.7-59.4C1346.1,177.1,1450.4,193.3,1461.6,226.8z"/>
	<path class="st0" d="M889.4,277.1c9.7,27.4,52.2,43.2,93.9,77.7c41.7,34.2,41.7,68,41.7,68c5.8,28.8,19.4,52.9,33.8,78.4
		s4.7,24.9,11.2,34.5s7.2,20.8,12.9,32c5.8,1.5,13.7,4,13.7,4s35.3,1.8,43.2,3.2c5,0.9,10.1,1.1,15.2,0.8l-1.4-4l24.1,0.7v-5.8
		l11.2,0.7c0,0-3.3-16.9-23.4-27.3c-6.5-10.4-11.2-14.4-11.2-14.4l-4.7-16.2c-10.4-30.2-14.4-124.9-24.1-173.1
		c-9.3-47.9-64-131.4-64-131.4C934.8,121.7,880.5,249.4,889.4,277.1z"/>
	<path class="st2" d="M2087,89.7c-5,4.7-12.9-6.5-12.9-6.5S2092,85,2087,89.7z"/>
	<circle class="st2" cx="2006" cy="47.2" r="7.9"/>
</g>
</svg>
