<svg xmlns="http://www.w3.org/2000/svg" viewBox="0 0 2103.85 576"><defs><style>.cls-1{fill:#c66;}.cls-2{fill:#933;}.cls-3{fill:#030303;}</style></defs><title>wintonotitan_1</title><g id="Layer_2" data-name="Layer 2"><path class="cls-1" d="M115.47,18.43s-33.82.72-46.42,16.19c-12.95,15.11-28.79,32-47.14,36C1,81.76-6.15,100.11,5.72,118.82A107.83,107.83,0,0,0,28,115.58s-4,7.2-14.39,9c-6.48,9,13,16.19,31.3,10.44s76.29-26.63,118-23.39,94.64-1.44,133.86,13.67S494.74,216,552,238.29s59.37,30.59,72.32,52.9,59.38,57.57,78.45,68,173.8,9.71,173.8,9.71,76.29,4,97.16,15.12,110.47,13.67,138.54,3.23,59.37-22.31,76.28-53.61c10.44-6.48,48.94-16.91,58.66-31.31s6.47-39.94,91.4-43.18c81.68-13,235.69-45.7,282.11-58.65s154.73-41.74,264.48-36,180.28,5.76,217.35-20.15c0,0,12.95-4.68-41.74-6.48-58.66-9-140.34-21.59-166.61-31.3-44.26-5.76-175.6-18.35-295.07-9s-102.55,9.72-112.27,4.68c-9.71-4.68-13.67-5.76-21.59-1.44-7.92,4-32,.72-32,.72s-11.16-4.68-22.31,4.68l-24.11-1.44c-5.76-7.2-20.16-3.24-25.55-1.44l-21.59-.72c-5.76-4-13-5.76-19.07-.72l-32-.72S1268.76,89,1249,95.07c-10.8-3.59-19.07-9-27-4.31,0,0-9,0-14.39-5.76-5.76-5.76-22.31-7.2-28.79-5.76-.72-5.76-2.52-13.67-37.78-12.95-17.64-10.44-15.12-20.87-45.7-16.2-16.2-9-28.07-9-48.22-11.15-13.68-9.72-42.46-6.48-42.46-6.48-9-11.15-29.51-4-29.51-4-13.67-15.11-35.27-7.91-35.27-7.91l-29.5-6.48c-4-10.44-26.63-.72-26.63-.72L851.7,12c-4.67-9-14.39,0-14.39,0l-48.94.72c-4-5.76-18.35,4-18.35,4s-7.2,5.76-25.55,4.68c-18.35-.72-39.22,7.19-51.46,9-11.87,1.44-48.93,24.11-105.07,26.63S485.39,72,404.42,50.45,229.54-1.72,187.8.08,115.47,18.43,115.47,18.43Z"/><path class="cls-2" d="M682.22,334.37s19.07,42.46-2.52,75.2-33.82,47.14-39.22,73.05c-5.76,25.55-19.07,39.22-29.51,44.26-10.43,4.68-9,7.2-9,7.2l9,.72-4,9,15.12-9,4.67,4-4.67,11.87,19.07-9s14.39,5.75,24.11,3.23,28.78-4.67,31.3-11.87,4-25.55,4-25.55S759.94,433,761.38,420s4.68-57.58-17.63-100.4Z"/><path class="cls-2" d="M1168,352s-2.52-.72,21.59,25.55c24.11,26.63,66.57,75.2,69.09,105.07s3.24,41,.72,53.62,4,13.67-30.58,17.63-49.66-1.44-49.66-1.44,3.24-6.48,0-4.68a77,77,0,0,1-9.72,4l-.72-7.92H1164s2.52-6.47,20.16-14.39c2.51-11.87,10.43-25.55-11.88-46.42s-69.09-71.25-69.09-71.25c-11.15,5.76-16.91,3.24-16.91-28.78S1124.1,328.61,1168,352Z"/><path class="cls-1" d="M779.38,237.21s-13.68,22.31,13.67,59.37c27.35,36.71,60.81,66.57,64.05,94.64s-16.91,96.08-23.39,115.51c-6.48,19.07-3.24,32-4.68,45.7s-.72,11.16-26.62,13.67a314.94,314.94,0,0,1-48.94.72l-.72-6.47-3.24,7.19h-5.76s-7.19-2.52,4.68-16.91,16.19-28.79,15.11-43.18c-.72-14.39,6.48-24.11,4-60.81s-1.44-34.55-24.83-51.46S657,331.85,645.52,311.7c-11.16-20.15-14.4-51.46-3.24-84.92S757.79,177.12,779.38,237.21Z"/><path class="cls-1" d="M1042.42,205.18s-54.7,83.49-64.05,131.35c-9.72,48.22-13.68,142.85-24.11,173.08l-4.68,16.19s-4.68,4-11.15,14.4C918.27,550.63,915,567.54,915,567.54l11.15-.72v5.76l24.11-.72-1.44,4A60.89,60.89,0,0,0,964,575.1c7.92-1.44,43.18-3.24,43.18-3.24s7.92-2.52,13.68-4c5.76-11.15,6.48-22.31,12.95-32s-3.24-9,11.16-34.55,28.07-49.65,33.82-78.44c0,0,0-33.83,41.74-68,41.75-34.55,84.21-50.38,93.92-77.73C1223.42,249.45,1169.08,121.7,1042.42,205.18Z"/><path class="cls-3" d="M29.83,83.2s-7.92,11.15-12.95,6.48S29.83,83.2,29.83,83.2Z"/><circle class="cls-3" cx="97.84" cy="47.22" r="7.92"/></g></svg>