<svg xmlns="http://www.w3.org/2000/svg" viewBox="0 0 600 600"><defs><style>.cls-1{fill:#933;}.cls-2{fill:#c66;}</style></defs><title>jAlvarezsaurus</title><g id="Layer_17" data-name="Layer 17"><rect class="cls-1" x="408.39" y="338.2" width="50.4" height="16.2" rx="7.02" transform="translate(753.12 -107.37) rotate(86.54)"/><path class="cls-1" d="M363.28,370.59l-6.38-.52,4.46-54.88-29.84-2.42L326,381.31H326a11.52,11.52,0,0,0,10.56,11.92l24.72,2a11.54,11.54,0,0,0,12.43-10.57l.14-1.66A11.54,11.54,0,0,0,363.28,370.59Z"/><path class="cls-2" d="M539.93,245.38H586.7s8.91-27.47-23.38-36.38-57.54-4.45-67.93,18.19S483.51,280.27,448.62,258,335,234.24,262.28,249.09c-105.42,0-64.59-9.65-114.33-9.65-31.26,0-114.91-5.2-135.78,17.82,9.57,5.2,26.64-11.88,71.19-8.17,103.19,3,110.62,40.53,176,40.53,39.4,0,45.28,3.27,45.28,3.27,6.68,13.37,47.52,51.23,150.71,42.32,38.6-10.39,45.28-27.47,53.45-46S514,245.38,539.93,245.38Z"/><path class="cls-2" d="M397.28,367.05l-6,.5L387,315.77l-28.15,2.33,5.35,64.67h0a10.87,10.87,0,0,0,11.67,9.49l23.31-1.93a10.9,10.9,0,0,0,10-11.75L409,377A10.9,10.9,0,0,0,397.28,367.05Z"/><rect class="cls-2" x="430.91" y="338.18" width="56.43" height="18.14" rx="7.86" transform="translate(778.08 -131.97) rotate(86.54)"/><circle cx="541.56" cy="224.16" r="7.94"/><path class="cls-1" d="M400.06,242.22s5.68,20.26,0,28.52L394.38,279s5.79-28.26,0-38.92C394.38,240.08,398.94,237.37,400.06,242.22Z"/><path class="cls-1" d="M391.86,242.22s5.68,20.26,0,28.52L386.18,279s5.79-28.26,0-38.92C386.18,240.08,390.74,237.37,391.86,242.22Z"/><path class="cls-1" d="M383.66,242.22s5.68,20.26,0,28.52L378,279s5.78-28.26,0-38.92C378,240.08,382.54,237.37,383.66,242.22Z"/><path class="cls-1" d="M375.46,242.22s5.68,20.26,0,28.52L369.79,279s5.78-28.26,0-38.92C369.79,240.08,374.34,237.37,375.46,242.22Z"/></g></svg>