<?xml version="1.0" encoding="utf-8"?>
<!-- Generator: Adobe Illustrator 23.0.1, SVG Export Plug-In . SVG Version: 6.00 Build 0)  -->
<svg version="1.1" id="Layer_1" xmlns="http://www.w3.org/2000/svg" xmlns:xlink="http://www.w3.org/1999/xlink" x="0px" y="0px"
	 viewBox="0 0 599.8 599.8" style="enable-background:new 0 0 599.8 599.8;" xml:space="preserve">
<style type="text/css">
	.st0{fill:#B2B3B2;}
	.st1{fill:#C4C4C4;}
	.st2{fill:#030303;}
	.st3{fill:#F5F6D4;}
	.st4{fill:#FCF1C6;}
</style>
<g id="B-Ampleosaurus">
	<g id="A-Ampleosaurus_1_">
		<path class="st0" d="M156.7,282c3-1.2,6-2.6,8.8-4.1c20-10.1,122.8-57.9,196-19.2c63.6,33.7,23.4,27.2,30.5,24.5
			c8.4-8.8,66.2-81.4,80-88.5c61.8-31.6,78.3-23.1,92.5-23.1c15.7,0,17.9,34.9,17.9,34.9c2.9,9.3-9.7,2.9-9.7,2.9
			s11.1,16.9,4.7,12.2c-6.4-4.7-35.1-15.1-42.9-14c-48.1,7-84.4,46-98,87.2c-7.9,23.9-19.4,46.6-35.2,66.3c-1.1,1.4-2.2,2.9-3.6,4.8
			c-0.2,0.4-62.6,20.6-62.8,21c-16,9.4-70.4,5.2-105,1.3c-25.3-2.8-50-10-72.5-21.9c-3.7-1.9-6.8-3.1-16.4-5
			c-46.2-9.1-88.3-32.8-119.2-68.4c-0.6-0.6-1.2-1.4-1.8-2.1c-6-7-3.3-22,9.2-49c9.9-21.5,11.6-31.8,96.7-88.8
			c1.4-10.9-172.3,165.9-19.5,133.3"/>
		<path class="st1" d="M564.5,171.8c0,0-37.9-7.7-22.5,36.3c19.3,8.4,35.4,13.8,35.4,13.8s7.1,2.9-4.7-12.2
			c8.1,2.1,10.6,5.1,9.7-2.9C581.4,198.6,578.2,169.4,564.5,171.8z"/>
		<ellipse class="st2" cx="567.3" cy="189.9" rx="3.6" ry="4.2"/>
		<polygon class="st3" points="216.7,297.6 222.4,287.5 232.3,286.8 239,295.9 237.3,308.1 228.6,314 219.4,309.4 		"/>
		<polygon class="st3" points="181.1,299.9 183.8,292.9 190,291.2 194.9,296 194.9,303.8 190,308.6 183.8,306.9 		"/>
		<polygon class="st3" points="143.8,302.6 148.2,298.2 153.8,299.7 156.3,306.1 153.8,312.4 148.3,314.1 143.8,309.7 		"/>
		<polygon class="st3" points="125.8,308.6 128.7,306.2 132.1,307.5 133.3,311.6 131.5,315.3 128,315.9 125.5,312.9 		"/>
		<polygon class="st3" points="102.9,320.9 104.3,317.2 107.5,316.3 110,318.9 110,322.9 107.5,325.4 104.3,324.5 		"/>
		<polygon class="st3" points="121.1,325.4 123,320.6 127.3,319.3 130.7,322.7 130.7,328.1 127.3,331.5 123,330.2 		"/>
		<polygon class="st3" points="198.7,346.1 202.1,340.6 207.6,340.4 211.2,345.7 210.1,352.4 205.2,355.6 200.1,352.7 		"/>
		<polygon class="st3" points="211,325.4 216.6,323.1 221.5,327.1 222.1,334.4 217.8,339.4 211.9,338.5 208.9,332.2 		"/>
		<polygon class="st3" points="202.5,306.1 206.1,301.9 211,302.7 213.5,308 211.8,313.7 207.1,315.6 202.9,312.2 		"/>
		<polygon class="st3" points="257.5,291.2 259.8,290.3 261.8,292 262,294.9 260.2,296.9 257.9,296.5 256.6,293.9 		"/>
		<polygon class="st3" points="276.4,287.5 281.8,285.8 286.3,290.2 286.3,297.1 282,301.5 276.5,300 273.9,293.7 		"/>
		<polygon class="st3" points="265.3,337.5 267.4,336.2 269.6,337.2 270.2,340.1 268.9,342.4 266.5,342.5 265,340.4 		"/>
		<polygon class="st3" points="288.3,329.8 290,328.9 291.6,329.9 291.9,332.1 290.7,333.8 288.9,333.7 287.8,331.9 		"/>
		<polygon class="st3" points="288.6,316.3 289.7,313.6 292.1,312.9 294,314.8 294,317.8 292.1,319.7 289.7,319 		"/>
		<polygon class="st3" points="276.7,316.3 278.1,312.7 281.3,311.8 283.8,314.3 283.8,318.3 281.3,320.9 278.1,320 		"/>
		<polygon class="st3" points="336.1,297.6 338.7,295.4 341.8,296.6 342.8,300.3 341.2,303.6 338.1,304.2 335.8,301.5 		"/>
		<polygon class="st3" points="375.4,276.6 378.3,274.6 381.3,276.1 382.3,280.1 380.4,283.4 377.1,283.7 374.8,280.7 		"/>
		<polygon class="st3" points="360.9,331.5 361.4,330.2 362.5,329.9 363.3,330.8 363.3,332.1 362.5,332.9 361.4,332.6 		"/>
		<polygon class="st3" points="326,339.5 327.8,334.9 331.8,333.8 335,336.9 335,342 331.8,345.1 327.8,344 		"/>
		<polygon class="st3" points="304.3,356.2 307.5,350.3 313.3,349.7 317.3,354.9 316.5,361.9 311.5,365.5 306.1,363 		"/>
		<polygon class="st3" points="278.4,357.3 279.2,355.4 280.9,354.9 282.3,356.3 282.3,358.5 280.9,359.8 279.2,359.3 		"/>
		<polygon class="st3" points="237.9,363.2 240.9,361 244.2,362.8 245.2,366.9 243.1,370.5 239.6,370.7 237.3,367.5 		"/>
		<polygon class="st3" points="351,345.1 352.4,341.5 355.6,340.6 358.2,343.1 358.2,347.2 355.6,349.7 352.4,348.8 		"/>
		<polygon class="st3" points="380.7,325.4 384.6,324.4 387.7,327.5 387.7,332.5 384.5,335.5 380.5,334.4 378.9,329.8 		"/>
		<polygon class="st3" points="360.9,308.6 363,308.4 364.5,310.2 364.2,312.8 362.4,314.1 360.4,313.3 359.7,310.8 		"/>
		<polygon class="st3" points="313.3,327 315.8,326.3 317.8,328.3 317.9,331.5 315.8,333.5 313.3,332.8 312.2,330 		"/>
		<polygon class="st3" points="294,275.8 298,272.6 302.5,274.5 304.1,280 301.6,285 296.9,285.7 293.6,281.7 		"/>
		<polygon class="st3" points="244.5,296.8 244.8,295.9 245.6,295.6 246.2,296.3 246.2,297.3 245.6,297.9 244.8,297.7 		"/>
	</g>
	<path class="st0" d="M75.8,323.4"/>
	<circle class="st0" cx="577.6" cy="204.4" r="1.1"/>
	<path class="st0" d="M193.9,446.9L193.9,446.9c-10.4,0-19-8.5-19-19v-49.1c0-10.4,8.5-19,19-19l0,0c10.4,0,19,8.5,19,19v49.1
		C212.8,438.3,204.3,446.9,193.9,446.9z"/>
	<path class="st0" d="M358.2,446.9L358.2,446.9c-10.4,0-19-8.5-19-19v-49.1c0-10.4,8.5-19,19-19l0,0c10.4,0,19,8.5,19,19v49.1
		C377.1,438.3,368.6,446.9,358.2,446.9z"/>
	<path class="st0" d="M392.8,431.2L392.8,431.2c-10.4,0-19-8.5-19-19v-49.1c0-10.4,8.5-19,19-19l0,0c10.4,0,19,8.5,19,19v49.1
		C411.8,422.7,403.2,431.2,392.8,431.2z"/>
	<path class="st0" d="M222.2,431.2L222.2,431.2c-10.4,0-19-8.5-19-19v-49.1c0-10.4,8.5-19,19-19l0,0c10.4,0,19,8.5,19,19v49.1
		C241.2,422.7,232.6,431.2,222.2,431.2z"/>
	<path class="st4" d="M192.7,432.8c4.2-5.4,10.3-9.4,14.4,2.4c2.4,6.9-4.8,13.2-11.3,10c-0.1-0.1-0.2-0.1-0.3-0.1
		C191,442.8,189.5,436.8,192.7,432.8z"/>
	<path class="st4" d="M202.2,430.4c3.9-5.4,9.1-9.7,11.4,1c1.4,6.2-5,12.8-10,10.3c-0.1-0.1-0.1-0.1-0.2-0.1
		C199.9,439.9,199.2,434.5,202.2,430.4z"/>
	<path class="st4" d="M225.7,418c4.2-5.4,10.3-9.4,14.4,2.4c2.4,6.9-4.8,13.2-11.3,10c-0.1-0.1-0.2-0.1-0.3-0.1
		C224,427.9,222.6,422,225.7,418z"/>
	<path class="st4" d="M235.2,415.6c3.9-5.4,9.1-9.7,11.4,1c1.4,6.2-5,12.8-10,10.3c-0.1-0.1-0.1-0.1-0.2-0.1
		C232.9,425.1,232.3,419.6,235.2,415.6z"/>
	<path class="st4" d="M357.9,433.6c4.2-5.4,10.3-9.4,14.4,2.4c2.4,6.9-4.8,13.2-11.3,10c-0.1-0.1-0.2-0.1-0.3-0.1
		C356.1,443.6,354.7,437.6,357.9,433.6z"/>
	<path class="st4" d="M367.3,431.2c3.9-5.4,9.1-9.7,11.4,1c1.4,6.2-5,12.8-10,10.3c-0.1-0.1-0.1-0.1-0.2-0.1
		C365,440.7,364.3,435.3,367.3,431.2z"/>
	<path class="st4" d="M393,418c4.2-5.4,10.3-9.4,14.4,2.4c2.4,6.9-4.8,13.2-11.3,10c-0.1-0.1-0.2-0.1-0.3-0.1
		C391.2,427.9,389.8,422,393,418z"/>
	<path class="st4" d="M402.4,415.6c3.9-5.4,9.1-9.7,11.4,1c1.4,6.2-5,12.8-10,10.3c-0.1-0.1-0.1-0.1-0.2-0.1
		C400.1,425.1,399.5,419.6,402.4,415.6z"/>
</g>
</svg>
