<?xml version="1.0" encoding="utf-8"?>
<!-- Generator: Adobe Illustrator 23.0.3, SVG Export Plug-In . SVG Version: 6.00 Build 0)  -->
<svg version="1.0" id="Layer_1" xmlns="http://www.w3.org/2000/svg" xmlns:xlink="http://www.w3.org/1999/xlink" x="0px" y="0px"
	 viewBox="0 0 400 400" style="enable-background:new 0 0 400 400;" xml:space="preserve">
<style type="text/css">
	.st0{fill:#B2B3B2;}
	.st1{fill:#C4C4C4;}
	.st2{fill:#030303;}
	.st3{fill:#F5F6D4;}
	.st4{fill:#FCF1C6;}
</style>
<g id="B-Ampleosaurus">
	<g id="A-Ampleosaurus_1_">
		<path class="st0" d="M181.53,197.56c0.51-0.21,1.01-0.44,1.5-0.69c3.4-1.71,20.83-9.83,33.26-3.25c10.8,5.71,3.97,4.61,5.17,4.16
			c1.43-1.5,11.23-13.82,13.57-15.01c10.48-5.36,13.29-3.92,15.69-3.92c2.67,0,3.03,5.93,3.03,5.93c0.49,1.58-1.64,0.49-1.64,0.49
			s1.88,2.87,0.79,2.07c-1.09-0.79-5.96-2.56-7.28-2.37c-8.16,1.19-14.32,7.8-16.63,14.8c-1.34,4.06-3.3,7.9-5.97,11.25
			c-0.18,0.23-0.38,0.5-0.61,0.81c-0.04,0.06-10.62,3.5-10.65,3.57c-2.71,1.59-11.94,0.88-17.82,0.22
			c-4.29-0.48-8.48-1.69-12.3-3.71c-0.62-0.33-1.15-0.53-2.78-0.85c-7.84-1.54-14.99-5.56-20.22-11.6c-0.1-0.11-0.2-0.23-0.3-0.35
			c-1.02-1.19-0.56-3.73,1.56-8.32c1.68-3.64,1.96-5.39,16.41-15.06c0.24-1.85-29.23,28.15-3.31,22.62"/>
		<path class="st1" d="M250.72,178.85c0,0-6.43-1.31-3.82,6.16c3.28,1.42,6,2.34,6,2.34s1.21,0.49-0.79-2.07
			c1.37,0.35,1.8,0.87,1.64-0.49C253.59,183.41,253.05,178.45,250.72,178.85z"/>
		<ellipse class="st2" cx="251.2" cy="181.93" rx="0.61" ry="0.72"/>
		<polygon class="st3" points="191.7,200.2 192.67,198.49 194.36,198.37 195.49,199.92 195.21,201.98 193.73,202.99 192.17,202.2 		
			"/>
		<polygon class="st3" points="185.67,200.59 186.13,199.41 187.17,199.12 188,199.94 188,201.25 187.17,202.07 186.13,201.78 		"/>
		<polygon class="st3" points="179.33,201.05 180.08,200.3 181.03,200.56 181.46,201.64 181.04,202.72 180.1,203 179.33,202.26 		
			"/>
		<polygon class="st3" points="176.29,202.07 176.78,201.67 177.35,201.89 177.55,202.58 177.25,203.21 176.66,203.31 176.23,202.8 
					"/>
		<polygon class="st3" points="172.39,204.15 172.63,203.53 173.18,203.38 173.61,203.81 173.61,204.49 173.18,204.92 
			172.63,204.77 		"/>
		<polygon class="st3" points="175.49,204.92 175.81,204.1 176.53,203.89 177.11,204.46 177.11,205.38 176.53,205.95 175.81,205.74 
					"/>
		<polygon class="st3" points="188.66,208.43 189.23,207.5 190.17,207.47 190.78,208.36 190.59,209.5 189.75,210.04 188.89,209.56 
					"/>
		<polygon class="st3" points="190.74,204.92 191.69,204.53 192.53,205.21 192.62,206.44 191.9,207.3 190.9,207.14 190.39,206.08 		
			"/>
		<polygon class="st3" points="189.3,201.65 189.91,200.93 190.74,201.07 191.17,201.97 190.87,202.94 190.07,203.26 189.37,202.68 
					"/>
		<polygon class="st3" points="198.63,199.12 199.02,198.97 199.36,199.25 199.39,199.75 199.09,200.09 198.69,200.02 
			198.48,199.58 		"/>
		<polygon class="st3" points="201.83,198.49 202.76,198.21 203.51,198.94 203.52,200.12 202.78,200.86 201.85,200.61 
			201.42,199.55 		"/>
		<polygon class="st3" points="199.96,206.98 200.31,206.75 200.68,206.93 200.79,207.41 200.56,207.81 200.16,207.83 199.9,207.47 
					"/>
		<polygon class="st3" points="203.86,205.66 204.14,205.51 204.41,205.69 204.46,206.06 204.26,206.35 203.96,206.33 
			203.78,206.03 		"/>
		<polygon class="st3" points="203.91,203.38 204.09,202.92 204.5,202.8 204.82,203.12 204.82,203.64 204.5,203.96 204.09,203.84 		
			"/>
		<polygon class="st3" points="201.88,203.38 202.12,202.76 202.67,202.61 203.1,203.04 203.1,203.72 202.67,204.15 202.12,204 		
			"/>
		<polygon class="st3" points="211.96,200.2 212.41,199.83 212.93,200.04 213.11,200.66 212.84,201.23 212.3,201.32 211.91,200.86 
					"/>
		<polygon class="st3" points="218.63,196.64 219.12,196.3 219.64,196.56 219.8,197.23 219.48,197.8 218.92,197.85 218.54,197.33 		
			"/>
		<polygon class="st3" points="216.17,205.95 216.26,205.74 216.44,205.69 216.58,205.83 216.58,206.06 216.44,206.2 216.26,206.15 
					"/>
		<polygon class="st3" points="210.26,207.31 210.56,206.54 211.23,206.35 211.78,206.88 211.78,207.74 211.23,208.27 
			210.56,208.08 		"/>
		<polygon class="st3" points="206.58,210.14 207.12,209.14 208.1,209.04 208.77,209.92 208.64,211.12 207.79,211.73 206.87,211.3 
					"/>
		<polygon class="st3" points="202.18,210.34 202.31,210.01 202.6,209.92 202.84,210.16 202.84,210.53 202.6,210.76 202.31,210.68 
					"/>
		<polygon class="st3" points="195.3,211.33 195.82,210.97 196.37,211.26 196.54,211.97 196.19,212.57 195.59,212.61 195.2,212.06 
					"/>
		<polygon class="st3" points="214.5,208.27 214.74,207.66 215.28,207.5 215.71,207.93 215.71,208.62 215.28,209.04 214.74,208.89 
					"/>
		<polygon class="st3" points="219.53,204.92 220.2,204.75 220.73,205.28 220.72,206.13 220.18,206.64 219.51,206.44 219.23,205.67 
					"/>
		<polygon class="st3" points="216.17,202.07 216.53,202.03 216.78,202.34 216.73,202.78 216.43,203.01 216.09,202.86 
			215.98,202.44 		"/>
		<polygon class="st3" points="208.1,205.2 208.52,205.08 208.87,205.41 208.88,205.96 208.53,206.3 208.1,206.18 207.91,205.7 		
			"/>
		<polygon class="st3" points="204.82,196.51 205.5,195.97 206.26,196.28 206.54,197.21 206.12,198.06 205.32,198.19 204.75,197.5 
					"/>
		<polygon class="st3" points="196.42,200.07 196.48,199.91 196.61,199.87 196.72,199.98 196.72,200.15 196.61,200.26 
			196.48,200.22 		"/>
	</g>
	<path class="st0" d="M167.8,204.58"/>
	<circle class="st0" cx="252.94" cy="184.39" r="0.18"/>
	<path class="st0" d="M187.83,225.53L187.83,225.53c-1.77,0-3.22-1.45-3.22-3.22v-8.33c0-1.77,1.45-3.22,3.22-3.22l0,0
		c1.77,0,3.22,1.45,3.22,3.22v8.33C191.05,224.08,189.61,225.53,187.83,225.53z"/>
	<path class="st0" d="M215.71,225.53L215.71,225.53c-1.77,0-3.22-1.45-3.22-3.22v-8.33c0-1.77,1.45-3.22,3.22-3.22l0,0
		c1.77,0,3.22,1.45,3.22,3.22v8.33C218.93,224.08,217.48,225.53,215.71,225.53z"/>
	<path class="st0" d="M221.59,222.88L221.59,222.88c-1.77,0-3.22-1.45-3.22-3.22v-8.33c0-1.77,1.45-3.22,3.22-3.22l0,0
		c1.77,0,3.22,1.45,3.22,3.22v8.33C224.81,221.43,223.36,222.88,221.59,222.88z"/>
	<path class="st0" d="M192.64,222.88L192.64,222.88c-1.77,0-3.22-1.45-3.22-3.22v-8.33c0-1.77,1.45-3.22,3.22-3.22l0,0
		c1.77,0,3.22,1.45,3.22,3.22v8.33C195.86,221.43,194.41,222.88,192.64,222.88z"/>
	<path class="st4" d="M187.64,223.14c0.72-0.91,1.74-1.6,2.45,0.41c0.41,1.17-0.81,2.24-1.92,1.7c-0.02-0.01-0.03-0.02-0.05-0.02
		C187.34,224.84,187.1,223.83,187.64,223.14z"/>
	<path class="st4" d="M189.24,222.74c0.66-0.92,1.54-1.65,1.94,0.17c0.23,1.05-0.85,2.17-1.69,1.75c-0.01-0.01-0.02-0.01-0.04-0.02
		C188.85,224.35,188.74,223.43,189.24,222.74z"/>
	<path class="st4" d="M193.24,220.63c0.72-0.91,1.74-1.6,2.45,0.41c0.41,1.17-0.81,2.24-1.92,1.7c-0.02-0.01-0.03-0.02-0.05-0.02
		C192.94,222.32,192.7,221.31,193.24,220.63z"/>
	<path class="st4" d="M194.84,220.23c0.66-0.92,1.54-1.65,1.94,0.17c0.23,1.05-0.85,2.17-1.69,1.75c-0.01-0.01-0.02-0.01-0.04-0.02
		C194.45,221.84,194.35,220.91,194.84,220.23z"/>
	<path class="st4" d="M215.66,223.28c0.72-0.91,1.74-1.6,2.45,0.41c0.41,1.17-0.81,2.24-1.92,1.7c-0.02-0.01-0.03-0.02-0.05-0.02
		C215.36,224.97,215.12,223.96,215.66,223.28z"/>
	<path class="st4" d="M217.26,222.88c0.66-0.92,1.54-1.65,1.94,0.17c0.23,1.05-0.85,2.17-1.69,1.75c-0.01-0.01-0.02-0.01-0.04-0.02
		C216.87,224.49,216.76,223.57,217.26,222.88z"/>
	<path class="st4" d="M221.62,220.63c0.72-0.91,1.74-1.6,2.45,0.41c0.41,1.17-0.81,2.24-1.91,1.7c-0.02-0.01-0.03-0.02-0.05-0.02
		C221.32,222.32,221.08,221.31,221.62,220.63z"/>
	<path class="st4" d="M223.22,220.23c0.66-0.92,1.54-1.65,1.94,0.17c0.23,1.05-0.85,2.17-1.69,1.75c-0.01-0.01-0.02-0.01-0.04-0.02
		C222.83,221.84,222.72,220.91,223.22,220.23z"/>
</g>
</svg>
