<?xml version="1.0" encoding="utf-8"?>
<!-- Generator: Adobe Illustrator 23.0.3, SVG Export Plug-In . SVG Version: 6.00 Build 0)  -->
<svg version="1.0" id="Layer_1" xmlns="http://www.w3.org/2000/svg" xmlns:xlink="http://www.w3.org/1999/xlink" x="0px" y="0px"
	 viewBox="0 0 400 400" style="enable-background:new 0 0 400 400;" xml:space="preserve">
<style type="text/css">
	.st0{fill:#FFE2B3;}
	.st1{fill:#BCDC9B;}
	.st2{fill:#BAD6A5;}
	.st3{fill:#010101;}
	.st4{fill:#F8F6BD;}
</style>
<g id="B-Ankylosaurus">
	<path class="st0" d="M245.04,184.55l1.62,1.75c0.87,0.94,0.39,2.47-0.86,2.75l-2.32,0.52c-1.25,0.28-2.34-0.9-1.95-2.12l0.71-2.27
		C242.61,183.96,244.17,183.61,245.04,184.55z"/>
	<path class="st0" d="M238.6,206.41l2.18,0.96c1.17,0.52,1.34,2.11,0.31,2.87l-1.92,1.4c-1.03,0.76-2.5,0.11-2.64-1.17l-0.25-2.37
		C236.13,206.84,237.43,205.89,238.6,206.41z"/>
	<path class="st1" d="M245.51,205.31c-1.67-0.06,0.04-0.99-0.52-1.8s1.97-1.44,1.97-1.44l7.25,2.56c1.04-2.03,1.54-4.39,1.25-6.89
		c-0.63-5.53-5.07-10.02-10.6-10.66c-7.89-0.92-14.5,5.74-13.48,13.65c0.69,5.41,5.07,9.76,10.48,10.43c3.9,0.48,7.48-0.89,10-3.35
		c0.77-0.76,0.32-2.07-0.76-2.14C248.79,205.5,246.32,205.34,245.51,205.31z"/>
	<g>
		<path class="st1" d="M246.14,205.3c-1.08-0.08-1.15-1.79-1.15-1.79s1.13-1.44,1.97-1.44c0.52,0,3.55,1.11,5.81,1.97l2.25,0.19
			l-0.01,0.22c1.57-0.85-0.45-6.03-3.84-7.82c-1.08-2.61-7.46-2.83-10.32-2.79c-0.82,0.01-1.6-0.48-2.04-1.32
			c-10.48-19.87-48.37-12.36-53.16-2.02c-4.28,9.25-21.16,11.05-25.29,11.36c-0.6,0.04-1.16,0.35-1.58,0.86v0
			c-1.68,2.03-0.21,5.48,2.13,4.99c6.38-1.35,14.99-2.46,19.35,0.04c0.1,0.06,0.2,0.12,0.29,0.2c24.17,18.65,43.43,2.24,45.75,0.11
			c0.17-0.16,0.36-0.29,0.57-0.38c1.58-0.76,9.25-5.58,12.6-2.16c2.72,2.78,8.84,1.58,12.64,0.21
			C249.95,205.56,246.83,205.34,246.14,205.3z"/>
		<path class="st1" d="M254.47,204.69c0.03-0.02,0.08-0.04,0.11-0.06l-0.33-0.03C254.33,204.63,254.41,204.66,254.47,204.69z"/>
	</g>
	<circle class="st0" cx="151.91" cy="203.61" r="9.49"/>
	<path class="st2" d="M184.77,194.35c8.01,1.38,37.36,5.6,50.48-4.16c0.75-0.56,2.46-0.21,0.19-2.34
		c-8.48-8.85-24.37-7.84-25.53-7.75c-0.05,0-0.08,0-0.13,0c-1.26-0.03-19.55-0.34-22.61,7.79c-1.01-0.11-2.53,2.36-3.5,4.18
		C183.16,193.01,183.72,194.17,184.77,194.35z"/>
	<path class="st0" d="M195.45,190.03L195.45,190.03c1.28,0,2.08,1.39,1.44,2.5v0c-0.64,1.11-2.24,1.11-2.88,0v0
		C193.37,191.42,194.17,190.03,195.45,190.03z"/>
	<path class="st0" d="M216.25,188.62L216.25,188.62c1.28,0,2.08,1.39,1.44,2.5l0,0c-0.64,1.11-2.24,1.11-2.88,0l0,0
		C214.17,190.01,214.97,188.62,216.25,188.62z"/>
	<path class="st0" d="M225.72,187.54L225.72,187.54c1.28,0,2.08,1.39,1.44,2.5l0,0c-0.64,1.11-2.24,1.11-2.88,0l0,0
		C223.64,188.93,224.44,187.54,225.72,187.54z"/>
	<path class="st0" d="M206.8,187.54L206.8,187.54c1.28,0,2.08,1.39,1.44,2.5l0,0c-0.64,1.11-2.24,1.11-2.88,0l0,0
		C204.72,188.93,205.52,187.54,206.8,187.54z"/>
	<path class="st0" d="M190.59,187.04L190.59,187.04c-0.11-1.06,0.92-1.88,1.92-1.52l0,0c1,0.36,1.29,1.64,0.53,2.39l0,0
		C192.18,188.77,190.72,188.24,190.59,187.04z"/>
	<path class="st0" d="M200.47,183.01L200.47,183.01c0.53-0.92,1.85-0.97,2.45-0.09l0,0c0.6,0.88,0.07,2.09-0.98,2.24h0
		C200.73,185.34,199.86,184.06,200.47,183.01z"/>
	<path class="st0" d="M211.84,181.89L211.84,181.89c0.76-0.75,2.04-0.45,2.38,0.56v0c0.34,1.01-0.49,2.03-1.54,1.9h0
		C211.48,184.21,210.98,182.74,211.84,181.89z"/>
	<path class="st0" d="M219.24,182.71L219.24,182.71c0.76-0.75,2.04-0.45,2.38,0.56l0,0c0.34,1.01-0.49,2.03-1.54,1.9l0,0
		C218.88,185.03,218.38,183.56,219.24,182.71z"/>
	<path class="st0" d="M229.93,184.48L229.93,184.48c1.05-0.16,1.91,0.84,1.59,1.86v0c-0.32,1.02-1.59,1.35-2.37,0.63l0,0
		C228.27,186.14,228.73,184.66,229.93,184.48z"/>
	<path class="st1" d="M257.54,204.22l-8.71-0.71L257.54,204.22z"/>
	<g>
		<path class="st0" d="M245.51,205.25l0,0.06c-0.2,0.56-0.12,3.71,0.53,5.45c0.24,0.63,0.98,0.9,1.59,0.62l2.42-1.1
			c0.9-0.46,1.94-1.62,2.77-2.64c0.6-0.75,0.11-1.86-0.84-1.93L245.51,205.25z"/>
		<path class="st0" d="M253.72,204.45c0.89,0.31,1.84-0.22,2.05-1.14c0.16-0.71,0.27-1.61,0.13-2.61l-0.36-3.06
			c-0.63-3.8-2.43-5.95-2.37-5.71l-5.21,8.5c-1.01,1.65-0.13,1.96,0.81,2.29L253.72,204.45z"/>
	</g>
	<path class="st0" d="M241.23,185.23l1.62,1.75c0.87,0.94,0.39,2.47-0.86,2.75l-2.32,0.52c-1.25,0.28-2.34-0.9-1.95-2.12l0.71-2.27
		C238.79,184.64,240.36,184.29,241.23,185.23z"/>
	<path class="st0" d="M235.99,204.99l2.18,0.96c1.17,0.52,1.34,2.11,0.31,2.87l-1.92,1.4c-1.03,0.76-2.5,0.11-2.64-1.17l-0.25-2.37
		C233.52,205.42,234.82,204.47,235.99,204.99z"/>
	<circle class="st3" cx="246.31" cy="195.34" r="1.83"/>
	<path class="st1" d="M193.25,223.68L193.25,223.68c-2.13,0-3.87-1.74-3.87-3.87v-6.9c0-2.13,1.74-3.87,3.87-3.87h0
		c2.13,0,3.87,1.74,3.87,3.87v6.9C197.12,221.94,195.38,223.68,193.25,223.68z"/>
	<path class="st1" d="M230.74,220.81L230.74,220.81c-1.84,1.06-4.22,0.43-5.29-1.42l-6.16-10.68c-1.06-1.84-0.43-4.22,1.42-5.29l0,0
		c1.84-1.06,4.22-0.43,5.29,1.42l6.16,10.68C233.22,217.36,232.58,219.74,230.74,220.81z"/>
	<path class="st4" d="M195.45,215.29c0,0,7.05-12.77,30.84-6.24c-10.4,2.42-0.81,5.45-19.49,8.32
		C198.83,217.38,198.56,216.97,195.45,215.29z"/>
	<path class="st1" d="M202.88,224.47L202.88,224.47c-1.95,0.86-4.24-0.03-5.1-1.98l-4.98-11.28c-0.86-1.95,0.03-4.24,1.98-5.1h0
		c1.95-0.86,4.24,0.03,5.1,1.98l4.98,11.28C205.72,221.31,204.83,223.61,202.88,224.47z"/>
	<path class="st1" d="M222.99,223.13L222.99,223.13c-2.13,0-3.87-1.74-3.87-3.87v-12.33c0-2.13,1.74-3.87,3.87-3.87h0
		c2.13,0,3.87,1.74,3.87,3.87v12.33C226.86,221.39,225.11,223.13,222.99,223.13z"/>
</g>
</svg>
