<?xml version="1.0" encoding="utf-8"?>
<!-- Generator: Adobe Illustrator 23.0.3, SVG Export Plug-In . SVG Version: 6.00 Build 0)  -->
<svg version="1.0" id="Layer_1" xmlns="http://www.w3.org/2000/svg" xmlns:xlink="http://www.w3.org/1999/xlink" x="0px" y="0px"
	 viewBox="0 0 400 400" style="enable-background:new 0 0 400 400;" xml:space="preserve">
<style type="text/css">
	.st0{fill:#C9E8FA;}
	.st1{fill:#F9F7E5;}
	.st2{fill:#010101;}
	.st3{fill:#F4F3B7;}
	.st4{fill:#ACC8D6;}
</style>
<g id="B-Brachiosaurus">
	<path class="st0" d="M261.8,154.16c-0.05-0.03-0.09-0.05-0.15-0.07c-1.21-0.51-15.61-6.23-15.61,10.16
		c0,14.92-13.74,29.69-17.38,32.17c-0.77,0.53-1.41,1.19-2.32,0.87c-0.01,0-0.01,0-0.02-0.01c-19.55-7.86-51.02,1.67-54.92-0.37
		c-4.01-2.1-13.86,5.59-19.44,10.48c-5.21,4.57-16.84,0.6-18.35,0.06c-0.1-0.04-0.2-0.08-0.3-0.14l-2.6-1.49
		c-1.62-0.93-3.46,0.85-2.47,2.39l0.47,0.72c0.23,0.36,0.59,0.62,1.01,0.74c3.89,1.12,23.9,6.63,24.89,1.9
		c1.09-5.24,17.88-6.64,19.42,0c1.55,6.64,19.67,16.76,19.67,16.76c14.23,8.02,36.5,1.86,41.48,0.32c0.63-0.19,1.08-0.69,1.21-1.31
		c1.84-9.07,17.23-60.98,21.3-60.32c3.22,0.51,7.65-1.82,10.7-3.64c-0.26,0.04-0.53,0.07-0.83,0.07c-1.16,0-2.6-0.39-4.29-1.54
		l0.2-0.26c2.72,1.85,4.7,1.66,5.92,1.12c0.38-0.23,0.72-0.44,1.02-0.63c0.28-0.24,0.44-0.43,0.46-0.46l0.14,0.1
		C273.28,160.47,262.76,154.69,261.8,154.16z"/>
	<path class="st0" d="M203.8,216.58c0,0,7.1,26.95,2.6,27.64c-4.5,0.69-15.61-0.19-16.24-2.48S197.61,212.33,203.8,216.58z"/>
	<path class="st1" d="M205.5,243.17c0.37-2.5,1.47-7.46,3.62-0.41c0.16,0.53-0.18,1.07-0.73,1.16l-1.87,0.28
		C205.93,244.28,205.41,243.77,205.5,243.17z"/>
	<path class="st1" d="M207.17,244.09c0,0-4.87,0.65-5.65,0.42C201.52,244.51,203.47,233,207.17,244.09"/>
	<path class="st0" d="M227.67,215.78c0,0,8.17,25.47,3.9,26.35c-4.27,0.89-14.97,0.62-15.69-1.55
		C215.16,238.41,221.52,212.02,227.67,215.78z"/>
	<path class="st1" d="M230.66,241.17c0.23-2.41,1.03-7.22,3.44-0.57c0.18,0.5-0.12,1.04-0.64,1.14l-1.78,0.36
		C231.12,242.21,230.6,241.74,230.66,241.17z"/>
	<path class="st1" d="M232.3,241.97c0,0-4.63,0.87-5.4,0.69C226.91,242.66,228.19,231.53,232.3,241.97"/>
	<path class="st0" d="M219.9,213.53c0,0,14.24,32.83,8.67,34.58c-5.57,1.75-19.85,2.79-21.09,0
		C206.23,245.32,211.21,209.34,219.9,213.53z"/>
	<path class="st0" d="M193.59,213.91c0,0,9.11,34.61,3.34,35.49s-20.04-0.24-20.85-3.19S185.63,208.45,193.59,213.91z"/>
	<path class="st1" d="M226.31,247.17c0.12-3.24,0.81-9.73,4.56-1.03c0.28,0.65-0.08,1.4-0.77,1.58l-2.34,0.62
		C227,248.53,226.28,247.95,226.31,247.17z"/>
	<path class="st1" d="M228.57,248.11c0,0-6.12,1.52-7.16,1.34C221.41,249.45,222.26,234.49,228.57,248.11"/>
	<path class="st1" d="M195.78,248.05c0.48-3.21,1.88-9.58,4.64-0.52c0.21,0.68-0.24,1.38-0.93,1.48l-2.4,0.35
		C196.32,249.48,195.66,248.81,195.78,248.05z"/>
	<path class="st1" d="M197.92,249.23c0,0-6.25,0.83-7.26,0.54C190.66,249.77,193.16,234.99,197.92,249.23"/>
	<circle class="st2" cx="256.1" cy="158.25" r="1.19"/>
	<circle class="st3" cx="188.21" cy="207.83" r="1.43"/>
	<circle class="st3" cx="206.22" cy="201.27" r="4.41"/>
	<circle class="st3" cx="213.87" cy="199.49" r="1.66"/>
	<circle class="st3" cx="220.76" cy="204.37" r="1.43"/>
	<circle class="st3" cx="201.31" cy="207.66" r="1.43"/>
	<circle class="st3" cx="192.73" cy="202.94" r="2.02"/>
	<circle class="st4" cx="269.11" cy="161.17" r="1.01"/>
</g>
</svg>
