<?xml version="1.0" encoding="utf-8"?>
<!-- Generator: Adobe Illustrator 23.0.1, SVG Export Plug-In . SVG Version: 6.00 Build 0)  -->
<svg version="1.1" id="Layer_1" xmlns="http://www.w3.org/2000/svg" xmlns:xlink="http://www.w3.org/1999/xlink" x="0px" y="0px"
	 viewBox="0 0 599.8 599.8" style="enable-background:new 0 0 599.8 599.8;" xml:space="preserve">
<style type="text/css">
	.st0{fill:#F9E48F;}
	.st1{fill:#FFFEB9;}
	.st2{fill:#CEFFB9;}
</style>
<g id="B-Bactosarus">
	<path class="st0" d="M237.8,447.8L237.8,447.8c-17.7,0-32.1-14.5-32.1-32.1V342c0-17.7,14.5-32.1,32.1-32.1h0
		c17.7,0,32.1,14.5,32.1,32.1v73.6C269.9,433.3,255.5,447.8,237.8,447.8z"/>
	<path class="st1" d="M410.1,140.9l6.5,4.8c2,1.5,1.6,4.6-0.6,5.6l-7.5,3.2"/>
	<path class="st1" d="M424.9,131.1c0.3-2.5,3.2-3.7,5.2-2.2l6.5,4.8l6.5,4.8c2,1.5,1.6,4.6-0.6,5.6l-7.5,3.2l-7.5,3.2
		c-2.3,1-4.8-0.9-4.5-3.4l0.9-8.1L424.9,131.1z"/>
	<path class="st1" d="M447.3,127c0.3-2.5,3.2-3.7,5.2-2.2l6.5,4.8l6.5,4.8c2,1.5,1.6,4.6-0.6,5.6l-7.5,3.2l-7.5,3.2
		c-2.3,1-4.8-0.9-4.5-3.4l0.9-8.1L447.3,127z"/>
	<path class="st0" d="M372.6,302c0,0,82.3-57.1,93.2-49.9c9.3,6.2,89.2,26.3,96.4,22.8c0,0,0,0,0,0c4.8-2.2,6.2-8.5,2.3-12.2
		l-12.7-12.2l24.6,15.7c2.3,1.4,5.1,1.6,7.5,0.3c7.2-3.9,9.1-80.4-35.3-108.7c-0.6-0.4-50.8-23.8-87-23.4
		c-39.1,0.3-134,29.6-146.8,25.4"/>
	<circle cx="518.6" cy="180.1" r="10.9"/>
	<circle class="st2" cx="429.3" cy="189.3" r="3.2"/>
	<path class="st2" d="M407.3,147.9c0,0,42.5-14.2,52.9-12.8c0,0-24.5,38.8-27.7,44.9S407.3,147.9,407.3,147.9"/>
	<path class="st0" d="M85.9,342.7C79.5,415,188.5,382.3,282,346s168.7-67.1,142.4-134.8S313.3,149.7,219.9,186
		S92.1,272.9,85.9,342.7z"/>
	<path class="st0" d="M160.3,472.3L160.3,472.3c-17.7,0-32.1-14.5-32.1-32.1v-73.6c0-17.7,14.5-32.1,32.1-32.1h0
		c17.7,0,32.1,14.5,32.1,32.1v73.6C192.4,457.8,178,472.3,160.3,472.3z"/>
	<path class="st0" d="M373.3,404.8L373.3,404.8c-7.9,3.2-17-0.6-20.3-8.5l-29-71c-3.2-7.9,0.6-17,8.5-20.3h0
		c7.9-3.2,17,0.6,20.3,8.5l29,71C385,392.4,381.2,401.5,373.3,404.8z"/>
	<path class="st0" d="M413.1,370.2L413.1,370.2c-7.9,3.2-17-0.6-20.3-8.5l-28.4-69.4c-3.2-7.9,0.6-17,8.5-20.3h0
		c7.9-3.2,17,0.6,20.3,8.5l28.4,69.4C424.9,357.8,421,366.9,413.1,370.2z"/>
	<path class="st2" d="M311.4,176.2c0,0,42.5-14.2,52.9-12.8c0,0-24.5,38.8-27.7,44.9C333.4,214.4,311.4,176.2,311.4,176.2"/>
	<path class="st2" d="M198.6,208.2c0,0,42.5-14.2,52.9-12.8c0,0-24.5,38.8-27.7,44.9C220.7,246.5,198.6,208.2,198.6,208.2"/>
	<path class="st2" d="M257.7,231.1c0,0,42.5-14.2,52.9-12.8c0,0-24.5,38.8-27.7,44.9C279.8,269.3,257.7,231.1,257.7,231.1"/>
	<path class="st2" d="M128.2,244.7c0,0,42.5-14.2,52.9-12.8c0,0-24.5,38.8-27.7,44.9C150.2,283,128.2,244.7,128.2,244.7"/>
	<path class="st1" d="M160.3,467.6c0.2-5.2,0.8-16,1.8-25.7c0.8-7.4,10.7-9.2,14.1-2.6c4.3,8.5,8.9,18.3,11.9,25.1
		c2,4.5-0.8,9.6-5.6,10.4c-5.5,0.9-12.2,1.4-16.9,0.2C162.4,474.1,160.1,471,160.3,467.6z"/>
	<path class="st1" d="M178.2,459.9c0.2-5.2,0.8-16,1.8-25.7c0.8-7.4,10.7-9.2,14.1-2.6c4.3,8.5,8.9,18.3,11.9,25.1
		c2,4.5-0.8,9.6-5.6,10.4c-5.5,0.9-12.2,1.4-16.9,0.2C180.2,466.4,178,463.4,178.2,459.9z"/>
	<path class="st1" d="M234.5,439.7c0.2-5.2,0.8-16,1.8-25.7c0.8-7.4,10.7-9.2,14.1-2.6c4.3,8.5,8.9,18.3,11.9,25.1
		c2,4.5-0.8,9.6-5.6,10.4c-5.5,0.9-12.2,1.4-16.9,0.2C236.6,446.2,234.3,443.1,234.5,439.7z"/>
	<path class="st1" d="M252.4,432c0.2-5.2,0.8-16,1.8-25.7c0.8-7.4,10.7-9.2,14.1-2.6c4.3,8.5,8.9,18.3,11.9,25.1
		c2,4.5-0.8,9.6-5.6,10.4c-5.5,0.9-12.2,1.4-16.9,0.2C254.4,438.5,252.2,435.4,252.4,432z"/>
	<path class="st1" d="M367.9,400.6c0.2-3.5,0.5-10.7,1.2-17.3c0.5-5,7.2-6.2,9.5-1.8c2.9,5.7,6,12.3,8,16.9c1.4,3-0.5,6.5-3.8,7
		c-3.7,0.6-8.2,1-11.3,0.1C369.3,405,367.8,402.9,367.9,400.6z"/>
	<path class="st1" d="M408.4,363.1c0.2-3.5,0.5-10.7,1.2-17.3c0.5-5,7.2-6.2,9.5-1.8c2.9,5.7,6,12.3,8,16.9c1.4,3-0.5,6.5-3.8,7
		c-3.7,0.6-8.2,1-11.3,0.1C409.8,367.4,408.3,365.4,408.4,363.1z"/>
	<path class="st0" d="M106.1,272.5c0,0-137.8,68.4-80,127.1s80,55.8,80,55.8s-85.3-56.2-67.8-76.6c17.5-20.4,57.7-59.4,89.8-52"/>
</g>
</svg>
