<?xml version="1.0" encoding="utf-8"?>
<!-- Generator: Adobe Illustrator 23.0.3, SVG Export Plug-In . SVG Version: 6.00 Build 0)  -->
<svg version="1.0" id="Layer_1" xmlns="http://www.w3.org/2000/svg" xmlns:xlink="http://www.w3.org/1999/xlink" x="0px" y="0px"
	 viewBox="0 0 400 400" style="enable-background:new 0 0 400 400;" xml:space="preserve">
<style type="text/css">
	.st0{fill:#C9E8FA;}
	.st1{fill:#F9F1A7;}
	.st2{fill:#F9F7E5;}
	.st3{fill:#010101;}
	.st4{fill:#F6AECD;}
</style>
<g id="B-Brachio">
	<g id="B-Brachiosaurus_1_">
		<path class="st0" d="M139.49,218"/>
		<path class="st1" d="M134.42,218.9l0.47,0.72c0.23,0.36,0.59,0.62,1.01,0.74c3.89,1.12,12.19-0.65,17.13-4.83
			c4.79-4.05,13.33-22.93,17.4-3.83c1.42,6.66,19.67,16.76,19.67,16.76c14.23,8.02,36.5,1.86,41.48,0.32
			c0.63-0.19,1.08-0.69,1.21-1.31c1.84-9.07,17.23-60.98,21.3-60.32c3.22,0.51,7.65-1.82,10.7-3.64c-0.26,0.04-0.53,0.07-0.83,0.07
			c-1.16,0-2.6-0.39-4.29-1.54l0.2-0.26c2.72,1.85,4.7,1.66,5.92,1.12c0.38-0.23,0.72-0.44,1.02-0.63c0.28-0.24,0.44-0.43,0.46-0.46
			l0.14,0.1c-1.01-2.36-6.99-10.1-7.96-10.62c-0.05-0.03-4.26-2.23-4.32-2.25c-1.21-0.51-12.71-1.08-12.71,15.32
			c0,14.92-13.74,29.69-17.38,32.17c-0.77,0.53-1.41,1.19-2.32,0.87c-0.01,0-0.01,0-0.02-0.01c-19.55-7.86-51.02,1.67-54.92-0.37
			c-4.01-2.1-14.35,5.08-19.44,10.48"/>
		<path class="st1" d="M200.18,216.7c0,0,7.1,26.95,2.6,27.64s-15.61-0.19-16.24-2.48C185.92,239.56,193.99,212.45,200.18,216.7z"/>
		<path class="st2" d="M201.89,243.29c0.37-2.5,1.47-7.46,3.62-0.41c0.16,0.53-0.18,1.07-0.73,1.16l-1.87,0.28
			C202.31,244.4,201.8,243.88,201.89,243.29z"/>
		<path class="st2" d="M203.56,244.21c0,0-4.87,0.65-5.65,0.42C197.9,244.63,199.85,233.12,203.56,244.21"/>
		<path class="st1" d="M224.06,215.9c0,0,8.17,25.47,3.9,26.35c-4.27,0.89-14.97,0.62-15.69-1.55
			C211.55,238.53,217.91,212.14,224.06,215.9z"/>
		<path class="st2" d="M227.04,241.28c0.23-2.41,1.03-7.22,3.44-0.57c0.18,0.5-0.12,1.04-0.64,1.14l-1.78,0.36
			C227.5,242.33,226.99,241.86,227.04,241.28z"/>
		<path class="st2" d="M228.69,242.08c0,0-4.63,0.87-5.4,0.69C223.29,242.78,224.57,231.65,228.69,242.08"/>
		<path class="st1" d="M216.28,213.65c0,0,14.24,32.83,8.67,34.58s-19.85,2.79-21.09,0C202.61,245.43,207.6,209.45,216.28,213.65z"
			/>
		<path class="st1" d="M189.97,214.03c0,0,9.11,34.61,3.34,35.49c-5.77,0.88-20.04-0.24-20.85-3.19S182.02,208.57,189.97,214.03z"/>
		<path class="st2" d="M222.69,247.29c0.12-3.24,0.81-9.73,4.56-1.03c0.28,0.65-0.08,1.4-0.77,1.58l-2.34,0.62
			C223.39,248.65,222.66,248.06,222.69,247.29z"/>
		<path class="st2" d="M224.95,248.23c0,0-6.12,1.52-7.16,1.34C217.8,249.57,218.65,234.6,224.95,248.23"/>
		<path class="st2" d="M192.16,248.16c0.48-3.21,1.88-9.58,4.64-0.52c0.21,0.68-0.24,1.38-0.93,1.48l-2.4,0.35
			C192.7,249.59,192.05,248.93,192.16,248.16z"/>
		<path class="st2" d="M194.3,249.35c0,0-6.25,0.83-7.26,0.54C187.04,249.89,189.54,235.11,194.3,249.35"/>
		<circle class="st3" cx="252.49" cy="158.37" r="1.19"/>
	</g>
	<path class="st4" d="M211.37,194.03c0,0-9.54,10.67-7.66,16.26c2.29-5.71,17.77-14.29,17.77-14.29L211.37,194.03z"/>
	<path class="st4" d="M203.48,194.34c0,0-12.9,13.92-8.75,17.96c-6.29-6.66-1.7-18.12-1.7-18.12S200.41,193.74,203.48,194.34z"/>
	<path class="st4" d="M187.04,195.18c0,0-9.96,0.04-12.01,3.57s1.47,14.55,1.47,14.55L187.04,195.18z"/>
</g>
</svg>
