<?xml version="1.0" encoding="utf-8"?>
<!-- Generator: Adobe Illustrator 23.0.3, SVG Export Plug-In . SVG Version: 6.00 Build 0)  -->
<svg version="1.0" id="Layer_1" xmlns="http://www.w3.org/2000/svg" xmlns:xlink="http://www.w3.org/1999/xlink" x="0px" y="0px"
	 viewBox="0 0 400 400" style="enable-background:new 0 0 400 400;" xml:space="preserve">
<style type="text/css">
	.st0{fill:#F8E1C2;}
	.st1{fill:#FFE2B3;}
	.st2{fill:#F16C93;}
	.st3{fill:#090909;}
	.st4{fill:#F7B4CD;}
	.st5{fill:#FBBE6A;}
</style>
<g id="B-Carno">
	<path class="st0" d="M223.71,164.46l0,1.08c0,0.75-0.8,1.24-1.47,0.88l-1-0.54c-0.69-0.37-0.7-1.37-0.01-1.75l0.99-0.54
		C222.9,163.23,223.71,163.71,223.71,164.46z"/>
	<g id="A-Crono_1_">
		<path class="st1" d="M236.03,177.54l1.25-2.32c0.24-0.44-0.1-0.98-0.6-0.95l-2.75,0.14c-0.51,0.03-0.79,0.6-0.5,1.01l1.5,2.18
			C235.2,177.99,235.8,177.96,236.03,177.54z"/>
		<path class="st1" d="M234.31,177.84l0.94-1.75c0.31-0.57-0.13-1.26-0.78-1.23l-2.08,0.1c-0.65,0.03-1.02,0.77-0.65,1.31l1.13,1.65
			C233.24,178.43,234.01,178.39,234.31,177.84z"/>
		<path class="st1" d="M231.05,177.6l0.96-1.78c0.31-0.57-0.13-1.25-0.77-1.22l-2.11,0.11c-0.65,0.03-1.01,0.76-0.64,1.29l1.15,1.68
			C229.99,178.18,230.76,178.14,231.05,177.6z"/>
		<path class="st1" d="M229.36,177.74l1.73-3.2l-5.05,0.25l2.08,3.02C228.42,178.25,229.1,178.22,229.36,177.74z"/>
		<polygon class="st1" points="227.53,177.25 224.02,180.69 228.93,181.84 		"/>
		<path class="st1" d="M229.58,179.12l-1.46,1.43c-0.47,0.46-0.24,1.25,0.39,1.4l2.04,0.48c0.62,0.15,1.17-0.44,0.98-1.05
			l-0.58-1.91C230.77,178.88,230.02,178.69,229.58,179.12z"/>
		<path class="st1" d="M232.98,179.9l-2.24,2.2c-0.29,0.28-0.15,0.78,0.24,0.87l3.13,0.73c0.39,0.09,0.72-0.27,0.61-0.65l-0.89-2.93
			C233.72,179.75,233.26,179.63,232.98,179.9z"/>
		<path class="st1" d="M234.44,180.43l-2.05,2.01c-0.33,0.33-0.17,0.89,0.28,1l2.87,0.67c0.44,0.1,0.83-0.31,0.7-0.75l-0.82-2.68
			C235.29,180.25,234.75,180.12,234.44,180.43z"/>
		<path class="st2" d="M236.91,174.89c0.72,0.07,1.17-0.71,0.76-1.27c-3.35-4.54-8.04-10.28-18.49-9.67
			c-10.18,0.59-6.81,15.04-6.57,16.76c0.05,0.38-0.18,0.75-0.57,0.88c-2.8,0.91-13.48,5.17-25.25,19.91
			c-13.72,17.19-21.66-0.76-18.18-7.58c1.41-2.77,0.74-5.51-0.56-7.77c-0.52-0.9-1.96-0.2-1.52,0.73c0.61,1.3,1.04,2.47,0.97,3.12
			c-0.21,2.07-5.59,11.17-4.51,14.68c1.07,3.5,4.58,12.93,16.52,13.78c0.08,0.01,0.16,0.02,0.23,0.05
			c7.32,2.49,8.55,10.58,27.93,2.02c0.12-0.05,0.23-0.13,0.31-0.22c5.83-6.61,11-14.98,13.38-16.22c2.4-1.25,4.99-13.23,4.98-15.3
			c-0.01-2.07,1.74-4.55,2.39-4.35c0.66,0.2,7.01,2.25,7.88,2.25c0.71,0-0.03-3.38-0.33-4.67c-0.07-0.3-0.32-0.54-0.64-0.61
			l-7.77-1.73c-0.72-0.16-0.91-1.05-0.3-1.45C229.66,176.82,233.6,174.58,236.91,174.89z"/>
		
			<ellipse transform="matrix(1 -3.262660e-03 3.262660e-03 1 -0.5521 0.7382)" class="st3" cx="225.99" cy="169.58" rx="1.09" ry="1.03"/>
		
			<ellipse transform="matrix(1 -3.262660e-03 3.262660e-03 1 -0.5628 0.7641)" class="st4" cx="233.92" cy="172.87" rx="0.43" ry="0.41"/>
	</g>
	
		<ellipse transform="matrix(1 -3.262660e-03 3.262660e-03 1 -0.6601 0.6247)" class="st5" cx="191.15" cy="202.64" rx="1.39" ry="1.31"/>
	
		<ellipse transform="matrix(1 -3.262660e-03 3.262660e-03 1 -0.6291 0.6929)" class="st5" cx="212.06" cy="193.15" rx="1.39" ry="1.31"/>
	
		<ellipse transform="matrix(1 -3.262660e-03 3.262660e-03 1 -0.5933 0.6999)" class="st5" cx="214.24" cy="182.2" rx="1.39" ry="1.31"/>
	
		<ellipse transform="matrix(1 -3.262660e-03 3.262660e-03 1 -0.6293 0.6492)" class="st5" cx="198.66" cy="193.2" rx="1.39" ry="1.31"/>
	
		<ellipse transform="matrix(1 -3.262660e-03 3.262660e-03 1 -0.6557 0.6565)" class="st5" cx="200.88" cy="201.3" rx="3.06" ry="3.46"/>
	
		<ellipse transform="matrix(1 -3.262660e-03 3.262660e-03 1 -0.6162 0.6754)" class="st5" cx="206.69" cy="189.21" rx="2.26" ry="1.73"/>
	<path class="st0" d="M218.93,163.77l1.04,0.47c0.72,0.32,0.79,1.31,0.13,1.74l-0.95,0.61c-0.63,0.41-1.47,0-1.53-0.75l-0.09-1.08
		C217.47,164.01,218.24,163.46,218.93,163.77z"/>
	<path class="st2" d="M225.83,207.51L225.83,207.51c-0.6,0.78-1.72,0.93-2.5,0.33l-3.92-3.01c-0.78-0.6-0.93-1.72-0.33-2.5l0,0
		c0.6-0.78,1.72-0.93,2.5-0.33l3.92,3.01C226.28,205.61,226.43,206.73,225.83,207.51z"/>
	<path class="st2" d="M228.36,203.8L228.36,203.8c-0.6,0.78-1.72,0.93-2.5,0.33l-3.92-3.01c-0.78-0.6-0.93-1.72-0.33-2.5l0,0
		c0.6-0.78,1.72-0.93,2.5-0.33l3.92,3.01C228.81,201.9,228.96,203.02,228.36,203.8z"/>
	<path class="st2" d="M195.58,236.26L195.58,236.26c-1.69,0-3.08-1.38-3.08-3.08v-8.86c0-1.69,1.38-3.08,3.08-3.08h0
		c1.69,0,3.08,1.38,3.08,3.08v8.86C198.66,234.88,197.28,236.26,195.58,236.26z"/>
	<path class="st2" d="M207.3,233.87L207.3,233.87c-1.66,0.32-3.28-0.78-3.61-2.44l-1.68-8.7c-0.32-1.66,0.78-3.28,2.44-3.61h0
		c1.66-0.32,3.28,0.78,3.61,2.44l1.68,8.7C210.06,231.93,208.96,233.55,207.3,233.87z"/>
</g>
</svg>
