<?xml version="1.0" encoding="utf-8"?>
<!-- Generator: Adobe Illustrator 23.0.3, SVG Export Plug-In . SVG Version: 6.00 Build 0)  -->
<svg version="1.0" id="Layer_1" xmlns="http://www.w3.org/2000/svg" xmlns:xlink="http://www.w3.org/1999/xlink" x="0px" y="0px"
	 viewBox="0 0 400 400" style="enable-background:new 0 0 400 400;" xml:space="preserve">
<style type="text/css">
	.st0{fill:#C7DC64;}
	.st1{fill:#F3F4C1;}
	.st2{fill:#D3E392;}
	.st3{fill:#090909;}
	.st4{fill:#F4D0A9;}
	.st5{fill:#71A441;}
</style>
<g id="B-chosmo">
	<path class="st0" d="M222.82,230.94L222.82,230.94c-3.15,0-5.72-2.58-5.72-5.72v-9.31c0-3.15,2.58-5.72,5.72-5.72h0
		c3.15,0,5.72,2.58,5.72,5.72v9.31c0,2.36-1.45,4.4-3.5,5.27C224.36,230.78,223.61,230.94,222.82,230.94z"/>
	<path class="st0" d="M200.65,230.94L200.65,230.94c-3.15,0-5.72-2.58-5.72-5.72v-9.31c0-3.15,2.58-5.72,5.72-5.72h0
		c3.15,0,5.72,2.58,5.72,5.72v9.31c0,2.36-1.45,4.4-3.5,5.27C202.19,230.78,201.44,230.94,200.65,230.94z"/>
	<path class="st0" d="M234.53,217.27c0,0,1.47-0.41,2.19,0.56c0.3,0.41,0.6,0.99,0.86,1.53c1.2-1.08,1.51-2.88,0.59-5.73
		c-3.39-10.58,0.51-8.19-15.53-19.8c-1.86-1.35-30.8,0.71-39.44,5.09c-0.83,0.42-1.55,0.89-2.21,1.39c0,0-0.01,0-0.01,0
		s-0.01,0.01-0.02,0.02c-1.38,1.06-2.4,2.3-3.11,3.63c-0.03,0.06-0.06,0.11-0.11,0.15c-4.09,4.55-10.97,11.26-14.12,8.86
		c-2.75-2.1-4.88-7.38-6.15-11.33c-0.3-0.91-1.64-0.73-1.67,0.23c-0.18,5.44,3.32,11.53,6.39,13.3c5.73,3.31,8.74,1.88,15.29,0.3
		c0.38-0.09,0.75,0.08,0.94,0.42c2.98,5.41,9.22,9.07,15.69,6c13.51-6.42,34.21,0.83,41.72-1.6c0.62-0.2,0.81-0.99,0.34-1.44
		L234.53,217.27z"/>
	<path class="st1" d="M235.21,202.05c-0.05-0.24,0.14-0.46,0.38-0.45c1.05,0.04,3.45,0.04,5.95-0.1c2.54-0.15,3.81,3.02,1.87,4.66
		c-1.06,0.9-2.21,1.63-3.43,1.96C236.8,209.01,235.53,203.68,235.21,202.05z"/>
	<path class="st1" d="M229.72,195.31c1.6-0.43,4.31-1.23,7-2.44c1.11-0.5,2.02,1,1.07,1.75c-2.41,1.9-4.91,3.43-6.16,4.16
		c-0.46,0.27-1.05,0.14-1.36-0.29l-1.12-1.57C228.73,196.32,229.02,195.5,229.72,195.31z"/>
	<path class="st2" d="M238.91,218.97c1.19-1.41,2.76-4.42,2-10.04c-0.03-0.24-0.27-0.37-0.36-0.6c-2.14-5.75-4.74-10.07-4.95-10.25
		c-1.6-1.3-8.17-6.56-9.3-6.34c-1.15,0.23-7.22-20.79-14.53-26.3c-0.41-0.31-0.81-0.63-1.25-0.35c-0.97,0.63-2.66,1.29-3.86-0.6
		c-1.46-2.29-3.9,2.22-4.74,3.95c-0.18,0.37-0.59,0.57-0.99,0.47l-10.04-2.35c-0.79-0.19-1.39,0.71-0.91,1.38l0,0
		c0.33,0.46,0.16,1.1-0.36,1.32l-1.45,0.63c-0.66,0.29-0.71,1.21-0.08,1.57c3.35,1.9,11.2,6.49,13.54,9.07
		c3.01,3.31,3.51,6.88,2.87,8.66c-0.63,1.78,3.7,0.76,1.66,4.07s5.11-1.02,3.7,2.04c-1.41,3.06,1.74,2.35,1.44,5.63
		c-0.27,2.95,2,2.84,2.46,2.78c0.07-0.01,0.13-0.01,0.2,0c0.79,0.11,5.23,0.92,2.9,5.33c-2.55,4.84,13.93,6.64,14.35,6.69
		c1.64,0.18,5.18,0.83,6.25,3.04C237.72,219.38,238.5,219.46,238.91,218.97z"/>
	<circle class="st3" cx="230.38" cy="201.2" r="1.84"/>
	<path class="st4" d="M209.12,167.72c0,0-6.11-1.36-3.91,3.06c1.6,3.19,8.86,9.34,12.77,12.5c0.56,0.46,1.34-0.2,1-0.83
		C216.47,177.84,211.48,169.09,209.12,167.72z"/>
	<path class="st4" d="M201.99,172.65c-0.04-0.05-3.6-2.18-3.67-2.19c-0.63-0.08-3.94-0.34-1.94,2.9c1.71,2.76,9.81,7.88,13.36,10.03
		c0.27,0.17,0.56-0.19,0.34-0.43L201.99,172.65z"/>
	<circle class="st5" cx="238.98" cy="210.99" r="0.8"/>
	<path class="st1" d="M226.9,195.31c1.6-0.43,4.31-1.23,7-2.44c1.11-0.5,2.02,1,1.07,1.75c-2.41,1.9-4.91,3.43-6.16,4.16
		c-0.46,0.27-1.05,0.14-1.36-0.29l-1.12-1.57C225.91,196.32,226.2,195.5,226.9,195.31z"/>
	<path class="st4" d="M186.18,220.49c0,0,26.16-11.52,36.64-1.21C210.17,219.29,221.09,222.27,186.18,220.49z"/>
	<path class="st0" d="M192.38,236.78L192.38,236.78c-3.41,0-6.2-2.79-6.2-6.2v-10.09c0-3.41,2.79-6.2,6.2-6.2h0
		c3.41,0,6.2,2.79,6.2,6.2v10.09c0,2.56-1.57,4.77-3.79,5.71C194.05,236.61,193.24,236.78,192.38,236.78z"/>
	<path class="st0" d="M217.29,234.94h-1.85c-2.9,0-5.28-2.38-5.28-5.28v-11.93c0-2.9,2.38-5.28,5.28-5.28h1.85
		c2.9,0,5.28,2.38,5.28,5.28v11.93C222.57,232.56,220.19,234.94,217.29,234.94z"/>
	<path class="st0" d="M206.41,236.78"/>
	<ellipse class="st4" cx="187.06" cy="204.31" rx="2.04" ry="1.27"/>
	<circle class="st4" cx="199.72" cy="198.96" r="0.4"/>
	<circle class="st4" cx="198.69" cy="203.68" r="0.64"/>
	<circle class="st4" cx="191.97" cy="198.86" r="1.32"/>
	<circle class="st4" cx="208.75" cy="202.02" r="0.53"/>
	<path class="st1" d="M193.72,236.63c0,0,0.2-5.69,1.21-5.25c1.01,0.44,1.8,2.78,1.8,2.78s0.29-5.19,1.86-3.58
		C199,234.22,195.06,236.48,193.72,236.63z"/>
	<path class="st1" d="M201.48,230.94c0,0,0.2-5.69,1.21-5.25s1.8,2.78,1.8,2.78s0.29-5.19,1.86-3.58
		C206.76,228.53,202.82,230.79,201.48,230.94z"/>
	<path class="st1" d="M217.68,234.94c0,0,0.2-5.69,1.21-5.25c1.01,0.44,1.8,2.78,1.8,2.78s0.29-5.19,1.86-3.58
		C222.95,232.53,219.02,234.79,217.68,234.94z"/>
	<path class="st1" d="M223.68,230.94c0,0,0.2-5.69,1.21-5.25s1.8,2.78,1.8,2.78s0.29-5.19,1.86-3.58
		C228.96,228.53,225.03,230.79,223.68,230.94z"/>
</g>
</svg>
