<?xml version="1.0" encoding="utf-8"?>
<!-- Generator: Adobe Illustrator 23.0.1, SVG Export Plug-In . SVG Version: 6.00 Build 0)  -->
<svg version="1.1" id="Layer_1" xmlns="http://www.w3.org/2000/svg" xmlns:xlink="http://www.w3.org/1999/xlink" x="0px" y="0px"
	 viewBox="0 0 565.8 565.8" style="enable-background:new 0 0 565.8 565.8;" xml:space="preserve">
<style type="text/css">
	.st0{fill:#C7DC64;}
	.st1{fill:#F3F4C1;}
	.st2{fill:#D3E392;}
	.st3{fill:#090909;}
	.st4{fill:#F4D0A9;}
	.st5{fill:#71A441;}
</style>
<g id="B-chosmo">
	<path class="st0" d="M426.2,475.8L426.2,475.8c-19.8,0-36-16.3-36-36v-58.7c0-19.8,16.3-36,36-36l0,0c19.8,0,36,16.3,36,36v58.7
		c0,14.9-9.1,27.7-22.1,33.2C435.9,474.8,431.2,475.8,426.2,475.8z"/>
	<path class="st0" d="M286.5,475.8L286.5,475.8c-19.8,0-36-16.3-36-36v-58.7c0-19.8,16.3-36,36-36l0,0c19.8,0,36,16.3,36,36v58.7
		c0,14.9-9.1,27.7-22.1,33.2C296.2,474.8,291.5,475.8,286.5,475.8z"/>
	<path class="st0" d="M500,389.7c0,0,9.3-2.6,13.8,3.5c1.9,2.6,3.8,6.2,5.4,9.6c7.6-6.8,9.5-18.1,3.7-36.1
		c-21.4-66.7,3.2-51.6-97.9-124.8c-11.7-8.5-194.1,4.5-248.5,32.1c-5.2,2.6-9.8,5.6-13.9,8.8h-0.1c0,0-0.1,0.1-0.1,0.1
		c-8.7,6.7-15.1,14.5-19.6,22.9c-0.2,0.4-0.4,0.7-0.7,0.9c-25.8,28.7-69.1,70.9-89,55.8c-17.3-13.2-30.7-46.5-38.8-71.4
		c-1.9-5.7-10.3-4.6-10.5,1.4c-1.1,34.3,20.9,72.6,40.3,83.8c36.1,20.9,55.1,11.8,96.3,1.9c2.4-0.6,4.7,0.5,5.9,2.6
		c18.8,34.1,58.1,57.1,98.9,37.8c85.1-40.5,215.6,5.2,262.9-10.1c3.9-1.3,5.1-6.2,2.1-9.1L500,389.7z"/>
	<path class="st1" d="M504.3,293.8c-0.3-1.5,0.9-2.9,2.4-2.8c6.6,0.3,21.7,0.3,37.5-0.6c16-0.9,24,19,11.8,29.4
		c-6.7,5.7-13.9,10.3-21.6,12.3C514.3,337.7,506.3,304.1,504.3,293.8z"/>
	<path class="st1" d="M469.7,251.3c10.1-2.7,27.2-7.8,44.1-15.4c7-3.2,12.7,6.3,6.7,11c-15.2,12-30.9,21.6-38.8,26.2
		c-2.9,1.7-6.6,0.9-8.6-1.8l-7.1-9.9C463.5,257.7,465.3,252.5,469.7,251.3z"/>
	<path class="st2" d="M527.6,400.4c7.5-8.9,17.4-27.9,12.6-63.3c-0.2-1.5-1.7-2.3-2.3-3.8c-13.5-36.2-29.9-63.5-31.2-64.6
		c-10.1-8.2-51.5-41.3-58.6-39.9c-7.2,1.4-45.5-131-91.6-165.7c-2.6-2-5.1-4-7.9-2.2c-6.1,4-16.8,8.1-24.3-3.8
		c-9.2-14.4-24.6,14-29.9,24.9c-1.1,2.3-3.7,3.6-6.2,3L225,70.2c-5-1.2-8.8,4.5-5.7,8.7l0,0c2.1,2.9,1,6.9-2.3,8.3l-9.1,4
		c-4.2,1.8-4.5,7.6-0.5,9.9c21.1,12,70.6,40.9,85.3,57.1c19,20.9,22.1,43.4,18.1,54.6c-4,11.2,23.3,4.8,10.5,25.6
		s32.2-6.4,23.3,12.9s11,14.8,9.1,35.5c-1.7,18.6,12.6,17.9,15.5,17.5c0.4-0.1,0.8-0.1,1.3,0c5,0.7,33,5.8,18.3,33.6
		c-16.1,30.5,87.8,41.8,90.4,42.2c10.3,1.1,32.6,5.2,39.4,19.2C520.1,403,525,403.5,527.6,400.4z"/>
	<circle class="st3" cx="473.9" cy="288.4" r="11.6"/>
	<path class="st4" d="M339.9,77.5c0,0-38.5-8.6-24.6,19.3c10.1,20.1,55.8,58.9,80.5,78.8c3.5,2.9,8.4-1.3,6.3-5.2
		C386.2,141.3,354.8,86.1,339.9,77.5z"/>
	<path class="st4" d="M295,108.6c-0.3-0.3-22.7-13.7-23.1-13.8c-4-0.5-24.8-2.1-12.2,18.3c10.8,17.4,61.8,49.7,84.2,63.2
		c1.7,1.1,3.5-1.2,2.1-2.7L295,108.6z"/>
	<circle class="st5" cx="528" cy="350.1" r="5"/>
	<path class="st1" d="M451.9,251.3c10.1-2.7,27.2-7.8,44.1-15.4c7-3.2,12.7,6.3,6.7,11c-15.2,12-30.9,21.6-38.8,26.2
		c-2.9,1.7-6.6,0.9-8.6-1.8l-7.1-9.9C445.7,257.7,447.5,252.5,451.9,251.3z"/>
	<path class="st4" d="M195.4,410c0,0,164.8-72.6,230.9-7.6C346.5,402.4,415.3,421.2,195.4,410z"/>
	<path class="st0" d="M234.4,512.6L234.4,512.6c-21.5,0-39.1-17.6-39.1-39.1V410c0-21.5,17.6-39.1,39.1-39.1l0,0
		c21.5,0,39.1,17.6,39.1,39.1v63.6c0,16.1-9.9,30.1-23.9,36C244.9,511.6,239.8,512.6,234.4,512.6z"/>
	<path class="st0" d="M391.4,501h-11.7c-18.3,0-33.3-15-33.3-33.3v-75.2c0-18.3,15-33.3,33.3-33.3h11.7c18.3,0,33.3,15,33.3,33.3
		v75.2C424.6,486,409.6,501,391.4,501z"/>
	<path class="st0" d="M322.8,512.6"/>
	<ellipse class="st4" cx="200.9" cy="308" rx="12.9" ry="8"/>
	<circle class="st4" cx="280.7" cy="274.3" r="2.5"/>
	<circle class="st4" cx="274.2" cy="304.1" r="4"/>
	<circle class="st4" cx="231.8" cy="273.7" r="8.3"/>
	<circle class="st4" cx="337.6" cy="293.6" r="3.3"/>
	<path class="st1" d="M242.9,511.7c0,0,1.3-35.9,7.6-33.1c6.4,2.8,11.3,17.5,11.3,17.5s1.8-32.7,11.7-22.6
		C276.1,496.5,251.3,510.7,242.9,511.7z"/>
	<path class="st1" d="M291.8,475.8c0,0,1.3-35.9,7.6-33.1c6.4,2.8,11.3,17.5,11.3,17.5s1.8-32.7,11.7-22.6
		C325,460.7,300.2,474.9,291.8,475.8z"/>
	<path class="st1" d="M393.8,501c0,0,1.3-35.9,7.6-33.1c6.4,2.8,11.3,17.5,11.3,17.5s1.8-32.7,11.7-22.6
		C427,485.9,402.3,500.1,393.8,501z"/>
	<path class="st1" d="M431.6,475.8c0,0,1.3-35.9,7.6-33.1c6.4,2.8,11.3,17.5,11.3,17.5s1.8-32.7,11.7-22.6
		C464.9,460.7,440.1,474.9,431.6,475.8z"/>
</g>
</svg>
