<?xml version="1.0" encoding="utf-8"?>
<!-- Generator: Adobe Illustrator 23.0.1, SVG Export Plug-In . SVG Version: 6.00 Build 0)  -->
<svg version="1.1" id="Layer_1" xmlns="http://www.w3.org/2000/svg" xmlns:xlink="http://www.w3.org/1999/xlink" x="0px" y="0px"
	 viewBox="0 0 599.8 599.8" style="enable-background:new 0 0 599.8 599.8;" xml:space="preserve">
<style type="text/css">
	.st0{fill:#CAE093;}
	.st1{fill:#FEF4A4;}
	.st2{fill:#010101;}
	.st3{fill:#5EBD75;}
	.st4{fill:#FFC847;}
	.st5{fill:#FEF6A5;}
</style>
<g id="B-chindesaurus">
	<path class="st0" d="M293.2,472.8L293.2,472.8c8.5-1.6,14.2-9.7,12.6-18.3l-24.3-132.9c-1.6-8.5-9.7-14.2-18.3-12.6l0,0
		c-8.5,1.6-14.2,9.7-12.6,18.3l24.3,132.9C276.5,468.7,284.7,474.3,293.2,472.8z"/>
	<g id="A-Chindo_1_">
		<path class="st0" d="M224.3,488.8L224.3,488.8c8.7,0,15.6-7.1,15.6-15.6V338c0-8.7-7.1-15.6-15.6-15.6l0,0
			c-8.7,0-15.6,7.1-15.6,15.6v135.2C208.5,481.8,215.6,488.8,224.3,488.8z"/>
		<path class="st0" d="M412.5,376.2L377.2,335c-3-3.6-2.6-9.1,0.9-12.2l0,0c3.6-3,9.1-2.6,12.2,0.9l35.2,41.3
			c3,3.6,2.6,9.1-0.9,12.2l0,0C421,380.3,415.6,379.8,412.5,376.2z"/>
		<path class="st0" d="M423.3,345.7L388,304.4c-3-3.6-2.6-9.1,0.9-12.2l0,0c3.6-3,9.1-2.6,12.2,0.9l35.2,41.3
			c3,3.6,2.6,9.1-0.9,12.2l0,0C431.8,349.8,426.4,349.3,423.3,345.7z"/>
		<ellipse class="st0" cx="257.3" cy="278.8" rx="163.3" ry="83.5"/>
		<polygon class="st1" points="533.5,234.9 543.1,235.2 552.7,235.3 547.9,221.7 543.1,214.6 538.4,221.6 		"/>
		<polygon class="st1" points="535.6,228.7 545.2,228.8 554.6,229.1 550,215.6 545.2,207.7 540.4,215.3 		"/>
		<polygon class="st1" points="560.7,153.6 551.1,154 541.5,154.4 546.5,167.7 551.1,173 556.1,167.3 		"/>
		<polygon class="st1" points="541.5,153.6 532,154 522.4,154.4 527.4,167.7 532,173 536.9,167.3 		"/>
		<polygon class="st1" points="577.2,153.6 567.6,154 558.2,154.4 563.2,167.7 567.6,173 572.6,167.3 		"/>
		<path class="st0" d="M375.1,225c10.5-30.6,51.3-92.3,74.6-99.8c0,0,95.5-38.1,130.6,9.7c5.1,7.1,1.8,20.9-5,21.2
			c-33.1,0.9-52.7,6.2-55.5,27.1c-1.6,12,12.9,24.9,27.7,34.6c7.5,4.9,5.5,22.7-2.5,23.3c-24.2,1.3-56.9-5.3-79.6-42.2
			c-0.8-1.3-1.7-2.4-2.8-3c-26-13.4-67.5,119.9-71.4,132.9c-0.3,0.7-0.4,1.3-0.5,2.1"/>
		<ellipse class="st2" cx="500.8" cy="141.7" rx="6.7" ry="11"/>
		<ellipse class="st3" cx="570.3" cy="144.2" rx="1.4" ry="2.5"/>
		<path class="st4" d="M339.9,235.9c-1.8,4.2-4.2,10-5.9,15.9c-1.7,6-7.1,6.6-7.8,0.7c-0.9-7.9-0.9-15.8-0.7-21.7
			c0.1-4.6,3.2-8.3,5.9-7.1l7,3C340.7,227.8,341.5,232.3,339.9,235.9z"/>
		<path class="st4" d="M251,213.6c8.9-0.5,16.3,7.2,15.3,16.2c-1.4,13.5-3.3,33.1-3.7,51.2c-0.1,8.5-7.6,12.9-9.9,5.8
			c-6.3-19.1-11.7-40.8-15.1-55.2C235.5,222.5,241.9,214.1,251,213.6L251,213.6z"/>
		<path class="st4" d="M153.8,230.9c10.9-1.7,21.2,5.7,23,16.6c2.5,14.6,6,32.2,9.7,35C170.8,279.5,153.8,230.9,153.8,230.9
			L153.8,230.9z"/>
	</g>
	<path class="st0" d="M117.3,272.5c0,0-105.5-8.3-93.5-54.2c0,0-19.2,26.8,7,49c26.2,22.2,67.1,38.4,86.5,32.3
		C136.7,293.7,117.3,272.5,117.3,272.5z"/>
	<path class="st5" d="M438.3,338.4h-6.3l3.6,8.3l-7.2-4.1v5.9C428.3,348.5,438,350.6,438.3,338.4z"/>
	<path class="st5" d="M428.3,368.4h-6.3l3.6,8.3l-7.2-4.1v5.9C418.3,378.3,428,380.6,428.3,368.4z"/>
	<path class="st5" d="M308.1,459.5l-12.5-6.8l-2,20.3l-9.9-16l-6.4,11.8C277.3,468.7,294.4,483.5,308.1,459.5z"/>
	<path class="st5" d="M241.1,479.6l-10.3-9.7l-7.2,19.1l-5.4-18l-9.3,9.7C209.1,480.5,221.7,499.3,241.1,479.6z"/>
</g>
</svg>
