<?xml version="1.0" encoding="utf-8"?>
<!-- Generator: Adobe Illustrator 23.0.3, SVG Export Plug-In . SVG Version: 6.00 Build 0)  -->
<svg version="1.0" id="Layer_1" xmlns="http://www.w3.org/2000/svg" xmlns:xlink="http://www.w3.org/1999/xlink" x="0px" y="0px"
	 viewBox="0 0 400 400" style="enable-background:new 0 0 400 400;" xml:space="preserve">
<style type="text/css">
	.st0{fill:#CAE093;}
	.st1{fill:#FEF4A4;}
	.st2{fill:#010101;}
	.st3{fill:#5EBD75;}
	.st4{fill:#FFC847;}
	.st5{fill:#FEF6A5;}
</style>
<g id="B-chindesaurus">
	<path class="st0" d="M206.56,213.48L206.56,213.48c0.65-0.12,1.08-0.74,0.96-1.39l-1.85-10.11c-0.12-0.65-0.74-1.08-1.39-0.96l0,0
		c-0.65,0.12-1.08,0.74-0.96,1.39l1.85,10.11C205.29,213.17,205.91,213.6,206.56,213.48z"/>
	<g id="A-Chindo_1_">
		<path class="st0" d="M201.32,214.7L201.32,214.7c0.66,0,1.19-0.54,1.19-1.19v-10.28c0-0.66-0.54-1.19-1.19-1.19l0,0
			c-0.66,0-1.19,0.54-1.19,1.19v10.28C200.12,214.17,200.66,214.7,201.32,214.7z"/>
		<path class="st0" d="M215.63,206.14l-2.68-3.14c-0.23-0.27-0.2-0.69,0.07-0.93l0,0c0.27-0.23,0.69-0.2,0.93,0.07l2.68,3.14
			c0.23,0.27,0.2,0.69-0.07,0.93l0,0C216.28,206.45,215.87,206.41,215.63,206.14z"/>
		<path class="st0" d="M216.45,203.82l-2.68-3.14c-0.23-0.27-0.2-0.69,0.07-0.93h0c0.27-0.23,0.69-0.2,0.93,0.07l2.68,3.14
			c0.23,0.27,0.2,0.69-0.07,0.93l0,0C217.1,204.13,216.69,204.09,216.45,203.82z"/>
		<ellipse class="st0" cx="203.83" cy="198.73" rx="12.42" ry="6.35"/>
		<polygon class="st1" points="224.83,195.39 225.56,195.41 226.29,195.42 225.93,194.39 225.56,193.85 225.21,194.38 		"/>
		<polygon class="st1" points="224.99,194.92 225.72,194.93 226.44,194.95 226.09,193.92 225.72,193.32 225.36,193.9 		"/>
		<polygon class="st1" points="226.9,189.21 226.17,189.24 225.44,189.27 225.82,190.28 226.17,190.68 226.55,190.25 		"/>
		<polygon class="st1" points="225.44,189.21 224.72,189.24 223.99,189.27 224.37,190.28 224.72,190.68 225.09,190.25 		"/>
		<polygon class="st1" points="228.16,189.21 227.43,189.24 226.71,189.27 227.09,190.28 227.43,190.68 227.81,190.25 		"/>
		<path class="st0" d="M172.9,216.35"/>
		<path class="st0" d="M212.79,194.64c0.8-2.33,3.9-7.02,5.67-7.59c0,0,7.26-2.9,9.93,0.74c0.39,0.54,0.14,1.59-0.38,1.61
			c-2.52,0.07-4.01,0.47-4.22,2.06c-0.12,0.91,0.98,1.89,2.11,2.63c0.57,0.37,0.42,1.73-0.19,1.77c-1.84,0.1-4.33-0.4-6.05-3.21
			c-0.06-0.1-0.13-0.18-0.21-0.23c-1.98-1.02-5.13,9.12-5.43,10.11c-0.02,0.05-0.03,0.1-0.04,0.16"/>
		<ellipse class="st2" cx="222.35" cy="188.3" rx="0.51" ry="0.84"/>
		<ellipse class="st3" cx="227.63" cy="188.49" rx="0.11" ry="0.19"/>
		<path class="st4" d="M210.11,195.47c-0.14,0.32-0.32,0.76-0.45,1.21c-0.13,0.46-0.54,0.5-0.59,0.05c-0.07-0.6-0.07-1.2-0.05-1.65
			c0.01-0.35,0.24-0.63,0.45-0.54l0.53,0.23C210.17,194.85,210.23,195.19,210.11,195.47z"/>
		<path class="st4" d="M203.35,193.77c0.68-0.04,1.24,0.55,1.16,1.23c-0.11,1.03-0.25,2.52-0.28,3.89
			c-0.01,0.65-0.58,0.98-0.75,0.44c-0.48-1.45-0.89-3.1-1.15-4.2C202.17,194.45,202.66,193.81,203.35,193.77L203.35,193.77z"/>
		<path class="st4" d="M195.96,195.09c0.83-0.13,1.61,0.43,1.75,1.26c0.19,1.11,0.46,2.45,0.74,2.66
			C197.25,198.78,195.96,195.09,195.96,195.09L195.96,195.09z"/>
	</g>
	<path class="st0" d="M193.18,198.25c0,0-8.02-0.63-7.11-4.12c0,0-1.46,2.04,0.53,3.73s5.1,2.92,6.58,2.46
		C194.66,199.86,193.18,198.25,193.18,198.25z"/>
	<path class="st5" d="M217.59,203.26h-0.48l0.27,0.63l-0.55-0.31v0.45C216.83,204.03,217.57,204.19,217.59,203.26z"/>
	<path class="st5" d="M216.83,205.54h-0.48l0.27,0.63l-0.55-0.31v0.45C216.07,206.3,216.81,206.47,216.83,205.54z"/>
	<path class="st5" d="M207.69,212.47l-0.95-0.52l-0.15,1.54l-0.75-1.22l-0.49,0.9C205.35,213.17,206.65,214.3,207.69,212.47z"/>
	<path class="st5" d="M202.6,214l-0.78-0.74l-0.55,1.45l-0.41-1.37l-0.71,0.74C200.16,214.07,201.12,215.5,202.6,214z"/>
</g>
</svg>
