<?xml version="1.0" encoding="utf-8"?>
<!-- Generator: Adobe Illustrator 23.0.3, SVG Export Plug-In . SVG Version: 6.00 Build 0)  -->
<svg version="1.0" id="Layer_1" xmlns="http://www.w3.org/2000/svg" xmlns:xlink="http://www.w3.org/1999/xlink" x="0px" y="0px"
	 viewBox="0 0 400 400" style="enable-background:new 0 0 400 400;" xml:space="preserve">
<style type="text/css">
	.st0{fill:#BCE6FB;}
	.st1{fill:#010101;}
	.st2{fill:#FFD98C;}
</style>
<g id="B-Coelophysis">
	<path class="st0" d="M247.95,169.26c-0.25,0.01-0.51,0.02-0.77,0.05c-21.47,2.02-27.32,23.35-43.18,21.18s-25.13,5.42-37.01,6.84
		c-8.68,1.04-10.83-6.67-11.36-10.91c-0.18-1.45,0.09-2.91,0.72-4.24c1.02-2.18-4.25-10.15-6.74-1.09
		c-5.65,20.54,13.61,26.95,21.77,31.91c2.33,1.42,4.96,2.28,7.68,2.44c13.04,0.78,25.08-0.59,32.26-4.9
		c1.84-1.11,3.78-2.02,4.73-3.95c3.55-7.25,13.32-25.08,22.68-22.83c3.58,0.86,6.98,0.95,9.97,0.65c1.59-0.16,2.9-0.7,3.93-1.47
		h-9.75v-1h10.34v0.5C257.65,178.25,255.67,169.01,247.95,169.26z"/>
	<circle class="st1" cx="244.68" cy="173.8" r="1.81"/>
	<path class="st0" d="M223.68,208.07l-9.26-7.65c-0.88-0.72-1-2.03-0.28-2.91l0,0c0.72-0.88,2.03-1,2.91-0.28l9.26,7.65
		c0.88,0.72,1,2.03,0.28,2.91l0,0C225.87,208.67,224.56,208.8,223.68,208.07z"/>
	<path class="st0" d="M227.87,203.01l-9.26-7.65c-0.88-0.72-1-2.03-0.28-2.91l0,0c0.72-0.88,2.03-1,2.91-0.28l9.26,7.65
		c0.88,0.72,1,2.03,0.28,2.91l0,0C230.06,203.6,228.75,203.73,227.87,203.01z"/>
	<path class="st0" d="M183.71,229.53L183.71,229.53c-1.24,0-2.25-1.01-2.25-2.25v-19.24c0-1.24,1.01-2.25,2.25-2.25h0
		c1.24,0,2.25,1.01,2.25,2.25v19.24C185.96,228.51,184.95,229.53,183.71,229.53z"/>
	<path class="st0" d="M193.4,229.73L193.4,229.73c-1.24,0-2.25-1.01-2.25-2.25v-19.24c0-1.24,1.01-2.25,2.25-2.25h0
		c1.24,0,2.25,1.01,2.25,2.25v19.24C195.65,228.72,194.64,229.73,193.4,229.73z"/>
	<circle class="st2" cx="180.42" cy="203.11" r="1.03"/>
	<circle class="st2" cx="197.93" cy="195.3" r="2.29"/>
	<circle class="st2" cx="185.73" cy="197.32" r="2.02"/>
	<circle class="st2" cx="201.14" cy="203.22" r="0.92"/>
</g>
</svg>
