<?xml version="1.0" encoding="utf-8"?>
<!-- Generator: Adobe Illustrator 23.0.1, SVG Export Plug-In . SVG Version: 6.00 Build 0)  -->
<svg version="1.1" id="Layer_1" xmlns="http://www.w3.org/2000/svg" xmlns:xlink="http://www.w3.org/1999/xlink" x="0px" y="0px"
	 viewBox="0 0 599.8 599.8" style="enable-background:new 0 0 599.8 599.8;" xml:space="preserve">
<style type="text/css">
	.st0{fill:#BCE6FB;}
	.st1{fill:#010101;}
	.st2{fill:#FFD98C;}
</style>
<g id="B-Coelophysis">
	<path class="st0" d="M542.6,140c-1.3,0.1-2.7,0.1-4.1,0.3c-113.6,10.7-144.5,123.5-228.4,112c-83.9-11.5-132.9,28.7-195.8,36.2
		c-45.9,5.5-57.3-35.3-60.1-57.7c-1-7.7,0.5-15.4,3.8-22.4c5.4-11.5-22.5-53.7-35.7-5.8c-29.9,108.7,72,142.6,115.2,168.8
		c12.3,7.5,26.2,12.1,40.6,12.9c69,4.1,132.7-3.1,170.6-25.9c9.7-5.9,20-10.7,25-20.9c18.8-38.4,70.5-132.7,120-120.8
		c18.9,4.5,36.9,5,52.7,3.4c8.4-0.8,15.3-3.7,20.8-7.8h-51.6V207h54.7v2.6C593.9,187.5,583.4,138.6,542.6,140z"/>
	<circle class="st1" cx="525.3" cy="164" r="9.6"/>
	<path class="st0" d="M414.2,345.3l-49-40.5c-4.7-3.8-5.3-10.7-1.5-15.4l0,0c3.8-4.7,10.7-5.3,15.4-1.5l49,40.5
		c4.7,3.8,5.3,10.7,1.5,15.4l0,0C425.8,348.4,418.9,349.1,414.2,345.3z"/>
	<path class="st0" d="M436.4,318.5l-49-40.5c-4.7-3.8-5.3-10.7-1.5-15.4l0,0c3.8-4.7,10.7-5.3,15.4-1.5l49,40.5
		c4.7,3.8,5.3,10.7,1.5,15.4l0,0C448,321.6,441,322.3,436.4,318.5z"/>
	<path class="st0" d="M202.8,458.8L202.8,458.8c-6.6,0-11.9-5.3-11.9-11.9V345.1c0-6.6,5.3-11.9,11.9-11.9l0,0
		c6.6,0,11.9,5.3,11.9,11.9v101.8C214.7,453.4,209.3,458.8,202.8,458.8z"/>
	<path class="st0" d="M254,459.8L254,459.8c-6.6,0-11.9-5.3-11.9-11.9V346.2c0-6.6,5.3-11.9,11.9-11.9l0,0c6.6,0,11.9,5.3,11.9,11.9
		v101.8C265.9,454.5,260.6,459.8,254,459.8z"/>
	<circle class="st2" cx="185.4" cy="319" r="5.4"/>
	<circle class="st2" cx="278" cy="277.7" r="12.1"/>
	<circle class="st2" cx="213.5" cy="288.4" r="10.7"/>
	<circle class="st2" cx="295" cy="319.6" r="4.9"/>
</g>
</svg>
