<?xml version="1.0" encoding="utf-8"?>
<!-- Generator: Adobe Illustrator 23.0.1, SVG Export Plug-In . SVG Version: 6.00 Build 0)  -->
<svg version="1.1" id="Layer_1" xmlns="http://www.w3.org/2000/svg" xmlns:xlink="http://www.w3.org/1999/xlink" x="0px" y="0px"
	 viewBox="0 0 599.8 599.8" style="enable-background:new 0 0 599.8 599.8;" xml:space="preserve">
<style type="text/css">
	.st0{fill:#F9F4DF;}
	.st1{fill:#FFF8D1;}
	.st2{fill:#010101;}
	.st3{fill:#EAF5EB;}
</style>
<g id="B-Coloradisaurus">
	<path class="st0" d="M279.2,498.7c1.3,3,4.3,5,7.5,5.3c6.2,0.6,16.8,1.3,20.8,0c5-1.6-9.1-9.2-13.1-11.3c-0.7-0.4-1.4-0.6-2.2-0.8
		C288.1,491,274.8,488.7,279.2,498.7z"/>
	<path class="st0" d="M337,495.5c1.3,3,4.3,5,7.5,5.3c6.2,0.6,16.8,1.3,20.8,0c5-1.6-9.1-9.2-13.1-11.3c-0.7-0.4-1.4-0.6-2.2-0.8
		C345.9,487.9,332.5,485.6,337,495.5z"/>
	<path class="st1" d="M519.8,95.3c-63,16.3-78.4,91.5-78.4,91.5s14.3,118.9-14.3,122.4c-28.5,3.5-189-23.8-221.1,41.6
		s-131.9,0-131.9,0H17c0,0,78.4,33.3,107,65.4s128.4,0,128.4,0s121.3,25,164.1-7.1s90-87.5,78.4-196.8s78.4-70.7,78.4-70.7
		S616.1,70.3,519.8,95.3z"/>
	<circle class="st2" cx="550.9" cy="104.2" r="4.2"/>
	<polygon class="st3" points="406.4,333.8 403.1,351.8 420.4,345.6 	"/>
	<polygon class="st3" points="318.8,350.7 330.3,343.9 318.6,337.3 	"/>
	<polygon class="st3" points="365.5,365 376.9,370 375.6,357.6 	"/>
	<polygon class="st3" points="355.6,333.2 366.4,332.5 360.4,323.5 	"/>
	<polygon class="st3" points="303.2,393 319.9,401.7 319.1,382.9 	"/>
	<polygon class="st3" points="278.3,347.7 287.9,352.8 287.5,341.9 	"/>
	<polygon class="st3" points="236.6,359.3 242.8,356.6 237.4,352.6 	"/>
	<polygon class="st3" points="426,322.1 430.7,320.1 426.6,317.1 	"/>
	<path class="st1" d="M263.6,509.7h15.3c8.2,0,14.9-6.7,14.9-14.9v-93.4c0-8.2-6.7-14.9-14.9-14.9h-15.3c-8.2,0-14.9,6.7-14.9,14.9
		v93.4C248.8,503,255.4,509.7,263.6,509.7z"/>
	<path class="st1" d="M314.9,506.6h15.3c8.2,0,14.9-6.7,14.9-14.9v-93.4c0-8.2-6.7-14.9-14.9-14.9h-15.3c-8.2,0-14.9,6.7-14.9,14.9
		v93.4C300.1,499.9,306.7,506.6,314.9,506.6z"/>
	<path class="st1" d="M513.9,334.7l-54.5,15.5c-7,2-14.4-2.1-16.4-9.1l0,0c-2-7,2.1-14.4,9.1-16.4l54.5-15.5c7-2,14.4,2.1,16.4,9.1
		l0,0C525,325.4,521,332.7,513.9,334.7z"/>
	<path class="st1" d="M503.5,382.7h-56.7c-7.3,0-13.3-6-13.3-13.3l0,0c0-7.3,6-13.3,13.3-13.3h56.7c7.3,0,13.3,6,13.3,13.3l0,0
		C516.7,376.7,510.7,382.7,503.5,382.7z"/>
	<path class="st0" d="M498.4,377c1.2,2.7,3.8,4.5,6.8,4.8c5.6,0.5,15.2,1.2,18.9,0c4.5-1.4-8.3-8.4-11.9-10.2
		c-0.6-0.3-1.3-0.6-2-0.7C506.5,370,494.4,368,498.4,377z"/>
	<path class="st0" d="M502.5,363.1c1.2,2.7,3.8,4.5,6.8,4.8c5.6,0.5,15.2,1.2,18.9,0c4.5-1.4-8.3-8.4-11.9-10.2
		c-0.6-0.3-1.3-0.6-2-0.7C510.6,356.2,498.5,354.1,502.5,363.1z"/>
	<path class="st0" d="M509,331.6c2.4,1.8,5.6,2,8.3,0.8c5.2-2.3,13.8-6.5,16.5-9.2c3.2-3.5-11.3-3.2-15.4-3.1
		c-0.7,0-1.4,0.1-2.1,0.3C512.7,321.6,501.2,325.7,509,331.6z"/>
	<path class="st0" d="M505.9,317.6c2.4,1.8,5.6,2,8.3,0.8c5.2-2.3,13.8-6.5,16.5-9.2c3.2-3.5-11.3-3.2-15.4-3.1
		c-0.7,0-1.4,0.1-2.1,0.3C509.5,307.5,498,311.6,505.9,317.6z"/>
	<path class="st0" d="M323.6,499.7c1.5,3.4,4.9,5.7,8.6,6c7.1,0.6,19.2,1.5,23.7,0c5.7-1.8-10.4-10.5-14.9-12.8
		c-0.8-0.4-1.6-0.7-2.5-0.9C333.7,491,318.6,488.4,323.6,499.7z"/>
	<path class="st0" d="M265.8,502.9c1.5,3.4,4.9,5.7,8.6,6c7.1,0.6,19.2,1.5,23.7,0c5.7-1.8-10.4-10.5-14.9-12.8
		c-0.8-0.4-1.6-0.7-2.5-0.9C276,494.1,260.8,491.5,265.8,502.9z"/>
</g>
</svg>
