<?xml version="1.0" encoding="utf-8"?>
<!-- Generator: Adobe Illustrator 23.0.3, SVG Export Plug-In . SVG Version: 6.00 Build 0)  -->
<svg version="1.0" id="Layer_1" xmlns="http://www.w3.org/2000/svg" xmlns:xlink="http://www.w3.org/1999/xlink" x="0px" y="0px"
	 viewBox="0 0 400 400" style="enable-background:new 0 0 400 400;" xml:space="preserve">
<style type="text/css">
	.st0{fill:#F9F4DF;}
	.st1{fill:#FFF8D1;}
	.st2{fill:#010101;}
	.st3{fill:#EAF5EB;}
</style>
<g id="B-Coloradisaurus">
	<path class="st0" d="M191.29,249.24c0.31,0.71,1.01,1.18,1.78,1.25c1.47,0.14,3.99,0.31,4.93,0.01c1.18-0.38-2.16-2.18-3.1-2.67
		c-0.17-0.09-0.34-0.15-0.52-0.19C193.4,247.42,190.25,246.88,191.29,249.24z"/>
	<path class="st0" d="M204.97,248.5c0.31,0.71,1.01,1.18,1.78,1.25c1.47,0.14,3.99,0.31,4.93,0.01c1.18-0.38-2.16-2.18-3.1-2.67
		c-0.17-0.09-0.34-0.15-0.52-0.19C207.08,246.68,203.92,246.14,204.97,248.5z"/>
	<path class="st1" d="M248.27,153.7c-14.92,3.87-18.58,21.68-18.58,21.68s3.38,28.16-3.38,29c-6.76,0.84-44.77-5.63-52.37,9.85
		s-31.25,0-31.25,0h-13.51c0,0,18.58,7.88,25.34,15.49s30.41,0,30.41,0s28.72,5.91,38.86-1.69c10.14-7.6,21.32-20.72,18.58-46.61
		c-2.74-25.89,18.58-16.74,18.58-16.74S271.08,147.78,248.27,153.7z"/>
	<circle class="st2" cx="255.64" cy="155.81" r="0.99"/>
	<polygon class="st3" points="221.42,210.18 220.64,214.45 224.73,212.99 	"/>
	<polygon class="st3" points="200.66,214.2 203.4,212.58 200.62,211.02 	"/>
	<polygon class="st3" points="211.73,217.57 214.44,218.77 214.13,215.83 	"/>
	<polygon class="st3" points="209.38,210.04 211.94,209.88 210.52,207.75 	"/>
	<polygon class="st3" points="196.97,224.21 200.92,226.28 200.74,221.82 	"/>
	<polygon class="st3" points="191.08,213.48 193.35,214.68 193.26,212.11 	"/>
	<polygon class="st3" points="181.2,216.24 182.67,215.6 181.38,214.64 	"/>
	<polygon class="st3" points="226.07,207.42 227.18,206.95 226.21,206.23 	"/>
	<path class="st1" d="M187.6,251.85h3.62c1.94,0,3.52-1.58,3.52-3.52V226.2c0-1.94-1.58-3.52-3.52-3.52h-3.62
		c-1.94,0-3.52,1.58-3.52,3.52v22.13C184.08,250.26,185.66,251.85,187.6,251.85z"/>
	<path class="st1" d="M199.75,251.12h3.62c1.94,0,3.52-1.58,3.52-3.52v-22.13c0-1.94-1.58-3.52-3.52-3.52h-3.62
		c-1.94,0-3.52,1.58-3.52,3.52v22.13C196.23,249.53,197.81,251.12,199.75,251.12z"/>
	<path class="st1" d="M246.89,210.41l-12.92,3.67c-1.66,0.47-3.4-0.5-3.88-2.16v0c-0.47-1.66,0.5-3.4,2.16-3.88l12.92-3.67
		c1.66-0.47,3.4,0.5,3.88,2.16h0C249.52,208.19,248.55,209.93,246.89,210.41z"/>
	<path class="st1" d="M244.41,221.77h-13.43c-1.73,0-3.14-1.41-3.14-3.14l0,0c0-1.73,1.41-3.14,3.14-3.14h13.43
		c1.73,0,3.14,1.41,3.14,3.14l0,0C247.55,220.36,246.13,221.77,244.41,221.77z"/>
	<path class="st0" d="M243.2,220.41c0.28,0.64,0.91,1.07,1.61,1.13c1.33,0.12,3.61,0.28,4.47,0c1.07-0.34-1.96-1.98-2.81-2.42
		c-0.15-0.08-0.31-0.14-0.47-0.17C245.12,218.76,242.26,218.28,243.2,220.41z"/>
	<path class="st0" d="M244.19,217.14c0.28,0.64,0.91,1.07,1.61,1.13c1.33,0.12,3.61,0.28,4.47,0c1.07-0.34-1.96-1.98-2.81-2.42
		c-0.15-0.08-0.31-0.14-0.47-0.17C246.1,215.49,243.24,215,244.19,217.14z"/>
	<path class="st0" d="M245.73,209.67c0.56,0.42,1.32,0.48,1.96,0.2c1.22-0.55,3.28-1.53,3.9-2.19c0.76-0.82-2.67-0.76-3.64-0.73
		c-0.17,0.01-0.33,0.03-0.49,0.08C246.59,207.3,243.86,208.28,245.73,209.67z"/>
	<path class="st0" d="M244.98,206.34c0.56,0.42,1.32,0.48,1.96,0.2c1.22-0.55,3.28-1.53,3.9-2.19c0.76-0.82-2.67-0.76-3.64-0.73
		c-0.17,0.01-0.33,0.03-0.49,0.08C245.84,203.96,243.11,204.94,244.98,206.34z"/>
	<path class="st0" d="M201.8,249.49c0.36,0.81,1.15,1.35,2.03,1.43c1.67,0.15,4.54,0.35,5.62,0.01c1.34-0.43-2.46-2.48-3.53-3.04
		c-0.19-0.1-0.38-0.17-0.59-0.22C204.2,247.42,200.61,246.8,201.8,249.49z"/>
	<path class="st0" d="M188.12,250.24c0.36,0.81,1.15,1.35,2.03,1.43c1.67,0.15,4.54,0.35,5.62,0.01c1.34-0.43-2.46-2.48-3.53-3.04
		c-0.19-0.1-0.38-0.17-0.59-0.22C190.52,248.16,186.93,247.55,188.12,250.24z"/>
</g>
</svg>
