<?xml version="1.0" encoding="utf-8"?>
<!-- Generator: Adobe Illustrator 23.0.3, SVG Export Plug-In . SVG Version: 6.00 Build 0)  -->
<svg version="1.0" id="Layer_1" xmlns="http://www.w3.org/2000/svg" xmlns:xlink="http://www.w3.org/1999/xlink" x="0px" y="0px"
	 viewBox="0 0 400 400" style="enable-background:new 0 0 400 400;" xml:space="preserve">
<style type="text/css">
	.st0{fill:#F47A5E;}
	.st1{fill:#010101;}
	.st2{fill:#ABA1CE;}
	.st3{fill:#F9AF8B;}
	.st4{fill:#FFEBB8;}
</style>
<g id="B-Euraptor">
	<path class="st0" d="M221.13,186.74c8.38,0.6,10.9,11.21,4.59,8.18c-9.97-4.79-16.36-0.08-16.36-0.08s-6.67,6.94-15.56,8.65
		c-11.37,2.19-21.94-9.42-1.8-13.17C211.29,186.74,221.13,186.74,221.13,186.74z"/>
	<circle class="st1" cx="222.63" cy="189.3" r="0.9"/>
	<rect x="186.42" y="193.26" class="st2" width="1.33" height="1.33"/>
	<rect x="195.2" y="191.13" class="st2" width="1.33" height="1.33"/>
	<rect x="191.87" y="194.59" class="st2" width="2.33" height="2.33"/>
	<rect x="199.72" y="193.26" class="st2" width="1.33" height="1.33"/>
	<rect x="203.98" y="190.2" class="st2" width="0.94" height="0.94"/>
	<rect x="184.43" y="197.38" class="st2" width="0.8" height="0.8"/>
	<circle class="st3" cx="228.09" cy="193.26" r="0.46"/>
	<path class="st0" d="M184.43,193.26c0,0-8.42,2.95-10.24-2.59c-1.53-4.66-4.39-5.39-4.39-5.39s2.14,2.96,2.53,4.45
		c0.24,0.94,3.02,5.91,4.73,7.19c1.69,1.26,7.37,5.72,6.91,4.26C183.38,199.35,184.43,193.26,184.43,193.26z"/>
	<path class="st0" d="M189.25,214.37L189.25,214.37c-0.62,0-1.13-0.51-1.13-1.13v-12.17c0-0.62,0.51-1.13,1.13-1.13l0,0
		c0.62,0,1.13,0.51,1.13,1.13v12.17C190.38,213.86,189.87,214.37,189.25,214.37z"/>
	<path class="st0" d="M194.2,214.37L194.2,214.37c-0.62,0-1.13-0.51-1.13-1.13v-12.17c0-0.62,0.51-1.13,1.13-1.13l0,0
		c0.62,0,1.13,0.51,1.13,1.13v12.17C195.33,213.86,194.82,214.37,194.2,214.37z"/>
	<path class="st0" d="M208.61,200.93l-4.71-1.92c-0.43-0.18-0.64-0.67-0.47-1.1l0,0c0.18-0.43,0.67-0.64,1.1-0.47l4.71,1.92
		c0.43,0.18,0.64,0.67,0.47,1.1l0,0C209.54,200.9,209.04,201.11,208.61,200.93z"/>
	<path class="st0" d="M210.15,198.66l-4.71-1.92c-0.43-0.18-0.64-0.67-0.47-1.1l0,0c0.18-0.43,0.67-0.64,1.1-0.47l4.71,1.92
		c0.43,0.18,0.64,0.67,0.47,1.1l0,0C211.08,198.63,210.58,198.83,210.15,198.66z"/>
	<path class="st4" d="M210.42,200.5c0,0,0,1.58-1.24,2.01c-0.45-1.29,0.59-2.01,0-2.75S210.2,199.1,210.42,200.5z"/>
	<path class="st4" d="M211.93,198.22c0,0,0,1.58-1.24,2.01c-0.45-1.29,0.59-2.01,0-2.75S211.71,196.81,211.93,198.22z"/>
	<path class="st4" d="M195.33,212.97c0,0,0.99,1.1,0.39,1.12c-0.6,0.02-1.47,0.42-1.84,0.23
		C193.51,214.13,195.33,212.97,195.33,212.97z"/>
	<path class="st4" d="M190.33,212.97c0,0,0.99,1.1,0.39,1.12c-0.6,0.02-1.47,0.42-1.84,0.23
		C188.51,214.13,190.33,212.97,190.33,212.97z"/>
</g>
</svg>
