<?xml version="1.0" encoding="utf-8"?>
<!-- Generator: Adobe Illustrator 23.0.3, SVG Export Plug-In . SVG Version: 6.00 Build 0)  -->
<svg version="1.0" id="Layer_1" xmlns="http://www.w3.org/2000/svg" xmlns:xlink="http://www.w3.org/1999/xlink" x="0px" y="0px"
	 viewBox="0 0 400 400" style="enable-background:new 0 0 400 400;" xml:space="preserve">
<style type="text/css">
	.st0{fill:#FDF7BB;}
	.st1{fill:#DFEED0;}
	.st2{fill:#CEB9DA;}
	.st3{fill:#010101;}
	.st4{fill:#9377B6;}
</style>
<g id="B-Gui">
	<path class="st0" d="M200.12,213.33c0,0,3.37,1.64,1.74,1.69c-1.63,0.05-2.92,0.51-3.31-0.15
		C198.15,214.2,200.12,213.33,200.12,213.33z"/>
	<path class="st0" d="M196.49,215.54c0,0,3.37,1.64,1.74,1.69c-1.63,0.05-2.92,0.51-3.31-0.15
		C194.53,216.41,196.49,215.54,196.49,215.54z"/>
	<g id="A-Guiabasaurus_1_">
		<path class="st1" d="M220.35,182.13L220.35,182.13c-0.16-0.53-1.4-1.79-1.91-1.58c-1.91,0.76-6,2.94-5.87,7.61
			c0.03,1.03,1.4,1.31,1.82,0.37c0.9-2.04,2.14-4.17,3.35-5.75c0.15-0.2,0.37-0.32,0.62-0.36c0.14-0.02,0.3-0.04,0.49-0.05
			C219.45,182.34,220.53,182.72,220.35,182.13z"/>
		<path class="st2" d="M190.96,207.66c0,0,3.74,2.6,8.13,0.5c3.32-0.64,5.1-1.12,8.53-1.77c1.41,0,5.05-3.27,5.96-7.72
			c0.28-1.37,5.07-9.05,5.97-9.05c0.9,0,6.95-3.39,6.52-5.24c0,0-0.93-2.44-3.52-2.24c-0.6-0.9-1.67,0.26-2.19-0.01
			c-0.9-0.47-3.09-0.99-3.69,0.11c-0.6,1.1-4.49,5.19-4.19,10.27c-0.02,2.09-3.13,1.92-5.39,2.99c-2.28,1.08-10.55-1.08-19.43,4.5
			c0,0-1.49-1.34-3.82-3.43c-2.25-2.02-9.85-0.61-9.85-0.61s10.98-0.69,12.39,7.93C187.98,205.55,190.96,207.66,190.96,207.66z"/>
		<circle class="st3" cx="219.3" cy="184.39" r="0.95"/>
		<circle class="st4" cx="224.41" cy="183.72" r="0.27"/>
	</g>
	<circle class="st1" cx="190.96" cy="201.83" r="1.21"/>
	<circle class="st1" cx="196.82" cy="198.25" r="0.44"/>
	<circle class="st1" cx="201.8" cy="200.02" r="0.61"/>
	<circle class="st1" cx="204.81" cy="197.2" r="0.61"/>
	<circle class="st1" cx="195.97" cy="203.91" r="0.42"/>
	<path class="st2" d="M195.52,217.98L195.52,217.98c-0.78,0-1.42-0.64-1.42-1.42v-10.82c0-0.78,0.64-1.42,1.42-1.42h0
		c0.78,0,1.42,0.64,1.42,1.42v10.82C196.94,217.34,196.3,217.98,195.52,217.98z"/>
	<path class="st2" d="M199.18,215.84L199.18,215.84c-0.78,0-1.42-0.64-1.42-1.42V203.6c0-0.78,0.64-1.42,1.42-1.42l0,0
		c0.78,0,1.42,0.64,1.42,1.42v10.82C200.6,215.2,199.96,215.84,199.18,215.84z"/>
	<path class="st0" d="M199.91,213.97c0,0,3.37,1.64,1.74,1.69c-1.63,0.05-2.92,0.51-3.31-0.15
		C197.95,214.84,199.91,213.97,199.91,213.97z"/>
	<path class="st0" d="M196.09,216.09c0,0,3.37,1.64,1.74,1.69c-1.63,0.05-2.92,0.51-3.31-0.15
		C194.13,216.97,196.09,216.09,196.09,216.09z"/>
	<path class="st2" d="M213.99,206.72L213.99,206.72c-0.26,0.31-0.73,0.35-1.04,0.09l-3.78-3.16c-0.31-0.26-0.35-0.73-0.09-1.04l0,0
		c0.26-0.31,0.73-0.35,1.04-0.09l3.78,3.16C214.21,205.94,214.25,206.41,213.99,206.72z"/>
	<path class="st2" d="M215.02,204.38L215.02,204.38c-0.26,0.31-0.73,0.35-1.04,0.09l-3.78-3.16c-0.31-0.26-0.35-0.73-0.09-1.04l0,0
		c0.26-0.31,0.73-0.35,1.04-0.09l3.78,3.16C215.23,203.6,215.28,204.07,215.02,204.38z"/>
	<path class="st0" d="M214.04,205.82c0,0,1.01,1.58,0.3,1.17c-0.71-0.4-1.38-0.54-1.37-0.93
		C212.98,205.68,214.04,205.82,214.04,205.82z"/>
	<path class="st0" d="M215.16,203.34c0,0,1.01,1.58,0.3,1.17c-0.71-0.41-1.38-0.54-1.37-0.93S215.16,203.34,215.16,203.34z"/>
</g>
</svg>
