<?xml version="1.0" encoding="utf-8"?>
<!-- Generator: Adobe Illustrator 23.0.1, SVG Export Plug-In . SVG Version: 6.00 Build 0)  -->
<svg version="1.1" id="Layer_1" xmlns="http://www.w3.org/2000/svg" xmlns:xlink="http://www.w3.org/1999/xlink" x="0px" y="0px"
	 viewBox="0 0 599.8 599.8" style="enable-background:new 0 0 599.8 599.8;" xml:space="preserve">
<style type="text/css">
	.st0{fill:#F79F8C;}
	.st1{fill:#FBFAE1;}
	.st2{fill:#FCF7BC;}
	.st3{fill:#F6F08A;}
	.st4{fill:#F1F0A3;}
	.st5{fill:#010101;}
	.st6{fill:#84C441;}
</style>
<g id="B-Hespo">
	<path class="st0" d="M255.3,447.9L255.3,447.9c-25,0-45.4-20.4-45.4-45.4v-24.6c0-25,20.4-45.4,45.4-45.4l0,0
		c25,0,45.4,20.4,45.4,45.4v24.6C300.7,427.4,280.3,447.9,255.3,447.9z"/>
	<path class="st1" d="M274.3,442.3c0,0,10.7-64.4,27.2-29.9C311,446.9,298.5,442.3,274.3,442.3z"/>
	<path class="st0" d="M446,438L446,438c-25,0-45.4-20.4-45.4-45.4v-24.6c0-25,20.4-45.4,45.4-45.4l0,0c25,0,45.4,20.4,45.4,45.4
		v24.6C491.3,417.6,470.9,438,446,438z"/>
	<path class="st1" d="M466.8,430c0,0,10.7-64.4,27.2-29.9C503.5,434.5,491,430,466.8,430z"/>
	<path class="st2" d="M90.5,247.8c0,0,17.3-34.7,28.3-69.5c6-19.2,27.3-23.8,39-8.7c27.1,34.9,57.4,63.9,57.4,63.9"/>
	<path class="st2" d="M211.3,192.3c0,0,24.7-31.2,42.3-63.4c9.3-17,30.6-16.2,39.4,1.1c20,39.3,44.2,73.5,44.2,73.5"/>
	<path class="st2" d="M401,217c0,0,35.6-20.3,64.4-43.9c14.5-11.8,34.4-1.4,36.5,19c4.3,41.9,13.7,79.8,13.7,79.8"/>
	<path class="st2" d="M304.6,220.9c0,0,25.5-30.7,44-62.5c9.7-16.7,31-15.2,39.4,2.3c19.1,39.7,42.5,74.4,42.5,74.4"/>
	<path class="st3" d="M153.3,219.4c0,0,14.2-31.8,24.3-65.1c6-19.9,28.4-24.6,39.8-8.2c21.9,31.3,44.6,56.2,44.6,56.2"/>
	<path class="st3" d="M255.7,190.3c0,0,19.4-27.9,34.9-58.2c9.3-18.1,32-17.6,40.4,1.1c16.1,35.8,34.2,65.4,34.2,65.4"/>
	<path class="st3" d="M435.9,224.1c0,0,28.5-13.5,54.7-31.2c15.6-10.6,35.2,2.8,34.8,23.9c-0.8,40.4,2.8,76.6,2.8,76.6"/>
	<path class="st3" d="M336.4,216.8c0,0,19.9-27.3,36-57.2c9.6-17.8,32.4-16.7,40.4,2.2c15.4,36.2,32.8,66.3,32.8,66.3"/>
	<path class="st0" d="M527.1,294.8c0,63.6-119.5,115.2-266.8,115.2S91.1,358.4,91.1,294.8c0-63.6,87.1-107.3,169.1-115.2
		C319.6,173.9,527.1,231.2,527.1,294.8z"/>
	<path class="st0" d="M91.1,294.8c0,0-47-33.9-72-71.4c-8.1-12.1,8.7-25.1,18.8-14.6c16.9,17.6,44.3,31.8,140.2,10.4"/>
	<path class="st4" d="M149.7,393.8c0,0,270.9-55,294.6-25C468.1,398.9,218.1,431.1,149.7,393.8z"/>
	<path class="st0" d="M556.2,284l23.5-9.4c1.6-3.1,2.6-6.2,3-9.2c3.4-29.5-79-18.4-79-18.4c-28.9,16.6,3.4,89.1,4.7,88
		c1.1-0.9,45.6-25.9,65.2-50.9L556.2,284L556.2,284z"/>
	<circle class="st5" cx="527.1" cy="265.8" r="9.1"/>
	<path class="st0" d="M197.9,483.2L197.9,483.2c-25,0-45.4-20.4-45.4-45.4v-57.4c0-25,20.4-45.4,45.4-45.4l0,0
		c25,0,45.4,20.4,45.4,45.4v57.4C243.3,462.8,222.9,483.2,197.9,483.2z"/>
	<path class="st0" d="M412.9,483.2L412.9,483.2c-25,0-45.4-20.4-45.4-45.4v-57.4c0-25,20.4-45.4,45.4-45.4l0,0
		c25,0,45.4,20.4,45.4,45.4v57.4C458.4,462.8,437.9,483.2,412.9,483.2z"/>
	<circle class="st6" cx="572.4" cy="264.3" r="1.5"/>
	<path class="st1" d="M215.2,478.1c0,0,10.7-64.4,27.2-29.9C251.8,482.7,239.3,478.1,215.2,478.1z"/>
	<path class="st1" d="M435.9,478.1c0,0,10.7-64.4,27.2-29.9C472.6,482.7,460.1,478.1,435.9,478.1z"/>
</g>
</svg>
