<?xml version="1.0" encoding="utf-8"?>
<!-- Generator: Adobe Illustrator 23.0.3, SVG Export Plug-In . SVG Version: 6.00 Build 0)  -->
<svg version="1.0" id="Layer_1" xmlns="http://www.w3.org/2000/svg" xmlns:xlink="http://www.w3.org/1999/xlink" x="0px" y="0px"
	 viewBox="0 0 400 400" style="enable-background:new 0 0 400 400;" xml:space="preserve">
<style type="text/css">
	.st0{fill:#F79F8C;}
	.st1{fill:#FBFAE1;}
	.st2{fill:#FCF7BC;}
	.st3{fill:#F6F08A;}
	.st4{fill:#F1F0A3;}
	.st5{fill:#010101;}
	.st6{fill:#84C441;}
</style>
<g id="B-Hespo">
	<path class="st0" d="M190.48,233.89L190.48,233.89c-5.57,0-10.14-4.56-10.14-10.14v-5.5c0-5.57,4.56-10.14,10.14-10.14h0
		c5.57,0,10.14,4.56,10.14,10.14v5.5C200.61,229.33,196.05,233.89,190.48,233.89z"/>
	<path class="st1" d="M194.73,232.65c0,0,2.38-14.38,6.08-6.68C202.91,233.67,200.12,232.65,194.73,232.65z"/>
	<path class="st0" d="M233.03,231.69L233.03,231.69c-5.57,0-10.14-4.56-10.14-10.14v-5.5c0-5.57,4.56-10.14,10.14-10.14h0
		c5.57,0,10.14,4.56,10.14,10.14v5.5C243.16,227.13,238.6,231.69,233.03,231.69z"/>
	<path class="st1" d="M237.69,229.89c0,0,2.38-14.38,6.08-6.68C245.87,230.91,243.09,229.89,237.69,229.89z"/>
	<path class="st2" d="M153.7,189.24c0,0,3.87-7.75,6.31-15.51c1.34-4.28,6.09-5.31,8.71-1.94c6.05,7.79,12.8,14.25,12.8,14.25"/>
	<path class="st2" d="M180.67,176.84c0,0,5.51-6.97,9.45-14.15c2.08-3.79,6.84-3.62,8.8,0.25c4.47,8.78,9.86,16.41,9.86,16.41"/>
	<path class="st2" d="M222.99,182.37c0,0,7.94-4.53,14.37-9.8c3.23-2.64,7.67-0.32,8.14,4.25c0.95,9.35,3.05,17.8,3.05,17.8"/>
	<path class="st2" d="M201.49,183.24c0,0,5.7-6.85,9.81-13.94c2.16-3.72,6.91-3.4,8.79,0.51c4.26,8.87,9.48,16.61,9.48,16.61"/>
	<path class="st3" d="M167.72,182.91c0,0,3.18-7.1,5.42-14.52c1.34-4.44,6.33-5.5,8.88-1.84c4.88,6.99,9.96,12.54,9.96,12.54"/>
	<path class="st3" d="M190.57,176.4c0,0,4.32-6.22,7.78-12.98c2.07-4.04,7.14-3.92,9.01,0.25c3.59,7.98,7.63,14.6,7.63,14.6"/>
	<path class="st3" d="M230.78,183.94c0,0,6.37-3.01,12.21-6.97c3.48-2.36,7.85,0.63,7.77,5.33c-0.17,9.02,0.62,17.09,0.62,17.09"/>
	<path class="st3" d="M208.58,182.31c0,0,4.44-6.1,8.04-12.76c2.15-3.98,7.22-3.72,9.01,0.5c3.43,8.08,7.33,14.8,7.33,14.8"/>
	<path class="st0" d="M251.13,199.73c0,14.2-26.66,25.7-59.55,25.7s-37.74-11.51-37.74-25.7c0-14.2,19.43-23.94,37.74-25.7
		C204.84,172.75,251.13,185.54,251.13,199.73z"/>
	<path class="st0" d="M153.84,199.73c0,0-10.49-7.57-16.07-15.94c-1.8-2.7,1.95-5.6,4.2-3.26c3.77,3.92,9.88,7.1,31.29,2.31"/>
	<path class="st4" d="M166.92,221.82c0,0,60.45-12.27,65.75-5.57S182.18,230.14,166.92,221.82z"/>
	<path class="st0" d="M257.64,197.32l5.24-2.1c0.35-0.7,0.59-1.39,0.66-2.06c0.76-6.58-17.63-4.11-17.63-4.11
		c-6.45,3.71,0.75,19.89,1.05,19.63c0.24-0.2,10.17-5.79,14.56-11.37H257.64z"/>
	<circle class="st5" cx="251.13" cy="193.26" r="2.02"/>
	<path class="st0" d="M177.67,241.78L177.67,241.78c-5.57,0-10.14-4.56-10.14-10.14v-12.81c0-5.57,4.56-10.14,10.14-10.14h0
		c5.57,0,10.14,4.56,10.14,10.14v12.81C187.81,237.22,183.25,241.78,177.67,241.78z"/>
	<path class="st0" d="M225.66,241.78L225.66,241.78c-5.57,0-10.14-4.56-10.14-10.14v-12.81c0-5.57,4.56-10.14,10.14-10.14h0
		c5.57,0,10.14,4.56,10.14,10.14v12.81C235.8,237.22,231.24,241.78,225.66,241.78z"/>
	<circle class="st6" cx="261.24" cy="192.92" r="0.34"/>
	<path class="st1" d="M181.52,240.64c0,0,2.38-14.38,6.08-6.68C189.7,241.66,186.91,240.64,181.52,240.64z"/>
	<path class="st1" d="M230.78,240.64c0,0,2.38-14.38,6.08-6.68C238.97,241.66,236.18,240.64,230.78,240.64z"/>
</g>
</svg>
