<?xml version="1.0" encoding="utf-8"?>
<!-- Generator: Adobe Illustrator 23.0.3, SVG Export Plug-In . SVG Version: 6.00 Build 0)  -->
<svg version="1.0" id="Layer_1" xmlns="http://www.w3.org/2000/svg" xmlns:xlink="http://www.w3.org/1999/xlink" x="0px" y="0px"
	 viewBox="0 0 400 400" style="enable-background:new 0 0 400 400;" xml:space="preserve">
<style type="text/css">
	.st0{fill:#FFF1BA;}
	.st1{fill:#B4DFD1;}
	.st2{fill:#010101;}
	.st3{fill:#48BA7F;}
	.st4{fill:#F6E0ED;}
	.st5{fill:#FDF7BB;}
</style>
<g id="B-Isi">
	<polygon class="st0" points="237.91,169.42 236.84,169.67 235.76,169.92 235.69,167.22 235.63,164.51 236.77,166.96 	"/>
	<polygon class="st0" points="240.38,168.85 239.29,169.06 238.21,169.27 238.26,166.56 238.31,163.85 239.34,166.35 	"/>
	<polygon class="st0" points="242.3,168.57 241.2,168.65 240.09,168.72 240.46,166.04 240.82,163.36 241.56,165.96 	"/>
	<polygon class="st0" points="244.5,168.57 243.4,168.65 242.3,168.72 242.66,166.04 243.03,163.36 243.76,165.96 	"/>
	<g id="A-Isi_1_">
		<path class="st1" d="M249.42,170.05c0.34-0.89-0.44-1.77-1.5-2.49c-1.99-1.37-4.47-1.8-6.84-1.34
			c-6.76,1.32-23.19,5.57-33.07,17.03c-0.56,0.65-1.21,1.22-1.95,1.65c-4.2,2.45-10.4,11.44-12.3,14.29
			c-0.34,0.52-0.63,1.06-0.86,1.64c-0.92,2.27-4.16,8.8-10.86,8.61c-8.1-0.22-19.58-4.91-25.49,4.69c-5.91,9.6,6.58,3.57,6.58,3.57
			s-5.06,1.79-5.4,0.22s1.35-8.26,14.86-5.8c8.98,1.63,13.25,6.52,15.11,9.61c1.27,2.11,3.32,3.64,5.72,4.2
			c5.13,1.2,13.67,1.41,20.09-7.38c0.3-0.41,0.56-0.86,0.78-1.31c0.98-2,1.94-4,2.72-5.67c0.98-2.08,0.99-4.43,0.26-6.62
			c-0.95-2.89-0.25-8.97,10.25-20.9c4.02-4.57,12.36-4.15,15.61-3.79c0.58,0.07,3.87,0.74,4.38-1.6
			C247.51,178.65,248.57,172.28,249.42,170.05z M243.9,180.37l-1.22-2.74l3.8,2.4C246.48,180.03,245.4,180.58,243.9,180.37z"/>
		<ellipse class="st2" cx="245.14" cy="169.7" rx="0.81" ry="1.07"/>
		<ellipse class="st3" cx="246.56" cy="178.3" rx="0.35" ry="0.46"/>
		<path class="st4" d="M236.26,167.33l-5.39,8.12l1.71,5.52l-5.15-1.45l1.16-7.82l1.12-2.34
			C229.7,169.36,236.21,166.64,236.26,167.33z"/>
		<path class="st4" d="M224.85,171.31l-3.49,11.33l2.87,5.42l-6.32-1.35l1.16-7.82l0.64-4.99
			C219.71,173.9,224.8,170.63,224.85,171.31z"/>
		<path class="st4" d="M215.09,176.91l-1.86,14.86l4.44,6.94l-7.89-2.87l1.16-7.82l-2.08-5.78
			C208.86,182.24,215.04,176.23,215.09,176.91z"/>
		<path class="st4" d="M206.06,184.9l-2.76,9.97l4.64,11.19l-7.36-6.25l-0.11-7.96l1.17-3.11
			C201.64,188.74,205.9,184.24,206.06,184.9z"/>
		<path class="st4" d="M198.13,193.07l-1.61,8.42l4.64,11.19l-7.36-6.25l-0.04-7.23l2.01-2.91
			C195.76,196.28,197.98,192.41,198.13,193.07z"/>
		<path class="st4" d="M191.21,204.42l-0.08,5.79l3.06,7.37l-4.85-4.12l-1.09-6.12l1.72-1.65
			C189.97,205.68,191.22,203.73,191.21,204.42z"/>
		<polygon class="st4" points="185.05,209.04 184.87,211.25 185.96,213.89 184.22,212.42 183.52,209.37 184.4,209.22 		"/>
		<polygon class="st4" points="181.44,209.38 181.29,211.21 182.2,213.4 180.76,212.18 180.09,209.32 180.82,209.32 		"/>
		<polygon class="st4" points="177.55,209.02 177.48,209.95 177.94,211.06 177.21,210.44 176.78,208.91 177.24,208.98 		"/>
		<polygon class="st4" points="175.24,208.71 175.16,209.64 175.62,210.75 174.89,210.13 174.43,208.59 174.92,208.64 		"/>
		<polygon class="st4" points="172.2,208.36 172.13,209.29 172.59,210.4 171.86,209.78 171.4,208.24 171.88,208.29 		"/>
		<polygon class="st4" points="169.32,208.12 169.24,209.14 169.7,210.25 168.96,209.63 168.5,208.09 168.98,208.11 		"/>
		<polygon class="st4" points="166.81,208.16 166.72,209.26 167.18,210.37 166.45,209.75 165.99,208.21 166.46,208.19 		"/>
		<polygon class="st4" points="164,208.59 163.9,209.86 164.36,210.97 163.63,210.35 163.17,208.81 163.64,208.69 		"/>
		<polygon class="st4" points="161.01,209.75 160.97,210.41 161.2,210.95 160.84,210.65 160.61,209.98 160.81,209.85 		"/>
		<polygon class="st4" points="158.48,211.65 158.59,212.48 158.82,213.02 158.46,212.72 158.17,211.98 158.3,211.84 		"/>
		<polygon class="st4" points="156.26,214.6 156.45,215.43 156.67,215.98 156.31,215.67 156.06,214.95 156.15,214.79 		"/>
		<polygon class="st4" points="155.23,216.73 155.56,217.18 156.03,217.28 155.62,217.47 155.07,217.25 155.15,216.98 		"/>
		<polygon class="st4" points="156.06,219.48 156.65,218.87 156.94,218.37 156.87,218.93 156.46,219.55 156.29,219.53 		"/>
	</g>
	<path class="st1" d="M196.04,235.88L196.04,235.88c-1.68,0-3.05-1.37-3.05-3.05v-7.13c0-1.68,1.37-3.05,3.05-3.05l0,0
		c1.68,0,3.05,1.37,3.05,3.05v7.13C199.09,234.51,197.71,235.88,196.04,235.88z"/>
	<path class="st1" d="M211.91,235.89L211.91,235.89c-1.68,0-3.05-1.37-3.05-3.05v-20.48c0-1.68,1.37-3.05,3.05-3.05h0
		c1.68,0,3.05,1.37,3.05,3.05v20.48C214.96,234.52,213.59,235.89,211.91,235.89z"/>
	<path class="st1" d="M215.35,232.19L215.35,232.19c-1.68,0-3.05-1.37-3.05-3.05v-20.48c0-1.68,1.37-3.05,3.05-3.05l0,0
		c1.68,0,3.05,1.37,3.05,3.05v20.48C218.4,230.82,217.03,232.19,215.35,232.19z"/>
	<path class="st1" d="M201.16,233.14L201.16,233.14c-1.68,0-3.05-1.37-3.05-3.05v-7.13c0-1.68,1.37-3.05,3.05-3.05l0,0
		c1.68,0,3.05,1.37,3.05,3.05v7.13C204.21,231.77,202.83,233.14,201.16,233.14z"/>
	<path class="st5" d="M213.28,231.47L213.28,231.47c0.4,0,0.73,0.33,0.73,0.73v2.77c0,0.4-0.33,0.73-0.73,0.73l0,0
		c-0.4,0-0.73-0.33-0.73-0.73v-2.77C212.55,231.8,212.88,231.47,213.28,231.47z"/>
	<path class="st5" d="M214.23,230.75L214.23,230.75c0.4,0,0.73,0.33,0.73,0.73v2.77c0,0.4-0.33,0.73-0.73,0.73l0,0
		c-0.4,0-0.73-0.33-0.73-0.73v-2.77C213.5,231.08,213.83,230.75,214.23,230.75z"/>
	<path class="st5" d="M217.13,227.95L217.13,227.95c0.4,0,0.73,0.33,0.73,0.73v2.77c0,0.4-0.33,0.73-0.73,0.73h0
		c-0.4,0-0.73-0.33-0.73-0.73v-2.77C216.4,228.28,216.73,227.95,217.13,227.95z"/>
	<path class="st5" d="M218.08,227.24L218.08,227.24c0.4,0,0.73,0.33,0.73,0.73v2.77c0,0.4-0.33,0.73-0.73,0.73l0,0
		c-0.4,0-0.73-0.33-0.73-0.73v-2.77C217.35,227.57,217.68,227.24,218.08,227.24z"/>
	<path class="st5" d="M202.53,228.99L202.53,228.99c0.4,0,0.73,0.33,0.73,0.73v2.77c0,0.4-0.33,0.73-0.73,0.73l0,0
		c-0.4,0-0.73-0.33-0.73-0.73v-2.77C201.79,229.32,202.12,228.99,202.53,228.99z"/>
	<path class="st5" d="M203.47,228.28L203.47,228.28c0.4,0,0.73,0.33,0.73,0.73v2.77c0,0.4-0.33,0.73-0.73,0.73l0,0
		c-0.4,0-0.73-0.33-0.73-0.73v-2.77C202.74,228.61,203.07,228.28,203.47,228.28z"/>
	<path class="st5" d="M197.63,231.47L197.63,231.47c0.4,0,0.73,0.33,0.73,0.73v2.77c0,0.4-0.33,0.73-0.73,0.73l0,0
		c-0.4,0-0.73-0.33-0.73-0.73v-2.77C196.9,231.8,197.23,231.47,197.63,231.47z"/>
	<path class="st5" d="M198.58,230.75L198.58,230.75c0.4,0,0.73,0.33,0.73,0.73v2.77c0,0.4-0.33,0.73-0.73,0.73l0,0
		c-0.4,0-0.73-0.33-0.73-0.73v-2.77C197.85,231.08,198.18,230.75,198.58,230.75z"/>
</g>
</svg>
