<?xml version="1.0" encoding="utf-8"?>
<!-- Generator: Adobe Illustrator 23.0.1, SVG Export Plug-In . SVG Version: 6.00 Build 0)  -->
<svg version="1.1" id="Layer_1" xmlns="http://www.w3.org/2000/svg" xmlns:xlink="http://www.w3.org/1999/xlink" x="0px" y="0px"
	 viewBox="0 0 599.8 599.8" style="enable-background:new 0 0 599.8 599.8;" xml:space="preserve">
<style type="text/css">
	.st0{fill:#FFF1BA;}
	.st1{fill:#B4DFD1;}
	.st2{fill:#010101;}
	.st3{fill:#48BA7F;}
	.st4{fill:#F6E0ED;}
	.st5{fill:#FDF7BB;}
</style>
<g id="B-Isi">
	<polygon class="st0" points="513.4,119.1 507,120.6 500.5,122.1 500.1,105.9 499.8,89.7 506.6,104.4 	"/>
	<polygon class="st0" points="528.2,115.7 521.7,117 515.2,118.2 515.5,102 515.8,85.8 522,100.7 	"/>
	<polygon class="st0" points="539.7,114 533.1,114.5 526.4,114.9 528.7,98.9 530.8,82.8 535.2,98.4 	"/>
	<polygon class="st0" points="552.8,114 546.3,114.5 539.7,114.9 541.8,98.9 544,82.8 548.4,98.4 	"/>
	<g id="A-Isi_1_">
		<path class="st1" d="M582.3,122.9c2-5.3-2.6-10.6-9-14.9c-11.9-8.2-26.8-10.8-40.9-8c-40.5,7.9-138.8,33.3-197.9,101.9
			c-3.4,3.9-7.2,7.3-11.7,9.9c-25.1,14.7-62.2,68.5-73.6,85.5c-2,3.1-3.8,6.3-5.1,9.8c-5.5,13.6-24.9,52.7-65,51.5
			c-48.5-1.3-117.2-29.4-152.5,28.1s39.4,21.4,39.4,21.4s-30.3,10.7-32.3,1.3c-2-9.4,8.1-49.4,88.9-34.7c53.7,9.8,79.3,39,90.4,57.5
			c7.6,12.6,19.9,21.8,34.2,25.1c30.7,7.2,81.8,8.4,120.2-44.2c1.8-2.5,3.4-5.1,4.7-7.8c5.9-12,11.6-23.9,16.3-33.9
			c5.9-12.4,5.9-26.5,1.6-39.6c-5.7-17.3-1.5-53.7,61.3-125.1c24.1-27.3,74-24.8,93.4-22.7c3.5,0.4,23.2,4.4,26.2-9.6
			C570.9,174.4,577.2,136.2,582.3,122.9z M549.3,184.6l-7.3-16.4l22.7,14.4C564.7,182.6,558.2,185.9,549.3,184.6z"/>
		<ellipse class="st2" cx="556.7" cy="120.8" rx="4.8" ry="6.4"/>
		<ellipse class="st3" cx="565.2" cy="172.3" rx="2.1" ry="2.8"/>
		<path class="st4" d="M503.5,106.6l-32.3,48.6l10.2,33l-30.8-8.7l6.9-46.8l6.7-14C464.3,118.8,503.2,102.5,503.5,106.6z"/>
		<path class="st4" d="M435.2,130.4l-20.9,67.8l17.2,32.4l-37.8-8.1l6.9-46.8l3.8-29.9C404.5,145.9,434.9,126.4,435.2,130.4z"/>
		<path class="st4" d="M376.8,163.9l-11.1,88.9l26.6,41.5l-47.2-17.2l6.9-46.8l-12.4-34.6C339.5,195.8,376.5,159.9,376.8,163.9z"/>
		<path class="st4" d="M322.8,211.8l-16.5,59.7l27.8,67L290,301l-0.7-47.6l7-18.6C296.3,234.7,321.8,207.8,322.8,211.8z"/>
		<path class="st4" d="M275.3,260.7l-9.6,50.4l27.8,67l-44-37.4l-0.2-43.3l12-17.4C261.2,279.9,274.4,256.7,275.3,260.7z"/>
		<path class="st4" d="M233.9,328.6l-0.5,34.7l18.3,44.1l-29-24.7l-6.5-36.6l10.3-9.9C226.5,336.1,234,324.4,233.9,328.6z"/>
		<polygon class="st4" points="197.1,356.2 196,369.5 202.5,385.3 192.1,376.5 187.9,358.2 193.2,357.3 		"/>
		<polygon class="st4" points="175.5,358.3 174.6,369.2 180,382.3 171.4,375 167.4,357.9 171.7,357.9 		"/>
		<polygon class="st4" points="152.2,356.1 151.8,361.7 154.5,368.3 150.1,364.6 147.6,355.4 150.3,355.9 		"/>
		<polygon class="st4" points="138.3,354.3 137.9,359.8 140.6,366.5 136.3,362.7 133.5,353.5 136.4,353.8 		"/>
		<polygon class="st4" points="120.2,352.2 119.7,357.7 122.5,364.4 118.1,360.7 115.4,351.4 118.2,351.7 		"/>
		<polygon class="st4" points="102.9,350.7 102.4,356.8 105.2,363.5 100.8,359.8 98,350.5 100.9,350.7 		"/>
		<polygon class="st4" points="87.9,351 87.4,357.5 90.1,364.2 85.7,360.5 83,351.3 85.8,351.1 		"/>
		<polygon class="st4" points="71.1,353.5 70.5,361.1 73.2,367.8 68.9,364.1 66.1,354.8 68.9,354.1 		"/>
		<polygon class="st4" points="53.2,360.5 52.9,364.4 54.3,367.7 52.2,365.9 50.8,361.9 52,361.1 		"/>
		<polygon class="st4" points="38,371.8 38.7,376.8 40.1,380 37.9,378.2 36.2,373.8 37,373 		"/>
		<polygon class="st4" points="24.8,389.5 25.9,394.5 27.2,397.8 25.1,395.9 23.6,391.6 24.1,390.6 		"/>
		<polygon class="st4" points="18.6,402.2 20.6,404.9 23.4,405.5 20.9,406.7 17.6,405.4 18.1,403.7 		"/>
		<polygon class="st4" points="23.6,418.7 27.1,415.1 28.8,412.1 28.4,415.4 26,419.1 24.9,419 		"/>
	</g>
	<path class="st1" d="M262.8,516.9L262.8,516.9c-10.1,0-18.3-8.2-18.3-18.3v-42.7c0-10.1,8.2-18.3,18.3-18.3l0,0
		c10.1,0,18.3,8.2,18.3,18.3v42.7C281.1,508.7,272.8,516.9,262.8,516.9z"/>
	<path class="st1" d="M357.8,516.9L357.8,516.9c-10.1,0-18.3-8.2-18.3-18.3V376.1c0-10.1,8.2-18.3,18.3-18.3l0,0
		c10.1,0,18.3,8.2,18.3,18.3v122.6C376.1,508.7,367.9,516.9,357.8,516.9z"/>
	<path class="st1" d="M378.4,494.8L378.4,494.8c-10.1,0-18.3-8.2-18.3-18.3V354c0-10.1,8.2-18.3,18.3-18.3l0,0
		c10.1,0,18.3,8.2,18.3,18.3v122.6C396.6,486.6,388.4,494.8,378.4,494.8z"/>
	<path class="st1" d="M293.5,500.5L293.5,500.5c-10.1,0-18.3-8.2-18.3-18.3v-42.7c0-10.1,8.2-18.3,18.3-18.3l0,0
		c10.1,0,18.3,8.2,18.3,18.3v42.7C311.7,492.3,303.5,500.5,293.5,500.5z"/>
	<path class="st5" d="M366,490.5L366,490.5c2.4,0,4.4,2,4.4,4.4v16.6c0,2.4-2,4.4-4.4,4.4l0,0c-2.4,0-4.4-2-4.4-4.4v-16.6
		C361.6,492.4,363.6,490.5,366,490.5z"/>
	<path class="st5" d="M371.7,486.2L371.7,486.2c2.4,0,4.4,2,4.4,4.4v16.6c0,2.4-2,4.4-4.4,4.4l0,0c-2.4,0-4.4-2-4.4-4.4v-16.6
		C367.3,488.1,369.3,486.2,371.7,486.2z"/>
	<path class="st5" d="M389,469.4L389,469.4c2.4,0,4.4,2,4.4,4.4v16.6c0,2.4-2,4.4-4.4,4.4l0,0c-2.4,0-4.4-2-4.4-4.4v-16.6
		C384.7,471.4,386.6,469.4,389,469.4z"/>
	<path class="st5" d="M394.7,465.1L394.7,465.1c2.4,0,4.4,2,4.4,4.4v16.6c0,2.4-2,4.4-4.4,4.4l0,0c-2.4,0-4.4-2-4.4-4.4v-16.6
		C390.4,467.1,392.3,465.1,394.7,465.1z"/>
	<path class="st5" d="M301.7,475.6L301.7,475.6c2.4,0,4.4,2,4.4,4.4v16.6c0,2.4-2,4.4-4.4,4.4l0,0c-2.4,0-4.4-2-4.4-4.4V480
		C297.2,477.6,299.2,475.6,301.7,475.6z"/>
	<path class="st5" d="M307.3,471.4L307.3,471.4c2.4,0,4.4,2,4.4,4.4v16.6c0,2.4-2,4.4-4.4,4.4l0,0c-2.4,0-4.4-2-4.4-4.4v-16.6
		C302.9,473.3,304.9,471.4,307.3,471.4z"/>
	<path class="st5" d="M272.3,490.5L272.3,490.5c2.4,0,4.4,2,4.4,4.4v16.6c0,2.4-2,4.4-4.4,4.4l0,0c-2.4,0-4.4-2-4.4-4.4v-16.6
		C268,492.4,269.9,490.5,272.3,490.5z"/>
	<path class="st5" d="M278,486.2L278,486.2c2.4,0,4.4,2,4.4,4.4v16.6c0,2.4-2,4.4-4.4,4.4l0,0c-2.4,0-4.4-2-4.4-4.4v-16.6
		C273.7,488.1,275.6,486.2,278,486.2z"/>
</g>
</svg>
