<?xml version="1.0" encoding="utf-8"?>
<!-- Generator: Adobe Illustrator 23.0.1, SVG Export Plug-In . SVG Version: 6.00 Build 0)  -->
<svg version="1.1" id="Layer_1" xmlns="http://www.w3.org/2000/svg" xmlns:xlink="http://www.w3.org/1999/xlink" x="0px" y="0px"
	 viewBox="0 0 599.8 599.8" style="enable-background:new 0 0 599.8 599.8;" xml:space="preserve">
<style type="text/css">
	.st0{fill:#F3D0E3;}
	.st1{fill:#FCE790;}
	.st2{fill:#010101;}
	.st3{fill:#A9DAF5;}
	.st4{fill:#A2D9D3;}
	.st5{fill:#D8ACD0;}
	.st6{fill:#F3F2AB;}
	.st7{fill:#F9F6C4;}
</style>
<g id="B-Khaan">
	<path class="st0" d="M534.3,144c0,0,48.8,5.4,39.1,44c-8.1,6.7-17.3,10.2-17.3,10.2s-28.3-13-41.3,11.4c-13,24.4-34.2,80.5-76.5,85
		c-8.1,20.7-32.5,22.2-32.5,22.2s22.8,23,17.9,54c-2.6,16.5-5.7,10.2-8,0.8c-2-8.2-3.4-18.8-3.4-18.8l-6.5,42.4l-4.9-28.5l-13,19.5
		c0,0-34.2-46.4-53.7-44.8c0,0-20.4,13-35,10.6c-14.6-2.5-57.8-35.8-57.8-42.4c-13,2.5-100.1-22-109.1-35.8
		c-9.8,1.6-83,4.1-103.4-13.8c26.9-17.1,48.8-14.6,71.7-14.6c17.9,3.2,46.4,13,46.4,13s58.6,12.2,100.1-1.6
		c41.5-13.8,104.2-10.6,104.2-10.6l85.5,8.9c0,0,41.5-1.6,51.3-40.7C497.7,175.4,503.4,154.8,534.3,144z"/>
	<g>
		<path class="st0" d="M337.5,338.3c0,0-16.7,43.9-29.9,48.8c-13.2,4.9-19.6,48.8-19.6,48.8l14.5,28.5c0,0,22.7,8.3,26.1,10.6
			c1.4,0.9-30.1-3.2-30.1-3.2l19.5,10.6l-32.8-5.7c0,0-9.6-34.8-13.6-40.5c-4.1-5.7-0.1-27.8,17-53.1c-4.1-18.7,6.7-44.8,6.7-44.8
			L337.5,338.3L337.5,338.3z"/>
		<polygon class="st0" points="314.2,468.8 307.6,473.2 330.9,475.5 		"/>
		<polygon class="st0" points="302,473.7 294.5,478.4 318,482.4 		"/>
	</g>
	<g>
		<path class="st0" d="M298.3,356.5c0,0-44.1,16.2-56.5,9.4c-12.3-6.8-49.7,17.2-49.7,17.2l-12,29.6c0,0,8.6,22.6,9.1,26.6
			c0.2,1.6-17.3-24.9-17.3-24.9l4.8,21.7l-17.2-28.5c0,0,20-30.1,21.7-36.9c1.6-6.8,21-18.3,51.2-21.9
			c11.5-15.3,38.2-24.3,38.2-24.3L298.3,356.5z"/>
		<polygon class="st0" points="184.5,424.4 176.8,422.4 190.4,441.5 		"/>
		<polygon class="st0" points="172.8,418.3 164.3,415.8 176.7,436.1 		"/>
	</g>
	<path class="st1" d="M534.3,144l-4.7,52.4c0,0,22.1-2.8,27.7,3.4c0,0,15.7,7.8,15.7,2.9l-0.2,0c0.3-2.2-2.7-4.5-2.7-4.5l-3.4-2
		c-1.5-0.7-2.3-1.3-2.3-1.4l0.3-0.4l2.3,1.3c2.2,1.1,5.9,2.6,10.3,2.7v0.2c3.1-0.1,5.6-1.7,5.6-6.5C582.8,149,534.3,144,534.3,144z"
		/>
	<circle class="st2" cx="554.7" cy="167.3" r="7.3"/>
	<path class="st3" d="M400.8,329.4c0,0-66.1,15.8-63.9,21.5C339.1,356.5,400.8,329.4,400.8,329.4"/>
	<path class="st3" d="M406.9,327.4c0,0-65.2,23.1-62.8,28.5C346.6,361.2,406.9,327.4,406.9,327.4"/>
	<path class="st4" d="M412.8,335.8c0,0-66.1,15.8-63.9,21.5C351.1,362.8,412.8,335.8,412.8,335.8"/>
	<path class="st4" d="M407.1,322.8c0,0-66.1,15.8-63.9,21.5C345.4,349.9,407.1,322.8,407.1,322.8"/>
	<path class="st5" d="M410.1,330.6c0,0-62.8,35.8-59.9,40.6C353.1,376.1,410.1,330.6,410.1,330.6"/>
	<path class="st6" d="M411.5,330.3c0,0-61.8,39.8-58.8,44.5C355.7,379.4,411.5,330.3,411.5,330.3"/>
	<path class="st5" d="M407,328.1c0,0-63.5,32.7-60.7,37.7C349.1,370.8,407,328.1,407,328.1"/>
	<path class="st3" d="M408,342.4c0,0-66.1,15.8-63.9,21.5C346.3,369.5,408,342.4,408,342.4"/>
	<path class="st3" d="M414.1,340.3c0,0-65.2,23.1-62.8,28.5C353.8,374.2,414.1,340.3,414.1,340.3"/>
	<path class="st4" d="M420,348.7c0,0-66.1,15.8-63.9,21.5C358.3,375.8,420,348.7,420,348.7"/>
	<path class="st4" d="M414.3,335.8c0,0-66.1,15.8-63.9,21.5C352.6,362.8,414.3,335.8,414.3,335.8"/>
	<path class="st5" d="M417.4,343.6c0,0-62.8,35.8-59.9,40.6C360.3,389.1,417.4,343.6,417.4,343.6"/>
	<path class="st6" d="M418.7,343.2c0,0-61.8,39.8-58.8,44.5C363,392.3,418.7,343.2,418.7,343.2"/>
	<path class="st5" d="M414.2,341.1c0,0-63.5,32.7-60.7,37.7C356.3,383.8,414.2,341.1,414.2,341.1"/>
	<path class="st3" d="M415.3,355.5c0,0-66.1,15.8-63.9,21.5C353.6,382.7,415.3,355.5,415.3,355.5"/>
	<path class="st3" d="M421.3,353.5c0,0-65.2,23.1-62.8,28.5C361,387.4,421.3,353.5,421.3,353.5"/>
	<path class="st4" d="M427.3,361.9c0,0-66.1,15.8-63.9,21.5C365.5,389,427.3,361.9,427.3,361.9"/>
	<path class="st4" d="M421.5,348.9c0,0-66.1,15.8-63.9,21.5C359.8,376,421.5,348.9,421.5,348.9"/>
	<path class="st5" d="M424.6,356.8c0,0-62.8,35.8-59.9,40.6C367.6,402.3,424.6,356.8,424.6,356.8"/>
	<path class="st6" d="M426,356.4c0,0-61.8,39.8-58.8,44.5C370.2,405.5,426,356.4,426,356.4"/>
	<path class="st5" d="M421.4,354.2c0,0-63.5,32.7-60.7,37.7C363.5,396.9,421.4,354.2,421.4,354.2"/>
	<path class="st3" d="M416.8,360.4c0,0-62.3,27.1-59.2,32.2C360.8,397.8,416.8,360.4,416.8,360.4"/>
	<path class="st3" d="M422.4,357.3c0,0-60.1,34.1-56.8,39C368.9,401.2,422.4,357.3,422.4,357.3"/>
	<path class="st4" d="M429.7,364.5c0,0-62.3,27.1-59.2,32.2C373.7,402,429.7,364.5,429.7,364.5"/>
	<path class="st4" d="M421.8,352.7c0,0-62.3,27.1-59.2,32.2C365.8,390.2,421.8,352.7,421.8,352.7"/>
	<path class="st5" d="M426.2,360c0,0-55.6,46.2-51.9,50.4S426.2,360,426.2,360"/>
	<path class="st6" d="M427.5,359.4c0,0-53.9,49.9-50.1,54C381.1,417.4,427.5,359.4,427.5,359.4"/>
	<path class="st5" d="M422.6,358.1c0,0-56.8,43.2-53.2,47.7C373,410.2,422.6,358.1,422.6,358.1"/>
	<path class="st3" d="M403.2,329.4c0,0-66.1,15.8-63.9,21.5C341.4,356.5,403.2,329.4,403.2,329.4"/>
	<path class="st3" d="M409.2,327.4c0,0-65.2,23.1-62.8,28.5C348.9,361.2,409.2,327.4,409.2,327.4"/>
	<path class="st4" d="M415.1,335.8c0,0-66.1,15.8-63.9,21.5C353.4,362.8,415.1,335.8,415.1,335.8"/>
	<path class="st4" d="M409.4,322.8c0,0-66.1,15.8-63.9,21.5C347.7,349.9,409.4,322.8,409.4,322.8"/>
	<path class="st5" d="M412.5,330.6c0,0-62.8,35.8-59.9,40.6C355.5,376.1,412.5,330.6,412.5,330.6"/>
	<path class="st6" d="M413.8,330.3c0,0-61.8,39.8-58.8,44.5C358,379.4,413.8,330.3,413.8,330.3"/>
	<path class="st5" d="M409.3,328.1c0,0-63.5,32.7-60.7,37.7C351.4,370.8,409.3,328.1,409.3,328.1"/>
	<path class="st3" d="M408,338.6c0,0-66.1,15.8-63.9,21.5C346.3,365.7,408,338.6,408,338.6"/>
	<path class="st3" d="M414.1,336.5c0,0-65.2,23.1-62.8,28.5C353.8,370.4,414.1,336.5,414.1,336.5"/>
	<path class="st4" d="M420,344.9c0,0-66.1,15.8-63.9,21.5C358.3,372,420,344.9,420,344.9"/>
	<path class="st4" d="M414.3,331.9c0,0-66.1,15.8-63.9,21.5C352.6,359,414.3,331.9,414.3,331.9"/>
	<path class="st5" d="M417.4,339.8c0,0-62.8,35.8-59.9,40.6C360.3,385.3,417.4,339.8,417.4,339.8"/>
	<path class="st6" d="M418.7,339.4c0,0-61.8,39.8-58.8,44.5C363,388.5,418.7,339.4,418.7,339.4"/>
	<path class="st5" d="M414.2,337.3c0,0-63.5,32.7-60.7,37.7C356.3,380,414.2,337.3,414.2,337.3"/>
	<path class="st3" d="M110.7,257.7c0,0-92.3-30.8-93.7-21.6C15.7,245.5,110.7,257.7,110.7,257.7"/>
	<path class="st3" d="M119.6,259.7c0,0-96.5-20.4-97.3-11.2C21.4,257.6,119.6,259.7,119.6,259.7"/>
	<path class="st4" d="M120.9,275.6c0,0-92.3-30.8-93.7-21.6C25.8,263.3,120.9,275.6,120.9,275.6"/>
	<path class="st4" d="M123.2,253.7c0,0-92.3-30.8-93.7-21.6C28.1,241.5,123.2,253.7,123.2,253.7"/>
	<path class="st5" d="M121.2,266.7c0,0-102.6-1.5-102.6,7.3C18.7,282.8,121.2,266.7,121.2,266.7"/>
	<path class="st6" d="M123.2,267.2c0,0-104.3,4.7-103.9,13.3C19.6,289.2,123.2,267.2,123.2,267.2"/>
	<path class="st5" d="M119.2,260.8c0,0-101.2-6.2-101.4,2.7C17.5,272.4,119.2,260.8,119.2,260.8"/>
	<path class="st3" d="M535.2,145.4c0,0-16-25.4-18.1-23.6C515,123.5,535.2,145.4,535.2,145.4"/>
	<path class="st4" d="M535.2,145.6c0,0-11.9-24.5-14.2-23.1C518.7,124,535.2,145.6,535.2,145.6"/>
	<path class="st6" d="M535.2,145.4c0,0-17.1-24-19.2-22.7C513.8,124,535.2,145.4,535.2,145.4"/>
	<path class="st5" d="M535.4,145.6c0,0-12-29.6-14.6-28.6C518.3,117.9,535.4,145.6,535.4,145.6"/>
	<polygon class="st7" points="183.4,421.6 176.8,422.4 190.4,441.5 	"/>
	<polygon class="st7" points="172.4,416.8 165.4,417.7 176.8,436.5 	"/>
	<polygon class="st7" points="311.4,467.4 307.6,473.2 332.1,475.7 	"/>
	<polygon class="st7" points="300.6,472.5 294.5,478.4 319.3,482.8 	"/>
</g>
</svg>
