<?xml version="1.0" encoding="utf-8"?>
<!-- Generator: Adobe Illustrator 23.0.3, SVG Export Plug-In . SVG Version: 6.00 Build 0)  -->
<svg version="1.0" id="Layer_1" xmlns="http://www.w3.org/2000/svg" xmlns:xlink="http://www.w3.org/1999/xlink" x="0px" y="0px"
	 viewBox="0 0 400 400" style="enable-background:new 0 0 400 400;" xml:space="preserve">
<style type="text/css">
	.st0{fill:#F3D0E3;}
	.st1{fill:#FCE790;}
	.st2{fill:#010101;}
	.st3{fill:#A9DAF5;}
	.st4{fill:#A2D9D3;}
	.st5{fill:#D8ACD0;}
	.st6{fill:#F3F2AB;}
	.st7{fill:#F9F6C4;}
</style>
<g id="B-Khaan">
	<path class="st0" d="M248.86,167.43c0,0,10.1,1.11,8.08,9.11c-1.67,1.39-3.58,2.1-3.58,2.1s-5.85-2.69-8.54,2.36
		c-2.69,5.05-7.07,16.64-15.83,17.58c-1.68,4.29-6.73,4.6-6.73,4.6s4.71,4.76,3.7,11.16c-0.54,3.42-1.18,2.12-1.65,0.17
		c-0.41-1.69-0.7-3.88-0.7-3.88l-1.35,8.76l-1.01-5.89l-2.69,4.04c0,0-7.07-9.6-11.11-9.26c0,0-4.21,2.69-7.24,2.19
		c-3.03-0.51-11.95-7.41-11.95-8.76c-2.69,0.51-20.71-4.55-22.56-7.41c-2.02,0.34-17.17,0.84-21.38-2.86
		c5.56-3.54,10.1-3.03,14.82-3.03c3.7,0.67,9.6,2.69,9.6,2.69s12.12,2.53,20.71-0.34c8.59-2.86,21.55-2.19,21.55-2.19l17.68,1.85
		c0,0,8.59-0.34,10.61-8.42C241.28,173.93,242.46,169.65,248.86,167.43z"/>
	<g>
		<path class="st0" d="M208.15,207.61c0,0-3.45,9.09-6.18,10.1c-2.73,1.01-4.05,10.1-4.05,10.1l2.99,5.89c0,0,4.69,1.71,5.39,2.19
			c0.28,0.19-6.23-0.67-6.23-0.67l4.04,2.19l-6.79-1.18c0,0-1.98-7.2-2.82-8.38s-0.02-5.76,3.51-10.98
			c-0.84-3.87,1.39-9.26,1.39-9.26H208.15z"/>
		<polygon class="st0" points="203.34,234.61 201.97,235.52 206.79,235.99 		"/>
		<polygon class="st0" points="200.8,235.61 199.26,236.6 204.11,237.41 		"/>
	</g>
	<g>
		<path class="st0" d="M200.05,211.37c0,0-9.13,3.35-11.68,1.95c-2.55-1.4-10.29,3.56-10.29,3.56l-2.49,6.12c0,0,1.78,4.67,1.88,5.5
			c0.04,0.33-3.57-5.15-3.57-5.15l1,4.49l-3.56-5.9c0,0,4.14-6.22,4.48-7.63c0.34-1.41,4.34-3.79,10.6-4.54
			c2.37-3.17,7.9-5.02,7.9-5.02L200.05,211.37z"/>
		<polygon class="st0" points="176.51,225.43 174.92,225 177.72,228.95 		"/>
		<polygon class="st0" points="174.08,224.17 172.33,223.65 174.89,227.85 		"/>
	</g>
	<path class="st1" d="M248.86,167.43l-0.97,10.83c0,0,4.57-0.57,5.73,0.7c0,0,3.24,1.62,3.24,0.61l-0.05-0.01
		c0.06-0.46-0.55-0.94-0.56-0.94l-0.71-0.41c-0.3-0.15-0.47-0.27-0.48-0.28l0.06-0.09l0.47,0.27c0.46,0.23,1.22,0.53,2.14,0.56
		l0,0.05c0.64-0.02,1.15-0.36,1.15-1.34C258.88,168.47,248.86,167.43,248.86,167.43z"/>
	<circle class="st2" cx="253.07" cy="172.25" r="1.52"/>
	<path class="st3" d="M221.24,205.78c0,0-13.67,3.27-13.22,4.44C208.48,211.38,221.24,205.78,221.24,205.78"/>
	<path class="st3" d="M222.5,205.35c0,0-13.48,4.78-12.98,5.9C210.03,212.36,222.5,205.35,222.5,205.35"/>
	<path class="st4" d="M223.72,207.09c0,0-13.67,3.27-13.22,4.44C210.96,212.69,223.72,207.09,223.72,207.09"/>
	<path class="st4" d="M222.54,204.4c0,0-13.67,3.27-13.22,4.44C209.78,210.01,222.54,204.4,222.54,204.4"/>
	<path class="st5" d="M223.17,206.03c0,0-12.99,7.4-12.39,8.4S223.17,206.03,223.17,206.03"/>
	<path class="st6" d="M223.46,205.95c0,0-12.78,8.23-12.16,9.2C211.92,216.11,223.46,205.95,223.46,205.95"/>
	<path class="st5" d="M222.52,205.51c0,0-13.13,6.76-12.56,7.79C210.54,214.34,222.52,205.51,222.52,205.51"/>
	<path class="st3" d="M222.74,208.46c0,0-13.67,3.27-13.22,4.44S222.74,208.46,222.74,208.46"/>
	<path class="st3" d="M223.99,208.03c0,0-13.48,4.78-12.98,5.9C211.52,215.04,223.99,208.03,223.99,208.03"/>
	<path class="st4" d="M225.22,209.77c0,0-13.67,3.27-13.22,4.44C212.46,215.37,225.22,209.77,225.22,209.77"/>
	<path class="st4" d="M224.04,207.09c0,0-13.67,3.27-13.22,4.44C211.27,212.69,224.04,207.09,224.04,207.09"/>
	<path class="st5" d="M224.67,208.72c0,0-12.98,7.4-12.39,8.4C212.87,218.13,224.67,208.72,224.67,208.72"/>
	<path class="st6" d="M224.95,208.63c0,0-12.78,8.23-12.16,9.2C213.42,218.79,224.95,208.63,224.95,208.63"/>
	<path class="st5" d="M224.02,208.19c0,0-13.13,6.76-12.56,7.79C212.03,217.02,224.02,208.19,224.02,208.19"/>
	<path class="st3" d="M224.24,211.18c0,0-13.67,3.27-13.22,4.44C211.48,216.79,224.24,211.18,224.24,211.18"/>
	<path class="st3" d="M225.49,210.75c0,0-13.48,4.78-12.98,5.9C213.02,217.76,225.49,210.75,225.49,210.75"/>
	<path class="st4" d="M226.72,212.49c0,0-13.67,3.27-13.22,4.44S226.72,212.49,226.72,212.49"/>
	<path class="st4" d="M225.53,209.8c0,0-13.67,3.27-13.22,4.44C212.77,215.41,225.53,209.8,225.53,209.8"/>
	<path class="st5" d="M226.17,211.44c0,0-12.98,7.4-12.39,8.4C214.37,220.85,226.17,211.44,226.17,211.44"/>
	<path class="st6" d="M226.45,211.35c0,0-12.78,8.23-12.16,9.2C214.91,221.51,226.45,211.35,226.45,211.35"/>
	<path class="st5" d="M225.51,210.91c0,0-13.13,6.76-12.56,7.79C213.53,219.74,225.51,210.91,225.51,210.91"/>
	<path class="st3" d="M224.55,212.18c0,0-12.89,5.6-12.24,6.67C212.96,219.93,224.55,212.18,224.55,212.18"/>
	<path class="st3" d="M225.71,211.54c0,0-12.44,7.06-11.75,8.07C214.65,220.62,225.71,211.54,225.71,211.54"/>
	<path class="st4" d="M227.22,213.04c0,0-12.89,5.6-12.24,6.67C215.63,220.78,227.22,213.04,227.22,213.04"/>
	<path class="st4" d="M225.59,210.6c0,0-12.89,5.6-12.24,6.67C214,218.35,225.59,210.6,225.59,210.6"/>
	<path class="st5" d="M226.5,212.1c0,0-11.5,9.55-10.74,10.43S226.5,212.1,226.5,212.1"/>
	<path class="st6" d="M226.76,211.97c0,0-11.15,10.33-10.37,11.17S226.76,211.97,226.76,211.97"/>
	<path class="st5" d="M225.76,211.7c0,0-11.75,8.94-11.01,9.86C215.5,222.48,225.76,211.7,225.76,211.7"/>
	<path class="st3" d="M221.73,205.78c0,0-13.67,3.27-13.22,4.44C208.96,211.38,221.73,205.78,221.73,205.78"/>
	<path class="st3" d="M222.98,205.35c0,0-13.48,4.78-12.98,5.9C210.51,212.36,222.98,205.35,222.98,205.35"/>
	<path class="st4" d="M224.2,207.09c0,0-13.67,3.27-13.22,4.44C211.44,212.69,224.2,207.09,224.2,207.09"/>
	<path class="st4" d="M223.02,204.4c0,0-13.67,3.27-13.22,4.44C210.26,210.01,223.02,204.4,223.02,204.4"/>
	<path class="st5" d="M223.66,206.03c0,0-12.99,7.4-12.39,8.4S223.66,206.03,223.66,206.03"/>
	<path class="st6" d="M223.94,205.95c0,0-12.78,8.23-12.16,9.2C212.4,216.11,223.94,205.95,223.94,205.95"/>
	<path class="st5" d="M223,205.51c0,0-13.13,6.76-12.56,7.79C211.02,214.34,223,205.51,223,205.51"/>
	<path class="st3" d="M222.74,207.67c0,0-13.67,3.27-13.22,4.44C209.98,213.28,222.74,207.67,222.74,207.67"/>
	<path class="st3" d="M223.99,207.24c0,0-13.48,4.78-12.98,5.9C211.52,214.25,223.99,207.24,223.99,207.24"/>
	<path class="st4" d="M225.22,208.98c0,0-13.67,3.27-13.22,4.44S225.22,208.98,225.22,208.98"/>
	<path class="st4" d="M224.04,206.3c0,0-13.67,3.27-13.22,4.44C211.27,211.9,224.04,206.3,224.04,206.3"/>
	<path class="st5" d="M224.67,207.93c0,0-12.98,7.4-12.39,8.4C212.87,217.34,224.67,207.93,224.67,207.93"/>
	<path class="st6" d="M224.95,207.84c0,0-12.78,8.23-12.16,9.2C213.42,218,224.95,207.84,224.95,207.84"/>
	<path class="st5" d="M224.02,207.4c0,0-13.13,6.76-12.56,7.79C212.03,216.23,224.02,207.4,224.02,207.4"/>
	<path class="st3" d="M161.24,190.95c0,0-19.09-6.38-19.38-4.46C141.58,188.41,161.24,190.95,161.24,190.95"/>
	<path class="st3" d="M163.09,191.36c0,0-19.95-4.21-20.13-2.32C142.77,190.93,163.09,191.36,163.09,191.36"/>
	<path class="st4" d="M163.34,194.65c0,0-19.09-6.38-19.38-4.46C143.68,192.11,163.34,194.65,163.34,194.65"/>
	<path class="st4" d="M163.82,190.12c0,0-19.09-6.38-19.38-4.46C144.16,187.59,163.82,190.12,163.82,190.12"/>
	<path class="st5" d="M163.42,192.81c0,0-21.22-0.31-21.22,1.5C142.2,196.13,163.42,192.81,163.42,192.81"/>
	<path class="st6" d="M163.83,192.91c0,0-21.57,0.97-21.5,2.75C142.39,197.45,163.83,192.91,163.83,192.91"/>
	<path class="st5" d="M163,191.59c0,0-20.94-1.29-20.98,0.55C141.97,193.98,163,191.59,163,191.59"/>
	<path class="st3" d="M249.04,167.71c0,0-3.3-5.25-3.74-4.89S249.04,167.71,249.04,167.71"/>
	<path class="st4" d="M249.04,167.75c0,0-2.46-5.07-2.93-4.77C245.63,163.28,249.04,167.75,249.04,167.75"/>
	<path class="st6" d="M249.04,167.71c0,0-3.54-4.97-3.98-4.7C244.61,163.28,249.04,167.71,249.04,167.71"/>
	<path class="st5" d="M249.08,167.75c0,0-2.49-6.12-3.01-5.91C245.55,162.03,249.08,167.75,249.08,167.75"/>
	<polygon class="st7" points="176.28,224.85 174.92,225 177.72,228.95 	"/>
	<polygon class="st7" points="174.01,223.85 172.56,224.04 174.91,227.93 	"/>
	<polygon class="st7" points="202.76,234.32 201.97,235.52 207.04,236.04 	"/>
	<polygon class="st7" points="200.51,235.37 199.26,236.6 204.38,237.5 	"/>
</g>
</svg>
