<?xml version="1.0" encoding="utf-8"?>
<!-- Generator: Adobe Illustrator 23.0.3, SVG Export Plug-In . SVG Version: 6.00 Build 0)  -->
<svg version="1.0" id="Layer_1" xmlns="http://www.w3.org/2000/svg" xmlns:xlink="http://www.w3.org/1999/xlink" x="0px" y="0px"
	 viewBox="0 0 400 400" style="enable-background:new 0 0 400 400;" xml:space="preserve">
<style type="text/css">
	.st0{fill:#F9F1C5;}
	.st1{fill:#C6A6CF;}
	.st2{fill:#F5E2B0;}
	.st3{fill:#030303;}
	.st4{fill:#8159A5;}
</style>
<g id="B-Majunga">
	<g id="A-Majunga_1_">
		<line class="st0" x1="154.46" y1="223.69" x2="152.16" y2="222.04"/>
		<path class="st0" d="M166.13,217.33l2.55,0.87c0.21,0.07,0.29,0.33,0.16,0.51l-1.85,2.45c-0.17,0.22-0.52,0.15-0.58-0.13
			l-0.7-3.32C165.65,217.46,165.89,217.25,166.13,217.33z"/>
		<path class="st0" d="M169.47,214.08l2.34,1.59c0.18,0.12,0.19,0.38,0.03,0.52l-2.22,1.85c-0.21,0.17-0.53,0.03-0.54-0.24
			l-0.12-3.44C168.95,214.09,169.25,213.93,169.47,214.08z"/>
		<path class="st0" d="M172.95,209.19l2.72,1.33c0.14,0.07,0.18,0.26,0.07,0.38l-2.24,2.42c-0.14,0.15-0.39,0.07-0.41-0.13
			l-0.48-3.74C172.58,209.24,172.78,209.1,172.95,209.19z"/>
		<path class="st0" d="M174.24,209.46l-0.33-3.62c-0.02-0.22,0.22-0.38,0.41-0.27l2.56,1.44c0.16,0.09,0.19,0.31,0.06,0.44
			l-2.23,2.19C174.54,209.8,174.26,209.7,174.24,209.46z"/>
		<path class="st0" d="M177.62,202.88l2.49,1.39c0.18,0.1,0.21,0.34,0.06,0.48l-2.17,2.12c-0.18,0.18-0.49,0.07-0.51-0.19
			l-0.32-3.52C177.15,202.93,177.41,202.76,177.62,202.88z"/>
		<path class="st0" d="M181.33,200.65l2.38,1.62c0.17,0.12,0.18,0.36,0.02,0.5l-2.26,1.89c-0.2,0.17-0.5,0.03-0.51-0.23l-0.12-3.51
			C180.83,200.67,181.12,200.51,181.33,200.65z"/>
		<path class="st0" d="M185.16,198.63l2.04,2.26c0.14,0.16,0.09,0.41-0.1,0.5l-2.52,1.18c-0.23,0.11-0.48-0.08-0.45-0.33l0.48-3.44
			C184.65,198.54,184.98,198.44,185.16,198.63z"/>
		<path class="st0" d="M192.29,196.68l2,3.01c0.07,0.11,0.02,0.26-0.11,0.29l-2.99,0.77c-0.14,0.04-0.27-0.09-0.23-0.23l0.99-3.77
			C191.99,196.58,192.2,196.54,192.29,196.68z"/>
		<path class="st0" d="M188.52,196.84l1.97,2.95c0.08,0.12,0.02,0.28-0.12,0.32l-2.94,0.75c-0.16,0.04-0.3-0.1-0.26-0.26l0.97-3.71
			C188.18,196.72,188.41,196.68,188.52,196.84z"/>
		<path class="st0" d="M194.4,193.11l2.11,1.28c0.24,0.15,0.28,0.49,0.07,0.68l-1.9,1.75c-0.26,0.24-0.69,0.07-0.72-0.29l-0.21-3.03
			C193.73,193.15,194.11,192.93,194.4,193.11z"/>
		<path class="st0" d="M197.42,189.75l2.22,2.25c0.13,0.13,0.09,0.34-0.07,0.43l-2.6,1.39c-0.19,0.1-0.42-0.05-0.4-0.27l0.38-3.64
			C196.98,189.69,197.26,189.59,197.42,189.75z"/>
		<path class="st0" d="M200.45,187.66l2.19,1.71c0.19,0.14,0.18,0.43-0.01,0.56l-2.23,1.63c-0.23,0.17-0.57,0-0.56-0.29l0.03-3.34
			C199.89,187.64,200.22,187.48,200.45,187.66z"/>
		<path class="st0" d="M203.15,188.49l0.17-3.57c0.01-0.25,0.3-0.37,0.49-0.21l2.28,1.98c0.15,0.13,0.13,0.36-0.03,0.47l-2.45,1.6
			C203.4,188.88,203.14,188.73,203.15,188.49z"/>
		<path class="st0" d="M207.32,182.74l2.38,2.06c0.13,0.11,0.11,0.31-0.03,0.41l-2.55,1.67c-0.17,0.11-0.4-0.02-0.4-0.23l0.17-3.73
			C206.91,182.71,207.16,182.6,207.32,182.74z"/>
		<path class="st0" d="M211.28,181.42l2.23,2.26c0.13,0.13,0.09,0.34-0.06,0.42l-2.61,1.39c-0.19,0.1-0.41-0.05-0.39-0.26l0.38-3.65
			C210.84,181.35,211.12,181.26,211.28,181.42z"/>
		<path class="st0" d="M215.17,179.44l1.81,2.89c0.09,0.15,0.01,0.35-0.16,0.39l-2.81,0.61c-0.19,0.04-0.35-0.14-0.3-0.32l1.01-3.49
			C214.77,179.3,215.06,179.26,215.17,179.44z"/>
		<path class="st0" d="M222.65,180.12l1.56,3.44c0.06,0.12-0.03,0.27-0.17,0.27l-3.06,0.05c-0.14,0-0.23-0.14-0.18-0.26l1.49-3.49
			C222.37,179.97,222.58,179.97,222.65,180.12z"/>
		<path class="st0" d="M218.91,179.38l1.54,3.38c0.06,0.13-0.04,0.29-0.18,0.29l-3.01,0.05c-0.15,0-0.25-0.15-0.19-0.29l1.47-3.44
			C218.61,179.22,218.84,179.22,218.91,179.38z"/>
		<line class="st0" x1="235.8" y1="176.46" x2="230.06" y2="177.38"/>
		<path class="st0" d="M248.66,168.02l2.83,4.51c0.3,0.47,0.03,1.1-0.51,1.22l-4.4,0.95c-0.6,0.13-1.11-0.43-0.95-1.01l1.57-5.46
			C247.39,167.56,248.29,167.43,248.66,168.02z"/>
		<path class="st0" d="M256.28,181.18l2.97,2.51c0.45,0.38,1.05,0.01,1.11-0.68l-0.68-4.37"/>
		<path class="st0" d="M253.93,181.14l2.73,2.3c0.56,0.47,1.31,0.01,1.39-0.85l0.39-4.17"/>
		<path class="st0" d="M260.71,188.34l-2.68-4.27c-0.11-0.18-0.33-0.14-0.4,0.07l-1.8,5.23"/>
		<path class="st0" d="M261.71,189.11l-1.39-4.25c-0.08-0.26-0.37-0.26-0.49-0.01l-2.17,4.36"/>
		<path class="st0" d="M253.24,179.4l3.59,3.29c0.39,0.36,0.93,0.03,0.97-0.59l0.38-5.72"/>
		<path class="st0" d="M249.89,180.76l4.06,3.72c0.18,0.17,0.44,0.01,0.45-0.28l0.43-6.46"/>
		<path class="st0" d="M257.61,189.54l-2.69-4.49c-0.3-0.5-0.9-0.39-1.09,0.2l-1.63,5.3"/>
		<path class="st0" d="M261.12,189.52l-2.9-4.38c-0.21-0.32-0.61-0.24-0.74,0.15l-1.76,5.24"/>
		<path class="st0" d="M258.87,189.97l-2.59-4.33c-0.34-0.57-1.03-0.45-1.24,0.23l-1.57,5.1"/>
		<path class="st0" d="M251.81,179.41l4.16,3.81c0.14,0.13,0.33,0.01,0.34-0.21l0.44-6.62"/>
		<polyline class="st0" points="248.45,180.78 252.92,184.87 253.39,177.76 		"/>
		<path class="st0" d="M256.17,189.56l-2.77-4.63c-0.26-0.44-0.79-0.34-0.95,0.18l-1.68,5.46"/>
		<path class="st0" d="M259.68,189.53l-2.71-4.53c-0.29-0.48-0.87-0.38-1.05,0.2l-1.64,5.34"/>
		<path class="st0" d="M261.42,189.32l-2.82-4.7c-0.24-0.41-0.73-0.32-0.88,0.16l-1.7,5.54"/>
		<path class="st1" d="M138.52,208.08c0,0,15.03,23.61,27.29,12.81c12.2-10.75-0.5-10.48,27.16-23.04c0.25-0.11,0.47-0.3,0.65-0.56
			c5.27-7.52,18.95-17.29,30.11-14.43c0.61,0.16,8.51-2.78,9.08-3.26c9.34-7.94,16.4-12,25.22-3.62c0.95,0.91,3.4,4.47,2.36,5.1
			c-2.21,1.33-5.81,5.71-4.23,5.77c2.45,0.11,2.23,0.43,3.7-0.16c2.47-0.99,2.53,2.3,1.62,3.36c-0.16,0.19-0.34,0.32-0.55,0.41
			c-14.49,6.6-21.03-9.45-29.26,15.67c-1.89,5.77-14.65,18.25-26.78,14.32c-12.05-3.9-9.07-10.89-25.16-3.5
			c-0.22,0.1-0.43,0.28-0.6,0.5c-7.65,10.02-16.83,13.01-19.8,11.92C156.32,228.27,141.51,217.67,138.52,208.08z"/>
		<path class="st2" d="M243.93,180.28l-0.51-0.53l0.11-1.14c0.03-0.28,0.16-0.54,0.38-0.73l1.15-0.98c0.28-0.24,0.65-0.32,1.01-0.22
			l1.32,0.36l0.32,1.02l-0.84,1.66c-0.14,0.28-0.4,0.49-0.7,0.57l-1.16,0.3C244.61,180.68,244.21,180.57,243.93,180.28z"/>
		<polygon class="st2" points="228.14,188.84 228.07,188.76 228.07,188.63 228.15,188.56 228.24,188.6 228.27,188.71 228.23,188.82 
					"/>
		<polygon class="st2" points="220.54,188.54 219.59,187.42 219.67,185.75 220.71,184.79 221.94,185.26 222.42,186.81 221.8,188.27 
					"/>
		<polygon class="st2" points="214.36,190.48 213.86,189.89 213.9,189.03 214.45,188.53 215.08,188.77 215.33,189.58 215.01,190.34 
					"/>
		<polygon class="st2" points="213.19,198.03 212.69,197.45 212.73,196.58 213.28,196.08 213.91,196.33 214.17,197.13 
			213.84,197.89 		"/>
		<polygon class="st2" points="208.04,191.05 207.55,190.47 207.59,189.6 208.13,189.1 208.77,189.35 209.02,190.15 208.7,190.91 		
			"/>
		<polygon class="st2" points="207.87,198.51 207.8,198.43 207.81,198.31 207.89,198.24 207.98,198.27 208.01,198.39 207.97,198.49 
					"/>
		<polygon class="st2" points="203.32,197.71 202.37,196.59 202.45,194.92 203.49,193.96 204.72,194.43 205.2,195.98 204.58,197.44 
					"/>
		<polygon class="st2" points="200.89,199.65 200.4,199.07 200.44,198.2 200.98,197.7 201.62,197.95 201.87,198.75 201.55,199.51 		
			"/>
		<polygon class="st2" points="193.34,204.83 192.85,204.25 192.89,203.38 193.43,202.88 194.07,203.13 194.32,203.93 194,204.69 		
			"/>
		<polygon class="st2" points="183.72,208.6 183.35,208.18 183.38,207.54 183.78,207.17 184.25,207.35 184.44,207.94 184.2,208.5 		
			"/>
		<polygon class="st2" points="187.77,207.58 187.41,207.15 187.44,206.52 187.84,206.15 188.31,206.33 188.49,206.92 
			188.26,207.48 		"/>
		<polygon class="st2" points="231.83,185.61 231.88,184.42 232.63,183.73 233.51,184.07 233.85,185.17 233.41,186.22 232.5,186.41 
					"/>
	</g>
	<circle class="st3" cx="246.43" cy="178.15" r="0.94"/>
	<path class="st1" d="M239.02,201.64h-11.3c-0.38,0-0.69-0.31-0.69-0.69v-0.96c0-0.38,0.31-0.69,0.69-0.69h11.3
		c0.38,0,0.69,0.31,0.69,0.69v0.96C239.71,201.32,239.4,201.64,239.02,201.64z"/>
	<path class="st1" d="M235.78,207.52l-10.55-4.05c-0.36-0.14-0.54-0.54-0.4-0.9l0.34-0.89c0.14-0.36,0.54-0.54,0.9-0.4l10.55,4.05
		c0.36,0.14,0.54,0.54,0.4,0.9l-0.34,0.89C236.54,207.48,236.13,207.66,235.78,207.52z"/>
	<path class="st1" d="M211.56,231.03h-2.2c-0.88,0-1.6-0.72-1.6-1.6V216.3c0-0.88,0.72-1.6,1.6-1.6h2.2c0.88,0,1.6,0.72,1.6,1.6
		v13.13C213.16,230.31,212.44,231.03,211.56,231.03z"/>
	<path class="st1" d="M224.84,229.3l-2.07,0.77c-0.82,0.31-1.75-0.11-2.06-0.94l-4.6-12.3c-0.31-0.82,0.11-1.75,0.94-2.06l2.07-0.77
		c0.82-0.31,1.75,0.11,2.06,0.94l4.6,12.3C226.09,228.07,225.67,228.99,224.84,229.3z"/>
	<circle class="st4" cx="256.76" cy="178.51" r="0.58"/>
</g>
</svg>
