<?xml version="1.0" encoding="utf-8"?>
<!-- Generator: Adobe Illustrator 23.0.1, SVG Export Plug-In . SVG Version: 6.00 Build 0)  -->
<svg version="1.1" id="Layer_1" xmlns="http://www.w3.org/2000/svg" xmlns:xlink="http://www.w3.org/1999/xlink" x="0px" y="0px"
	 viewBox="0 0 599.8 599.8" style="enable-background:new 0 0 599.8 599.8;" xml:space="preserve">
<style type="text/css">
	.st0{fill:none;}
	.st1{fill:#F9F1C5;}
	.st2{fill:#C6A6CF;}
	.st3{fill:#F5E2B0;}
	.st4{fill:#030303;}
	.st5{fill:#8159A5;}
</style>
<g id="B-Majunga">
	<g id="A-Majunga_1_">
		<line class="st0" x1="90" y1="411.4" x2="79.5" y2="403.9"/>
		<path class="st1" d="M143.5,382.3l11.7,4c1,0.3,1.3,1.5,0.7,2.3l-8.5,11.2c-0.8,1-2.4,0.7-2.7-0.6l-3.2-15.2
			C141.3,382.9,142.4,381.9,143.5,382.3z"/>
		<path class="st1" d="M158.8,367.4l10.7,7.3c0.8,0.5,0.9,1.7,0.1,2.4l-10.2,8.5c-1,0.8-2.4,0.1-2.5-1.1l-0.5-15.8
			C156.4,367.5,157.8,366.7,158.8,367.4z"/>
		<path class="st1" d="M174.7,345l12.5,6.1c0.6,0.3,0.8,1.2,0.3,1.7l-10.3,11.1c-0.6,0.7-1.8,0.3-1.9-0.6l-2.2-17.1
			C173,345.2,173.9,344.6,174.7,345z"/>
		<path class="st1" d="M180.6,346.3l-1.5-16.6c-0.1-1,1-1.7,1.9-1.2l11.7,6.6c0.7,0.4,0.9,1.4,0.3,2l-10.2,10
			C182,347.8,180.7,347.4,180.6,346.3z"/>
		<path class="st1" d="M196.1,316.1l11.4,6.4c0.8,0.5,1,1.6,0.3,2.2l-9.9,9.7c-0.8,0.8-2.2,0.3-2.3-0.9l-1.5-16.1
			C194,316.3,195.2,315.6,196.1,316.1z"/>
		<path class="st1" d="M213.1,305.9l10.9,7.4c0.8,0.5,0.8,1.6,0.1,2.3l-10.4,8.7c-0.9,0.8-2.3,0.1-2.3-1.1l-0.5-16.1
			C210.8,306,212.2,305.3,213.1,305.9z"/>
		<path class="st1" d="M230.7,296.6L240,307c0.6,0.7,0.4,1.9-0.5,2.3l-11.5,5.4c-1.1,0.5-2.2-0.4-2.1-1.5l2.2-15.8
			C228.3,296.2,229.8,295.8,230.7,296.6z"/>
		<path class="st1" d="M263.3,287.7l9.2,13.8c0.3,0.5,0.1,1.2-0.5,1.3l-13.7,3.5c-0.6,0.2-1.2-0.4-1.1-1.1l4.5-17.3
			C262,287.2,262.9,287.1,263.3,287.7z"/>
		<path class="st1" d="M246.1,288.4l9,13.5c0.4,0.5,0.1,1.3-0.5,1.5l-13.5,3.4c-0.7,0.2-1.4-0.5-1.2-1.2l4.4-17
			C244.5,287.9,245.5,287.7,246.1,288.4z"/>
		<path class="st1" d="M273,271.4l9.7,5.9c1.1,0.7,1.3,2.2,0.3,3.1l-8.7,8c-1.2,1.1-3.2,0.3-3.3-1.3l-1-13.9
			C269.9,271.5,271.7,270.5,273,271.4z"/>
		<path class="st1" d="M286.8,256l10.2,10.3c0.6,0.6,0.4,1.6-0.3,2l-11.9,6.4c-0.9,0.5-1.9-0.2-1.8-1.2l1.7-16.7
			C284.8,255.7,286.1,255.2,286.8,256z"/>
		<path class="st1" d="M300.7,246.4l10,7.8c0.9,0.6,0.8,2,0,2.6l-10.2,7.5c-1.1,0.8-2.6,0-2.6-1.3l0.1-15.3
			C298.1,246.3,299.7,245.6,300.7,246.4z"/>
		<path class="st1" d="M313.1,250.2l0.8-16.4c0-1.1,1.4-1.7,2.2-1l10.4,9.1c0.7,0.6,0.6,1.6-0.1,2.2l-11.2,7.3
			C314.2,252,313,251.3,313.1,250.2z"/>
		<path class="st1" d="M332.2,223.8l10.9,9.4c0.6,0.5,0.5,1.4-0.1,1.9l-11.7,7.7c-0.8,0.5-1.8-0.1-1.8-1.1l0.8-17.1
			C330.3,223.7,331.4,223.2,332.2,223.8z"/>
		<path class="st1" d="M350.3,217.8l10.2,10.4c0.6,0.6,0.4,1.6-0.3,1.9l-12,6.4c-0.9,0.5-1.9-0.2-1.8-1.2l1.7-16.7
			C348.3,217.5,349.6,217.1,350.3,217.8z"/>
		<path class="st1" d="M368.1,208.7l8.3,13.2c0.4,0.7,0,1.6-0.7,1.8l-12.9,2.8c-0.9,0.2-1.6-0.6-1.4-1.5l4.6-16
			C366.3,208.1,367.6,207.9,368.1,208.7z"/>
		<path class="st1" d="M402.4,211.8l7.1,15.8c0.3,0.5-0.1,1.2-0.8,1.2l-14,0.2c-0.6,0-1.1-0.6-0.8-1.2l6.8-16
			C401.1,211.2,402.1,211.2,402.4,211.8z"/>
		<path class="st1" d="M385.3,208.5l7.1,15.5c0.3,0.6-0.2,1.3-0.8,1.3l-13.8,0.2c-0.7,0-1.1-0.7-0.9-1.3l6.7-15.8
			C383.9,207.7,385,207.7,385.3,208.5z"/>
		<line class="st0" x1="462.7" y1="195.1" x2="436.4" y2="199.3"/>
		<path class="st1" d="M521.6,156.4l13,20.7c1.4,2.2,0.1,5-2.3,5.6L512,187c-2.7,0.6-5.1-2-4.4-4.6l7.2-25
			C515.8,154.3,519.9,153.7,521.6,156.4z"/>
		<path class="st1" d="M556.5,216.7l13.6,11.5c2.1,1.7,4.8,0,5.1-3.1l-3.1-20"/>
		<path class="st1" d="M545.7,216.5l12.5,10.5c2.6,2.2,6,0,6.4-3.9l1.8-19.1"/>
		<path class="st1" d="M576.8,249.5l-12.3-19.6c-0.5-0.8-1.5-0.6-1.8,0.3l-8.2,24"/>
		<path class="st1" d="M581.4,253l-6.4-19.5c-0.4-1.2-1.7-1.2-2.2,0l-9.9,20"/>
		<path class="st1" d="M542.6,208.5l16.4,15.1c1.8,1.6,4.3,0.1,4.4-2.7l1.7-26.2"/>
		<path class="st1" d="M527.2,214.8l18.6,17c0.8,0.8,2,0,2.1-1.3l2-29.6"/>
		<path class="st1" d="M562.6,255l-12.3-20.6c-1.4-2.3-4.1-1.8-5,0.9l-7.5,24.3"/>
		<path class="st1" d="M578.7,254.9l-13.3-20.1c-1-1.5-2.8-1.1-3.4,0.7l-8.1,24"/>
		<path class="st1" d="M568.3,257l-11.9-19.8c-1.6-2.6-4.7-2.1-5.7,1.1l-7.2,23.4"/>
		<path class="st1" d="M536,208.6l19.1,17.5c0.6,0.6,1.5,0,1.6-1l2-30.3"/>
		<polyline class="st1" points="520.6,214.9 541.1,233.6 543.2,201 		"/>
		<path class="st1" d="M556,255.1l-12.7-21.2c-1.2-2-3.6-1.6-4.4,0.8l-7.7,25"/>
		<path class="st1" d="M572.1,255l-12.4-20.8c-1.3-2.2-4-1.7-4.8,0.9l-7.5,24.5"/>
		<path class="st1" d="M580,254l-12.9-21.5c-1.1-1.9-3.3-1.5-4,0.7l-7.8,25.4"/>
		<path class="st2" d="M17,339.9c0,0,68.9,108.2,125,58.7c55.9-49.2-2.3-48,124.4-105.6c1.1-0.5,2.2-1.4,3-2.6
			c24.1-34.5,86.8-79.2,137.9-66.1c2.8,0.7,39-12.7,41.6-14.9c42.8-36.4,75.1-55,115.5-16.6c4.4,4.2,15.6,20.5,10.8,23.4
			c-10.1,6.1-26.6,26.2-19.4,26.4c11.2,0.5,10.2,2,17-0.7c11.3-4.5,11.6,10.5,7.4,15.4c-0.7,0.9-1.6,1.5-2.5,1.9
			c-66.4,30.2-96.3-43.3-134,71.8c-8.7,26.4-67.1,83.6-122.7,65.6c-55.2-17.9-41.6-49.9-115.3-16c-1,0.5-2,1.3-2.7,2.3
			c-35,45.9-77.1,59.6-90.7,54.6C98.5,432.4,30.7,383.9,17,339.9z"/>
		<path class="st3" d="M499.9,212.6l-2.3-2.4l0.5-5.2c0.1-1.3,0.7-2.5,1.7-3.3l5.3-4.5c1.3-1.1,3-1.5,4.6-1l6,1.6l1.5,4.7l-3.8,7.6
			c-0.6,1.3-1.8,2.2-3.2,2.6l-5.3,1.4C503,214.4,501.2,213.9,499.9,212.6z"/>
		<polygon class="st3" points="427.6,251.8 427.2,251.4 427.2,250.8 427.6,250.5 428,250.7 428.2,251.2 428,251.7 		"/>
		<polygon class="st3" points="392.7,250.4 388.4,245.3 388.8,237.6 393.5,233.2 399.2,235.4 401.4,242.5 398.5,249.2 		"/>
		<polygon class="st3" points="364.4,259.3 362.1,256.6 362.3,252.7 364.8,250.4 367.7,251.5 368.9,255.2 367.4,258.7 		"/>
		<polygon class="st3" points="359.1,293.9 356.8,291.2 357,287.2 359.5,285 362.4,286.1 363.6,289.8 362.1,293.3 		"/>
		<polygon class="st3" points="335.5,261.9 333.2,259.3 333.4,255.3 335.9,253 338.8,254.1 340,257.8 338.5,261.3 		"/>
		<polygon class="st3" points="334.7,296.1 334.4,295.7 334.4,295.2 334.8,294.9 335.2,295 335.3,295.5 335.2,296 		"/>
		<polygon class="st3" points="313.9,292.4 309.5,287.3 309.9,279.6 314.6,275.2 320.3,277.4 322.5,284.5 319.6,291.2 		"/>
		<polygon class="st3" points="302.7,301.3 300.5,298.7 300.7,294.7 303.1,292.4 306.1,293.5 307.2,297.2 305.7,300.7 		"/>
		<polygon class="st3" points="268.1,325 265.9,322.4 266.1,318.4 268.5,316.1 271.5,317.3 272.6,320.9 271.2,324.4 		"/>
		<polygon class="st3" points="224.1,342.3 222.4,340.4 222.5,337.5 224.3,335.8 226.5,336.6 227.4,339.3 226.3,341.9 		"/>
		<polygon class="st3" points="242.6,337.6 241,335.7 241.1,332.8 242.9,331.1 245.1,331.9 245.9,334.6 244.9,337.2 		"/>
		<polygon class="st3" points="444.5,237 444.7,231.5 448.1,228.4 452.2,229.9 453.7,235 451.7,239.8 447.5,240.7 		"/>
	</g>
	<circle class="st4" cx="511.4" cy="202.8" r="4.3"/>
	<path class="st2" d="M477.4,310.4h-51.8c-1.7,0-3.2-1.4-3.2-3.2v-4.4c0-1.7,1.4-3.2,3.2-3.2h51.8c1.7,0,3.2,1.4,3.2,3.2v4.4
		C480.6,309,479.1,310.4,477.4,310.4z"/>
	<path class="st2" d="M462.6,337.4l-48.3-18.6c-1.6-0.6-2.5-2.5-1.8-4.1l1.6-4.1c0.6-1.6,2.5-2.5,4.1-1.8l48.3,18.6
		c1.6,0.6,2.5,2.5,1.8,4.1l-1.6,4.1C466,337.2,464.2,338,462.6,337.4z"/>
	<path class="st2" d="M351.6,445.1h-10.1c-4,0-7.3-3.3-7.3-7.3v-60.2c0-4,3.3-7.3,7.3-7.3h10.1c4,0,7.3,3.3,7.3,7.3v60.2
		C358.9,441.8,355.6,445.1,351.6,445.1z"/>
	<path class="st2" d="M412.4,437.1l-9.5,3.5c-3.8,1.4-8-0.5-9.4-4.3L372.4,380c-1.4-3.8,0.5-8,4.3-9.4l9.5-3.5
		c3.8-1.4,8,0.5,9.4,4.3l21.1,56.3C418.2,431.5,416.2,435.7,412.4,437.1z"/>
	<circle class="st5" cx="558.7" cy="204.5" r="2.7"/>
</g>
</svg>
