<?xml version="1.0" encoding="utf-8"?>
<!-- Generator: Adobe Illustrator 23.0.3, SVG Export Plug-In . SVG Version: 6.00 Build 0)  -->
<svg version="1.0" id="Layer_1" xmlns="http://www.w3.org/2000/svg" xmlns:xlink="http://www.w3.org/1999/xlink" x="0px" y="0px"
	 viewBox="0 0 400 400" style="enable-background:new 0 0 400 400;" xml:space="preserve">
<style type="text/css">
	.st0{fill:#8788C2;}
	.st1{fill:#F4EDDC;}
	.st2{fill:#010101;}
	.st3{fill:#F0E4F0;}
</style>
<g id="B-Mosa">
	<path class="st0" d="M190.74,218.51L190.74,218.51c2.29,1.19,5.14,0.29,6.33-2l6.32-12.15c1.19-2.29,0.29-5.14-2-6.33l0,0
		c-2.29-1.19-5.14-0.29-6.33,2l-6.32,12.15C187.55,214.47,188.45,217.32,190.74,218.51z"/>
	<path class="st0" d="M227.68,200.7c0,0-12.88,27.46-14.88,27.98c-2,0.53,20.34-2.57,24.02-12.62c3.67-10.05,1.71-16.72,1.71-16.72
		S231.53,192.67,227.68,200.7z"/>
	<path class="st1" d="M294.75,193.7c-0.37,0.56-1.2,0.51-1.5-0.09l-0.26-0.52l-0.26-0.52c-0.3-0.6,0.16-1.29,0.83-1.25l0.58,0.03
		l0.58,0.04c0.67,0.04,1.04,0.79,0.67,1.34l-0.32,0.48L294.75,193.7z"/>
	<path class="st1" d="M291.72,193.7c-0.37,0.56-1.2,0.51-1.5-0.09l-0.26-0.52l-0.26-0.52c-0.3-0.6,0.16-1.29,0.83-1.25l0.58,0.03
		l0.58,0.04c0.67,0.04,1.04,0.79,0.67,1.34l-0.32,0.48L291.72,193.7z"/>
	<path class="st1" d="M288.52,193.7c-0.37,0.56-1.2,0.51-1.5-0.09l-0.26-0.52l-0.26-0.52c-0.3-0.6,0.16-1.29,0.83-1.25l0.58,0.03
		l0.58,0.04c0.67,0.04,1.04,0.79,0.67,1.34l-0.32,0.48L288.52,193.7z"/>
	<path class="st1" d="M285.31,193.13c-0.37,0.56-1.2,0.51-1.5-0.09l-0.26-0.52l-0.26-0.52c-0.3-0.6,0.16-1.29,0.83-1.25l0.58,0.03
		l0.58,0.04c0.67,0.04,1.04,0.79,0.67,1.34l-0.32,0.48L285.31,193.13z"/>
	<path class="st1" d="M282.18,192.32c-0.37,0.56-1.2,0.51-1.5-0.09l-0.26-0.52l-0.26-0.52c-0.3-0.6,0.16-1.29,0.83-1.25l0.58,0.03
		l0.58,0.04c0.67,0.04,1.04,0.79,0.67,1.34l-0.32,0.48L282.18,192.32z"/>
	<path class="st1" d="M279.23,192.32c-0.37,0.56-1.2,0.51-1.5-0.09l-0.26-0.52l-0.26-0.52c-0.3-0.6,0.16-1.29,0.83-1.25l0.58,0.03
		l0.58,0.04c0.67,0.04,1.04,0.79,0.67,1.34l-0.32,0.48L279.23,192.32z"/>
	<path class="st1" d="M276.28,191.66c-0.37,0.56-1.2,0.51-1.5-0.09l-0.26-0.52l-0.26-0.52c-0.3-0.6,0.16-1.29,0.83-1.25l0.58,0.03
		l0.58,0.03c0.67,0.04,1.04,0.79,0.67,1.34l-0.32,0.48L276.28,191.66z"/>
	<path class="st1" d="M273.03,191.75c-0.37,0.56-1.2,0.51-1.5-0.09l-0.26-0.52l-0.26-0.52c-0.3-0.6,0.16-1.29,0.83-1.25l0.58,0.04
		l0.58,0.03c0.67,0.04,1.04,0.79,0.67,1.34l-0.32,0.48L273.03,191.75z"/>
	<path class="st1" d="M270.15,190.94c-0.37,0.56-1.2,0.51-1.5-0.09l-0.26-0.52l-0.26-0.52c-0.3-0.6,0.16-1.29,0.83-1.25l0.58,0.03
		l0.58,0.04c0.67,0.04,1.04,0.79,0.67,1.34l-0.32,0.48L270.15,190.94z"/>
	<path class="st1" d="M266.53,191.03c-0.37,0.56-1.2,0.51-1.5-0.09l-0.26-0.52l-0.26-0.52c-0.3-0.6,0.16-1.29,0.83-1.25l0.58,0.03
		l0.58,0.04c0.67,0.04,1.04,0.79,0.67,1.34l-0.32,0.48L266.53,191.03z"/>
	<path class="st1" d="M261.57,197.03c0.49-0.46,1.28-0.22,1.44,0.43l0.13,0.56l0.13,0.56c0.15,0.65-0.46,1.22-1.09,1.03l-0.55-0.17
		l-0.55-0.17c-0.64-0.19-0.83-1-0.34-1.46l0.42-0.4L261.57,197.03z"/>
	<path class="st1" d="M264.54,197.67c0.49-0.46,1.28-0.22,1.44,0.43l0.13,0.56l0.13,0.56c0.15,0.65-0.46,1.22-1.09,1.03l-0.55-0.17
		l-0.55-0.17c-0.64-0.19-0.83-1-0.34-1.46l0.42-0.4L264.54,197.67z"/>
	<path class="st1" d="M267.65,198.77c0.49-0.46,1.28-0.22,1.44,0.43l0.13,0.56l0.13,0.56c0.15,0.65-0.46,1.22-1.09,1.03l-0.55-0.17
		l-0.55-0.17c-0.64-0.19-0.83-1-0.34-1.46l0.42-0.4L267.65,198.77z"/>
	<path class="st1" d="M270.77,198.89c0.49-0.46,1.28-0.22,1.44,0.43l0.13,0.56l0.13,0.56c0.15,0.65-0.46,1.22-1.09,1.03l-0.55-0.17
		l-0.55-0.17c-0.64-0.19-0.83-1-0.34-1.46l0.42-0.4L270.77,198.89z"/>
	<path class="st1" d="M273.91,199.47c0.49-0.46,1.28-0.22,1.44,0.43l0.13,0.56l0.13,0.56c0.15,0.65-0.46,1.22-1.09,1.03l-0.55-0.17
		l-0.55-0.17c-0.64-0.19-0.83-1-0.34-1.46l0.42-0.4L273.91,199.47z"/>
	<path class="st1" d="M276.8,200.07c0.49-0.46,1.28-0.22,1.44,0.43l0.13,0.56l0.13,0.56c0.15,0.65-0.46,1.22-1.09,1.03l-0.55-0.17
		l-0.55-0.17c-0.64-0.19-0.83-1-0.34-1.46l0.42-0.4L276.8,200.07z"/>
	<path class="st1" d="M279.71,200.59c0.49-0.46,1.28-0.22,1.44,0.43l0.13,0.56l0.13,0.56c0.15,0.65-0.46,1.22-1.09,1.03l-0.55-0.17
		l-0.55-0.17c-0.64-0.19-0.83-1-0.34-1.46l0.42-0.4L279.71,200.59z"/>
	<path class="st1" d="M282.89,201.25c0.49-0.46,1.28-0.22,1.44,0.43l0.13,0.56l0.13,0.56c0.15,0.65-0.46,1.22-1.09,1.03l-0.55-0.17
		l-0.55-0.17c-0.64-0.19-0.83-1-0.34-1.46l0.42-0.4L282.89,201.25z"/>
	<path class="st1" d="M285.77,201.5c0.49-0.46,1.28-0.22,1.44,0.43l0.13,0.56l0.13,0.56c0.15,0.65-0.46,1.22-1.09,1.03l-0.55-0.17
		l-0.55-0.17c-0.64-0.19-0.83-1-0.34-1.46l0.42-0.4L285.77,201.5z"/>
	<path class="st1" d="M288.69,202.63c0.25-0.24,0.67-0.11,0.75,0.23l0.07,0.29l0.07,0.29c0.08,0.34-0.24,0.64-0.57,0.54l-0.29-0.09
		l-0.29-0.09c-0.33-0.1-0.43-0.53-0.18-0.77l0.22-0.21L288.69,202.63z"/>
	<path class="st0" d="M102.02,165.19c0,0,46.4,11.83,61.63,11.83c15.23,0,67.76-3.39,85.34-5.91c18.3-2.63,49.84,5.91,48.99,17.74
		c-0.84,11.83-36.32-5.91-35.48,4.22c0.84,10.14,30.41,10.14,30.41,10.14s-28.72,5.07-44.77,5.07s-74.17-3.38-86.92-9.29
		C148.48,193.06,132.43,192.22,102.02,165.19z"/>
	<circle class="st2" cx="268.52" cy="177.2" r="2.16"/>
	<path class="st3" d="M297.42,190.75c0,0-56.21-11.82-71.61-0.81c-15.39,11-59.53,10.72-59.53,10.72s41.88,10.14,87.87,7.61
		c13.88,0.54,38.76-5.07,38.76-5.07s-24.97,0.38-30.41-10.14c-0.64-2.4,2.56-3.3,9.34-2.69S294.09,196.16,297.42,190.75z"/>
	<path class="st0" d="M232.91,198.98c0,0-3.5,32.44-5.72,33.71c-2.23,1.27,23.85-10.09,23.85-21.58s-5.41-17.5-5.41-17.5
		S234.03,189.46,232.91,198.98z"/>
	<path class="st0" d="M180.22,220.19L180.22,220.19c2.29,1.19,5.14,0.29,6.33-2l7.65-14.71c1.19-2.29,0.29-5.14-2-6.33l0,0
		c-2.29-1.19-5.14-0.29-6.33,2l-7.65,14.71C177.03,216.15,177.93,219,180.22,220.19z"/>
</g>
</svg>
