<?xml version="1.0" encoding="utf-8"?>
<!-- Generator: Adobe Illustrator 23.0.3, SVG Export Plug-In . SVG Version: 6.00 Build 0)  -->
<svg version="1.0" id="Layer_1" xmlns="http://www.w3.org/2000/svg" xmlns:xlink="http://www.w3.org/1999/xlink" x="0px" y="0px"
	 viewBox="0 0 400 400" style="enable-background:new 0 0 400 400;" xml:space="preserve">
<style type="text/css">
	.st0{fill:#F9C973;}
	.st1{fill:#030303;}
	.st2{fill:#F9F5C3;}
	.st3{fill:#D5E6A1;}
	.st4{fill:#F9E381;}
</style>
<g id="B-Oviraptor">
	<g id="A-oviraptor_1_">
		<path class="st0" d="M211.82,210.21c-3.67,1.96-15.76,1.7-20.27-0.47c-10.9-7.94-13.76-10.57-17.74-15.14
			c-1.5-2.99-2.06-4.9-2.06-6.42c0,0,3.27,10.99,13.8,11.84c0,0,14.85-10.51,21.24-6.73c5.3,0.99,6.21,5.8,7.16-1.97
			c0.94-7.77,4.93-10.1,4.93-10.1s3.29-3.14,5.64-1.49s3.31,3.14,2.13,4.78c2.59,1.65-4.03-2.49-6.33,0.34
			c-2.3,2.83,1.26,3.77,1.15,5.24c-1.47-1.36-2.97-0.19-2.97,2.84c0,3.04,1.05,3.55,1.41,6.23
			C219.89,199.17,215.85,208.05,211.82,210.21z"/>
		<circle class="st1" cx="223.33" cy="181.76" r="0.68"/>
		<path class="st2" d="M227.43,185.3c0,0.01,0.01,0.02,0.01,0.03c0.48,1.25-1.02,2.36-2.1,1.58c-1.99-1.44-4.9-2.54-5.99-1.52
			c2.91-0.08,4.03,0.52,4.16,2.2c0.02,0.21,0.07,0.39,0.15,0.53c0.55,1.04-0.15,2.29-1.32,2.11c-0.18-0.03-0.36-0.06-0.56-0.1
			c-0.13-0.02-0.25-0.06-0.36-0.12c-1.61-0.78-3.94-2.5-3.64-4.32c0.31-1.84,4.89-3.57,9.1-1.04
			C227.12,184.81,227.33,185.03,227.43,185.3z"/>
		<path class="st2" d="M219.53,180.56"/>
		<path class="st3" d="M197.71,199.76L197.71,199.76c0.69,0,1.25-0.56,1.25-1.25v0c0-0.69-0.56-1.25-1.25-1.25l0,0
			c-0.69,0-1.25,0.56-1.25,1.25v0C196.46,199.2,197.02,199.76,197.71,199.76z"/>
		<path class="st3" d="M191.5,202.42L191.5,202.42c0.69,0,1.25-0.56,1.25-1.25v0c0-0.69-0.56-1.25-1.25-1.25l0,0
			c-0.69,0-1.25,0.56-1.25,1.25v0C190.25,201.86,190.82,202.42,191.5,202.42z"/>
		<path class="st3" d="M214.53,200.42L214.53,200.42c0.69,0,1.25-0.56,1.25-1.25l0,0c0-0.69-0.56-1.25-1.25-1.25l0,0
			c-0.69,0-1.25,0.56-1.25,1.25l0,0C213.28,199.86,213.84,200.42,214.53,200.42z"/>
		<circle class="st3" cx="201.19" cy="200.03" r="0.39"/>
		<circle class="st3" cx="187.23" cy="201.17" r="0.32"/>
		<ellipse class="st3" cx="207.43" cy="202.42" rx="0.66" ry="0.31"/>
		<circle class="st3" cx="213.93" cy="206.16" r="0.6"/>
		<circle class="st4" cx="226.19" cy="185.62" r="0.29"/>
		<circle class="st3" cx="207.1" cy="197.59" r="0.33"/>
		<circle class="st3" cx="203.31" cy="197.59" r="1.1"/>
	</g>
	<path class="st0" d="M201.99,221.65L201.99,221.65c-0.69,0-1.25-0.56-1.25-1.25v-10.18c0-0.69,0.56-1.25,1.25-1.25l0,0
		c0.69,0,1.25,0.56,1.25,1.25v10.18C203.23,221.09,202.67,221.65,201.99,221.65z"/>
	<path class="st0" d="M209.31,220.94L209.31,220.94c-0.61,0.32-1.37,0.08-1.68-0.53l-4.68-9.03c-0.32-0.61-0.08-1.37,0.53-1.68l0,0
		c0.61-0.32,1.37-0.08,1.68,0.53l4.68,9.03C210.16,219.87,209.92,220.63,209.31,220.94z"/>
	<path class="st0" d="M221.11,203.88l-5.17-1.76c-0.32-0.11-0.49-0.46-0.38-0.78l0,0c0.11-0.32,0.46-0.49,0.78-0.38l5.17,1.76
		c0.32,0.11,0.49,0.46,0.38,0.78l0,0C221.78,203.81,221.43,203.98,221.11,203.88z"/>
	<path class="st0" d="M222.03,201.68l-5.3-1.33c-0.33-0.08-0.53-0.42-0.44-0.74l0,0c0.08-0.33,0.42-0.53,0.74-0.44l5.3,1.33
		c0.33,0.08,0.53,0.42,0.44,0.74h0C222.69,201.57,222.36,201.77,222.03,201.68z"/>
</g>
</svg>
