<?xml version="1.0" encoding="utf-8"?>
<!-- Generator: Adobe Illustrator 23.0.1, SVG Export Plug-In . SVG Version: 6.00 Build 0)  -->
<svg version="1.1" id="Layer_1" xmlns="http://www.w3.org/2000/svg" xmlns:xlink="http://www.w3.org/1999/xlink" x="0px" y="0px"
	 viewBox="0 0 599.8 599.8" style="enable-background:new 0 0 599.8 599.8;" xml:space="preserve">
<style type="text/css">
	.st0{fill:#F9C973;}
	.st1{fill:#030303;}
	.st2{fill:#F9F5C3;}
	.st3{fill:#D5E6A1;}
	.st4{fill:#F9E381;}
</style>
<g id="B-Oviraptor">
	<g id="A-oviraptor_1_">
		<path class="st0" d="M423.4,398.9c-37.2,19.9-159.8,17.2-205.6-4.8C107.3,313.6,78.3,286.9,37.9,240.5
			C22.7,210.2,17,190.8,17,175.4c0,0,33.2,111.5,140,120.1c0,0,150.6-106.6,215.4-68.3c53.8,10,63,58.8,72.6-20
			c9.5-78.8,50-102.4,50-102.4s33.4-31.8,57.2-15.1s33.6,31.8,21.6,48.5c26.3,16.7-40.9-25.3-64.2,3.4s12.8,38.2,11.7,53.1
			c-14.9-13.8-30.1-1.9-30.1,28.8c0,30.8,10.6,36,14.3,63.2C505.3,286.9,464.3,377,423.4,398.9z"/>
		<circle class="st1" cx="540.1" cy="110.3" r="6.9"/>
		<path class="st2" d="M581.7,146.2c0,0.1,0.1,0.2,0.1,0.3c4.9,12.7-10.3,23.9-21.3,16c-20.2-14.6-49.7-25.8-60.8-15.4
			c29.5-0.8,40.9,5.3,42.2,22.3c0.2,2.1,0.7,4,1.5,5.4c5.6,10.5-1.5,23.2-13.4,21.4c-1.8-0.3-3.7-0.6-5.7-1
			c-1.3-0.2-2.5-0.6-3.7-1.2c-16.3-7.9-40-25.4-36.9-43.8c3.1-18.7,49.6-36.2,92.3-10.5C578.6,141.2,580.7,143.5,581.7,146.2z"/>
		<path class="st2" d="M501.6,98.1"/>
		<path class="st3" d="M280.3,292.9L280.3,292.9c7,0,12.7-5.7,12.7-12.7l0,0c0-7-5.7-12.7-12.7-12.7l0,0c-7,0-12.7,5.7-12.7,12.7
			l0,0C267.6,287.2,273.3,292.9,280.3,292.9z"/>
		<path class="st3" d="M217.3,319.9L217.3,319.9c7,0,12.7-5.7,12.7-12.7l0,0c0-7-5.7-12.7-12.7-12.7l0,0c-7,0-12.7,5.7-12.7,12.7
			l0,0C204.6,314.2,210.4,319.9,217.3,319.9z"/>
		<path class="st3" d="M450.9,299.6L450.9,299.6c7,0,12.7-5.7,12.7-12.7l0,0c0-7-5.7-12.7-12.7-12.7l0,0c-7,0-12.7,5.7-12.7,12.7
			l0,0C438.2,293.9,443.9,299.6,450.9,299.6z"/>
		<circle class="st3" cx="315.6" cy="295.6" r="4"/>
		<circle class="st3" cx="174" cy="307.2" r="3.2"/>
		<ellipse class="st3" cx="378.9" cy="319.9" rx="6.7" ry="3.1"/>
		<circle class="st3" cx="444.8" cy="357.8" r="6.1"/>
		<circle class="st4" cx="569.2" cy="149.5" r="2.9"/>
		<circle class="st3" cx="375.5" cy="270.9" r="3.3"/>
		<circle class="st3" cx="337.1" cy="270.9" r="11.2"/>
	</g>
	<path class="st0" d="M323.7,514.9L323.7,514.9c-7,0-12.7-5.7-12.7-12.7V399c0-7,5.7-12.7,12.7-12.7l0,0c7,0,12.7,5.7,12.7,12.7
		v103.3C336.3,509.2,330.6,514.9,323.7,514.9z"/>
	<path class="st0" d="M397.9,507.7L397.9,507.7c-6.2,3.2-13.9,0.8-17-5.4l-47.5-91.6c-3.2-6.2-0.8-13.9,5.4-17l0,0
		c6.2-3.2,13.9-0.8,17,5.4l47.5,91.6C406.6,496.8,404.1,504.6,397.9,507.7z"/>
	<path class="st0" d="M517.6,334.7l-52.4-17.9c-3.2-1.1-5-4.7-3.9-7.9l0,0c1.1-3.2,4.7-5,7.9-3.9l52.4,17.9c3.2,1.1,5,4.7,3.9,7.9
		l0,0C524.4,334,520.9,335.7,517.6,334.7z"/>
	<path class="st0" d="M527,312.4l-53.8-13.5c-3.3-0.8-5.4-4.3-4.5-7.5l0,0c0.8-3.3,4.3-5.4,7.5-4.5l53.8,13.5
		c3.3,0.8,5.4,4.3,4.5,7.5l0,0C533.7,311.2,530.3,313.3,527,312.4z"/>
</g>
</svg>
