<?xml version="1.0" encoding="utf-8"?>
<!-- Generator: Adobe Illustrator 23.0.1, SVG Export Plug-In . SVG Version: 6.00 Build 0)  -->
<svg version="1.1" id="Layer_1" xmlns="http://www.w3.org/2000/svg" xmlns:xlink="http://www.w3.org/1999/xlink" x="0px" y="0px"
	 viewBox="0 0 599.8 599.8" style="enable-background:new 0 0 599.8 599.8;" xml:space="preserve">
<style type="text/css">
	.st0{fill:#F5EF77;}
	.st1{fill:#D5E15D;}
	.st2{fill:#F9C687;}
	.st3{fill:#F9E8B9;}
	.st4{fill:#090909;}
	.st5{fill:#FBEB50;}
</style>
<g id="B-Pachy">
	<path class="st0" d="M512.2,317.3l-75.5-39.1c-4-2.1-5.5-7.1-3.5-11l5.1-9.8c2.1-4,7.1-5.5,11-3.5l75.5,39.1c4,2.1,5.5,7.1,3.5,11
		l-5.1,9.8C521.1,317.7,516.2,319.3,512.2,317.3z"/>
	<path class="st0" d="M490.4,165.2c-0.3-0.4-0.4-0.8-0.6-1.3c-34,0.3-84.5,30.3-90.5,16c-3.1-7.3-167.3,103-177.4,113.5
		c-3.2,2.8-6.3,5.4-9.5,8.1c-25,17.6-133.7,89.6-168,38.5c-12.3-18.4-10-34.4-1.2-47.7c6.6-9.9-5.4-22.5-12.3-13.1
		c-0.9,1.3-1.8,2.6-2.6,4C9.4,316.7,35,389,83.2,420.1s232.7,8.9,254.5,0c19.3-7.9,129.8-93.3,154.8-112.8c3.1-2,6.1-3.9,9.2-6
		c0.2-0.1,0.7-0.1,0.6-0.4c-6.9-25.9-7.8-72.6,21.9-78C546.4,218.9,502.4,184.1,490.4,165.2z"/>
	<circle class="st1" cx="568.1" cy="194.3" r="5.7"/>
	<circle class="st2" cx="271.8" cy="275" r="10.5"/>
	<circle class="st2" cx="351.4" cy="217.9" r="10.5"/>
	<circle class="st2" cx="216.5" cy="364.4" r="10.5"/>
	<circle class="st2" cx="443.6" cy="300" r="10.5"/>
	<circle class="st2" cx="361.9" cy="294.7" r="10.5"/>
	<path class="st2" d="M164.7,333.5c-7.9,3.7,63.8-8.5,67-46.6C198.7,312.4,164.7,333.5,164.7,333.5z"/>
	<path class="st2" d="M24.3,300c0,0-9.5,30.4,10.6,34.2C29.2,324.8,19.4,309.2,24.3,300z"/>
	<circle class="st2" cx="282.3" cy="392" r="5.6"/>
	<circle class="st2" cx="17.7" cy="458.2" r="0.7"/>
	<circle class="st2" cx="450.9" cy="284.5" r="3.6"/>
	<circle class="st2" cx="566.9" cy="133.2" r="2.2"/>
	<path class="st0" d="M542.6,207.3h34.6c2.9-9.2,7.8-19.6,4.5-29.2c-14.7-42.6-5.9-68.8-60-68.8s-180.9,108.6-103.3,76.1
		c38-15.9,24,32.6,78,32.6c38.1,0,58.2,36.5,74.5,4.7L542.6,207.3z"/>
	<path class="st3" d="M462.6,130.8c0,0,52.8-55.9,91.6-24.1c13.9,11.4,19.7,42.3,19.7,42.3S475.7,155.6,462.6,130.8z"/>
	<circle class="st4" cx="553.8" cy="169.8" r="8.1"/>
	<path class="st0" d="M491.5,374.4L416,335.3c-4-2.1-5.5-7.1-3.5-11l5.1-9.8c2.1-4,7.1-5.5,11-3.5l75.5,39.1c4,2.1,5.5,7.1,3.5,11
		l-5.1,9.8C500.5,374.9,495.5,376.5,491.5,374.4z"/>
	<path class="st0" d="M268,502.9h-19.4c-7.9,0-14.3-6.4-14.3-14.3v-82.3c0-7.9,6.4-14.3,14.3-14.3H268c7.9,0,14.3,6.4,14.3,14.3
		v82.3C282.3,496.4,275.9,502.9,268,502.9z"/>
	<path class="st0" d="M344.4,477.6l-18.3,6.4c-7.4,2.6-15.6-1.3-18.2-8.8l-27.4-77.6c-2.6-7.4,1.3-15.6,8.8-18.2l18.3-6.4
		c7.4-2.6,15.6,1.3,18.2,8.8l27.4,77.6C355.7,466.8,351.8,475,344.4,477.6z"/>
	<circle class="st5" cx="570.4" cy="196.6" r="3.4"/>
</g>
</svg>
