<?xml version="1.0" encoding="utf-8"?>
<!-- Generator: Adobe Illustrator 23.0.3, SVG Export Plug-In . SVG Version: 6.00 Build 0)  -->
<svg version="1.0" id="Layer_1" xmlns="http://www.w3.org/2000/svg" xmlns:xlink="http://www.w3.org/1999/xlink" x="0px" y="0px"
	 viewBox="0 0 400 400" style="enable-background:new 0 0 400 400;" xml:space="preserve">
<style type="text/css">
	.st0{fill:#F5EF77;}
	.st1{fill:#D5E15D;}
	.st2{fill:#F9C687;}
	.st3{fill:#F9E8B9;}
	.st4{fill:#090909;}
	.st5{fill:#FBEB50;}
</style>
<g id="B-Pachy">
	<path class="st0" d="M224.08,203.13l-8.45-4.37c-0.45-0.23-0.62-0.79-0.39-1.23l0.57-1.1c0.23-0.45,0.79-0.62,1.23-0.39l8.45,4.37
		c0.45,0.23,0.62,0.79,0.39,1.23l-0.57,1.1C225.08,203.18,224.53,203.36,224.08,203.13z"/>
	<path class="st0" d="M221.64,186.12c-0.03-0.05-0.04-0.09-0.07-0.14c-3.8,0.03-9.45,3.39-10.12,1.79
		c-0.35-0.82-18.71,11.52-19.84,12.69c-0.36,0.31-0.7,0.6-1.06,0.91c-2.8,1.97-14.96,10.02-18.79,4.31
		c-1.38-2.06-1.12-3.85-0.13-5.33c0.74-1.11-0.6-2.52-1.38-1.46c-0.1,0.14-0.2,0.29-0.29,0.45c-2.12,3.73,0.74,11.81,6.14,15.29
		c5.4,3.48,26.03,0.99,28.47,0c2.16-0.88,14.52-10.44,17.32-12.62c0.35-0.22,0.68-0.44,1.03-0.67c0.02-0.01,0.08-0.01,0.07-0.04
		c-0.77-2.9-0.87-8.12,2.45-8.73C227.91,192.13,222.98,188.23,221.64,186.12z"/>
	<circle class="st1" cx="230.33" cy="189.38" r="0.64"/>
	<circle class="st2" cx="197.19" cy="198.4" r="1.18"/>
	<circle class="st2" cx="206.09" cy="192.01" r="1.18"/>
	<circle class="st2" cx="191" cy="208.4" r="1.18"/>
	<circle class="st2" cx="216.41" cy="201.2" r="1.18"/>
	<circle class="st2" cx="207.27" cy="200.61" r="1.18"/>
	<path class="st2" d="M185.21,204.95c-0.88,0.41,7.14-0.95,7.49-5.21C189.01,202.59,185.21,204.95,185.21,204.95z"/>
	<path class="st2" d="M169.51,201.2c0,0-1.06,3.4,1.19,3.82C170.05,203.97,168.96,202.23,169.51,201.2z"/>
	<circle class="st2" cx="198.37" cy="211.49" r="0.63"/>
	<circle class="st2" cx="168.77" cy="218.89" r="0.08"/>
	<circle class="st2" cx="217.22" cy="199.46" r="0.4"/>
	<circle class="st2" cx="230.2" cy="182.54" r="0.25"/>
	<path class="st0" d="M227.48,190.83h3.87c0.32-1.03,0.87-2.19,0.5-3.27c-1.64-4.76-0.66-7.7-6.71-7.7
		c-6.05,0-20.23,12.15-11.55,8.51c4.25-1.78,2.68,3.65,8.73,3.65c4.26,0,6.51,4.08,8.33,0.53L227.48,190.83z"/>
	<path class="st3" d="M218.53,182.27c0,0,5.91-6.25,10.25-2.7c1.55,1.28,2.2,4.73,2.2,4.73S220,185.05,218.53,182.27z"/>
	<circle class="st4" cx="228.73" cy="186.64" r="0.91"/>
	<path class="st0" d="M221.77,209.52l-8.45-4.37c-0.45-0.23-0.62-0.79-0.39-1.23l0.57-1.1c0.23-0.45,0.79-0.62,1.23-0.39l8.45,4.37
		c0.45,0.23,0.62,0.79,0.39,1.23l-0.57,1.1C222.77,209.58,222.21,209.76,221.77,209.52z"/>
	<path class="st0" d="M196.77,223.89h-2.17c-0.88,0-1.6-0.72-1.6-1.6v-9.2c0-0.88,0.72-1.6,1.6-1.6h2.17c0.88,0,1.6,0.72,1.6,1.6
		v9.2C198.37,223.17,197.65,223.89,196.77,223.89z"/>
	<path class="st0" d="M205.31,221.06l-2.05,0.72c-0.83,0.29-1.75-0.15-2.04-0.98l-3.06-8.68c-0.29-0.83,0.15-1.75,0.98-2.04
		l2.05-0.72c0.83-0.29,1.75,0.15,2.04,0.98l3.06,8.68C206.58,219.85,206.14,220.77,205.31,221.06z"/>
	<circle class="st5" cx="230.59" cy="189.63" r="0.38"/>
</g>
</svg>
