<?xml version="1.0" encoding="utf-8"?>
<!-- Generator: Adobe Illustrator 23.0.1, SVG Export Plug-In . SVG Version: 6.00 Build 0)  -->
<svg version="1.1" id="Layer_1" xmlns="http://www.w3.org/2000/svg" xmlns:xlink="http://www.w3.org/1999/xlink" x="0px" y="0px"
	 viewBox="0 0 599.8 599.8" style="enable-background:new 0 0 599.8 599.8;" xml:space="preserve">
<style type="text/css">
	.st0{fill:#90B6E0;}
	.st1{fill:#6C77B9;}
	.st2{fill:#FFFEF1;}
	.st3{fill:#010101;}
</style>
<g id="B-Plesiosaurus">
	<path class="st0" d="M236.9,276.1c0,0-62.4,40.8-111.6,20.3c-49.1-20.5-93.2-7-106.3,6.3C6,316,56.7,283.3,128,328.1
		s196.8,32.8,196.8,32.8"/>
	<path class="st0" d="M298.1,333.7c0,0-44.8,59.4-53.1,73.8c-8.3,14.4,35.7,0.3,65.7-23.9s19.1-45.4,19.1-45.4
		S330.1,304.7,298.1,333.7z"/>
	<path class="st1" d="M243.9,413.2c0,0,75.4-29.4,76.7-40.8C316.4,389.8,273.3,415.1,243.9,413.2z"/>
	<path class="st0" d="M407.9,324.7c0,0-11.6,60.8-12.8,74.7c-1.3,13.9,20.9-11.4,32.5-40.1c11.5-28.6,0-41.5,0-41.5
		S419.4,291.8,407.9,324.7z"/>
	<path class="st1" d="M396.8,403.4c0,0,37.2-48.6,33.6-56.4C434.4,359.9,416.5,393.2,396.8,403.4z"/>
	<path class="st0" d="M470.9,315.1c0,36.7-57.9,66.4-129.4,66.4c-51.8,0-96.6-15.6-117.2-38.2c-7.8-8.5-12.2-18.1-12.2-28.1
		c0-36.7,57.9-66.4,129.4-66.4S470.9,278.5,470.9,315.1z"/>
	<path class="st2" d="M208.7,355.7c0,0,142-57.6,233.7-22.2c6.1,2.4,12,5.1,17.6,8.4C446,390.3,238.2,396.3,208.7,355.7z"/>
	<path class="st1" d="M248.3,269.1c0,0,7.7,29.5,24,22.9c16.4-6.6,27.2-39.7,27.2-39.7S252.7,258.2,248.3,269.1z"/>
	<path class="st1" d="M330.2,249c0,0-13.1,42.7,6.6,43.9c19.7,1.2,38.3-41.9,38.3-41.9L330.2,249z"/>
	<path class="st1" d="M410.1,258.9c0,0-8.6,38.3,0,34.1l30.8-20.3L410.1,258.9z"/>
	<path class="st0" d="M370.3,325.4c0,0-20.3,82.8-22.6,101.7c-2.2,18.9,36.8-15.6,57.1-54.6c20.3-39,0-56.5,0-56.5
		S390.6,280.5,370.3,325.4z"/>
	<path class="st0" d="M262.4,323.3c0,0-62.5,62.7-74.7,78.3c-12.2,15.6,40.8,5.8,79.7-18c38.9-23.8,30.5-50.2,30.5-50.2
		S304.5,294.3,262.4,323.3z"/>
	<path class="st1" d="M188.9,408.5c0,0,103-40.1,104.7-55.7C287.9,376.6,229.1,411.2,188.9,408.5z"/>
	<path class="st1" d="M352.9,431.6c0,0,50.9-48.6,45.9-56.4C404.4,388.1,379.9,421.4,352.9,431.6z"/>
	<path class="st0" d="M460,341.8c0,0,57.7-127.3,79.5-122.9c21.8,4.4,62.6-13.1,32.7-32c-29.8-18.9-45.8-29.1-67-7.3
		c-21.1,21.8-42.9,106.3-60.4,108.4C427.4,290.2,460,341.8,460,341.8z"/>
	<circle class="st3" cx="535.1" cy="186.2" r="5.8"/>
	<circle class="st1" cx="567.1" cy="194.2" r="2.2"/>
	<path class="st2" d="M444.9,341.8c0,0,25.5-15.9,29.8-53.8c11.5-17,45.1-77.1,54.6-77.1c9.5,0,29.1-1.5,47,0
		c-1.1,6.6-25.1,10.5-36.8,8c-3.3,2.2-7.2,2.6-12.8,6.9c-5.4,6-40.5,62.8-55.8,93.1c0,12.1-6.7,17.8-10.9,23
		C455.8,347,446.7,346.8,444.9,341.8z"/>
</g>
</svg>
