<?xml version="1.0" encoding="utf-8"?>
<!-- Generator: Adobe Illustrator 23.0.3, SVG Export Plug-In . SVG Version: 6.00 Build 0)  -->
<svg version="1.0" id="Layer_1" xmlns="http://www.w3.org/2000/svg" xmlns:xlink="http://www.w3.org/1999/xlink" x="0px" y="0px"
	 viewBox="0 0 400 400" style="enable-background:new 0 0 400 400;" xml:space="preserve">
<style type="text/css">
	.st0{fill:#90B6E0;}
	.st1{fill:#6C77B9;}
	.st2{fill:#FFFEF1;}
	.st3{fill:#010101;}
</style>
<g id="B-Plesiosaurus">
	<path class="st0" d="M165.39,186.2c0,0-32.2,21.06-57.54,10.48s-48.1-3.63-54.84,3.25c-6.73,6.88,19.43-10.01,56.19,13.08
		s101.51,16.9,101.51,16.9"/>
	<path class="st0" d="M196.97,215.91c0,0-23.12,30.64-27.4,38.09c-4.27,7.44,18.4,0.16,33.87-12.34
		c15.47-12.5,9.87-23.41,9.87-23.41S213.47,200.97,196.97,215.91z"/>
	<path class="st1" d="M169.01,256.94c0,0,38.91-15.17,39.58-21.05C206.39,244.87,184.17,257.93,169.01,256.94z"/>
	<path class="st0" d="M253.59,211.27c0,0-5.96,31.35-6.62,38.53s10.79-5.9,16.74-20.67c5.95-14.77,0-21.4,0-21.4
		S259.54,194.28,253.59,211.27z"/>
	<path class="st1" d="M247.84,251.89c0,0,19.19-25.05,17.32-29.1C267.26,229.44,258.03,246.59,247.84,251.89z"/>
	<path class="st0" d="M286.07,206.35c0,18.91-29.88,34.24-66.73,34.24c-26.74,0-49.81-8.07-60.45-19.72
		c-4.03-4.41-6.28-9.33-6.28-14.51c0-18.91,29.88-34.24,66.73-34.24S286.07,187.44,286.07,206.35z"/>
	<path class="st2" d="M150.84,227.25c0,0,73.27-29.73,120.55-11.46c3.15,1.22,6.19,2.65,9.08,4.32
		C273.22,245.11,166.04,248.21,150.84,227.25z"/>
	<path class="st1" d="M171.29,182.6c0,0,3.95,15.21,12.39,11.83c8.45-3.38,14.04-20.47,14.04-20.47S173.54,176.96,171.29,182.6z"/>
	<path class="st1" d="M213.52,172.25c0,0-6.75,22.03,3.39,22.67c10.14,0.64,19.75-21.63,19.75-21.63L213.52,172.25z"/>
	<path class="st1" d="M254.71,177.32c0,0-4.43,19.78,0,17.6l15.91-10.48L254.71,177.32z"/>
	<path class="st0" d="M234.19,211.64c0,0-10.47,42.7-11.64,52.48c-1.16,9.77,18.97-8.04,29.45-28.15c10.47-20.12,0-29.15,0-29.15
		S244.66,188.49,234.19,211.64z"/>
	<path class="st0" d="M178.53,210.53c0,0-32.25,32.32-38.55,40.38c-6.3,8.06,21.02,3,41.09-9.26
		c20.06-12.27,15.73-25.88,15.73-25.88S200.23,195.57,178.53,210.53z"/>
	<path class="st1" d="M140.65,254.52c0,0,53.11-20.71,54.02-28.73C191.67,238.04,161.35,255.88,140.65,254.52z"/>
	<path class="st1" d="M225.23,266.44c0,0,26.24-25.05,23.68-29.1C251.78,244,239.16,261.14,225.23,266.44z"/>
	<path class="st0" d="M280.46,220.11c0,0,29.74-65.66,41-63.41s32.29-6.76,16.89-16.52c-15.39-9.76-23.65-15.02-34.54-3.75
		c-10.89,11.26-22.15,54.81-31.16,55.94C263.65,193.49,280.46,220.11,280.46,220.11z"/>
	<circle class="st3" cx="319.21" cy="139.81" r="3"/>
	<circle class="st1" cx="335.73" cy="143.94" r="1.13"/>
	<path class="st2" d="M272.66,220.11c0,0,13.14-8.22,15.39-27.75c5.95-8.77,23.28-39.79,28.16-39.79s15.02-0.75,24.22,0
		c-0.56,3.38-12.95,5.44-18.96,4.13c-1.69,1.13-3.73,1.36-6.59,3.55c-2.77,3.11-20.88,32.4-28.8,48.01c0,6.25-3.44,9.18-5.61,11.85
		C278.29,222.77,273.6,222.7,272.66,220.11z"/>
</g>
</svg>
