<?xml version="1.0" encoding="utf-8"?>
<!-- Generator: Adobe Illustrator 23.0.3, SVG Export Plug-In . SVG Version: 6.00 Build 0)  -->
<svg version="1.0" id="Layer_1" xmlns="http://www.w3.org/2000/svg" xmlns:xlink="http://www.w3.org/1999/xlink" x="0px" y="0px"
	 viewBox="0 0 400 400" style="enable-background:new 0 0 400 400;" xml:space="preserve">
<style type="text/css">
	.st0{fill:#FFF8C7;}
	.st1{fill:#FFFCE9;}
	.st2{fill:#DDBAD8;}
	.st3{fill:#010101;}
	.st4{fill:#C686BA;}
</style>
<g id="B-PTERO">
	<path class="st0" d="M180.12,216.04l-0.44,0.18c-0.11,0.05-0.24-0.04-0.24-0.16l0-0.46"/>
	<path class="st0" d="M179.44,215.78l-0.1-0.47c-0.03-0.12,0.08-0.22,0.2-0.19l0.46,0.12"/>
	<path class="st1" d="M180.89,215.84c0,0-1.76,0.59-1.52-0.18c0.24-0.76,1.61-1,1.61-1.44"/>
	<path class="st0" d="M172.12,211.85l-0.44,0.18c-0.11,0.05-0.24-0.04-0.24-0.16l0-0.46"/>
	<path class="st0" d="M171.44,211.6l-0.1-0.47c-0.03-0.12,0.08-0.22,0.2-0.19l0.46,0.12"/>
	<path class="st2" d="M202.83,227.27L202.83,227.27c-1.15,0-2.09-0.94-2.09-2.09v-6.74c0-1.15,0.94-2.09,2.09-2.09l0,0
		c1.15,0,2.09,0.94,2.09,2.09v6.74C204.93,226.33,203.99,227.27,202.83,227.27z"/>
	<path class="st2" d="M228.5,194.34l-8.58-5.86l-12.15-8.29c-1.17-0.8-2.77-0.25-3.2,1.1l-2.18,6.77l-2.18,6.77
		c-0.43,1.34,0.55,2.73,1.96,2.76l10.18,0.25c-0.75-1.46-1.67-3.52-0.72-3.04c0.87,0.43,1.21,1.93,1.35,3.06l3.89,0.09l10.38,0.25
		C229.36,198.25,230.23,195.53,228.5,194.34z"/>
	<path class="st2" d="M197.04,198.64c0,0-12.31-3.62-14.47,2.93c-2.16,6.55-2.41,15.4-2.41,15.4l9.1-10.66c0,0,8.49-0.33,8.99-3.2
		C198.74,200.25,197.04,198.64,197.04,198.64z"/>
	<path class="st2" d="M213.71,185.23c1.92,2.23,0.7,5.7-2.2,6.25l-6.26,1.17l-6.26,1.17c-2.89,0.54-5.29-2.25-4.31-5.03l5.06-4.11
		c1.28-1.04,1.67-2.82,0.94-4.3l-1.78-3.61c0.98-2.78,4.59-3.45,6.51-1.22l4.15,4.84L213.71,185.23z"/>
	<path class="st2" d="M200.68,205.85L200.68,205.85c-3.99,0-7.26-3.27-7.26-7.26v-4.83c0-3.99,3.27-7.26,7.26-7.26h0
		c3.99,0,7.26,3.27,7.26,7.26v4.83C207.94,202.58,204.67,205.85,200.68,205.85z"/>
	<ellipse class="st2" cx="200.74" cy="205.71" rx="10.52" ry="15.07"/>
	<circle class="st3" cx="206.86" cy="187.85" r="1.08"/>
	<path class="st1" d="M211.08,202.96c0,0-18.73,2.16-10.34,17.82C211.08,221.91,213.95,204.07,211.08,202.96z"/>
	<path class="st2" d="M199.6,195.57c0,0-16.12-8.51-20.97,0s-7.69,20.77-7.69,20.77l15.67-12.27c0,0,11.91,1.93,13.42-1.92
		C201.52,198.29,199.6,195.57,199.6,195.57z"/>
	<circle class="st4" cx="218.1" cy="192.66" r="0.49"/>
	<path class="st2" d="M197.35,227.27L197.35,227.27c-1.15,0-2.09-0.94-2.09-2.09v-6.74c0-1.15,0.94-2.09,2.09-2.09l0,0
		c1.15,0,2.09,0.94,2.09,2.09v6.74C199.44,226.33,198.5,227.27,197.35,227.27z"/>
	<path class="st1" d="M198.34,198.65c0,0-14.48-4.42-17.87-0.95c-0.61,0.62-7.58,13.96-7.58,13.96s-1.76,0.59-1.52-0.18
		c0.24-0.76,1.61-1,1.61-1.44c0-0.91,7.76-15.79,7.76-15.79s17.64,0.72,17.64,3.01C198.38,197.83,198.34,198.65,198.34,198.65z"/>
</g>
</svg>
