<svg xmlns="http://www.w3.org/2000/svg" viewBox="0 0 600 600"><defs><style>.cls-1{fill:#486d4d;}.cls-2{fill:#618466;}</style></defs><title>jSpinosaurus</title><g id="Layer_17" data-name="Layer 17"><path class="cls-1" d="M376.27,241.51c26.83,2.66-72.07-80.61-150.21-44.86s-39.06,161.28-7.13,163S205.25,224.58,376.27,241.51Z"/><path class="cls-2" d="M47.46,456.89c29.77,11.17,129,42.17,156.28-42.17,9.19-28.41,15.43-60.41,25.4-89.3H193.81s23.5-1.14,37.56-6.24a186.06,186.06,0,0,1,13.94-30,102.17,102.17,0,0,0-11.11-2.6c5.52-.27,10.62-1,14.18-2.34,1.51-2.31,3.09-4.57,4.74-6.76-1.93-5.73-13.37-13.23-23.44-18.89,10.72,5,24.22,10.2,31.92,9a92.76,92.76,0,0,1,13.2-11.25L248.39,211.6s22.09,27.5,33.87,40.05c1.67-.94,3.39-1.85,5.16-2.71-3.45-14.92-9.89-45-9.89-45l16.68,42a104.29,104.29,0,0,1,13.42-4.19l2.77-36.51,4.43,35A154.13,154.13,0,0,1,349,238.49l3-12.41L354,238.81a249.9,249.9,0,0,1,28.32,3.78c26.05-11.44,23-16.68,11.17-68.48-13.65-59.56,9.92-95.5,74.41-94.26,29.77,5,31,19.85,67,18.61S587,130.7,582,150.55s-17.37,39.69-83.1,52.09c9.92,22.32,29.41,95.5-11.34,157.51s-130,78.14-157.34,85.58-69.45,17.36-96.74,34.73S120.64,522.63,20.18,459.37C12.74,447,17.7,445.73,47.46,456.89Z"/><path class="cls-2" d="M229.68,258.62c-9-4.19-16-8.25-16-8.25S221.18,253.84,229.68,258.62Z"/><path class="cls-2" d="M201.88,285.12H218a93,93,0,0,1,16.2,1.49C219.54,287.32,201.88,285.12,201.88,285.12Z"/><rect class="cls-2" x="457.45" y="334.93" width="77.94" height="32.49" rx="16.25" transform="translate(78.49 -90.52) rotate(11.31)"/><rect class="cls-2" x="477.24" y="290.72" width="83.71" height="34.9" rx="17.45" transform="translate(101.68 -127.95) rotate(15.56)"/><path class="cls-2" d="M415,455.76H404.89V369H357.73V477.35h.08a18.13,18.13,0,0,0,18.1,17.37h39a18.16,18.16,0,0,0,18.17-18.17v-2.62A18.16,18.16,0,0,0,415,455.76Z"/><path class="cls-2" d="M338.92,483.45h-10V397.26H282.05V504.91h.08a18,18,0,0,0,18,17.27h38.81A18.07,18.07,0,0,0,357,504.11v-2.6A18.07,18.07,0,0,0,338.92,483.45Z"/><circle cx="460.88" cy="118.3" r="21.33"/></g></svg>