<?xml version="1.0" encoding="utf-8"?>
<!-- Generator: Adobe Illustrator 23.0.1, SVG Export Plug-In . SVG Version: 6.00 Build 0)  -->
<svg version="1.1" id="Layer_1" xmlns="http://www.w3.org/2000/svg" xmlns:xlink="http://www.w3.org/1999/xlink" x="0px" y="0px"
	 viewBox="0 0 600 600" style="enable-background:new 0 0 600 600;" xml:space="preserve">
<style type="text/css">
	.st0{fill:#A0F9A0;}
	.st1{fill:#FCFBE0;}
	.st2{fill:#F96969;}
	.st3{fill:#F9A5B1;}
	.st4{fill:#F3F9A0;}
	.st5{fill:#5BFF45;}
</style>
<title>aSpinosaurus</title>
<g id="B-Stega">
	<path class="st0" d="M260.3,431.8L260.3,431.8c-22.3,0-40.5-18.2-40.5-40.5v-21.9c0-22.3,18.2-40.5,40.5-40.5h0
		c22.3,0,40.5,18.2,40.5,40.5v21.9C300.7,413.6,282.5,431.8,260.3,431.8z"/>
	<path class="st1" d="M277.2,426.9c0,0,9.5-57.4,24.3-26.7C309.9,431,298.8,426.9,277.2,426.9z"/>
	<path class="st0" d="M430.1,423.1L430.1,423.1c-22.3,0-40.5-18.2-40.5-40.5v-21.9c0-22.3,18.2-40.5,40.5-40.5h0
		c22.3,0,40.5,18.2,40.5,40.5v21.9C470.6,404.9,452.4,423.1,430.1,423.1z"/>
	<path class="st1" d="M448.7,415.9c0,0,9.5-57.4,24.3-26.7C481.4,419.9,470.3,415.9,448.7,415.9z"/>
	<path class="st2" d="M113.5,253.6c0,0,15.5-30.9,25.2-61.9c5.4-17.1,24.3-21.2,34.8-7.8c24.2,31.1,51.1,56.9,51.1,56.9"/>
	<path class="st2" d="M221.1,204.1c0,0,22-27.8,37.7-56.5c8.3-15.1,27.3-14.4,35.1,1c17.8,35,39.4,65.5,39.4,65.5"/>
	<path class="st2" d="M390,226.2c0,0,31.7-18.1,57.4-39.1c12.9-10.5,30.6-1.3,32.5,17c3.8,37.3,12.2,71,12.2,71"/>
	<path class="st2" d="M304.2,229.7c0,0,22.7-27.4,39.2-55.7c8.6-14.8,27.6-13.6,35.1,2c17,35.4,37.8,66.3,37.8,66.3"/>
	<path class="st3" d="M169.4,228.4c0,0,12.7-28.3,21.6-57.9c5.4-17.7,25.3-21.9,35.4-7.4c19.5,27.9,39.7,50.1,39.7,50.1"/>
	<path class="st3" d="M260.7,202.4c0,0,17.2-24.8,31-51.8c8.3-16.1,28.5-15.7,36,1c14.3,31.9,30.5,58.3,30.5,58.3"/>
	<path class="st3" d="M421.2,232.5c0,0,25.4-12,48.7-27.8c13.9-9.4,31.3,2.5,31,21.3c-0.7,36,2.5,68.2,2.5,68.2"/>
	<path class="st3" d="M332.6,226c0,0,17.7-24.4,32.1-50.9c8.6-15.9,28.8-14.9,36,2c13.7,32.3,29.3,59.1,29.3,59.1"/>
	<path class="st0" d="M502.4,295.5c0,56.7-106.4,102.6-237.7,102.6S114,352.2,114,295.5s77.5-95.6,150.6-102.6
		C317.6,187.8,502.4,238.8,502.4,295.5z"/>
	<path class="st0" d="M114,295.5c0,0-41.9-30.2-64.1-63.6c-7.2-10.8,7.8-22.4,16.8-13c15,15.7,39.4,28.3,124.9,9.2"/>
	<path class="st4" d="M166.3,383.7c0,0,241.3-49,262.5-22.2S227.2,416.9,166.3,383.7z"/>
	<path class="st0" d="M528.4,285.9l20.9-8.4c1.4-2.8,2.3-5.5,2.6-8.2c3-26.3-70.4-16.4-70.4-16.4c-25.7,14.8,3,79.4,4.2,78.4
		c0.9-0.8,40.6-23.1,58.1-45.4H528.4z"/>
	<circle cx="502.4" cy="269.7" r="8"/>
	<path class="st0" d="M209.2,463.3L209.2,463.3c-22.3,0-40.5-18.2-40.5-40.5v-51.1c0-22.3,18.2-40.5,40.5-40.5h0
		c22.3,0,40.5,18.2,40.5,40.5v51.1C249.6,445.1,231.4,463.3,209.2,463.3z"/>
	<path class="st0" d="M400.7,463.3L400.7,463.3c-22.3,0-40.5-18.2-40.5-40.5v-51.1c0-22.3,18.2-40.5,40.5-40.5h0
		c22.3,0,40.5,18.2,40.5,40.5v51.1C441.2,445.1,423,463.3,400.7,463.3z"/>
	<path class="st3" d="M208.8,267.1c-6.7-0.4-13.7,0.3-17.7,4.2c-3.8,3.7-1.1,9.9,4.1,10.7c2,0.3,3.8,1.3,5.4,2.5
		c3.3,2.6,8.1,1.5,9.8-2.3c0.8-1.7,1.7-3.3,2.9-4.8C216.4,273.3,213.9,267.4,208.8,267.1z"/>
	<path class="st3" d="M318.8,248.5c-5.6-3.1-11.8-5.3-17-4c-5.5,1.4-6.3,8.5-1.6,11.7c1.6,1.1,2.8,2.8,3.8,4.5
		c1.9,3.7,6.7,4.8,9.9,2.1c1.4-1.2,2.9-2.3,4.6-3.1C322.9,257.4,323.2,251,318.8,248.5z"/>
	<path class="st3" d="M392.3,295.8c-4.1-5.3-9.1-9.9-14.6-10.4c-5.3-0.5-8.2,5.7-5.4,10.1c1.1,1.7,1.5,3.7,1.7,5.7
		c0.3,4.2,4.2,7.1,8.2,5.9c1.7-0.5,3.6-0.9,5.5-1C392.8,305.8,395.4,299.9,392.3,295.8z"/>
	<path class="st3" d="M261.7,226.4c-2.7-1.3-5.5-2.3-8.1-2.6c-6.3-0.7-9.3,6.8-4.7,11.2c0.7,0.7,1.3,1.5,1.8,2.4
		c1.9,3.2,6.4,4,9.3,1.6c0.7-0.6,1.5-1.1,2.2-1.6C266.4,234.8,266.1,228.5,261.7,226.4z"/>
	<circle class="st5" cx="542.7" cy="268.3" r="1.4"/>
	<path class="st1" d="M224.5,458.8c0,0,9.5-57.4,24.3-26.7C257.2,462.9,246.1,458.8,224.5,458.8z"/>
	<path class="st1" d="M421.2,458.8c0,0,9.5-57.4,24.3-26.7C453.8,462.9,442.7,458.8,421.2,458.8z"/>
</g>
</svg>
