<svg xmlns="http://www.w3.org/2000/svg" viewBox="0 0 600 600"><defs><style>.cls-1{fill:#abd1ad;}.cls-2{fill:#272525;}.cls-3{fill:#ffe477;}</style></defs><title>jTriceratops</title><g id="Layer_17" data-name="Layer 17"><path class="cls-1" d="M569.78,234.35l-60.23,19.58c-7.34-3.79-12.5-6.08-12-7.62,20.07-62.77-49-115.9-85.51-124.74-65.67-15.91-108.37,22.75-112,64.5v.07c0,.14,0,.3,0,.44,0,.51-.08,1-.11,1.56s-.08,1.23-.08,1.84c0,.31,0,.64,0,1s0,.64,0,1c0,.79,0,1.58.05,2.38,0,.63.05,1.27.09,1.9s.07,1,.11,1.55c-8-.25-19.68-1.08-29.47-1.14a84,84,0,0,0-12.36.59,215.65,215.65,0,0,0-26.31,5.51q-5.28,1.47-10,3.19A95.27,95.27,0,0,0,194,221.14c-1.84,1.46-3.58,3-5.24,4.56-9.2,8.72-16.13,19.09-23.26,31.07-2.81,4.73-5.66,9.72-8.69,15-4.9,8.48-10.29,17.61-16.82,27.36a53.94,53.94,0,0,1-4.75,6.16c-38.78,43.5-105-37.51-105-37.51C47.46,368.05,82.73,390.09,130.88,408.66c9.15,3.53,18,6.4,26.48,8.8,0,0,59.3,10.73,137.47,10.73,82.11,0,113.15-37.68,113.15-37.68,8.22-17,11.54-32.8,33.1-28.73,43.7,8.24,101-.63,109.73-31.35,5.19-18.26,2.76-32.5-3.25-43.69Z"/><circle class="cls-2" cx="456.76" cy="283.4" r="15.68"/><path class="cls-3" d="M231.86,202.71a215.65,215.65,0,0,1,26.31-5.51,84,84,0,0,1,12.36-.59c-7.72,21-22.27,40.19-31.49,37.23C232.29,231.66,230.17,218.21,231.86,202.71Z"/><path class="cls-3" d="M221.88,205.9c1.19,15.55-1.37,28.89-8.17,30.85-5.74,1.66-13.21-5.17-19.76-15.61A95.27,95.27,0,0,1,221.88,205.9Z"/><path class="cls-3" d="M191.16,225.7c4,19.86,2.39,39.85-6,42.4-4.94,1.51-11.29-3.3-17.26-11.33C175,244.79,182,234.42,191.16,225.7Z"/><path class="cls-3" d="M142.4,299.08c6.52-9.75,11.91-18.88,16.82-27.36,4.09,20,2.5,40.2-5.94,42.77-4.49,1.36-10.15-2.5-15.63-9.25A56.31,56.31,0,0,0,142.4,299.08Z"/><rect class="cls-1" x="208.05" y="381.24" width="57.02" height="99.71" rx="28.51"/><rect class="cls-1" x="152.06" y="381.24" width="57.02" height="99.71" rx="28.51" transform="translate(163.42 -35.98) rotate(20.62)"/><rect class="cls-1" x="302.73" y="381.24" width="57.02" height="99.71" rx="28.51"/><rect class="cls-1" x="361.64" y="383.33" width="57.02" height="99.71" rx="28.51" transform="translate(-110.98 135.31) rotate(-17.26)"/></g></svg>