<svg id="Layer_1" data-name="Layer 1" xmlns="http://www.w3.org/2000/svg" viewBox="0 0 599.8 599.8"><defs><style>.cls-1{fill:#933;}.cls-2{fill:#c66;}</style></defs><title>trinisaura-b</title><path class="cls-1" d="M258.79,415.23,260,417a15.6,15.6,0,0,0,21.38,3.93l27-18.68a15.23,15.23,0,0,0,4.18-20.64h0l-51.85-75.19L228.07,329l41.53,60.2-6.88,4.91A15.31,15.31,0,0,0,258.79,415.23Z"/><path class="cls-2" d="M187,402.7l-.25,2h0a13.16,13.16,0,0,0,12,14l28,2.21a13.2,13.2,0,0,0,14-11.3h0l6.39-77.41-33.91-2.95-5.16,62.17L201,390.9A12.79,12.79,0,0,0,187,402.7Z"/><path class="cls-2" d="M141.82,312.27l3-.74a9.75,9.75,0,0,1,11.55,7.37l10.57,49.39a9.75,9.75,0,0,1-7.38,11.55l-2.94.74A9.75,9.75,0,0,1,145,373.21l-10.57-49.4A9.5,9.5,0,0,1,141.82,312.27Z"/><path class="cls-2" d="M588.57,187.68s-150.64,42-212.81,78.88-84.29,42-95.84,58c-11.55,15.73-45.21,15.73-80.1,14.75S108.16,345.69,96.61,314c-8.36-9.59-28.51-30.48-26.3-44.24-15.72,3.2-46.44,3.2-51.6,1l-5.16-2.22,10.57-6.38-11.55-3.2s22.11-39.07,68.56-30.47C96.85,240,101,246.41,104.22,263.12c11.55,5.16,9.59,6.39,45.22-3.2,36.86-7.37,83.3-1,83.3-1s36.86,3.2,53.82,0,54.8-8.35,110.58-26.29S573.82,171.71,588.57,187.68Z"/><circle cx="50.16" cy="241.49" r="4.67"/></svg>