<?xml version="1.0" encoding="utf-8"?>
<!-- Generator: Adobe Illustrator 23.0.1, SVG Export Plug-In . SVG Version: 6.00 Build 0)  -->
<svg version="1.1" id="Layer_1" xmlns="http://www.w3.org/2000/svg" xmlns:xlink="http://www.w3.org/1999/xlink" x="0px" y="0px"
	 viewBox="0 0 599.8 599.8" style="enable-background:new 0 0 599.8 599.8;" xml:space="preserve">
<style type="text/css">
	.st0{fill:#993333;}
	.st1{fill:#CC6666;}
</style>
<title>trinisaura-b</title>
<path class="st0" d="M338.4,394.1l-6.9-4.9l41.5-60.2l-32.6-22.6l-51.9,75.2l0,0c-4.4,6.9-2.5,16,4.2,20.6l27,18.7
	c7,4.7,16.5,2.9,21.4-3.9l1.2-1.8C347,408.3,345.3,398.9,338.4,394.1z"/>
<path class="st1" d="M414.1,402.4c-0.7-7-6.9-12.2-14-11.5l-7.1,0.5l-5.2-62.2l-33.9,3l6.4,77.4l0,0c1,6.9,7.1,11.8,14,11.3l28-2.2
	c7.1-0.6,12.5-6.8,12-14l0,0l-0.3-2C414.1,402.6,414.1,402.5,414.1,402.4z"/>
<path class="st1" d="M459.7,312.4c5.1,1.2,8.2,6.4,7,11.5l-10.6,49.4c-1.2,5.2-6.4,8.5-11.6,7.4l-2.9-0.7c-5.2-1.2-8.5-6.3-7.4-11.5
	l10.6-49.4c1.2-5.2,6.3-8.5,11.6-7.4l3,0.7C459.4,312.3,459.6,312.3,459.7,312.4z"/>
<path class="st1" d="M204,232.6c55.8,17.9,93.6,23.1,110.6,26.3s53.8,0,53.8,0s46.4-6.4,83.3,1c35.6,9.6,33.7,8.4,45.2,3.2
	c3.2-16.7,7.4-23.1,23.1-34.6c46.5-8.6,68.6,30.5,68.6,30.5l-11.5,3.2l10.6,6.4l-5.2,2.2c-5.2,2.2-35.9,2.2-51.6-1
	c2.2,13.8-17.9,34.6-26.3,44.2c-11.5,31.7-68.3,24.3-103.2,25.3s-68.6,1-80.1-14.8c-11.5-16-33.7-21.1-95.8-58
	S12.6,187.7,12.6,187.7C27.3,171.7,148.2,214.7,204,232.6z"/>
<circle cx="551" cy="241.5" r="4.7"/>
</svg>
