<svg xmlns="http://www.w3.org/2000/svg" viewBox="0 0 600 600"><defs><style>.cls-1{fill:#94ad38;}.cls-2{fill:#b1c167;}.cls-3{fill:#272525;}</style></defs><title>jTyrannosaurus</title><g id="Layer_17" data-name="Layer 17"><path class="cls-1" d="M145.66,554.57C275.22,581.74,332,540,381.38,509.89c66.22-40.41,108-101.27,84.93-83.58-40.22,30.9-45.29,33.4-116.86,67.62a257.67,257.67,0,0,1-34.51,13.83L285.59,446c17.8-14,36.82-39.2,26.09-66.43-16.86-42.82-8.89-62.1,21.81-61.29,12.53.33,23.88,12.78,22.38,21.54-6.39,37.25,10.09,49.89,29.1,47.9,13.5-1.42,15-32.82,10.44-43.17l-23.7-70.8c7.92-20.52,22.67-70.58,22.67-70.58s52.16,10.35,79.82,16c18.34,3.72,36.31.15,40.28-9.4,7.22-17.34-27.84-36-37.31-38.5-8.52-2.24-8.81-12.61,0-12.61,0,0,53.44.91,57.6,0,20.39-4.44,14.16-48.38-4.33-53-25.65-6.42-100.5-93.84-168-62.11-80.36,37.79-52.69,75-88.53,126.24-15.71,22.44-125.06,12.82-192.39,128.26S76.19,540,145.66,554.57ZM224,478.08,264,513.18c-19.7-2.9-35.84-12-54.17-22.74C197.38,483.21,206.72,481.28,224,478.08Z"/><circle class="cls-2" cx="204.7" cy="273.15" r="15.97"/><circle class="cls-2" cx="148.32" cy="275.99" r="23.95"/><circle class="cls-2" cx="108.41" cy="363.8" r="23.95"/><circle class="cls-2" cx="164.29" cy="339.85" r="15.97"/><circle class="cls-3" cx="458.22" cy="99.37" r="15.97"/></g></svg>