<svg id="Layer_1" data-name="Layer 1" xmlns="http://www.w3.org/2000/svg" viewBox="0 0 599.8 599.8"><defs><style>.cls-1{fill:#933;}.cls-2{fill:#c66;}</style></defs><title>wintonotitan</title><g id="Wintonotitan"><path class="cls-1" d="M320.71,372.1l1.2,1.64a14.4,14.4,0,0,0,20,3.74l25.56-17.64a14.26,14.26,0,0,0,4-19.43h0l-48.73-70.7L292,290.93l39,56.65-6.58,4.49A14.45,14.45,0,0,0,320.71,372.1Z"/><path class="cls-2" d="M255.39,360.29l-.15,1.79h0a12.27,12.27,0,0,0,11.21,13.31l26.31,2.24a12.25,12.25,0,0,0,13.15-10.76h0l6-72.95-31.69-2.69-4.78,58.45-6.73-.6A12.46,12.46,0,0,0,255.39,360.29Z"/><path class="cls-1" d="M199.63,293.47l3.14.9a10.47,10.47,0,0,1,6.88,13.15L193.5,359.39a10.47,10.47,0,0,1-13.15,6.88l-3.14-.9a10.46,10.46,0,0,1-6.87-13.15l16.14-51.87A10.47,10.47,0,0,1,199.63,293.47Z"/><path class="cls-2" d="M163.31,281.22l3.44,1a11.61,11.61,0,0,1,7.77,14.65l-18.09,58.15a11.6,11.6,0,0,1-14.65,7.77l-3.43-1.05a11.6,11.6,0,0,1-7.78-14.64L148.66,289A11.66,11.66,0,0,1,163.31,281.22Z"/><path class="cls-2" d="M36.85,304.38c-25.56,11.51-11.51,17.94-11.51,17.94s15.25-9.71,30.05-14.8,33.93-3.88,53.81,1.35,37.07,16.74,49.92,26.31,58.3-9,103.14-14.8,97.46-28.85,100.6-40.36c34.68-24.37,78.93-20.48,100.6-20.48s85.65,11.06,110.77,14.8S584.54,264,584.54,264c-6.43-.6-26.91-7-65.32-19.89-38.42-12.7-55.16-13.45-98.06-18.53s-48.73-5.68-118.54-3.14-85.8,9.57-103.73,16-23.77,22.43-42.31,29.45-37.82-17.34-60.83-14.8c-23.17,2.54-34.68-9.56-64.13-6.42s-15.4,16.59-15.4,16.59a93,93,0,0,0,25,3.88C54,267.16,56,272.25,56,272.25S62.41,292.72,36.85,304.38Z"/><circle cx="67.64" cy="259.54" r="4.93"/></g></svg>