<svg id="Layer_1" data-name="Layer 1" xmlns="http://www.w3.org/2000/svg" xmlns:xlink="http://www.w3.org/1999/xlink" viewBox="0 0 103.82 103.47"><defs><style>.cls-1,.cls-4{stroke:#633815;}.cls-1,.cls-2,.cls-4{stroke-miterlimit:10;}.cls-1{fill:url(#linear-gradient);}.cls-2{fill:#d3f850;stroke:#ad7e48;}.cls-3{fill:url(#linear-gradient-2);}.cls-4{fill:#fff;stroke-width:2px;}</style><linearGradient id="linear-gradient" x1="1.43" y1="52.11" x2="101.43" y2="52.11" gradientUnits="userSpaceOnUse"><stop offset="0" stop-color="#633815"/><stop offset="0.7" stop-color="#8a6a4f"/></linearGradient><linearGradient id="linear-gradient-2" x1="11.43" y1="52.11" x2="91.43" y2="52.11" gradientUnits="userSpaceOnUse"><stop offset="0" stop-color="#9ccd19"/><stop offset="1" stop-color="#b6e233"/></linearGradient></defs><title>btn-food</title><circle class="cls-1" cx="51.43" cy="52.11" r="50"/><circle class="cls-2" cx="51.43" cy="52.11" r="45"/><circle class="cls-3" cx="51.43" cy="52.11" r="40"/><path class="cls-4" d="M47.73,58.77c2.94-1.49,4.91-4.68,4.91-10.55V29a1.37,1.37,0,0,0-1.37-1.36,1.44,1.44,0,0,0-1.45,1.44V46.89a1.46,1.46,0,0,1-2.91,0V29.07a1.43,1.43,0,0,0-1.44-1.44h0A1.43,1.43,0,0,0,44,29.07V46.89a1.46,1.46,0,0,1-2.91,0V29.07a1.44,1.44,0,0,0-1.45-1.44h0a1.44,1.44,0,0,0-1.44,1.44V46.89a1.46,1.46,0,0,1-2.91,0V29.07a1.44,1.44,0,0,0-1.44-1.44A1.37,1.37,0,0,0,32.46,29V48.22c0,5.87,2,9.06,4.91,10.55a6.48,6.48,0,0,1,3.5,6.4L38.45,89.93a39.66,39.66,0,0,0,8.39,1.91L44.23,65.17A6.48,6.48,0,0,1,47.73,58.77Z"/><path class="cls-4" d="M69.45,67.83V29.36a1.73,1.73,0,0,0-1.74-1.73A1.85,1.85,0,0,0,65.92,29l-6,21a21.41,21.41,0,0,0,2.94,18,1.89,1.89,0,0,0,1.56.82L62.25,90.61a40.13,40.13,0,0,0,8-3.23L68.46,68.82A1,1,0,0,0,69.45,67.83Z"/></svg>