<svg id="Layer_1" data-name="Layer 1" xmlns="http://www.w3.org/2000/svg" xmlns:xlink="http://www.w3.org/1999/xlink" viewBox="0 0 103.82 103.47"><defs><style>.cls-1,.cls-4{stroke:#633815;}.cls-1,.cls-2,.cls-4{stroke-miterlimit:10;}.cls-1{fill:url(#linear-gradient);}.cls-2{fill:#d3f850;stroke:#ad7e48;}.cls-3{fill:url(#linear-gradient-2);}.cls-4{fill:#fff;stroke-width:2px;}</style><linearGradient id="linear-gradient" x1="2.25" y1="51.11" x2="102.25" y2="51.11" gradientUnits="userSpaceOnUse"><stop offset="0" stop-color="#633815"/><stop offset="0.7" stop-color="#8a6a4f"/></linearGradient><linearGradient id="linear-gradient-2" x1="12.25" y1="51.11" x2="92.25" y2="51.11" gradientUnits="userSpaceOnUse"><stop offset="0" stop-color="#9ccd19"/><stop offset="1" stop-color="#b6e233"/></linearGradient></defs><title>btn-desc</title><circle class="cls-1" cx="52.25" cy="51.11" r="50"/><circle class="cls-2" cx="52.25" cy="51.11" r="45"/><circle class="cls-3" cx="52.25" cy="51.11" r="40"/><path class="cls-4" d="M71.86,54.37c-3.55-1.64-7.28,1.08-9.76,3.11-1.79,1.47-5.91,5.16-8.66,5.66A1.89,1.89,0,0,1,51.09,62c0-2.31.2-2.31,3.13-5.06s8.71-7.71,11.18-9.49A9,9,0,0,0,67.62,42,10.73,10.73,0,0,0,73,32.85a8.4,8.4,0,0,0-.28-2.07c-2.93-1.24-10.44,1.15-10.9,5.06C57.32,35.39,54,41,54,41s-8.36,10.88-11.5,11.61a.92.92,0,0,1-.76-.09c-2.2-1.59-2.2-3.36,1.62-8.06s6.74-7,5.94-12.86c1.65-2,2.47-6,2.21-8.76a3.58,3.58,0,0,0-1.15-2.77c-1.89-1.17-9.22,3.81-9.31,7.8-3.1.8-4.61,3.82-5.94,8.34-4.49,8-3.84,6.47-4.49,10.2S29.39,65,30,68.3a4.7,4.7,0,0,0,.12.51,6.46,6.46,0,0,0,2.64,3.57,1.63,1.63,0,0,0,.7.42,6.27,6.27,0,0,0,3,.73c2.66-.09,19.07-.58,20.75-.73C62.1,71,67.78,67.76,72,66.61a13.13,13.13,0,0,0,3.54-4.19c3.37-.7,6.44-3.08,7.59-7.84A15.7,15.7,0,0,0,83.48,53C78.25,50.56,75.14,52.42,71.86,54.37Z"/></svg>