<svg id="Layer_1" data-name="Layer 1" xmlns="http://www.w3.org/2000/svg" viewBox="0 0 472.5 426.21"><defs><style>.cls-1{fill:#f6d2b4;stroke:#000;stroke-miterlimit:10;stroke-width:2.06px;}.cls-2{fill:#94ad38;}.cls-3{fill:#81992b;}.cls-4{fill:#272525;}</style></defs><title>north-america</title><g id="North_America" data-name="North America"><path class="cls-1" d="M187.68,115s17.51-4.12,25.75,0,7.21,12.36-7.21,15.45S133.09,168.58,112.49,184c0,0-29.87,16.48-47.38,16.48S53.78,216,48.63,224.2s-37.08,44.29-37.08,44.29c-9.27,20.6,7.21,37.08,0,49.44S4.34,364.28,39.36,355C67.17,333.38,82.62,301.45,96,319l1,19.57,26.78,1c12.36-13.39,41.2-60.77,78.28-58.71s57.68,5.15,69,17.51l24.72-20.6s1-16.48,0-23.69.45-41.2.45-41.2c16-12.36,39.74-44.29,35.6,2.06h22.66l29.87-27.81,14.42-1c27.81-12.36,58.26-43.26,58.26-43.26l7.66-24.72H430.27c-10.82-16.48-17-33-28.33-29.87l-1-11.33c19.57,0,20.6-19.57-25.75-8.24L369,59.4s-37.08,23.69-77.25,5.15c-55.62,15.45-73.13,31.93-81.37,33s-26.78-1-26.78-1C171.2,109.87,187.68,115,187.68,115Z"/></g><path class="cls-2" d="M260.82,184.61v6.89c0,.13,0,.26,0,.39A12.85,12.85,0,0,1,248,204.35v9.16h1.72a4.56,4.56,0,0,1,4.56,4.56h-8.62a4.83,4.83,0,0,1-4.83-4.83V176.08Z"/><path class="cls-2" d="M296.15,133.52H279.71l4.81,5.11h11.42L293,145.14H274.54l-.2,17.66a24.79,24.79,0,0,1-24.78,24.51h-6.19l-5.07.14-15,.42a40.74,40.74,0,0,1-24.81,30.2l2.36-3.53a34.49,34.49,0,0,0,5.82-19.16,48.12,48.12,0,0,1,48.11-48.12l4-17a12.89,12.89,0,0,1,12.54-9.91,12.57,12.57,0,0,1,2,.16,13.73,13.73,0,0,1,2,.48l20.75,6.83v5.68Z"/><path class="cls-2" d="M243.37,183.36v8.14a12.85,12.85,0,0,1-12.85,12.85h0v9.16h1.71a4.58,4.58,0,0,1,4.57,4.57h-8.62a4.84,4.84,0,0,1-4.83-4.84V202a5.52,5.52,0,0,1,2.21-4.42l5-3.72-3.38-2.14a11.81,11.81,0,0,1-.42-19.68h0l4.49-.24A11.54,11.54,0,0,1,243.37,183.36Z"/><path class="cls-3" d="M268.56,167.59a1.49,1.49,0,0,0,1.49-1.5v-3.28a1.49,1.49,0,0,0-1.49-1.5H265.3l2.95-3.87a1.49,1.49,0,1,0-2.37-1.82l-4.79,6.28a1.49,1.49,0,0,0,1.19,2.4h4.79v1.79A1.49,1.49,0,0,0,268.56,167.59Z"/><circle class="cls-4" cx="277.64" cy="127.02" r="1.75"/></svg>