<?xml version="1.0" encoding="utf-8"?>
<!-- Generator: Adobe Illustrator 23.0.3, SVG Export Plug-In . SVG Version: 6.00 Build 0)  -->
<svg version="1.0" id="Layer_1" xmlns="http://www.w3.org/2000/svg" xmlns:xlink="http://www.w3.org/1999/xlink" x="0px" y="0px"
	 viewBox="0 0 50 50" style="enable-background:new 0 0 50 50;" xml:space="preserve">
<style type="text/css">
	.st0{fill:#010101;}
</style>
<path class="st0" d="M46.47,18.93c-0.65-2.39-4.56-2.28-4.56-2.28H8.57c0,0-4.56,0.87-4.67,3.15c-0.11,2.28,1.74,0.87,1.85,3.48
	c0.11,2.61,2.06,7.82,5.97,8.14c3.91,0.33,7.28,1.09,9.99-3.26c2.71-4.34,2.39-6.52,2.39-6.52h2.39c0,0,0.54,9.22,9.01,10.04
	s9.67-6.46,9.77-9.6C45.28,22.08,47.13,21.32,46.47,18.93z M22.36,23.38c-0.65,4.78-4.89,6.78-8.25,6.73
	c-4.4-0.07-6.52-5.4-6.52-7.17c-0.8-5.79,5.02-4.67,6.79-4.67C16.15,18.28,23.56,18.93,22.36,23.38z M36.83,30.11
	c-4.6,0.7-8.28-4.1-8.28-6.95c-0.65-4.97,5.43-4.97,8.28-4.97c2.85,0,6.28,1.26,6.28,4.1S41.87,30.18,36.83,30.11z"/>
</svg>
