<svg xmlns="http://www.w3.org/2000/svg" viewBox="0 0 472.5 426.21"><defs><style>.cls-1{fill:#f6d2b4;stroke:#000;stroke-miterlimit:10;}</style></defs><title>cretaceous</title><g id="Africa"><path class="cls-1" d="M174,156.93c-5,4.2-2.5,12-13,11-5.19,4.27-2.38,21-5.19,26s-5.3,24.5,11.19,25.5,44-6.5,33.5,59.5l-1.5,7.5,3.83,5.5,2.67,12,16,18c6,9.5,15.5-2.5,15.5-2.5l21.75-15.5c5.25-13,6.75-24.5,11.25-27.5,3-11-3.5-33.5,34-49,11.5-5.5,6.5-17.5-13.5-9,1-6,14-8.5,24-8,13.5-8.5,14.63-21-6.68-23.5-6.32-12.05-28.76-24.5-41.54-21.5s-11.28,2.5-19.78,1.5-8.5-4.5-22.5-12S187,145.93,174,156.93Z"/><circle class="cls-1" cx="312.75" cy="234.35" r="4.92"/><path class="cls-1" d="M292,249.93c6-.79,15-4.5,11,11l-11,7v13c-7,10-13.5-4.5-12.5-15S282.79,251.15,292,249.93Z"/></g><g id="Australia"><path class="cls-1" d="M356,325.59v14.84c-10.5-10-13-9-18-18.5h-7.07c-5.43,4.5-2.67,7.5-6.05,9.25-1.78,6.25,10.6,7.25,10.6,7.25,3,6.5,5,6,10,5,1.5,6.11,13.89,13,20.2,9.5,0,0,12.23,9.07,1.52,15.54s-7,14.33-2.1,12.65,43.88-24,63.38-31.58c20-9.11,25.41-14.71,28-13.11,6.3,3.9,29-63.23-52.4-24.5l-21.43.5C374.51,317.43,366,329.25,356,325.59Z"/></g><g id="Antarctica"><path class="cls-1" d="M174.29,344.93H163.2c-11.19,10-4.19,26-4.19,26.25s2,24.75,2,24.75c31,5,129.2,10,162.1-2.5l7.83-9.5,16.07.5c5-5,4-16.43,15.5-16,9.5-6.54,1.5-17-10-16.54-7-1.5-10-2-14-7H297l-5.3-4.5c-9.2,8-17.64,18.5-25.42,6-7.53,3.11-5.78,10-19.78,7.5s-21-5-29.75,12.25C192.51,368.43,174.51,384.93,174.29,344.93Z"/></g><g id="South_America" data-name="South America"><path class="cls-1" d="M78,196.93s-19,3.5-30,0c-12.5,6-9.5,8.5-7.5,12.5s1,29.85,1,29.85C52,257.31,78,280.93,78,280.93s1.5,9.5,2.5,13.5c3.5,9,24.5,28,32.5,42,13.5,13.5,38.5,15,45.5,11.5s15.5-12,0-13c-2.69-9.34-17.29-9.34-17.29-9.34-2.71-14.16-7.71-25.66-4.21-39.16s4.05-27.5.78-31l-.28-11.5c7-5,8.5-15.5-.5-18.5H123.76l-23.25-18.5c-5.5,0-15.5,6-16,0S83.36,196.15,78,196.93Z"/></g><g id="Euroasia"><path class="cls-1" d="M258.76,29.93H303c14.5,5.5-1.3,8,20.1,7,9.4,2.5,15.4,9,21.4,9.5a90.79,90.79,0,0,0,12.5,0s7,6,11.5,7,11,3,12,7c5.5,4,39.5,43.5,39.5,43.5,11.5,4,15,20.5,21.5,27,8.5,11-4,9.5-12,0,1.5,7.7,0,17-1,21a12.42,12.42,0,0,1-10.5,9c2,11.27-.5,12.5-13,13.5s-31,0-31,0c-4.5-9.5,3.5-16.5-16-17s-38,0-38,0c-3.5,18-43.5,9.5-43.5,9.5-6.5-6-19.5-11.5-30-11-6-1-7.5-3-13-.5a9.63,9.63,0,0,1-9.5-.5v-6.5l-14-1v-7h-5c-1,6-3,6.5-8.5,7-5.5,4.5-10,8.5-17,3.5s-7.5-12,2-16.5c7.5-8,1.06-6.5-8.22-10-4.28-10-1.28-15.5,5.22-15.5L191,97.43h12.5c8.5-10,14.5-15.5,23-15.5-1.14-9.31,7.06-8.5,3.28-13.5l3.72-12c9-8,16-10,25.25-5,4.75-5,12.28.5,3.77-12.5C262.53,38.93,253,33.43,258.76,29.93Z"/><path class="cls-1" d="M348,206.93h20c11,9,12,15.5,32,21,10.5,9.36-4.5,26.5-20,37-15,4.5-24.5,4-24.5,4l-11.5,12h-7.5c0-6.5,3-7.5-4-8-5-8.5,3.5-16.5,3.5-16.5l.5-7.5S345.51,235.43,348,206.93Z"/></g><g id="North_America" data-name="North America"><path class="cls-1" d="M99,54.93s8.5-2,12.5,0,3.5,6-3.5,7.5-35.5,18.5-45.5,26c0,0-14.5,8-23,8s-5.5,7.5-8,11.5-18,21.5-18,21.5c-4.5,10,3.5,18,0,24s-3.5,22.5,13.5,18c13.5-10.5,21-26,27.5-17.5l.5,9.5,13,.5c6-6.5,20-29.5,38-28.5s28,2.5,33.5,8.5l12-10s.5-8,0-11.5.22-20,.22-20c7.78-6,19.29-21.5,17.28,1h11l14.5-13.5,7-.5c13.5-6,28.28-21,28.28-21l3.72-12H216.76c-5.25-8-8.25-16-13.75-14.5l-.5-5.5c9.5,0,10-9.5-12.5-4l-3-4.5s-18,11.5-37.5,2.5c-27,7.5-35.5,15.5-39.5,16s-13-.5-13-.5C91,52.43,99,54.93,99,54.93Z"/></g></svg>