<svg id="Layer_1" data-name="Layer 1" xmlns="http://www.w3.org/2000/svg" xmlns:xlink="http://www.w3.org/1999/xlink" viewBox="0 0 750 1334"><defs><style>.cls-1{fill:#57c8e8;}.cls-2{fill:#ed3131;}.cls-3{fill:#df1f26;}.cls-4{opacity:0.63;}.cls-5{fill:url(#linear-gradient);}.cls-6{fill:url(#linear-gradient-2);}.cls-7{fill:url(#linear-gradient-3);}.cls-8{fill:url(#linear-gradient-4);}.cls-9{fill:url(#linear-gradient-5);}.cls-10{fill:url(#linear-gradient-6);}.cls-11{fill:url(#linear-gradient-7);}.cls-12{fill:url(#linear-gradient-8);}.cls-13{fill:#439243;}.cls-14{fill:#9e7d51;}.cls-15{fill:#c4c7c8;}</style><linearGradient id="linear-gradient" x1="-706.76" y1="605.28" x2="333.14" y2="605.28" gradientUnits="userSpaceOnUse"><stop offset="0" stop-color="#e0e21f"/><stop offset="1" stop-color="#57c8e8"/></linearGradient><linearGradient id="linear-gradient-2" x1="-924.29" y1="492.81" x2="333.14" y2="492.81" xlink:href="#linear-gradient"/><linearGradient id="linear-gradient-3" x1="1369.48" y1="801.33" x2="338.1" y2="82.03" xlink:href="#linear-gradient"/><linearGradient id="linear-gradient-4" x1="-388.92" y1="696.02" x2="333.14" y2="696.02" xlink:href="#linear-gradient"/><linearGradient id="linear-gradient-5" x1="-21.87" y1="738.08" x2="333.14" y2="738.08" xlink:href="#linear-gradient"/><linearGradient id="linear-gradient-6" x1="466" y1="749.15" x2="494.59" y2="480.58" xlink:href="#linear-gradient"/><linearGradient id="linear-gradient-7" x1="657.39" y1="909.2" x2="396.66" y2="316.45" xlink:href="#linear-gradient"/><linearGradient id="linear-gradient-8" x1="1007.55" y1="932.11" x2="571.94" y2="53.23" xlink:href="#linear-gradient"/></defs><title>ocean</title><rect class="cls-1" x="-593.88" y="-18.43" width="1730.42" height="1337.14"/><g id="coral"><path class="cls-2" d="M278.61,1176.81c12,1.57,21.43,11.7,26,22.87s4.86,23.53,5.25,35.62c.53,16.3.14,34.71-11.43,46.14-3.42,3.29-7.89,6.58-7.89,11.31,0,3.15,2.1,6,4.34,8.28a63.12,63.12,0,0,0,37.59,18.67c15.12,1.84,33.92-5.26,35.76-20.38,1.05-8.28-3.29-16-7-23.53-14.33-29.58-17.22-68,3.82-93.2a301.1,301.1,0,0,1,56.26,10.52c4.73,1.31,9.33,2.76,13.41,5.52,12.88,8.81,14.32,26.95,14.59,42.59,8.94,1.45,15.25-9.07,15.51-18.14s-2.76-18.27-.26-26.95c16.16,3.81,29.57,17.62,32.73,34a19.08,19.08,0,0,0,4.2-18.14c17.75,7.09,36.81,15.38,46.28,31.81,2.63,4.47,4.47,9.59,8.15,13.41s10,5.65,14.06,2.36c5.52-4.47,2.1-13.54-2.5-19.06s-10.64-11.7-8.8-18.66a63.76,63.76,0,0,0,37.07-10.13c2.49-1.57,5.12-3.94,4.47-6.83a6.13,6.13,0,0,0-2.63-3.42c-6.71-5-16-3.94-23.93-1.31s-15.51,6.7-23.79,7.36-17.88-3.68-19.46-12a37.27,37.27,0,0,0,14.6-3c.52-4.6-5-7.36-9.6-7.89-10.39-.92-20.64,3-31,3.55s-22.75-4.73-24.19-15c9.59,3,21-1,26.68-9.34-17.87-3.81-36.41.53-54.55,2.76s-38.25,1.71-52.45-9.85c-2.63-2.11-5.13-5.13-4.86-8.55.52-5.39,7.36-7.23,12.62-7.75l40.35-4.34c14.07-1.45,28.53-3,42.46-.53s27.74,9.6,35.1,21.69c2.37,4,4.08,8.41,7.49,11.7s9.07,4.73,12.62,1.71c4.21-3.68,2.24-10.65-1.18-15.12s-8.15-8.28-8.94-13.8,2.63-10.78,7.1-13.8,10-4.34,15.25-5.52c17.48-4,35.88-8,53.11-3,8.93,2.63,17.35,7.63,26.68,8.28,0-5.65-.13-11.17-.13-16.82s-5.65-15.12-5.39-20.9c.39-7.76,6.83-15.65,14.59-15,4.08.4,7.49,2.89,11,4.87,3.16,1.84,6.71,3.41,10.39,3.41s7.62-1.71,9.2-5c2.5-5-1.18-11.18-6.05-14.07s-10.51-3.94-15.38-6.7c-2.63-1.45-5.12-3.55-5.78-6.31-1.45-6.31,6.18-10.39,9.86-15.78A14,14,0,0,0,638.27,1018a29.73,29.73,0,0,0-4.6,7.36c-3.69,7.63-7.5,15.25-11.18,22.87-2.76,5.66-6.83,6.58-10.65,11.57a44.84,44.84,0,0,1,3.55-21.16c-7.1-5.65-17.74,1.84-20.5,10.52s-1.58,18.27-5.13,26.55c-6.57,15.51-26.55,19.85-43.38,18.93a93.61,93.61,0,0,0,30.63-42.2c2-5.65,3.55-11.43,6.83-16.43,3.95-6,10-10.25,15.65-14.72s11.17-9.73,13.14-16.57-.92-15.64-7.75-17.87c-8.68-2.76-16.57,5.78-20.77,13.93s-8.68,17.75-17.62,19.32c3.55-7.49-6.7-16.16-14.46-12.88s-10,13.94-6.31,21.43c1.84,3.81,4.87,6.83,6.44,10.78,5.66,13.14-6.44,26.68-17.35,36,1.32-5-3.94-10.52-9.07-9.34-8.15,1.84-7.62,13.28-9.33,21.3-2,9.33-9.33,16.82-17.75,21.29s-17.88,6.45-27.34,8.29c-2.1.39-4.6.78-6.31-.66-1.31-1-1.71-3-1.58-4.73.66-9.07,11.83-12.62,20.77-14.07s20.11-5.65,20.11-14.72a39.91,39.91,0,0,0-31.41,4.6,150.54,150.54,0,0,1,44.17-62.31c4.47-3.68,9.72-9.47,6.83-14.46-2.76-4.73-10.25-3.55-14.59-.13-10.25,8-13.93,24-26.16,28.26-2.5-4.47-6-8.94-11.17-10.12s-11.31,2.23-11.18,7.36c.13,3.29,2.5,5.92,3.95,8.94,3.28,6.83,1.18,15-2.5,21.56s-8.94,12.22-12.36,18.93-5.26,14.33-9.33,20.77c-6.18,9.72-17.09,15.77-28.26,18.53s-23,2.5-34.44,2.24c4.86-20.91,10.51-40,22.21-58,6.57-10.12,15.38-19.45,17.35-31.41,1.45-9.2-.92-20.12,5.52-26.82,4.21-4.47,10.92-5.39,16.83-6.83a65.54,65.54,0,0,0,16.17-6.18c3.15-1.71,6.44-4.21,6.44-7.63.13-5.12-6.57-7.49-11.57-6.7s-10.12,3.15-15,1.84a76.25,76.25,0,0,1,34.7-43.51c9.47-5.39,21.3-10,24.32-20.51a43.19,43.19,0,0,0-28,7.1c1.84-7.36,3.81-14.72,5.65-22.08,3.16-12.49,7.89-26.56,19.85-31.16,6-2.37,13-1.58,19.19-3.94s10.92-10.52,6.45-15.25c-2.63-2.76-7-2.76-10.78-2.37a82.21,82.21,0,0,0-31.68,11,109.18,109.18,0,0,1,23.13-52.71c5.26-6.57,11.7-13,12.88-21.29s-6.17-18.28-14.19-15.65c-4.87,1.58-7.36,7-8.68,11.83s-1.84,10.26-5,14.33-10,5.65-13.15,1.71c-1.31-1.58-1.58-3.81-2-5.78-.66-4.21-1.32-8.28-1.84-12.49-.92-6.18-3.94-14.2-10.25-13.67-7.23.66-7.5,11-5.92,18.14a223.93,223.93,0,0,1,.66,94.38c-1.45,6.71-5.66,15-12.36,13.54-4.6-.92-6.7-6.18-7.76-10.65A82,82,0,0,1,429.25,863c.27-4.47.53-9.86-3.15-12.36-3-2-7.36-.79-9.73,1.84s-3.42,6.31-3.94,9.86a63.36,63.36,0,0,0,4.47,34.83c-6.57,5-19.46.93-21.82,8.81-1.58,5.13,3.94,9.73,9.2,10.91s11,.66,15.64,3.42c8.41,5.13,7.63,17.22,5.92,26.82-1.45,8.28-3,16.69-4.47,25-.92,5.13-4.6,12-9.34,9.73a140.9,140.9,0,0,1-.52-23.53c-7.36-3.29-15.25,4.6-16.7,12.49s.79,16-.39,23.92c-.26,1.58-.79,3.29-2.1,4.08-1.06.66-2.37.39-3.68.26l-14.2-2c-3.55,4.6.79,11.3,5.78,14.33s11.31,4.73,14.33,9.73c3.29,5.52,1.05,12.62-1.31,18.66q-4.35,11.25-8.68,22.48a9.06,9.06,0,0,1-2,3.42c-3.29,2.89-8.41-1.18-9.6-5.39s-1.18-9.2-4.47-12.09c-5.39-4.74-14.46,1.7-14.85,8.93s4.47,13.54,8.67,19.33,8.42,12.75,6.71,19.85c-1.45,5.52-6.18,9.46-8.94,14.46-2.63,4.6-3.42,10-5.39,14.72s-5.92,9.6-11.17,10c-8.55.66-13.15-9.73-15.25-18.14-5.92-24.32-11-52.71,5.12-71.91,4.34-5.25,10.65-11.43,7.89-17.61s-12.75-5.65-17.35-.53-5.78,12.23-7.49,18.93-5.26,13.81-11.83,15.78a116.26,116.26,0,0,1,10.78-57.32c3.41-7.23,8.15-14.59,15.77-17.35,4.86-1.84,10.38-1.31,15.38-2.76s10.12-5.78,9.07-10.91a119.17,119.17,0,0,0-27.34,3.16c-3.16-3-2.11-8.55.39-12.1s6.31-6.18,8.94-9.73c4.08-5.65,4.86-13,6.57-19.71,6.71-26,29.32-44.7,40.89-69,2.49-5.12,4.2-11.7.39-15.9-4.21-4.6-12.36-2.63-16.3,2.1s-5.26,11.17-7.1,17.22-5,12.23-10.91,14.46a41.14,41.14,0,0,0-2.37-17.88c-2.36-3.15-7.75-1.44-9.59,2s-1.18,7.62-.92,11.43c1.44,18.54-4.21,36.81-9.86,54.55-3,9.47-6.18,19.07-12.09,27q-1.59-30.16-3.16-60.33c-.26-4.21-.39-8.55,1.32-12.36,2.1-4.86,6.83-7.89,10.25-11.83s5.26-10.65,1.31-14.2a27,27,0,0,0-20.5,7.49c-3.95-6.7,2.63-14.59,9.07-19.06C332,838.84,352.49,831.22,368.26,817c1.58-1.45,3.29-3,3.81-5.13,1.84-5.91-5.91-11-12-9.59s-10.52,6.3-15.12,10.38-10.91,7.76-16.82,5.52a72.42,72.42,0,0,1,5-36.94c-2.36-4.34-9.07-4.6-12.88-1.57s-5.65,8-6.7,12.88a82.57,82.57,0,0,0,.26,37.2c1.71,7.23-8.15,13.93-13.54,18.93-2.24,2.1-5.26,4.47-8.15,3.42-2.5-.92-3.55-3.68-4.21-6.18a169.87,169.87,0,0,1-6.44-34.44c-.13-2.37-.26-4.74.66-6.84,3.42-7.49,17.22-6,18.93-14.06,1.05-5.13-5-9.6-10.26-9.07s-9.59,4.33-13.54,7.88c-5.91-8.15.27-19.19,6.18-27.21S295.3,742.75,289,735c-5.91-7.36-18.8-4.21-23.79,3.68s-3.81,18.27-.92,27.21c-6.18,1.84-10.25-5.78-14.46-10.65-5.13-5.91-14.46-8.41-21-4.2s-7.63,15.38-1,19.58c2.49,1.58,5.52,2,8.41,2.77,17.22,5.25,23,26.29,25.89,44-5.52-5.12-11.69-10.65-19.32-10.78s-15,8.94-10.38,15a36,36,0,0,1,29.18,52.45,194.33,194.33,0,0,1-34.7-23.66C221.16,845.54,215.25,839.5,215,832c-.13-4.33,1.58-8.67,1.32-13s-4.21-9.2-8.28-7.62a8.07,8.07,0,0,0-3.68,3.28c-6.71,9.86-4.87,23-2.9,34.71-6.17-.14-12.48-.14-18.27,2s-11,7-11.7,13c7.36,3,15.78.26,23.8-.26a46.49,46.49,0,0,1,41.67,20.37,52.25,52.25,0,0,0-22.88,3.95c.27,9.33,12.89,12.62,22,10.38s18.27-7.23,27.21-4.2C273,897.86,277.16,909,279.66,919A342.65,342.65,0,0,1,289.12,979a155.19,155.19,0,0,1-30.62-19.59c-3.29-2.76-6.71-5.91-7.1-10.12-.4-3,.92-6,1.71-8.94,1.31-4.73,1.7-9.86-.27-14.33s-6.7-7.88-11.57-7.23c-8.15,1-10.91,11.83-9.07,19.85,1.06,4.21,2.37,9.47-.78,12.23-4.34,3.68-11.31-1.32-16.57.79s-5.52,9.2-4.86,14.72c11,0,22.48.13,32.86,3.81s20.11,11.57,22.88,22.35c-6.45-1.71-13.28-3.55-19.72-1.71s-12.1,8.41-10.12,14.85c13-2,27.07-3.94,38.77,2.11,3.42,1.71,6.71,4.34,7.89,8,.79,2.49.53,5.25.26,7.88-1.31,13.67-2.76,27.35-4.07,41-2.1,20.9,16,35.88,10.78,56.26-9.33-6.44-17.22-14.59-25-22.74l-6.7-7.1c-3-3.16-6-6.44-7.36-10.52-1.84-6.31.92-12.88,3.28-18.93,2.11-5.39,4.08-11.17,2.63-16.82s-7.62-10.26-12.88-8c-8.94,3.81-4.6,19.72-12.75,24.84-.79-11.56-12.88-18.27-20-27.34-9.07-11.57-10.12-27.47-8.55-42.2.4-3.68.92-7.49-.39-11s-5-6.31-8.55-5.26a41.18,41.18,0,0,1-13.14,25c-6.05-28.79-11.83-60.21,1.58-86.36,4.07-8,10.12-15.65,11.17-24.59.79-6.7-3.42-15.25-10.25-14.59-5.79.53-8.68,7.1-10.39,12.49-3,9.33-6,18.8-9.07,28.13a8.26,8.26,0,0,1-1.84,3.55c-3,2.63-7.36-.79-9.86-3.81s-7.36-6.05-10-3,1.32,7.37,4.34,10.26c7.89,7.62,9.6,20.9,3.94,30.23a9,9,0,0,1-4.47,4.08,9.81,9.81,0,0,1-5.12-.13c-22.61-5.79-33.26-32.47-32.87-55.74.13-7.36.92-15-1.84-21.69S94.7,867.5,88,870.65c-5.92,2.89-7.49,10.78-6,17.22s5.13,12.1,6.84,18.4c.79,2.77,1,5.79-.4,8.16-1.84,2.89-5.52,3.68-8.8,4.73A40.84,40.84,0,0,0,58,935.06c10.12,9.47,29.31,2.11,38.78,12.23,2.49,2.63,3.94,6.31,7,8.41s6.58,2.24,9.73,3.55c3.81,1.71,6.57,5.13,9.33,8.28,8,9.73,15.91,19.46,23.93,29.32,4.07,5,8.28,10.78,7,17.09-17.75-1.32-35.1,4.73-51.93,10.77.4-12.09-12.22-22.74-24-20.37,2.89,7.76,5.65,15.64,8.54,23.4a75.86,75.86,0,0,0-39.83,17.35c6.84,7.62,19.19,3.68,28.92.26a137.5,137.5,0,0,1,52.06-7.36l-10.65,23.27c9.33,5.65,20.64-3.68,27-12.62s14.85-19.72,25.63-17.22c3.68.92,6.83,3.29,9.86,5.65,12.22,9.6,24.84,19.72,31.68,33.79a97.74,97.74,0,0,1-46-13.28c-1.45,4.6-2.76,9.33-4.21,13.93a65.59,65.59,0,0,1,20.9,12.75c2.24,2.11,4.61,4.87,3.82,7.89-1.32,5-10.26,8.15-7.1,12.23,4.86,3.94,12.22,1,17-3s9.2-9.33,15.24-10.38c8.15-1.45,15.38,5.12,21.17,11,13.67,14.2,27.47,28.66,36.41,46.14,1.71,3.42.4,5.26-1.71,8.54-20.77,4.34-41.67-7.23-62.83-5.78-9.07.53-18.93,3.42-26.69-1.45-8.54-5.25-10-16.82-9.46-26.81.26-4.21.65-8.55-.79-12.49s-5.39-7.36-9.6-6.44-6.57,5.91-7.1,10.25,0,9.2-2.1,13.15a165.5,165.5,0,0,0-28.92-28.66c-4.07-3.15-10-6.31-14.2-3.29-5.39,3.68-2.49,12,.92,17.62l12.23,20.11c2.76,4.6,5.52,10.52,2.5,14.86s-9.47,3.81-14.2,1.7-9.2-5.52-14.33-5.78c-4.86-.26-9.46,2.24-13.67,4.73-8.68,5.13-17.35,10.12-26,15.25-5.65,3.29-12.09,9.07-9.46,15l28.92-1.58c1.71-.13,3.68-.13,5,1,2,1.84,1,5,.13,7.36A296.66,296.66,0,0,1,59.08,1221c9.33,4.33,20.24-2.63,25.76-11.18s8-18.93,13.81-27.34,17.61-14.33,26.29-8.94c-2.5,9.86-5,19.59-7.63,29.45,6,3.94,14.46,1,19.72-4s8.55-11.7,13.41-17,12.49-9.46,19.19-6.83a95.46,95.46,0,0,1-8.67,21.16,31,31,0,0,0,16.56,2.5c5.39-15.25,14.06-33.13,30.23-34.05a21.44,21.44,0,0,1,13.41,4c3.16,2.36,5.79,6,5.26,10-9.33,7-18.54,14.06-27.87,21-4.34,3.29-8.81,6.71-11.43,11.44s-2.77,11.3.92,15.11,10,3.82,14.46,1.19,7.36-7.49,8.93-12.49c1.45-4.73,2.11-10.12,5.53-13.8,2.49-2.76,6.17-4.08,9.2-6,6.18-4.07,10.12-11,16.43-15s17.22-2,17.61,5.53c.27,6.44-7.75,10.25-9.46,16.56-1.71,6,3.81,12.75,10.12,13.28s12.36-3.95,14.86-9.73,2.1-12.49.26-18.67C275.19,1183.64,276.64,1180.36,278.61,1176.81Z"/><path class="cls-3" d="M558.74,1222.16h.52c-1.18-5.13-2.36-10.12-3.15-15.25a34.78,34.78,0,0,1-6.31,1c-8.28.66-17.88-3.68-19.46-12a37.19,37.19,0,0,0,14.59-3c.53-4.61-5-7.37-9.59-7.89-10.39-.92-20.64,3-31,3.55s-22.74-4.73-24.18-15c9.59,3,21-1.05,26.68-9.33-17.88-3.81-36.41.52-54.55,2.76s-38.25,1.71-52.45-9.86c-2.63-2.1-5.13-5.13-4.86-8.54.52-5.39,7.36-7.23,12.61-7.76l40.36-4.34c14.07-1.44,28.53-3,42.46-.52s27.74,9.59,35.1,21.69c2.36,3.94,4.07,8.41,7.49,11.7s9.07,4.73,12.62,1.7c4.21-3.68,2.24-10.64-1.18-15.11s-8.15-8.28-8.94-13.81,2.63-10.77,7.1-13.8,10-4.34,15.25-5.52c9.86-2.23,20.11-4.47,30.1-5.13a42,42,0,0,0-3.42-8.8c-3.29-6.18-7.75-12.1-9.59-18.8-8.55,3.94-19.07,5.13-28.66,4.6a93.56,93.56,0,0,0,30.63-42.2c1.18-3.28,2.23-6.57,3.41-9.72a9.62,9.62,0,0,0-4.2.65,37.5,37.5,0,0,0-8.55-23.53,3.81,3.81,0,0,1-1.18.27,3.93,3.93,0,0,0,.4-1.32,35.69,35.69,0,0,0-7-6.31c-2.5-1.84-5.52-3.42-8.28-5.26-7.5,3.42-9.73,13.94-6,21.3,1.84,3.81,4.86,6.83,6.44,10.78,5.65,13.14-6.44,26.68-17.35,36,1.31-5-3.94-10.52-9.07-9.34-8.15,1.84-7.63,13.28-9.33,21.3-2,9.33-9.34,16.82-17.75,21.29s-17.88,6.45-27.34,8.29c-2.11.39-4.6.78-6.31-.66-1.32-1-1.71-3-1.58-4.73.66-9.07,11.83-12.62,20.77-14.07s20.11-5.65,20.11-14.72a39.94,39.94,0,0,0-31.42,4.6,150.54,150.54,0,0,1,44.17-62.31c4.47-3.68,9.73-9.47,6.84-14.46-2.76-4.73-10.26-3.55-14.59-.13-10.26,8-13.94,24-26.16,28.26-2.5-4.47-6.05-8.94-11.18-10.12s-11.3,2.23-11.17,7.36c.13,3.29,2.5,5.92,3.94,8.94,3.29,6.83,1.19,15-2.49,21.56s-8.94,12.22-12.36,18.93-5.26,14.33-9.33,20.77c-6.18,9.72-17.09,15.77-28.27,18.53s-23,2.5-34.44,2.24c4.87-20.91,10.52-40,22.22-58,6.57-10.12,15.38-19.45,17.35-31.41,1.45-9.2-.92-20.12,5.52-26.82,4.21-4.47,10.91-5.39,16.83-6.83a65.54,65.54,0,0,0,16.17-6.18c3.15-1.71,6.44-4.21,6.44-7.63.13-5.12-6.57-7.49-11.57-6.7s-10.12,3.15-15,1.84a76.31,76.31,0,0,1,34.71-43.51c9.46-5.39,21.29-10,24.32-20.51a43.19,43.19,0,0,0-28,7.1c1.84-7.36,3.81-14.72,5.65-22.08.39-1.58.79-3.16,1.31-4.74a40.47,40.47,0,0,1-4.07.53c-8.41.52-16.56-4.6-20.77-11.83-2.1,4.34-5.52,7.89-10,7S432,891,431,886.56c-.52-2.24-.92-4.6-1.31-6.84a161.2,161.2,0,0,0-17.09,3.81,63.83,63.83,0,0,0,4.21,14.07c-6.58,5-19.46.92-21.83,8.81-1.57,5.12,3.95,9.72,9.21,10.91s11,.65,15.64,3.42c8.41,5.12,7.62,17.22,5.92,26.81-1.45,8.28-3,16.7-4.47,25-.92,5.12-4.61,12-9.34,9.73a139.88,139.88,0,0,1-.52-23.53c-7.36-3.29-15.25,4.6-16.7,12.48s.79,16-.39,23.93c-.27,1.58-.79,3.28-2.11,4.07-1.05.66-2.36.4-3.68.27l-14.19-2c-3.55,4.61.79,11.31,5.78,14.33s11.31,4.74,14.33,9.73c3.29,5.52,1.05,12.62-1.32,18.67l-8.67,22.48a9,9,0,0,1-2,3.41c-3.29,2.9-8.42-1.18-9.6-5.39s-1.18-9.2-4.47-12.09c-5.39-4.73-14.46,1.71-14.85,8.94s4.47,13.54,8.67,19.32,8.42,12.75,6.71,19.85c-1.45,5.52-6.18,9.47-8.94,14.46-2.63,4.6-3.42,10-5.39,14.72s-5.92,9.6-11.18,10c-8.54.65-13.14-9.73-15.24-18.15-5.92-24.31-11.05-52.71,5.12-71.9,4.34-5.26,10.65-11.44,7.89-17.62s-12.75-5.65-17.35-.52-5.79,12.22-7.49,18.93-5.26,13.8-11.84,15.77a116.44,116.44,0,0,1,10.78-57.31c3.42-7.23,8.15-14.59,15.78-17.35,4.86-1.84,10.38-1.32,15.38-2.76s10.12-5.79,9.07-10.91a119.65,119.65,0,0,0-27.34,3.15c-3.16-3-2.11-8.54.39-12.09s6.31-6.18,8.94-9.73c4.07-5.65,4.86-13,6.57-19.72,5.26-20.24,20.11-36.15,31.95-53.5a21.34,21.34,0,0,1-3.42-2.63c-3.81-3.68-6.31-8.81-9.47-13.28-.39,1.32-.65,2.5-1.05,3.82-1.84,5.91-5,12.22-10.91,14.46a41.12,41.12,0,0,0-2.37-17.88c-2.36-3.16-7.75-1.45-9.59,2s-1.18,7.62-.92,11.44c1.44,18.53-4.21,36.8-9.86,54.55-3,9.46-6.18,19.06-12.09,27q-1.59-30.17-3.16-60.34c-.26-4.21-.39-8.54,1.32-12.36,2.1-4.86,6.83-7.88,10.25-11.83,2.36-2.76,3.94-6.83,3.42-10.25a9.33,9.33,0,0,1-1.32,1c-8.15,6.84-17.35,15-27.87,13.67-12.75-1.58-21-16.3-33.78-17.09l-.26.27a36.07,36.07,0,0,1-3.29,9.59,33,33,0,0,1-3-1.71c-3.95,6.84-6.18,15.25-9.47,22.35,4.74-1.31,9.6-2,14.2-.39,9.73,3.28,13.93,14.46,16.43,24.45A342.67,342.67,0,0,1,289.26,979a155.27,155.27,0,0,1-30.63-19.59c-3.29-2.76-6.71-5.91-7.1-10.12-.4-3,.92-6,1.71-8.94,1.31-4.73,1.71-9.86-.27-14.33s-6.7-7.88-11.56-7.23c-8.15,1-10.91,11.83-9.07,19.85,1,4.21,2.36,9.47-.79,12.23-4.34,3.68-11.31-1.32-16.57.79s-5.52,9.2-4.86,14.72c11,0,22.48.13,32.86,3.81s20.12,11.57,22.88,22.35c-6.44-1.71-13.28-3.55-19.72-1.71s-12.09,8.41-10.12,14.85c13-2,27.08-3.94,38.78,2.11,3.41,1.71,6.7,4.34,7.88,8,.79,2.49.53,5.25.27,7.88-1.32,13.67-2.76,27.35-4.08,41-2.1,20.9,16,35.88,10.78,56.26-9.33-6.44-17.22-14.59-25-22.74l-6.7-7.1c-3-3.16-6.05-6.44-7.36-10.52-1.84-6.31.92-12.88,3.29-18.93,2.1-5.39,4.07-11.17,2.62-16.82s-7.62-10.26-12.88-8c-8.94,3.81-4.6,19.72-12.75,24.84-.79-11.56-12.88-18.27-20-27.34-9.07-11.57-10.12-27.47-8.54-42.2.39-3.68.92-7.49-.4-11s-5-6.31-8.54-5.26a41.24,41.24,0,0,1-13.15,25c-3.15-15.12-6.31-30.89-6.57-46.27-5.39,12.88-13,24.05-25.64,28.92,5.26,5.52,5.92,13.8,4.21,21.43a13.69,13.69,0,0,1,1.58,9.07c-1.58-.14-3-.14-4.6-.14-3.16,7.1-7.36,13.94-9.73,21.3a48.37,48.37,0,0,0-1.84,20.77,45.08,45.08,0,0,0,6.18-7.23c6.31-8.94,14.85-19.72,25.63-17.22,3.68.92,6.84,3.29,9.86,5.65,12.23,9.6,24.85,19.72,31.68,33.79a97.77,97.77,0,0,1-46-13.28c-1.44,4.6-2.76,9.33-4.2,13.93a65.8,65.8,0,0,1,20.9,12.75c2.23,2.11,4.6,4.87,3.81,7.89-1.32,5-10.25,8.15-7.1,12.23,4.86,3.94,12.23,1,17-3s9.2-9.33,15.25-10.38c8.15-1.45,15.38,5.12,21.16,11,13.67,14.2,27.47,28.66,36.41,46.14,1.71,3.42.4,5.26-1.71,8.54-20.77,4.34-41.67-7.23-62.83-5.78-9.07.53-18.93,3.42-26.69-1.45-8.54-5.25-10-16.82-9.46-26.81.26-4.21.66-8.55-.79-12.49s-5.39-7.36-9.6-6.44-6.57,5.91-7.09,10.25,0,9.2-2.11,13.15a160.9,160.9,0,0,0-14.06-15.65c-2.89,5.13-3.81,11.7-.27,16.44,1.45,2,3.55,3.28,4.74,5.39,5.78,10.38-15.12,21.16-10.12,31.94,2.36,5.13,9.59,6.44,12.35,11.44,1.71,3,1.45,6.7,1.32,10.12-.14,2.23,0,4.34,0,6.57,2.89-3.81,5.39-7.89,8.67-11.44,4.87-5.39,12.49-9.46,19.19-6.83a95.46,95.46,0,0,1-8.67,21.16,31,31,0,0,0,16.56,2.5c5.39-15.25,14.07-33.13,30.24-34a21.43,21.43,0,0,1,13.4,4c3.16,2.36,5.79,6,5.26,10-9.33,7-18.53,14.06-27.87,21-4.33,3.29-8.8,6.7-11.43,11.44s-2.76,11.3.92,15.11,10,3.82,14.46,1.19,7.36-7.5,8.94-12.49c1.44-4.73,2.1-10.12,5.52-13.8,2.5-2.76,6.18-4.08,9.2-6.05,6.18-4.08,10.12-11,16.43-15s17.22-2,17.62,5.52c.26,6.45-7.76,10.26-9.47,16.57-1.71,6,3.81,12.75,10.12,13.27s12.36-3.94,14.86-9.72,2.1-12.49.26-18.67c-1.18-3.81.26-7.23,2.24-10.65,12,1.58,21.42,11.7,26,22.88s4.87,23.53,5.26,35.62c.53,16.3.13,34.7-11.44,46.14-3.41,3.29-7.88,6.57-7.88,11.3,0,3.16,2.1,6.05,4.34,8.29a63.05,63.05,0,0,0,37.59,18.66c15.12,1.84,33.92-5.26,35.76-20.37,1.05-8.28-3.29-16-7-23.53-14.33-29.58-17.22-68,3.81-93.2a301.09,301.09,0,0,1,56.26,10.51c4.74,1.32,9.34,2.76,13.41,5.52,12.88,8.81,14.33,27,14.59,42.59,8.94,1.45,15.25-9.07,15.52-18.14s-2.77-18.27-.27-26.94c16.17,3.81,29.58,17.61,32.73,34a19.07,19.07,0,0,0,4.21-18.14c17.75,7.1,36.81,15.38,46.27,31.81,2.63,4.47,4.47,9.6,8.15,13.41a18.2,18.2,0,0,0,2.37,2c2.76-3.81,3.94-8.8,4.07-13.67a64.22,64.22,0,0,0-.78-12.35C559.13,1229.91,557.69,1226.1,558.74,1222.16Z"/><path class="cls-2" d="M526.66,1185.48c-7.49.79-14.85,3-22.48,3.29-10.38.52-22.74-4.73-24.18-15,9.59,3,21-1,26.68-9.33-17.88-3.81-36.41.53-54.55,2.76s-38.26,1.71-52.45-9.86c-2.63-2.1-5.13-5.13-4.87-8.54.53-5.39,7.37-7.23,12.62-7.76l40.36-4.34c14.07-1.44,28.53-3,42.46-.52a58.65,58.65,0,0,1,24.84,10.38c-2.89-10.12-.78-21.82,1.71-32.47L505.37,1109a12.62,12.62,0,0,0,1.57-5.66,42.44,42.44,0,0,1-8.15,5.66c-8.41,4.47-17.87,6.44-27.34,8.28-2.1.39-4.6.79-6.31-.66-1.31-1-1.71-3-1.58-4.73.66-9.07,11.84-12.62,20.77-14.07,6.84-1.18,14.86-3.81,18.41-9.07l-3.16-6.7a40.14,40.14,0,0,0-26.55,5.52,139.7,139.7,0,0,1,13.67-27.34c-5.52-4.87-8.68-12.75-6.57-20-4.6,1.44-9.2-2.37-11.44-6.44-.79-1.45-1.44-3-2.1-4.47-3,1.18-5.52,3.68-5.39,7s2.5,5.92,3.94,8.94c3.29,6.84,1.19,15-2.5,21.56s-8.93,12.23-12.35,18.93S445,1100,441,1106.48c-6.17,9.73-17.08,15.77-28.26,18.53s-23,2.5-34.44,2.24c4.86-20.9,10.52-40,22.22-58,6.57-10.12,15.38-19.46,17.35-31.42,1.44-9.2-.92-20.11,5.52-26.82,4.21-4.47,10.91-5.39,16.83-6.83a1,1,0,0,0,.65-.27A33.27,33.27,0,0,1,435,989.49h-11.7a19.54,19.54,0,0,0-5.26-8.81c-1.58,1.71-3.55,2.63-5.78,1.71-.27-2-.4-3.95-.53-5.92a19.31,19.31,0,0,0-15.25-.79c-.65.27-1.18.53-1.84.79-.13,6.31,1.05,12.75,0,18.93-.26,1.58-.79,3.29-2.1,4.08-1.05.65-2.37.39-3.68.26l-14.2-2c-3.55,4.6.79,11.3,5.79,14.33s11.3,4.73,14.32,9.72c3.29,5.52,1.06,12.62-1.31,18.67q-4.33,11.23-8.68,22.48a8.93,8.93,0,0,1-2,3.42c-3.28,2.89-8.41-1.19-9.59-5.39s-1.19-9.21-4.47-12.1c-5.39-4.73-14.46,1.71-14.86,8.94s4.47,13.54,8.68,19.32,8.41,12.76,6.7,19.85c-1.44,5.53-6.18,9.47-8.94,14.46-2.63,4.6-3.41,10-5.39,14.73s-5.91,9.59-11.17,10c-8.54.65-13.15-9.73-15.25-18.14-5.91-24.32-11-52.72,5.13-71.91,4.34-5.26,10.65-11.43,7.89-17.61s-12.76-5.66-17.36-.53-5.78,12.23-7.49,18.93-5.26,13.8-11.83,15.77a116.46,116.46,0,0,1,10.78-57.31c3.42-7.23,8.15-14.59,15.77-17.35,4.87-1.84,10.39-1.32,15.38-2.76s10.13-5.79,9.07-10.91a119.71,119.71,0,0,0-27.34,3.15c-2.1-2.1-2.36-5.26-1.44-8.15-7.63-2.76-15.25-6.83-23-8.8-4.73-1.19-9.86-1.58-14.2.52-.65.4-1.31.79-2,1.18q1,8.49,1.58,17a161,161,0,0,1-20.51-12h-.39c-5.92.13-11,3.81-14.46,8.68,5.65,4.2,10.12,9.85,11.83,16.56-5.52-1.45-11.31-3-17-2.24a100.48,100.48,0,0,0-.92,10.78,17.12,17.12,0,0,0-12.22,3.16,4.74,4.74,0,0,0,.26,1.44c13-2,27.08-3.94,38.78,2.11,3.42,1.71,6.7,4.34,7.89,8,.78,2.49.52,5.25.26,7.88-1.32,13.67-2.76,27.35-4.08,41-2.1,20.9,16,35.88,10.78,56.26-9.33-6.44-17.22-14.59-25-22.74q-3.36-3.56-6.71-7.1c-3-3.16-6.05-6.44-7.36-10.52-1.84-6.31.92-12.88,3.29-18.93,2.1-5.39,4.07-11.17,2.63-16.82s-7.63-10.26-12.89-8c-8.94,3.81-4.6,19.72-12.75,24.84-.65-10.78-11.43-17.48-18.66-25.76a75.08,75.08,0,0,0-3.16,9.2c-3,1.05-6.18,2-9.2,3a40.14,40.14,0,0,1,2.63,10.13A63,63,0,0,1,211,1071c-3-.13-5.91-.4-8.81-.66a33.1,33.1,0,0,1-.92,3.55l-11.83,2.36c6.58,4.61,10.52,11.57,12.89,19.33,2.62-2.1,5.39-4,8.54-4.47,8.15-1.45,15.38,5.13,21.16,11,13.68,14.2,27.48,28.66,36.42,46.14,1.71,3.42.39,5.26-1.71,8.55-18.93,3.94-38.12-5.39-57.45-5.92a16.15,16.15,0,0,0,1.45,4.21c1.84,3.94,5.39,7.49,6.83,11.43a24.91,24.91,0,0,1,4.08,2.24c3.15,2.36,5.78,6,5.26,10-8,6-16,12.09-23.93,18,1.71,4.2,6,7.49,7.63,12.09,1.18,3.42.52,7-.4,10.52a28.91,28.91,0,0,0,1.71-4.34c1.45-4.73,2.1-10.12,5.52-13.8,2.5-2.76,6.18-4.08,9.2-6,6.18-4.07,10.13-11,16.44-15s17.22-2,17.61,5.53c.26,6.44-7.75,10.25-9.46,16.56-1.71,6,3.81,12.75,10.12,13.28s12.35-3.95,14.85-9.73,2.11-12.49.27-18.67c-1.19-3.81.26-7.23,2.23-10.65,12,1.58,21.43,11.7,26,22.88S309.63,1223,310,1235c.52,16.3.13,34.7-11.44,46.14-3.42,3.29-7.89,6.57-7.89,11.31,0,3.15,2.11,6,4.34,8.28a63.05,63.05,0,0,0,37.6,18.66c15.11,1.84,33.91-5.25,35.75-20.37,1.05-8.28-3.28-16-7-23.53-14.32-29.58-17.22-68,3.82-93.2a301.9,301.9,0,0,1,56.26,10.51c4.73,1.32,9.33,2.76,13.41,5.53,12.88,8.8,14.33,26.94,14.59,42.59,8.94,1.44,15.25-9.07,15.51-18.14s-2.76-18.28-.26-27c16.17,3.81,29.57,17.61,32.73,34a19.07,19.07,0,0,0,4.21-18.14c5,2,10,4.08,15,6.44,1.32-6,11-11.43,13.28-18.53C531.13,1195.21,528.9,1190.35,526.66,1185.48Z"/><path class="cls-3" d="M374.7,1183.77c-3.15-11.83-6.18-23.66-9.33-35.49a27.94,27.94,0,0,0-2-5.52c-2.24-3.68-6.31-5.52-10.26-7.36-1.05-.53-2.23-.92-3.28-1.45a10,10,0,0,1-5.92,2.5c-6.18.39-10.25-4.86-12.88-10.91l-9.86-4.34c-9.2-4.07-19.72-8.15-28.92-4.34-.13,4.21-.13,8.42-.26,12.49-3.82,2-7.63,3.81-11.57,5.79a63.82,63.82,0,0,0,1.18,18.66,48.59,48.59,0,0,1-15.38,6.58,168.68,168.68,0,0,1,8.15,48.5,20.17,20.17,0,0,0,1.71-2.89c2.5-5.78,2.1-12.49.26-18.67-1.18-3.81.27-7.23,2.24-10.64,12,1.57,21.43,11.7,26,22.87s4.86,23.53,5.25,35.62c.53,16.3.14,34.71-11.43,46.14-3.42,3.29-7.89,6.58-7.89,11.31,0,3.15,2.1,6,4.34,8.28a63.12,63.12,0,0,0,37.59,18.67c15.12,1.84,33.92-5.26,35.76-20.38,1.05-8.28-3.29-16-7-23.53-14.33-29.58-17.22-68,3.82-93.2C368.26,1183.12,371.42,1183.38,374.7,1183.77Z"/></g><g class="cls-4"><polygon class="cls-5" points="-532.32 1228.98 -706.76 1072.71 333.14 -18.43 333.14 -18.43 -532.32 1228.98"/><polygon class="cls-6" points="-789.17 1004.06 -924.29 812.75 333.14 -18.43 333.14 -18.43 -789.17 1004.06"/><polygon class="cls-7" points="1455.45 1004.06 1590.57 812.75 333.14 -18.43 333.14 -18.43 1455.45 1004.06"/><polygon class="cls-8" points="-179.97 1410.48 -388.92 1304.68 333.14 -18.43 333.14 -18.43 -179.97 1410.48"/><polygon class="cls-9" points="207.34 1494.59 -21.87 1446.48 333.14 -18.43 333.14 -18.43 207.34 1494.59"/><polygon class="cls-10" points="603.23 1475.6 369.37 1488.45 333.14 -18.43 333.14 -18.43 603.23 1475.6"/><polygon class="cls-11" points="980.71 1354.78 758.15 1427.72 333.14 -18.43 333.14 -18.43 980.71 1354.78"/><polygon class="cls-12" points="1314.06 1140.39 1117.96 1268.45 333.14 -18.43 333.14 -18.43 1314.06 1140.39"/></g><path class="cls-13" d="M-54.37,1311.71a11.94,11.94,0,0,0-.85-3.63c-2.54-6.19-12-26.37-31-37.77C-110,1225-110,1225-94.12,1165c24.9-48.67,65.43-38.49,66.67-80.37.49-16.53-8.38-28.66-19.51-40.27-31.45-32.81-35-83.49-7.79-119.88,10.9-14.58,20.09-28.21,20.62-42.48C-33,851.47-68,820.9-27.43,789.21c6.89,28.3-4.43,30.56,17.07,62.26,9.79,14.42,44.51,38,5.65,94.56a71.51,71.51,0,0,0,1.78,83.6C8.68,1045,20.61,1056,23.6,1060.89c12.46,20.37,5.54,63.66-40,110.43-64.41,31.69,3.74,86.54,2.61,117.1l-.76,20.5a12.11,12.11,0,0,1-10.34,11.53l-15.68,2.31a12.11,12.11,0,0,1-13.84-11Z"/><path class="cls-13" d="M-25.09,1355.93a11.92,11.92,0,0,1,.24-3.72c1.46-6.52,7.38-28,24.2-42.43,15.91-48.64,15.91-48.64-9.84-105.12-32.71-43.81-71-27-79.21-68.05-3.26-16.22,3.46-29.65,12.49-43,25.5-37.62,20.51-88.18-12.43-119.49-13.2-12.54-24.54-24.44-27.45-38.42-6.25-29.94,23.16-65.94-22.17-90.38-2.05,29,9.49,29.38-6.39,64.24-7.23,15.86-37.51,44.93,10.29,94.16a71.53,71.53,0,0,1,12.26,82.73c-8.87,17-18.79,29.93-20.92,35.26-8.85,22.17,5.23,63.68,57.92,102.16,68.82,20.45,10.83,85.94,17.07,115.88l4.18,20.08a12.12,12.12,0,0,0,12.13,9.64l15.85-.36a12.1,12.1,0,0,0,11.78-13.21Z"/><path class="cls-13" d="M744.48,1246.16a12.24,12.24,0,0,0-.85-3.63c-2.54-6.18-12-26.37-31-37.77-23.84-45.29-23.84-45.29-7.93-105.28,24.91-48.67,65.43-38.49,66.68-80.37.49-16.53-8.38-28.66-19.52-40.27-31.45-32.81-35-83.49-7.78-119.88,10.9-14.58,20.09-28.21,20.62-42.48,1.13-30.56-33.9-61.13,6.7-92.82,6.88,28.3-4.44,30.56,17.07,62.26,9.79,14.42,44.51,38,5.65,94.56a71.54,71.54,0,0,0,1.77,83.61c11.62,15.31,23.55,26.35,26.54,31.25,12.45,20.37,5.53,63.66-40,110.43-64.41,31.7,3.74,86.54,2.6,117.1l-.75,20.5A12.12,12.12,0,0,1,774,1254.9l-15.69,2.31a12.11,12.11,0,0,1-13.83-11Z"/><path class="cls-13" d="M507.69,1337.83a12.22,12.22,0,0,0-.23-3.72c-1.47-6.52-7.38-28-24.21-42.43-15.9-48.64-15.9-48.64,9.84-105.12,32.72-43.81,71-27,79.21-68,3.26-16.22-3.46-29.65-12.48-43-25.51-37.62-20.52-88.18,12.42-119.49,13.2-12.55,24.54-24.44,27.46-38.42,6.24-29.94-23.17-65.94,22.17-90.38,2,29-9.5,29.38,6.39,64.24,7.23,15.86,37.5,44.93-10.3,94.16a71.55,71.55,0,0,0-12.26,82.73c8.88,17,18.79,29.93,20.92,35.26,8.86,22.17-5.22,63.68-57.92,102.16-68.81,20.45-10.82,85.94-17.07,115.88l-4.18,20.08a12.11,12.11,0,0,1-12.13,9.64l-15.85-.36a12.11,12.11,0,0,1-11.78-13.21Z"/><path class="cls-14" d="M-506.82,1142.68s179,17.26,240,35.85,345.16-4,454-41.16c88.95-33.44,277.46-46.46,395.61-11.95,21.22,3.58,41.26,7.3,59.84,11a750.14,750.14,0,0,0,274.14,3c61.13-10.55,132.32-18.78,190-14l4.54,217.62-1613.64-4.24Z"/><path class="cls-15" d="M165.81,1247.91s37.73-38.57,76.3-17.61,37.72,57.85,37.72,57.85-24.48,20.12-49.55,20.12-82.92-5.87-82.92-16.77S143.55,1263.83,165.81,1247.91Z"/><path class="cls-15" d="M378.84,1131.27s37.73-38.57,76.29-17.61,37.73,57.85,37.73,57.85-24.48,20.13-49.55,20.13-82.92-5.87-82.92-16.77S356.57,1147.2,378.84,1131.27Z"/><path class="cls-15" d="M614.41,1231.88s37.73-38.57,76.3-17.61,37.72,57.86,37.72,57.86-24.48,20.12-49.55,20.12S596,1286.38,596,1275.48,592.15,1247.81,614.41,1231.88Z"/></svg>