<svg id="Layer_1" data-name="Layer 1" xmlns="http://www.w3.org/2000/svg" xmlns:xlink="http://www.w3.org/1999/xlink" viewBox="0 0 750 1334"><defs><style>.cls-1{fill:url(#linear-gradient);}.cls-2{fill:#5cb947;}.cls-3{fill:#4bb649;}.cls-4{fill:#229a48;}.cls-5{fill:#1c9c49;}.cls-6{fill:#a0cc3a;}.cls-7{fill:#2eb04a;}.cls-8{fill:#2ea94a;}.cls-9{fill:#e4df24;}.cls-10{fill:#96c73d;}.cls-11{fill:#147a3e;}.cls-12{fill:#4e8f41;}.cls-13{fill:#017f40;}.cls-14{fill:#60b746;}.cls-15{fill:#8ac53f;}</style><linearGradient id="linear-gradient" x1="353.12" y1="1333.64" x2="353.12" y2="-22.52" gradientUnits="userSpaceOnUse"><stop offset="0.3" stop-color="#e5f2f2"/><stop offset="1" stop-color="#9cc"/></linearGradient></defs><title>launch-screen-bg</title><rect class="cls-1" x="-437" y="-22.52" width="1580.24" height="1356.16"/><path class="cls-2" d="M97.8,270c-7.48,0-15.56-4.64-21-8.53L76,264.39l-1.31,5.24-5.12-1.71c-2.74-.91-67.46-22.8-104.39-62.81l7.34-6.79C1.94,230.15,51.71,250.6,67.68,256.6L69,251.54l2-8.09,6.18,5.6c4.47,4,14.36,11,20.44,11a7.77,7.77,0,0,0,.85-.05,50.1,50.1,0,0,1,1.38-30.06l2.63-6.13,5.15,4.24c.21.17,21.85,17.81,48.64,27.15a73,73,0,0,0,24.08,4,76.75,76.75,0,0,0,15.42-1.57,86.87,86.87,0,0,1-7.88-8.26c-6.25-7.65-33.87-51.18-39.09-62.29-4.12-8.75-42.22-64.61-56.78-85.72C74.64,81.49,57,66.94,39.63,58.14c-13.19-6.67-26.27-10-38.9-10l-1.44,0c-21.95.45-34.9,11-35,11.07l-6.79,5.62-1.34-8.71c-1.71-11.11,2.36-22,6.11-29.15-1.65.35-3.6.79-5.89,1.33C-59,31.89-121,81.06-158.84,113.22l-6.47-7.62c9.83-8.35,96.7-81.73,119.37-87.07,8-1.88,13.31-3.05,16.84-3.05,3.28,0,5,1,6,3.41a5.37,5.37,0,0,1-1.8,6.17c-1.62,2.29-7.53,11.22-9,21.26a75.06,75.06,0,0,1,33-8.21l1.65,0c40.82,0,76.29,30.87,99,57l.19.21.16.23c2.13,3.1,52.42,76.05,57.74,87.37,4.89,10.4,31.93,53,37.79,60.21A97.24,97.24,0,0,0,209.12,256l6.83,5.26-8,3.32c-.68.28-11.66,4.74-27.56,4.74A83.09,83.09,0,0,1,153,264.64c-20-7-37-18-45.59-24.23a42.27,42.27,0,0,0,1.79,20.48l1.06,3.08-2.38,2.22A14.2,14.2,0,0,1,97.8,270Z"/><path class="cls-3" d="M-166.42,111.46s95.13-80.79,117.28-86,16.29-2,16.29-2-13,16.94-10.42,33.88c0,0,56.68-46.91,134.87,43,0,0,52.13,75.58,57.34,86.66s32.58,54.08,38.45,61.25A101.83,101.83,0,0,0,201.72,262s-23.46,9.77-51.47,0-50.17-28-50.17-28a45.65,45.65,0,0,0,0,30.63c-9.78,9.12-30.63-9.78-30.63-9.78l-2.61,10.43S1,243.3-35.45,203.77"/><path class="cls-4" d="M60.45,139s16.81,13.56,22.44,27,11,38.82,11,38.82-1.12-41.44-8.43-49.33-19.14-19.58-19.14-19.58"/><path class="cls-5" d="M52.48,129.06s83.4,42.57,90.79,52.12c-33.45-46-90.79-52.12-90.79-52.12"/><path class="cls-4" d="M-24,104.69S1.4,91,9.22,93l43-1.95c-9.29-9.74-47.3-5.17-54.47-4.52s-36.1,16.25-36.1,16.25"/><path class="cls-6" d="M116.77,174c-3.26-4.56-58.64-43.66-58.64-43.66C-42.21,77.58-138,112.77-138,112.77S-9,95.18,52.27,134.92C67.9,139.48,116.77,174,116.77,174Z"/><path class="cls-7" d="M12.08,118.2s9.13,26.5,9.56,40.83,30.84,72.11,30.84,72.11c-20.85-20-42.57-65.59-41.26-77.32C5.13,123-17.45,112.55-17.45,112.55"/><path class="cls-2" d="M143.62,25.38c-5.08,5.48-14,8.25-20.56,9.62l1.64,2.5L127.64,42l-4.73,2.59c-2.53,1.39-62.59,34-117,33.81l0-10C49.2,68.53,98,46,113.3,38.32L110.45,34l-4.56-7,8.31-.72c6-.53,17.83-3.05,22-7.5a8.49,8.49,0,0,0,.55-.67,50,50,0,0,1-21.1-21.46L112.9-9.47l6.61-.89c.27,0,27.91-3.9,53-17.19a73,73,0,0,0,19.34-14.91,75.83,75.83,0,0,0,9.33-12.38,84.26,84.26,0,0,1-11.41.16c-9.86-.61-60.56-10-72.26-13.69C108.29-71.3,41.42-81.36,16.05-85c-26.39-.82-49,2.19-67.33,9C-65.14-70.95-76.51-63.66-85.1-54.4l-1,1.07c-14.59,16.39-15.7,33-15.7,33.21l-.5,8.8-7.3-4.94c-9.31-6.31-14.5-16.67-17.22-24.31-.86,1.45-1.86,3.18-3,5.22-7.82,13.75-13.89,92.59-16.07,142.23l-10-.44C-155.3,93.56-150-20-138.51-40.29c4.06-7.14,6.81-11.83,9.21-14.42,2.23-2.41,4.16-3,6.56-2a5.37,5.37,0,0,1,3.29,5.51c.58,2.74,3.1,13.16,9.47,21.06A75,75,0,0,1-93.53-60c.36-.41.73-.82,1.11-1.22C-64.66-91.13-17.91-96.15,16.65-95h.28l.28,0c3.73.54,91.41,13.3,103.33,17.09,10.94,3.48,60.6,12.67,69.84,13.24A96.27,96.27,0,0,0,209-65.8l8.5-1.43-3,8.09c-.26.69-4.45,11.78-15.26,23.43a83.58,83.58,0,0,1-22.1,17C158.44-8.78,138.84-3.87,128.41-1.77a42.4,42.4,0,0,0,16.23,12.62l3,1.31v3.25A14.2,14.2,0,0,1,143.62,25.38Z"/><path class="cls-3" d="M-152.32,111.24s5.47-124.69,16.71-144.47S-126-46.51-126-46.51s3.55,21.08,17.75,30.69c0,0,4.16-73.46,123.25-69.63,0,0,90.87,13.19,102.53,16.9s61.81,12.89,71.05,13.47a102.23,102.23,0,0,0,19.78-1.2s-8.79,23.84-35,37.73S118.73-.82,118.73-.82A45.69,45.69,0,0,0,141.18,20c0,13.37-28,15.8-28,15.8l5.87,9S58.22,78.14,4.42,78"/><path class="cls-6" d="M86.14-53.83c-5.56-.71-71.89,13.3-71.89,13.3C-92.69-2.86-132,91.29-132,91.29S-57.19-15.26,13.61-33.13C27.59-41.49,86.14-53.83,86.14-53.83Z"/><path class="cls-7" d="M-26-15S-.35-3.71,10.45,5.72,84.29,32.15,84.29,32.15c-28.83,1.7-77-13.4-84.75-22.33-26.74-16.52-49.75-7-49.75-7"/><path class="cls-2" d="M-45.26,540.75c-54.43-47.89-73.76-94-80.39-124.32A158.48,158.48,0,0,1-128.76,396l-8.75-7.9c-15.2-13.75-28.17-50.07-39.92-87.28-.76-2.42-1.43-4.53-2-6.23-7.23-22.27-11-67.25-9.85-93.68,1.44-33.15,20.92-79.12,21.75-81.07l4-9.45,9.34,4.3c11.89,5.46,116.65,53.85,135,68.81l22.15,18-30.8-.28c23.78,30.61,67.49,89,71.61,109.48l3.94,19.56L23.44,318.73c-.71,18.2-2.3,50.21-5.51,83-2.88,29.5-6.5,54-10.74,72.69-5.71,25.15-12.52,40.12-21.38,46.87l-23.71,25.9Z"/><path class="cls-3" d="M-38.65,533.24C-140.08,444-117,362.26-117,362.26c-10.1.89-13.76,18.45-13.76,18.45-17-15.39-33.57-72.16-39.1-89.19s-10.75-58.45-9.37-90.16,21-77.57,21-77.57,115,52.89,132.92,67.49l-23.09-.21s77.65,97.25,82.56,121.64L14,303.16S9.63,493.3-20.88,513.82Z"/><path class="cls-8" d="M18.47,322.15C-36.74,249.39-84.31,235-84.31,235l7.55,21.53s55,24.52,95.23,65.64"/><path class="cls-8" d="M12.25,402.8c-31.86-70-72.32-88.52-72.32-88.52l1.24,19.63s44.66,28.18,71.08,68.89"/><path class="cls-2" d="M747.38,711c7.48,0,15.56-4.64,21-8.53l.72,2.89,1.31,5.24,5.12-1.71C778.31,708,843,686.12,880,646.11l-7.34-6.79c-29.38,31.83-79.15,52.28-95.12,58.28l-1.26-5.06-2-8.09-6.18,5.6c-4.47,4-14.35,11-20.43,11a7.81,7.81,0,0,1-.86,0,50.1,50.1,0,0,0-1.38-30.06l-2.63-6.13-5.15,4.24c-.21.17-21.84,17.81-48.64,27.15a73,73,0,0,1-24.08,4,76.75,76.75,0,0,1-15.42-1.57,86.87,86.87,0,0,0,7.88-8.26c6.25-7.65,33.87-51.18,39.1-62.29,4.11-8.75,42.21-64.61,56.77-85.72,17.35-19.91,35-34.46,52.36-43.26,13.19-6.67,26.27-10.05,38.9-10.05l1.44,0c22,.45,34.9,11,35,11.07l6.79,5.62,1.34-8.71c1.71-11.11-2.36-22-6.11-29.15,1.65.35,3.6.79,5.89,1.33,15.39,3.62,77.32,52.79,115.19,85l6.47-7.62c-9.83-8.35-96.7-81.73-119.37-87.07-8-1.88-13.31-3-16.84-3-3.28,0-5,1-5.95,3.41a5.37,5.37,0,0,0,1.8,6.17c1.62,2.29,7.53,11.22,9,21.26a75.06,75.06,0,0,0-33-8.21l-1.65,0c-40.82,0-76.29,30.87-99,57l-.19.21-.16.23c-2.13,3.1-52.42,76-57.74,87.37-4.89,10.4-31.93,53-37.79,60.21A97.24,97.24,0,0,1,636.06,697l-6.83,5.26,8,3.32c.68.28,11.66,4.74,27.56,4.74a83.19,83.19,0,0,0,27.49-4.64c20-7,37-18,45.58-24.23A42.37,42.37,0,0,1,736,701.89L735,705l2.38,2.22A14.22,14.22,0,0,0,747.38,711Z"/><path class="cls-3" d="M1011.6,552.46s-95.13-80.79-117.28-86-16.29-2-16.29-2,13,16.94,10.42,33.88c0,0-56.68-46.91-134.87,43,0,0-52.13,75.58-57.34,86.66s-32.58,54.08-38.45,61.25A101.83,101.83,0,0,1,643.46,703s23.46,9.77,51.47,0,50.18-28,50.18-28a45.73,45.73,0,0,1,0,30.63c9.77,9.12,30.62-9.78,30.62-9.78l2.61,10.43s65.81-21.94,102.29-61.47"/><path class="cls-5" d="M792.7,570.06s-83.4,42.57-90.79,52.12c33.45-46,90.79-52.12,90.79-52.12"/><path class="cls-6" d="M728.41,615c3.26-4.56,58.64-43.66,58.64-43.66,100.34-52.78,196.13-17.59,196.13-17.59s-129-17.59-190.26,22.15C777.28,580.48,728.41,615,728.41,615Z"/><path class="cls-2" d="M701.56,466.38c5.08,5.48,14,8.25,20.56,9.62l-1.63,2.5-3,4.52,4.73,2.59c2.53,1.39,62.59,33.95,117.05,33.81l0-10c-43.32.11-92.16-22.47-107.42-30.1l2.85-4.36,4.56-7-8.31-.72c-6-.53-17.83-3.05-22-7.5a8.49,8.49,0,0,1-.55-.67,50,50,0,0,0,21.1-21.46l2.71-6.09-6.61-.89c-.27,0-27.91-3.9-53-17.19a73,73,0,0,1-19.34-14.91A76.42,76.42,0,0,1,644,386.16a84.26,84.26,0,0,0,11.41.16c9.86-.61,60.56-10,72.26-13.69,9.21-2.93,76.08-13,101.45-16.68,26.4-.82,49,2.19,67.33,9,13.86,5.14,25.23,12.43,33.82,21.69l1,1.07c14.59,16.39,15.7,33,15.7,33.21l.5,8.8,7.3-4.94c9.31-6.31,14.5-16.67,17.22-24.31.86,1.45,1.86,3.18,3,5.22,7.82,13.75,13.89,92.59,16.07,142.23l10-.44c-.57-12.88-5.85-126.48-17.36-146.73-4.06-7.14-6.81-11.83-9.21-14.42-2.23-2.41-4.16-3-6.56-2a5.37,5.37,0,0,0-3.29,5.51c-.58,2.74-3.1,13.16-9.47,21.06A75,75,0,0,0,938.71,381c-.36-.41-.73-.82-1.11-1.22-27.76-29.93-74.51-34.95-109.07-33.84h-.28l-.28,0c-3.73.54-91.41,13.3-103.33,17.09-10.94,3.48-60.6,12.67-69.84,13.24a96.27,96.27,0,0,1-18.64-1.14l-8.5-1.43,3,8.09c.26.69,4.45,11.78,15.27,23.43a83.35,83.35,0,0,0,22.09,17c18.74,9.93,38.34,14.84,48.77,16.94a42.4,42.4,0,0,1-16.23,12.62l-3,1.31v3.25A14.2,14.2,0,0,0,701.56,466.38Z"/><path class="cls-3" d="M997.5,552.24S992,427.55,980.79,407.77s-9.65-13.28-9.65-13.28-3.55,21.08-17.75,30.69c0,0-4.16-73.46-123.25-69.63,0,0-90.87,13.19-102.53,16.9s-61.81,12.89-71.05,13.47a102.23,102.23,0,0,1-19.78-1.2s8.79,23.84,35,37.73,54.66,17.73,54.66,17.73A45.69,45.69,0,0,1,704,461c0,13.37,28,15.8,28,15.8l-5.87,9S787,519.14,840.76,519"/><path class="cls-5" d="M835.73,403.73s-87.94-32.2-100-31.11c56.5-6.8,100,31.11,100,31.11"/><path class="cls-9" d="M371.68,879.12a343,343,0,0,1-2.53-62.83c2.47-45.95,14.49-78.67,35.72-97.26l2.33-2,2.86,1.17c11.57,4.72,25.24,35.88,29.15,45.32,8.79,21.19,16.45,47.24,16.36,66.79a50.63,50.63,0,0,0,2.83-4.3,6,6,0,0,1,10.83,1.09c2,5.77,5.18,16.44,4.92,24.36,3.62,12.55,8.18,24.13,10.24,26,0,0-.08-.07-.22-.16L479,885.87c-4.37-2.61-9.31-13.5-14.7-32.36a5.76,5.76,0,0,1-.21-1.94c.2-3.12-.52-7.87-2-13.41a95.82,95.82,0,0,1-10.11,11,5.32,5.32,0,0,1-8.53-6c5.47-13.06.15-42.84-13.55-75.87-8.53-20.56-16.81-33.47-21.37-38.09-42.5,42.24-27.19,147.31-27,148.39Z"/><path class="cls-10" d="M376.77,877S359.64,764,408.31,721.4c14.87,6.08,52.41,92.61,40,122.32a.33.33,0,0,0,.52.37c2.69-2.5,9.45-9.13,14.05-17a1,1,0,0,1,1.79.18c1.57,4.58,5.09,15.8,4.62,23.17a1.24,1.24,0,0,0,0,.27c.58,2,7.67,26.58,12.45,29.43"/><path class="cls-11" d="M433.73,876.05c-11.86-7.21-28.81-136.53-28.81-136.53s-3.89,69,21.23,139Z"/><path class="cls-9" d="M-12.88,885.37c.51-1.26,18.36-44.84,24.35-82.61,8.18-51.49,1.32-90.42-20.4-115.68l-2.38-2.77-3.82.67c-15.46,2.71-40,34.27-47.13,43.87-16,21.58-31.88,48.79-36.56,70.5a58.14,58.14,0,0,1-2.45-5.39,7.45,7.45,0,0,0-6.41-4.5,7.83,7.83,0,0,0-7.24,3.34c-3.85,6-10.43,17.09-12,25.93-7.54,13.12-16,25-19,26.6a3,3,0,0,1,.32-.12l4.24,10.64c6-1.93,14.82-12.92,26.08-32.66a6.18,6.18,0,0,0,.74-2.11c.51-3.5,2.56-8.61,5.72-14.44A107.14,107.14,0,0,0-99.07,821a7.14,7.14,0,0,0,8.13,2,5.85,5.85,0,0,0,3.87-6.71c-3.57-15.68,10.28-47.54,35.3-81.17,15.57-20.94,29-33.43,35.74-37.56,42.23,56.16-8.24,182.81-8.71,184Z"/><path class="cls-10" d="M-22.65,882.11S36,746.85-13.76,689c-19.88,3.48-87.45,91.23-79.32,126.9.09.39-.47.61-.73.29-2.72-3.36-9.46-12.2-13.24-21.89a1.3,1.3,0,0,0-2.25-.19c-3.07,4.73-10.16,16.41-11.38,24.69a1.11,1.11,0,0,1-.1.29c-1.21,2.11-16,27.8-22.6,29.91"/><path class="cls-12" d="M460.57,916.18l3.87-4.75H441.21L404,900.75l5.81-13.85c3.1,5.14,67.37-5.55,56.14-9.11s-41.22-51-41.22-51,41.4-1.33,52.73,7.13c0,0-52.29-55.24-54-56.57s65.36-3.57,91.51,15.14c-12.2-25.83-3.49-53.45-3.49-53.45s31.81,31.63,36.61,48.11c0,0,15.69-56.13,33.12-70.83,0,0,11.77,63.32,13.7,72,5.81-13.46,39.5-41.56,59.24-38.4,0,0-15.87,23.75-19.74,48.29,0,0,48.78-8.31,56.91-4.75,1.94,7.12-27.49,33.64-27.49,33.64l55,2-20.52,40s47.62-28.9,51.5-29.29c0,0,18.19,21,26.71,23.74,0,0-6.19-37.2-31-57.78,12.39-2,60.4,13.85,60.4,13.85s-41.82-46.3-42.59-53.82c0,0,22.45,6.33,30.59,6.33,0,0,87.89,55.41,69.69,102.11C754.83,972,460.57,916.18,460.57,916.18Z"/><path class="cls-13" d="M784.34,811.67s.65,32.58-5.22,26.71-39.74-14.33-39.74-14.33,36.48,45.61,30,39.74-41.7-9.77-41.7-9.77c15,12.38,21.5,39.75,18.89,41.05s-18.89-15.64-18.89-15.64L689.2,899l13-29.32c-6.52-2.61-43.66,2-38.45-.65s18.9-24.11,18.9-24.11c-9.78-3.91-43,3.26-43,3.26.66-9.78,13.69-37.8,13.69-37.8-18.9-2-44.31,26.72-44.31,26.72C603.2,790.82,598,785.6,598,785.6c-6.51,5.22-25.41,54.74-25.41,54.74S553,798,545.86,804.5s1.3,39.09,1.3,39.09c-13-16.29-69.72-12.38-69.72-12.38s45,48.87,40.4,43.66S479.39,863.14,480.7,869s22.15,31.27,22.15,31.27,73.2,23.46,151.82,26.93,199-23,196.78-44.3S784.34,811.67,784.34,811.67Z"/><path class="cls-12" d="M25.24,678.82c6.73,8.91-.22,41,.65,42.14,3.91-4.13,17.6-21.29,44.75-22.81-.44,8.47-19.12,41.7-19.12,41.7s25-13.68,43.44-13c-1.74,7.39-24.11,22.81-24.11,22.81s48-2,61.69,12.38c0,0-18.47,7.82-32.15,18.46l73.85.87s-9.78-29.54-12.17-32.58,34.54,3,39.32,16.94c0,0-3.26-42.14,11.07-54.08,10.86,3.91,29.76,29.75,33.67,38.87,0,0-11.95-44.3,26.28-57.33,0,0,10.64,34.31,7.82,50.82,12.16-13.68,23.24-44.31,79.27-47.57,0,0-28.88,49.31-36.7,73l29.75-9.12-6.3,42.79h41.92l-2.6,30s19.11-10.43,21.93-9.56-7.6,35.62-7.6,35.62S57.39,926.2,9.6,868.87-5.17,760.7-5.17,760.7s12.6-1.3,13.47-65.16C12.64,683.82,21.63,680.38,25.24,678.82Z"/><path class="cls-14" d="M-411.75,843.62s101.56,11.62,120.31,11.62,234.38,33.39,329.69,5.81S360.12,842.17,457,878.47,764.81,922,838.25,875.56c0,0,125-17.42,156.25-1.45l-1.26,459.53-1400.65,1.81-4.34-491.83"/><path class="cls-15" d="M100.83,923.2s-20.53-2.93-21.51-8.8,24.44-42,104.58-41S394,893.88,423.36,908.54s127.06,32.25,139.76,38.12,198.41,2,186.68,58.64C766.42,1026.8,557.26,1107,539.67,1103s-108.49,23.45-200.37-21.51c0,0-54.73-34.2-70.37-50.82s-102.62-21.5-107.51-33.23c0,0-40.07-16.61-22.48-45.94C138.94,951.54,70.53,962.3,100.83,923.2Z"/><path class="cls-13" d="M440,875.92c-2.93-3.91,9.78-14.66,9.78-14.66s-42,3.91-42,0,13.68-35.18,13.68-35.18L395,833.9c0-10.75,29.33-60.6,29.33-60.6-39.1-1.95-58.65,30.3-65.49,40.07,1-26.39-6.84-42-6.84-42-24.43,8.79-23.46,43-23.46,43C311.94,784.05,301.19,787,301.19,787c-13.69,11.73-7.82,45-7.82,45-12.71-18.57-34.21-15.64-34.21-15.64l13.25,30S433.89,865.5,440,875.92"/><path class="cls-13" d="M.05,835c27.8-25.63,46-3,46-3s-10.75-24.43-8.79-31.27c42-6.84,55.71,5.86,55.71,5.86s-13.69-31.28-11.73-47.89c19.55,4.89,36.16,39.09,36.16,39.09s17.59-38.11,25.41-41.05c5.87,5.87,2.93,36.17,2.93,36.17s22.48-22.48,34.21-17.6c0,13.69-11.73,33.24-11.73,33.24,20.53-11.73,35.19-7.82,35.19-7.82L182,816.3c51.8,2,60.59,14.67,51.8,13.69s-21.29,12.81-21.29,12.81-128.14,1.74-185,19.12c0,0-20.41-23-27.36-26.94"/></svg>