<?xml version="1.0" encoding="utf-8"?>
<!-- Generator: Adobe Illustrator 23.0.1, SVG Export Plug-In . SVG Version: 6.00 Build 0)  -->
<svg version="1.1" id="Layer_1" xmlns="http://www.w3.org/2000/svg" xmlns:xlink="http://www.w3.org/1999/xlink" x="0px" y="0px"
	 viewBox="0 0 599.8 599.8" style="enable-background:new 0 0 599.8 599.8;" xml:space="preserve">
<style type="text/css">
	.st0{fill:#FFE2B3;}
	.st1{fill:#BCDC9B;}
	.st2{fill:#BAD6A5;}
	.st3{fill:#010101;}
	.st4{fill:#F8F6BD;}
</style>
<g id="B-Ankylosaurus">
	<path class="st0" d="M521.3,212.1l8,8.6c4.3,4.6,1.9,12.1-4.2,13.5l-11.4,2.6c-6.1,1.4-11.5-4.4-9.6-10.4l3.5-11.2
		C509.4,209.2,517.1,207.5,521.3,212.1z"/>
	<path class="st0" d="M489.7,319.5l10.7,4.7c5.8,2.6,6.6,10.4,1.5,14.1l-9.4,6.9c-5.1,3.7-12.3,0.5-13-5.8l-1.2-11.6
		C477.5,321.7,483.9,317,489.7,319.5z"/>
	<path class="st1" d="M523.6,314.1c-8.2-0.3,0.2-4.9-2.6-8.8s9.7-7.1,9.7-7.1l35.6,12.6c5.1-10,7.6-21.6,6.1-33.9
		c-3.1-27.2-24.9-49.2-52.1-52.4c-38.8-4.5-71.3,28.2-66.2,67.1c3.4,26.6,24.9,48,51.5,51.3c19.2,2.4,36.8-4.4,49.1-16.5
		c3.8-3.7,1.6-10.2-3.7-10.5C539.8,315.1,527.6,314.3,523.6,314.1z"/>
	<g>
		<path class="st1" d="M526.7,314.1c-5.3-0.4-5.7-8.8-5.7-8.8s5.6-7.1,9.7-7.1c2.6,0,17.4,5.5,28.6,9.7l11.1,0.9l0,1.1
			c7.7-4.2-2.2-29.6-18.9-38.4c-5.3-12.8-36.7-13.9-50.7-13.7c-4,0-7.9-2.4-10-6.5c-51.5-97.7-237.7-60.7-261.3-9.9
			c-21,45.5-104,54.3-124.3,55.8c-2.9,0.2-5.7,1.7-7.8,4.2l0,0c-8.3,10-1,26.9,10.5,24.5c31.4-6.6,73.7-12.1,95.1,0.2
			c0.5,0.3,1,0.6,1.4,1c118.8,91.7,213.4,11,224.8,0.5c0.8-0.8,1.8-1.4,2.8-1.9c7.8-3.7,45.5-27.4,61.9-10.6
			c13.4,13.7,43.4,7.8,62.1,1C545.5,315.4,530.1,314.3,526.7,314.1z"/>
		<path class="st1" d="M567.7,311.1c0.1-0.1,0.4-0.2,0.5-0.3l-1.6-0.1C567,310.8,567.4,310.9,567.7,311.1z"/>
	</g>
	<circle class="st0" cx="63.6" cy="305.8" r="46.6"/>
	<path class="st2" d="M225.1,260.3c39.4,6.8,183.6,27.5,248.1-20.4c3.7-2.8,12.1-1,0.9-11.5c-41.7-43.5-119.8-38.5-125.5-38.1
		c-0.2,0-0.4,0-0.6,0c-6.2-0.1-96.1-1.7-111.1,38.3c-5-0.5-12.4,11.6-17.2,20.5C217.2,253.7,220,259.4,225.1,260.3z"/>
	<path class="st0" d="M277.6,239L277.6,239c6.3,0,10.2,6.8,7.1,12.3l0,0c-3.1,5.5-11,5.5-14.2,0l0,0
		C267.4,245.9,271.3,239,277.6,239z"/>
	<path class="st0" d="M379.8,232.1L379.8,232.1c6.3,0,10.2,6.8,7.1,12.3l0,0c-3.1,5.5-11,5.5-14.2,0l0,0
		C369.6,238.9,373.6,232.1,379.8,232.1z"/>
	<path class="st0" d="M426.4,226.8L426.4,226.8c6.3,0,10.2,6.8,7.1,12.3l0,0c-3.1,5.5-11,5.5-14.2,0l0,0
		C416.2,233.6,420.1,226.8,426.4,226.8z"/>
	<path class="st0" d="M333.4,226.8L333.4,226.8c6.3,0,10.2,6.8,7.1,12.3l0,0c-3.1,5.5-11,5.5-14.2,0l0,0
		C323.2,233.6,327.1,226.8,333.4,226.8z"/>
	<path class="st0" d="M253.7,224.3L253.7,224.3c-0.5-5.2,4.5-9.2,9.4-7.5l0,0c4.9,1.8,6.3,8.1,2.6,11.7l0,0
		C261.5,232.8,254.4,230.2,253.7,224.3z"/>
	<path class="st0" d="M302.3,204.5L302.3,204.5c2.6-4.5,9.1-4.8,12-0.4l0,0c2.9,4.3,0.3,10.3-4.8,11l0,0
		C303.6,216,299.3,209.7,302.3,204.5z"/>
	<path class="st0" d="M358.2,199L358.2,199c3.7-3.7,10-2.2,11.7,2.8l0,0c1.7,5-2.4,10-7.6,9.3l0,0
		C356.4,210.4,353.9,203.2,358.2,199z"/>
	<path class="st0" d="M394.5,203.1L394.5,203.1c3.7-3.7,10-2.2,11.7,2.8l0,0c1.7,5-2.4,10-7.6,9.3l0,0
		C392.8,214.5,390.3,207.2,394.5,203.1z"/>
	<path class="st0" d="M447.1,211.8L447.1,211.8c5.2-0.8,9.4,4.1,7.8,9.1l0,0c-1.6,5-7.8,6.6-11.6,3.1l0,0
		C438.9,219.9,441.2,212.6,447.1,211.8z"/>
	<path class="st1" d="M582.8,308.8l-42.8-3.5L582.8,308.8z"/>
	<g>
		<path class="st0" d="M523.6,313.8v0.3c-1,2.8-0.6,18.2,2.6,26.8c1.2,3.1,4.8,4.4,7.8,3l11.9-5.4c4.4-2.3,9.5-8,13.6-13
			c2.9-3.7,0.5-9.1-4.1-9.5L523.6,313.8z"/>
		<path class="st0" d="M564,309.9c4.4,1.5,9-1.1,10.1-5.6c0.8-3.5,1.3-7.9,0.6-12.8l-1.8-15c-3.1-18.7-11.9-29.2-11.6-28.1
			l-25.6,41.8c-5,8.1-0.6,9.6,4,11.3L564,309.9z"/>
	</g>
	<path class="st0" d="M502.6,215.4l8,8.6c4.3,4.6,1.9,12.1-4.2,13.5l-11.4,2.6c-6.1,1.4-11.5-4.4-9.6-10.4l3.5-11.2
		C490.6,212.5,498.3,210.8,502.6,215.4z"/>
	<path class="st0" d="M476.9,312.6l10.7,4.7c5.8,2.6,6.6,10.4,1.5,14.1l-9.4,6.9c-5.1,3.7-12.3,0.5-13-5.8l-1.2-11.6
		C464.7,314.7,471.1,310,476.9,312.6z"/>
	<circle class="st3" cx="527.6" cy="265.1" r="9"/>
	<path class="st1" d="M266.8,404.4L266.8,404.4c-10.5,0-19-8.6-19-19v-33.9c0-10.5,8.6-19,19-19l0,0c10.5,0,19,8.6,19,19v33.9
		C285.8,395.9,277.3,404.4,266.8,404.4z"/>
	<path class="st1" d="M451.1,390.3L451.1,390.3c-9,5.2-20.7,2.1-26-7l-30.3-52.5c-5.2-9-2.1-20.7,7-26l0,0c9-5.2,20.7-2.1,26,7
		l30.3,52.5C463.2,373.4,460.1,385.1,451.1,390.3z"/>
	<path class="st4" d="M277.6,363.2c0,0,34.6-62.8,151.6-30.7c-51.1,11.9-4,26.8-95.8,40.9C294.2,373.5,292.9,371.4,277.6,363.2z"/>
	<path class="st1" d="M314.1,408.3L314.1,408.3c-9.6,4.2-20.8-0.1-25.1-9.7l-24.5-55.4c-4.2-9.6,0.1-20.8,9.7-25.1l0,0
		c9.6-4.2,20.8,0.1,25.1,9.7l24.5,55.4C328.1,392.8,323.7,404.1,314.1,408.3z"/>
	<path class="st1" d="M413,401.7L413,401.7c-10.5,0-19-8.6-19-19v-60.6c0-10.5,8.6-19,19-19l0,0c10.5,0,19,8.6,19,19v60.6
		C432,393.2,423.4,401.7,413,401.7z"/>
</g>
</svg>
