<?xml version="1.0" encoding="utf-8"?>
<!-- Generator: Adobe Illustrator 23.0.1, SVG Export Plug-In . SVG Version: 6.00 Build 0)  -->
<svg version="1.1" id="Layer_1" xmlns="http://www.w3.org/2000/svg" xmlns:xlink="http://www.w3.org/1999/xlink" x="0px" y="0px"
	 viewBox="0 0 599.8 599.8" style="enable-background:new 0 0 599.8 599.8;" xml:space="preserve">
<style type="text/css">
	.st0{fill:#C9E8FA;}
	.st1{fill:#F9F1A7;}
	.st2{fill:#F9F7E5;}
	.st3{fill:#010101;}
	.st4{fill:#F6AECD;}
</style>
<g id="B-Brachio">
	<g id="B-Brachiosaurus_1_">
		<path class="st0" d="M38.6,379"/>
		<path class="st1" d="M17,382.8l2,3.1c1,1.5,2.5,2.6,4.3,3.1c16.5,4.8,51.9-2.8,72.9-20.5c20.4-17.2,56.7-97.6,74-16.3
			c6,28.3,83.7,71.3,83.7,71.3c60.5,34.1,155.3,7.9,176.5,1.4c2.7-0.8,4.6-2.9,5.1-5.6c7.8-38.6,73.3-259.4,90.6-256.6
			c13.7,2.2,32.5-7.7,45.5-15.5c-1.1,0.2-2.3,0.3-3.5,0.3c-4.9,0-11.1-1.7-18.3-6.6l0.9-1.1c11.6,7.9,20,7.1,25.2,4.8
			c1.6-1,3.1-1.9,4.3-2.7c1.2-1,1.9-1.8,2-2l0.6,0.4c-4.3-10-29.7-43-33.9-45.2c-0.2-0.1-18.1-9.5-18.4-9.6
			c-5.1-2.2-54.1-4.6-54.1,65.2c0,63.5-58.5,126.3-73.9,136.9c-3.3,2.3-6,5.1-9.9,3.7c0,0,0,0-0.1,0c-83.2-33.4-217.1,7.1-233.6-1.6
			c-17.1-8.9-61,21.6-82.7,44.6"/>
		<path class="st1" d="M296.8,373.5c0,0,30.2,114.7,11.1,117.6c-19.1,2.9-66.4-0.8-69.1-10.6C236.1,470.7,270.4,355.4,296.8,373.5z"
			/>
		<path class="st2" d="M304,486.6c1.6-10.6,6.3-31.7,15.4-1.7c0.7,2.3-0.8,4.6-3.1,4.9l-8,1.2C305.8,491.3,303.6,489.1,304,486.6z"
			/>
		<path class="st2" d="M311.1,490.5c0,0-20.7,2.8-24,1.8C287.1,492.3,295.3,443.3,311.1,490.5"/>
		<path class="st1" d="M398.3,370c0,0,34.8,108.4,16.6,112.1c-18.2,3.8-63.7,2.6-66.7-6.6C345.1,466.3,372.2,354.1,398.3,370z"/>
		<path class="st2" d="M411,478c1-10.3,4.4-30.7,14.6-2.4c0.8,2.1-0.5,4.4-2.7,4.8l-7.6,1.5C413,482.5,410.8,480.5,411,478z"/>
		<path class="st2" d="M418,481.4c0,0-19.7,3.7-23,2.9C395.1,484.4,400.5,437.1,418,481.4"/>
		<path class="st1" d="M365.2,360.5c0,0,60.6,139.7,36.9,147.1c-23.7,7.4-84.4,11.9-89.7,0C307.1,495.7,328.3,342.6,365.2,360.5z"/>
		<path class="st1" d="M253.3,362.1c0,0,38.8,147.2,14.2,151c-24.5,3.7-85.3-1-88.7-13.6C175.4,487,219.5,338.9,253.3,362.1z"/>
		<path class="st2" d="M392.5,503.6c0.5-13.8,3.4-41.4,19.4-4.4c1.2,2.8-0.3,6-3.3,6.7l-10,2.6C395.5,509.4,392.4,506.9,392.5,503.6
			z"/>
		<path class="st2" d="M402.1,507.6c0,0-26,6.5-30.5,5.7C371.7,513.3,375.3,449.6,402.1,507.6"/>
		<path class="st2" d="M262.6,507.3c2-13.7,8-40.8,19.7-2.2c0.9,2.9-1,5.9-4,6.3l-10.2,1.5C264.9,513.4,262.2,510.6,262.6,507.3z"/>
		<path class="st2" d="M271.7,512.4c0,0-26.6,3.5-30.9,2.3C240.9,514.7,251.5,451.8,271.7,512.4"/>
		<circle class="st3" cx="519.3" cy="125.3" r="5.1"/>
	</g>
	<path class="st4" d="M344.4,277c0,0-40.6,45.4-32.6,69.2c9.7-24.3,75.6-60.8,75.6-60.8L344.4,277z"/>
	<path class="st4" d="M310.8,278.3c0,0-54.9,59.2-37.2,76.4c-26.8-28.3-7.2-77.1-7.2-77.1S297.7,275.8,310.8,278.3z"/>
	<path class="st4" d="M240.9,281.9c0,0-42.4,0.2-51.1,15.2S196,359,196,359L240.9,281.9z"/>
</g>
</svg>
