<?xml version="1.0" encoding="utf-8"?>
<!-- Generator: Adobe Illustrator 23.0.1, SVG Export Plug-In . SVG Version: 6.00 Build 0)  -->
<svg version="1.1" id="Layer_1" xmlns="http://www.w3.org/2000/svg" xmlns:xlink="http://www.w3.org/1999/xlink" x="0px" y="0px"
	 viewBox="0 0 600 600" style="enable-background:new 0 0 600 600;" xml:space="preserve">
<style type="text/css">
	.st0{fill:#FCFACD;}
	.st1{fill:#DEB9FC;}
	.st2{fill:#F9EECA;}
</style>
<title>aSpinosaurus</title>
<g id="B-campto">
	<path class="st0" d="M503.2,172.2l0.9,0.5c5.7,3.2,12.2-1.2,13.3-8.7c2.8-19.7-4.2-50.4-55.6-82.3c-32.6-19-47.2,52.1-47.2,52.1
		s-9.4,53.1-39.5,52.1c-30-1.1-111.3-9.4-173.9,87.9c-0.2,0.3-0.4,0.6-0.5,0.9c-22,39.6-33.9,76.8-36.8,86.5
		c-0.5,1.8-1.4,3.3-2.5,4.6c-6.3,6.8-28,25.1-50.6-13.9c-1.1-1.8-1.6-4.1-1.7-6.3c-0.6-13.7-4.6-24.8-10.1-33.1
		c-6.2-9.3-18.2-2.6-16.6,9.2c1.2,8.8,1.6,22,1.1,43c-1.5,59.9,81.9,89,100.3,94.7c2.2,0.7,4.6,0.4,6.6-0.9
		c11.3-7.2,50.7-31.7,63.8-31.7c14.8,0,101-45.7,116.1-87.5c1.2-3.2,3.3-5.7,6.1-6.7c21.2-7.6,71.8-28,71-97.8c0-1,0.1-2,0.3-3
		c3.6-17.5,7.8-22.9,10.5-24.4c2-1.2,3.8-2.9,4.8-5.4c3-7.6,9.2-21,15.3-20.2c7.4,0.9,17.9,5.7,26.7,5c2.8-0.2,5.2-2.1,6.8-4.9
		c0,0,0-0.1,0-0.1L503.2,172.2z"/>
	<circle cx="476.7" cy="126" r="7.6"/>
	<path class="st0" d="M248.8,521.5L248.8,521.5c-15,0-27.2-12.2-27.2-27.2v-95.8c0-15,12.2-27.2,27.2-27.2h0
		c15,0,27.2,12.2,27.2,27.2v95.8C276,509.2,263.8,521.5,248.8,521.5z"/>
	<path class="st0" d="M313.8,502.9L313.8,502.9c-15,0-27.2-12.2-27.2-27.2v-95.8c0-15,12.2-27.2,27.2-27.2h0
		c15,0,27.2,12.2,27.2,27.2v95.8C341,490.6,328.8,502.9,313.8,502.9z"/>
	<path class="st0" d="M437.7,361.8L437.7,361.8c-5.3,3.8-12.7,2.6-16.5-2.7L386.7,311c-3.8-5.3-2.6-12.7,2.7-16.5h0
		c5.3-3.8,12.7-2.6,16.5,2.7l34.5,48.1C444.2,350.6,443,358,437.7,361.8z"/>
	<path class="st0" d="M479.7,294.6L479.7,294.6c-1.9,6.2-8.5,9.8-14.8,7.9l-56.6-17.2c-6.2-1.9-9.8-8.5-7.9-14.8v0
		c1.9-6.2,8.5-9.8,14.8-7.9l56.6,17.2C478,281.7,481.6,288.3,479.7,294.6z"/>
	<ellipse class="st1" cx="313.8" cy="282.5" rx="18.1" ry="13.3"/>
	<circle class="st1" cx="377.7" cy="203.9" r="5.9"/>
	<ellipse class="st1" cx="313.8" cy="228.7" rx="9.1" ry="3.9"/>
	<circle class="st1" cx="258.6" cy="292.3" r="9.8"/>
	<ellipse class="st1" cx="257" cy="347.1" rx="11.4" ry="5.5"/>
	<circle class="st1" cx="384.5" cy="256.4" r="12.7"/>
	<circle class="st1" cx="457.2" cy="200.9" r="3"/>
	<path class="st1" d="M414.5,133.8l25.5-25.4l14.2-15.4l45.9,20.4c0,0-36-36.2-45.9-34.9C444.4,79.9,426.9,81.2,414.5,133.8z"/>
	<path class="st1" d="M83.9,312.9c0,0,23.5,26.4,25.1,32.7c1.7,6.3-1.5-38.3-16.7-37.4C83.9,308.1,83.9,312.9,83.9,312.9z"/>
	<path class="st2" d="M275.5,490.2c2.3,3.5,5,7.6,7.6,12c5.7,9.3-2.4,20.8-13.2,18.9c-3.4-0.6-6.8-1.1-9.9-1.4
		c-7.7-0.9-12.8-8.3-10.8-15.8c1.1-4.1,2.6-8.5,4.5-12.4C257.9,482.7,270.1,482.1,275.5,490.2z"/>
	<path class="st2" d="M342.7,471.8c2.3,3.5,5,7.6,7.6,12c5.7,9.3-2.4,20.8-13.2,18.9c-3.4-0.6-6.8-1.1-9.9-1.4
		c-7.7-0.9-12.8-8.3-10.8-15.8c1.1-4.1,2.6-8.5,4.5-12.4C325.2,464.4,337.4,463.8,342.7,471.8z"/>
	<path class="st2" d="M431.4,356c0.8,1.2,1.7,2.5,2.5,4c1.9,3.1-0.8,7-4.4,6.3c-1.2-0.2-2.3-0.4-3.3-0.5c-2.6-0.3-4.3-2.8-3.6-5.3
		c0.4-1.4,0.9-2.8,1.5-4.1C425.5,353.5,429.6,353.3,431.4,356z"/>
	<path class="st2" d="M442.9,348.4c0.8,1.2,1.7,2.5,2.5,4c1.9,3.1-0.8,7-4.4,6.3c-1.2-0.2-2.3-0.4-3.3-0.5c-2.6-0.3-4.3-2.8-3.6-5.3
		c0.4-1.4,0.9-2.8,1.5-4.1C437.1,345.9,441.1,345.7,442.9,348.4z"/>
	<path class="st2" d="M474.3,294.6c0.8,1.2,1.7,2.5,2.5,4c1.9,3.1-0.8,7-4.4,6.3c-1.2-0.2-2.3-0.4-3.3-0.5c-2.6-0.3-4.3-2.8-3.6-5.3
		c0.4-1.4,0.9-2.8,1.5-4.1C468.5,292.1,472.5,291.9,474.3,294.6z"/>
	<path class="st2" d="M477.5,280.2c0.8,1.2,1.7,2.5,2.5,4c1.9,3.1-0.8,7-4.4,6.3c-1.2-0.2-2.3-0.4-3.3-0.5c-2.6-0.3-4.3-2.8-3.6-5.3
		c0.4-1.4,0.9-2.8,1.5-4.1C471.6,277.7,475.7,277.5,477.5,280.2z"/>
</g>
</svg>
