<?xml version="1.0" encoding="utf-8"?>
<!-- Generator: Adobe Illustrator 23.0.1, SVG Export Plug-In . SVG Version: 6.00 Build 0)  -->
<svg version="1.1" id="Layer_1" xmlns="http://www.w3.org/2000/svg" xmlns:xlink="http://www.w3.org/1999/xlink" x="0px" y="0px"
	 viewBox="0 0 599.8 599.8" style="enable-background:new 0 0 599.8 599.8;" xml:space="preserve">
<style type="text/css">
	.st0{fill:#F8E1C2;}
	.st1{fill:#FFE2B3;}
	.st2{fill:#F16C93;}
	.st3{fill:#090909;}
	.st4{fill:#F7B4CD;}
	.st5{fill:#FBBE6A;}
</style>
<g id="B-Carno">
	<path class="st0" d="M476.3,32.7v8.1c0,5.7-6,9.4-11.1,6.6l-7.5-4.1c-5.2-2.8-5.3-10.3-0.1-13.2l7.5-4.1
		C470.1,23.4,476.3,27.1,476.3,32.7z"/>
	<g id="A-Crono_1_">
		<path class="st1" d="M569.2,131.4l9.4-17.5c1.8-3.3-0.8-7.4-4.5-7.2l-20.8,1.1c-3.8,0.2-6,4.5-3.8,7.6l11.3,16.4
			C563,134.8,567.5,134.6,569.2,131.4z"/>
		<path class="st1" d="M556.2,133.7l7.1-13.2c2.3-4.3-1-9.5-5.9-9.3l-15.7,0.8c-4.9,0.2-7.7,5.8-4.9,9.9l8.5,12.5
			C548.2,138.1,554,137.8,556.2,133.7z"/>
		<path class="st1" d="M531.6,131.9l7.2-13.4c2.3-4.3-1-9.4-5.8-9.2l-15.9,0.8c-4.9,0.2-7.6,5.7-4.8,9.7l8.7,12.7
			C523.6,136.3,529.5,136,531.6,131.9z"/>
		<path class="st1" d="M518.9,132.9l13.1-24.1l-38.1,1.9l15.7,22.8C511.8,136.8,516.9,136.6,518.9,132.9z"/>
		<polygon class="st1" points="505.1,129.2 478.6,155.2 515.6,163.9 		"/>
		<path class="st1" d="M520.5,143.3l-11,10.8c-3.5,3.5-1.8,9.4,2.9,10.6l15.4,3.6c4.7,1.1,8.8-3.3,7.4-7.9l-4.4-14.4
			C529.5,141.5,523.9,140.1,520.5,143.3z"/>
		<path class="st1" d="M546.2,149.2l-16.9,16.6c-2.2,2.1-1.1,5.9,1.8,6.6l23.6,5.5c2.9,0.7,5.4-2,4.6-4.9l-6.7-22.1
			C551.8,148.1,548.3,147.2,546.2,149.2z"/>
		<path class="st1" d="M557.2,153.2l-15.5,15.2c-2.5,2.5-1.3,6.7,2.1,7.5l21.7,5.1c3.3,0.8,6.3-2.3,5.3-5.7l-6.2-20.2
			C563.6,151.9,559.6,150.9,557.2,153.2z"/>
		<path class="st2" d="M575.9,111.4c5.4,0.5,8.8-5.4,5.7-9.6c-25.3-34.3-60.7-77.6-139.5-73c-76.8,4.5-51.4,113.5-49.6,126.5
			c0.4,2.9-1.4,5.7-4.3,6.6c-21.1,6.9-101.7,39-190.5,150.2C94.1,441.9,34.2,306.5,60.5,255c10.6-20.9,5.6-41.6-4.2-58.6
			c-3.9-6.8-14.8-1.5-11.5,5.5c4.6,9.8,7.8,18.6,7.3,23.5c-1.6,15.6-42.2,84.3-34,110.8c8.1,26.4,34.6,97.6,124.7,104
			c0.6,0.1,1.2,0.2,1.7,0.4c55.2,18.8,64.5,79.8,210.8,15.2c0.9-0.4,1.7-1,2.3-1.7c44-49.9,83-113,101-122.4
			c18.1-9.4,37.7-99.8,37.6-115.5c-0.1-15.6,13.1-34.3,18-32.8c5,1.5,52.9,17,59.5,17c5.4,0-0.2-25.5-2.5-35.2
			c-0.5-2.3-2.4-4.1-4.8-4.6l-58.6-13.1c-5.4-1.2-6.9-7.9-2.3-10.9C521.2,126,550.9,109.1,575.9,111.4z"/>
		
			<ellipse transform="matrix(1 -3.262643e-03 3.262643e-03 1 -0.2302 1.6104)" class="st3" cx="493.5" cy="71.4" rx="8.2" ry="7.8"/>
		
			<ellipse transform="matrix(1 -3.262643e-03 3.262643e-03 1 -0.3109 1.8057)" class="st4" cx="553.3" cy="96.2" rx="3.2" ry="3.1"/>
	</g>
	
		<ellipse transform="matrix(1 -3.262643e-03 3.262643e-03 1 -1.0455 0.754)" class="st5" cx="230.6" cy="320.8" rx="10.5" ry="9.9"/>
	
		<ellipse transform="matrix(1 -3.262643e-03 3.262643e-03 1 -0.8111 1.2684)" class="st5" cx="388.4" cy="249.2" rx="10.5" ry="9.9"/>
	
		<ellipse transform="matrix(1 -3.262643e-03 3.262643e-03 1 -0.5414 1.3216)" class="st5" cx="404.8" cy="166.6" rx="10.5" ry="9.9"/>
	
		<ellipse transform="matrix(1 -3.262643e-03 3.262643e-03 1 -0.8128 0.9385)" class="st5" cx="287.2" cy="249.6" rx="10.5" ry="9.9"/>
	
		<ellipse transform="matrix(1 -3.262643e-03 3.262643e-03 1 -1.0122 0.9935)" class="st5" cx="304" cy="310.7" rx="23.1" ry="26.1"/>
	
		<ellipse transform="matrix(1 -3.262643e-03 3.262643e-03 1 -0.7143 1.136)" class="st5" cx="347.8" cy="219.5" rx="17.1" ry="13.1"/>
	<path class="st0" d="M440.2,27.5l7.8,3.5c5.4,2.4,6,9.9,1,13.1l-7.2,4.6c-4.8,3.1-11.1,0-11.5-5.7l-0.7-8.1
		C429.2,29.3,435,25.2,440.2,27.5z"/>
	<path class="st2" d="M492.3,357.6L492.3,357.6c-4.5,5.9-13,7-18.9,2.5l-29.6-22.7c-5.9-4.5-7-13-2.5-18.9l0,0
		c4.5-5.9,13-7,18.9-2.5l29.6,22.7C495.6,343.2,496.8,351.7,492.3,357.6z"/>
	<path class="st2" d="M511.3,329.6L511.3,329.6c-4.5,5.9-13,7-18.9,2.5l-29.6-22.7c-5.9-4.5-7-13-2.5-18.9l0,0
		c4.5-5.9,13-7,18.9-2.5l29.6,22.7C514.7,315.2,515.9,323.7,511.3,329.6z"/>
	<path class="st2" d="M264,574.5L264,574.5c-12.8,0-23.2-10.4-23.2-23.2v-66.9c0-12.8,10.4-23.2,23.2-23.2l0,0
		c12.8,0,23.2,10.4,23.2,23.2v66.9C287.2,564.1,276.8,574.5,264,574.5z"/>
	<path class="st2" d="M352.4,556.5L352.4,556.5c-12.5,2.4-24.8-5.9-27.2-18.4l-12.7-65.6c-2.4-12.5,5.9-24.8,18.4-27.2l0,0
		c12.5-2.4,24.8,5.9,27.2,18.4l12.7,65.6C373.3,541.8,365,554.1,352.4,556.5z"/>
</g>
</svg>
