<?xml version="1.0" encoding="utf-8"?>
<!-- Generator: Adobe Illustrator 23.0.1, SVG Export Plug-In . SVG Version: 6.00 Build 0)  -->
<svg version="1.1" id="Layer_1" xmlns="http://www.w3.org/2000/svg" xmlns:xlink="http://www.w3.org/1999/xlink" x="0px" y="0px"
	 viewBox="0 0 599.8 599.8" style="enable-background:new 0 0 599.8 599.8;" xml:space="preserve">
<style type="text/css">
	.st0{fill:#F47A5E;}
	.st1{fill:#010101;}
	.st2{fill:#ABA1CE;}
	.st3{fill:#F9AF8B;}
	.st4{fill:#FFEBB8;}
</style>
<g id="B-Euraptor">
	<path class="st0" d="M505.5,175.3c79.7,5.7,103.7,106.7,43.7,77.8c-94.9-45.6-155.7-0.8-155.7-0.8s-63.5,66-148.1,82.3
		c-108.2,20.8-208.8-89.6-17.1-125.3C411.8,175.3,505.5,175.3,505.5,175.3z"/>
	<circle class="st1" cx="519.8" cy="199.7" r="8.6"/>
	<rect x="175.2" y="237.4" class="st2" width="12.7" height="12.7"/>
	<rect x="258.7" y="217.1" class="st2" width="12.7" height="12.7"/>
	<rect x="227" y="250.1" class="st2" width="22.2" height="22.2"/>
	<rect x="301.7" y="237.4" class="st2" width="12.7" height="12.7"/>
	<rect x="342.3" y="208.3" class="st2" width="8.9" height="8.9"/>
	<rect x="156.2" y="276.6" class="st2" width="7.6" height="7.6"/>
	<circle class="st3" cx="571.7" cy="237.4" r="4.4"/>
	<path class="st0" d="M156.2,237.4c0,0-80.1,28.1-97.5-24.6C44.2,168.4,17,161.5,17,161.5s20.4,28.2,24.1,42.3
		c2.3,8.9,28.7,56.2,45,68.4c16.1,12,70.1,54.4,65.8,40.5C146.2,295.4,156.2,237.4,156.2,237.4z"/>
	<path class="st0" d="M202.1,438.3L202.1,438.3c-5.9,0-10.8-4.9-10.8-10.8V311.7c0-5.9,4.9-10.8,10.8-10.8l0,0
		c5.9,0,10.8,4.9,10.8,10.8v115.8C212.8,433.4,208,438.3,202.1,438.3z"/>
	<path class="st0" d="M249.2,438.3L249.2,438.3c-5.9,0-10.8-4.9-10.8-10.8V311.7c0-5.9,4.9-10.8,10.8-10.8l0,0
		c5.9,0,10.8,4.9,10.8,10.8v115.8C260,433.4,255.1,438.3,249.2,438.3z"/>
	<path class="st0" d="M386.3,310.4l-44.8-18.3c-4.1-1.7-6.1-6.4-4.5-10.5l0,0c1.7-4.1,6.4-6.1,10.5-4.5l44.8,18.3
		c4.1,1.7,6.1,6.4,4.5,10.5l0,0C395.2,310.1,390.4,312.1,386.3,310.4z"/>
	<path class="st0" d="M401,288.8l-44.8-18.3c-4.1-1.7-6.1-6.4-4.5-10.5l0,0c1.7-4.1,6.4-6.1,10.5-4.5l44.8,18.3
		c4.1,1.7,6.1,6.4,4.5,10.5l0,0C409.8,288.5,405.1,290.4,401,288.8z"/>
	<path class="st4" d="M403.6,306.3c0,0,0,15-11.8,19.1c-4.3-12.3,5.6-19.1,0-26.2S401.5,293,403.6,306.3z"/>
	<path class="st4" d="M417.9,284.6c0,0,0,15-11.8,19.1c-4.3-12.3,5.6-19.1,0-26.2S415.8,271.2,417.9,284.6z"/>
	<path class="st4" d="M260,425c0,0,9.4,10.5,3.7,10.7c-5.7,0.2-14,4-17.5,2.2C242.6,436,260,425,260,425z"/>
	<path class="st4" d="M212.4,425c0,0,9.4,10.5,3.7,10.7c-5.7,0.2-14,4-17.5,2.2C195,436,212.4,425,212.4,425z"/>
</g>
</svg>
