<?xml version="1.0" encoding="utf-8"?>
<!-- Generator: Adobe Illustrator 23.0.1, SVG Export Plug-In . SVG Version: 6.00 Build 0)  -->
<svg version="1.1" id="Layer_1" xmlns="http://www.w3.org/2000/svg" xmlns:xlink="http://www.w3.org/1999/xlink" x="0px" y="0px"
	 viewBox="0 0 599.8 599.8" style="enable-background:new 0 0 599.8 599.8;" xml:space="preserve">
<style type="text/css">
	.st0{fill:#FDF7BB;}
	.st1{fill:#DFEED0;}
	.st2{fill:#CEB9DA;}
	.st3{fill:#010101;}
	.st4{fill:#9377B6;}
</style>
<g id="B-Gui">
	<path class="st0" d="M300.7,452.7c0,0,36.6,17.8,18.9,18.4c-17.7,0.5-31.7,5.5-35.9-1.6C279.3,462.2,300.7,452.7,300.7,452.7z"/>
	<path class="st0" d="M261.3,476.7c0,0,36.6,17.8,18.9,18.4c-17.7,0.5-31.7,5.5-35.9-1.6C240,486.2,261.3,476.7,261.3,476.7z"/>
	<g id="A-Guiabasaurus_1_">
		<path class="st1" d="M520.4,113.9L520.4,113.9c-1.7-5.8-15.2-19.4-20.7-17.2c-20.7,8.3-65.2,31.9-63.7,82.6
			c0.3,11.2,15.2,14.2,19.8,4c9.8-22.2,23.2-45.3,36.4-62.4c1.6-2.2,4-3.5,6.7-3.9c1.5-0.2,3.3-0.4,5.3-0.5
			C510.6,116.2,522.4,120.3,520.4,113.9z"/>
		<path class="st2" d="M201.3,391.2c0,0,40.6,28.2,88.3,5.4c36.1-6.9,55.4-12.2,92.6-19.2c15.3,0,54.8-35.5,64.7-83.8
			c3-14.9,55.1-98.3,64.8-98.3s75.5-36.8,70.8-56.9c0,0-10.1-26.5-38.2-24.3c-6.5-9.8-18.1,2.8-23.8-0.1
			c-9.8-5.1-33.6-10.8-40.1,1.2s-48.8,56.4-45.5,111.5c-0.2,22.7-34,20.8-58.5,32.5c-24.8,11.7-114.6-11.7-211,48.9
			c0,0-16.2-14.6-41.5-37.2c-24.4-21.9-107-6.6-107-6.6s119.2-7.5,134.5,86.1C168.9,368.2,201.3,391.2,201.3,391.2z"/>
		<circle class="st3" cx="509" cy="138.5" r="10.3"/>
		<circle class="st4" cx="564.5" cy="131.2" r="2.9"/>
	</g>
	<circle class="st1" cx="201.3" cy="327.8" r="13.1"/>
	<circle class="st1" cx="264.9" cy="289" r="4.8"/>
	<circle class="st1" cx="319" cy="308.2" r="6.6"/>
	<circle class="st1" cx="351.7" cy="277.6" r="6.6"/>
	<circle class="st1" cx="255.7" cy="350.4" r="4.6"/>
	<path class="st2" d="M250.8,503.2L250.8,503.2c-8.5,0-15.4-6.9-15.4-15.4V370.3c0-8.5,6.9-15.4,15.4-15.4l0,0
		c8.5,0,15.4,6.9,15.4,15.4v117.5C266.2,496.3,259.3,503.2,250.8,503.2z"/>
	<path class="st2" d="M290.5,480L290.5,480c-8.5,0-15.4-6.9-15.4-15.4V347.1c0-8.5,6.9-15.4,15.4-15.4l0,0c8.5,0,15.4,6.9,15.4,15.4
		v117.5C306,473,299,480,290.5,480z"/>
	<path class="st0" d="M298.5,459.7c0,0,36.6,17.8,18.9,18.4c-17.7,0.5-31.7,5.5-35.9-1.6C277.2,469.1,298.5,459.7,298.5,459.7z"/>
	<path class="st0" d="M257,482.7c0,0,36.6,17.8,18.9,18.4c-17.7,0.5-31.7,5.5-35.9-1.6C235.7,492.3,257,482.7,257,482.7z"/>
	<path class="st2" d="M451.4,380.9L451.4,380.9c-2.8,3.4-7.9,3.8-11.3,1l-41-34.3c-3.4-2.8-3.8-7.9-1-11.3l0,0
		c2.8-3.4,7.9-3.8,11.3-1l41,34.3C453.7,372.5,454.2,377.6,451.4,380.9z"/>
	<path class="st2" d="M462.5,355.5L462.5,355.5c-2.8,3.4-7.9,3.8-11.3,1l-41-34.3c-3.4-2.8-3.8-7.9-1-11.3l0,0
		c2.8-3.4,7.9-3.8,11.3-1l41,34.3C464.8,347.1,465.4,352.2,462.5,355.5z"/>
	<path class="st0" d="M451.9,371.2c0,0,11,17.2,3.3,12.7c-7.7-4.3-15-5.9-14.9-10.1C440.4,369.7,451.9,371.2,451.9,371.2z"/>
	<path class="st0" d="M464.1,344.2c0,0,11,17.2,3.3,12.7c-7.7-4.5-15-5.9-14.9-10.1S464.1,344.2,464.1,344.2z"/>
</g>
</svg>
