<?xml version="1.0" encoding="utf-8"?>
<!-- Generator: Adobe Illustrator 23.0.1, SVG Export Plug-In . SVG Version: 6.00 Build 0)  -->
<svg version="1.1" id="Layer_1" xmlns="http://www.w3.org/2000/svg" xmlns:xlink="http://www.w3.org/1999/xlink" x="0px" y="0px"
	 viewBox="0 0 599.8 599.8" style="enable-background:new 0 0 599.8 599.8;" xml:space="preserve">
<style type="text/css">
	.st0{fill:#8788C2;}
	.st1{fill:#F4EDDC;}
	.st2{fill:#010101;}
	.st3{fill:#F0E4F0;}
</style>
<g id="B-Mosa">
	<path class="st0" d="M273.1,356.2L273.1,356.2c6.6,3.4,14.8,0.8,18.3-5.8l18.2-35.1c3.4-6.6,0.8-14.8-5.8-18.3l0,0
		c-6.6-3.4-14.8-0.8-18.3,5.8L267.3,338C263.9,344.6,266.5,352.8,273.1,356.2z"/>
	<path class="st0" d="M379.8,304.8c0,0-37.2,79.3-43,80.8c-5.8,1.5,58.7-7.4,69.3-36.4c10.6-29,4.9-48.3,4.9-48.3
		S390.9,281.6,379.8,304.8z"/>
	<path class="st1" d="M573.4,284.6c-1.1,1.6-3.5,1.5-4.3-0.3l-0.8-1.5l-0.8-1.5c-0.9-1.7,0.5-3.7,2.4-3.6l1.7,0.1l1.7,0.1
		c1.9,0.1,3,2.3,1.9,3.9l-0.9,1.4L573.4,284.6z"/>
	<path class="st1" d="M564.6,284.6c-1.1,1.6-3.5,1.5-4.3-0.3l-0.8-1.5l-0.8-1.5c-0.9-1.7,0.5-3.7,2.4-3.6l1.7,0.1l1.7,0.1
		c1.9,0.1,3,2.3,1.9,3.9l-0.9,1.4L564.6,284.6z"/>
	<path class="st1" d="M555.4,284.6c-1.1,1.6-3.5,1.5-4.3-0.3l-0.8-1.5l-0.8-1.5c-0.9-1.7,0.5-3.7,2.4-3.6l1.7,0.1l1.7,0.1
		c1.9,0.1,3,2.3,1.9,3.9l-0.9,1.4L555.4,284.6z"/>
	<path class="st1" d="M546.1,283c-1.1,1.6-3.5,1.5-4.3-0.3l-0.8-1.5l-0.8-1.5c-0.9-1.7,0.5-3.7,2.4-3.6l1.7,0.1l1.7,0.1
		c1.9,0.1,3,2.3,1.9,3.9l-0.9,1.4L546.1,283z"/>
	<path class="st1" d="M537.1,280.6c-1.1,1.6-3.5,1.5-4.3-0.3l-0.8-1.5l-0.8-1.5c-0.9-1.7,0.5-3.7,2.4-3.6l1.7,0.1l1.7,0.1
		c1.9,0.1,3,2.3,1.9,3.9l-0.9,1.4L537.1,280.6z"/>
	<path class="st1" d="M528.6,280.6c-1.1,1.6-3.5,1.5-4.3-0.3l-0.8-1.5l-0.8-1.5c-0.9-1.7,0.5-3.7,2.4-3.6l1.7,0.1l1.7,0.1
		c1.9,0.1,3,2.3,1.9,3.9l-0.9,1.4L528.6,280.6z"/>
	<path class="st1" d="M520.1,278.7c-1.1,1.6-3.5,1.5-4.3-0.3L515,277l-0.8-1.5c-0.9-1.7,0.5-3.7,2.4-3.6l1.7,0.1l1.7,0.1
		c1.9,0.1,3,2.3,1.9,3.9l-0.9,1.4L520.1,278.7z"/>
	<path class="st1" d="M510.7,279c-1.1,1.6-3.5,1.5-4.3-0.3l-0.8-1.5l-0.8-1.5c-0.9-1.7,0.5-3.7,2.4-3.6l1.7,0.1l1.7,0.1
		c1.9,0.1,3,2.3,1.9,3.9l-0.9,1.4L510.7,279z"/>
	<path class="st1" d="M502.4,276.6c-1.1,1.6-3.5,1.5-4.3-0.3l-0.8-1.5l-0.8-1.5c-0.9-1.7,0.5-3.7,2.4-3.6l1.7,0.1l1.7,0.1
		c1.9,0.1,3,2.3,1.9,3.9l-0.9,1.4L502.4,276.6z"/>
	<path class="st1" d="M491.9,276.9c-1.1,1.6-3.5,1.5-4.3-0.3l-0.8-1.5l-0.8-1.5c-0.9-1.7,0.5-3.7,2.4-3.6l1.7,0.1l1.7,0.1
		c1.9,0.1,3,2.3,1.9,3.9l-0.9,1.4L491.9,276.9z"/>
	<path class="st1" d="M477.6,294.2c1.4-1.3,3.7-0.6,4.2,1.2l0.4,1.6l0.4,1.6c0.4,1.9-1.3,3.5-3.1,3l-1.6-0.5l-1.6-0.5
		c-1.8-0.5-2.4-2.9-1-4.2l1.2-1.2L477.6,294.2z"/>
	<path class="st1" d="M486.2,296.1c1.4-1.3,3.7-0.6,4.2,1.2l0.4,1.6l0.4,1.6c0.4,1.9-1.3,3.5-3.1,3l-1.6-0.5l-1.6-0.5
		c-1.8-0.5-2.4-2.9-1-4.2l1.2-1.2L486.2,296.1z"/>
	<path class="st1" d="M495.2,299.2c1.4-1.3,3.7-0.6,4.2,1.2l0.4,1.6l0.4,1.6c0.4,1.9-1.3,3.5-3.1,3l-1.6-0.5l-1.6-0.5
		c-1.8-0.5-2.4-2.9-1-4.2l1.2-1.2L495.2,299.2z"/>
	<path class="st1" d="M504.2,299.6c1.4-1.3,3.7-0.6,4.2,1.2l0.4,1.6l0.4,1.6c0.4,1.9-1.3,3.5-3.1,3l-1.6-0.5l-1.6-0.5
		c-1.8-0.5-2.4-2.9-1-4.2l1.2-1.2L504.2,299.6z"/>
	<path class="st1" d="M513.2,301.3c1.4-1.3,3.7-0.6,4.2,1.2l0.4,1.6l0.4,1.6c0.4,1.9-1.3,3.5-3.1,3l-1.6-0.5l-1.6-0.5
		c-1.8-0.5-2.4-2.9-1-4.2l1.2-1.2L513.2,301.3z"/>
	<path class="st1" d="M521.6,303c1.4-1.3,3.7-0.6,4.2,1.2l0.4,1.6l0.4,1.6c0.4,1.9-1.3,3.5-3.1,3l-1.6-0.5l-1.6-0.5
		c-1.8-0.5-2.4-2.9-1-4.2l1.2-1.2L521.6,303z"/>
	<path class="st1" d="M530,304.5c1.4-1.3,3.7-0.6,4.2,1.2l0.4,1.6l0.4,1.6c0.4,1.9-1.3,3.5-3.1,3l-1.6-0.5l-1.6-0.5
		c-1.8-0.5-2.4-2.9-1-4.2l1.2-1.2L530,304.5z"/>
	<path class="st1" d="M539.2,306.4c1.4-1.3,3.7-0.6,4.2,1.2l0.4,1.6l0.4,1.6c0.4,1.9-1.3,3.5-3.1,3l-1.6-0.5l-1.6-0.5
		c-1.8-0.5-2.4-2.9-1-4.2l1.2-1.2L539.2,306.4z"/>
	<path class="st1" d="M547.5,307.1c1.4-1.3,3.7-0.6,4.2,1.2l0.4,1.6l0.4,1.6c0.4,1.9-1.3,3.5-3.1,3l-1.6-0.5l-1.6-0.5
		c-1.8-0.5-2.4-2.9-1-4.2l1.2-1.2L547.5,307.1z"/>
	<path class="st1" d="M555.9,310.4c0.7-0.7,1.9-0.3,2.2,0.7l0.2,0.8l0.2,0.8c0.2,1-0.7,1.8-1.6,1.6L556,314l-0.8-0.3
		c-1-0.3-1.2-1.5-0.5-2.2l0.6-0.6L555.9,310.4z"/>
	<path class="st0" d="M17,202.3c0,0,134,34.2,177.9,34.2s195.6-9.8,246.4-17.1c52.8-7.6,143.9,17.1,141.4,51.2
		c-2.4,34.2-104.9-17.1-102.4,12.2c2.4,29.3,87.8,29.3,87.8,29.3s-82.9,14.6-129.2,14.6s-214.1-9.8-250.9-26.8
		C151.1,282.8,104.8,280.3,17,202.3z"/>
	<circle class="st2" cx="497.7" cy="237" r="6.2"/>
	<path class="st3" d="M581.1,276.1c0,0-162.3-34.1-206.7-2.3c-44.4,31.8-171.9,30.9-171.9,30.9s120.9,29.3,253.7,22
		c40.1,1.6,111.9-14.6,111.9-14.6s-72.1,1.1-87.8-29.3c-1.8-6.9,7.4-9.5,27-7.8S571.5,291.7,581.1,276.1z"/>
	<path class="st0" d="M394.9,299.9c0,0-10.1,93.7-16.5,97.3c-6.4,3.7,68.9-29.1,68.9-62.3s-15.6-50.5-15.6-50.5
		S398.1,272.4,394.9,299.9z"/>
	<path class="st0" d="M242.8,361.1L242.8,361.1c6.6,3.4,14.8,0.8,18.3-5.8l22.1-42.5c3.4-6.6,0.8-14.8-5.8-18.3l0,0
		c-6.6-3.4-14.8-0.8-18.3,5.8L237,342.8C233.5,349.4,236.1,357.7,242.8,361.1z"/>
</g>
</svg>
