<svg xmlns="http://www.w3.org/2000/svg" viewBox="0 0 600 600"><defs><style>.cls-1{fill:#a56f42;}.cls-2{fill:#c98c51;}</style></defs><title>jOuranosaurus</title><g id="Layer_17" data-name="Layer 17"><path class="cls-1" d="M392.92,411.65h-8.09V342H347v87H347a14.56,14.56,0,0,0,14.53,13.95h31.36a14.6,14.6,0,0,0,14.6-14.59v-2.11A14.6,14.6,0,0,0,392.92,411.65Z"/><path class="cls-1" d="M293.06,416H285V346.37H247.1v87h.06a14.57,14.57,0,0,0,14.54,14h31.36a14.6,14.6,0,0,0,14.59-14.6v-2.1A14.6,14.6,0,0,0,293.06,416Z"/><path class="cls-2" d="M572.49,265S583,266.35,585.27,260s3.2-31.2-28.75-42.85S508.41,179.33,475,179.9s-46.61,20.48-52.81,28.37S417.73,278,380,252.77s29.18-128.13-125.16-82.46c-65.22,19.3-188.4,87-241,152.88,11.28-2.53,15.79-7.42,36.46-8.36,0,0,45.3-8.08,136.91,41.82s148.28,44.54,205.51,30.44c19.73-10.71,21.14-10.43,33.26-30.16s33.55-71.32,47.93-80.06c14.94,0,40.31.28,62.58,2.54S567.14,277.43,572.49,265Z"/><path class="cls-1" d="M25.89,313s58.07-90.21,201-148.56c0,0,114.17-41.44,141.23,0s2,49.21,22.56,95.22c0,0-19.74,3.16-25.94-23.9s-11-61.73-11-61.73l4.51,64.83-20.86-15.5-9.87-54.69,2.54,53.84-18-5.92-7-46.79s2,46.79,1.13,47.07-17.48-1.4-17.48-1.4l-5.36-44.83v44l-14.37,1.69-13-38.62,6.48,39.47-18.32.84S228,183.28,228,184.41s10.43,35.23,10.43,35.23l-27.06,5.08-10.72-29.88,6.21,31.29-28.19,7.05-12.13-24.25,8.18,25.37-20.86,5.92s-15.79-19.17-15.22-18,11,20,11,20L122,251.5l-5.92-9.3,2,9.86-20.3,6.77-3.66-6.49.84,7S31.52,306.47,25.89,313Z"/><circle cx="481.81" cy="214.44" r="15.31"/><path class="cls-2" d="M254.23,416h-8.08V346.37H208.28v87h.06a14.56,14.56,0,0,0,14.53,14h31.36a14.6,14.6,0,0,0,14.6-14.6v-2.1A14.6,14.6,0,0,0,254.23,416Z"/><path class="cls-2" d="M386.93,422.73h-8.09V353.09H341v87H341a14.56,14.56,0,0,0,14.53,14h31.36a14.6,14.6,0,0,0,14.59-14.6v-2.1A14.6,14.6,0,0,0,386.93,422.73Z"/></g></svg>