<svg xmlns="http://www.w3.org/2000/svg" viewBox="0 0 600 600"><defs><style>.cls-1{fill:#f6e277;}.cls-2{fill:#dd916f;}</style></defs><title>jParasaurolophus</title><g id="Layer_17" data-name="Layer 17"><path class="cls-1" d="M459.63,107.79c-21.31-2.22-39.4-21.22-51-36.7-2.64-3.53-21,39.86,4.94,56.53,20.66,13.27,56.85,66.58-6.27,149.7-28.76,37.87-185.08-61.48-235.88,127.93C134.71,542.11,81,490.6,36.38,484c-26.84-4-32.68,14.17-8.91,17s135.44,70.91,179.27-15.54c2.78-5.48,5.83-20.18,11.77-21.59l73.91,14c76.6,0,81.49-9.9,81.49-9.9,71.46-44.46,100.77-110,100.77-110C513.11,278.2,492.76,221.5,499,220.31c31.56-6.05,83,7.22,82.62-14.57C580.8,163.87,584.29,120.8,459.63,107.79Z"/><path class="cls-1" d="M301.47,521.28h-8.89v-73H251v91.12H251c.38,8.13,7.36,14.63,16,14.63h34.46c8.86,0,16-6.85,16-15.3v-2.2C317.51,528.13,310.33,521.28,301.47,521.28Z"/><path class="cls-1" d="M377.34,524.78h-7.93V459.62H332.24V541h.06a14,14,0,0,0,14.27,13.06h30.77c7.91,0,14.33-6.12,14.33-13.66v-2C391.67,530.9,385.25,524.78,377.34,524.78Z"/><path class="cls-1" d="M436.78,494.29l-41.78-36a18.57,18.57,0,0,1-1.43-27.1h0A20.81,20.81,0,0,1,422,429.81l41.77,36a18.58,18.58,0,0,1,1.43,27.11h0A20.82,20.82,0,0,1,436.78,494.29Z"/><path class="cls-1" d="M470.08,426.39l-46.77-40.31a20.79,20.79,0,0,1-1.6-30.35h0a23.32,23.32,0,0,1,31.83-1.53l46.77,40.31a20.79,20.79,0,0,1,1.6,30.35h0A23.33,23.33,0,0,1,470.08,426.39Z"/><ellipse cx="519.54" cy="162.44" rx="14.65" ry="13.97"/><ellipse class="cls-2" cx="289.81" cy="440.77" rx="15.84" ry="15.11"/><ellipse class="cls-2" cx="345.26" cy="448.32" rx="23.77" ry="22.66"/><ellipse class="cls-2" cx="369.02" cy="395.45" rx="15.84" ry="15.11"/></g></svg>