<?xml version="1.0" encoding="utf-8"?>
<!-- Generator: Adobe Illustrator 23.0.1, SVG Export Plug-In . SVG Version: 6.00 Build 0)  -->
<svg version="1.1" id="Layer_1" xmlns="http://www.w3.org/2000/svg" xmlns:xlink="http://www.w3.org/1999/xlink" x="0px" y="0px"
	 viewBox="0 0 599.8 599.8" style="enable-background:new 0 0 599.8 599.8;" xml:space="preserve">
<style type="text/css">
	.st0{fill:#FFF8C7;}
	.st1{fill:#FFFCE9;}
	.st2{fill:#DDBAD8;}
	.st3{fill:#010101;}
	.st4{fill:#C686BA;}
</style>
<g id="B-PTERO">
	<path class="st0" d="M105.8,447.9l-4.3,1.7c-1.1,0.5-2.3-0.4-2.3-1.5v-4.5"/>
	<path class="st0" d="M99.2,445.4l-1-4.5c-0.3-1.2,0.8-2.1,1.9-1.8l4.5,1.2"/>
	<path class="st1" d="M113.3,445.9c0,0-17,5.7-14.7-1.7c2.3-7.4,15.6-9.7,15.6-13.9"/>
	<path class="st0" d="M28.4,407.3l-4.3,1.7c-1.1,0.5-2.3-0.4-2.3-1.5v-4.5"/>
	<path class="st0" d="M21.8,404.9l-1-4.5c-0.3-1.2,0.8-2.1,1.9-1.8l4.5,1.2"/>
	<path class="st2" d="M325.5,556.5L325.5,556.5c-11.1,0-20.2-9.1-20.2-20.2v-65.2c0-11.1,9.1-20.2,20.2-20.2l0,0
		c11.1,0,20.2,9.1,20.2,20.2v65.2C345.8,547.4,336.7,556.5,325.5,556.5z"/>
	<path class="st2" d="M573.9,237.9l-83-56.7L373.3,101c-11.3-7.7-26.8-2.4-31,10.6l-21.1,65.5l-21.1,65.5c-4.2,13,5.3,26.4,19,26.7
		l98.5,2.4c-7.3-14.1-16.2-34.1-7-29.4c8.4,4.2,11.7,18.7,13.1,29.6l37.6,0.9l100.4,2.4C582.2,275.8,590.6,249.5,573.9,237.9z"/>
	<path class="st2" d="M269.5,279.5c0,0-119.1-35-140,28.3c-20.9,63.4-23.3,149-23.3,149l88-103.1c0,0,82.1-3.2,87-31
		C285.9,295.1,269.5,279.5,269.5,279.5z"/>
	<path class="st2" d="M430.8,149.8c18.6,21.6,6.8,55.1-21.3,60.5l-60.6,11.3l-60.6,11.3c-28,5.2-51.2-21.8-41.7-48.7l49-39.8
		c12.4-10.1,16.2-27.3,9.1-41.6L287.5,68c9.5-26.9,44.4-33.4,63-11.8l40.1,46.8L430.8,149.8z"/>
	<path class="st2" d="M304.7,349.3L304.7,349.3c-38.6,0-70.2-31.6-70.2-70.2v-46.7c0-38.6,31.6-70.2,70.2-70.2l0,0
		c38.6,0,70.2,31.6,70.2,70.2v46.7C374.9,317.7,343.3,349.3,304.7,349.3z"/>
	<ellipse class="st2" cx="305.3" cy="347.9" rx="101.8" ry="145.8"/>
	<circle class="st3" cx="364.5" cy="175.2" r="10.4"/>
	<path class="st1" d="M405.3,321.3c0,0-181.2,20.9-100,172.4C405.3,504.7,433.1,332.1,405.3,321.3z"/>
	<path class="st2" d="M294.3,249.8c0,0-156-82.3-202.9,0S17,450.8,17,450.8l151.6-118.7c0,0,115.2,18.7,129.8-18.6
		C312.8,276.2,294.3,249.8,294.3,249.8z"/>
	<circle class="st4" cx="473.2" cy="221.7" r="4.7"/>
	<path class="st2" d="M272.5,556.5L272.5,556.5c-11.1,0-20.2-9.1-20.2-20.2v-65.2c0-11.1,9.1-20.2,20.2-20.2l0,0
		c11.1,0,20.2,9.1,20.2,20.2v65.2C292.7,547.4,283.6,556.5,272.5,556.5z"/>
	<path class="st1" d="M282.1,279.6c0,0-140.1-42.8-172.9-9.2c-5.9,6-73.3,135.1-73.3,135.1s-17,5.7-14.7-1.7
		c2.3-7.4,15.6-9.7,15.6-13.9c0-8.8,75.1-152.8,75.1-152.8s170.7,7,170.7,29.1C282.5,271.7,282.1,279.6,282.1,279.6z"/>
</g>
</svg>
