<?xml version="1.0" encoding="utf-8"?>
<!-- Generator: Adobe Illustrator 23.0.1, SVG Export Plug-In . SVG Version: 6.00 Build 0)  -->
<svg version="1.1" id="Layer_1" xmlns="http://www.w3.org/2000/svg" xmlns:xlink="http://www.w3.org/1999/xlink" x="0px" y="0px"
	 viewBox="0 0 599.8 599.8" style="enable-background:new 0 0 599.8 599.8;" xml:space="preserve">
<style type="text/css">
	.st0{fill:#993333;}
	.st1{fill:#CC6666;}
</style>
<title>wintonotitan</title>
<g id="Wintonotitan">
	<path class="st0" d="M277.3,352.1l-6.6-4.5l39-56.6L279,269.7l-48.7,70.7l0,0c-4.1,6.5-2.4,15.1,4,19.4l25.6,17.6
		c6.6,4.5,15.5,2.8,20-3.7l1.2-1.6C285.5,365.5,283.9,356.6,277.3,352.1z"/>
	<path class="st1" d="M333,349.1l-6.7,0.6l-4.8-58.5l-31.7,2.7l6,73l0,0c0.8,6.5,6.6,11.3,13.1,10.8l26.3-2.2c0,0,0,0,0.1,0
		c6.8-0.6,11.7-6.6,11.1-13.3l0,0l-0.1-1.8C345.7,353.6,339.8,348.6,333,349.1z"/>
	<path class="st0" d="M402.2,293.5c5.5-1.7,11.4,1.4,13.1,6.9l16.1,51.9c0,0,0,0,0,0.1c1.7,5.5-1.4,11.4-6.9,13.1l-3.1,0.9
		c0,0,0,0,0,0c-5.5,1.7-11.4-1.4-13.1-6.9l-16.1-51.9c0,0,0,0,0,0c-1.7-5.5,1.4-11.4,6.9-13.1L402.2,293.5
		C402.1,293.5,402.1,293.5,402.2,293.5z"/>
	<path class="st1" d="M438.6,281.2c6.2-1.8,12.7,1.7,14.5,7.8l18.1,58.1c0,0.1,0,0.2,0.1,0.2c1.8,6.1-1.7,12.6-7.9,14.4l-3.4,1
		c-0.1,0-0.2,0.1-0.2,0.1c-6.1,1.8-12.6-1.7-14.4-7.8l-18.1-58.1c0-0.1,0-0.1-0.1-0.2c-1.8-6.1,1.7-12.6,7.8-14.4l3.4-1
		C438.5,281.2,438.5,281.2,438.6,281.2z"/>
	<path class="st1" d="M545.7,272.3c0,0,2-5.1,14.8-5.1c8.5-0.1,16.9-1.5,25-3.9c0,0,14.1-13.4-15.4-16.6s-41,9-64.1,6.4
		c-23-2.5-42.3,21.8-60.8,14.8c-18.5-7-24.4-23-42.3-29.5c-17.9-6.4-33.9-13.5-103.7-16s-75.6-1.9-118.5,3.1s-59.6,5.8-98.1,18.5
		C44.1,257,23.6,263.4,17.2,264c0,0-14.8,14.1,10.3,10.3s89.1-14.8,110.8-14.8s65.9-3.9,100.6,20.5c3.1,11.5,55.8,34.6,100.6,40.4
		s90.3,24.4,103.1,14.8s30-21.1,49.9-26.3c19.9-5.2,39-6.4,53.8-1.4c14.8,5.1,30.1,14.8,30.1,14.8s14-6.4-11.5-17.9
		C539.3,292.7,545.7,272.3,545.7,272.3z"/>
	<circle cx="534.1" cy="259.5" r="4.9"/>
</g>
</svg>
