<?xml version="1.0" encoding="utf-8"?>
<!-- Generator: Adobe Illustrator 23.0.1, SVG Export Plug-In . SVG Version: 6.00 Build 0)  -->
<svg version="1.1" id="Layer_1" xmlns="http://www.w3.org/2000/svg" xmlns:xlink="http://www.w3.org/1999/xlink" x="0px" y="0px"
	 viewBox="0 0 103.8 103.5" style="enable-background:new 0 0 103.8 103.5;" xml:space="preserve">
<style type="text/css">
	.st0{fill:#76AC45;}
	.st1{fill:#4B1825;}
	.st2{fill:#1F407D;}
	.st3{fill:#3463AE;}
</style>
<title>btn-food-04</title>
<g>
	<path class="st0" d="M60,28.6c0,0,1.2-6,2.4-8.3c1.5,0,7.2,5.1,7.4,5.5s1.3,2.8,0.8,3.4c-1.2,1-2.6,1.9-3.9,2.8
		C66.7,32,60.3,27.8,60,28.6z"/>
	<path class="st1" d="M67.5,31.8c0,0,5.1-5,7.7-4.4v3.1c0,0-7.2,2.3-7.2,3"/>
	<circle class="st2" cx="51.9" cy="54.9" r="28.3"/>
	<path class="st3" d="M34.6,35.2c0,0,3.3-5.5,11.1-3.8C52,34.8,43,44.2,42,45s-10.2,3.6-9.5-4.7C32.5,40.3,34,35.7,34.6,35.2z"/>
	<ellipse class="st3" cx="32" cy="48.9" rx="2.3" ry="2"/>
	<path class="st3" d="M48.7,68.9c7.3,5.9,2.2,12.3-0.2,12.9s-10.4-0.9-16.5-8c0,0-0.4-5.9,2.5-7.8C37.8,63.9,44.8,65.8,48.7,68.9z"
		/>
</g>
</svg>
