<?xml version="1.0" encoding="utf-8"?>
<!-- Generator: Adobe Illustrator 23.0.1, SVG Export Plug-In . SVG Version: 6.00 Build 0)  -->
<svg version="1.1" id="Layer_1" xmlns="http://www.w3.org/2000/svg" xmlns:xlink="http://www.w3.org/1999/xlink" x="0px" y="0px"
	 viewBox="0 0 103.8 103.5" style="enable-background:new 0 0 103.8 103.5;" xml:space="preserve">
<style type="text/css">
	.st0{fill:#6A1F10;}
	.st1{fill:#FFF2A1;}
	.st2{fill:#8C692E;}
	.st3{fill:#FFF2E0;}
</style>
<title>btn-food-10</title>
<g>
	<path class="st0" d="M47,77.1c-12.5,0-20.7-2.3-24.5-6.8l-0.6-0.7l8.1-36.5l2.2,1.5c6.4,1.9,12.9,3.1,19.5,3.5
		c0.9,0,1.8,0.1,2.8,0.1c7.1,0,14.7-1.4,18-3.4l2.8-2.4l6.5,35.1v0.1c0,0.6-0.2,2.6-3.5,4.5c-3.7,2.1-10.2,3.6-19.2,4.4
		C54.8,76.9,50.7,77.1,47,77.1z"/>
	<path class="st1" d="M24,69.1l7.7-32.7c6.5,1.9,13.2,3.1,20,3.6c8.5,0.5,17.9-1.2,21.9-3.6L80,67.7c0,0,0.3,5-21,6.9
		S27.7,73.6,24,69.1z"/>
	<path class="st2" d="M29.5,45.7c0,0,0.5,1.4,2.9,1.2s4.6-2.3,7.1-1.4s2,2.3,3.9,3.5s4.2,1.3,6.4,1.7c1.7,0.5,3.4,1.3,4.8,2.5
		c0,0,2.4,1.4,3.9-0.1c1-0.5,2-1.2,2.9-1.9c0.9-0.6,1.6-1.4,2.2-2.3c0.7-1,1.8-1.8,3-2.2c0.3,0,3.8-0.3,4.6-1.2
		c0.7-0.5,1.3-1.1,1.8-1.7c0.1-0.4,1.7-0.3,1.9-0.1s-1.4-7.2-1.4-7.2H31.7L29.5,45.7z"/>
	<circle class="st3" cx="45.4" cy="48.8" r="0.3"/>
	<circle class="st3" cx="32.7" cy="45.5" r="0.3"/>
	<circle class="st3" cx="57.6" cy="51.9" r="0.3"/>
	<circle class="st3" cx="68.5" cy="45" r="0.3"/>
	<circle class="st3" cx="44.1" cy="48.1" r="0.8"/>
	<circle class="st3" cx="56.1" cy="51.8" r="0.8"/>
	<circle class="st3" cx="69.8" cy="43.1" r="0.7"/>
	<circle class="st3" cx="70.3" cy="44.6" r="0.8"/>
	<circle class="st3" cx="42.6" cy="47.3" r="0.3"/>
	<path class="st3" d="M33.2,38.2L33.2,38.2c0.4,0.1,0.7,0.5,0.6,0.9l-1.1,5.3c-0.1,0.4-0.5,0.7-0.9,0.6l0,0
		c-0.4-0.1-0.7-0.5-0.6-0.9l1.1-5.3C32.4,38.4,32.8,38.2,33.2,38.2z"/>
	<path class="st0" d="M52.1,38.6c-2.6,0-5.2-0.2-7.8-0.5C34.7,37.5,31.4,34.3,31,34l-0.9-0.9l0.6-1.2c0.6-1.1,1.4-2.1,2.5-2.7
		c2-1.2,4.4-1.9,6.7-2c4.5-0.5,9-0.8,13.5-0.7c3.2,0,6.1,0.1,7.8,0.1c0.7,0,1.3,0,1.6,0H63c1.9,0.1,3.8,0.4,5.7,0.9
		c4.3,1,5.5,2.3,6,3.1c0.5,0.9,0.6,1.9,0.2,2.9c-0.3,0.7-1.2,2.4-8.6,3.9C61.5,38.1,56.8,38.6,52.1,38.6L52.1,38.6z"/>
	<path class="st2" d="M32.3,32.7c0,0,3,3,12.1,3.6c11.1,1.6,27.5-1,28.8-3.7s-8.6-4.2-10.3-4.1c-1.1,0-14.2-0.7-22.9,0.5
		C34.3,29.4,32.7,31.9,32.3,32.7z"/>
</g>
</svg>
