<svg xmlns="http://www.w3.org/2000/svg" viewBox="0 0 103.82 103.47"><defs><style>.cls-1{fill:#fff;stroke:#630;stroke-miterlimit:10;stroke-width:3.3px;}.cls-2{fill:#76ac45;}.cls-3{fill:#4b1825;}.cls-4{fill:#1f407d;}.cls-5{fill:#3463ae;}</style></defs><title>btn-food-04</title><g id="Layer_2" data-name="Layer 2"><circle class="cls-1" cx="51.91" cy="51.74" r="49"/><path class="cls-2" d="M60,28.63s1.15-6,2.42-8.31c1.5,0,7.16,5.08,7.39,5.54s1.27,2.77.81,3.35A38,38,0,0,1,66.69,32S60.34,27.82,60,28.63Z"/><path class="cls-3" d="M67.54,31.75s5.08-5,7.74-4.39v3.12s-7.16,2.31-7.16,3"/><circle class="cls-4" cx="51.91" cy="54.89" r="28.26"/><path class="cls-5" d="M34.59,35.21s3.35-5.54,11.08-3.81C52,34.75,43,44.22,42,45s-10.16,3.58-9.47-4.74C32.51,40.29,34,35.67,34.59,35.21Z"/><ellipse class="cls-5" cx="32.05" cy="48.88" rx="2.25" ry="1.96"/><path class="cls-5" d="M48.67,68.93c7.28,5.89,2.2,12.35-.23,12.93s-10.39-.92-16.51-8c0,0-.42-5.92,2.54-7.85C37.82,63.86,44.81,65.8,48.67,68.93Z"/></g></svg>