<svg id="Layer_1" data-name="Layer 1" xmlns="http://www.w3.org/2000/svg" viewBox="0 0 60 60"><defs><style>.cls-1{fill:#76ac45;}.cls-2{fill:#4b1825;}.cls-3{fill:#f68f1e;}.cls-4{fill:#f9a61e;}</style></defs><title>btn-food-16</title><path class="cls-1" d="M41.14,22.88s-6.27-4.79-7.85-9.2a4.52,4.52,0,0,1-.21-2c.52-4.35,4-8.83,1.77-10.52C38.65,9.29,38,10.07,40.34,12S41.14,22.88,41.14,22.88Z"/><path class="cls-2" d="M41.14,21.68s5.91-5.13,9-4.54v3.23s-8.33,2.38-8.33,3.1"/><circle class="cls-3" cx="30" cy="38.73" r="20.14"/><path class="cls-4" d="M26,24.7s2.39-3.95,7.9-2.71c4.53,2.39-1.89,9.13-2.63,9.71S24,34.25,24.52,28.33A20,20,0,0,1,26,24.7Z"/><ellipse class="cls-4" cx="31.6" cy="33.88" rx="1.6" ry="1.4"/><path class="cls-4" d="M36.57,47c6.6-.93,7.5,4.86,6.62,6.41s-5.53,5-12.18,4.73c0,0-3.29-2.66-2.85-5.14C28.65,50.23,33.06,47.53,36.57,47Z"/></svg>