<svg id="Layer_1" data-name="Layer 1" xmlns="http://www.w3.org/2000/svg" viewBox="0 0 60 60"><defs><style>.cls-1{fill:#f0f8fc;}.cls-2{fill:#ac767a;}.cls-3{fill:#818080;}.cls-4{fill:#7e3549;}.cls-5{fill:#765b48;}.cls-6{fill:#3d383f;}</style></defs><title>btn-food-13</title><path class="cls-1" d="M28.61,18.67a7.22,7.22,0,0,0-3.56-3.15,11.58,11.58,0,0,1-4.45-3.28.37.37,0,0,0-.46-.14,5.32,5.32,0,0,1,1.22,1.38,6.79,6.79,0,0,0,1.12,1,13.6,13.6,0,0,0,3.1,1.56c1.28.35,2.91,2.88,2.91,2.88"/><path class="cls-1" d="M31,18.67a7.22,7.22,0,0,1,3.56-3.15A11.49,11.49,0,0,0,39,12.24a.37.37,0,0,1,.46-.14,5.53,5.53,0,0,0-1.22,1.38,6.41,6.41,0,0,1-1.12,1A13.76,13.76,0,0,1,34,16.06c-1.28.35-2.92,2.88-2.92,2.88"/><path d="M16.6,42.77a1.55,1.55,0,0,1-1.31-2.37c.79-1.26,4.22-6.38,5.46-7.25.84-1.28,3.06-3.89,4.34-5.36a1.52,1.52,0,0,1,1.16-.54,1.55,1.55,0,0,1,1.52,1.23,61.82,61.82,0,0,1,.48,9.32,1.56,1.56,0,0,1-.78,1.33,26.76,26.76,0,0,1-10.73,3.63Z"/><path class="cls-2" d="M16.65,41.8A25.87,25.87,0,0,0,27,38.29a.57.57,0,0,0,.29-.5,61,61,0,0,0-.46-9.11.58.58,0,0,0-1-.26c-1.15,1.32-3.54,4.13-4.31,5.34a.63.63,0,0,1-.19.17c-.78.47-3.9,4.87-5.21,7A.58.58,0,0,0,16.65,41.8Z"/><path d="M43.25,42.77H43.1a26.86,26.86,0,0,1-10.73-3.63,1.58,1.58,0,0,1-.77-1.33,61.82,61.82,0,0,1,.48-9.32,1.54,1.54,0,0,1,2.68-.69c1.27,1.47,3.5,4.09,4.34,5.36,1.24.87,4.67,6,5.46,7.25a1.55,1.55,0,0,1-1.31,2.37Z"/><path class="cls-2" d="M43.19,41.8a26,26,0,0,1-10.34-3.51.58.58,0,0,1-.28-.5A60.8,60.8,0,0,1,33,28.68a.58.58,0,0,1,1-.26c1.15,1.32,3.54,4.13,4.31,5.34a.73.73,0,0,0,.18.17c.79.47,3.91,4.87,5.22,7A.59.59,0,0,1,43.19,41.8Z"/><path d="M3,43.33A2.28,2.28,0,0,1,.73,42.21c-.78-1.5.56-3.72,1.08-4.49s2.64-4.28,14.43-10.84l.05,0c.85-.4,2.35-1.32,3.81-2.21C23.48,22.58,24.5,22,25.16,22l9.28-.22.22.11c1.92,1,18.88,9.55,21.47,12.78,2.45,3.07,3.58,4.76,3.35,6.07a1.72,1.72,0,0,1-.81,1.2c-.28.17-.86.53-5.45.53-1.19,0-7.16,0-7.9-.58a2.66,2.66,0,0,0-1.14-.55S41.48,41,40.72,40a2.29,2.29,0,0,1-.4-1.09,6.25,6.25,0,0,0-1.39-3c-1.48-1.91-5-5.59-6-6.67l-6.06.1A88,88,0,0,0,21,36.52a4.11,4.11,0,0,0-.79,2,3.26,3.26,0,0,1-1.92,2.72c-2.55,1.59-7.73,1.92-11.63,1.92l-2.2,0A7.72,7.72,0,0,1,3,43.33Z"/><path class="cls-3" d="M34.22,22.78S52.85,32.14,55.37,35.3s3.89,5.15,2.79,5.83-11.84.32-12.26,0a3.57,3.57,0,0,0-1.63-.73,6.31,6.31,0,0,1-2.79-.95c-.36-.47,0-1.74-1.78-4.05s-6.37-7-6.37-7l-6.89.11A96.17,96.17,0,0,0,20.18,36c-1.74,2.58-.05,3-2.42,4.47S9.87,42.37,4.35,42.19c-5.32,1.21-1.69-4-1.69-4s1-3.21,14.05-10.47c2.1-1,7.68-4.79,8.47-4.73Z"/><path class="cls-4" d="M27.07,30.72C27,28,25.32,27.4,25.39,24.25a5.91,5.91,0,0,1,.79-2.95,33.58,33.58,0,0,0,2.42-2.68,1.28,1.28,0,0,1,2.55,0,17.48,17.48,0,0,1,2.52,2.57,5.24,5.24,0,0,1,.71,3.05,30.65,30.65,0,0,1-1.05,4.89l-.1.71-.48,3.76L32.54,36c.19,0,.71,2.5.21,5.26a26.87,26.87,0,0,1-2.12,6.26.71.71,0,0,1-1.27,0,40.36,40.36,0,0,1-2.82-7.47,2.47,2.47,0,0,1,.21-1.58,6.74,6.74,0,0,0,.43-3Z"/><path class="cls-5" d="M28.85,29.13a1.45,1.45,0,0,0,0,1.75.87.87,0,0,0,0,1.34c-.61.39-.41,1.06,0,1.13-.83.56-.42,1.7-.1,1.71-.86.64-.39.92-.15,1-.58.39-.36,1.69-.05,1.69-.87.94-.32,2.46.09,2.48-.83,1.13-.27,2.06.09,2.17a.56.56,0,0,0,.12,1.08,11.87,11.87,0,0,0,.26,2.41c.2.33.34.24.39,0,.17.21.37.29.4,0,.22.22.35,0,.29-.25.33.31.25-2,.25-2a.81.81,0,0,0,.17-1.27s1.22-1.65-.07-2.27c0,0,1.32-2,0-2.33.71-.89,0-1.64-.23-1.64.5-.47.54-.89.32-.91.41-.37.56-1.68-.14-1.75.76-.71.18-1.11.07-1.1.44-.42.5-1.32-.12-1.39.76-.44,1-1.83.5-1.83Z"/><path class="cls-6" d="M32,29a9,9,0,0,1-3.87.09,1.48,1.48,0,0,1-1.1-.74c-1-1.77-.94-5.14-.6-6.31a2,2,0,0,0,.05-.24c.08-.6.87-1.33,1.64-1.9a3.16,3.16,0,0,1,3.54-.17,6.29,6.29,0,0,1,2,3.43C34.08,25.47,33.41,28.33,32,29Z"/></svg>