<svg id="Layer_1" data-name="Layer 1" xmlns="http://www.w3.org/2000/svg" viewBox="0 0 103.82 103.47"><defs><style>.cls-1{fill:#fff;stroke:#630;stroke-miterlimit:10;stroke-width:3.3px;}.cls-2{fill:#f16422;}.cls-3{fill:#020202;}.cls-4{fill:#f5f3b4;}.cls-5{fill:#ee3d23;}.cls-6{fill:#ed6950;}</style></defs><title>btn-food-02</title><circle class="cls-1" cx="51.91" cy="51.73" r="49"/><circle class="cls-2" cx="50.33" cy="64.81" r="0.78"/><circle class="cls-2" cx="51.72" cy="67" r="0.77"/><circle class="cls-2" cx="49.93" cy="66.64" r="0.43"/><path class="cls-3" d="M41.06,46.57a5.19,5.19,0,0,1-3.41-1.28l-5.58-4.91c-5.18-.08-7.69-3.23-8.36-5.1l-.12-.35-.05-.38c-.29-2.52-.08-6.67,4-8a11.71,11.71,0,0,1,2-3.11l1-1.1h1.48c8.47,0,9,5.82,9.25,8.31,0,.44.09,1,.16,1.33a37,37,0,0,0,3.18,3.4,6.84,6.84,0,0,1,0,9.73,5.11,5.11,0,0,1-3.64,1.51Z"/><path class="cls-3" d="M62.76,56.9a5.14,5.14,0,0,1,3.41,1.28l5.58,4.9c5.18.08,7.69,3.23,8.36,5.1l.13.36,0,.37c.29,2.52.08,6.67-4,8a11.39,11.39,0,0,1-2,3.11l-1,1.11H71.75c-8.47,0-9-5.82-9.24-8.31,0-.45-.1-1-.17-1.33a36.62,36.62,0,0,0-3.18-3.41,6.83,6.83,0,0,1,0-9.72,5.09,5.09,0,0,1,3.64-1.51Z"/><path class="cls-4" d="M61.47,65.78A36.94,36.94,0,0,1,65.31,70c1.19,2.86-1,7.87,6.44,7.87,0,0,1.91-2.14,1.67-3.34s4.3,1,3.58-5.25c0,0-1.19-3.34-6.44-2.86L64,60.66a1.85,1.85,0,0,0-2.54.08h0A3.54,3.54,0,0,0,61.47,65.78Z"/><path d="M54.7,74.29a15.22,15.22,0,0,1-10.25-3.75L43.87,70l-.3-.72c-1.33-3.29-3.38-6.83-4.28-7.43-.46-.26-1-.5-1.59-.76a17.16,17.16,0,0,1-7.85-6.19c-1.81-2.57-2-6.37-.47-11.61a44.93,44.93,0,0,1,2.34-6.27l.16-.33.23-.29c.3-.38,7.4-9.24,17.16-9.24a16.26,16.26,0,0,1,1.85.11c1.37,0,4.71.64,8.54,5.24l.44.52.15.52a24.64,24.64,0,0,0,3.48,3c4.46,3.48,10.56,8.25,11.43,15.55.54,4.54-1.11,9.28-4.9,14.09A19.64,19.64,0,0,1,54.7,74.29Z"/><path class="cls-5" d="M50.93,30.59s2.62-.23,6.2,4.06c1.43,4.78,24.11,12.41,10.5,29.6-5,6.92-15,9.07-21,3.82,0,0-3.1-7.64-5.73-9.07s-5.49-1.91-8.35-6,2.14-14.56,2.14-14.56S41.86,29.4,50.93,30.59Z"/><path class="cls-6" d="M32.55,53s6.68,4.78,16.71-3.1S54.51,32.5,54.51,32.5s-4.3-4.05-13.13.48-10.5,14.8-9.31,18.14"/><path class="cls-4" d="M42.35,37.69a36.94,36.94,0,0,1-3.84-4.23c-1.19-2.87,1-7.88-6.44-7.88,0,0-1.91,2.15-1.67,3.34s-4.3-1-3.58,5.26c0,0,1.19,3.34,6.44,2.86l6.57,5.77a1.86,1.86,0,0,0,2.54-.08h0A3.54,3.54,0,0,0,42.35,37.69Z"/><circle class="cls-6" cx="51.33" cy="64.55" r="1.08"/><circle class="cls-6" cx="53.26" cy="67.58" r="1.06"/><circle class="cls-6" cx="50.79" cy="67.08" r="0.59"/></svg>