<svg xmlns="http://www.w3.org/2000/svg" viewBox="0 0 103.82 103.47"><defs><style>.cls-1{fill:#fff;stroke:#630;stroke-width:3.3px;}.cls-1,.cls-3{stroke-miterlimit:10;}.cls-2{fill:#37b34a;}.cls-3{fill:none;stroke:#37b34a;stroke-width:0.65px;}</style></defs><title>btn-food-05</title><g id="Layer_2" data-name="Layer 2"><circle class="cls-1" cx="52.91" cy="51.74" r="49"/><path class="cls-2" d="M21,45.25S49.38,49.8,42.3,35.11"/><path class="cls-2" d="M21,45.25S34.87,20.6,42.3,35.11"/><path class="cls-2" d="M32.18,61.12S60.87,62.6,52.25,48.75"/><path class="cls-2" d="M32.18,61.12s11.12-26,20.07-12.37"/><path class="cls-2" d="M46.85,76.55s28.69-1.37,18.75-14.3"/><path class="cls-2" d="M46.85,76.55s8.49-27,18.75-14.3"/><path class="cls-2" d="M64,25.53S50.91,51.1,43.25,36.7"/><path class="cls-2" d="M64,25.53S35.93,22.13,43.25,36.7"/><path class="cls-2" d="M86.57,49.23S79.13,77,68.61,64.52"/><path class="cls-2" d="M86.57,49.23s-28.17,2.57-18,15.29"/><path class="cls-2" d="M75.62,37.22s-9.29,27.19-18.94,14"/><path class="cls-2" d="M75.62,37.22s-28.27.67-18.94,14"/><path class="cls-3" d="M47.71,21.33S17.15,26.24,85.06,79.27"/></g></svg>