<svg xmlns="http://www.w3.org/2000/svg" viewBox="0 0 103.82 103.47"><defs><style>.cls-1,.cls-3{fill:#fff;}.cls-1{stroke:#630;stroke-miterlimit:10;stroke-width:3.3px;}.cls-2{fill:#f4ce93;}.cls-4{fill:#5a4933;}</style></defs><title>btn-food-09</title><g id="Layer_2" data-name="Layer 2"><circle class="cls-1" cx="52.91" cy="51.74" r="49"/><path d="M28.5,79.58c-2.51,0-3.35-.31-3.84-.76-.68-.65-1.6-2.08-1.69-7,0-2.51.16-4.76.16-4.86L24,58.77,81.54,40.38l.23,1.5c0,.06,1,6.64,1.45,8.83.48,2.39-.14,7.89-.21,8.51l-.05.47-3.74,3.49h0C72,69.66,60.64,73.62,52.39,75.81a126.8,126.8,0,0,1-13.84,2.86,73.07,73.07,0,0,1-10,.91Z"/><path class="cls-2" d="M24.42,67.06s-.78,9,1.13,10.81,37.71-2.14,52.8-15.65l3.37-3.15s.68-5.85.23-8.1-1.47-8.9-1.47-8.9L25.21,59.75Z"/><path d="M71.06,50.73a5.21,5.21,0,0,1-4-1.51,4.88,4.88,0,0,1-1.13-3.87l0-.34.19-.29a4.75,4.75,0,0,0,.57-1,4.55,4.55,0,0,1-3-1.8l-.39.12a5,5,0,0,1-1.72.32A9.26,9.26,0,0,1,59,41.85l-.08,0-.07,0a8.91,8.91,0,0,1-3.61-3.28,5.37,5.37,0,0,0-1.5-.21,6.6,6.6,0,0,0-2.16.38c-.55.19-1.05.39-1.52.57a13.28,13.28,0,0,1-5.49,1.19,20,20,0,0,1-2.1-.12c-2.42-.26-4-1-4.61-2.34A3.25,3.25,0,0,1,38,35l0-.07,0-.06c.08-.1,2-2.5,4.37-5,3.44-3.59,6.09-5.52,8.12-5.9l.11,0h.13c3,0,6.88,1.74,7.64,2.1a53.54,53.54,0,0,0,7.16,1.4h.21c1.42,0,6.91,2.16,9.61,3.31,8.32,3.51,9.11,4.88,9.37,5.33l.07.13,0,.15a6.85,6.85,0,0,1-.33,4,15.79,15.79,0,0,0-.67,6.39,3.05,3.05,0,0,1-.16,2.6,2.13,2.13,0,0,1-1.86,1.24h0c-.62,0-1.48-.29-2.11-1.68l0-.1,0-.11c-.33-1.28-1.1-3.43-2.49-3.43a3.61,3.61,0,0,0-1.83.68c-.17.43-.45,1.14-.79,1.86-1,2-1.66,2.86-2.59,3A9,9,0,0,1,71.06,50.73Z"/><path class="cls-3" d="M39.06,35.66S46.6,26,50.77,25.19c3,0,7.2,2,7.2,2s6.3,1.58,7.77,1.47,16.66,5.85,17.9,8c.67,2.25-1.69,4.62-1,10.36.68,1-.67,3.49-1.68,1.24C80.26,45.68,78.57,42,74.29,45c0,0-1.57,4.28-2.47,4.39s-5,.34-4.62-3.94c1.69-2.48.56-3-.22-3s-2.37-.9-2.48-1.91c-2,0-1.8,1.12-5.18.11a8.16,8.16,0,0,1-3.26-3.15,6.8,6.8,0,0,0-5,0c-2.92,1-4.16,2-8.55,1.57C37.37,38.47,39.06,35.66,39.06,35.66Z"/><path d="M23.75,67c-1.42,0-2.89-1.19-3-3.87a15.64,15.64,0,0,1,1.12-5,18.21,18.21,0,0,1,1.61-3.52c.39-.48,7.83-10.48,12.75-17.1l1.25-1.68.94,1.87c.54,1.07,3.29,1.79,6.85,1.79A15,15,0,0,0,47,39.37a40.84,40.84,0,0,0,4.88-1.79l.12,0,.12,0a6.54,6.54,0,0,1,1.34-.15,4.47,4.47,0,0,1,3.69,2,4.2,4.2,0,0,0,1.62,1.37l.06,0,.07,0a4.82,4.82,0,0,0,2.31.5,7.93,7.93,0,0,0,2.07-.27l1-.29.48,1a3.28,3.28,0,0,0,1.56,1.08l1.27.44-.49,1.26a6.66,6.66,0,0,0-.12,3l.42,2.21L65.34,49a6.85,6.85,0,0,0-2.21-.44,2.46,2.46,0,0,0-2.5,1.73.52.52,0,0,1-.07.15,22.8,22.8,0,0,0,0,4.45c.5,1.25.15,4.74.15,4.77A2.69,2.69,0,0,1,58.12,62a3.4,3.4,0,0,1-1.62-.45c-1.13-.6-1.73-2-1.79-4A16.19,16.19,0,0,1,55,54.28c.08-.5-.52-2.45-1.45-2.76a3,3,0,0,0-.86-.13,5.75,5.75,0,0,0-1.64.32,6.35,6.35,0,0,1-.75.19,23.2,23.2,0,0,0-3.42,2.41,3.72,3.72,0,0,1-2.58.73c-.78,0-1.7-.08-2.67-.17l-.25,0h-.18a2.73,2.73,0,0,0-2,1,19.35,19.35,0,0,1-.52,5.1,2.36,2.36,0,0,1-2.24,2,2.32,2.32,0,0,1-2.24-2,2.7,2.7,0,0,0-1.61-2.09,9.11,9.11,0,0,0-1.5-.15,3,3,0,0,0-2.14.82c-.28.2-.59.43-1,.66-.66.41-.83,1.9-.94,2.88a5.35,5.35,0,0,1-.45,2A3.28,3.28,0,0,1,23.75,67Z"/><path class="cls-4" d="M37.29,38.25S24.87,54.94,24.5,55.39s-2.52,5.36-2.44,7.7c.1,2.9,2.22,3.45,3.38,1.35.48-.89.07-4.24,1.84-5.33S29.42,57,33,57.65c2,1.12,2.29,2.17,2.44,3.11s1.53,1.43,1.95-.15a16.71,16.71,0,0,0,.45-4.84c-.15-.53,1.5-2.4,3.6-2.21s3.9.37,4.5-.19S49.38,50.7,50,50.63s2.17-.9,3.9-.34,2.51,3.3,2.32,4.24-.75,5,.87,5.86,2.25-.38,2.32-.94a15.11,15.11,0,0,0-.07-4.13,18.41,18.41,0,0,1,0-5.4c.22-.38,1.2-4,6.42-2.18A8,8,0,0,1,66,44a4.68,4.68,0,0,1-2.29-1.73s-3.07.9-5.36-.34C55.72,40.91,56,38,52.42,38.77a45.51,45.51,0,0,1-5.18,1.88C46.08,40.84,38.7,41.06,37.29,38.25Z"/></g></svg>