<svg id="Layer_1" data-name="Layer 1" xmlns="http://www.w3.org/2000/svg" viewBox="0 0 103.8 103.5"><defs><style>.cls-1{fill:#fff;stroke:#630;stroke-miterlimit:10;stroke-width:3.3px;}.cls-2{fill:#050505;}.cls-3{fill:#d39229;}.cls-4{fill:#eaaa39;}.cls-5{fill:#f9f9f9;}</style></defs><title>btn-food-11</title><circle class="cls-1" cx="51.9" cy="51.75" r="49"/><rect class="cls-2" x="35.03" y="16.99" width="33.75" height="33.75" transform="translate(112.54 21.1) rotate(135)"/><rect class="cls-3" x="36.14" y="18.1" width="31.52" height="31.52" transform="translate(-8.74 46.62) rotate(-45)"/><path class="cls-2" d="M61,93.5c-1.27,0-5.06-2.83-5.55-4a1.46,1.46,0,0,1,.08-1.39,2.65,2.65,0,0,1,1.77-1l-.55-4c-.28,1.51-.84,2.61-1.93,3l-.41.15L54,86.13a3.91,3.91,0,0,1-2.12-2.72,3.82,3.82,0,0,1-2,2.24l-.4.17-.42-.14a3.07,3.07,0,0,1-1.8-2.44l-.54,3.89a2.65,2.65,0,0,1,1.77,1,1.46,1.46,0,0,1,.08,1.39c-.5,1.12-4.28,4-5.55,4a1.17,1.17,0,0,1-.81-.29,13.94,13.94,0,0,1-2.48-5.4,1.48,1.48,0,0,1,.36-1.15,1.68,1.68,0,0,1,1.3-.52,3.4,3.4,0,0,1,.94.14,108.46,108.46,0,0,0,.87-17.56c0-.63-1.24-.65-1.38-.65a2.83,2.83,0,0,0-2.5,1.18A47.6,47.6,0,0,0,37,76.17a1.82,1.82,0,0,1-3.55-.2c-.41-2.8-.66-6.76.5-9.76,1.48-3.82,5.58-5.44,7.47-5.81.52-2.13.76-10.22.93-16.24.23-7.84.45-15.25,1.13-18.1.91-3.85,2.41-8,8.67-8.1h.08l.89.1c5.91.15,6.63,3.17,7.62,7.35l0,.13c.68,2.86.86,10.33,1,18.24.15,6.43.36,15.22,1,16.52a6.78,6.78,0,0,0,1.09.59,10.92,10.92,0,0,1,5.21,4.39A26.25,26.25,0,0,1,71.7,74a1.86,1.86,0,0,1-1.87,2,1.86,1.86,0,0,1-1.59-.9c-.81-1.35-1.67-2.72-2.54-4.07l0-.08,0-.09a4.32,4.32,0,0,0-3.8-2.5c-.16,0-.92,0-1,.4a107.32,107.32,0,0,0,.87,17.56,3.4,3.4,0,0,1,.94-.14,1.68,1.68,0,0,1,1.3.52,1.48,1.48,0,0,1,.36,1.15,13.94,13.94,0,0,1-2.48,5.4A1.17,1.17,0,0,1,61,93.5Z"/><path class="cls-4" d="M52.17,19.07c-5.15.11-6.63,3.07-7.62,7.25-1.37,5.75-.85,33.16-2.36,35.11-.83-.07-5.7,1.29-7.21,5.18-1.08,2.79-.82,6.56-.43,9.19a.7.7,0,0,0,1.36.08,49.94,49.94,0,0,1,2.41-7.09c1-2.26,5.85-2.58,6-.14.42,6.3-.68,18.13-1.17,19.12,0,0-1.76-.87-2.23-.36s1.61,4.61,2,5,4.25-2.4,4.63-3.26-2.09-1-2.09-1l2.22-16c.85,3.93-.54,11.73,1.76,12.53,2.76-1.2,1.78-6.93,1.47-10a1.48,1.48,0,0,1,.78-1,.76.76,0,0,1,.66,0,1.48,1.48,0,0,1,.78,1c-.32,3.1-1.42,9.31,1.34,10.52,2.29-.81,1-9.09,1.89-13l2.22,16s-2.48.15-2.09,1,4.22,3.6,4.63,3.26,2.47-4.44,2-5-2.23.36-2.23.36c-.49-1-1.59-12.82-1.17-19.12.16-2.44,5.44-1.75,6.89,1.74,1,1.59,1.9,3,2.56,4.09a.74.74,0,0,0,1.38-.43,25.4,25.4,0,0,0-2.48-8.21C66,62.29,62.64,62,61.85,61c-1.51-2-.81-29.42-2.18-35.17-1-4.17-1.49-6.5-6.63-6.61Z"/><circle class="cls-5" cx="47.64" cy="52.29" r="1.95"/><path d="M47.59,50.66s-1.3,1-.17,3.2l.11.19a.14.14,0,0,0,.25,0l.13-.22c1.13-2.2-.09-3.17-.09-3.17h0a.14.14,0,0,0-.23,0Z"/><path class="cls-3" d="M52,27s-6.79,5.24-.9,16.69l.58,1a.74.74,0,0,0,1.29,0l.67-1.17C59.51,32.07,53.14,27,53.14,27h0A.73.73,0,0,0,52,27Z"/><circle class="cls-5" cx="56.57" cy="52.29" r="1.95"/><path d="M56.53,50.66s-1.3,1-.17,3.2l.11.19a.14.14,0,0,0,.25,0l.12-.22c1.13-2.2-.09-3.17-.09-3.17h0a.13.13,0,0,0-.22,0Z"/></svg>