<svg id="Layer_1" data-name="Layer 1" xmlns="http://www.w3.org/2000/svg" viewBox="0 0 103.82 103.47"><defs><style>.cls-1{fill:#fff;stroke:#630;stroke-width:3.3px;}.cls-1,.cls-2,.cls-3{stroke-miterlimit:10;}.cls-2{fill:#f5f3b4;}.cls-2,.cls-3{stroke:#070707;stroke-width:1.32px;}.cls-3{fill:#c85127;}.cls-4{fill:#f16422;}</style></defs><title>btn-food-01</title><circle class="cls-1" cx="51.91" cy="51.73" r="49"/><path class="cls-2" d="M60.33,39.44l7-8s-1.66-5.77,3.54-8.3c4.51-2.19,5.81,2.38,6.08,3.64a2.86,2.86,0,0,0,.63,1c1.45.73,5,3.36,2.08,6.92C77.31,37,73.3,35.84,73.3,35.84l-8.42,7.67"/><path class="cls-3" d="M62.68,34.72s-5.41,8.57-19.52,10.71c0,0-10.34-.83-15.58,5.73s-7.51,16.3,2.17,25.46,23.12,1.54,25.76-4c4.8-5.13,3-13.91,3-13.91s2.7-10.46,11-17.7l-2.88.11.89-1.86-2.59-.17.6-2.58-2.87.4Z"/><circle class="cls-4" cx="46.53" cy="73.73" r="0.73"/><circle class="cls-4" cx="47.05" cy="71.36" r="0.72"/><circle class="cls-4" cx="48" cy="72.78" r="0.4"/></svg>