<?xml version="1.0" encoding="utf-8"?>
<!-- Generator: Adobe Illustrator 23.0.1, SVG Export Plug-In . SVG Version: 6.00 Build 0)  -->
<svg version="1.1" id="Layer_1" xmlns="http://www.w3.org/2000/svg" xmlns:xlink="http://www.w3.org/1999/xlink" x="0px" y="0px"
	 viewBox="0 0 103.8 103.5" style="enable-background:new 0 0 103.8 103.5;" xml:space="preserve">
<style type="text/css">
	.st0{fill:#F4CE93;}
	.st1{fill:#FFFFFF;}
	.st2{fill:#5A4933;}
</style>
<title>btn-food-09</title>
<g>
	<path d="M28.5,79.6c-2.5,0-3.4-0.3-3.8-0.8c-0.7-0.7-1.6-2.1-1.7-7c0-2.5,0.2-4.8,0.2-4.9l0.9-8.2l57.5-18.4l0.2,1.5
		c0,0.1,1,6.6,1.4,8.8c0.5,2.4-0.1,7.9-0.2,8.5L83,59.7l-3.7,3.5l0,0C72,69.7,60.6,73.6,52.4,75.8c-4.6,1.2-9.2,2.2-13.8,2.9
		C35.2,79.2,31.9,79.5,28.5,79.6L28.5,79.6z"/>
	<path class="st0" d="M24.4,67.1c0,0-0.8,9,1.1,10.8s37.7-2.1,52.8-15.7l3.4-3.2c0,0,0.7-5.8,0.2-8.1s-1.5-8.9-1.5-8.9L25.2,59.8
		L24.4,67.1z"/>
	<path d="M71.1,50.7c-1.5,0.1-2.9-0.5-4-1.5c-0.9-1.1-1.3-2.5-1.1-3.9V45l0.2-0.3c0.2-0.3,0.4-0.6,0.6-1c-1.2-0.2-2.3-0.8-3-1.8
		L63.3,42c-0.6,0.2-1.1,0.3-1.7,0.3c-0.9,0-1.7-0.2-2.6-0.5h-0.1h-0.1c-1.5-0.7-2.7-1.9-3.6-3.3c-0.5-0.1-1-0.2-1.5-0.2
		c-0.7,0-1.5,0.1-2.2,0.4c-0.5,0.2-1,0.4-1.5,0.6c-1.7,0.8-3.6,1.2-5.5,1.2c-0.7,0-1.4,0-2.1-0.1c-2.4-0.3-4-1-4.6-2.3
		c-0.5-1-0.4-2.1,0.1-3v-0.1v-0.1c0.1-0.1,2-2.5,4.4-5c3.4-3.6,6.1-5.5,8.1-5.9h0.1h0.1c3,0,6.9,1.7,7.6,2.1
		c2.4,0.6,4.7,1.1,7.2,1.4h0.2c1.4,0,6.9,2.2,9.6,3.3c8.3,3.5,9.1,4.9,9.4,5.3l0.1,0.1v0.2c0.3,1.3,0.2,2.7-0.3,4
		c-0.7,2.1-0.9,4.2-0.7,6.4c0.3,0.8,0.3,1.8-0.2,2.6c-0.3,0.7-1.1,1.2-1.9,1.2l0,0c-0.6,0-1.5-0.3-2.1-1.7v-0.1v-0.1
		c-0.3-1.3-1.1-3.4-2.5-3.4c-0.7,0.1-1.3,0.3-1.8,0.7c-0.2,0.4-0.4,1.1-0.8,1.9c-1,2-1.7,2.9-2.6,3C71.7,50.8,71.4,50.8,71.1,50.7z"
		/>
	<path class="st1" d="M39.1,35.7c0,0,7.5-9.7,11.7-10.5c3,0,7.2,2,7.2,2s6.3,1.6,7.8,1.5s16.7,5.8,17.9,8c0.7,2.3-1.7,4.6-1,10.4
		c0.7,1-0.7,3.5-1.7,1.2c-0.7-2.6-2.4-6.3-6.7-3.3c0,0-1.6,4.3-2.5,4.4s-5,0.3-4.6-3.9c1.7-2.5,0.6-3-0.2-3s-2.4-0.9-2.5-1.9
		c-2,0-1.8,1.1-5.2,0.1c-1.4-0.7-2.5-1.8-3.3-3.2c-1.6-0.6-3.4-0.6-5,0c-2.9,1-4.2,2-8.5,1.6C37.4,38.5,39.1,35.7,39.1,35.7z"/>
	<path d="M23.8,67c-1.4,0-2.9-1.2-3-3.9c0.1-1.7,0.5-3.4,1.1-5c0.4-1.2,0.9-2.4,1.6-3.5c0.4-0.5,7.8-10.5,12.8-17.1l1.3-1.7l0.9,1.9
		c0.5,1.1,3.3,1.8,6.8,1.8c0.6,0,1.2,0,1.7-0.1c1.7-0.5,3.3-1.1,4.9-1.8H52h0.1c0.4-0.1,0.9-0.1,1.3-0.2c1.5,0,2.9,0.8,3.7,2
		c0.4,0.6,1,1.1,1.6,1.4h0.1h0.1c0.7,0.4,1.5,0.5,2.3,0.5c0.7,0,1.4-0.1,2.1-0.3l1-0.3l0.5,1c0.4,0.5,0.9,0.9,1.6,1.1l1.3,0.4
		l-0.5,1.3c-0.3,1-0.3,2-0.1,3l0.4,2.2L65.3,49c-0.7-0.3-1.5-0.4-2.2-0.4c-1.1-0.1-2.2,0.6-2.5,1.7c0,0.1,0,0.1-0.1,0.2
		c-0.1,1.5-0.1,3,0,4.5c0.5,1.3,0.2,4.7,0.2,4.8C60.5,61,59.4,62,58.1,62c-0.6,0-1.1-0.2-1.6-0.5c-1.1-0.6-1.7-2-1.8-4
		c0-1.1,0.1-2.2,0.3-3.3c0.1-0.5-0.5-2.5-1.5-2.8c-0.3-0.1-0.6-0.1-0.9-0.1c-0.6,0-1.1,0.1-1.6,0.3c-0.2,0.1-0.5,0.1-0.8,0.2
		c-1.2,0.7-2.4,1.5-3.4,2.4c-0.7,0.6-1.7,0.8-2.6,0.7c-0.8,0-1.7-0.1-2.7-0.2h-0.3h-0.2c-0.8,0-1.5,0.4-2,1c0.1,1.7-0.1,3.4-0.5,5.1
		c-0.2,1.1-1.1,2-2.2,2c-1.1,0-2.1-0.9-2.2-2c-0.1-0.9-0.7-1.7-1.6-2.1c-0.5-0.1-1-0.1-1.5-0.2c-0.8,0-1.6,0.3-2.1,0.8
		c-0.3,0.2-0.6,0.4-1,0.7c-0.7,0.4-0.8,1.9-0.9,2.9c0,0.7-0.2,1.4-0.5,2C26.1,66.2,25,66.9,23.8,67z"/>
	<path class="st2" d="M37.3,38.3c0,0-12.4,16.7-12.8,17.1s-2.5,5.4-2.4,7.7c0.1,2.9,2.2,3.5,3.4,1.4c0.5-0.9,0.1-4.2,1.8-5.3
		s2.1-2.1,5.7-1.5c2,1.1,2.3,2.2,2.4,3.1s1.5,1.4,2-0.2c0.4-1.6,0.5-3.2,0.5-4.8c-0.2-0.5,1.5-2.4,3.6-2.2s3.9,0.4,4.5-0.2
		s3.4-2.7,4.1-2.7s2.2-0.9,3.9-0.3s2.5,3.3,2.3,4.2s-0.8,5,0.9,5.9s2.3-0.4,2.3-0.9c0.2-1.4,0.1-2.8-0.1-4.1c-0.3-1.8-0.3-3.6,0-5.4
		c0.2-0.4,1.2-4,6.4-2.2c-0.2-1.2-0.1-2.5,0.2-3.7c-0.9-0.3-1.7-0.9-2.3-1.7c0,0-3.1,0.9-5.4-0.3c-2.6-1-2.3-3.9-5.9-3.2
		c-1.7,0.7-3.4,1.4-5.2,1.9C46.1,40.8,38.7,41.1,37.3,38.3z"/>
</g>
</svg>
