<svg id="Layer_1" data-name="Layer 1" xmlns="http://www.w3.org/2000/svg" viewBox="0 0 103.8 103.5"><defs><style>.cls-1,.cls-4{fill:#fff;}.cls-1{stroke:#630;stroke-miterlimit:10;stroke-width:3.3px;}.cls-2{fill:#1cc9d1;}.cls-3{fill:#7583ba;}</style></defs><title>btn-food-12</title><circle class="cls-1" cx="51.9" cy="51.75" r="49"/><path d="M54.93,44.54l.09-.45c0-.21,1.08-5.17,4.17-8.14a1.79,1.79,0,0,0-.69-3,17.74,17.74,0,0,0-2.74-.64C46.27,30.88,41.24,38.57,41,38.9l-.25.38-1.56-1,.25-.39c.06-.09,5.92-9,16.62-7.39a19.15,19.15,0,0,1,3,.69,3.64,3.64,0,0,1,1.42,6.08c-2.66,2.55-3.64,7.13-3.64,7.18l-.1.45Z"/><path d="M56.37,44.37l-.9-.19c0-.2,1.05-5,4-7.9a2.25,2.25,0,0,0-.88-3.76c-11.57-3.66-17.74,5.73-18,6.13l-.78-.5c.07-.1,6.79-10.38,19-6.51A3.18,3.18,0,0,1,60.15,37C57.37,39.62,56.38,44.32,56.37,44.37Z"/><path class="cls-2" d="M40.25,38.4s6.46-10.13,18.52-6.32a2.71,2.71,0,0,1,1.06,4.53c-2.93,2.81-3.91,7.67-3.91,7.67"/><path d="M86.31,73.19c-.61,0-1.31,0-2.13-.06a51.38,51.38,0,0,1-9.47-1.39c-4-1-9-3.86-9.73-4.83a22.27,22.27,0,0,0-5.09-4.24,7.63,7.63,0,0,1-.92-.5l.72-1.84c.79,0,5,3.22,6.73,5.43A28,28,0,0,0,75.16,70,47.27,47.27,0,0,0,87.4,71.32l-1.63-1C79,66,72.34,61.39,72.82,57.21c.4-3.5,6.71-5.44,14.28-7.44,1.43-.38,3-.8,3.92-1.12-1.88-.8-7.37-1.91-13.2-1.23a45.06,45.06,0,0,0-13.88,4.46l-.87-1.62a45.85,45.85,0,0,1,14.54-4.67c6.75-.79,14.3.65,15.52,2.34A1.26,1.26,0,0,1,93.35,49c-.13,1-1.57,1.42-5.78,2.54C83.16,52.72,75,54.89,74.65,57.43c-.39,3.37,8,8.72,12.11,11.29,2.93,1.86,3.49,2.23,3.6,2.89a1,1,0,0,1-.21.79C90,72.65,89.51,73.19,86.31,73.19Z"/><path class="cls-2" d="M63.51,51.07A45.78,45.78,0,0,1,77.72,46.5c7.44-.87,15.29,1.12,14.72,2.33,0,1.35-18.14,3.63-18.7,8.49-.65,5.6,16.26,13.8,15.7,14.5s-8.43.57-14.5-1c-3.93-1-8.66-3.78-9.24-4.51-1.49-1.85-5.12-4.55-5.61-4.55"/><path d="M36,68.91a16.15,16.15,0,0,1-2.47-.17c-4.3-.64-10.76-3.32-13.34-4.44-2-.85-8.38-3.73-9.06-5l-.43-.83,1.12-.35c.53-.16,4.66-1.6,5.41-1.88l1.11,1.65c-.48.18-2.47.88-3.95,1.39,3.37,2,14.23,6.9,19.63,7.7,7.66,1.14,23.45-5.22,27.2-7.68,2.86-1.87,2.7-2.75,2.45-4.07,0-.23-.08-.45-.11-.69-.46-1.62-11.21-13.65-19.28-15.42-8.52-1.86-26.2,5.34-28.09,8.14-.35.53-.7,1-1,1.48-1.61,2.25.64,5.85,1.2,8.61l-5.77-1.85c-.69-3.35.66-5.23,2.36-7.62.32-.45.66-.92,1-1.44,2.49-3.7,21.62-11.14,31-9.09,9.58,2.1,20.84,15.3,21.07,17a6,6,0,0,0,.1.61c.27,1.49.58,3.18-3.28,5.71C59.34,63,45.22,68.91,36,68.91Z"/><path class="cls-2" d="M17.79,57c-.76.28-4.92,1.73-5.49,1.9.67,1.31,14.89,7.94,21.48,8.92C42,69.06,58.19,62.47,62.05,60s3-3.83,2.75-5.55c-.19-1.46-11.24-14.26-20.17-16.21S17.26,43.56,15.08,46.8s-4,4.86-3.26,8.52"/><path class="cls-3" d="M36.3,68a13.41,13.41,0,0,0-1.3-3.7c-.9-1.53,4-4.89,4.1-6.71s-4-5-4.3-6.42S37.5,47,39,44.07s-4-5.58-4-5.58l-1.91.4-3.65,1s5.51,2.11,4,5.08-4.5,5.66-4.2,7.09,4.4,4.6,4.3,6.43-5,5.17-4.1,6.7a11.71,11.71,0,0,0,1.55,2.19L34,68Z"/><path class="cls-3" d="M49,65.43a4.12,4.12,0,0,1-2.1-1.89c-.91-1.53,4-4.89,4.1-6.71s-4-5-4.3-6.42,2.7-4.12,4.2-7.09-5.21-4.88-5.21-4.88l-2.6-.7-2.8.2s6.51,3.27,5,6.24-4.5,5.66-4.2,7.09,4.4,4.6,4.3,6.42-5,5.18-4.1,6.71a7.35,7.35,0,0,0,2.65,2.44l2.81-.56Z"/><path class="cls-4" d="M19.05,52.29a2.41,2.41,0,1,1,2.4-2.41A2.41,2.41,0,0,1,19.05,52.29Z"/><circle cx="19.05" cy="49.88" r="1.84"/></svg>