<svg id="Layer_1" data-name="Layer 1" xmlns="http://www.w3.org/2000/svg" viewBox="0 0 103.82 103.47"><defs><style>.cls-1{fill:#fff;stroke:#630;stroke-miterlimit:10;stroke-width:3.3px;}.cls-2{fill:#e89c25;}.cls-3{fill:#7a482e;}.cls-4{fill:#bb7e1f;}.cls-5{fill:#623a25;}</style></defs><title>btn-food-03</title><circle class="cls-1" cx="51.91" cy="51.73" r="49"/><path class="cls-2" d="M51.91,23.19A28.54,28.54,0,1,0,80.45,51.73,28.54,28.54,0,0,0,51.91,23.19Zm0,39.25a10.71,10.71,0,1,1,10.7-10.71A10.71,10.71,0,0,1,51.91,62.44Z"/><path class="cls-3" d="M80.21,55.24a28.83,28.83,0,0,0,.24-3.5,28.54,28.54,0,1,0-57.08,0c0,.59.05,1.16.09,1.74A24.82,24.82,0,0,0,27,53.11c8-1.49,8.8-3.81,15.08-5.68a10.7,10.7,0,0,1,20.5,4.3V52C67.53,54.83,78.5,55.2,80.21,55.24Z"/><path class="cls-4" d="M64.4,50a10.7,10.7,0,0,0-19.11-6.62,10.69,10.69,0,0,1,15,15A10.66,10.66,0,0,0,64.4,50ZM53.69,78.49a28.51,28.51,0,0,1-21-47.79A28.51,28.51,0,1,0,72.94,71,28.41,28.41,0,0,1,53.69,78.49Z"/><path class="cls-5" d="M62.6,52a11.34,11.34,0,0,0,1.44.68A10.94,10.94,0,0,0,64.4,50a10.7,10.7,0,0,0-19.11-6.62l.24-.16a10.84,10.84,0,0,1,1-.64l.46-.26a9.88,9.88,0,0,1,1-.47l.5-.2a11.34,11.34,0,0,1,1.18-.31l.48-.11A11.14,11.14,0,0,1,51.91,41a10.7,10.7,0,0,1,10.7,10.7Z"/><path class="cls-5" d="M25.37,53.33A28.93,28.93,0,0,1,25.16,50a28.45,28.45,0,0,1,7.5-19.25c-.71.65-1.38,1.34-2,2.05l0,0c-.62.7-1.21,1.43-1.76,2.19l-.07.1c-.53.72-1,1.47-1.47,2.24l-.14.23c-.42.72-.79,1.47-1.15,2.23l-.19.4c-.32.71-.59,1.44-.85,2.18l-.21.57c-.23.7-.41,1.42-.59,2.13l-.19.74c-.15.71-.25,1.44-.35,2.17l-.11.77a27.19,27.19,0,0,0-.17,3c0,.59.05,1.16.09,1.74C24.08,53.45,24.73,53.4,25.37,53.33Z"/></svg>