<?xml version="1.0" encoding="utf-8"?>
<!-- Generator: Adobe Illustrator 23.0.1, SVG Export Plug-In . SVG Version: 6.00 Build 0)  -->
<svg version="1.1" id="Layer_1" xmlns="http://www.w3.org/2000/svg" xmlns:xlink="http://www.w3.org/1999/xlink" x="0px" y="0px"
	 viewBox="0 0 103.8 103.5" style="enable-background:new 0 0 103.8 103.5;" xml:space="preserve">
<style type="text/css">
	.st0{fill:#39B44A;}
	.st1{fill:#F17AA9;}
	.st2{fill:#8B6339;}
</style>
<title>btn-food-06</title>
<g>
	<path class="st0" d="M51,19.3c0,0-5.1,0.5-6,0.4s-7.8,1.5-7.8,1.5c-9,2.8-16.4,9.2-20.5,17.6c0,0,10.3,0.9,22.4-5.6
		s12.2-9.9,12.2-9.9"/>
	<path class="st1" d="M40.5,53.5c2.4,0.5,4.6,1.8,6.1,3.8c2.1,3.2,4.5,3.5,7.9,4.5s7,3.2,4.2,11.8S46.5,85,43.1,85s-11.9-1-14.2-9.2
		s1.8-16.4,3.9-18.4C34.8,56,36.4,53.4,40.5,53.5z"/>
	<path class="st1" d="M64.9,47.9c1.5-1.4,3.4-2.2,5.4-2.2c3.1,0.1,4.4-1.3,6.7-3.1s5.4-3.1,9.8,2.9s1.7,13.5,0,15.8s-6.3,7.3-12.8,5
		s-9.9-9-10.2-11.3C63.8,52.9,62.8,50.6,64.9,47.9z"/>
	<path class="st2" d="M49.7,59.3c0,0-2.4-1.3-1.3-4.9c0,0,1.1-1.5,1.9-6c0.8-5.4,1.2-10.8,1.2-16.2c0-4.7-1.3-12.3-0.7-13.1
		c1.1-1.6,1.9,0,2.1,0.4c0,0.1,0.1,0.1,0.1,0.2c1.3,1.3,2.7,2.5,4.2,3.6c2.3,1.5,4.6,3.1,6.7,4.9c3,3.1,5.6,6.7,7.8,10.4
		c0,0,0,0.1,0.1,0.1c1.6,1.9,2.9,4,2.9,4.5c-0.4,1.1-1.5,1.6-2.6,1.3c-1.4-0.3-2.3-3.9-2.3-4.2l0,0c-0.6-1.8-1.4-3.5-2.3-5.1
		c-1.5-2.5-3.3-4.8-5.4-6.8c-2.3-2.1-4.8-4.1-7.4-5.9c0,0-0.1-0.1-0.2-0.1c-0.5-0.2-2.6-0.9-2.3,0.7c0.3,1.8,2.1,12.5,1.4,14.6
		c-0.1,4.4-1.3,16.8-2.7,21.3c0,0.1,0,0.2,0,0.3C50.9,59.6,50.9,60.1,49.7,59.3z"/>
</g>
</svg>
