<svg id="Layer_1" data-name="Layer 1" xmlns="http://www.w3.org/2000/svg" viewBox="0 0 60 60"><defs><style>.cls-1{fill:#814c31;}.cls-2{fill:#4c2718;}.cls-3,.cls-5,.cls-7{fill:none;stroke-miterlimit:10;}.cls-3{stroke:#231f20;}.cls-3,.cls-5{stroke-width:0.2px;}.cls-4{fill:#b46d4a;}.cls-5,.cls-7{stroke:#050505;}.cls-6{fill:#257138;}.cls-7{stroke-width:0.18px;}.cls-8{fill:#231f20;}.cls-9{fill:#4bb649;}</style></defs><title>btn-food-14</title><path class="cls-1" d="M41.8,19.28s-24-7-29.74-7.17-18.42,16.32-5.48,22A149.37,149.37,0,0,0,32.81,42.6"/><path class="cls-2" d="M12,12.56h.07c5.43.14,28.2,6.74,29.56,7.13a.19.19,0,0,0,.13,0l.92-.2a.26.26,0,0,0,0-.51c-4.89-1.39-25.5-7.19-30.61-7.32H12c-3.64,0-9.79,6-11.19,12.27-1.07,4.77.92,8.54,5.59,10.6A147.63,147.63,0,0,0,34,43a.25.25,0,0,0,.3-.2l.08-.37a.26.26,0,0,0-.2-.31,145.93,145.93,0,0,1-27.4-8.39C1.32,31.32,1,27.18,1.68,24.13,3,18.34,8.73,12.56,12,12.56Z"/><path class="cls-3" d="M44.07,18.31Z"/><path class="cls-2" d="M41.46,27a2.36,2.36,0,0,1,.1.38A.27.27,0,0,0,41.46,27Z"/><path class="cls-2" d="M58,26.31l-.26-.55a.24.24,0,0,0-.33-.1l-.53.3-.16.1-.34-.26.37-1.44a.3.3,0,0,0,0-.16L56.63,24c-2.4-5-5.1-6.78-10.71-6.89h-.58a.23.23,0,0,0-.23.24v.43a.29.29,0,0,1,0,.09l-.1.22c-.08-.18-.15-.36-.19-.47s0,0,0-.07v-.45a.23.23,0,0,0-.23-.24H44c-5.24,0-7.93,1.28-10.7,5.05l-.13.17a.27.27,0,0,0,0,.16l0,.21c0,.2.06.61.14,1.12a.23.23,0,0,1-.39.2l-.06-.05-.46-.47a.25.25,0,0,0-.36,0l-.38.53a15.28,15.28,0,0,0-3,9.1c0,3,.16,5.92,2.13,8.63l.4.56,0,0,.36.5c2.65,3.66,7.11,5.67,12.56,5.67a13.73,13.73,0,0,0,10.56-4.19l0,0h0l.47-.49A15.41,15.41,0,0,0,58,26.31ZM42.16,29.8c0-.4-.4-.4-.4-.8C41.76,29.4,42.16,29.4,42.16,29.8Zm-.2,0c-.4-.2-.2-.6-.4-1C41.76,29.2,41.56,29.6,42,29.8ZM41.44,27a.18.18,0,0,0,.06.09.26.26,0,0,1,.06.35,2.81,2.81,0,0,0-.08-.31A.2.2,0,0,0,41.4,27a.49.49,0,0,1-.24-.37c-.2.2.2.4.2.6,0-.2-.4-.4-.2-.6,0,.21.17.31.3.42-.55-1.72-2.33-2.53-2.88-4.2C39.13,24.48,40.87,25.29,41.44,27ZM38.38,28.2a3.48,3.48,0,0,0,1.39,1A3.48,3.48,0,0,1,38.38,28.2Zm5.17,3.87v.07a.22.22,0,0,0,0-.13,22.07,22.07,0,0,0-4.34-4.2,27.46,27.46,0,0,1,4,3.68.23.23,0,0,0,.41-.15V32a.28.28,0,0,0,0,.13c.06.08.11.17.16.25Z"/><path class="cls-2" d="M41.46,27a2.36,2.36,0,0,1,.1.38A.27.27,0,0,0,41.46,27Z"/><path class="cls-2" d="M57.63,26.48l-.07-.16a.24.24,0,0,0-.33-.1l-.16.09-.61.37-.38.23a.23.23,0,0,1-.34-.26l.6-2.33-.07-.13c-2.32-4.87-4.93-6.56-10.36-6.66h-.17a.23.23,0,0,0-.24.23v.11a.17.17,0,0,1,0,.07c-.06.17-.28.61-.43.91l-.1.2-.13-.3c-.15-.36-.38-.89-.43-1.07,0,0,0,0,0-.06V17.5a.23.23,0,0,0-.23-.23H44c-5.08,0-7.7,1.23-10.38,4.88l-.09.12,0,.15a14.44,14.44,0,0,0,.4,2.36.23.23,0,0,1-.38.23c-.24-.23-.49-.47-.73-.72L32.56,24l-.14-.14a.23.23,0,0,0-.35,0l-.11.16a14.85,14.85,0,0,0-2.9,8.86c0,2.93.15,5.78,2.05,8.4l.11.14a.23.23,0,0,0,.33,0l.14-.11h0a.23.23,0,0,1,.32.33l-.25.31a.23.23,0,0,0,0,.28l.08.1c2.58,3.56,6.93,5.52,12.24,5.52a13.36,13.36,0,0,0,10.27-4.07l.28-.29h0l.23-.25a15,15,0,0,0,2.76-16.86ZM42.16,29.8c0-.4-.4-.4-.4-.8C41.76,29.4,42.16,29.4,42.16,29.8Zm-.2,0c-.4-.2-.2-.6-.4-1C41.76,29.2,41.56,29.6,42,29.8ZM41.44,27a.18.18,0,0,0,.06.09.26.26,0,0,1,.06.35,2.81,2.81,0,0,0-.08-.31A.2.2,0,0,0,41.4,27a.49.49,0,0,1-.24-.37c-.2.2.2.4.2.6,0-.2-.4-.4-.2-.6,0,.21.17.31.3.42-.55-1.72-2.33-2.53-2.88-4.2C39.13,24.48,40.87,25.29,41.44,27ZM38.38,28.2a3.48,3.48,0,0,0,1.39,1A3.48,3.48,0,0,1,38.38,28.2Zm5.17,3.87v.07a.22.22,0,0,0,0-.13,22.07,22.07,0,0,0-4.34-4.2,27.46,27.46,0,0,1,4,3.68.23.23,0,0,0,.41-.15V32a.28.28,0,0,0,0,.13c.06.08.11.17.16.25Z"/><path class="cls-4" d="M41.46,27a2.36,2.36,0,0,1,.1.38A.27.27,0,0,0,41.46,27Z"/><path class="cls-4" d="M58.68,32.92a14.47,14.47,0,0,0-1.3-6,.22.22,0,0,0-.33-.1c-.53.31-1,.66-1.6.92a.24.24,0,0,1-.33-.27l.77-3a.25.25,0,0,0,0-.17c-2.21-4.59-4.57-6.21-9.79-6.35a.25.25,0,0,0-.23.15c-.12.33-.47,1-.71,1.48a.23.23,0,0,1-.42,0c-.23-.56-.58-1.35-.7-1.71a.22.22,0,0,0-.22-.16c-4.69,0-7.21,1.12-9.81,4.65a.18.18,0,0,0,0,.16c.06.59.47,4,1.74,4.43a9.1,9.1,0,0,1-3.22-2.42.22.22,0,0,0-.35,0,14.48,14.48,0,0,0-2.67,8.4c0,3.12.23,5.62,1.84,8a.25.25,0,0,0,.34,0,4.76,4.76,0,0,1,1.56-.72.24.24,0,0,1,.26.37l-1.18,1.46a.23.23,0,0,0,0,.29c2.67,3.55,7,5.2,11.81,5.2a13,13,0,0,0,9.83-3.79.24.24,0,0,0,0-.3,1.25,1.25,0,0,1-.16-.41.24.24,0,0,1,.34-.27l.31.19a.23.23,0,0,0,.3,0A14.53,14.53,0,0,0,58.68,32.92ZM42.16,29.8c0-.4-.4-.4-.4-.8C41.76,29.4,42.16,29.4,42.16,29.8Zm-.2,0c-.4-.2-.2-.6-.4-1C41.76,29.2,41.56,29.6,42,29.8ZM41.44,27a.18.18,0,0,0,.06.09.26.26,0,0,1,.06.35,2.81,2.81,0,0,0-.08-.31A.2.2,0,0,0,41.4,27a.49.49,0,0,1-.24-.37c-.2.2.2.4.2.6,0-.2-.4-.4-.2-.6,0,.21.17.31.3.42-.55-1.72-2.33-2.53-2.88-4.2C39.13,24.48,40.87,25.29,41.44,27ZM38.38,28.2a3.48,3.48,0,0,0,1.39,1A3.48,3.48,0,0,1,38.38,28.2Zm5.17,3.87v.07a.22.22,0,0,0,0-.13,22.07,22.07,0,0,0-4.34-4.2,27.46,27.46,0,0,1,4,3.68.23.23,0,0,0,.41-.15V32a.28.28,0,0,0,0,.13c.06.08.11.17.16.25Z"/><path class="cls-5" d="M35.79,38.05a10.28,10.28,0,0,0,2.48,3.05A10.09,10.09,0,0,0,42,42.25a10.09,10.09,0,0,0,3.92.41,10,10,0,0,0,3.48-1.85,10.45,10.45,0,0,0,3.06-2.48,10.27,10.27,0,0,0,1.15-3.77,10.06,10.06,0,0,0,.4-3.92,10.19,10.19,0,0,0-1.84-3.48,10.48,10.48,0,0,0-2.49-3.06A10.22,10.22,0,0,0,46,23a10,10,0,0,0-3.92-.4,10.28,10.28,0,0,0-3.48,1.84"/><path class="cls-5" d="M47.17,39.79A8.41,8.41,0,0,0,50,38.31a8.33,8.33,0,0,0,1.35-2.87,8.27,8.27,0,0,0,.93-3,8.36,8.36,0,0,0-1.06-3,8.25,8.25,0,0,0-1.49-2.8,8.37,8.37,0,0,0-2.86-1.35,8.33,8.33,0,0,0-3-.93,8.34,8.34,0,0,0-3,1.06A8.48,8.48,0,0,0,38,26.9a8.21,8.21,0,0,0-1.36,2.86,8.33,8.33,0,0,0-.93,3,8.36,8.36,0,0,0,1.07,3"/><path class="cls-5" d="M39.84,28.46c-.43.52-1.12.87-1.4,1.46a7.11,7.11,0,0,0-.18,2,6.11,6.11,0,0,0-.35,2c.13.63.73,1.11,1.09,1.7a6.33,6.33,0,0,0,1.53,2.16,6.1,6.1,0,0,0,2.58.59,6.28,6.28,0,0,0,2.64.23A6.6,6.6,0,0,0,47.87,37c.55-.48,1.31-.8,1.64-1.42a6.46,6.46,0,0,0,.31-2.16,6.45,6.45,0,0,0,.32-2.15c-.14-.7-.77-1.22-1.17-1.84"/><path class="cls-5" d="M43.46,36.44c.54.08,1.1.43,1.61.3s.83-.72,1.26-1,1.08-.46,1.35-.93.08-1.08.16-1.63.43-1.1.3-1.61-.73-.83-1-1.26-.46-1.08-.92-1.35-1.09-.08-1.63-.16-1.11-.43-1.61-.3-.84.73-1.26,1.05-1.08.46-1.36.92-.08,1.09-.15,1.63"/><path class="cls-5" d="M43.89,30.12c-.2,0-.46-.35-.65-.3s-.23.5-.4.59-.56-.13-.71,0,0,.54-.12.7-.72.45-.8.78.28.72.33,1.07-.2.81,0,1.11.7.3,1,.52.44.72.77.81.72-.29,1.07-.34.81.2,1.12,0,.3-.7.51-1,.72-.44.81-.77-.29-.72-.34-1.07.21-.81,0-1.11-.7-.3-1-.52"/><path class="cls-5" d="M44.25,33c.08-.05.42.18.47.11s-.27-.32-.24-.41.41-.17.4-.26-.42,0-.46-.11.17-.42.1-.47-.32.27-.41.25-.16-.42-.25-.41,0,.42-.12.46-.41-.17-.46-.1.26.32.24.41-.42.16-.4.25.41,0,.46.12"/><path class="cls-6" d="M8,17.67c.17-.27,1.5.4,1.72.19s-.42-1.57-.16-1.73,1.15,1.05,1.45,1,.34-1.59.65-1.61.54,1.45.85,1.51c.84.15,2.1-1.12,3.19-.92.93.18,1.64,1.81,2.65,2s2.27-1,3.23-.8,1.64,1.9,2.54,2.15c1.11.31,2.56-.77,3.3-.46,1,.42.44,2,.56,3,.09.85,1.39,2,1.1,3s-2,1.36-2.38,2.26.46,2.49,0,3.27c-.66,1.2-2.49,1.32-2.77,1.68s-.46,1.75-1.37,1.71c-.6,0-1.12-1.58-1.88-1.72s-1.62,1.16-2.32,1-1-1.75-1.67-1.91-1.69,1.11-2.34,1-1.12-1.73-1.83-1.89-1.86,1-2.52.8-.72-1.87-1.31-2.26S6.57,29,6.17,28.4s.72-1.76.59-2.56c-.09-.53-1.54-1.08-1.46-1.67s1.64-.77,1.82-1.32-1-1.59-.76-2.11,1.81-.38,2.07-.87S7.74,18.11,8,17.67Z"/><path class="cls-7" d="M8,17.67c.17-.27,1.5.4,1.72.19s-.42-1.57-.16-1.73,1.15,1.05,1.45,1,.34-1.59.65-1.61.54,1.45.85,1.51c.84.15,2.1-1.12,3.19-.92.93.18,1.64,1.81,2.65,2s2.27-1,3.23-.8,1.64,1.9,2.54,2.15c1.11.31,2.56-.77,3.3-.46,1,.42.44,2,.56,3,.09.85,1.39,2,1.1,3s-2,1.36-2.38,2.26.46,2.49,0,3.27c-.66,1.2-2.49,1.32-2.77,1.68s-.46,1.75-1.37,1.71c-.6,0-1.12-1.58-1.88-1.72s-1.62,1.16-2.32,1-1-1.75-1.67-1.91-1.69,1.11-2.34,1-1.12-1.73-1.83-1.89-1.86,1-2.52.8-.72-1.87-1.31-2.26S6.57,29,6.17,28.4s.72-1.76.59-2.56c-.09-.53-1.54-1.08-1.46-1.67s1.64-.77,1.82-1.32-1-1.59-.76-2.11,1.81-.38,2.07-.87S7.74,18.11,8,17.67Z"/><path class="cls-8" d="M10.81,21.52l-.11-.07c.6-.9-.44-1.9-.45-1.91l.06-.11a2.36,2.36,0,0,1,.59.28,1.31,1.31,0,0,1,.55.68l.06-.27a2.76,2.76,0,0,1,1.33-2l.08.1a4.85,4.85,0,0,0-.71,3.24l-.13,0a5,5,0,0,1,.59-3.11,3.71,3.71,0,0,0-1.17,2.83v.27h-.13v-.77a1.26,1.26,0,0,0-.85-1.06A1.59,1.59,0,0,1,10.81,21.52Z"/><path class="cls-9" d="M12.14,21.48a4.88,4.88,0,0,1,.73-3.29c-1.56.79-1.43,3.29-1.43,3.29v-.77c0-.89-1.15-1.22-1.15-1.22s1.11,1,.47,2"/><path class="cls-8" d="M11.44,21.54c-.11,0-.15-.14-.18-.27-.18-.73-.19-3.23.77-3.72l.14-.07-.05.15a12.23,12.23,0,0,0-.62,3.84v.07Z"/><path class="cls-9" d="M11.44,21.48c-.28,0-.45-3.32.62-3.87A12.17,12.17,0,0,0,11.44,21.48Z"/><path class="cls-8" d="M13.27,24,13.16,24c.6-.9-.45-1.9-.46-1.91l.06-.11a2.12,2.12,0,0,1,.6.28,1.38,1.38,0,0,1,.55.67c0-.08,0-.17.05-.27a2.79,2.79,0,0,1,1.33-2l.08.1A4.85,4.85,0,0,0,14.66,24l-.13,0a5,5,0,0,1,.6-3.11A3.67,3.67,0,0,0,14,23.72V24h-.13a2.4,2.4,0,0,1,0-.3v-.46A1.28,1.28,0,0,0,13,22.16,1.59,1.59,0,0,1,13.27,24Z"/><path class="cls-9" d="M14.6,24a4.88,4.88,0,0,1,.72-3.29c-1.55.79-1.43,3.28-1.43,3.28v-.76c0-.9-1.15-1.22-1.15-1.22s1.11,1,.47,2"/><path class="cls-8" d="M13.89,24.05c-.1,0-.15-.15-.18-.27-.18-.74-.19-3.23.77-3.72l.14-.08,0,.16A12.32,12.32,0,0,0,14,24v.07Z"/><path class="cls-9" d="M13.89,24c-.28,0-.44-3.32.62-3.86A12.08,12.08,0,0,0,13.89,24Z"/><path class="cls-8" d="M20.79,27.25l-.11-.07c.6-.9-.45-1.9-.46-1.91l.06-.11a2,2,0,0,1,.59.28,1.35,1.35,0,0,1,.56.67c0-.08,0-.17.05-.27a2.79,2.79,0,0,1,1.33-2l.08.1a4.85,4.85,0,0,0-.71,3.24l-.13,0a5,5,0,0,1,.6-3.11,3.67,3.67,0,0,0-1.17,2.83v.27h-.13a2.4,2.4,0,0,1,0-.3v-.46a1.27,1.27,0,0,0-.86-1.06A1.59,1.59,0,0,1,20.79,27.25Z"/><path class="cls-9" d="M22.12,27.21a4.88,4.88,0,0,1,.72-3.29c-1.55.79-1.43,3.28-1.43,3.28v-.76c0-.9-1.15-1.22-1.15-1.22s1.11,1,.47,2"/><path class="cls-8" d="M21.41,27.27c-.1,0-.15-.15-.18-.27-.18-.74-.19-3.23.77-3.72l.14-.07-.05.15a12,12,0,0,0-.61,3.84v.07Z"/><path class="cls-9" d="M21.41,27.2c-.28,0-.44-3.32.62-3.86A12.08,12.08,0,0,0,21.41,27.2Z"/><path class="cls-8" d="M8.58,24.75l-.11-.08c.6-.9-.45-1.89-.46-1.9l.06-.11a2,2,0,0,1,.6.28,1.38,1.38,0,0,1,.55.67c0-.08,0-.17,0-.27a2.79,2.79,0,0,1,1.33-2l.08.1A4.85,4.85,0,0,0,10,24.7l-.13,0a5,5,0,0,1,.6-3.11,3.7,3.7,0,0,0-1.17,2.83v.27H9.14a2.46,2.46,0,0,1,0-.3v-.46a1.28,1.28,0,0,0-.85-1.06A1.59,1.59,0,0,1,8.58,24.75Z"/><path class="cls-9" d="M9.91,24.71a4.88,4.88,0,0,1,.72-3.29C9.08,22.21,9.2,24.7,9.2,24.7v-.76c0-.9-1.14-1.22-1.14-1.22s1.1,1,.46,2"/><path class="cls-8" d="M9.2,24.77c-.1,0-.15-.15-.18-.27-.18-.74-.19-3.23.77-3.72l.14-.08,0,.15a12.47,12.47,0,0,0-.61,3.85v.07Z"/><path class="cls-9" d="M9.2,24.7c-.28,0-.44-3.32.62-3.87A12.17,12.17,0,0,0,9.2,24.7Z"/><path class="cls-8" d="M16.17,21.34l-.11-.07c.61-.9-.44-1.9-.45-1.91l.06-.11a2,2,0,0,1,.59.28,1.33,1.33,0,0,1,.55.67l.06-.26a2.74,2.74,0,0,1,1.33-2l.08.1a4.85,4.85,0,0,0-.71,3.24l-.13,0A5,5,0,0,1,18,18.2,3.66,3.66,0,0,0,16.87,21v.27h-.14v-.77a1.26,1.26,0,0,0-.85-1.06A1.59,1.59,0,0,1,16.17,21.34Z"/><path class="cls-9" d="M17.5,21.3A4.86,4.86,0,0,1,18.23,18c-1.56.79-1.43,3.29-1.43,3.29v-.77c0-.9-1.15-1.22-1.15-1.22s1.11,1,.47,2"/><path class="cls-8" d="M16.8,21.36c-.1,0-.15-.14-.18-.27-.18-.74-.19-3.23.77-3.72l.14-.07-.05.15a12,12,0,0,0-.61,3.84v.07Z"/><path class="cls-9" d="M16.8,21.3c-.28,0-.45-3.33.62-3.87A12.11,12.11,0,0,0,16.8,21.3Z"/><path class="cls-8" d="M11.68,29.28l-.11-.07c.6-.9-.45-1.9-.46-1.91l.06-.11a2.36,2.36,0,0,1,.59.28,1.38,1.38,0,0,1,.56.68,2.56,2.56,0,0,1,0-.27,2.81,2.81,0,0,1,1.33-2l.08.1a4.85,4.85,0,0,0-.71,3.24l-.13,0a5,5,0,0,1,.6-3.11A3.67,3.67,0,0,0,12.37,29v.27h-.13a2.66,2.66,0,0,1,0-.31v-.46a1.27,1.27,0,0,0-.86-1.06A1.59,1.59,0,0,1,11.68,29.28Z"/><path class="cls-9" d="M13,29.24A4.94,4.94,0,0,1,13.73,26c-1.56.79-1.43,3.29-1.43,3.29v-.77c0-.89-1.15-1.22-1.15-1.22s1.11,1,.47,2"/><path class="cls-8" d="M12.3,29.3c-.1,0-.15-.14-.18-.27-.18-.73-.19-3.23.77-3.72l.14-.07,0,.15a12,12,0,0,0-.61,3.84v.07Z"/><path class="cls-9" d="M12.3,29.24c-.28,0-.44-3.32.62-3.87A12.17,12.17,0,0,0,12.3,29.24Z"/><path class="cls-8" d="M18.26,22.84l-.11-.07c.6-.9-.45-1.89-.46-1.9l.06-.12a2.41,2.41,0,0,1,.6.29,1.25,1.25,0,0,1,.55.67,2.56,2.56,0,0,1,.05-.27,2.79,2.79,0,0,1,1.33-2l.09.09a4.89,4.89,0,0,0-.72,3.25l-.13,0a4.94,4.94,0,0,1,.6-3.11A3.68,3.68,0,0,0,19,22.54v.27h-.13a2.6,2.6,0,0,1,0-.31V22A1.25,1.25,0,0,0,18,21,1.57,1.57,0,0,1,18.26,22.84Z"/><path class="cls-9" d="M19.59,22.81a4.88,4.88,0,0,1,.72-3.29c-1.55.79-1.42,3.28-1.42,3.28V22c0-.9-1.15-1.22-1.15-1.22s1.1,1,.47,2"/><path class="cls-8" d="M18.89,22.87c-.11,0-.16-.15-.19-.28-.18-.73-.19-3.22.77-3.72l.14-.07,0,.15A12,12,0,0,0,19,22.79v.08Z"/><path class="cls-9" d="M18.89,22.8c-.29,0-.45-3.32.61-3.87A12.26,12.26,0,0,0,18.89,22.8Z"/><path class="cls-8" d="M22.46,23.44l-.11-.08c.6-.9-.45-1.89-.46-1.9l.06-.11a2.12,2.12,0,0,1,.6.28,1.38,1.38,0,0,1,.55.67,2.56,2.56,0,0,1,0-.27,2.79,2.79,0,0,1,1.33-2l.08.1a4.85,4.85,0,0,0-.71,3.24l-.13,0a5,5,0,0,1,.6-3.11,3.7,3.7,0,0,0-1.17,2.83v.27H23a2.6,2.6,0,0,1,0-.31v-.45a1.28,1.28,0,0,0-.85-1.06A1.59,1.59,0,0,1,22.46,23.44Z"/><path class="cls-9" d="M23.79,23.4a4.88,4.88,0,0,1,.72-3.29c-1.55.79-1.43,3.28-1.43,3.28v-.76c0-.9-1.14-1.22-1.14-1.22s1.1,1,.46,2"/><path class="cls-8" d="M23.08,23.46c-.1,0-.15-.15-.18-.27-.18-.74-.19-3.23.77-3.72l.14-.08,0,.15a12.47,12.47,0,0,0-.61,3.85v.07Z"/><path class="cls-9" d="M23.08,23.39c-.28,0-.44-3.32.62-3.87A12.17,12.17,0,0,0,23.08,23.39Z"/><path class="cls-8" d="M20.31,30.84l-.11-.07c.6-.9-.44-1.89-.46-1.9l.07-.12a2.63,2.63,0,0,1,.59.29,1.25,1.25,0,0,1,.55.67,2.61,2.61,0,0,1,.06-.27,2.74,2.74,0,0,1,1.33-2l.08.09a4.91,4.91,0,0,0-.71,3.25l-.13,0a5,5,0,0,1,.59-3.11A3.68,3.68,0,0,0,21,30.54v.27h-.13V30A1.24,1.24,0,0,0,20,29,1.57,1.57,0,0,1,20.31,30.84Z"/><path class="cls-9" d="M21.64,30.81a4.88,4.88,0,0,1,.72-3.29c-1.55.79-1.42,3.28-1.42,3.28V30c0-.9-1.15-1.22-1.15-1.22s1.11,1,.47,2"/><path class="cls-8" d="M20.94,30.87c-.11,0-.15-.15-.19-.28-.17-.73-.18-3.22.78-3.72l.14-.07-.05.15A12.29,12.29,0,0,0,21,30.79v.07Z"/><path class="cls-9" d="M20.94,30.8c-.28,0-.45-3.32.62-3.87A12.17,12.17,0,0,0,20.94,30.8Z"/><path class="cls-8" d="M16.17,28.33l-.11-.07c.6-.9-.45-1.9-.46-1.91l.06-.11a2.59,2.59,0,0,1,.6.29,1.3,1.3,0,0,1,.55.67,2.56,2.56,0,0,1,.05-.27,2.79,2.79,0,0,1,1.33-2l.09.09a4.89,4.89,0,0,0-.72,3.25l-.13,0A4.94,4.94,0,0,1,18,25.2,3.68,3.68,0,0,0,16.86,28v.27h-.13a2.6,2.6,0,0,1,0-.31v-.45a1.25,1.25,0,0,0-.85-1.06A1.57,1.57,0,0,1,16.17,28.33Z"/><path class="cls-9" d="M17.5,28.3A4.88,4.88,0,0,1,18.22,25c-1.55.79-1.42,3.28-1.42,3.28v-.76c0-.9-1.15-1.22-1.15-1.22s1.1,1,.46,2"/><path class="cls-8" d="M16.79,28.36c-.1,0-.15-.15-.18-.28-.18-.73-.19-3.22.77-3.72l.14-.07,0,.15a12,12,0,0,0-.62,3.84v.07Z"/><path class="cls-9" d="M16.8,28.29c-.29,0-.45-3.32.61-3.87A12.26,12.26,0,0,0,16.8,28.29Z"/><path class="cls-8" d="M25.62,25.79l-.11-.08c.6-.9-.45-1.89-.46-1.9l.06-.11a2,2,0,0,1,.6.28,1.38,1.38,0,0,1,.55.67,2.56,2.56,0,0,1,0-.27,2.79,2.79,0,0,1,1.33-2l.09.1A4.83,4.83,0,0,0,27,25.74l-.13,0a5,5,0,0,1,.6-3.11,3.7,3.7,0,0,0-1.17,2.83v.27h-.13a2.6,2.6,0,0,1,0-.31V25a1.28,1.28,0,0,0-.85-1.06A1.58,1.58,0,0,1,25.62,25.79Z"/><path class="cls-9" d="M27,25.75a4.88,4.88,0,0,1,.72-3.29c-1.55.79-1.42,3.28-1.42,3.28V25c0-.9-1.15-1.22-1.15-1.22s1.1,1,.46,2"/><path class="cls-8" d="M26.24,25.81c-.1,0-.15-.15-.18-.27-.18-.74-.19-3.23.77-3.72l.14-.08,0,.15a12.07,12.07,0,0,0-.62,3.85v.07Z"/><path class="cls-9" d="M26.25,25.74c-.29,0-.45-3.32.61-3.87A12.26,12.26,0,0,0,26.25,25.74Z"/><path class="cls-8" d="M24.64,28.81l-.11-.07c.6-.9-.45-1.9-.46-1.91l.06-.11a2.82,2.82,0,0,1,.6.28,1.36,1.36,0,0,1,.55.68,2.56,2.56,0,0,1,0-.27,2.77,2.77,0,0,1,1.33-2l.09.09A4.89,4.89,0,0,0,26,28.77l-.13,0a5,5,0,0,1,.6-3.12,3.71,3.71,0,0,0-1.17,2.83v.28H25.2a2.66,2.66,0,0,1,0-.31V28a1.28,1.28,0,0,0-.85-1.06A1.59,1.59,0,0,1,24.64,28.81Z"/><path class="cls-9" d="M26,28.78a4.92,4.92,0,0,1,.72-3.3c-1.55.79-1.42,3.29-1.42,3.29V28c0-.89-1.15-1.22-1.15-1.22s1.1,1,.46,2"/><path class="cls-8" d="M25.26,28.83c-.1,0-.15-.14-.18-.27-.18-.73-.19-3.22.77-3.72l.14-.07,0,.15a11.93,11.93,0,0,0-.62,3.84v.07Z"/><path class="cls-9" d="M25.27,28.77c-.29,0-.45-3.32.61-3.87A12.26,12.26,0,0,0,25.27,28.77Z"/></svg>