<svg id="Layer_1" data-name="Layer 1" xmlns="http://www.w3.org/2000/svg" viewBox="0 0 60 60"><defs><style>.cls-1{fill:#d7af93;}.cls-1,.cls-2,.cls-4{stroke:#fff;stroke-miterlimit:10;}.cls-1,.cls-2{stroke-width:0.32px;}.cls-2{fill:#f5d7c4;}.cls-3{fill:#e61e28;}.cls-4{fill:none;stroke-width:1.93px;}.cls-5{fill:#c42126;}</style></defs><title>btn-food-12</title><path class="cls-1" d="M7.79,29.87,7.66,40.19s1.49,6.06,7.69,7.32l24.19.07S51.39,45.21,51.39,33.7Z"/><path class="cls-2" d="M16.74,41.55a7.42,7.42,0,0,1-2.16-.31c-1.8-.55-5-1.92-6.51-4.93a8.6,8.6,0,0,1,0-7A7.53,7.53,0,0,1,14,24.59c3.1-.46,8.85-1.8,12.57-5.52l1-1.05c3.2-3.23,5.31-5.36,9-5.36,2.1,0,4.59.66,8.58,2.27,4.66,1.65,7.79,7.64,7.27,14S48,39.8,41.86,40.86a8.06,8.06,0,0,1-1,.09l-23.9.6Z"/><path class="cls-3" d="M8.81,29.37a5.93,5.93,0,0,1,4.65-3.68c3.5-.52,9.48-2,13.47-6,6-6,6.9-7.84,16.94-3.76,8.08,2.79,9.7,20.65-3,22.84a7,7,0,0,1-.8.07l-23.89.6a6.08,6.08,0,0,1-1.85-.25C11.87,38.48,6.28,36,8.81,29.37Z"/><ellipse class="cls-4" cx="36.91" cy="26.81" rx="3.5" ry="3.51"/><ellipse class="cls-5" cx="37.04" cy="26.69" rx="3.14" ry="3.13" transform="translate(-0.87 52.14) rotate(-69.64)"/><path class="cls-5" d="M17.94,36.86,26.3,28.5s1.26-.74.95.83L19,38S17.31,38.22,17.94,36.86Z"/><path class="cls-5" d="M14.91,33.31l8.36-8.37s1.26-.73.94.84L16,34.46S14.28,34.67,14.91,33.31Z"/><path class="cls-5" d="M27.57,37,19.21,28.6s-1.26-.73-.94.84l8.26,8.68S28.2,38.33,27.57,37Z"/><path class="cls-5" d="M30.71,33.83l-8.37-8.37s-1.25-.73-.94.84L29.67,35S31.34,35.19,30.71,33.83Z"/><rect class="cls-5" x="23.25" y="34.05" width="8.06" height="1.52" rx="0.76" transform="translate(-16.81 31.44) rotate(-47.54)"/><rect class="cls-5" x="13.8" y="34.05" width="8.06" height="1.52" rx="0.76" transform="translate(7.49 72.52) rotate(-137.54)"/></svg>