<svg xmlns="http://www.w3.org/2000/svg" viewBox="0 0 103.82 103.47"><defs><style>.cls-1{fill:#fff;stroke:#630;stroke-miterlimit:10;stroke-width:3.3px;}.cls-2{fill:#6a1f10;}.cls-3{fill:#fff2a1;}.cls-4{fill:#8c692e;}.cls-5{fill:#fff2e0;}</style></defs><title>btn-food-10</title><g id="Layer_2" data-name="Layer 2"><circle class="cls-1" cx="51.91" cy="51.74" r="49"/><path class="cls-2" d="M47,77.08c-12.5,0-20.74-2.29-24.47-6.81l-.6-.71,8.13-36.5,2.19,1.53a89.46,89.46,0,0,0,19.51,3.5c.91,0,1.85.08,2.79.08,7.13,0,14.71-1.43,18-3.41l2.8-2.41,6.5,35.14v.14c0,.57-.15,2.55-3.47,4.47-3.68,2.11-10.15,3.59-19.23,4.39C54.77,76.88,50.68,77.08,47,77.08Z"/><path class="cls-3" d="M24,69.08l7.71-32.71a90.5,90.5,0,0,0,20,3.59c8.54.46,17.86-1.2,21.86-3.59L80,67.72s.25,5-21,6.91S27.73,73.61,24,69.08Z"/><path class="cls-4" d="M29.54,45.68s.54,1.39,2.88,1.15,4.58-2.3,7.06-1.39,2,2.27,3.93,3.49,4.21,1.33,6.38,1.73a14.46,14.46,0,0,1,4.81,2.45S57,54.53,58.47,53a12.89,12.89,0,0,0,2.88-1.93,9.7,9.7,0,0,0,2.24-2.28,5.88,5.88,0,0,1,3-2.2c.27,0,3.8-.27,4.58-1.15A11.74,11.74,0,0,0,73,43.71c.14-.37,1.67-.34,1.94-.1s-1.39-7.24-1.39-7.24H31.69Z"/><circle class="cls-5" cx="45.44" cy="48.78" r="0.26"/><circle class="cls-5" cx="32.7" cy="45.53" r="0.26"/><circle class="cls-5" cx="57.62" cy="51.94" r="0.26"/><circle class="cls-5" cx="68.51" cy="44.97" r="0.26"/><circle class="cls-5" cx="44.09" cy="48.07" r="0.79"/><circle class="cls-5" cx="56.12" cy="51.76" r="0.79"/><circle class="cls-5" cx="69.78" cy="43.08" r="0.67"/><circle class="cls-5" cx="70.31" cy="44.64" r="0.79"/><circle class="cls-5" cx="42.56" cy="47.31" r="0.26"/><rect class="cls-5" x="31.77" y="38.17" width="1.53" height="6.97" rx="0.76" transform="translate(9.26 -5.8) rotate(11.87)"/><path class="cls-2" d="M52.07,38.61a54.56,54.56,0,0,1-7.81-.51C34.74,37.45,31.36,34.34,31,34l-.93-.93.56-1.19a6.84,6.84,0,0,1,2.49-2.74,14.09,14.09,0,0,1,6.74-2,102.4,102.4,0,0,1,13.51-.72c3.24,0,6.11.08,7.83.13.73,0,1.31,0,1.57,0H63a28.89,28.89,0,0,1,5.69.87c4.32,1.05,5.51,2.28,6,3.11a2.9,2.9,0,0,1,.16,2.85c-.32.66-1.18,2.41-8.62,3.88a76.59,76.59,0,0,1-14.22,1.34Z"/><path class="cls-4" d="M32.32,32.66s3,3,12.14,3.57c11.06,1.63,27.47-1,28.76-3.66s-8.61-4.2-10.31-4.14c-1.12.05-14.18-.67-22.86.55C34.29,29.38,32.67,31.92,32.32,32.66Z"/></g></svg>