<?xml version="1.0" encoding="utf-8"?>
<!-- Generator: Adobe Illustrator 23.0.1, SVG Export Plug-In . SVG Version: 6.00 Build 0)  -->
<svg version="1.1" id="Layer_1" xmlns="http://www.w3.org/2000/svg" xmlns:xlink="http://www.w3.org/1999/xlink" x="0px" y="0px"
	 viewBox="0 0 103.8 103.5" style="enable-background:new 0 0 103.8 103.5;" xml:space="preserve">
<style type="text/css">
	.st0{fill:#1CC9D1;}
	.st1{fill:#7583BA;}
	.st2{fill:#FFFFFF;}
</style>
<title>btn-food-12</title>
<path d="M54.9,44.5l0.1-0.5c0-0.2,1.1-5.2,4.2-8.1c0.7-0.7,0.7-1.8,0.1-2.5C59,33.2,58.8,33,58.5,33c-0.9-0.3-1.8-0.5-2.7-0.6
	c-9.5-1.4-14.5,6.3-14.8,6.6l-0.3,0.4l-1.6-1l0.3-0.4c0.1-0.1,5.9-9,16.6-7.4c1,0.1,2,0.4,3,0.7c1.9,0.6,3,2.7,2.4,4.6
	c-0.2,0.6-0.5,1.1-0.9,1.5c-2.7,2.5-3.6,7.1-3.6,7.2l-0.1,0.5L54.9,44.5z"/>
<path d="M56.4,44.4l-0.9-0.2c0-0.2,1-5,4-7.9c0.9-0.9,0.9-2.3,0.1-3.2c-0.3-0.3-0.6-0.5-0.9-0.6c-11.6-3.7-17.7,5.7-18,6.1l-0.8-0.5
	c0.1-0.1,6.8-10.4,19-6.5c1.7,0.5,2.7,2.2,2.2,3.9c-0.2,0.5-0.5,1-0.9,1.4C57.4,39.6,56.4,44.3,56.4,44.4z"/>
<path class="st0" d="M40.3,38.4c0,0,6.5-10.1,18.5-6.3c1.4,0.5,2.2,2,1.8,3.4c-0.1,0.4-0.4,0.8-0.7,1.1c-2.9,2.8-3.9,7.7-3.9,7.7"/>
<path d="M86.3,73.2c-0.6,0-1.3,0-2.1-0.1c-3.2-0.2-6.4-0.6-9.5-1.4c-4-1-9-3.9-9.7-4.8c-1.5-1.7-3.2-3.1-5.1-4.2
	c-0.3-0.1-0.6-0.3-0.9-0.5l0.7-1.8c0.8,0,5,3.2,6.7,5.4c2.6,1.9,5.6,3.3,8.7,4.2c4,1,8.1,1.4,12.2,1.3l-1.6-1
	c-6.8-4.3-13.4-8.9-13-13.1c0.4-3.5,6.7-5.4,14.3-7.4c1.4-0.4,3-0.8,3.9-1.1c-1.9-0.8-7.4-1.9-13.2-1.2c-4.8,0.7-9.5,2.2-13.9,4.5
	l-0.9-1.6c4.6-2.4,9.5-3.9,14.5-4.7c6.8-0.8,14.3,0.7,15.5,2.3c0.2,0.3,0.3,0.7,0.2,1.1c-0.1,1-1.6,1.4-5.8,2.5
	c-4.4,1.2-12.6,3.3-12.9,5.9c-0.4,3.4,8,8.7,12.1,11.3c2.9,1.9,3.5,2.2,3.6,2.9c0,0.3,0,0.6-0.2,0.8C90,72.7,89.5,73.2,86.3,73.2z"
	/>
<path class="st0" d="M63.5,51.1c4.5-2.3,9.3-3.8,14.2-4.6c7.4-0.9,15.3,1.1,14.7,2.3c0,1.3-18.1,3.6-18.7,8.5
	C73.1,62.9,90,71.1,89.4,71.8s-8.4,0.6-14.5-1c-3.9-1-8.7-3.8-9.2-4.5c-1.5-1.8-5.1-4.5-5.6-4.5"/>
<path d="M36,68.9c-0.8,0-1.7-0.1-2.5-0.2c-4.3-0.6-10.8-3.3-13.3-4.4c-2-0.8-8.4-3.7-9.1-5l-0.4-0.8l1.1-0.3
	c0.5-0.2,4.7-1.6,5.4-1.9l1.1,1.7c-0.5,0.2-2.5,0.9-3.9,1.4c3.4,2,14.2,6.9,19.6,7.7c7.7,1.1,23.5-5.2,27.2-7.7
	c2.9-1.9,2.7-2.8,2.5-4.1c0-0.2-0.1-0.5-0.1-0.7c-0.5-1.6-11.2-13.6-19.3-15.4c-8.5-1.9-26.2,5.3-28.1,8.1c-0.4,0.5-0.7,1-1,1.5
	c-1.6,2.3,0.6,5.8,1.2,8.6l-5.8-1.8c-0.7-3.3,0.7-5.2,2.4-7.6c0.3-0.5,0.7-0.9,1-1.4c2.5-3.7,21.6-11.1,31-9.1
	c9.6,2.1,20.8,15.3,21.1,17c0,0.2,0.1,0.4,0.1,0.6c0.3,1.5,0.6,3.2-3.3,5.7C59.3,63,45.2,68.9,36,68.9z"/>
<path class="st0" d="M17.8,57c-0.8,0.3-4.9,1.7-5.5,1.9c0.7,1.3,14.9,7.9,21.5,8.9C42,69.1,58.2,62.5,62,60s3-3.8,2.8-5.5
	C64.6,53,53.6,40.2,44.6,38.2s-27.4,5.3-29.6,8.6s-4,4.9-3.3,8.5"/>
<path class="st1" d="M36.3,68c-0.2-1.3-0.7-2.5-1.3-3.7c-0.9-1.5,4-4.9,4.1-6.7s-4-5-4.3-6.4s2.7-4.2,4.2-7.1s-4-5.6-4-5.6l-1.9,0.4
	l-3.6,1c0,0,5.5,2.1,4,5.1s-4.5,5.7-4.2,7.1s4.4,4.6,4.3,6.4s-5,5.2-4.1,6.7c0.4,0.8,1,1.5,1.5,2.2l3,0.6H36.3z"/>
<path class="st1" d="M49,65.4c-0.9-0.4-1.6-1-2.1-1.9c-0.9-1.5,4-4.9,4.1-6.7s-4-5-4.3-6.4s2.7-4.1,4.2-7.1s-5.2-4.9-5.2-4.9
	l-2.6-0.7l-2.8,0.2c0,0,6.5,3.3,5,6.2s-4.5,5.7-4.2,7.1s4.4,4.6,4.3,6.4s-5,5.2-4.1,6.7c0.7,1,1.6,1.9,2.7,2.4l2.8-0.6L49,65.4z"/>
<path class="st2" d="M19,52.3c-1.3,0-2.4-1.1-2.4-2.4c0-1.3,1.1-2.4,2.4-2.4c1.3,0,2.4,1.1,2.4,2.4c0,0,0,0,0,0
	C21.5,51.2,20.4,52.3,19,52.3z"/>
<circle cx="19" cy="49.9" r="1.8"/>
</svg>
