<svg xmlns="http://www.w3.org/2000/svg" viewBox="0 0 103.82 103.47"><defs><style>.cls-1,.cls-3{fill:#fff;}.cls-1{stroke:#630;stroke-miterlimit:10;stroke-width:3.3px;}.cls-2{fill:#f4ce93;}.cls-4{fill:#f05f74;}</style></defs><title>btn-food-08</title><g id="Layer_2" data-name="Layer 2"><circle class="cls-1" cx="52.91" cy="51.74" r="49"/><path d="M26.93,81.37c-2.67,0-3.57-.33-4.08-.81-.73-.69-1.71-2.21-1.8-7.45-.05-2.68.16-5.08.17-5.18l.94-8.71L83.38,39.65l.24,1.59c0,.08,1.08,7.07,1.55,9.41C85.67,53.18,85,59,85,59.7l-.06.51-4,3.71h0C73.22,70.81,61.14,75,52.36,77.36a136,136,0,0,1-14.73,3,79,79,0,0,1-10.7,1Z"/><path class="cls-2" d="M22.59,68.05s-.84,9.59,1.2,11.5S63.93,77.28,80,62.9l3.6-3.36s.71-6.23.24-8.62-1.56-9.47-1.56-9.47L23.43,60.26Z"/><path d="M72.22,50.67A5.55,5.55,0,0,1,68,49.06a5.22,5.22,0,0,1-1.2-4.12l0-.37.21-.3a5.5,5.5,0,0,0,.61-1.1,4.84,4.84,0,0,1-3.19-1.91l-.41.13a5.35,5.35,0,0,1-1.83.33,10.11,10.11,0,0,1-2.82-.5l-.09,0-.08,0a9.65,9.65,0,0,1-3.84-3.5,5.8,5.8,0,0,0-1.59-.22,7.23,7.23,0,0,0-2.3.4c-.59.21-1.11.41-1.62.61A14.12,14.12,0,0,1,44,39.71c-.69,0-1.42,0-2.24-.12-2.57-.28-4.22-1.12-4.9-2.49A3.45,3.45,0,0,1,37,33.91l0-.07,0-.06c.08-.11,2.08-2.67,4.66-5.37,3.65-3.82,6.47-5.88,8.63-6.28l.13,0h.13c3.22,0,7.32,1.85,8.13,2.23a56.79,56.79,0,0,0,7.62,1.49h.23c1.51,0,7.35,2.31,10.23,3.52,8.85,3.75,9.69,5.2,10,5.68l.08.14,0,.16a7.28,7.28,0,0,1-.34,4.2,16.74,16.74,0,0,0-.71,6.8,3.33,3.33,0,0,1-.18,2.77,2.26,2.26,0,0,1-2,1.32h0c-.65,0-1.58-.31-2.24-1.79l0-.11,0-.11c-.35-1.37-1.17-3.66-2.65-3.66a3.91,3.91,0,0,0-2,.74c-.17.45-.48,1.2-.84,2-1,2.19-1.77,3.05-2.76,3.17A7.21,7.21,0,0,1,72.22,50.67Z"/><path class="cls-3" d="M38.17,34.62s8-10.3,12.46-11.14c3.23,0,7.67,2.16,7.67,2.16S65,27.32,66.56,27.2s17.73,6.23,19,8.5c.72,2.4-1.79,4.91-1.08,11,.72,1.08-.71,3.72-1.79,1.32-.72-2.75-2.52-6.71-7.07-3.47,0,0-1.68,4.55-2.64,4.67s-5.27.36-4.91-4.19c1.8-2.64.6-3.24-.24-3.24s-2.52-1-2.64-2c-2.15,0-1.91,1.19-5.51.12a8.7,8.7,0,0,1-3.47-3.36,7.19,7.19,0,0,0-5.27,0c-3.12,1.08-4.44,2.16-9.11,1.68C36.37,37.62,38.17,34.62,38.17,34.62Z"/><path d="M21.88,68c-1.51,0-3.08-1.28-3.18-4.13a16.58,16.58,0,0,1,1.2-5.36,19.79,19.79,0,0,1,1.71-3.75c.41-.51,8.33-11.15,13.56-18.19l1.34-1.8,1,2c.58,1.14,3.51,1.9,7.29,1.9a13.74,13.74,0,0,0,1.85-.09,42.71,42.71,0,0,0,5.2-1.9l.12-.05.13,0a6.71,6.71,0,0,1,1.42-.16,4.76,4.76,0,0,1,3.93,2.16,4.5,4.5,0,0,0,1.72,1.47l.07,0,.07,0a5.18,5.18,0,0,0,2.46.53A9.24,9.24,0,0,0,64,40.37l1.1-.32.52,1a3.53,3.53,0,0,0,1.66,1.15l1.35.47L68.09,44a7,7,0,0,0-.13,3.2l.44,2.35-2.26-.8a7.23,7.23,0,0,0-2.35-.47,2.61,2.61,0,0,0-2.66,1.85,1.11,1.11,0,0,0-.07.16,24.11,24.11,0,0,0,0,4.73c.53,1.33.17,5,.16,5.08a2.85,2.85,0,0,1-2.76,2.51,3.63,3.63,0,0,1-1.73-.48c-1.2-.64-1.84-2.08-1.91-4.26a16.46,16.46,0,0,1,.29-3.46c.07-.53-.56-2.61-1.55-2.93a3,3,0,0,0-.91-.14,6,6,0,0,0-1.75.34,7.78,7.78,0,0,1-.8.2,24.72,24.72,0,0,0-3.64,2.57,4,4,0,0,1-2.74.77c-.83,0-1.81-.09-2.85-.18l-.27,0h-.19a2.91,2.91,0,0,0-2.12,1.07,21,21,0,0,1-.54,5.42,2.53,2.53,0,0,1-2.39,2.12A2.47,2.47,0,0,1,33,61.56a2.85,2.85,0,0,0-1.7-2.22,9.46,9.46,0,0,0-1.61-.16,3.22,3.22,0,0,0-2.27.87c-.3.22-.63.46-1,.71-.69.43-.87,2-1,3.06a5.81,5.81,0,0,1-.48,2.1A3.54,3.54,0,0,1,21.88,68Z"/><path class="cls-4" d="M36.28,37.38S23.07,55.15,22.67,55.63s-2.68,5.7-2.59,8.19c.1,3.09,2.36,3.68,3.59,1.43.52-.94.08-4.51,2-5.67S27.9,57.31,31.74,58c2.15,1.19,2.43,2.31,2.59,3.31s1.64,1.52,2.08-.16A17.65,17.65,0,0,0,36.89,56c-.16-.56,1.6-2.56,3.83-2.36s4.16.4,4.8-.2,3.63-2.83,4.31-2.91,2.32-1,4.15-.36,2.68,3.51,2.48,4.51-.8,5.31.92,6.23,2.39-.4,2.47-1a16.22,16.22,0,0,0-.08-4.39,19.75,19.75,0,0,1,0-5.75c.24-.4,1.28-4.27,6.83-2.32a8.56,8.56,0,0,1,.2-3.95,4.89,4.89,0,0,1-2.43-1.84s-3.28,1-5.71-.36c-2.76-1.12-2.48-4.19-6.27-3.39a47.85,47.85,0,0,1-5.52,2C45.64,40.13,37.79,40.37,36.28,37.38Z"/></g></svg>