<?xml version="1.0" encoding="utf-8"?>
<!-- Generator: Adobe Illustrator 23.0.1, SVG Export Plug-In . SVG Version: 6.00 Build 0)  -->
<svg version="1.1" id="Layer_1" xmlns="http://www.w3.org/2000/svg" xmlns:xlink="http://www.w3.org/1999/xlink" x="0px" y="0px"
	 viewBox="0 0 103.8 103.5" style="enable-background:new 0 0 103.8 103.5;" xml:space="preserve">
<style type="text/css">
	.st0{fill:#F5F3B4;stroke:#070707;stroke-width:1.32;stroke-miterlimit:10;}
	.st1{fill:#C85127;stroke:#070707;stroke-width:1.32;stroke-miterlimit:10;}
	.st2{fill:#F16422;}
</style>
<title>btn-food-01</title>
<path class="st0" d="M60.3,39.4l7-8c0,0-1.7-5.8,3.5-8.3c4.5-2.2,5.8,2.4,6.1,3.6c0.1,0.4,0.4,0.7,0.6,1c1.4,0.7,5,3.4,2.1,6.9
	c-2.4,2.3-6.4,1.1-6.4,1.1l-8.4,7.7"/>
<path class="st1" d="M62.7,34.7c0,0-5.4,8.6-19.5,10.7c0,0-10.3-0.8-15.6,5.7s-7.5,16.3,2.2,25.5s23.1,1.5,25.8-4
	c4.8-5.1,3-13.9,3-13.9s2.7-10.5,11-17.7l-2.9,0.1l0.9-1.9l-2.6-0.2l0.6-2.6l-2.9,0.4L62.7,34.7z"/>
<circle class="st2" cx="46.5" cy="73.7" r="0.7"/>
<circle class="st2" cx="47" cy="71.4" r="0.7"/>
<circle class="st2" cx="48" cy="72.8" r="0.4"/>
</svg>
