<svg xmlns="http://www.w3.org/2000/svg" viewBox="0 0 103.82 103.47"><defs><style>.cls-1{fill:#fff;stroke:#630;stroke-miterlimit:10;stroke-width:3.3px;}.cls-2{fill:#39b44a;}.cls-3{fill:#f17aa9;}.cls-4{fill:#8b6339;}</style></defs><title>btn-food-06</title><g id="Layer_2" data-name="Layer 2"><circle class="cls-1" cx="52.91" cy="51.74" r="49"/><path class="cls-2" d="M51,19.34s-5.12.46-6,.37-7.81,1.49-7.81,1.49A34.25,34.25,0,0,0,16.66,38.78S27,39.71,39.08,33.2s12.19-9.86,12.19-9.86"/><path class="cls-3" d="M40.55,53.49a10.1,10.1,0,0,1,6.14,3.81c2.14,3.17,4.46,3.54,7.91,4.47s7,3.16,4.18,11.81S46.5,85,43.06,85s-11.91-1-14.23-9.21,1.77-16.38,3.9-18.42C34.78,56,36.36,53.4,40.55,53.49Z"/><path class="cls-3" d="M64.91,47.89a8.14,8.14,0,0,1,5.43-2.21c3.1.1,4.45-1.25,6.7-3.07s5.41-3.08,9.76,2.88,1.66,13.52,0,15.78-6.35,7.34-12.83,5-9.92-9-10.24-11.34C63.81,52.88,62.85,50.6,64.91,47.89Z"/><path class="cls-4" d="M49.67,59.35s-2.42-1.3-1.31-4.93c0,0,1.1-1.49,1.86-6a114.17,114.17,0,0,0,1.21-16.19c0-4.68-1.27-12.25-.65-13.11,1.06-1.64,1.91,0,2.1.37a.48.48,0,0,0,.12.16,45.29,45.29,0,0,0,4.2,3.65,60.3,60.3,0,0,1,6.7,4.93,52.78,52.78,0,0,1,7.78,10.44.57.57,0,0,0,.08.13c1.56,1.94,2.93,3.95,2.93,4.5a2.09,2.09,0,0,1-2.61,1.3c-1.43-.35-2.26-3.89-2.32-4.16v0a30,30,0,0,0-2.32-5.1A34.57,34.57,0,0,0,62,28.56a68.11,68.11,0,0,0-7.38-5.9.46.46,0,0,0-.15-.09c-.47-.17-2.58-.88-2.33.69.28,1.77,2.14,12.46,1.39,14.6-.09,4.42-1.28,16.77-2.65,21.26a.53.53,0,0,0,0,.25C50.94,59.61,50.9,60.08,49.67,59.35Z"/></g></svg>