<svg xmlns="http://www.w3.org/2000/svg" viewBox="0 0 103.82 103.47"><defs><style>.cls-1{fill:#fff;stroke:#630;stroke-miterlimit:10;stroke-width:3.3px;}.cls-2{fill:#a1cc3a;}.cls-3{fill:#41803d;}.cls-4{fill:#ed3454;}.cls-5{fill:#c5dc7e;}.cls-6{fill:#2b1117;}.cls-7{fill:#d11d56;}</style></defs><title>btn-food-07</title><g id="Layer_2" data-name="Layer 2"><circle class="cls-1" cx="52.91" cy="51.74" r="49"/><polygon class="cls-2" points="78 61.64 79.13 64.28 86.31 65.04 84.9 62.49 78 61.64"/><path class="cls-3" d="M19.89,65C38.31,77.51,45.11,79.88,62.88,77A56,56,0,0,0,86.12,65l-7.18-.66S70.34,74,50.78,75.91C50.78,75.91,36.42,77.7,19.89,65Z"/><path class="cls-4" d="M21.68,61.83l33-36.48,23,35.82s-4.35,6.89-8.13,7.75-19,11.52-33.64,2.92S26.12,67.31,21.68,61.83Z"/><path class="cls-5" d="M21.59,62l-2.08,2.36s11.71,10,26.27,11.34,28-6.33,33.35-11.43l-1.6-2.84S65.71,72,55.51,72.51,38.5,73.26,21.59,62Z"/><path class="cls-6" d="M52.1,42.7a3.25,3.25,0,0,1,1.23-3,4.05,4.05,0,0,1,0,2.93C53,43.44,52.1,42.7,52.1,42.7Z"/><path class="cls-6" d="M46.67,62a5.19,5.19,0,0,1,2-4.77,6.52,6.52,0,0,1,0,4.67C48.1,63.15,46.67,62,46.67,62Z"/><path class="cls-6" d="M43.93,52.76a5.19,5.19,0,0,1,2-4.77A6.53,6.53,0,0,1,46,52.66C45.36,53.94,43.93,52.76,43.93,52.76Z"/><path class="cls-6" d="M53,53.12A5.2,5.2,0,0,1,53.4,48a6.5,6.5,0,0,1,1.47,4.44C54.7,53.8,53,53.12,53,53.12Z"/><path class="cls-6" d="M60.1,53.56a5.2,5.2,0,0,1-.32-5.15,6.51,6.51,0,0,1,2.09,4.18C61.9,54,60.1,53.56,60.1,53.56Z"/><path class="cls-6" d="M58.09,61.66a5.2,5.2,0,0,1,.81-5.1A6.51,6.51,0,0,1,60,61.1C59.75,62.48,58.09,61.66,58.09,61.66Z"/><path class="cls-6" d="M37.34,62a5.19,5.19,0,0,1,2-4.77,6.52,6.52,0,0,1,0,4.67C38.77,63.18,37.34,62,37.34,62Z"/><polygon class="cls-7" points="54.66 25.35 61.35 28.81 84.9 62.49 78 61.64 54.66 25.35"/><path class="cls-6" d="M64.67,60.35a5.19,5.19,0,0,1,0-5.16,6.51,6.51,0,0,1,1.84,4.29C66.44,60.89,64.67,60.35,64.67,60.35Z"/></g></svg>