<?xml version="1.0" encoding="utf-8"?>
<!-- Generator: Adobe Illustrator 23.0.1, SVG Export Plug-In . SVG Version: 6.00 Build 0)  -->
<svg version="1.1" xmlns="http://www.w3.org/2000/svg" xmlns:xlink="http://www.w3.org/1999/xlink" x="0px" y="0px"
	 viewBox="0 0 472.5 426.2" style="enable-background:new 0 0 472.5 426.2;" xml:space="preserve">
<style type="text/css">
	.st0{fill:#006E99;}
	.st1{fill:#5CADD6;}
	.st2{fill:#FFFFFF;}
</style>
<g id="seaText">
	<path class="st0" d="M238.2,298c1.8-0.7,3.2-2,3.9-3.8c0.2-0.8,0.2-1.6-0.1-2.4c-0.2-0.7-0.5-1.3-1-1.8c-0.2-0.1-0.4-0.2-0.6-0.1
		h-0.2H240c-0.2,0-0.4,0.1-0.6,0.1c-0.4,0.1-0.8,0.3-1.2,0.4s-0.8,0.3-1.3,0.5c-1.8,0.7-3.5,1.6-5.1,2.6c-1.7,1-3.3,2.1-4.8,3.3
		c-0.8,0.6-1.5,1.2-2.2,1.9c-0.6,0.6-1.2,1.3-1.6,2.1c-0.3,0.7-0.4,1.5-0.2,2.2c0.1,0.9,0.3,1.7,0.6,2.6c0.3,0.9,0.6,1.7,0.9,2.6
		c0.2,0.4,0.3,0.8,0.6,1.1c0.1,0.1,0.2,0.3,0.3,0.4c0,0,0.1,0.1,0.1,0.1l0,0l0,0h-0.1c-0.1,0-0.1-0.1-0.2-0.1l-2,0.9
		c0.7-1.6,1.5-3,2.4-4.5c0.9-1.6,2.2-2.9,3.8-3.9l0.4-0.2l0.3-0.1l0.6-0.2l1.1-0.4c0.8-0.3,1.5-0.6,2.3-0.9
		C235.4,299.6,236.9,298.8,238.2,298z M238.4,298.3c-1.4,0.9-2.7,1.8-4,2.8l-1.9,1.5c-0.3,0.3-0.6,0.5-1,0.8l-0.5,0.4l-0.3,0.2
		l-0.1,0.1c-0.9,1.1-1.7,2.2-2.4,3.5c-0.7,1.3-1.4,2.8-2.1,4.1l-0.6,1.4l-1.3-0.5c-0.1,0-0.2-0.1-0.3-0.1c0,0-0.1,0-0.1-0.1
		l-0.2-0.1c-0.1-0.1-0.2-0.2-0.3-0.3c-0.1-0.1-0.3-0.3-0.4-0.5c-0.2-0.3-0.4-0.5-0.5-0.8c-0.3-0.5-0.5-1-0.6-1.5c-0.3-1-0.6-2-0.8-3
		c-0.2-1-0.4-2.1-0.4-3.1c0-1.2,0.3-2.4,1-3.4c0.7-0.9,1.5-1.6,2.4-2.1c0.8-0.6,1.7-1.1,2.5-1.6c1.7-1,3.3-2.1,4.8-3.3
		c1.5-1.2,3-2.6,4.7-3.7c0.9-0.6,1.8-1.1,2.9-1.4c0.3-0.1,0.6-0.2,0.9-0.2l0.5-0.1c0.2,0,0.4,0,0.5,0c0.4,0,0.7,0.1,1.1,0.2
		c0.4,0.2,0.7,0.4,1,0.6c0.1,0.1,0.3,0.3,0.4,0.4l0.3,0.5c0.2,0.3,0.3,0.6,0.4,0.9c0.2,0.5,0.3,1.1,0.3,1.6c0.1,1.2-0.1,2.3-0.8,3.3
		c-0.6,0.9-1.4,1.6-2.3,2.2C240.1,297.4,239.2,297.9,238.4,298.3L238.4,298.3z"/>
	<g id="sea-2">
		<path class="st1" d="M309.9,268.6L309.9,268.6c0-0.4,0.3-0.8,0.8-0.8c0,0,0,0,0,0l0,0c0.2,0,4.3,0.2,6.2-1.6c0.7-0.6,1-1.5,1-2.4
			c0-0.4,0.3-0.7,0.7-0.7c0,0,0,0,0,0l0,0c0.4,0,0.7,0.3,0.7,0.7c0,0,0,0,0,0c0,0.9,0.3,1.8,1,2.4c1.5,1.4,4.4,1.6,5.6,1.6
			c1.4,0,3.8-0.3,5.1-1.5c0.7-0.6,1-1.5,1-2.4c0-0.4,0.3-0.7,0.7-0.7c0,0,0.1,0,0.1,0c0.4,0,0.7,0.3,0.7,0.7c0,0,0,0,0,0
			c0,0.9,0.3,1.8,1,2.4c1.4,1.3,4,1.5,5.3,1.6c1.8,0.1,3.6-0.4,5-1.5c0.7-0.6,1-1.5,1-2.4c0-0.4,0.4-0.7,0.8-0.7
			c0.4,0.1,0.6,0.3,0.7,0.7c0,0.9,0.3,1.8,1,2.4c1.4,1.3,4,1.5,5.4,1.6c1.8,0.1,3.6-0.4,5-1.5c0.7-0.6,1-1.5,1-2.4
			c0-0.4,0.3-0.7,0.7-0.7c0,0,0.1,0,0.1,0c0.4,0,0.7,0.3,0.7,0.7c0,0,0,0,0,0c0,0.9,0.3,1.8,1,2.4c2,1.8,6.1,1.6,6.2,1.6
			c0.4,0,0.7,0.4,0.7,0.8c0,0.4-0.2,0.7-0.6,0.7c-0.2,0-4.9,0.3-7.3-2c-0.3-0.2-0.5-0.5-0.7-0.8c-0.6,0.9-1.5,1.6-2.6,2
			c-1,0.4-2,0.6-3,0.7l-0.2,0.1h-1.4c-0.4,0-0.7,0-1.1-0.1c-1.8-0.1-3.5-0.8-4.9-1.9c-0.3-0.2-0.5-0.5-0.7-0.8
			c-0.6,0.9-1.5,1.6-2.6,2c-1,0.4-2,0.6-3,0.7c-0.1,0-0.2,0.1-0.3,0.1h-1.5c-0.4,0-0.7,0-1.1-0.1c-1.8-0.1-3.4-0.8-4.8-1.9
			c-0.3-0.2-0.5-0.5-0.7-0.8c-0.6,0.9-1.5,1.6-2.6,2c-1.1,0.4-2.2,0.7-3.4,0.8h-1.9c-1.2-0.1-2.4-0.3-3.6-0.8c-1-0.4-1.9-1.1-2.6-2
			c-0.6,0.9-1.5,1.6-2.6,2c-1.5,0.5-3,0.8-4.6,0.8h-0.7c-0.1,0-0.2,0-0.3-0.1C310.1,269.1,309.9,268.9,309.9,268.6L309.9,268.6z
			 M367.5,276c0,0-4.2,0.3-6.2-1.6c-0.7-0.6-1-1.5-1-2.4c0-0.4-0.3-0.8-0.7-0.8c-0.4,0-0.8,0.3-0.8,0.7v0.2c0,0.9-0.3,1.8-1,2.4
			c-1.3,1.2-3.6,1.5-5,1.5s-3.9-0.3-5.4-1.6c-0.7-0.6-1-1.5-1-2.4c0-0.4-0.3-0.7-0.8-0.8c-0.4,0-0.7,0.3-0.7,0.7c0,0,0,0.1,0,0.1
			c0,0.9-0.3,1.8-1,2.4c-1.3,1.2-3.6,1.5-5,1.5s-3.9-0.3-5.3-1.6c-0.7-0.6-1-1.5-1-2.4c0-0.4-0.3-0.8-0.7-0.8
			c-0.4,0-0.8,0.3-0.8,0.7v0.2c0,0.9-0.3,1.8-1,2.4c-1.5,1-3.3,1.6-5.1,1.5c-1.4,0-4.1-0.2-5.6-1.6c-0.7-0.6-1-1.5-1-2.4
			c0-0.4-0.3-0.7-0.8-0.8l0,0c-0.4,0-0.7,0.3-0.7,0.7c0,0,0,0.1,0,0.1c0,0.9-0.3,1.8-1,2.4c-1.9,1.8-6,1.6-6.2,1.6l0,0
			c-0.4,0-0.8,0.3-0.8,0.7l0,0v0.1c0,0.2,0.1,0.4,0.3,0.5c0.1,0.1,0.2,0.1,0.3,0.1h1c1.6,0,3.1-0.2,4.6-0.8c1-0.4,1.9-1.1,2.6-2
			c0.6,0.9,1.5,1.6,2.6,2c1.2,0.4,2.4,0.7,3.6,0.8h2c1.2-0.1,2.4-0.3,3.5-0.8c1-0.4,1.9-1.1,2.6-2c0.2,0.3,0.4,0.6,0.7,0.8
			c1.4,1.1,3,1.8,4.8,1.9c0.4,0.1,0.7,0.1,1.1,0.1h1.5c0.1,0,0.2,0,0.3-0.1c1-0.1,2-0.3,3-0.7c1-0.4,1.9-1.1,2.6-2
			c0.2,0.3,0.4,0.6,0.7,0.8c1.4,1.1,3,1.8,4.8,1.9c0.4,0.1,0.7,0.1,1.1,0.1h1.3c0.1,0,0.2,0,0.3-0.1c1-0.1,2-0.3,3-0.7
			c1-0.4,1.9-1.1,2.6-2c0.2,0.3,0.4,0.6,0.7,0.8c2.4,2.3,7.1,2,7.3,2c0.4,0,0.8-0.3,0.8-0.7c0-0.4-0.3-0.8-0.7-0.8l0,0h-0.1
			L367.5,276z"/>
		<path class="st1" d="M20.1,351.8L20.1,351.8c0-0.4,0.2-0.7,0.6-0.7c0.1,0,0.1,0,0.2,0l0,0c0.2,0,4.3,0.2,6.2-1.6
			c0.7-0.6,1-1.5,1-2.4c0-0.4,0.3-0.7,0.7-0.8l0,0c0.4,0,0.7,0.3,0.8,0.8c0,0.9,0.3,1.8,1,2.4c1.5,1.4,4.4,1.6,5.6,1.6
			c1.4,0,3.8-0.3,5.1-1.5c0.7-0.6,1-1.5,1-2.4c0-0.4,0.2-0.7,0.6-0.8c0,0,0.1,0,0.1,0c0.5,0,0.8,0.2,0.8,0.7v0.2
			c0,0.9,0.3,1.8,1,2.4c1.4,1.3,4,1.5,5.3,1.6c1.8,0.1,3.6-0.4,5-1.5c0.7-0.6,1-1.5,1-2.4c0-0.4,0.3-0.7,0.7-0.8
			c0.4,0,0.7,0.3,0.8,0.8c0,0.9,0.3,1.8,1,2.4c1.4,1.3,4,1.6,5.3,1.6c1.3,0,3.7-0.3,5-1.5c0.7-0.6,1-1.5,1-2.4
			c0-0.4,0.3-0.8,0.7-0.8c0.4,0,0.8,0.3,0.8,0.7v0.2c0,0.9,0.3,1.8,1,2.4c2,1.8,6.1,1.6,6.2,1.6c0.4,0,0.7,0.3,0.7,0.7
			c0,0,0,0.1,0,0.1c0,0.4-0.2,0.7-0.6,0.7c-0.2,0-4.9,0.3-7.3-2c-0.3-0.2-0.5-0.5-0.7-0.8c-0.6,0.9-1.5,1.6-2.6,2
			c-1,0.4-2,0.6-3,0.7c-0.1,0-0.2,0.1-0.3,0.1h-1.3c-0.4,0-0.7,0-1.1-0.1c-1.8-0.1-3.4-0.8-4.8-1.9c-0.3-0.2-0.5-0.5-0.7-0.8
			c-0.6,0.9-1.5,1.6-2.6,2c-1,0.4-2,0.6-3,0.7c-0.1,0-0.2,0.1-0.3,0.1h-1.4c-0.4,0-0.7,0-1.1-0.1c-1.8-0.1-3.4-0.8-4.8-1.9
			c-0.3-0.2-0.5-0.5-0.7-0.8c-0.6,0.9-1.5,1.6-2.6,2c-1.1,0.4-2.3,0.7-3.5,0.7h-2c-1.2-0.1-2.4-0.3-3.6-0.8c-1-0.4-1.9-1.1-2.6-2
			c-0.6,0.9-1.5,1.6-2.6,2c-1.5,0.5-3,0.8-4.6,0.8h-0.8C20.5,352.4,20.2,352.2,20.1,351.8L20.1,351.8z M77.7,359.2
			c0,0-4.2,0.3-6.2-1.6c-0.7-0.6-1-1.5-1-2.4c0-0.4-0.3-0.8-0.8-0.8c0,0,0,0,0,0c-0.4,0-0.7,0.3-0.7,0.7c0,0,0,0,0,0l0,0
			c0,0.9-0.3,1.8-1,2.4c-1.3,1.2-3.7,1.5-5,1.5s-3.9-0.3-5.3-1.6c-0.7-0.6-1-1.5-1-2.4c0-0.4-0.3-0.8-0.8-0.8c0,0,0,0,0,0
			c-0.4,0-0.8,0.3-0.8,0.7c0,0,0,0.1,0,0.1c0,0.9-0.3,1.8-1,2.4c-1.3,1.2-3.6,1.5-5,1.5s-3.9-0.2-5.3-1.6c-0.7-0.6-1-1.5-1-2.4
			c0-0.4-0.3-0.8-0.8-0.8c0,0,0,0,0,0c-0.4,0-0.7,0.3-0.7,0.7c0,0,0,0,0,0l0,0c0,0.9-0.3,1.8-1,2.4c-1.3,1.3-3.7,1.5-5.1,1.5
			s-4.1-0.2-5.6-1.6c-0.7-0.6-1-1.5-1-2.4c0-0.4-0.3-0.7-0.7-0.7c0,0-0.1,0-0.1,0l0,0c-0.4,0-0.7,0.3-0.8,0.7c0,0.9-0.3,1.8-1,2.4
			c-1.9,1.8-6,1.6-6.2,1.6l0,0c-0.4,0-0.8,0.3-0.8,0.7l0,0v0.1c0,0.2,0.1,0.4,0.3,0.5c0.1,0.1,0.2,0.1,0.3,0.1h0.8
			c1.6,0,3.1-0.2,4.6-0.8c1-0.4,1.9-1.1,2.6-2c0.6,0.9,1.5,1.6,2.6,2c1.2,0.4,2.4,0.7,3.6,0.8h2c1.2-0.1,2.4-0.3,3.5-0.8
			c1-0.4,1.9-1.1,2.6-2c0.2,0.3,0.4,0.6,0.7,0.8c1.4,1.1,3,1.8,4.8,1.9c0.4,0.1,0.7,0.1,1.1,0.1h1.4c0.1,0,0.2,0,0.3-0.1
			c1-0.1,2-0.3,3-0.7c1-0.4,1.9-1.1,2.6-2c0.2,0.3,0.4,0.6,0.7,0.8c1.4,1.1,3,1.8,4.8,1.9c0.4,0.1,0.7,0.1,1.1,0.1h1.3
			c0.1,0,0.2,0,0.2-0.1c1-0.1,2-0.3,3-0.7c1-0.4,1.9-1.1,2.6-2c0.2,0.3,0.4,0.6,0.7,0.8c2.4,2.3,7.1,2,7.3,2c0.4,0,0.7-0.4,0.7-0.8
			l0,0C78.4,359.5,78.1,359.2,77.7,359.2z"/>
		<path class="st1" d="M52,31.3L52,31.3c0-0.4,0.4-0.7,0.8-0.7l0,0c0.2,0,4.3,0.2,6.2-1.6c0.7-0.6,1-1.5,1-2.4
			c0-0.4,0.3-0.7,0.8-0.8l0,0c0.4,0,0.7,0.3,0.7,0.7c0,0,0,0.1,0,0.1c0,0.9,0.3,1.8,1,2.4c1.5,1.4,4.4,1.6,5.6,1.6s3.8-0.3,5.1-1.5
			c0.7-0.6,1-1.5,1-2.4c0-0.4,0.3-0.8,0.8-0.8c0,0,0,0,0,0c0.4,0,0.8,0.3,0.8,0.7c0,0,0,0.1,0,0.1c0,0.9,0.3,1.8,1,2.4
			c1.4,1.3,4,1.5,5.3,1.6c1.8,0.1,3.6-0.4,5-1.5c0.7-0.6,1-1.5,1-2.4c0-0.4,0.3-0.7,0.8-0.8c0.4,0,0.7,0.3,0.7,0.7c0,0,0,0.1,0,0.1
			c0,0.9,0.3,1.8,1,2.4c1.4,1.3,4,1.5,5.3,1.6c1.8,0.1,3.6-0.4,5-1.5c0.7-0.6,1-1.5,1-2.4c0-0.4,0.3-0.8,0.8-0.8c0,0,0,0,0,0
			c0.4,0,0.8,0.3,0.8,0.7c0,0,0,0.1,0,0.1c0,0.9,0.3,1.8,1,2.4c2,1.8,6.2,1.6,6.2,1.6c0.4,0,0.8,0.3,0.8,0.7l0,0
			c0,0.4-0.3,0.8-0.7,0.8c-0.2,0-4.9,0.3-7.3-2c-0.3-0.2-0.5-0.5-0.7-0.8c-0.6,0.9-1.5,1.6-2.6,2c-1,0.4-2,0.6-3,0.7
			c-0.1,0-0.1,0-0.2,0.1h-1.4c-0.4,0-0.7,0-1.1-0.1c-1.8-0.1-3.4-0.8-4.8-1.9c-0.3-0.2-0.5-0.5-0.7-0.8c-0.6,0.9-1.5,1.6-2.6,2
			c-1,0.4-2,0.6-3,0.7c-0.1,0-0.2,0.1-0.3,0.1h-1.5c-0.4,0-0.7,0-1.1-0.1c-1.8-0.1-3.4-0.8-4.8-1.9c-0.3-0.2-0.5-0.5-0.7-0.8
			c-0.6,0.9-1.5,1.6-2.6,2c-1.1,0.4-2.3,0.7-3.5,0.8h-2c-1.2-0.1-2.4-0.3-3.6-0.8c-1-0.4-1.9-1.1-2.6-2c-0.6,0.9-1.5,1.6-2.6,2
			c-1.5,0.5-3,0.8-4.6,0.8h-0.8c-0.1,0-0.2-0.1-0.3-0.1c-0.2-0.1-0.3-0.3-0.3-0.5C52.1,31.7,52,31.5,52,31.3L52,31.3z M109.6,38.7
			c0,0-4.2,0.3-6.2-1.6c-0.7-0.6-1-1.5-1-2.4c0-0.4-0.3-0.7-0.7-0.8c-0.4,0-0.7,0.3-0.8,0.8c0,0.9-0.3,1.8-1,2.4
			c-1.3,1.2-3.6,1.5-5,1.5S91,38.3,89.6,37c-0.7-0.6-1-1.5-1-2.4c0-0.4-0.2-0.7-0.6-0.8c0,0-0.1,0-0.1,0c-0.5,0-0.8,0.2-0.8,0.7v0.2
			c0,0.9-0.3,1.8-1,2.4c-1.3,1.2-3.6,1.5-5,1.5s-3.9-0.2-5.3-1.5c-0.7-0.6-1-1.5-1-2.4c0-0.4-0.3-0.7-0.7-0.7c0,0,0,0,0,0l0,0
			c-0.4,0-0.8,0.3-0.8,0.8c0,0,0,0,0,0c0,0.9-0.3,1.8-1,2.4c-1.3,1.2-3.7,1.5-5.1,1.5c-1.2,0-4.1-0.2-5.6-1.6c-0.7-0.6-1-1.4-1-2.3
			c0-0.4-0.3-0.7-0.7-0.7c0,0,0,0,0,0l0,0c-0.4,0-0.7,0.3-0.7,0.7c0,0,0,0,0,0l0,0c0.1,0.9-0.3,1.7-1,2.3c-1.9,1.8-6,1.6-6.2,1.6
			l0,0c-0.4,0-0.7,0.3-0.8,0.7l0,0v0.1c0,0.2,0.1,0.4,0.3,0.5c0.1,0.1,0.2,0.1,0.3,0.1h0.8c1.6,0.1,3.2-0.2,4.7-0.7
			c1-0.4,1.9-1.1,2.6-2c0.6,0.9,1.5,1.6,2.6,2c1.1,0.4,2.3,0.7,3.5,0.8h2c1.2-0.1,2.3-0.3,3.4-0.8c1-0.4,1.9-1.1,2.6-2
			c0.2,0.3,0.4,0.6,0.7,0.8c1.4,1.1,3.1,1.7,4.8,1.9c0.4,0.1,0.7,0.1,1.1,0.1h1.5c0.1,0,0.2,0,0.3-0.1c1-0.1,2-0.3,3-0.7
			c1-0.4,1.9-1.1,2.6-2c0.2,0.3,0.4,0.6,0.7,0.8c1.4,1.1,3,1.8,4.8,1.9c0.4,0.1,0.7,0.1,1.1,0.1H96c0.1,0,0.2,0,0.2-0.1
			c1-0.1,2-0.3,3-0.7c1-0.4,1.9-1.1,2.6-2c0.2,0.3,0.4,0.6,0.7,0.8c2.4,2.3,7.1,2,7.3,2c0.4-0.1,0.7-0.5,0.6-0.9
			C110.2,39,109.9,38.8,109.6,38.7z"/>
		<path class="st1" d="M383.7,58.7L383.7,58.7c0-0.4,0.4-0.7,0.8-0.7l0,0c0.2,0,4.3,0.2,6.2-1.6c0.7-0.6,1-1.4,1-2.3
			c0-0.4,0.3-0.7,0.7-0.7c0,0,0,0,0,0l0,0c0.4,0,0.7,0.3,0.7,0.7c0,0,0,0,0,0l0,0c-0.1,0.9,0.3,1.7,1,2.3c1.5,1.4,4.4,1.6,5.6,1.6
			c1.4,0,3.8-0.3,5.1-1.5c0.7-0.6,1-1.5,1-2.4c0-0.4,0.3-0.8,0.8-0.8c0,0,0,0,0,0c0.4,0,0.7,0.3,0.7,0.7c0,0,0,0,0,0l0,0
			c-0.1,0.9,0.3,1.7,1,2.3c1.4,1.3,4,1.5,5.3,1.6c1.8,0.1,3.6-0.4,5-1.5c0.7-0.6,1-1.5,1-2.4c0-0.4,0.3-0.8,0.7-0.8s0.8,0.3,0.8,0.7
			v0.2c-0.1,0.9,0.3,1.7,1,2.3c1.4,1.3,4,1.6,5.3,1.6s3.7-0.3,5-1.5c0.7-0.6,1-1.5,1-2.4c0-0.4,0.3-0.8,0.8-0.8c0,0,0,0,0,0
			c0.4,0,0.7,0.3,0.7,0.7c0,0,0,0,0,0l0,0c-0.1,0.9,0.3,1.7,1,2.3c2,1.8,6.1,1.6,6.2,1.6c0.4,0,0.8,0.3,0.8,0.7
			c0,0.4-0.3,0.8-0.7,0.8c-0.2,0-4.9,0.3-7.3-2c-0.3-0.2-0.5-0.5-0.7-0.8c-0.6,0.9-1.5,1.6-2.6,2c-1,0.4-2,0.6-3,0.7
			c-0.1,0-0.1,0-0.2,0.1H427c-0.4,0-0.7,0-1.1-0.1c-1.8-0.1-3.5-0.8-4.9-1.9c-0.3-0.2-0.5-0.5-0.7-0.8c-0.6,0.9-1.5,1.6-2.6,2
			c-1,0.4-2,0.6-3,0.7c-0.1,0-0.2,0.1-0.3,0.1h-1.5c-0.4,0-0.7,0-1.1-0.1c-1.8-0.1-3.4-0.8-4.8-1.9c-0.3-0.2-0.5-0.5-0.7-0.8
			c-0.6,0.9-1.5,1.6-2.6,2c-1.1,0.4-2.2,0.7-3.4,0.7h-2c-1.2-0.1-2.4-0.3-3.6-0.8c-1-0.4-1.9-1.1-2.6-2c-0.6,0.9-1.5,1.6-2.6,2
			c-1.5,0.6-3,0.8-4.6,0.8h-0.8c-0.1,0-0.2,0-0.3-0.1c-0.2-0.1-0.3-0.3-0.3-0.5C383.7,58.8,383.7,58.7,383.7,58.7z M441.3,66.1
			c0,0-4.2,0.3-6.2-1.6c-0.7-0.6-1-1.4-1-2.3c0-0.4-0.3-0.8-0.7-0.8s-0.8,0.3-0.8,0.7l0,0v0.2c0,0.9-0.3,1.8-1,2.4
			c-1.3,1.2-3.6,1.5-5,1.5s-3.9-0.3-5.4-1.6c-0.7-0.6-1-1.5-1-2.4c0-0.4-0.3-0.7-0.7-0.7c0,0-0.1,0-0.1,0c-0.4,0-0.7,0.3-0.7,0.7
			c0,0,0,0,0,0c0,0.9-0.3,1.8-1,2.4c-1.3,1.2-3.6,1.5-5,1.5s-3.9-0.3-5.3-1.6c-0.7-0.6-1-1.5-1-2.4c0-0.4-0.4-0.7-0.8-0.7
			c-0.4,0.1-0.6,0.3-0.7,0.7c0,0.9-0.3,1.8-1,2.4c-1.4,1.3-3.7,1.5-5.1,1.5s-4.1-0.2-5.6-1.6c-0.7-0.6-1-1.5-1-2.4
			c0-0.4-0.3-0.7-0.7-0.7c0,0-0.1,0-0.1,0l0,0c-0.4,0-0.7,0.3-0.7,0.7c0,0,0,0,0,0c0,0.9-0.3,1.8-1,2.4c-1.9,1.8-6,1.6-6.2,1.6l0,0
			c-0.4,0-0.8,0.3-0.8,0.7l0,0v0.1c0,0.2,0.1,0.4,0.3,0.5c0.1,0.1,0.2,0.1,0.3,0.1h0.8c1.6,0,3.1-0.3,4.6-0.8c1-0.4,1.9-1.1,2.6-2
			c0.6,0.9,1.5,1.6,2.6,2c1.2,0.4,2.4,0.7,3.6,0.8h2c1.2-0.1,2.4-0.3,3.5-0.8c1-0.4,1.9-1.1,2.6-2c0.2,0.3,0.4,0.6,0.7,0.8
			c1.4,1.1,3,1.8,4.8,1.9c0.4,0.1,0.7,0.1,1.1,0.1h1.5c0.1,0,0.2,0,0.3-0.1c1-0.1,2-0.3,3-0.7c1-0.4,1.9-1.1,2.6-2
			c0.2,0.3,0.4,0.6,0.7,0.8c1.4,1.1,3.1,1.8,4.9,1.9c0.4,0.1,0.7,0.1,1.1,0.1h1.3c0.1,0,0.2,0,0.3-0.1c1-0.1,2-0.3,3-0.7
			c1-0.4,1.9-1.1,2.6-2c0.2,0.3,0.4,0.6,0.7,0.8c2.4,2.3,7.1,2,7.3,2c0.4,0,0.7-0.4,0.7-0.8l0,0C442,66.3,441.7,66.1,441.3,66.1
			L441.3,66.1z"/>
		<path class="st1" d="M392.9,218.7L392.9,218.7c0-0.4,0.3-0.6,0.7-0.6l0,0c0.2,0,3.5,0.2,5.1-1.3c0.5-0.5,0.8-1.3,0.8-2
			c0-0.3,0.3-0.6,0.6-0.6l0,0c0.3,0,0.6,0.3,0.6,0.6c0,0.7,0.3,1.5,0.8,2c1.3,1.2,3.6,1.3,4.7,1.3c1.5,0.1,3.1-0.4,4.3-1.3
			c0.6-0.5,0.9-1.2,0.8-2c0-0.3,0.3-0.5,0.7-0.5c0,0,0,0,0,0c0.3,0,0.5,0.2,0.5,0.5c0,0.7,0.3,1.5,0.8,2c2.6,1.7,6,1.7,8.6,0
			c0.6-0.5,0.9-1.2,0.8-2c0-0.3,0.3-0.6,0.6-0.6s0.6,0.3,0.6,0.6l0,0c0,0.7,0.3,1.5,0.8,2c1.2,1.1,3.3,1.3,4.5,1.3
			c1.5,0,3-0.4,4.2-1.3c0.6-0.5,0.9-1.2,0.8-2c0-0.3,0.3-0.6,0.6-0.6s0.6,0.3,0.6,0.6l0,0c0,0.7,0.3,1.5,0.8,2
			c1.6,1.5,5.1,1.3,5.2,1.3c0.4,0,0.7,0.2,0.7,0.6c0,0.4-0.2,0.7-0.6,0.7l0,0c-0.2,0-4.1,0.3-6.1-1.6c-0.2-0.2-0.4-0.4-0.6-0.7
			c-0.5,0.7-1.3,1.3-2.1,1.7c-0.8,0.3-1.6,0.5-2.5,0.6l-0.2,0.1h-1.2c-0.3,0-0.6,0-0.9-0.1c-1.5-0.1-2.9-0.6-4-1.6
			c-0.2-0.2-0.4-0.4-0.6-0.7c-0.5,0.7-1.3,1.3-2.1,1.7c-0.8,0.3-1.6,0.5-2.5,0.6c-0.1,0-0.1,0.1-0.2,0.1h-1.2c-0.3,0-0.6,0-0.9-0.1
			c-1.5-0.1-2.9-0.6-4-1.6c-0.2-0.2-0.4-0.4-0.6-0.7c-0.5,0.7-1.3,1.3-2.1,1.7c-0.9,0.4-1.9,0.6-2.9,0.6h-1.6c-1-0.1-2-0.3-3-0.6
			c-0.9-0.3-1.6-0.9-2.1-1.7c-0.5,0.7-1.3,1.3-2.1,1.7c-1.2,0.5-2.6,0.7-3.9,0.7h-0.7c-0.1,0-0.2,0-0.3-0.1
			c-0.2-0.1-0.3-0.2-0.3-0.4S392.9,218.9,392.9,218.7L392.9,218.7z M440.9,224.9c0,0-3.5,0.2-5.2-1.3c-0.6-0.5-0.9-1.2-0.8-2
			c0-0.3-0.3-0.6-0.6-0.6s-0.6,0.3-0.6,0.6l0,0c0,0.7-0.3,1.5-0.8,2c-1.2,0.9-2.7,1.3-4.2,1.3c-1.1,0-3.3-0.2-4.5-1.3
			c-0.6-0.5-0.9-1.2-0.8-2c0-0.3-0.3-0.6-0.6-0.6l0,0c-0.3,0-0.6,0.3-0.6,0.6c0,0.7-0.3,1.5-0.8,2c-1.2,0.9-2.7,1.3-4.2,1.3
			c-1.1,0-3.3-0.2-4.4-1.3c-0.6-0.5-0.9-1.2-0.8-2c0-0.3-0.2-0.7-0.5-0.7s-0.7,0.2-0.7,0.5v0.2c0,0.7-0.3,1.5-0.8,2
			c-1.3,0.9-2.8,1.4-4.3,1.3c-1.2,0-3.4-0.1-4.7-1.3c-0.6-0.5-0.9-1.2-0.8-2c0-0.3-0.3-0.6-0.6-0.6l0,0c-0.3,0-0.6,0.3-0.6,0.6
			c0,0.7-0.3,1.5-0.8,2c-1.6,1.5-5,1.3-5.1,1.3l0,0c-0.3,0-0.6,0.3-0.7,0.6l0,0v0.1c0,0.2,0.1,0.3,0.3,0.4c0.1,0.1,0.2,0.1,0.3,0.1
			h0.7c1.3,0,2.7-0.2,3.9-0.7c0.9-0.3,1.6-0.9,2.1-1.7c0.5,0.7,1.3,1.3,2.1,1.7c1,0.4,2,0.6,3,0.6h1.7c1-0.1,2-0.3,2.9-0.6
			c0.9-0.3,1.6-0.9,2.1-1.7c0.2,0.2,0.4,0.5,0.6,0.7c1.1,0.9,2.5,1.5,4,1.6c0.3,0.1,0.6,0.1,0.9,0.1h1.4c0.9-0.1,1.7-0.3,2.5-0.6
			c0.9-0.3,1.6-0.9,2.1-1.7c0.2,0.2,0.4,0.5,0.6,0.7c1.1,0.9,2.5,1.5,4,1.6c0.3,0.1,0.6,0.1,0.9,0.1h1.4c0.9-0.1,1.7-0.3,2.5-0.6
			c0.9-0.3,1.6-0.9,2.1-1.7c0.2,0.2,0.4,0.5,0.6,0.7c2,1.9,5.9,1.6,6.1,1.6c0.3,0,0.6-0.3,0.6-0.6l0,0
			C441.5,225.1,441.2,224.9,440.9,224.9L440.9,224.9z"/>
		<path class="st1" d="M391.7,394.7L391.7,394.7c0-0.3,0.3-0.5,0.6-0.5l0,0c0.2,0,3.2,0.2,4.6-1.2c0.5-0.4,0.8-1.1,0.7-1.8
			c0-0.3,0.2-0.6,0.5-0.6l0,0c0.3,0,0.6,0.3,0.6,0.6c0,0.7,0.2,1.3,0.7,1.8c1.1,1.1,3.3,1.2,4.2,1.2c1.4,0,2.7-0.4,3.8-1.2
			c0.5-0.4,0.8-1.1,0.7-1.8c0-0.3,0.3-0.6,0.6-0.6s0.6,0.3,0.6,0.6l0,0l0,0c0,0.7,0.2,1.3,0.7,1.8c1.2,0.8,2.6,1.2,4,1.2
			c1.3,0,2.7-0.4,3.8-1.1c0.5-0.4,0.8-1.1,0.7-1.8c0-0.3,0.3-0.6,0.6-0.6s0.6,0.3,0.6,0.6l0,0c0,0.7,0.2,1.3,0.7,1.8
			c1.2,0.8,2.6,1.3,4,1.2c1.3,0,2.7-0.4,3.8-1.1c0.5-0.4,0.8-1.1,0.7-1.8c0-0.3,0.3-0.6,0.6-0.6s0.6,0.3,0.6,0.6l0,0
			c0,0.7,0.2,1.3,0.7,1.8c1.5,1.4,4.6,1.2,4.6,1.2c0.3-0.1,0.6,0.1,0.7,0.4c0.1,0.3-0.1,0.6-0.4,0.7l0,0h-0.1
			c-0.1,0-3.6,0.2-5.5-1.5c-0.2-0.2-0.4-0.4-0.5-0.6c-0.5,0.7-1.1,1.2-1.9,1.5c-0.7,0.3-1.5,0.5-2.3,0.5h-1.2c-0.3,0-0.5,0-0.8-0.1
			c-1.3-0.1-2.6-0.6-3.6-1.4c-0.2-0.2-0.4-0.4-0.5-0.6c-0.5,0.7-1.1,1.2-1.9,1.5c-0.7,0.3-1.4,0.5-2.2,0.5H414c-0.3,0-0.5,0-0.8-0.1
			c-1.3-0.1-2.6-0.6-3.6-1.4c-0.2-0.2-0.4-0.4-0.5-0.6c-0.5,0.7-1.1,1.2-1.9,1.5c-0.8,0.3-1.7,0.5-2.6,0.6h-1.7
			c-0.9,0-1.9-0.2-2.7-0.6c-0.8-0.3-1.5-0.8-1.9-1.5c-0.5,0.7-1.1,1.2-1.9,1.5c-1.1,0.4-2.3,0.6-3.5,0.6h-0.6c-0.1,0-0.2,0-0.3-0.1
			C391.9,395,391.8,394.9,391.7,394.7C391.8,394.8,391.8,394.7,391.7,394.7L391.7,394.7z M434.9,400.3c0,0-3.2,0.2-4.6-1.2
			c-0.5-0.4-0.8-1.1-0.7-1.8c0-0.3-0.3-0.6-0.6-0.6s-0.6,0.3-0.6,0.6l0,0l0,0c0,0.7-0.2,1.3-0.7,1.8c-1.1,0.8-2.4,1.2-3.8,1.1
			c-1,0-3-0.2-4-1.2c-0.5-0.4-0.8-1.1-0.7-1.8c0-0.3-0.2-0.6-0.5-0.6s-0.6,0.2-0.6,0.5l0,0v0.1c0,0.7-0.3,1.4-0.8,1.8
			c-1.1,0.8-2.4,1.2-3.8,1.1c-1.4,0.1-2.8-0.4-4-1.2c-0.5-0.4-0.8-1.1-0.7-1.8c0-0.3-0.3-0.6-0.6-0.6s-0.6,0.3-0.6,0.6l0,0
			c0,0.7-0.3,1.4-0.8,1.8c-1.1,0.8-2.4,1.2-3.8,1.1c-0.9,0-3.1-0.1-4.2-1.2c-0.5-0.4-0.8-1.1-0.7-1.8c0-0.3-0.3-0.6-0.6-0.6l0,0
			c-0.3,0-0.6,0.3-0.6,0.6c0,0.7-0.2,1.3-0.7,1.8c-1.4,1.3-4.5,1.2-4.6,1.2l0,0c-0.3,0-0.6,0.2-0.6,0.5l0,0v0.1
			c0,0.2,0.1,0.3,0.3,0.4c0.1,0.1,0.1,0.1,0.2,0.1h0.6c1.2,0,2.4-0.2,3.5-0.6c0.8-0.3,1.5-0.8,1.9-1.5c0.5,0.7,1.1,1.2,1.9,1.5
			c0.9,0.3,1.8,0.5,2.7,0.6h1.5c0.9,0,1.8-0.2,2.6-0.6c0.8-0.3,1.5-0.8,1.9-1.5c0.2,0.2,0.3,0.4,0.5,0.6c1,0.8,2.3,1.3,3.6,1.4
			c0.3,0.1,0.5,0.1,0.8,0.1h1.2c0.7-0.1,1.5-0.3,2.2-0.5c0.8-0.3,1.5-0.8,1.9-1.5c0.2,0.2,0.3,0.4,0.5,0.6c1,0.8,2.3,1.3,3.6,1.4
			c0.3,0.1,0.5,0.1,0.8,0.1h1.2c0.8-0.1,1.6-0.2,2.3-0.5c0.8-0.3,1.5-0.8,1.9-1.5c0.1,0.2,0.3,0.4,0.5,0.6c1.8,1.7,5.3,1.5,5.5,1.5
			c0.3,0,0.5-0.3,0.5-0.6l0,0C435.5,400.4,435.2,400.2,434.9,400.3L434.9,400.3z"/>
	</g>
	<g id="text-2">
		<path class="st0" d="M26.6,128.9c-0.1-0.1-0.2-0.1-0.3-0.2l-3.1-6.4c-0.1-0.2-0.1-0.4-0.1-0.6c0-0.2,0.2-0.3,0.3-0.4l0.4-0.1
			c0.2,0.1,0.3,0,0.5,0.2l6.5,3.9l-2.6-5.6c-0.1-0.1-0.1-0.3-0.1-0.4s0.1-0.2,0.2-0.3c0.2-0.1,0.5-0.1,0.6,0.1c0,0,0,0,0,0.1v0.1
			l3,6.5c0.1,0.2,0.1,0.4,0.1,0.6c0,0.2-0.2,0.4-0.4,0.4l-0.4,0.1c-0.1,0-0.3,0-0.4-0.1l-6.4-3.7l2.6,5.4c0.1,0.1,0.2,0.3,0.1,0.4
			c-0.1,0.1-0.1,0.2-0.2,0.3S26.7,129,26.6,128.9z"/>
		<path class="st0" d="M35.1,123.7c-2.2-0.8-3.6-3-3.4-5.4c0.6-2.2,2.8-3.5,5-3c1.1,0.4,2,1.2,2.5,2.2c0.6,1,0.8,2.1,0.6,3.3
			c-0.2,1.1-1,2-2,2.4C37,123.8,36,123.9,35.1,123.7z M39,120.7c0.1-0.9-0.1-1.8-0.6-2.5c-0.4-0.8-1-1.4-1.9-1.7
			c-0.7-0.3-1.6-0.3-2.2,0.2c-0.7,0.3-1.2,1-1.3,1.8c-0.1,0.9,0.1,1.8,0.6,2.5c0.4,0.8,1.1,1.4,1.9,1.8c0.7,0.2,1.5,0.2,2.2-0.2
			C38.4,122.1,38.8,121.4,39,120.7L39,120.7z"/>
		<path class="st0" d="M43.5,119.7c-0.1-0.1-0.3-0.1-0.4-0.2l-3.9-6l-0.1-0.5c0.1-0.1,0.1-0.3,0.2-0.4l2.1-1.4
			c0.3-0.2,0.6-0.3,0.9-0.4c0.2-0.1,0.5-0.2,0.8-0.3l0.8-0.2c0.2,0,0.5,0.1,0.7,0.2c0.3,0.2,0.5,0.4,0.7,0.7
			c0.2,0.4,0.3,0.8,0.2,1.3c-0.1,0.5-0.4,0.9-0.7,1.3l0,0c0.9-0.3,1.8,0,2.3,0.8l1.2,1.5l0,0l0.1,0.4l-0.2,0.4l-0.4,0.1
			c-0.2,0-0.3-0.1-0.4-0.2l-1-1.3c-0.2-0.3-0.4-0.4-0.6-0.7c-0.1-0.2-0.3-0.3-0.5-0.3c-0.2-0.1-0.4,0-0.5,0.1l-0.6,0.4l-1.6,1.1
			l1.8,2.8c0.1,0.1,0.2,0.3,0.1,0.5l-0.2,0.4C44,119.6,43.7,119.6,43.5,119.7z M43.2,114.4l0.5-0.3c0.2-0.1,0.2-0.3,0.4-0.4
			c0.2-0.1,0.3-0.3,0.3-0.5c0.1-0.2,0.1-0.3,0-0.5c0-0.2-0.1-0.4-0.2-0.6c-0.1-0.2-0.3-0.3-0.4-0.4l-0.4-0.2l-0.4,0.1l-0.4,0.1
			l-0.4,0.2L42,112l-1.5,1l1.5,2.2L43.2,114.4z"/>
		<path class="st0" d="M51.9,114.1c-0.1-0.1-0.3-0.1-0.4-0.2l-3.9-5.6l-1.8,1.2c-0.1,0.1-0.3,0.1-0.4,0.1s-0.2-0.1-0.2-0.2l-0.1-0.3
			c0-0.1,0.2-0.2,0.2-0.4l4.6-3.2c0.1-0.1,0.3-0.1,0.4-0.1s0.2,0,0.2,0.1l0.1,0.4l-0.2,0.4l-1.8,1.2l3.9,5.6
			c0.1,0.1,0.2,0.2,0.1,0.4l-0.2,0.4C52.3,114,52.1,114,51.9,114.1z"/>
		<path class="st0" d="M56.3,110.9c-0.2,0-0.3-0.1-0.4-0.2l-4.4-5.7c-0.1-0.1-0.1-0.3-0.1-0.4c0.1-0.3,0.4-0.5,0.7-0.5
			c0.1,0.1,0.3,0.1,0.4,0.2l1.8,2.3l3.4-2.6l-1.8-2.3c-0.1-0.1-0.2-0.3-0.1-0.4c0.1-0.1,0.1-0.3,0.2-0.4l0.4-0.1
			c0.2,0,0.3,0.1,0.4,0.2l4.4,5.7c0.1,0.2,0.1,0.3,0.1,0.5l-0.2,0.4c-0.2,0.2-0.5,0.1-0.7-0.1c0,0,0,0,0,0l0,0l-2-2.6l-3.4,2.4
			l2,2.6c0.1,0.1,0.2,0.3,0.1,0.4l-0.2,0.4C56.6,111,56.4,110.9,56.3,110.9z"/>
		<path class="st0" d="M68.6,98.6l-3.1,2.6l0.6,1.8c0.1,0.2,0,0.5-0.2,0.7l-0.4,0.1c-0.1,0-0.2,0-0.4-0.2v-0.2l-2.3-7l-0.2-0.8
			c0-0.2,0.1-0.4,0.2-0.5c0.2-0.1,0.4-0.2,0.6-0.2c0.3,0,0.5,0.1,0.8,0.2l6.5,3.6c0.1,0,0.1,0.1,0.1,0.2s0.1,0.3,0.1,0.4
			s0,0.3,0,0.4c-0.2,0.1-0.4,0.2-0.7,0.2L68.6,98.6z M63.8,95.8l1.5,4.5l2.6-2.2L63.8,95.8z"/>
		<path class="st0" d="M75.6,95.1c-0.2,0-0.3,0-0.5-0.1l-6.1-2.8l4.2,4.9c0.1,0,0.1,0.1,0.1,0.2c0,0,0,0,0,0.1l-0.2,0.4l-0.4,0.1
			c-0.1,0-0.2,0-0.3-0.1l-4.6-5.3c-0.1-0.2-0.2-0.4-0.1-0.6c0-0.2,0.2-0.5,0.4-0.6c0.2-0.1,0.4-0.2,0.6-0.2c0.2,0,0.5,0,0.7,0.2
			l5.9,2.7l-1.8-6.3L73,86.8c0-0.2,0.1-0.4,0.3-0.5c0.2-0.2,0.4-0.3,0.7-0.3c0.2,0,0.4,0.1,0.6,0.3l4.7,5.3c0.1,0.1,0.1,0.2,0.1,0.3
			l-0.2,0.4c-0.1,0.1-0.2,0.2-0.4,0.2c-0.1,0-0.2,0-0.3-0.1l-4.3-4.8l2,6.4l0.1,0.5L76,94.9C75.9,95,75.7,95,75.6,95.1z"/>
		<path class="st0" d="M81.2,90.3c-0.2,0-0.3,0-0.4-0.2l-4.9-5.3l-0.1-0.4c0-0.2,0-0.3,0.2-0.4l3.2-2.9c0.1-0.1,0.2,0,0.3-0.1
			c0.1,0,0.2,0,0.3,0.1l0.1,0.3c0,0.1,0,0.2-0.2,0.4L77,84.3l1.8,2l2.6-2.3l0.4-0.1c0.1,0,0.2,0,0.3,0.1l0.1,0.3
			c0,0.1,0,0.2-0.2,0.4L79.4,87l1.9,2l2.9-2.6c0-0.1,0.1-0.1,0.2-0.1c0,0,0,0,0.1,0c0.1,0,0.2,0.1,0.3,0.1l0.1,0.3
			c0,0.1-0.1,0.2-0.2,0.4l-3.3,3C81.4,90.3,81.3,90.3,81.2,90.3z"/>
		<path class="st0" d="M86.7,85.3c-0.2,0-0.4,0-0.5-0.2l-5-5.3c-0.1-0.1-0.2-0.3-0.1-0.4c0-0.2,0-0.4,0.2-0.5l1.8-1.8
			c0.2-0.2,0.4-0.4,0.7-0.6c0.2-0.2,0.5-0.3,0.7-0.4l0.8-0.2c0.3-0.1,0.5,0,0.8,0.1c0.3,0.2,0.5,0.3,0.8,0.5
			c0.3,0.3,0.5,0.8,0.5,1.2c0,0.5-0.2,1-0.5,1.4l0,0c0.8-0.5,1.8-0.4,2.4,0.2l1.4,1.2l0,0c0.1,0.1,0.1,0.3,0.1,0.4s0,0.3-0.2,0.4
			l-0.4,0.1c-0.2,0-0.3,0-0.4-0.1l-1.3-1c-0.2-0.1-0.4-0.4-0.7-0.6c-0.2-0.1-0.4-0.1-0.6-0.2c-0.2,0-0.4,0-0.5,0.1s-0.4,0.3-0.6,0.5
			l-1.4,1.4l2.2,2.3c0.1,0.1,0.1,0.3,0.1,0.4c0,0.2-0.1,0.3-0.2,0.4C87,85,86.9,85.1,86.7,85.3z M85.6,80.1l0.4-0.4
			c0.2-0.1,0.3-0.3,0.3-0.5c0.1-0.1,0.1-0.3,0.2-0.5s0-0.3-0.1-0.5c-0.1-0.2-0.2-0.4-0.3-0.5c-0.1-0.1-0.3-0.3-0.4-0.3
			c-0.1-0.1-0.3-0.1-0.4-0.1l-0.4,0.1l-0.4,0.1l-0.3,0.1l-0.3,0.3l-1.3,1.3l1.8,2L85.6,80.1z"/>
		<path class="st0" d="M92.8,79.5c-0.2,0-0.3,0-0.5-0.2l-5.1-5.2c-0.1-0.1-0.1-0.3-0.1-0.4s0.1-0.3,0.2-0.5l0.4-0.1
			c0.2,0,0.4,0,0.5,0.2l5,5.2c0.2,0.2,0.3,0.5,0.1,0.8c0,0,0,0-0.1,0.1h-0.1C93.1,79.5,92.9,79.5,92.8,79.5z"/>
		<path class="st0" d="M96.2,75.9c-0.7,0.2-1.4,0.1-2-0.1c-0.7-0.3-1.3-0.7-1.8-1.2c-0.4-0.4-0.8-0.9-1-1.4c-0.2-0.5-0.4-1-0.5-1.5
			c0-0.5,0.1-1.1,0.2-1.6c0.2-0.6,0.5-1.1,0.9-1.4c0.5-0.5,1.2-0.9,1.9-1.1c0.2,0,0.3,0,0.4,0.1l0.1,0.3c0,0.1-0.1,0.2-0.1,0.3h-0.2
			l-0.4,0.1h-0.2l-0.3,0.1l-0.4,0.2l-0.3,0.3c-0.3,0.3-0.5,0.5-0.6,0.9c-0.1,0.3-0.2,0.6-0.2,0.9c0,0.3,0,0.6,0.1,0.9
			c0.1,0.3,0.2,0.6,0.4,0.8c0.2,0.3,0.4,0.5,0.7,0.8l0.8,0.7c0.3,0.2,0.6,0.3,0.9,0.4c0.3,0.1,0.6,0.2,0.8,0.1c0.3,0,0.6,0,0.9-0.1
			c0.3-0.2,0.6-0.4,0.9-0.6c0.3-0.2,0.4-0.4,0.5-0.8c0.2-0.3,0.3-0.6,0.3-0.9c0-0.1,0.1-0.1,0.2-0.2l0.3-0.1c0.1,0,0.2,0.1,0.3,0.1
			C99,71.9,99,72,99,72.2c-0.2,0.8-0.6,1.5-1.3,2.1C97.5,75,96.9,75.6,96.2,75.9z"/>
		<path class="st0" d="M103.2,66.3l-2.8,2.8l0.7,1.8c0.1,0.2,0.1,0.5-0.1,0.6c0,0,0,0-0.1,0l-0.4,0.1c-0.1,0-0.3,0-0.3-0.1v-0.2
			l-3-6.8c-0.1-0.2-0.2-0.5-0.2-0.8c0-0.2,0.1-0.4,0.3-0.5c0.2-0.1,0.3-0.3,0.5-0.3c0.3,0,0.5,0,0.8,0.1l6.8,3
			c0.1,0,0.1,0.1,0.2,0.2c0.1,0.1,0.2,0.3,0.1,0.4c0,0.2-0.1,0.3-0.2,0.4c-0.2,0.2-0.4,0.3-0.7,0.2L103.2,66.3z M98,64l2,4.4
			l2.4-2.4L98,64z"/>
		<path class="st0" d="M71.8,294.6v-0.2h0.4c0.1,0,0.3,0.1,0.4,0.2v0.1c-0.1,0.8,0,1.7,0.5,2.4c0.2,0.4,0.6,0.8,1,1
			c0.3,0.2,0.8,0.2,1.1,0c0.2-0.1,0.3-0.2,0.4-0.3c0.1-0.1,0.2-0.2,0.2-0.4v-0.5c0-0.2-0.1-0.4-0.1-0.6l-0.3-1.7
			c-0.1-0.5-0.1-1.1,0.1-1.6c0.2-0.5,0.5-0.8,1-1.1c0.4-0.2,0.8-0.3,1.2-0.2c0.4,0.1,0.8,0.3,1.2,0.6c0.4,0.3,0.8,0.7,1,1.1
			c0.3,0.5,0.4,1,0.5,1.5c0,0.4,0,0.9,0,1.3c0,0.1-0.1,0.2-0.2,0.3h-0.3c-0.1,0-0.2-0.1-0.3-0.2v-0.3c0-0.3,0-0.7,0-1
			c-0.1-0.4-0.2-0.8-0.3-1.1c-0.2-0.4-0.6-0.8-1-1c-0.3-0.2-0.7-0.3-1.1-0.1c-0.2,0.1-0.4,0.3-0.5,0.6c-0.1,0.3-0.2,0.7-0.2,1
			l0.3,1.7c0.1,0.3,0.1,0.6,0.2,0.9c0,0.3,0,0.5-0.1,0.8c-0.1,0.2-0.2,0.5-0.3,0.7l-0.6,0.6c-0.6,0.4-1.4,0.4-2,0.1
			c-0.7-0.4-1.3-0.9-1.6-1.7C71.7,296.7,71.6,295.6,71.8,294.6z"/>
		<path class="st0" d="M76.1,302.1c0.9-2.2,3.1-3.5,5.5-3.1c1.1,0.3,2,1,2.5,1.9c0.5,0.9,0.7,2.1,0.4,3.1c-0.4,1.1-1.2,1.9-2.2,2.5
			c-1,0.6-2.1,0.8-3.2,0.6c-1-0.2-1.9-1-2.4-1.9C76,304.4,75.8,303.2,76.1,302.1z M79.1,306.1c1.8,0.1,3.5-0.8,4.3-2.4
			c0.3-0.7,0.2-1.5-0.2-2.2c-0.4-0.7-1-1.1-1.7-1.3c-0.9-0.1-1.7,0.1-2.4,0.6c-0.8,0.4-1.4,1-1.8,1.8c-0.3,0.7-0.2,1.5,0.2,2.2
			C77.8,305.5,78.4,306,79.1,306.1L79.1,306.1z"/>
		<path class="st0" d="M80.7,312.1c-0.1-0.4-0.1-0.8,0-1.2c0-0.4,0.2-0.8,0.5-1.1c0.2-0.4,0.6-0.7,1-0.9l4.2-2.5
			c0.1-0.1,0.3-0.1,0.4-0.1c0.2,0,0.3,0.1,0.4,0.3c0.2,0.2,0.2,0.6,0,0.8l-0.1,0.1l-4.2,2.5c-0.3,0.2-0.5,0.4-0.7,0.7
			c-0.2,0.2-0.3,0.5-0.3,0.8c-0.1,0.3-0.1,0.5,0,0.8c0.1,0.2,0.2,0.5,0.3,0.7c0.1,0.2,0.3,0.4,0.5,0.6c0.2,0.2,0.4,0.3,0.7,0.3
			c0.3,0.1,0.5,0.1,0.8,0.1c0.3-0.1,0.6-0.2,0.9-0.4l4.3-2.5c0.1-0.1,0.3-0.1,0.4-0.1c0.2,0,0.3,0.1,0.4,0.3
			c0.1,0.1,0.1,0.3,0.1,0.4c0,0.2-0.1,0.3-0.3,0.4l-4.3,2.4c-0.3,0.2-0.6,0.3-1,0.4c-0.3,0.1-0.7,0.1-1,0.1l-0.9-0.4
			c-0.3-0.1-0.5-0.3-0.7-0.5c-0.3-0.2-0.5-0.5-0.7-0.8C81,313,80.9,312.6,80.7,312.1z"/>
		<path class="st0" d="M85.3,319.7c0-0.2,0.1-0.3,0.3-0.4l5.9-3.5l-1.1-1.8v-0.4c0-0.1,0.1-0.2,0.2-0.3c0.1-0.1,0.2-0.1,0.3-0.1
			c0.1,0,0.3,0.1,0.3,0.2l2.9,4.8v0.3c0,0.1-0.1,0.2-0.2,0.3h-0.3c-0.1,0-0.2-0.1-0.3-0.2l-1.1-1.9l-5.9,3.5
			c-0.1,0.1-0.3,0.1-0.4,0.1c-0.2,0-0.3-0.2-0.4-0.3C85.3,320,85.2,319.9,85.3,319.7C85.3,319.7,85.3,319.7,85.3,319.7z"/>
		<path class="st0" d="M88,324.3c0-0.2,0.1-0.3,0.2-0.4l6.2-3.8c0.2-0.1,0.4-0.1,0.6-0.1c0.1,0.1,0.3,0.2,0.4,0.3
			c0.1,0.1,0.1,0.3,0.1,0.4c0,0.2-0.1,0.3-0.3,0.4l-2.5,1.6l2.2,3.6l2.5-1.6h0.4c0.2,0,0.3,0.2,0.4,0.3c0.1,0.1,0.1,0.3,0.1,0.4
			c0,0.2-0.1,0.3-0.2,0.4l-6.1,3.6c-0.1,0.1-0.3,0.1-0.4,0.1c-0.2,0-0.3-0.2-0.4-0.3c-0.1-0.1-0.1-0.3-0.1-0.4
			c0-0.2,0.1-0.3,0.3-0.4l2.7-1.8l-2.2-3.6l-2.8,1.8c-0.1,0.1-0.3,0.1-0.4,0.1c-0.2,0-0.3-0.1-0.4-0.3S88,324.4,88,324.3z"/>
		<path class="st0" d="M99,337.9l-2.1-3.3l-1.9,0.4c-0.2,0.1-0.5,0-0.6-0.2c-0.1-0.1-0.1-0.3-0.1-0.4c0-0.1,0.1-0.3,0.2-0.4h0.2
			l7.3-1.4c0.3-0.1,0.5-0.1,0.8,0c0.2,0.1,0.4,0.2,0.5,0.4c0.1,0.2,0.2,0.4,0.2,0.6c0,0.3-0.1,0.5-0.3,0.7l-4.3,6.1
			c0,0.1-0.1,0.1-0.2,0.2s-0.3,0-0.4,0s-0.3-0.1-0.4-0.3c-0.1-0.2-0.1-0.5,0-0.7L99,337.9z M102.2,333.4l-4.6,1l1.9,2.8L102.2,333.4
			z"/>
		<path class="st0" d="M101.8,345.3v-0.5l3.6-5.7l-5.3,3.5c-0.1,0.1-0.2,0.1-0.3,0c0,0,0,0,0,0c-0.1,0-0.3-0.1-0.3-0.2
			s-0.1-0.2-0.1-0.4c0-0.1,0.1-0.2,0.2-0.3l5.7-3.7c0.2-0.1,0.4-0.2,0.6-0.1s0.4,0.2,0.6,0.4s0.2,0.3,0.2,0.5c0,0.2-0.1,0.5-0.2,0.7
			l-3.3,5.5l6.4-1.1h0.7c0.2,0.1,0.3,0.2,0.5,0.3c0.1,0.2,0.2,0.4,0.2,0.6c0,0.2-0.1,0.4-0.3,0.6l-5.8,3.9h-0.3
			c-0.1,0-0.2-0.1-0.3-0.2s-0.1-0.2-0.1-0.4v-0.3l5.3-3.5l-6.6,1.2h-0.5c-0.1,0-0.2-0.1-0.3-0.2
			C101.7,345.6,101.7,345.4,101.8,345.3z"/>
		<path class="st0" d="M105.8,351.5c0-0.2,0.1-0.3,0.2-0.4l5.9-4.2c0.1-0.1,0.3-0.1,0.4-0.1c0.2,0,0.3,0.1,0.4,0.2l2.6,3.5v0.3
			c0,0.1-0.1,0.2-0.2,0.3c-0.1,0.1-0.2,0.1-0.3,0.1c-0.1,0-0.3-0.1-0.3-0.2l-2.1-3l-2.2,1.5l2.1,2.9c0.1,0.1,0.1,0.2,0.1,0.4
			s-0.1,0.2-0.2,0.3c-0.1,0.1-0.2,0.1-0.3,0.1c-0.1,0-0.2-0.1-0.3-0.2l-2-2.9l-2.4,1.7l2.2,3.2v0.3c0,0.1-0.1,0.2-0.2,0.3H109
			c-0.1,0-0.2-0.1-0.3-0.2l-2.7-3.6C105.7,351.8,105.7,351.6,105.8,351.5z"/>
		<path class="st0" d="M110,357.6c0-0.2,0.1-0.3,0.2-0.4l5.8-4.3c0.1-0.1,0.3-0.1,0.4-0.1c0.2,0,0.3,0.1,0.4,0.2l1.5,2.1
			c0.2,0.2,0.3,0.5,0.5,0.7c0.1,0.2,0.3,0.5,0.4,0.7c0.1,0.3,0.1,0.5,0.1,0.8c0,0.2-0.1,0.5-0.2,0.7c-0.1,0.3-0.3,0.5-0.6,0.7
			c-0.3,0.3-0.8,0.4-1.2,0.3c-0.5-0.1-0.9-0.3-1.3-0.7l0,0c0.4,0.8,0.1,1.8-0.6,2.3l-1.4,1.2l0,0c-0.1,0.1-0.2,0.1-0.4,0.1
			c-0.3-0.1-0.5-0.3-0.6-0.6c0-0.2,0-0.3,0.2-0.4l1.2-1.1l0.6-0.6c0.1-0.1,0.2-0.3,0.2-0.5c0.1-0.2,0.1-0.3,0-0.5
			c-0.1-0.2-0.2-0.4-0.4-0.6l-1.1-1.5l-2.6,2c-0.1,0.1-0.3,0.1-0.4,0.1c-0.2,0-0.3-0.1-0.4-0.2C110.3,357.8,110.1,357.7,110,357.6z
			 M115.3,357.1l0.4,0.5l0.4,0.4c0.1,0.1,0.3,0.2,0.5,0.2c0.2,0,0.3,0.1,0.5,0l0.6-0.3c0.2-0.1,0.3-0.2,0.4-0.4v-0.4v-0.4
			c0-0.1-0.1-0.3-0.1-0.4l-0.2-0.4l-0.3-0.3l-1.1-1.6l-2.2,1.6L115.3,357.1z"/>
		<path class="st0" d="M115,364.3c0-0.2,0.1-0.3,0.2-0.4l5.8-4.4c0.1-0.1,0.3-0.1,0.4-0.1c0.2,0,0.3,0.1,0.4,0.2
			c0.1,0.1,0.2,0.3,0.2,0.4c0,0.2-0.1,0.3-0.2,0.4l-5.7,4.4c-0.1,0.1-0.3,0.2-0.4,0.1c-0.2,0-0.3-0.1-0.4-0.2
			C115.1,364.6,115,364.5,115,364.3z"/>
		<path class="st0" d="M118.2,368c-0.1-0.7,0.1-1.4,0.4-2c0.4-0.7,0.9-1.3,1.5-1.7c0.4-0.4,1-0.7,1.6-0.8c0.5-0.2,1-0.2,1.5-0.2
			c0.5,0,1,0.2,1.5,0.4c0.5,0.3,0.9,0.6,1.3,1.1c0.5,0.6,0.8,1.3,0.9,2c0.1,0.2,0.1,0.3,0,0.5c-0.1,0.1-0.2,0.1-0.3,0.1
			c-0.1,0-0.2,0-0.3-0.1v-0.8l-0.1-0.3c0-0.1-0.1-0.2-0.2-0.3l-0.3-0.4c-0.2-0.3-0.5-0.5-0.8-0.7c-0.5-0.3-1.2-0.4-1.8-0.2
			c-0.3,0.1-0.6,0.2-0.9,0.4l-0.9,0.5c-0.3,0.2-0.5,0.5-0.7,0.8c-0.2,0.2-0.4,0.5-0.5,0.8c-0.1,0.3-0.2,0.6-0.2,0.9
			c0,0.3,0,0.6,0.2,0.9c0.1,0.3,0.3,0.7,0.6,0.9c0.2,0.2,0.4,0.4,0.7,0.6c0.3,0.2,0.6,0.3,0.9,0.5l0.2,0.1v0.3v0.3
			c-0.2,0.1-0.4,0.2-0.5,0.1c-0.8-0.2-1.5-0.7-1.9-1.4C118.9,369.6,118.4,368.9,118.2,368z"/>
		<path class="st0" d="M126.9,376.1l-2.6-3l-1.8,0.6c-0.2,0.1-0.5,0.1-0.7,0c-0.1-0.1-0.2-0.3-0.2-0.4c0-0.1,0.1-0.3,0.2-0.4h0.2
			l7.1-2.3c0.3-0.1,0.5-0.1,0.8-0.1c0.2,0,0.4,0.2,0.5,0.3c0.1,0.2,0.2,0.3,0.3,0.5c0,0.3-0.1,0.6-0.2,0.8l-3.5,6.6v0.2
			c-0.1,0.1-0.2,0.1-0.4,0.1c-0.2,0-0.3-0.1-0.4-0.2c-0.2-0.2-0.2-0.5-0.1-0.7L126.9,376.1z M129.6,371.2l-4.4,1.5l2.1,2.6
			L129.6,371.2z"/>
		<path class="st0" d="M335.4,68.3c0-0.2,0-0.3,0.1-0.4l4.7-5.6c0.1-0.1,0.3-0.1,0.4-0.1c0.2,0,0.3,0,0.4,0.1l3.3,2.8
			c0.1,0.1,0.1,0.2,0.1,0.3c0,0.1-0.1,0.2-0.1,0.3c-0.1,0.1-0.2,0.1-0.3,0c0,0,0,0,0,0c-0.1,0-0.3-0.1-0.3-0.2l-2.8-2.4l-1.7,2
			l2.8,2.3c0.1,0.1,0.1,0.2,0.2,0.4s-0.1,0.2-0.1,0.3c-0.1,0.2-0.3,0.3-0.5,0.2c0,0-0.1,0-0.1-0.1l0,0l-2.8-2.3l-2,2.2l2.9,2.5
			c0.1,0.1,0.1,0.2,0.2,0.4s-0.1,0.2-0.1,0.3h-0.3c-0.1,0-0.3,0-0.3-0.2l-3.4-2.9C335.4,68.6,335.3,68.5,335.4,68.3z"/>
		<path class="st0" d="M342.5,74.4c-0.2-0.3-0.4-0.7-0.5-1.1c-0.1-0.4,0-0.8,0.1-1.2c0.1-0.4,0.4-0.8,0.6-1.2l3.1-3.8
			c0.1-0.1,0.3-0.2,0.4-0.2c0.2,0,0.3,0.1,0.4,0.1c0.1,0.1,0.2,0.2,0.3,0.4c0,0.2,0,0.3-0.1,0.4l-3.1,3.7c-0.2,0.3-0.3,0.6-0.5,0.9
			c-0.1,0.3-0.1,0.5-0.1,0.8c0.1,0.3,0.2,0.5,0.3,0.8c0.1,0.2,0.3,0.4,0.5,0.6c0.2,0.2,0.4,0.3,0.7,0.4c0.2,0.1,0.5,0.1,0.7,0.2
			c0.3,0,0.5,0,0.8-0.1c0.3-0.1,0.5-0.4,0.7-0.6l3.1-3.7c0.1-0.1,0.3-0.1,0.4-0.1c0.2,0,0.3,0,0.4,0.1c0.1,0.1,0.2,0.2,0.2,0.4
			c0,0.2,0,0.3-0.1,0.4l-3.1,3.8l-0.8,0.7c-0.3,0.2-0.6,0.3-1,0.4c-0.3,0-0.6,0-0.9-0.1c-0.3,0-0.6-0.2-1-0.3
			c-0.3-0.2-0.6-0.3-0.9-0.6C343.1,75.3,342.7,74.9,342.5,74.4z"/>
		<path class="st0" d="M348.1,78.8c0-0.2,0-0.3,0.1-0.4l4.7-5.6c0.1-0.1,0.2-0.2,0.4-0.2c0.2,0,0.3,0,0.4,0.1l2,1.6
			c0.2,0.2,0.5,0.4,0.7,0.6c0.2,0.2,0.4,0.4,0.5,0.6c0.1,0.2,0.2,0.5,0.3,0.7c0.1,0.2,0.1,0.5-0.1,0.7c-0.1,0.3-0.2,0.5-0.4,0.8
			c-0.3,0.4-0.7,0.6-1.1,0.7c-0.5,0.1-1.1-0.1-1.5-0.4l0,0c0.6,0.7,0.6,1.7,0,2.3l-1.1,1.6l0,0c-0.1,0.1-0.3,0.1-0.4,0.1
			c-0.2,0-0.3,0-0.4-0.1c-0.1-0.1-0.2-0.2-0.3-0.4c0-0.1,0-0.3,0-0.4l0.9-1.4c0.2-0.2,0.3-0.5,0.4-0.8c0.1-0.2,0.1-0.3,0.1-0.5
			c0.1-0.2,0-0.3-0.1-0.5c-0.2-0.1-0.5-0.1-0.7-0.2l-1.5-1.3l-2.1,2.4c-0.1,0.1-0.3,0.2-0.4,0.2c-0.2,0-0.3-0.1-0.4-0.1
			C348.2,79.2,348,79,348.1,78.8z M353.1,77.1c0.1,0.2,0.3,0.3,0.5,0.3c0.2,0.1,0.3,0.2,0.5,0.2c0.2,0.1,0.3,0.1,0.5,0.1l0.5-0.1
			l0.5-0.4c0.1-0.1,0.1-0.3,0.2-0.4c0-0.1,0-0.3,0-0.4l-0.1-0.4c0-0.1-0.1-0.3-0.3-0.4c-0.1-0.1-0.1-0.2-0.2-0.3l-0.3-0.2l-1.4-1.2
			l-1.7,2.1L353.1,77.1z"/>
		<path class="st0" d="M355.3,83.9c0-1.2,0.4-2.3,1.2-3.1c0.7-0.9,1.7-1.6,2.9-1.8c1.1-0.1,2.2,0.2,3,0.9c0.9,0.7,1.4,1.7,1.5,2.8
			c-0.1,2.4-1.8,4.4-4.1,4.9C357.5,87.8,355.6,86.1,355.3,83.9L355.3,83.9z M359.6,86.5c1.7-0.5,2.9-2,3.1-3.8
			c0-1.5-1.2-2.6-2.7-2.6c0,0-0.1,0-0.1,0l-0.4,0.1c-1.7,0.6-2.9,2.1-3.1,3.8c0,1.4,1.1,2.5,2.4,2.5
			C359.1,86.6,359.3,86.6,359.6,86.5L359.6,86.5z"/>
		<path class="st0" d="M366.8,92l-3.1-2.5l-1.7,1.1c-0.3,0.1-0.7,0-0.9-0.3v-0.1c0-0.2,0-0.3,0.1-0.4h0.2l6.4-3.6
			c0.2-0.1,0.5-0.2,0.8-0.1c0.2,0.1,0.4,0.1,0.5,0.2c0.2,0.2,0.3,0.4,0.4,0.6c0,0.3,0,0.6-0.1,0.8l-2.2,6.8l-0.1,0.2
			c-0.1,0.1-0.3,0.1-0.4,0.1c-0.2,0-0.3-0.1-0.4-0.1c-0.2-0.1-0.3-0.4-0.1-0.7c0,0,0,0,0,0L366.8,92z M368.5,86.8l-4.1,2.3l2.6,2.1
			L368.5,86.8z"/>
		<path class="st0" d="M368.5,95.1v-0.2l0.4-0.1c0.2,0,0.3,0.1,0.4,0.1v0.1c0.2,0.9,0.6,1.6,1.4,2.1c0.3,0.4,0.8,0.6,1.3,0.6
			c0.4,0,0.8-0.1,1-0.4c0.1-0.1,0.3-0.3,0.2-0.4c0-0.1,0-0.3,0-0.4l-0.1-0.5c-0.1-0.2-0.2-0.4-0.3-0.6L372,94
			c-0.3-0.5-0.5-1-0.5-1.5c0-0.5,0.2-0.9,0.5-1.3c0.3-0.4,0.7-0.6,1.1-0.7c0.4-0.1,0.9,0,1.3,0.1c0.5,0.1,1,0.4,1.4,0.8
			c0.4,0.3,0.8,0.8,1,1.3c0.3,0.4,0.4,0.8,0.5,1.2c0,0.1,0,0.2,0,0.3h-0.3c-0.1,0-0.3,0-0.3-0.2v-0.2c-0.1-0.3-0.3-0.7-0.5-0.9
			c-0.2-0.3-0.4-0.6-0.8-0.9c-0.3-0.4-0.8-0.6-1.3-0.6c-0.6-0.1-1.2,0.3-1.3,0.9c0,0,0,0,0,0v0.2c0.1,0.3,0.2,0.7,0.4,1l1,1.5
			l0.4,0.8l0.1,0.8c0,0.3,0,0.6-0.1,0.8c-0.1,0.3-0.2,0.5-0.4,0.8c-0.4,0.6-1.1,0.9-1.8,0.8c-0.8-0.1-1.6-0.4-2.2-1
			C369.3,97.3,368.7,96.2,368.5,95.1z"/>
		<path class="st0" d="M374.4,100.9c0-0.2,0-0.3,0.1-0.4l4.6-5.6c0.1-0.1,0.3-0.1,0.4-0.1c0.2,0,0.3,0,0.5,0.2
			c0.1,0.1,0.1,0.2,0.2,0.4c0,0.2,0,0.3-0.1,0.4l-4.6,5.6c-0.1,0.1-0.3,0.3-0.4,0.2c-0.2,0-0.3-0.1-0.4-0.1
			C374.6,101.3,374.5,101.1,374.4,100.9z"/>
		<path class="st0" d="M382.4,104.8l-3.1-2.5l-1.7,1c-0.2,0.1-0.5,0.1-0.7,0c-0.1-0.1-0.2-0.2-0.3-0.4c0-0.2,0-0.3,0.1-0.4h0.2
			l6.4-3.6c0.2-0.1,0.5-0.2,0.8-0.1c0.2,0.1,0.4,0.1,0.5,0.2c0.1,0.1,0.2,0.3,0.3,0.5c0,0.3,0,0.6-0.1,0.8l-2.2,7.1
			c0,0.1-0.1,0.1-0.1,0.2c-0.1,0.1-0.3,0.1-0.4,0.1c-0.2,0-0.3,0-0.4-0.1c-0.2-0.2-0.3-0.5-0.1-0.7c0,0,0,0,0,0L382.4,104.8z
			 M384.1,99.6l-4.1,2.3l2.6,2.1L384.1,99.6z"/>
		<path class="st0" d="M257.2,212.8l-3.9-2.2l-1.5,1.3c-0.1,0.2-0.4,0.3-0.6,0.1c-0.1,0-0.3-0.2-0.3-0.3s-0.1-0.3,0-0.4l0.1-0.2
			l5.7-5c0.2-0.2,0.4-0.4,0.7-0.4c0.5,0,0.9,0.2,1.1,0.6c0.1,0.3,0.1,0.6,0.1,0.9l-0.4,8.1l-0.1,0.3c-0.1,0-0.3,0.2-0.4,0.1
			c-0.2,0.1-0.3,0-0.4-0.1c-0.2-0.2-0.3-0.4-0.2-0.7L257.2,212.8z M257.8,206.8l-3.6,3.1l3.2,1.9L257.8,206.8z"/>
		<path class="st0" d="M259.4,216.9c-0.1-0.2,0-0.3,0.1-0.4l4.1-6.3c0-0.2,0.2-0.2,0.3-0.2c0,0,0,0,0,0l0.4,0.1l3.6,2.8
			c0.1,0.1,0.1,0.3,0.1,0.4c0,0.1,0,0.2-0.1,0.4c0,0.1-0.1,0.2-0.3,0.2s-0.2,0-0.4-0.1l-3.1-2.3l-1.5,2.2l3,2.3
			c0.2,0.1,0.4,0.4,0.3,0.6l-0.1,0.1c-0.1,0.1-0.2,0.1-0.3,0.1c-0.1,0.1-0.2,0-0.4-0.1l-3-2.3l-1.8,2.9c-0.2,0.1-0.3,0.2-0.4,0.1
			l-0.4-0.1C259.5,217,259.5,217,259.4,216.9z"/>
		<path class="st0" d="M265.4,221.5c0-0.2,0-0.4,0.1-0.4l4.7-5.7c0.2-0.1,0.3-0.2,0.4-0.1l0.4,0.1l2.1,1.9l0.7,0.8
			c0.2,0.2,0.4,0.5,0.5,0.8c0.1,0.2,0.2,0.5,0.2,0.8c0,0.3,0,0.6-0.1,0.8c-0.1,0.3-0.2,0.6-0.5,0.8c-0.3,0.3-0.7,0.6-1.2,0.6
			c-0.6,0.1-1.1-0.1-1.5-0.5l0,0c0.6,0.8,0.6,1.9,0.1,2.7l-1,1.7l0,0c-0.1,0.1-0.3,0.2-0.4,0.1s-0.3-0.1-0.4-0.2s-0.2-0.3-0.1-0.4
			l0.1-0.4l0.9-1.5l0.5-0.8c0.1-0.2,0.1-0.4,0.1-0.6c0-0.2-0.1-0.4-0.2-0.5c-0.1-0.2-0.3-0.4-0.6-0.6l-1.6-1.5l-2.1,2.6
			c-0.2,0.1-0.3,0.2-0.4,0.1c-0.2,0-0.3-0.1-0.5-0.2C265.6,221.7,265.5,221.6,265.4,221.5z M270.6,219.9c0.2,0.1,0.4,0.3,0.5,0.5
			l0.6,0.3c0.2,0.1,0.4,0.2,0.6,0.2c0.1,0,0.3-0.1,0.5-0.2c0.2-0.1,0.3-0.2,0.5-0.4c0.2-0.1,0.2-0.3,0.3-0.5l0.1-0.4
			c-0.1-0.1-0.1-0.3-0.1-0.4c0-0.2-0.1-0.3-0.1-0.4c-0.1-0.1-0.2-0.3-0.3-0.3s-0.2-0.1-0.3-0.3l-1.6-1.4l-1.8,2.2L270.6,219.9z"/>
		<path class="st0" d="M272.1,227.9c0-0.3,0-0.4,0.2-0.5l5.2-5.3c0.2-0.1,0.3-0.2,0.4-0.1c0.4,0,0.6,0.3,0.6,0.6c0,0,0,0,0,0
			c0,0.2-0.1,0.3-0.2,0.5l-5.1,5.4c-0.2,0.1-0.3,0.2-0.4,0.1c-0.2,0-0.3-0.1-0.4-0.3C272.2,228.3,272,228.1,272.1,227.9z"/>
		<path class="st0" d="M275.9,231.7c-0.1-0.7-0.1-1.5,0.2-2.2c0.3-0.7,0.8-1.4,1.4-1.9c0.4-0.4,0.9-0.7,1.5-0.9
			c0.5-0.2,1.1-0.3,1.6-0.3c0.6,0,1.1,0.2,1.6,0.5c0.6,0.3,1,0.7,1.5,1.2c0.6,0.6,0.9,1.4,1.1,2.2c0.1,0.2,0,0.4-0.1,0.5
			c0,0,0,0,0,0c-0.1,0.1-0.2,0.1-0.3,0.1c-0.1,0-0.3-0.1-0.4-0.2l-0.1-0.2l-0.1-0.2V230c-0.1-0.1-0.1-0.1,0-0.3s0-0.2-0.1-0.3
			c0-0.1,0-0.2-0.1-0.3l-0.2-0.4c-0.3-0.2-0.6-0.6-0.9-0.8c-0.3-0.2-0.6-0.3-0.9-0.4c-0.3-0.1-0.6-0.1-0.9,0c-0.3,0-0.6,0.1-0.9,0.3
			c-0.3,0.2-0.6,0.4-0.9,0.7c-0.3,0.2-0.6,0.5-0.7,0.8c-0.2,0.3-0.4,0.6-0.5,1c-0.3,0.6-0.2,1.3,0.2,1.9c0.1,0.4,0.3,0.8,0.6,1.1
			c0.2,0.3,0.5,0.5,0.8,0.7c0.3,0.2,0.6,0.4,0.9,0.5c0.1,0,0.1,0,0.2,0.1s0.2,0.5,0,0.7l0,0c-0.2,0.1-0.3,0.2-0.5,0.2
			c-0.8-0.3-1.6-0.9-2.2-1.6C276.9,233.3,276.3,232.6,275.9,231.7z"/>
		<path class="st0" d="M285.3,241.1l-2.6-3.7l-1.9,0.5c-0.2,0-0.5-0.1-0.6-0.3c-0.1-0.2-0.2-0.3-0.1-0.4s0-0.3,0.1-0.4h0.2l7.5-1.6
			c0.3-0.1,0.6-0.1,0.8,0c0.2,0.1,0.4,0.3,0.5,0.5c0.2,0.2,0.2,0.4,0.2,0.7c0,0.3-0.1,0.5-0.2,0.8l-3.8,6.8l-0.2,0.1
			c-0.1,0.1-0.3,0.1-0.4,0.1c-0.1,0-0.3-0.2-0.4-0.3c-0.1-0.2-0.2-0.5-0.1-0.7L285.3,241.1z M288.3,236.1l-4.7,1.1l2.2,3.1
			L288.3,236.1z"/>
		<path class="st0" d="M362.6,381.8l-3.6,1.9l0.2,1.9c0.1,0.2-0.1,0.5-0.3,0.6c-0.1,0.1-0.3,0.1-0.4,0c-0.2,0-0.3-0.1-0.4-0.2v-0.2
			l-0.7-7.4c0-0.3,0-0.5,0.1-0.8c0.1-0.2,0.3-0.3,0.4-0.4c0.2-0.1,0.4-0.1,0.6-0.1c0.3,0.1,0.5,0.2,0.7,0.4l5.7,4.8l0.1,0.2
			c0.1,0.1,0.1,0.3,0,0.4l-0.3,0.3c-0.2,0.1-0.5,0.1-0.7-0.1L362.6,381.8z M358.4,378.2l0.5,4.6l3-1.6L358.4,378.2z"/>
		<path class="st0" d="M368.5,381.1c-0.4,0.1-0.8,0.1-1.2,0c-0.4-0.1-0.8-0.3-1.1-0.5c-0.4-0.3-0.7-0.7-0.9-1.1L363,375
			c-0.1-0.1-0.1-0.3,0-0.4c0.1-0.3,0.4-0.5,0.7-0.4c0,0,0,0,0,0c0.2,0.1,0.3,0.2,0.4,0.3l2.2,4.3c0.1,0.3,0.3,0.6,0.6,0.8
			c0.2,0.2,0.4,0.3,0.7,0.4c0.3,0,0.5,0,0.8-0.1c0.3,0,0.5-0.1,0.8-0.2c0.2-0.1,0.4-0.3,0.6-0.5c0.2-0.2,0.3-0.4,0.4-0.7
			c0.1-0.2,0.2-0.5,0.1-0.8c0-0.3-0.1-0.6-0.3-0.9l-2.2-4.3c-0.1-0.2-0.1-0.3,0-0.5c0.1-0.1,0.2-0.3,0.3-0.3c0.1-0.1,0.3-0.1,0.4,0
			c0.2,0,0.3,0.1,0.4,0.3l2.3,4.5c0.2,0.3,0.3,0.7,0.3,1.1v1c-0.1,0.3-0.2,0.6-0.4,0.9c-0.2,0.3-0.4,0.5-0.6,0.7l-0.9,0.6
			C369.2,380.9,368.9,381,368.5,381.1z"/>
		<path class="st0" d="M374.1,377.3c-0.1,0-0.1-0.1-0.2-0.1c-0.1-0.1-0.1-0.3,0-0.4c0-0.2,0.1-0.3,0.2-0.4h0.1
			c0.8,0.2,1.7,0,2.4-0.4c0.4-0.2,0.8-0.5,1.1-0.9c0.2-0.3,0.2-0.7,0.1-1.1c-0.1-0.2-0.2-0.3-0.3-0.4c-0.1-0.1-0.2-0.2-0.4-0.2h-0.5
			l-0.7,0.1l-1.8,0.2c-0.5,0.1-1.1,0.1-1.6-0.1c-0.4-0.2-0.8-0.6-1-1c-0.2-0.4-0.2-0.9-0.1-1.3c0.1-0.4,0.3-0.9,0.6-1.2
			c0.3-0.4,0.8-0.7,1.2-0.9c0.5-0.3,1-0.4,1.5-0.5c0.4-0.1,0.9,0,1.3,0.1c0.1,0,0.2,0.1,0.3,0.2s0.1,0.2,0,0.4s-0.1,0.2-0.2,0.3
			h-0.3c-0.3,0-0.7,0-1,0.1c-0.4,0-0.8,0.1-1.1,0.3c-0.4,0.2-0.8,0.5-1.1,0.9c-0.2,0.3-0.2,0.7-0.1,1.1c0.1,0.2,0.3,0.4,0.6,0.5
			c0.3,0.1,0.7,0.1,1,0l1.8-0.2c0.3-0.1,0.6-0.1,0.9-0.1c0.3,0,0.5,0,0.8,0.1c0.3,0.1,0.5,0.2,0.7,0.4c0.2,0.2,0.4,0.4,0.5,0.7
			c0.4,0.6,0.4,1.4,0,2c-0.4,0.7-1,1.3-1.8,1.6C376.1,377.7,375,377.7,374.1,377.3z"/>
		<path class="st0" d="M383.4,373.5c-0.2-0.1-0.3-0.2-0.4-0.3l-3-6.2l-2,1c-0.1,0.1-0.3,0.1-0.4,0c-0.1-0.1-0.2-0.1-0.3-0.2
			s-0.1-0.2,0-0.4s0.1-0.2,0.3-0.3l5-2.4c0.1-0.1,0.2-0.1,0.4,0s0.2,0.1,0.3,0.2s0.1,0.2,0,0.4s-0.1,0.2-0.3,0.3l-2,0.9l3,6.2
			c0.1,0.1,0.1,0.3,0,0.4c-0.1,0.1-0.2,0.3-0.3,0.3C383.6,373.6,383.5,373.6,383.4,373.5z"/>
		<path class="st0" d="M388.1,371.3c-0.1-0.1-0.3-0.2-0.3-0.3l-3-6.5c-0.1-0.1-0.1-0.3,0-0.4c0.1-0.1,0.2-0.3,0.3-0.3l2.2-1.1
			c0.3-0.1,0.5-0.2,0.8-0.3l0.8-0.1c0.3-0.1,0.5-0.1,0.8-0.1c0.2,0.1,0.5,0.2,0.6,0.4c0.6,0.5,0.8,1.3,0.7,2
			c-0.2,0.5-0.5,0.9-0.9,1.2l0,0c0.9-0.2,1.8,0.2,2.2,1l1,1.6l0,0c0.1,0.1,0.1,0.3,0,0.4c-0.1,0.1-0.2,0.3-0.3,0.3
			c-0.1,0.1-0.3,0.1-0.4,0c-0.2,0-0.3-0.1-0.4-0.2l-0.9-1.4c-0.2-0.2-0.3-0.5-0.5-0.7c-0.1-0.2-0.3-0.3-0.5-0.4
			c-0.2,0-0.3,0-0.5,0.1c-0.2,0.1-0.5,0.2-0.7,0.3l-1.8,0.8l1.4,3c0.1,0.2,0.1,0.3,0,0.5l-0.3,0.3
			C388.4,371.3,388.2,371.3,388.1,371.3z M388.5,365.9c0.2-0.1,0.3-0.2,0.5-0.3c0.2-0.1,0.3-0.2,0.5-0.3s0.2-0.3,0.3-0.4
			c0.1-0.2,0.1-0.3,0.1-0.5c0-0.2,0-0.4-0.1-0.6c-0.1-0.2-0.2-0.3-0.3-0.4c-0.1-0.1-0.2-0.2-0.4-0.2l-0.4-0.1l-0.6,0.1h-0.4
			l-0.4,0.2l-1.7,0.8l1.2,2.4L388.5,365.9z"/>
		<path class="st0" d="M399.2,363.9l-3.7,1.7l0.2,1.9c0,0.2-0.1,0.5-0.3,0.6c-0.1,0.1-0.3,0.1-0.4,0c-0.1,0-0.3-0.1-0.3-0.2v-0.2
			l-0.3-7.4c0-0.3,0-0.5,0.1-0.8c0.1-0.2,0.3-0.3,0.5-0.4c0.2-0.1,0.4-0.1,0.6-0.1c0.3,0.1,0.5,0.2,0.7,0.4l5.4,5.1v0.2
			c0.1,0.1,0.1,0.3,0,0.4c-0.1,0.1-0.2,0.3-0.3,0.3s-0.5,0.1-0.6-0.1L399.2,363.9z M395.2,360l0.3,4.7l3.1-1.4L395.2,360z"/>
		<path class="st0" d="M403.3,364.2c-0.1-0.1-0.3-0.2-0.3-0.3l-2.9-6.6c-0.1-0.2-0.1-0.3,0-0.5l0.3-0.3c0.1-0.1,0.3-0.1,0.4,0
			c0.1,0.1,0.3,0.2,0.3,0.3l2.7,6.3l3.4-1.5c0.1-0.1,0.2-0.1,0.4,0s0.2,0.2,0.2,0.3s0.1,0.2,0,0.4s-0.1,0.2-0.3,0.3l-3.9,1.7
			C403.6,364.2,403.4,364.3,403.3,364.2z"/>
		<path class="st0" d="M409.6,361.5c-0.2,0-0.3-0.1-0.3-0.3l-2.8-6.8c-0.1-0.1-0.1-0.3,0-0.4l0.3-0.3c0.1-0.1,0.3-0.1,0.4,0
			c0.1,0.1,0.3,0.2,0.3,0.3l2.8,6.8c0.1,0.2,0.1,0.3,0,0.5C410.1,361.5,409.9,361.6,409.6,361.5L409.6,361.5z"/>
		<path class="st0" d="M416.8,356.4l-3.7,1.5v1.9c0,0.3-0.2,0.5-0.4,0.6c-0.1,0.1-0.3,0.1-0.4,0c-0.1,0-0.2-0.1-0.3-0.3v-7.6
			c0-0.3,0-0.6,0.2-0.8c0.1-0.2,0.3-0.3,0.5-0.4c0.2-0.1,0.4-0.1,0.6-0.1c0.3,0.1,0.5,0.2,0.6,0.5l5.2,5.3v0.2
			c0.1,0.1,0.1,0.3,0,0.4l-0.3,0.3c-0.2,0.1-0.4,0-0.6-0.1L416.8,356.4z M413,352.4l0.1,4.7l3.1-1.3L413,352.4z"/>
		<path class="st0" d="M193.3,407.1l-4-0.3l-0.8,1.8c-0.1,0.2-0.3,0.4-0.6,0.4c-0.1,0-0.3,0-0.4-0.1c-0.1-0.1-0.2-0.2-0.2-0.4v-0.2
			l3.1-6.8c0.1-0.3,0.2-0.5,0.4-0.7c0.2-0.1,0.4-0.1,0.6-0.1c0.2,0,0.4,0,0.6,0.2c0.2,0.2,0.3,0.4,0.4,0.7l2.5,7v0.2
			c0,0.2-0.1,0.3-0.2,0.4c-0.1,0.1-0.3,0.1-0.4,0.1c-0.2,0-0.5-0.2-0.5-0.4L193.3,407.1z M191.5,401.8l-1.9,4.3l3.4,0.2L191.5,401.8
			z"/>
		<path class="st0" d="M196.7,409.3c-0.1-0.1-0.2-0.3-0.1-0.4l0.3-7c0-0.4,0.3-0.7,0.7-0.7c0,0,0,0,0,0h0.4c0.2,0.1,0.3,0.2,0.4,0.4
			l4,6.4l0.3-6.2c0-0.2,0.1-0.3,0.2-0.4c0.3-0.1,0.6-0.1,0.8,0c0.1,0.1,0.2,0.3,0.1,0.4l-0.3,7c0,0.4-0.3,0.7-0.7,0.7c0,0,0,0,0,0
			h-0.4l-0.3-0.3l-4-6.4l-0.3,6.1c0,0.2-0.1,0.3-0.2,0.4c-0.1,0.1-0.3,0.1-0.4,0.1C197,409.4,196.9,409.3,196.7,409.3z"/>
		<path class="st0" d="M207.7,409.7c-0.1-0.1-0.2-0.2-0.2-0.4l0.4-6.8l-2.2-0.1c-0.1,0-0.3-0.1-0.4-0.1v-0.6
			c0.1-0.1,0.2-0.1,0.4-0.1l5.6,0.4c0.1,0,0.3,0.1,0.3,0.2c0.1,0.1,0.1,0.2,0.1,0.3v0.3c-0.1,0.1-0.2,0.1-0.4,0.1l-2.2-0.1l-0.4,6.8
			c0,0.2-0.1,0.3-0.2,0.4c-0.1,0.1-0.3,0.2-0.4,0.1S207.8,409.9,207.7,409.7z"/>
		<path class="st0" d="M218,408.3l-4-0.3l-0.8,1.8c-0.1,0.2-0.3,0.4-0.6,0.4c-0.2,0-0.3-0.1-0.4-0.2c-0.1-0.1-0.2-0.2-0.2-0.4v-0.2
			l3.1-6.8c0.1-0.3,0.2-0.5,0.5-0.6c0.3-0.2,0.8-0.2,1.1,0.1c0.2,0.2,0.3,0.4,0.4,0.7l2.4,7.1v0.2c0,0.2-0.1,0.3-0.2,0.4
			c-0.1,0.1-0.3,0.1-0.4,0.1c-0.2,0-0.5-0.2-0.5-0.4L218,408.3z M216.3,403l-1.9,4.3l3.4,0.2L216.3,403z"/>
		<path class="st0" d="M221.5,410.4c-0.1-0.1-0.2-0.3-0.1-0.4l0.5-7.2c0-0.2,0.1-0.3,0.2-0.4c0.1-0.1,0.3-0.1,0.4-0.1l2.5,0.2
			l0.9,0.1c0.3,0.1,0.5,0.1,0.8,0.2c0.3,0.1,0.5,0.2,0.7,0.4c0.2,0.2,0.3,0.4,0.4,0.6c0.1,0.3,0.1,0.6,0.1,0.9
			c0,0.5-0.2,0.9-0.5,1.2c-0.4,0.3-0.9,0.5-1.4,0.6l0,0c0.9,0.2,1.5,1.1,1.5,2l0.1,1.9l0,0c0,0.2-0.1,0.3-0.2,0.4
			c-0.1,0.1-0.3,0.1-0.4,0.1h-0.4c-0.1-0.1-0.2-0.2-0.2-0.4l-0.1-1.6c0-0.3,0-0.5-0.1-0.8c-0.1-0.2-0.1-0.4-0.2-0.5
			s-0.3-0.2-0.4-0.3s-0.5-0.1-0.7,0l-2-0.1l-0.2,3.3c0,0.2-0.1,0.3-0.2,0.4c-0.1,0.1-0.3,0.2-0.4,0.1
			C221.8,410.6,221.6,410.6,221.5,410.4z M224.5,406h0.6l0.5-0.1c0.2-0.1,0.3-0.1,0.5-0.2s0.3-0.2,0.3-0.4c0.2-0.3,0.2-0.7,0.1-1.1
			c0-0.2-0.1-0.3-0.2-0.4l-0.3-0.3c-0.1-0.1-0.3-0.1-0.4-0.1h-0.4l-2.3-0.1l-0.2,2.7H224.5z"/>
		<path class="st0" d="M231.1,410.8c-0.6-0.4-1-1-1.3-1.6c-0.3-0.7-0.4-1.5-0.3-2.2c0-0.6,0.2-1.2,0.4-1.7c0.4-1,1.2-1.8,2.2-2.2
			c0.5-0.2,1.1-0.3,1.7-0.2c0.7,0,1.5,0.3,2.1,0.7c0.2,0.1,0.3,0.2,0.3,0.4s-0.1,0.3-0.2,0.3c-0.1,0.1-0.2,0.1-0.3,0.1h-1.8
			c-0.4,0-0.7,0-1.1,0.1c-0.3,0.1-0.6,0.2-0.8,0.4c-0.2,0.2-0.4,0.4-0.6,0.7c-0.2,0.3-0.3,0.6-0.4,0.9c-0.2,0.7-0.2,1.4-0.1,2.1
			c0,0.3,0.1,0.6,0.3,0.9c0.1,0.3,0.3,0.6,0.5,0.8c0.2,0.2,0.5,0.4,0.8,0.5c0.3,0.1,0.7,0.2,1,0.2c0.3,0,0.6,0,0.9-0.1l0.9-0.3h0.2
			c0.1,0,0.2,0.1,0.3,0.2c0.1,0.1,0.1,0.2,0.1,0.3c0,0.2-0.1,0.3-0.3,0.4c-0.7,0.4-1.6,0.6-2.4,0.5
			C232.4,411.9,231.6,411.4,231.1,410.8z"/>
		<path class="st0" d="M239.7,411.5c-0.1-0.1-0.2-0.3-0.1-0.4l0.4-6.8l-2.2-0.1c-0.1,0-0.3-0.1-0.3-0.2c-0.1-0.1-0.1-0.2-0.1-0.3
			c0-0.1,0.1-0.2,0.2-0.3s0.2-0.1,0.4-0.1l5.6,0.4c0.1,0,0.3,0.1,0.3,0.2c0.1,0.1,0.1,0.2,0.1,0.3c0,0.1-0.1,0.3-0.2,0.3
			s-0.2,0.1-0.4,0.1l-2.2-0.1l-0.4,6.8c0,0.3-0.3,0.5-0.6,0.5c-0.2,0-0.3-0.1-0.4-0.2L239.7,411.5z"/>
		<path class="st0" d="M245.2,411.9c-0.1-0.1-0.2-0.3-0.1-0.4l0.5-7.2c0-0.2,0.1-0.3,0.2-0.4c0.1-0.1,0.3-0.2,0.4-0.1
			c0.3,0,0.6,0.3,0.6,0.6l-0.5,7.2c0,0.2-0.1,0.3-0.2,0.4C245.7,412.1,245.4,412.1,245.2,411.9z"/>
		<path class="st0" d="M250.1,412c-0.6-0.4-1-0.9-1.2-1.6c-0.3-0.7-0.4-1.5-0.3-2.2c0-0.6,0.2-1.2,0.4-1.7c0.2-0.5,0.5-0.9,0.9-1.3
			c0.4-0.4,0.8-0.6,1.3-0.8c0.5-0.2,1.1-0.3,1.7-0.2c0.8,0,1.5,0.3,2.1,0.7c0.1,0.1,0.2,0.2,0.2,0.4v0.3c-0.1,0.1-0.2,0.1-0.3,0.1
			h-1.8c-0.4,0-0.7,0-1.1,0.1c-0.3,0.1-0.6,0.2-0.8,0.4c-0.2,0.2-0.4,0.4-0.6,0.7c-0.3,0.6-0.5,1.2-0.6,1.9c0,0.3-0.1,0.7-0.1,1
			c0,0.4,0.1,0.7,0.3,1c0.1,0.3,0.3,0.6,0.5,0.8c0.2,0.2,0.5,0.4,0.8,0.5l1,0.3c0.3,0,0.6,0,0.9-0.1l0.9-0.3h0.2
			c0.1,0,0.2,0.1,0.3,0.2v0.3c0,0.2-0.1,0.4-0.3,0.4c-0.7,0.4-1.6,0.6-2.4,0.5C251.3,413.1,250.6,412.6,250.1,412z"/>
		<path class="st0" d="M262,411.1l-4-0.3l-0.8,1.7c-0.1,0.2-0.4,0.4-0.6,0.3c-0.2,0-0.3-0.1-0.4-0.2c-0.1-0.1-0.2-0.2-0.1-0.4V412
			l3.3-6.7c0.1-0.3,0.3-0.5,0.5-0.6c0.2-0.1,0.4-0.1,0.6-0.1c0.2,0,0.4,0.1,0.6,0.2c0.2,0.2,0.3,0.4,0.4,0.7l2.3,7.2v0.2
			c0,0.2-0.1,0.3-0.2,0.4c-0.1,0.1-0.3,0.1-0.4,0.1c-0.2,0-0.4-0.2-0.5-0.4L262,411.1z M260.4,405.8l-2,4.2l3.4,0.2L260.4,405.8z"/>
	</g>
</g>
<g id="northAmerica">
	<path class="st0" d="M157.6,48.4c-1.2-0.8-2.4-1.7-3.4-2.7c-1-1-2.2-1.7-3.6-2c-0.7-0.1-1.4,0.2-1.9,0.6c-0.5,0.5-1,1-1.4,1.6
		c-0.4,0.6-0.8,1.2-1.3,1.8c-0.5,0.6-1.2,1-1.9,1.2c-0.7,0.2-1.5,0.2-2.2,0.1c-0.7-0.1-1.4-0.1-2.2-0.1c-1.4,0-2.8,0.2-4.2,0.6
		c-1.3,0.5-2.5,1.3-3.5,2.3c-1,1.1-2.3,1.9-3.7,2.4c-1.5,0.5-3,0.5-4.5,0.2c-0.2,0-0.4-0.1-0.5-0.1h-0.1H123
		c-0.3,0.1-0.5,0.3-0.7,0.6c-0.5,0.5-0.9,1.1-1.4,1.6c-0.5,0.6-1.1,1.1-1.7,1.6c-0.7,0.5-1.5,0.7-2.3,0.7c-1.6-0.2-3-0.8-4.2-1.8
		l-1.8-1.3c-0.5-0.4-1.1-0.7-1.7-0.8c-0.1,0-0.2,0-0.3,0h-0.2l-0.1,0.1c-0.1,0-0.2,0.1-0.2,0.2s0,0.1,0,0.1s0,0,0,0.1
		s0.1,0.3,0.2,0.5l0.3,0.3l0.3,0.3c1,0.9,2.2,1.6,3.5,2.2c1.3,0.6,2.6,1.1,4,1.4l0.7,0.2l-0.1,0.7c-0.2,1.6-0.6,3.2-1.1,4.7
		c-0.4,1.5-0.8,2.9-1,4.4c-0.2,1.5-0.4,3-0.4,4.5c0,1.5,0.1,3,0.2,4.6v0.5l-0.3,0.3c-0.8,1-1.6,1.9-2.6,2.8c-0.6,0.6-1.2,1-2,1.3
		c-0.2,0.1-0.5,0.1-0.7,0.2h-0.4c-0.1,0-0.3,0.1-0.4,0.2c-0.2,0.1-0.4,0.3-0.6,0.5s-0.5,0.4-0.8,0.6c-0.6,0.4-1.1,0.7-1.7,0.9
		c-0.5,0.2-1.2,1.3-1.7,2.3l-0.2,0.3l-0.3,0.2c-1.1,0.7-2.2,1.3-3.4,1.8c-1.1,0.5-2.2,1-3.2,1.5c-2.1,1-4.1,2.2-5.9,3.5
		c-1.8,1.3-3.5,2.9-5,4.6c-0.4,0.4-0.7,0.9-1.1,1.3c-0.4,0.4-0.7,0.9-1,1.4l-1,1.4l-0.9,1.5c-1.3,2-2.5,4.1-3.8,6.1
		c-1.3,2.2-3,4.1-4.8,5.8c-0.6,0.4-1.2,0.8-1.9,1c-0.7,0.2-1.5,0.3-2.2,0.3c-0.4,0-0.6-0.1-0.9-0.1l-0.9-0.1c-0.6,0-1.1-0.1-1.7,0
		c-2.2,0-4.4,0.5-6.4,1.5c-2,1.1-3.7,2.5-5,4.3c-1.4,1.8-2.5,3.9-3.4,6c-1.9,4.3-3.3,8.8-4.1,13.4c-0.3,2.4-0.9,4.8-1.7,7.1
		c-0.5,1.1-1.1,2.2-1.8,3.2c-0.6,1-1.1,2.1-1.5,3.1c-0.9,2.1-1.4,4.4-1.5,6.7c0,1.1,0.1,2.3,0.4,3.4c0.3,1.1,0.7,2.1,1.3,3.1v0.1
		v0.1c1.7,5.4,2,11.1,2.8,16.6c0.2,1.3,0.5,2.7,1,3.9c0.2,0.3,0.3,0.6,0.5,0.9c0.2,0.3,0.4,0.5,0.6,0.7c0.4,0.4,1.1,0.8,1.6,1.3
		c1.1,0.9,2.2,1.8,3.2,2.7c1,0.9,2.2,1.6,3.4,2.2c0.6,0.3,1.2,0.4,1.8,0.3c0.6-0.1,1.1-0.4,1.3-0.9c0.7-1.1,1.1-2.4,1.2-3.7
		c0.3-2.8,0.7-5.6,1.2-8.3c0.5-2.8,1.2-5.5,2-8.2c0.5-1.4,1-2.7,1.7-3.9c0.7-1.3,1.7-2.5,3-3.3l0.1-0.1h0.1c2.6-0.5,5.3-0.5,7.9-0.1
		c1.3,0.2,2.6,0.7,3.8,1.3c1.3,0.7,2.3,1.6,3.1,2.8c0.7,1.2,1.1,2.6,1.3,4c0.2,1.3,0.3,2.6,0.4,3.9c0.2,2.6,0.3,5.1,0.7,7.5
		c0.1,1.1,0.5,2.1,1.1,3.1c0.2,0.3,0.6,0.4,0.9,0.4c0.5,0,1-0.2,1.4-0.4c0.5-0.3,1-0.5,1.5-0.9l1.6-1.1c1-0.7,2.1-1.5,3-2.3
		c2-1.4,3.7-3.2,5.1-5.2c1.2-2.1,2-4.4,2.3-6.8l0.1-0.7l0.6-0.3c1.4-0.6,2.8-0.9,4.3-1.1c1.4-0.1,2.8-0.2,4.2-0.1
		c1.3,0.1,2.5,0,3.8-0.2c1-0.1,2-0.6,2.7-1.4l-0.3,0.5l0.7-2.7c0.2-1.1,0.7-2.1,1.3-3c0.7-1,1.7-1.7,2.9-2.1c1-0.3,2-0.5,3-0.6
		c1.9-0.2,3.8-0.3,5.7-0.3l5.6-0.1l22.4-0.5l-1.4,1c1.3-3.8,2.7-7.5,4.2-11.3c0.8-1.9,1.6-3.7,2.4-5.6c0.2-0.5,0.5-0.9,0.7-1.4
		c0.3-0.5,0.6-1,1-1.5c0.4-0.4,0.8-0.9,1.1-1.2s0.8-0.7,1.2-1.1c3.3-2.5,6.8-4.6,10.5-6.4l5.4-2.7c0.9-0.4,1.8-0.9,2.5-1.3
		c0.8-0.5,1.5-1.1,2.1-1.7c2.8-2.6,5.2-5.5,7.1-8.9c0.9-1.6,1.6-3.4,2.2-5.2l0.4-1.3l0.2-1.4c0.1-0.9,0.3-2,0.4-2.9
		c0.5-3.9,1-7.8,1.2-11.8c0.1-1.9,0.1-3.9,0-5.8c-0.1-0.9-0.2-1.8-0.4-2.7c-0.2-0.8-0.7-1.4-0.9-1.5h0.6l-7.7,0.8l-1.1,0.1l-0.2-1.1
		c-0.3-1.7-0.4-3.5-0.1-5.2c0.1-0.5,0.2-0.9,0.4-1.4c0.1-0.2,0.3-0.5,0.4-0.7c0.1-0.1,0.1-0.2,0.2-0.3c0.2-0.5,0.2-1-0.1-1.4
		c-0.5-0.9-1.9-1.5-3.4-1.7c-1.5-0.2-3-0.3-4.5-0.1c-1.5,0.1-3.1,0.4-4.6,0.8c-1.6,0.5-3.2,0.8-4.9,0.9c-1.8,0-3.5-0.6-4.9-1.7
		c-1.3-0.9-2.6-1.8-3.9-2.6c-2.6-1.6-5.9-1.5-9.1-1.9c-1.7-0.2-3.3-0.8-4.6-1.9c-0.7-0.6-1.1-1.4-1.3-2.2c-0.2-0.8-0.2-1.7,0-2.5
		c0.3-1.6,0.9-3.1,1.7-4.5c0.8-1.5,1.8-2.8,3-3.8c2.5-2.1,5.9-2.9,9.1-2.2h-0.2c0.6-0.8,1-1.8,0.9-2.8c-0.1-1-0.5-2-1.1-2.8
		c-0.3-0.4-0.6-0.8-1-1.2c-0.4-0.3-0.8-0.7-1.2-1s-0.8-0.6-1.3-0.9L157.6,48.4z M157.8,48.1l1.4,0.8c0.5,0.3,0.9,0.6,1.3,0.9
		s0.8,0.7,1.2,1c0.4,0.4,0.7,0.8,1.1,1.2c0.7,0.9,1.1,1.9,1.2,3c0.1,1.1-0.3,2.2-1,3.1l-0.1,0.1h-0.1c-3.1-0.7-6.4,0.1-8.7,2.2
		c-1.1,1.1-2.1,2.3-2.8,3.8c-0.8,1.4-1.3,2.8-1.6,4.4c-0.3,1.5,0.2,3,1.2,4c1.2,0.9,2.7,1.4,4.2,1.5c1.5,0.2,3.2,0.2,4.8,0.4
		c1.7,0.2,3.3,0.6,4.8,1.4c1.5,0.8,2.8,1.7,4.1,2.6c1.2,0.8,2.6,1.3,4.1,1.3c1.5-0.2,3-0.5,4.5-1c1.6-0.5,3.2-0.8,4.8-1
		c1.7-0.2,3.3-0.2,5,0c0.9,0.1,1.8,0.4,2.6,0.7c0.9,0.4,1.7,1,2.3,1.9c0.3,0.5,0.5,1,0.6,1.6c0,0.6,0,1.1-0.2,1.6
		c-0.1,0.3-0.2,0.5-0.3,0.7c-0.1,0.2-0.1,0.3-0.2,0.4c-0.1,0.3-0.2,0.6-0.2,0.9c-0.2,1.4-0.1,2.9,0.2,4.3l-1.3-1l7.7-0.9h0.3
		l0.3,0.1c0.8,0.3,1.4,0.8,1.8,1.5c0.3,0.5,0.6,1.1,0.8,1.7c0.3,1,0.5,2.1,0.6,3.2c0.2,2,0.2,4.1,0.1,6.2c-0.1,4-0.6,8-1,12
		c-0.1,1-0.2,2-0.4,3l-0.3,1.6l-0.4,1.5c-0.6,2-1.4,4-2.4,5.8c-2,3.6-4.6,6.9-7.7,9.7c-0.8,0.7-1.6,1.4-2.5,2
		c-1,0.6-1.9,1.1-2.8,1.5l-5.3,2.7c-3.5,1.7-6.8,3.7-9.9,6c-0.4,0.3-0.7,0.6-1,0.9s-0.6,0.6-0.9,0.9s-0.4,0.6-0.7,1
		s-0.4,0.8-0.6,1.3c-0.8,1.7-1.6,3.6-2.4,5.4c-1.5,3.6-2.9,7.4-4.2,11.1l-0.4,1h-1.1l-22.4,0.3l-5.6,0.1c-1.8,0-3.6,0.1-5.4,0.2
		c-0.8,0.1-1.6,0.2-2.4,0.5c-0.6,0.2-1.2,0.6-1.6,1.1c-0.7,1-1.1,3-1.6,4.9l-0.1,0.3l-0.2,0.2c-1.1,1.2-2.6,2-4.3,2.2
		c-1.4,0.2-2.8,0.2-4.3,0.1c-1.3-0.1-2.6-0.1-3.9,0c-1.2,0.1-2.4,0.4-3.5,0.8l0.7-1c-0.2,1.3-0.6,2.6-1,3.9c-0.4,1.3-1,2.6-1.8,3.7
		c-1.5,2.2-3.5,4.1-5.7,5.7c-1,0.8-2.1,1.5-3.2,2.3l-1.6,1.1c-0.6,0.4-1.2,0.7-1.8,1c-0.7,0.3-1.5,0.5-2.3,0.5
		c-0.9,0-1.8-0.5-2.4-1.2c-0.5-0.6-0.8-1.3-1-2.1c-0.2-0.7-0.3-1.3-0.4-2c-0.4-2.6-0.4-5.2-0.6-7.7c-0.1-1.3-0.2-2.5-0.3-3.8
		c-0.1-1.2-0.4-2.3-0.9-3.3c-1.1-2-3.4-3.1-5.8-3.6c-2.4-0.4-4.9-0.5-7.4-0.1l0.2-0.1c-1.1,0.7-2,1.7-2.7,2.9
		c-0.7,1.2-1.2,2.4-1.7,3.7c-0.9,2.6-1.6,5.3-2.1,8c-0.5,2.7-0.9,5.5-1.2,8.3c-0.1,0.7-0.2,1.4-0.4,2.1c-0.2,0.7-0.5,1.4-0.9,2.1
		c-0.5,0.7-1.2,1.2-2,1.3c-0.8,0.1-1.6,0-2.3-0.4c-2.7-1.3-4.7-3.3-6.8-5c-0.5-0.5-1.1-0.8-1.7-1.3c-0.3-0.3-0.5-0.6-0.7-0.9
		c-0.2-0.3-0.3-0.7-0.5-1c-0.5-1.3-0.9-2.7-1.1-4.1c-0.5-2.8-0.7-5.6-1.2-8.3c-0.4-2.7-0.9-5.5-1.8-8.1l0.1,0.1
		c-0.7-1.1-1.2-2.2-1.5-3.4c-0.3-1.2-0.5-2.4-0.5-3.7c0.1-2.5,0.5-4.9,1.4-7.2c0.4-1.1,1-2.2,1.5-3.3c0.6-1,1.1-2,1.6-3.1
		c0.7-2.2,1.2-4.5,1.5-6.8c0.8-4.8,2.1-9.4,3.9-13.9c0.9-2.3,2.1-4.5,3.5-6.5c1.5-2,3.4-3.8,5.7-5c2.3-1.2,4.8-1.8,7.4-1.9
		c0.6,0,1.3,0,1.9,0l0.9,0.1c0.3,0,0.7,0.1,0.8,0.1c0.4,0,0.9,0,1.3-0.2c0.4-0.2,0.8-0.4,1.2-0.7c1.6-1.5,3-3.3,4.2-5.2
		c1.3-2,2.5-4,3.8-6l0.9-1.5l1-1.6c0.3-0.5,0.7-1,1.1-1.5s0.8-1,1.2-1.4c1.6-1.9,3.5-3.6,5.5-5c2-1.4,4.1-2.7,6.4-3.7
		c1.1-0.5,2.2-1,3.3-1.5c1-0.4,2-1,3-1.5l-0.4,0.4c0.3-0.6,0.6-1.1,1-1.7c0.2-0.3,0.4-0.6,0.7-0.9c0.3-0.3,0.7-0.6,1.1-0.8
		c0.5-0.2,1-0.5,1.5-0.8c0.2-0.2,0.4-0.3,0.7-0.5c0.3-0.2,0.6-0.4,0.9-0.6c0.4-0.3,0.8-0.4,1.3-0.5c0.2,0,0.4,0,0.7-0.1
		c0.4-0.2,0.8-0.5,1.1-0.8c0.9-0.8,1.7-1.7,2.4-2.6l-0.3,0.8c-0.2-3.2-0.1-6.4,0.5-9.6c0.3-1.6,0.8-3.1,1.3-4.7
		c0.5-1.4,0.9-2.9,1.2-4.3l0.6,0.9c-1.4-0.4-2.8-1-4.2-1.6c-1.4-0.6-2.7-1.5-3.8-2.5l-0.4-0.4l-0.4-0.5c-0.3-0.4-0.4-1-0.3-1.5
		c0-0.2,0.1-0.3,0.2-0.4c0.1-0.1,0.2-0.3,0.3-0.4c0.2-0.2,0.4-0.3,0.7-0.4c0.5-0.2,1-0.3,1.5-0.1c0.8,0.2,1.5,0.6,2.2,1.1l1.7,1.3
		c1,0.9,2.3,1.5,3.6,1.7c1.2,0.1,2.4-0.8,3.3-1.8c0.5-0.5,1-1.1,1.5-1.6c0.3-0.3,0.6-0.5,1-0.7l0.4-0.1c0.1,0,0.3,0,0.4,0
		c0.2,0,0.3,0.1,0.5,0.1c2.8,0.7,5.7-0.2,7.6-2.3c1.1-1,2.4-1.8,3.8-2.3c1.4-0.4,2.9-0.6,4.4-0.6c0.7,0,1.5,0,2.2,0.1
		c0.7,0.1,1.4,0.1,2.1-0.1c0.7-0.2,1.3-0.5,1.7-1c0.5-0.6,0.9-1.1,1.3-1.8c0.4-0.6,0.9-1.2,1.4-1.7c0.6-0.5,1.4-0.7,2.2-0.6
		c0.8,0.1,1.5,0.4,2.1,0.8c0.6,0.4,1.2,0.9,1.7,1.4C155.4,46.5,156.6,47.4,157.8,48.1z"/>
</g>
<g id="southAmerica">
	<path class="st0" d="M147.7,253.2c-0.2-2.6-2-4.7-4-6.1c-2.1-1.4-4.4-2.4-6.9-3l-3.8-0.9l-1.9-0.6l-1.9-0.6c-2.5-0.9-4.8-2-7.1-3.2
		c-4.6-2.5-8.8-5.8-12.3-9.7c-0.8-0.9-1.7-1.7-2.6-2.4c-0.9-0.7-2-1.2-3.1-1.5c-2.4-0.5-4.9-0.6-7.3-0.5h-0.1
		c-2.5-0.2-4.9-1-7.1-2.3c-0.3-0.2-0.6-0.3-0.8-0.6l-0.7-0.6c-0.4-0.3-0.8-0.7-1.3-0.9c-0.9-0.6-1.8-1-2.8-1.4
		c-2.1-0.7-4.3-1.2-6.5-1.4c-2.3-0.2-4.5-0.4-6.8-0.3l-6.9,0.1c-2.3,0-4.7,0-7-0.1c-2.2-0.2-4.4-0.1-6.6,0.3c-1,0.2-2,0.6-3,1.1
		l-3,1.6c-2,1.1-4.2,2.1-5.4,3.5c-0.6,0.7-0.9,1.6-0.8,2.5c0.1,1,0.3,2,0.8,3c0.9,2.1,1.9,4.2,2.6,6.6c0.4,1.2,0.6,2.4,0.6,3.7
		c0,1.2-0.2,2.5-0.5,3.7c-0.7,2.3-1.8,4.4-3.1,6.4c-1.3,1.9-2.1,4-2.5,6.2c-0.4,2.2,0,4.4,0.9,6.5c1,2,2.4,3.9,4,5.5
		c1.6,1.7,3.3,3.2,5.1,4.7l5.2,4.6c3.4,3.2,7,6,10.8,8.6c1.9,1.2,4,2.2,6.2,2.7c2.2,0.4,4.5,0.5,6.8,0.4c1.2,0,2.3-0.1,3.5,0
		c1.2,0,2.4,0.2,3.6,0.5c1.2,0.4,2.3,1,3.2,1.9c0.9,0.9,1.6,1.9,2.2,3c0.6,1.1,1,2.2,1.5,3.2s0.9,2.1,1.4,3.1c1,2.1,2.1,4.1,3.2,6.1
		c2.2,4.1,4.5,8.1,7,12c2.4,3.9,5,7.8,7.7,11.5c2.7,3.7,5.6,7.2,8.8,10.5l0.3,0.3l0.1,0.4c0.3,1.7,0.7,3.4,1.3,5
		c0.2,0.6,0.5,1.2,1,1.7c0.2,0.1,0.4,0.3,0.6,0.3c0.3,0.1,0.7,0.1,1,0.2l1.3,0.1h0.3c0.1,0,0.3,0.1,0.5,0.1c0.3,0,0.6,0.1,0.9,0.3
		c1,0.4,1.9,1.1,2.7,1.9c1.2,1.4,2.4,2.9,3.4,4.4c1,1.4,2.1,2.6,3.3,3.8c0.6,0.5,1.2,0.9,1.9,1.3l1.1,0.5l1.2,0.4
		c5,1.3,10.2,1.9,15.4,1.6c0.9-0.1,1.7-0.1,2.5-0.3c0.4-0.1,0.8-0.2,1.1-0.3c0.2,0,0.3-0.1,0.5-0.2c0.1,0,0.3-0.1,0.4-0.2
		c0.2-0.1,0.2-0.2,0.2-0.1s0,0-0.1-0.2c-0.3-0.6-0.7-1.1-1.2-1.6c-1.2-1.1-2.5-2.1-4-2.9c-0.4-0.2-0.7-0.4-1.1-0.5
		c-0.2-0.1-0.3-0.1-0.5-0.2l-0.7-0.2c-1.1-0.3-2-0.9-2.9-1.7c-1.4-1.5-2.4-3.4-2.9-5.4c-0.8-3.6-1.2-7.3-1.1-11.1
		c0-3.7,0.2-7.3,0.7-10.9c0.6-3.6,1.5-7.2,2.7-10.6c0.6-1.6,1-3.3,1.3-5c0.3-1.7,0.4-3.4,0.4-5.2c0-1.7-0.1-3.6-0.2-5.4s0-3.6,0-5.4
		c0.2-7.2,0.7-14.4,1.4-21.5l0.6-5.4c0.2-1.8,0.5-3.6,0.6-5.3C151,259.6,149.8,256.1,147.7,253.2L147.7,253.2z M148,253.1
		c2.4,2.8,3.7,6.3,3.8,10c0,1.9-0.2,3.6-0.4,5.4l-0.4,5.4c-0.5,7.1-0.8,14.3-0.7,21.4c0,1.8,0.1,3.6,0.1,5.4s0.2,3.5,0.3,5.4
		c0.1,1.9,0,3.7-0.3,5.6c-0.3,1.8-0.7,3.6-1.3,5.4c-1.1,3.3-2,6.8-2.4,10.3c-0.4,3.5-0.6,7-0.5,10.5c0,3.5,0.4,6.9,1.2,10.3
		c0.3,1.5,1.1,2.9,2.1,4c0.5,0.5,1.1,0.8,1.7,1l0.6,0.2c0.3,0.1,0.5,0.2,0.8,0.3c0.5,0.2,0.9,0.4,1.4,0.6c1.7,0.9,3.3,2,4.7,3.4
		c0.8,0.8,1.5,1.7,2,2.7c0.7,1.6,0.1,3.4-1.5,4.2c-0.3,0.2-0.5,0.3-0.8,0.4l-0.8,0.3c-0.5,0.1-1,0.3-1.5,0.3c-1,0.2-1.9,0.3-2.9,0.3
		c-1.9,0.1-3.7,0.1-5.6,0c-3.7-0.2-7.4-0.8-11-1.8l-1.4-0.5c-0.5-0.2-0.9-0.4-1.4-0.6c-0.9-0.5-1.8-1-2.6-1.7
		c-1.4-1.3-2.7-2.7-3.7-4.3c-1-1.4-2-2.8-3.2-4.1c-0.4-0.5-1-1-1.6-1.3c-0.1-0.1-0.2-0.1-0.4-0.1c-0.1,0-0.1,0-0.2,0H122l-1.3-0.1
		c-0.5-0.1-1.1-0.2-1.6-0.3c-0.6-0.2-1.2-0.5-1.7-1c-0.8-0.8-1.4-1.8-1.7-2.9c-0.6-1.8-1-3.6-1.3-5.5l0.4,0.7
		c-6.6-6.9-11.7-14.7-16.5-22.7c-2.4-4-4.6-8.1-6.7-12.3c-1.1-2.1-2.1-4.2-3-6.3c-0.5-1.1-1-2.1-1.4-3.3s-0.8-2.1-1.3-3.1
		c-0.5-1-1.1-1.9-1.8-2.6c-0.8-0.7-1.7-1.3-2.7-1.6c-2-0.7-4.4-0.6-6.7-0.6c-1.2,0-2.3,0-3.5-0.1h-0.9l-0.9-0.1
		c-0.6-0.1-1.2-0.2-1.8-0.4c-2.3-0.6-4.5-1.6-6.5-2.9c-3.9-2.6-7.5-5.5-10.9-8.8c-1.7-1.6-3.4-3.1-5.2-4.6s-3.5-3-5.2-4.7
		c-1.7-1.7-3.1-3.6-4.2-5.7c-1.1-2.2-1.5-4.7-1.2-7.1c0.4-2.4,1.3-4.7,2.5-6.7c1.2-1.9,2.1-4,2.8-6.1c0.3-1,0.4-2.1,0.4-3.2
		c-0.1-1.1-0.3-2.1-0.6-3.2c-0.7-2.1-1.8-4.1-2.8-6.3c-0.5-1.2-0.9-2.4-1-3.7c-0.1-1.4,0.3-2.9,1.2-4c0.8-1,1.8-1.8,2.9-2.5
		c1-0.7,2.1-1.2,3.1-1.8s2-1.1,3.1-1.7c1.1-0.6,2.3-1,3.5-1.3c2.4-0.4,4.8-0.6,7.3-0.4c2.3,0,4.6,0.1,6.9,0.1c1.2,0,2.3,0,3.4-0.1
		s2.3-0.1,3.5,0c2.4,0,4.7,0.2,7.1,0.4c2.4,0.3,4.8,0.8,7.1,1.7c1.2,0.5,2.3,1,3.3,1.7c0.5,0.3,1,0.7,1.5,1.1l0.6,0.5
		c0.2,0.2,0.4,0.3,0.6,0.4c1.8,1.1,3.9,1.8,6,2h-0.1c2.7-0.2,5.4,0.1,8,0.6c1.4,0.4,2.6,1,3.8,1.9c1.1,0.8,2.1,1.8,2.9,2.9
		c3.3,3.8,7.2,7.1,11.5,9.6c4.4,2.5,9.2,4.4,14.1,5.7c2.5,0.7,4.9,1.9,7,3.4c1,0.8,1.9,1.8,2.7,2.9C147.6,250.6,148,251.8,148,253.1
		z"/>
</g>
<g id="australia">
	<path class="st0" d="M301.4,334.9c0.5,1.5,1.2,2.9,2,4.2c0.7,1.3,1.8,2.3,3.1,3c1.3,0.5,2.8,0.3,3.9-0.6c1.1-0.8,2.3-2,3.5-3
		c1.3-1,2.6-1.8,4.1-2.5c1.5-0.6,3-1.1,4.5-1.4c0.7-0.2,1.4-0.5,2-0.8l0.4-0.3l0.2-0.1l0.1-0.1c0.1-0.1,0.2-0.2,0.3-0.3
		c0.1-0.1,0.1-0.2,0.2-0.3c0.5-1,0.3-2.4,0-3.9c-0.1-0.8-0.2-1.6-0.3-2.5c0-0.5,0-0.9,0.1-1.4c0.1-0.2,0.2-0.5,0.2-0.8
		c0.1-0.3,0.2-0.5,0.4-0.7c0.1-0.2,0.3-0.4,0.5-0.6c0.2-0.2,0.4-0.3,0.6-0.5l0.7-0.3c0.2-0.1,0.4-0.1,0.6-0.2
		c0.8-0.3,1.5-0.5,2.2-0.8c3-1,6-1.8,9-2.6s6.1-1.4,9.1-2s6.2-1.1,9.3-1.4s6.2-0.5,9.3-0.7s6.2-0.3,9.1-0.7c0.7-0.1,1.4-0.2,2.1-0.4
		c0.3,0,0.6-0.1,0.9-0.2c0.3-0.1,0.7-0.3,1.1-0.4c1.5-0.6,3-1.1,4.5-1.5c3-0.9,6.2-1.5,9.4-1.6c3.2-0.1,6.6,0.4,9.3,2.4
		c1.3,1,2.5,2.2,3.3,3.7c0.4,0.7,0.7,1.4,1,2.2c0.3,0.7,0.6,1.5,0.8,2.2c1.1,3,1.6,6.2,1.2,9.4c-0.2,1.6-0.7,3.1-0.8,4.5
		c-0.1,0.7,0,1.5,0.1,2.2l0.4,2.3c0.3,1.5,0.5,3.1,0.6,4.7c0.1,1.7-0.4,3.4-1.5,4.7c-1.3,1.1-2.9,1.7-4.6,1.8
		c-1.5,0.1-2.9,0.5-4.3,1.2c-1.3,0.6-2.6,1.5-3.9,2.4c-1.4,0.9-2.9,1.5-4.4,1.9c-1.6,0.3-3.2,0.4-4.8,0.2c-1.5-0.1-3.1-0.3-4.6-0.5
		c-1.4-0.2-2.8-0.1-4.2,0.4c-1.2,0.6-2.3,1.5-3,2.7c-0.4,0.6-0.8,1.2-1.2,1.9c-0.4,0.7-0.9,1.4-1.5,2c-1.1,1.3-2.5,2.3-4,3
		c-1.5,0.7-3.1,1.2-4.7,1.5c-1.6,0.4-3.1,0.6-4.6,0.8c-3,0.5-6.1,1-9,1.7c-2.8,0.8-5.5,2.1-8,3.7c-2.6,1.8-5.3,3.4-8.1,4.8
		c-2.8,1.4-5.8,2.6-8.9,3.4c-0.8,0.2-1.5,0.4-2.3,0.6l-2.3,0.5c-1.6,0.3-3.1,0.6-4.7,0.8c-3.1,0.4-6.2,0.6-9.3,0.9s-6.2,0.5-9.3,0.7
		c-6.2,0.4-12.4,0.8-18.6,0.8l-7.3,0.1l6.7-2.9c2.8-1.2,5.7-2.3,8.6-3.2c2.9-0.9,5.8-1.7,8.4-2.9c1.3-0.5,2.5-1.2,3.6-2.1
		c1.1-0.9,1.9-1.9,2.6-3.1c0.4-0.6,0.6-1.2,0.9-1.9s0.5-1.3,0.7-2c0.4-1.4,0.8-2.9,1.2-4.3c0.7-2.9,1.4-5.8,0-8.2
		c-0.7-1.2-1.7-2.3-2.7-3.2c-0.5-0.5-1.1-1-1.7-1.5c-0.6-0.5-1.2-1.1-1.7-1.7c-1.9-2.5-2.9-5.7-2.7-8.8c0-1.6,0.5-3.2,1.4-4.5
		c0.3-0.3,0.6-0.6,1-0.8c0.4-0.2,0.8-0.2,1.2-0.2C300.2,334,300.9,334.4,301.4,334.9z M301.2,335.1c-0.5-0.4-1.2-0.7-1.9-0.8
		c-0.3,0-0.7,0-1,0.2c-0.3,0.2-0.5,0.4-0.7,0.7c-0.7,1.2-1.1,2.7-1,4.1c0,2.9,1,5.7,2.9,8c0.5,0.5,1,1,1.5,1.5
		c0.6,0.5,1.2,1,1.8,1.5c1.2,1,2.3,2.2,3.2,3.5c0.9,1.4,1.3,3.1,1.2,4.8c-0.1,1.6-0.3,3.1-0.6,4.6c-0.3,1.5-0.7,3-1,4.4
		c-0.2,0.7-0.5,1.5-0.7,2.3c-0.3,0.8-0.6,1.5-1,2.2c-0.8,1.5-1.9,2.7-3.1,3.8c-1.3,1-2.6,1.9-4.1,2.5c-2.9,1.3-5.8,2.2-8.6,3.1
		c-2.8,0.9-5.6,2-8.3,3.3L279,382c6.1-0.2,12.3-0.6,18.4-1.1l9.2-0.7c3.1-0.3,6.2-0.5,9.2-0.9c1.5-0.2,3-0.5,4.5-0.7l2.2-0.5
		c0.7-0.1,1.5-0.3,2.2-0.5c2.9-0.8,5.7-1.8,8.4-3.1c2.7-1.4,5.3-2.9,7.9-4.6c2.7-1.8,5.7-3.1,8.8-4c3.1-0.8,6.2-1.2,9.3-1.6
		c3-0.3,5.9-0.9,8.7-1.9c1.3-0.6,2.4-1.4,3.4-2.4c0.5-0.5,0.9-1.1,1.3-1.7c0.4-0.7,0.9-1.3,1.4-2c0.5-0.7,1.1-1.3,1.7-1.8
		c0.7-0.6,1.4-1,2.3-1.4c1.6-0.5,3.3-0.6,5-0.3l4.6,0.6c1.5,0.2,2.9,0.2,4.4,0c2.9-0.5,5.3-2.6,8.2-4c1.5-0.7,3-1.1,4.6-1.3
		c0.7,0,1.5-0.2,2.2-0.4c0.7-0.2,1.3-0.5,1.8-1c0.9-1.1,1.3-2.6,1.2-4c0-1.5-0.2-3-0.5-4.5l-0.4-2.3c-0.1-0.8-0.2-1.6-0.1-2.4
		c0.1-1.6,0.6-3.1,0.8-4.6c0.3-3-0.2-6-1.4-8.8c-0.3-0.7-0.5-1.4-0.8-2.1c-0.3-0.7-0.6-1.4-1-2c-0.7-1.2-1.7-2.3-3-3.1
		c-2.5-1.5-5.5-2.1-8.4-1.8c-3,0.2-6,0.9-8.8,1.9c-1.4,0.5-2.8,1-4.2,1.6l-1,0.5c-0.4,0.2-0.8,0.3-1.3,0.4c-0.8,0.2-1.6,0.4-2.4,0.5
		c-6.3,0.9-12.4,0.9-18.5,1.6c-6.1,0.7-12.1,1.8-18.1,3.2c-3,0.7-6,1.5-8.9,2.4c-0.7,0.2-1.5,0.5-2.2,0.7l-0.5,0.2l-0.4,0.2
		c-0.1,0-0.2,0.1-0.3,0.2c-0.1,0.1-0.2,0.1-0.2,0.2c-0.3,0.4-0.4,1-0.4,1.5c0,0.7,0.1,1.5,0.2,2.2c0.1,0.8,0.2,1.6,0.2,2.4
		c0,0.9-0.2,1.9-0.6,2.7c-0.1,0.2-0.3,0.4-0.4,0.6c-0.2,0.2-0.4,0.3-0.6,0.5c-0.2,0.2-0.4,0.3-0.6,0.4l-0.5,0.3
		c-0.8,0.4-1.5,0.7-2.4,0.9c-1.5,0.3-2.9,0.7-4.4,1.2c-1.4,0.6-2.7,1.3-3.9,2.2c-1.3,0.8-2.3,1.9-3.7,2.8c-0.7,0.4-1.5,0.7-2.4,0.9
		c-0.9,0.1-1.7,0-2.5-0.4c-1.4-0.8-2.6-2-3.3-3.5C302.1,338,301.5,336.6,301.2,335.1L301.2,335.1z"/>
</g>
<g id="antarctica">
	<path class="st0" d="M279,337.7c-2.1-0.1-4.1-0.4-6.1-0.9c-2.1-0.4-4-1.3-5.6-2.6c-2.8-3-6.3-5.1-10.3-6.2
		c-1.9-0.5-3.9-0.7-5.9-0.5c-1,0.1-2,0.3-2.9,0.6c-0.9,0.3-1.9,0.7-2.9,1c-2,0.6-4.2,0.9-6.1,1.3c-0.9,0.2-1.8,0.5-2.6,1
		c-0.8,0.5-1.6,1.1-2.2,1.8c-1.4,1.4-2.6,3-4.1,4.6c-3,3.1-6.8,5.4-11,6.5c-1.1,0.3-2.2,0.5-3.3,0.6c-1.1,0.1-2.3,0.1-3.4-0.1
		c-0.6-0.1-1.2-0.3-1.8-0.5l-0.5-0.3l-0.4-0.2c-0.2-0.1-0.4-0.3-0.6-0.4c-0.8-0.5-1.6-0.9-2.4-1.1c-1.7-0.5-3.5-0.4-5.1,0.3
		c-1.7,0.8-3.2,1.9-4.6,3.2c-1.4,1.4-2.7,3-3.8,4.6c-1.2,1.6-2.4,3.3-3.8,5c-1.4,1.6-3,3-4.8,4.3c-3.6,2.3-7.5,3.9-11.7,4.7
		c-4.1,0.8-8.2,1.4-12.3,1.8c-4.1,0.4-8.1,1.1-12,2.2c-1.9,0.5-3.8,1.3-5.6,2.2c-1.8,0.9-3.2,2.3-4.2,4c-0.8,1.8-1.2,3.8-1,5.7
		c0.1,2,0.9,3.8,2.1,5.3c2.5,3.1,6.3,5,10,6.4c0.5,0.2,0.9,0.4,1.4,0.5l0.7,0.3l0.7,0.2c1,0.2,2,0.3,3,0.4c2,0.2,4.1,0.3,6.1,0.4
		c16.4,0.6,32.8,0.4,49.2,0.1c8.2-0.2,16.4-0.5,24.6-0.9s16.4-0.9,24.4-1.9c1-0.1,2-0.3,3-0.4s2-0.3,2.9-0.5c0.5-0.1,1-0.2,1.4-0.3
		c0.5-0.1,0.9-0.2,1.3-0.4c0.9-0.4,1.8-0.8,2.6-1.2c3.6-1.8,7.3-3.8,10.9-5.7s7.2-3.9,11-5.7c2-0.9,3.8-1.5,5.5-2.5
		c1.7-0.8,3.2-2,4.4-3.5c2.2-3,2.6-7.3,2-11.2c-0.3-2-0.9-3.9-1.8-5.7l-0.7-1.3c-0.2-0.4-0.5-0.8-0.8-1.3c-0.6-0.8-1.2-1.6-1.8-2.4
		c-2.8-3-6.1-5.4-9.8-7.1C286.8,340,283,338.7,279,337.7z M279,337.4c4,0.9,8,2.2,11.7,3.8c3.8,1.7,7.3,4,10.2,7
		c0.7,0.8,1.4,1.6,2,2.4c0.3,0.4,0.6,0.8,0.9,1.3l0.8,1.4c1,1.9,1.7,3.9,2.1,6c0.4,2.1,0.5,4.2,0.3,6.4c-0.2,2.2-0.9,4.3-2.1,6.2
		c-1.3,1.8-3,3.3-4.9,4.4c-1.8,1.1-3.8,1.9-5.6,2.8c-3.6,1.8-7.1,3.9-10.7,5.9s-7.2,4-10.9,5.9c-0.9,0.5-1.9,1-2.9,1.4
		c-0.5,0.2-1.1,0.4-1.6,0.5c-0.5,0.1-1,0.3-1.6,0.4c-1,0.2-2.1,0.4-3.1,0.6s-2.1,0.3-3.1,0.5c-8.2,1.1-16.5,1.5-24.7,1.9
		s-16.4,0.5-24.7,0.6s-16.4,0-24.7-0.1s-16.4-0.5-24.6-1.1c-2.1-0.2-4.1-0.3-6.2-0.6c-1-0.1-2.1-0.3-3.1-0.5l-0.8-0.2l-0.7-0.3
		c-0.5-0.2-1-0.4-1.4-0.6c-1.9-0.8-3.8-1.7-5.6-2.8c-1.8-1.1-3.4-2.5-4.8-4.1c-1.4-1.7-2.2-3.8-2.3-5.9c-0.2-2.1,0.2-4.3,1.1-6.2
		c1.1-1.9,2.6-3.4,4.6-4.4c1.8-1,3.8-1.8,5.8-2.3c4-1.1,8-2,12.1-2.5c2.1-0.3,4.1-0.6,6.1-0.9c1-0.1,2-0.4,3-0.5s2-0.4,2.9-0.7
		c3.9-0.9,7.6-2.5,10.9-4.8c1.6-1.2,3-2.5,4.2-4.1c1.3-1.5,2.4-3.2,3.6-4.9c1.2-1.8,2.5-3.4,4-5c1.5-1.6,3.4-3,5.4-3.9
		c2.2-0.9,4.6-1.1,6.9-0.4c1.1,0.3,2.1,0.8,3.1,1.5c0.2,0.1,0.5,0.3,0.7,0.5c0.1,0.1,0.2,0.1,0.3,0.2l0.2,0.1
		c0.4,0.2,0.7,0.3,1.1,0.3c1.9,0.3,3.7,0.2,5.5-0.3c1.9-0.5,3.7-1.2,5.4-2.1c1.7-1,3.3-2.1,4.7-3.5c1.4-1.3,2.7-3,4.3-4.4
		c0.8-0.7,1.7-1.4,2.6-1.9c1-0.5,2-0.9,3.1-1.1c1.1-0.2,2.1-0.3,3.1-0.4c1-0.1,2-0.3,2.9-0.6c1-0.2,1.9-0.6,2.9-0.9
		c1-0.3,2.1-0.5,3.1-0.5c2.1-0.1,4.2,0.2,6.2,0.8c4,1.3,7.5,3.6,10.3,6.7c1.6,1.3,3.4,2.2,5.4,2.5C274.9,337,277,337.3,279,337.4z"
		/>
</g>
<g id="africa">
	<path class="st0" d="M189.3,191.4c0.1-3.2-0.7-6.8-3.1-9c-0.1-0.1-0.3-0.3-0.4-0.4l-0.5-0.3c-0.3-0.2-0.7-0.4-1.1-0.5
		c-0.4-0.2-0.7-0.3-1.1-0.4c-0.4-0.1-0.8-0.2-1.2-0.2c-1.7-0.3-3.3-0.6-4.9-1c-6.6-1.4-13-3.2-19.5-5l0.8-0.2
		c-1.5,1.3-2.9,2.6-4.2,4c-0.7,0.7-1.4,1.4-2.2,2.1c-0.8,0.7-1.7,1.3-2.7,1.7c-0.3,0.1-0.5,0.2-0.8,0.3l-0.2,0.1H148l-0.2,0.1
		c-0.1,0.1-0.3,0.2-0.4,0.3c-0.1,0.1-0.3,0.3-0.4,0.4c-0.5,0.8-1,1.6-1.4,2.4c-0.5,1-1.2,1.8-2.1,2.6c-0.9,0.7-1.9,1.2-3.1,1.4
		c-0.5,0.1-1.1,0.2-1.6,0.2c-0.5,0-1,0.1-1.5,0.1h-2.9c-1.9,0-3.9,0-5.8,0.1c-3.8,0.1-7.5,0.8-11,2.1c-1.6,0.7-3,1.8-4.1,3.1
		l-3.4,4.7c-1.1,1.4-2,3.1-2.7,4.8c-0.5,1.7-0.8,3.5-0.6,5.3c0.1,1.8,0.4,3.7,0.9,5.4c0.5,1.7,1.4,3.2,2.6,4.4
		c1.4,1.3,2.9,2.3,4.5,3.2c0.2,0.1,0.5,0.3,0.7,0.5c0.2,0.2,0.5,0.4,0.7,0.6l0.3,0.3l0.3,0.4c0.2,0.3,0.4,0.6,0.5,1l0.1,0.3v0.1
		c0,0.1,0.1,0.1,0.1,0.2s0.2,0.3,0.3,0.4c0.1,0.2,0.2,0.3,0.4,0.5c0.1,0.2,0.3,0.3,0.4,0.5c1.3,1.3,2.8,2.4,4.3,3.4
		c1.6,1,3.3,2,5,2.8c1.7,0.9,3.5,1.6,5.2,2.3c0.9,0.4,1.8,0.6,2.7,0.9s1.9,0.6,2.8,0.9c3.7,1.3,7.5,2.8,10.7,5.6
		c1.6,1.4,2.9,3.2,3.6,5.2c0.2,0.5,0.3,1,0.4,1.6s0.1,1.1,0.2,1.6c0.1,1,0.1,1.9,0.2,2.9c0.4,3.9,0.9,7.8,1.1,11.7
		c0.2,4,0,7.9-0.7,11.8c-0.2,1-0.4,1.9-0.7,2.9s-0.6,1.9-0.9,2.8l-1,2.7c-0.3,0.9-0.5,1.9-0.8,2.8c-0.8,3.8-1.3,7.6-1.4,11.5
		c-0.2,3.9,0,7.8-0.3,11.7c-0.1,1-0.2,2-0.4,3c-0.1,0.5-0.3,1-0.4,1.4l-0.1,0.7c0,0.2-0.1,0.5-0.1,0.7c0,1.9,0.3,3.8,0.9,5.6
		c1.3,3.7,2.9,7.2,4.8,10.6l1.4,2.6c0.1,0.2,0.2,0.4,0.3,0.7l0.2,0.3c0.1,0.1,0.1,0.1,0.1,0.2c0.3,0.3,0.6,0.5,1,0.6
		c1.8,0.6,3.7,1.1,5.6,1.3c3.8,0.5,7.7,0.7,11.6,0.6c1.9,0,3.8-0.2,5.7-0.4c0.9-0.1,1.8-0.3,2.7-0.6c0.8-0.3,1.5-0.8,2.2-1.5
		c1.4-1.3,2.7-2.7,3.9-4.2c1.2-1.5,2.4-3,3.6-4.6c2.4-3.1,4.8-6.2,7.5-9.1c2.9-3,6.7-4.8,10-6.6c1.6-0.8,3-1.9,4.2-3.3
		c0.2-0.3,0.5-0.6,0.6-1c0.1-0.4,0.3-0.7,0.4-1.1c0-0.4,0.1-0.8,0.1-1.2l-0.1-1.3c-0.4-2.1-0.4-4.2,0-6.2c0.4-2.1,1.3-4.1,2.7-5.8
		c2.7-3.3,6.2-5.4,9.5-7.5c6.5-4.1,12.8-8.7,18.7-13.8c1.4-1.3,2.9-2.6,4.2-3.9c1.3-1.3,2.4-2.7,3.3-4.3c0.2-0.3,0.5-0.9,0.7-1.4
		c0.3-0.5,0.6-1,0.9-1.4c0.7-0.9,1.6-1.7,2.5-2.3c1-0.6,2-1.1,3.1-1.4c0.5-0.1,1.1-0.3,1.6-0.3c0.6-0.1,1.2-0.1,1.8-0.1l-1.4,0.6
		c0.2-0.2,0.3-0.5,0.4-0.8c0-0.1,0-0.1,0,0c0,0.1,0.1,0.2,0.2,0.3c0.1,0.1-0.2-0.1-0.5,0c-0.4,0-0.8,0-1.2,0.1
		c-1.8,0.3-3.6,0.8-5.3,1.5l-2.7,1c-0.9,0.3-1.9,0.7-2.8,1c-2,0.6-4,1.1-6,1.5c-2.1,0.4-4.3,0.3-6.4-0.1c-1.2-0.3-2.3-0.8-3.2-1.5
		c-0.5-0.4-0.9-0.8-1.3-1.3c-0.2-0.2-0.4-0.5-0.5-0.7l-0.2-0.3c0,0-0.1-0.2-0.2-0.4c-0.1-0.2-0.1-0.3-0.2-0.5c0-0.3,0-0.6,0-0.9
		c0-0.2,0.1-0.5,0.2-0.7c0.1-0.2,0.2-0.4,0.3-0.5c0.1-0.2,0.2-0.3,0.3-0.4c0.3-0.5,0.7-1,1.1-1.4c0.8-0.7,1.6-1.4,2.5-2
		c1.7-1.2,3.4-2.2,5.2-3.1c1.8-0.9,3.5-1.8,5.4-2.6c1.9-0.8,3.9-1.3,5.9-1.7c2-0.3,4.1-0.4,6.1-0.3c1.8,0.2,3.7,0.2,5.5,0
		c1.6-0.3,3.1-1.1,4.3-2.3c0.5-0.5,0.9-1.2,1.1-1.9c0.2-0.7,0.2-1.5,0-2.2c-0.5-1.7-1.4-3.2-2.6-4.5c-1.3-1.5-2.5-3.2-3.6-4.7
		c-0.5-0.7-1-1.4-1.7-1.9c-0.6-0.5-1.3-0.7-2.1-0.8c-1.9-0.2-3.7-0.2-5.6-0.1c-1,0-2,0.1-3,0c-0.6,0-1.1-0.1-1.6-0.2
		c-0.7-0.1-1.3-0.4-1.8-0.8c-0.5-0.4-0.9-0.9-1.2-1.5c-0.2-0.5-0.4-1-0.6-1.5l-1-2.8c-0.6-1.7-1.5-3.3-2.6-4.7
		c-1.2-1.3-2.7-2.3-4.4-2.9c-1.8-0.6-3.6-0.9-5.5-1c-1.9-0.1-3.8-0.1-5.8-0.1c-3.9,0.1-7.9,0.1-11.9-0.9c-1.9-0.5-3.8-1.2-5.6-2
		c-1.9-0.7-3.7-1.5-5.4-2.6c-0.8-0.6-1.6-1.2-2.4-1.9c-0.7-0.7-1.4-1.4-2.1-2c-1.6-1.1-3.4-1.6-5.3-1.5l-1.5-0.1l-0.8-0.2
		c-0.3-0.1-0.5-0.1-0.7-0.3c-1-0.4-1.8-1.1-2.2-2.1c-0.4-1-0.5-2-0.4-3C188.7,193.3,188.9,192.3,189.3,191.4z M189.6,191.5
		c-0.3,0.9-0.4,1.9-0.5,2.9c-0.1,0.9,0.1,1.9,0.5,2.7c0.4,0.8,1.1,1.5,2,1.8c0.2,0.1,0.4,0.2,0.7,0.2l0.7,0.1l1.4,0.1
		c1,0,2,0.1,3,0.3c1,0.2,2,0.6,2.8,1.2c0.8,0.6,1.5,1.3,2.2,2c0.7,0.6,1.4,1.2,2.3,1.7c1.7,0.9,3.4,1.7,5.3,2.3
		c1.8,0.7,3.6,1.3,5.5,1.8c3.7,0.9,7.6,0.7,11.4,0.6c1.9-0.1,3.9-0.2,5.9-0.1c2,0.1,4.1,0.4,6,1c2.1,0.6,3.9,1.7,5.4,3.3
		c1.4,1.6,2.5,3.4,3.1,5.4c0.4,0.9,0.7,1.9,1.1,2.7c0.2,0.7,0.6,1.4,1.1,2c0.7,0.3,1.4,0.5,2.1,0.5c0.9,0,1.9,0,2.8-0.1
		c2-0.2,4.1-0.2,6.1,0c1.2,0.1,2.3,0.6,3.3,1.3c0.8,0.7,1.6,1.5,2.2,2.4c1.2,1.6,2.3,3.1,3.6,4.5c1.5,1.6,2.6,3.5,3.3,5.6
		c0.3,1.2,0.3,2.4,0.1,3.6c-0.3,1.2-0.9,2.3-1.7,3.2c-0.8,0.9-1.7,1.6-2.7,2.1c-1,0.5-2,0.9-3.1,1.1c-2,0.3-4.1,0.3-6.2,0.2
		c-3.7-0.2-7.4,0.4-10.8,1.9c-1.7,0.7-3.4,1.6-5.1,2.5c-1.7,0.9-3.3,1.9-4.8,3c-0.7,0.5-1.4,1.1-2.1,1.7c-0.3,0.3-0.5,0.6-0.7,0.9
		c-0.2,0.3-0.2,0.5-0.2,0.1c0-0.1,0-0.1,0-0.2c0,0-0.1-0.1,0,0l0.2,0.3c0.1,0.2,0.2,0.3,0.3,0.5c0.2,0.3,0.5,0.5,0.8,0.8
		c0.6,0.5,1.3,0.8,2,1c1.7,0.4,3.5,0.4,5.2,0.1c1.8-0.3,3.7-0.7,5.4-1.3c0.9-0.3,1.8-0.6,2.7-1l2.8-1c1.9-0.7,3.9-1.3,5.9-1.6
		c0.6-0.1,1.2-0.1,1.7-0.1c0.8,0,1.6,0.2,2.3,0.6c0.5,0.4,0.9,0.9,1,1.5c0.1,0.5,0.1,1,0,1.5c-0.2,0.7-0.5,1.3-0.9,1.9l-0.5,0.7
		h-0.9c-0.4,0-0.8,0-1.2,0.1c-0.4,0.1-0.8,0.1-1.2,0.2c-0.8,0.2-1.6,0.5-2.3,1c-0.7,0.3-1.3,0.8-1.9,1.3c-0.2,0.3-0.5,0.6-0.7,1
		l-0.6,1.2c-0.2,0.5-0.5,1-0.9,1.4c-0.3,0.4-0.6,0.9-0.9,1.3l-1,1.2l-1,1.1c-1.4,1.4-2.9,2.8-4.4,4.1c-6,5.1-12.4,9.7-19.1,13.9
		c-3.3,2-6.6,4.1-8.9,6.9c-1.1,1.3-1.9,2.9-2.2,4.6c-0.3,1.8-0.3,3.6,0,5.4l0.1,1.6c0,0.6-0.1,1.1-0.2,1.7c-0.2,0.6-0.4,1.1-0.6,1.6
		c-0.3,0.5-0.6,1-0.9,1.5c-1.4,1.6-3.1,2.9-5,3.8c-3.5,1.9-7,3.4-9.6,6s-5.1,5.8-7.6,8.8c-1.2,1.5-2.5,3-3.7,4.5
		c-1.3,1.5-2.6,3-4.1,4.3c-0.4,0.3-0.8,0.7-1.2,1c-0.4,0.3-0.9,0.6-1.5,0.8c-1,0.3-2,0.5-3,0.6c-2,0.2-4,0.3-5.9,0.3
		c-3.9,0-7.9-0.3-11.8-0.8c-2-0.2-3.9-0.7-5.8-1.4c-0.5-0.2-1-0.5-1.4-0.9c-0.1-0.1-0.2-0.3-0.3-0.4l-0.1-0.3
		c-0.1-0.2-0.2-0.4-0.3-0.6l-1.4-2.6c-1.9-3.4-3.6-7-4.9-10.8c-0.7-1.9-1-3.9-0.9-5.9c0-0.3,0-0.5,0.1-0.8l0.2-0.8
		c0.1-0.5,0.3-0.9,0.4-1.4s0.2-0.9,0.3-1.4s0.1-1,0.1-1.4c0.3-3.9,0.1-7.8,0.2-11.7c0.1-3.9,0.5-7.9,1.3-11.7c0.2-1,0.5-1.9,0.8-2.9
		l1-2.8l0.5-1.4c0.1-0.5,0.3-0.9,0.4-1.4c0.3-0.9,0.4-1.9,0.6-2.8c0.6-3.8,0.7-7.7,0.4-11.5c-0.3-3.9-0.9-7.7-1.4-11.6
		c-0.1-1-0.2-2-0.3-3l-0.2-1.3c-0.1-0.4-0.2-0.9-0.4-1.3c-0.7-1.7-1.7-3.1-3.1-4.2c-2.8-2.3-6.4-3.7-10.1-4.9
		c-0.9-0.3-1.8-0.6-2.8-0.8s-1.9-0.6-2.9-0.9c-1.9-0.7-3.7-1.5-5.5-2.3c-1.8-0.9-3.6-1.8-5.3-2.9c-1.8-1.1-3.4-2.4-4.8-3.8
		c-0.2-0.2-0.4-0.4-0.6-0.6c-0.2-0.2-0.4-0.5-0.5-0.7c-0.2-0.3-0.3-0.5-0.5-0.8l-0.2-0.5l-0.1-0.2v-0.1c-0.3-0.6-0.8-1.1-1.4-1.4
		c-1.8-1-3.5-2.2-5-3.6c-1.5-1.6-2.6-3.5-3.3-5.5c-0.6-2-0.9-4-1-6.1c-0.1-2.1,0.2-4.2,0.8-6.2c0.8-1.9,1.8-3.7,3.1-5.4l3.5-4.7
		c1.3-1.7,3.1-3.1,5.1-3.9c3.8-1.4,7.8-2.2,11.9-2.2c2-0.1,4-0.1,5.9,0c1.9,0.1,3.7,0.1,5.6-0.1c0.8-0.2,1.6-0.5,2.2-1
		c0.7-0.5,1.2-1.2,1.6-1.9c0.5-0.9,1-1.8,1.6-2.6c0.2-0.2,0.4-0.5,0.6-0.7c0.3-0.2,0.5-0.4,0.8-0.5l0.5-0.2l0.2-0.1l0.1-0.1
		c0.2-0.1,0.4-0.1,0.6-0.2c1.6-0.6,3-1.9,4.4-3.2s2.9-2.7,4.4-4l0.4-0.3l0.4,0.1c3.2,1,6.4,1.9,9.6,2.9s6.4,1.9,9.6,2.7
		c1.6,0.4,3.2,0.8,4.9,1.1c0.4,0.1,0.8,0.2,1.3,0.3c0.4,0.1,0.8,0.2,1.2,0.4c0.4,0.2,0.8,0.4,1.2,0.6l0.5,0.4
		c0.2,0.1,0.3,0.3,0.5,0.4c1.2,1.2,2.1,2.8,2.5,4.5C189.6,188.1,189.7,189.8,189.6,191.5L189.6,191.5z"/>
	<path class="st0" d="M155,343.9c0.4-0.4,0.9-0.8,1.5-1.1c0.6-0.3,1.2-0.4,1.9-0.5c1.4,0,2.8,0.6,3.6,1.7c0.4,0.5,0.8,1.1,1.1,1.6
		c0.2,0.6,0.5,1.2,0.7,1.7c0.4,1.1,0.7,2.2,0.9,3.3l0.1,0.7v0.1c0,0-0.1-0.1-0.1-0.1c-0.1-0.1-0.1-0.1-0.2-0.1c0,0-0.1,0-0.1,0h0.1
		h0.2l0.4,0c0.3,0,0.6,0.1,0.9,0.2c0.6,0.1,1.2,0.3,1.8,0.6c0.3,0.1,0.6,0.3,0.9,0.5c0.3,0.2,0.5,0.5,0.6,0.8c0.2,0.3,0.3,0.7,0.3,1
		c0,0.3,0,0.6,0,1c-0.1,0.6-0.2,1.2-0.5,1.8c-0.5,1.1-1.2,2.2-2.1,3c-0.5,0.5-1.1,0.8-1.7,1.1c-0.6,0.2-1.3,0.4-1.9,0.4
		c-1.2,0.1-2.5,0-3.7-0.3c-2.6-0.4-4.9-1.8-6.6-3.7c-0.8-1.1-1.4-2.3-1.6-3.7c-0.2-1.3-0.2-2.6,0.2-3.8c0.3-1.2,0.7-2.3,1.3-3.4
		c0.3-0.5,0.6-1,0.9-1.5S154.7,344.3,155,343.9z M155.2,344.1c-0.7,2.1-1.1,4.2-1.3,6.3c-0.2,1.9,0.4,3.7,1.6,5.1
		c1.3,1.4,3,2.5,4.8,3c1,0.3,2,0.5,3,0.6c0.5,0,0.9,0,1.4,0c0.5-0.1,0.9-0.2,1.3-0.4c0.9-0.5,1.7-1.2,2.2-2.1
		c0.3-0.4,0.4-0.9,0.5-1.4c0.1-0.5,0-0.9-0.2-1.3c-0.1-0.2-0.3-0.3-0.4-0.5c-0.2-0.1-0.4-0.2-0.6-0.2c-0.5-0.1-1-0.1-1.5-0.1
		c-0.3,0-0.5,0-0.8,0.1l-0.4,0.1h-0.2h-0.3c-0.2,0-0.3,0-0.5-0.1c-0.2-0.1-0.4-0.2-0.6-0.3c-0.1-0.1-0.3-0.3-0.4-0.4l-0.2-0.3
		c-0.1-0.3-0.3-0.6-0.4-0.9c-0.4-1.1-0.7-2.1-1-3.2c-0.1-0.6-0.3-1-0.4-1.5c-0.2-0.4-0.4-0.8-0.6-1.3c-0.4-0.8-1.1-1.3-1.9-1.6
		C157.3,343.7,156.2,343.8,155.2,344.1L155.2,344.1z"/>
</g>
<g id="euroAsia">
	<g>
		<path class="st2" d="M202.7,89c0,0,4.3,4.3-0.4,12s-5.1,10.7-4.7,15s-4.3,15.9-8.1,18s-21.4,6.9-24,14.6s-6,13.7-7.3,20.6
			s2.6,6,6,6s8.1,1.7,12,3.4c0,0,0.9-9.9,12.9-13.3c4.7,3.4,5.6,3.9,2.1,8.1s-2.1,6,2.6,5.1s6.4-0.4,6.4,3.4s1.7,7.3,5.1,2.1
			c5.1-5.1,5.6-3.9,8.6,2.1s5.1,7.3,10.3,6s13.7-6,21.4-1.7s9.4,5.1,9.4,5.1l34.7,0.9c9-2.6,21-6,21.9-18c3.9-10.7,20.6-6,20.6-6
			c2.1-6.4,15.9-7.7,19.7-2.1c2.3,3.5,3.4,7.8,3,12c2.3,1,5,0.5,6.9-1.3c1.4-1.5,3-2.8,4.7-3.9h20.1c0.9-6.4,1.7-6.9-3-11.1
			c-3.9-9.9-0.4-11.6,7.7-12.4c0.9-3-1.3-6.4-2.6-14.6c-6-5.1-11.1-7.7-12.9-15s0-8.1,3-6.8l8.1,8.1c5.6,1.7,5.1-3-2.1-10.3
			s-27.9-21-35.1-25.7s-21.4-12-23.1-16.3s-6-2.1-9.4-4.7c-5.6-5.1-8.1-3-13.3-6s-13.7-3.9-19.3-3.9c-10.7-6-2.1-12.9-11.6-15
			s-9.9-6.4-23.1-6s-30.4-3.4-30.4-3.4s-5.1-7.3-9.4-5.1c-1.7,3.9-2.6,6.4-9,10.3s-9,11.1-2.6,11.1s7.7-3.4,16.3,2.1
			s11.1,7.3,12,12.4s3.9,8.1-2.6,10.7s-1.7,6.4-10.3,8.6S202.7,89,202.7,89z"/>
		<path class="st0" d="M202.9,89C202.9,89,202.9,89,202.9,89C202.9,88.9,202.9,89,202.9,89l0.1,0.1l0.2,0.2c0.1,0.1,0.2,0.3,0.3,0.4
			c0.2,0.3,0.3,0.6,0.5,0.9c0.3,0.6,0.5,1.2,0.6,1.9c0.3,1.3,0.2,2.6,0,3.9c-0.2,1.3-0.7,2.5-1.3,3.7c-0.6,1.2-1.3,2.2-1.9,3.4
			c-1.2,2.2-2.4,4.5-3,7c-0.3,1.2-0.4,2.4-0.4,3.7c0,0.6,0.1,1.2,0.1,1.9c0,0.3,0,0.7,0,1l-0.1,1c-0.4,2.6-1.2,5.1-2.1,7.6
			c-1,2.4-2.2,4.8-3.8,6.9l-0.7,0.8c-0.2,0.3-0.5,0.5-0.7,0.7c-0.3,0.2-0.6,0.4-0.9,0.7c-0.3,0.2-0.6,0.3-0.9,0.5
			c-1.2,0.6-2.4,1-3.6,1.5c-2.4,0.9-4.8,1.9-7.1,2.9c-2.3,1.1-4.6,2.2-6.6,3.6c-2,1.4-4,3-5,5.1c-0.1,0.3-0.2,0.5-0.3,0.8l-0.3,0.9
			c-0.2,0.6-0.4,1.2-0.6,1.8c-0.4,1.2-0.9,2.4-1.4,3.6c-0.9,2.4-1.9,4.8-2.8,7.1c-0.9,2.4-1.6,4.8-2,7.2c-0.2,1.2-0.3,2.4,0,3.2
			c0.2,0.4,0.3,0.6,0.7,0.8c0.3,0.2,0.9,0.3,1.4,0.3c1.1,0.1,2.4-0.1,3.9,0c1.4,0.1,2.7,0.4,4,0.7c2.6,0.7,5,1.7,7.4,2.7l-1.7,1
			c0.3-1.9,0.8-3.5,1.6-5.1c0.8-1.6,1.9-3,3.1-4.2c1.3-1.2,2.7-2.3,4.2-3.1c0.7-0.5,1.6-0.7,2.3-1.1c0.8-0.3,1.6-0.6,2.4-0.8
			l0.6-0.2l0.5,0.4c0.7,0.5,1.3,0.9,2,1.5c0.7,0.5,1.4,1,2.1,1.9c0.3,0.4,0.6,1.1,0.7,1.8c0,0.7-0.1,1.3-0.3,1.8
			c-0.4,1-1,1.6-1.5,2.3c-0.5,0.7-1,1.3-1.4,1.9c-0.4,0.6-0.7,1.3-0.8,1.7c0,0.2,0,0.2,0,0.2c0,0,0,0,0,0c0.1,0,0.1,0.1,0.3,0.1
			c0.5,0.1,1.2,0.1,1.9,0c0.7-0.1,1.6-0.3,2.4-0.4c0.9-0.1,1.8-0.2,2.8,0c0.5,0.1,1.1,0.2,1.7,0.6c0.5,0.4,1,0.9,1.2,1.5
			c0.5,1.1,0.5,2.1,0.5,3c0,0.7,0.1,1.5,0.2,2.1c0.1,0.3,0.2,0.6,0.3,0.9c0.1,0.1,0.1,0.2,0.2,0.3c0,0,0.1,0,0.1,0.1c0,0,0,0.1,0,0
			c0,0-0.1,0,0,0c0.1,0,0.1,0,0.2-0.1c0.1-0.1,0.2-0.1,0.3-0.2c0.5-0.4,0.9-1,1.3-1.6l0.1-0.1l0.1-0.1c0.9-0.9,1.8-1.8,2.9-2.6
			c0.6-0.4,1.2-0.8,2.3-1l0.4,0c0.1,0,0.3,0,0.4,0.1c0.1,0,0.3,0.1,0.4,0.1l0.4,0.2l0.3,0.2l0.3,0.2c0.2,0.1,0.3,0.3,0.5,0.4
			c1,1.2,1.5,2.3,2.1,3.4c0.6,1.1,1.1,2.2,1.7,3.2c0.6,1,1.2,2,2,2.7c0.7,0.7,1.5,1.1,2.5,1.2c1,0.1,2.1-0.1,3.2-0.3
			c1.1-0.3,2.3-0.6,3.4-1c2.3-0.8,4.7-1.6,7.2-2c2.5-0.5,5.2-0.6,7.8,0c0.3,0.1,0.6,0.1,1,0.2l0.9,0.3c0.6,0.2,1.2,0.5,1.8,0.8
			c1.1,0.6,2.2,1.2,3.2,1.8l6.4,3.6l-0.4-0.1l34.7,1.2l-0.2,0c2.4-0.7,4.9-1.3,7.2-2.2c2.4-0.9,4.7-1.9,6.8-3.2c2.1-1.3,4-3,5.3-5.1
			c1.3-2.1,2.1-4.5,2.3-6.9l0-0.1l0-0.1c0.4-1,0.8-1.9,1.5-2.7c0.6-0.8,1.4-1.5,2.2-2.1c1.7-1.2,3.7-1.8,5.6-2.2c2-0.3,4-0.4,6-0.2
			c2,0.2,3.9,0.5,5.9,1l-0.6,0.3c0.5-1.5,1.6-2.8,2.9-3.6c1.3-0.9,2.7-1.5,4.2-1.8c2.9-0.7,6.1-0.8,9,0.1c1.5,0.5,2.9,1.2,4,2.4
			c1,1.3,1.7,2.6,2.3,4c1.1,2.8,1.6,5.9,1.3,8.9l-0.3-0.6c1,0.4,2,0.5,3,0.4c1-0.1,2-0.6,2.8-1.2c0.4-0.3,0.7-0.7,1.2-1.1
			c0.4-0.4,0.8-0.8,1.3-1.2c0.9-0.7,1.8-1.4,2.8-2l0.1-0.1l0.2,0l20.1-0.1l-0.8,0.7l0.4-3.1c0.1-1,0.3-2,0.1-2.9
			c-0.1-0.8-0.6-1.6-1.2-2.3c-0.6-0.7-1.4-1.4-2.2-2.1l-0.2-0.1l-0.1-0.2c-0.6-1.5-1.2-3-1.5-4.7c-0.2-0.8-0.3-1.7-0.2-2.6
			c0-0.4,0.1-0.9,0.2-1.4c0.2-0.4,0.3-0.9,0.6-1.3c0.5-0.9,1.3-1.5,2-2c0.8-0.4,1.6-0.8,2.4-1c1.6-0.4,3.2-0.7,4.8-0.9l-0.9,0.7
			c0.3-0.9,0.1-2-0.1-3.2c-0.3-1.2-0.6-2.3-0.9-3.5c-0.7-2.4-1.2-4.9-1.7-7.4l0.4,0.7c-1.9-1.6-3.9-3.1-5.9-4.8
			c-2-1.6-4-3.5-5.4-5.9c-0.7-1.2-1.2-2.5-1.7-3.8c-0.4-1.3-0.6-2.6-0.9-3.9c-0.1-0.7-0.2-1.3-0.2-2.1c0-0.7,0-1.5,0.4-2.4
			c0.1-0.1,0.1-0.2,0.2-0.3c0.1-0.1,0.2-0.2,0.3-0.3c0.2-0.2,0.4-0.4,0.7-0.6c0.5-0.3,1.1-0.4,1.6-0.4c0.9,0,1.6,0.3,2.3,0.6
			l0.2,0.1l0.2,0.2l8.2,8.1l-0.6-0.3c0.4,0.1,0.9,0.2,1.2,0.3c0.4,0,0.7,0,0.8-0.1c0,0,0,0,0,0c0,0,0,0,0-0.1c0-0.2-0.1-0.6-0.2-1
			c-0.6-1.6-1.8-3.2-3.1-4.7c-2.6-3-5.7-5.6-8.9-8.1c-6.5-5-13.2-9.7-20-14.3c-3.4-2.3-6.9-4.6-10.3-6.7c-3.5-2.1-7.1-4.2-10.6-6.4
			c-1.8-1.1-3.5-2.2-5.3-3.4c-1.7-1.3-3.4-2.5-5-4.4l-0.3-0.4l-0.3-0.5l-0.3-0.5l-0.2-0.4c-0.2-0.4-0.3-0.7-0.5-0.9
			c-0.4-0.5-1-0.7-1.9-0.9c-0.9-0.2-1.9-0.3-3.1-0.6c-1.1-0.3-2.4-0.7-3.4-1.5l-0.1,0l-0.1-0.1c-1-0.9-2-1.7-3.2-2.3
			c-1.1-0.6-2.3-1-3.7-1.3c-1.4-0.3-3-0.7-4.4-1.3c-0.4-0.2-0.7-0.3-1.1-0.5l-1-0.5c-0.6-0.3-1.2-0.6-1.8-0.9c-2.5-1-5.2-1.6-8-2
			c-2.8-0.4-5.6-0.6-8.4-0.6l-0.5,0l-0.3-0.2c-0.7-0.5-1.4-0.9-2.1-1.4c-0.7-0.6-1.4-1.1-2-1.8c-1.2-1.3-2.2-3-2.5-4.8
			c-0.4-1.7-0.4-3.4-0.8-4.5c-0.1-0.3-0.2-0.5-0.3-0.7c-0.2-0.2-0.3-0.4-0.5-0.5c-0.4-0.3-1-0.6-1.6-0.9c-1.2-0.4-3-0.8-4.5-1.3
			c-1.6-0.5-3.1-1.2-4.5-1.9c-1.4-0.7-2.8-1.4-4.1-1.9c-1.4-0.5-2.8-0.9-4.3-1.1c-0.7-0.1-1.5-0.2-2.2-0.2L252,39l-4.7,0
			c-3.2,0-6.4-0.3-9.5-0.6c-6.3-0.7-12.5-1.7-18.7-3.1l-0.5-0.1l-0.3-0.4c-0.5-0.7-1.1-1.4-1.7-2.1c-0.6-0.7-1.3-1.2-2-1.8
			c-0.7-0.5-1.4-0.9-2.2-1.1c-0.7-0.2-1.4-0.2-2,0.1l0.6-0.6c-0.9,1.9-1.8,4.1-3.4,5.9c-1.6,1.8-3.4,3.1-5.3,4.3
			c-1,0.6-1.8,1.1-2.6,1.7c-0.8,0.6-1.5,1.3-2.2,2.1c-0.6,0.8-1.2,1.6-1.5,2.5c-0.4,0.9-0.5,1.8-0.2,2.4c0.2,0.6,0.9,0.9,1.9,1
			c0.2,0,0.5,0,0.7,0l0.8,0c0.5,0,1-0.1,1.5-0.1c1-0.1,2-0.4,3.2-0.6c1.1-0.2,2.3-0.3,3.5-0.2c2.4,0.3,4.5,1.3,6.4,2.5
			c1.9,1.2,3.7,2.4,5.5,3.6c1.8,1.2,3.6,2.5,5.2,4.1c0.8,0.8,1.5,1.8,2,2.8c0.5,1.1,0.8,2.2,0.9,3.3c0.2,1,0.4,2.1,0.7,3.1
			c0.3,1,0.6,2.1,0.7,3.3c0,0.6-0.1,1.3-0.4,1.8c-0.1,0.3-0.3,0.5-0.5,0.8c-0.2,0.2-0.4,0.4-0.6,0.6c-0.9,0.8-2,1.2-3,1.6
			c-1,0.4-1.9,0.9-2.6,1.6c-0.7,0.7-1.1,1.7-1.6,2.7c-0.5,1-1.3,2-2.2,2.6c-1,0.6-2,1-3.1,1.3c-2.1,0.6-4.2,1.1-6.2,1.8
			c-1,0.4-2,0.8-3,1.3c-0.5,0.2-1,0.5-1.4,0.8c-0.2,0.1-0.5,0.3-0.7,0.4l-0.3,0.2L203,89L202.9,89L202.9,89
			C202.8,89.1,202.9,89,202.9,89z M202.6,89c0-0.1,0.1-0.1,0.1-0.1l0,0l0.1-0.1l0.2-0.1l0.3-0.3c0.2-0.2,0.5-0.3,0.7-0.5
			c0.5-0.3,0.9-0.6,1.4-0.8c1-0.5,2-0.9,3-1.3c2-0.8,4.2-1.4,6.2-2c2-0.6,4-1.6,4.8-3.6c0.4-0.9,0.8-2.1,1.6-2.9
			c0.8-0.9,1.8-1.5,2.8-1.9c1-0.4,1.9-0.9,2.7-1.5c0.8-0.6,1.1-1.5,1.1-2.4c0-1-0.4-2-0.7-3c-0.3-1-0.6-2.1-0.8-3.2
			c-0.3-2.1-1.2-3.9-2.7-5.4c-1.5-1.5-3.2-2.7-5-3.9c-1.8-1.2-3.6-2.4-5.5-3.5c-1.8-1.1-3.8-1.9-5.7-2.1c-1.9-0.2-3.9,0.6-6.2,0.9
			c-0.6,0.1-1.1,0.1-1.7,0.2l-0.9,0c-0.3,0-0.6,0-0.9,0c-0.6-0.1-1.3-0.2-1.9-0.5c-0.6-0.3-1.2-0.9-1.5-1.6c-0.6-1.4-0.3-2.8,0.1-4
			c0.4-1.1,1.1-2.1,1.8-3.1c0.7-0.9,1.6-1.7,2.5-2.5c0.9-0.7,1.9-1.4,2.8-1.9c1.8-1.1,3.4-2.4,4.7-3.9c1.3-1.5,2.1-3.4,2.9-5.4
			l0.2-0.4l0.4-0.2c1.1-0.6,2.5-0.6,3.6-0.3c1.1,0.3,2.1,0.8,3,1.4c0.9,0.6,1.6,1.3,2.4,2c0.7,0.7,1.4,1.5,2,2.3l-0.7-0.5
			c6.1,1.3,12.2,2.2,18.4,2.8c3.1,0.3,6.2,0.5,9.3,0.5l4.7-0.1c0.8,0,1.6,0,2.4,0.1c0.8,0.1,1.6,0.1,2.4,0.2
			c1.6,0.2,3.3,0.6,4.8,1.2c1.6,0.6,3,1.3,4.4,1.9c1.4,0.7,2.8,1.3,4.2,1.7c1.4,0.5,2.8,0.7,4.5,1.3c0.9,0.3,1.7,0.7,2.5,1.4
			c0.4,0.3,0.7,0.8,1.1,1.2c0.2,0.5,0.5,0.9,0.7,1.4c0.6,1.9,0.6,3.4,0.9,4.8c0.6,2.6,2.6,4.5,5.2,6l-0.7-0.2c3,0,5.9,0.2,8.8,0.6
			c2.9,0.4,5.9,1.1,8.7,2.2c0.7,0.3,1.4,0.6,2.1,1l0.9,0.5c0.3,0.2,0.6,0.3,0.9,0.4c1.2,0.5,2.4,0.8,3.9,1.1
			c1.4,0.3,3.1,0.8,4.5,1.6c1.4,0.8,2.7,1.8,3.8,2.8l-0.1-0.1c0.6,0.5,1.4,0.8,2.2,1c0.9,0.2,1.9,0.3,3,0.6c1.1,0.2,2.5,0.8,3.5,1.9
			c0.5,0.5,0.8,1.1,1.1,1.7l0.1,0.2l0.1,0.1l0.1,0.2l0.1,0.2l0.2,0.2c1.1,1.3,2.7,2.6,4.3,3.7c1.6,1.2,3.3,2.3,5.1,3.4
			c3.5,2.2,7,4.2,10.6,6.4c3.6,2.2,6.9,4.5,10.4,6.8c6.8,4.7,13.6,9.4,20.1,14.5c3.2,2.6,6.5,5.3,9.3,8.6c1.4,1.7,2.7,3.3,3.6,5.6
			c0.2,0.6,0.4,1.2,0.3,2c0,0.4-0.1,0.9-0.4,1.3c-0.3,0.5-0.7,0.8-1.1,1c-0.9,0.4-1.6,0.4-2.2,0.3c-0.6-0.1-1.2-0.2-1.8-0.4
			l-0.3-0.1l-0.2-0.2l-8.1-8.2l0.4,0.3c-0.5-0.2-1-0.4-1.4-0.4c-0.2,0-0.2,0-0.2,0c0,0,0,0,0,0c0,0,0,0,0,0l0,0.1
			c-0.1,0.3-0.2,0.8-0.2,1.3c0,0.5,0.1,1.1,0.1,1.7c0.2,1.2,0.4,2.4,0.7,3.6c0.3,1.1,0.8,2.2,1.4,3.2c1.2,2,2.9,3.7,4.8,5.3
			c1.9,1.6,4,3.2,5.9,4.9l0.3,0.3l0.1,0.4c0.4,2.4,0.9,4.8,1.5,7.2c0.3,1.2,0.6,2.4,0.9,3.7c0.3,1.3,0.5,2.7,0,4.2l-0.2,0.7
			l-0.7,0.1c-1.6,0.2-3.1,0.3-4.5,0.7c-1.4,0.4-2.8,1-3.4,2c-0.7,1-0.6,2.5-0.4,4c0.2,1.5,0.8,2.9,1.3,4.4l-0.2-0.3
			c0.8,0.7,1.5,1.5,2.3,2.3c0.7,0.8,1.4,1.9,1.6,3.2c0.2,1.2,0,2.3-0.2,3.3l-0.5,3.1l-0.1,0.7l-0.7,0l-20.1-0.1l0.3-0.1
			c-0.9,0.6-1.8,1.2-2.7,1.9c-0.4,0.3-0.8,0.7-1.2,1.1c-0.4,0.4-0.7,0.8-1.3,1.2c-1.9,1.5-4.7,1.9-6.9,0.9l-0.4-0.2l0-0.4
			c0.3-2.9-0.2-5.8-1.2-8.4c-0.5-1.3-1.2-2.7-2.1-3.7c-0.9-1-2.2-1.7-3.5-2.2c-2.7-0.9-5.7-0.8-8.5-0.2c-1.4,0.4-2.7,0.9-3.9,1.7
			c-1.2,0.8-2.1,1.9-2.6,3.1l-0.1,0.4L332,173c-1.8-0.5-3.8-0.8-5.7-0.9c-1.9-0.1-3.9-0.1-5.7,0.2c-1.9,0.3-3.7,1-5.2,2
			c-0.8,0.5-1.4,1.2-2,1.9c-0.5,0.8-1,1.6-1.3,2.5l0-0.1c-0.2,2.6-1,5.2-2.4,7.4c-1.4,2.2-3.4,4-5.6,5.4c-2.2,1.4-4.6,2.5-7,3.4
			c-2.4,0.9-4.9,1.6-7.3,2.3l-0.1,0l-0.1,0l-34.7-0.6l-0.2,0l-0.2-0.1l-6.5-3.5c-1.1-0.6-2.2-1.2-3.2-1.7c-0.5-0.2-1-0.5-1.6-0.7
			l-0.8-0.3c-0.3-0.1-0.6-0.1-0.8-0.2c-2.2-0.5-4.6-0.4-6.9,0.1c-2.3,0.4-4.6,1.2-6.9,2.1c-1.2,0.4-2.4,0.8-3.6,1.1
			c-1.3,0.3-2.6,0.6-4.1,0.4c-1.5-0.1-3-0.9-4-1.9c-1-1-1.7-2.1-2.4-3.2c-0.7-1.1-1.2-2.2-1.7-3.3c-0.5-1.1-1.1-2.2-1.7-2.9
			c-0.1-0.1-0.1-0.1-0.2-0.2l-0.1-0.1c0,0,0,0-0.1,0c0,0,0,0-0.1,0c0,0,0,0,0,0c0,0,0,0,0,0c0,0,0,0-0.1,0c-0.2,0-0.6,0.2-1,0.5
			c-0.9,0.6-1.7,1.5-2.6,2.3l0.2-0.2c-0.5,0.7-1,1.5-1.8,2.1c-0.2,0.2-0.4,0.3-0.6,0.5c-0.2,0.2-0.5,0.3-0.8,0.4
			c-0.1,0.1-0.3,0.1-0.5,0.1c-0.2,0-0.4,0-0.6,0c-0.2,0-0.4-0.1-0.6-0.1c-0.2-0.1-0.4-0.2-0.5-0.3c-0.6-0.4-1-1-1.2-1.5
			c-0.2-0.5-0.4-1-0.5-1.4c-0.2-0.9-0.3-1.8-0.3-2.7c0-0.7-0.1-1.4-0.3-1.8c-0.1-0.2-0.2-0.3-0.3-0.4c-0.1-0.1-0.4-0.1-0.6-0.2
			c-0.6-0.1-1.3,0-2.1,0.1c-0.8,0.1-1.5,0.2-2.4,0.4c-0.9,0.1-1.8,0.2-2.9-0.1c-0.3,0-0.6-0.2-0.9-0.3c-0.3-0.2-0.6-0.4-0.9-0.7
			c-0.3-0.3-0.4-0.7-0.5-1.1c-0.1-0.4-0.1-0.7,0-1c0.2-1.2,0.7-2,1.2-2.8c0.5-0.8,1.1-1.4,1.5-2c0.5-0.6,0.9-1.2,1.1-1.8
			c0.1-0.3,0.2-0.5,0.1-0.6c0-0.1,0-0.2-0.2-0.4c-0.3-0.4-0.9-0.9-1.5-1.4c-0.6-0.5-1.3-1-1.9-1.4l1.1,0.2c-0.7,0.3-1.5,0.5-2.2,0.7
			c-0.7,0.3-1.4,0.6-2.1,1c-1.4,0.7-2.6,1.6-3.6,2.7c-1.1,1-2,2.3-2.7,3.6c-0.4,0.7-0.6,1.4-0.9,2.1c-0.2,0.7-0.4,1.5-0.5,2.1
			l-0.2,1.7l-1.5-0.7c-2.3-1-4.7-2-7-2.6c-1.2-0.3-2.4-0.6-3.6-0.7c-1.1-0.1-2.4,0-3.8-0.1c-0.7-0.1-1.5-0.1-2.3-0.5
			c-0.8-0.4-1.5-1.2-1.8-2c-0.6-1.6-0.4-3.1-0.1-4.4c0.5-2.6,1.3-5.2,2.2-7.6c0.9-2.4,2-4.8,2.9-7.2c0.5-1.2,1-2.4,1.4-3.5
			c0.2-0.6,0.5-1.2,0.7-1.8l0.3-0.9c0.1-0.3,0.3-0.7,0.4-1c1.3-2.6,3.6-4.3,5.8-5.8c2.2-1.4,4.6-2.6,7-3.6c2.4-1,4.8-2,7.2-2.9
			c1.2-0.5,2.4-0.9,3.5-1.4c0.3-0.1,0.6-0.3,0.8-0.4c0.2-0.2,0.5-0.3,0.7-0.5c0.2-0.2,0.4-0.4,0.6-0.6l0.6-0.7
			c1.5-1.9,2.7-4.2,3.7-6.5c1-2.3,1.8-4.7,2.2-7.2l0.1-0.9l0-0.9c-0.1-0.7-0.1-1.3-0.1-2c0-1.3,0.1-2.7,0.5-3.9
			c0.7-2.6,1.9-4.9,3.2-7.1c0.6-1.1,1.4-2.2,2-3.3c0.6-1.1,1.1-2.3,1.4-3.5C204.5,93.8,204.3,91.1,202.6,89z"/>
	</g>
	<g>
		<path class="st2" d="M291.9,273.3c7.3-0.4,11.6,1.7,12.4,10.7s2.1,11.6,9.4,15s11.1,9,5.6,13.7s-9.4,2.1-18,7.7
			s-12.9,9.9-20.6,6.9s-7.3-6.9-18-4.3s-20.1,6.4-23.6,6s-4.7-3,3.4-12.4s17.1-23.1,26.6-24c3.9-9.9,3-13.7,8.6-13.7
			s1.3-5.6,5.6-5.6L291.9,273.3z"/>
		<path class="st0" d="M291.9,273.1c2-0.1,4.1-0.1,6.1,0.5c1,0.3,1.9,0.8,2.8,1.4c0.8,0.6,1.5,1.5,2.1,2.4c1.1,1.8,1.6,3.9,1.9,5.9
			c0.3,2,0.6,4,1.1,5.9c0.5,1.9,1.2,3.7,2.5,5c0.6,0.7,1.4,1.2,2.2,1.7c0.8,0.5,1.7,1,2.5,1.4l1.4,0.6c0.5,0.2,1,0.4,1.4,0.7
			c0.9,0.5,1.9,1.1,2.7,1.7c1.7,1.3,3.4,2.9,4.3,5.2c0.4,1.2,0.6,2.5,0.3,3.8c-0.3,1.2-1,2.3-1.8,3.2c-0.4,0.4-0.8,0.8-1.2,1.2
			c-0.4,0.3-0.9,0.7-1.3,1c-0.9,0.6-1.9,1.1-2.9,1.5c-2.1,0.8-4.1,1-6,1.5c-1.9,0.4-3.8,1.1-5.5,2c-3.5,1.7-6.8,4.2-10.4,6.3
			c-1.8,1-3.6,2-5.7,2.5c-2.1,0.5-4.3,0.4-6.3-0.2c-2-0.6-3.9-1.5-5.7-2.5c-1.8-1-3.4-2.2-5.3-2.6c-1.8-0.4-3.8-0.2-5.7,0.2
			c-1.9,0.4-3.9,1-5.8,1.5c-3.9,1.2-7.7,2.4-11.6,3.7c-2,0.6-3.9,1.2-6,1.6c-0.5,0.1-1.1,0.2-1.7,0.2c-0.3,0-0.6,0-1,0
			c-0.3,0-0.6-0.1-0.9-0.1c-0.6-0.2-1.3-0.4-2-0.9c-0.7-0.6-1.1-1.5-1.1-2.3c-0.1-1.6,0.4-2.6,0.9-3.7c0.5-1,1-1.9,1.6-2.8
			c1.2-1.8,2.5-3.4,3.8-5c2.6-3.1,5.1-6.3,7.7-9.4c2.6-3.1,5.4-6.2,8.5-9c0.8-0.7,1.6-1.4,2.5-2l1.3-0.9l1.4-0.8
			c1.9-1.1,4-1.8,6.3-2l-1,0.8c1.1-2.6,2.1-5.3,3.1-8.1c0.3-0.7,0.5-1.4,0.9-2.1c0.3-0.7,0.7-1.4,1.3-2c0.6-0.6,1.4-1.1,2.2-1.3
			c0.4-0.1,0.8-0.1,1.2-0.2l1.2,0c0.7,0,1.4,0,1.9-0.3c0.5-0.3,0.8-0.9,0.9-1.5c0.1-0.7,0.1-1.4,0.5-2.2c0.1-0.4,0.5-0.7,0.9-0.9
			c0.2-0.1,0.4-0.1,0.6-0.2c0.2,0,0.4,0,0.6-0.1L291.9,273.1z M291.9,273.4c-2.9,0-5.9,0-8.8,0.1c-0.7,0-1.3,0.3-1.5,0.9
			c-0.2,0.6-0.2,1.3-0.3,2.1c0,0.4-0.1,0.8-0.3,1.2c-0.1,0.2-0.2,0.4-0.3,0.6c-0.2,0.2-0.3,0.3-0.5,0.4c-0.7,0.5-1.6,0.6-2.3,0.6
			c-1.4,0.1-2.7,0.4-3.5,1.4c-0.8,1-1.1,2.4-1.5,3.8c-0.8,2.8-1.5,5.7-2.5,8.5l-0.2,0.7l-0.8,0.1c-3.6,0.5-6.8,2.9-9.7,5.5
			c-2.9,2.7-5.5,5.7-8,8.8c-2.6,3.1-5.1,6.3-7.8,9.4c-1.3,1.5-2.6,3-3.7,4.6c-0.5,0.8-1.1,1.6-1.5,2.4c-0.4,0.8-0.7,1.7-0.7,2.1
			c0,0.2,0.1,0.3,0.2,0.4c0.1,0.1,0.4,0.2,0.7,0.3c0.4,0.1,0.7,0.1,1.1,0.1c0.4,0,0.9-0.1,1.3-0.1c1.9-0.3,3.8-0.8,5.8-1.4
			c3.9-1.1,7.8-2.3,11.8-3.2c2-0.5,4-0.9,6-1.3c2.1-0.3,4.2-0.5,6.4,0.1c2.2,0.6,3.8,1.9,5.5,3c1.7,1,3.5,2,5.4,2.5
			c1.9,0.6,3.9,0.7,5.8,0.2c1.9-0.4,3.7-1.4,5.4-2.4c1.7-1.1,3.3-2.3,5-3.4c1.6-1.2,3.3-2.4,5.1-3.4c1.8-1,3.8-1.9,5.8-2.5
			c2-0.6,4-1,5.7-1.8c0.9-0.4,1.6-0.8,2.4-1.4c0.4-0.3,0.7-0.6,1.1-0.9c0.3-0.3,0.7-0.6,0.9-0.9c0.6-0.7,0.9-1.4,1.1-2.1
			c0.2-0.7,0.1-1.5-0.2-2.2c-0.6-1.5-1.9-2.9-3.4-4c-0.7-0.6-1.6-1.1-2.4-1.6c-0.4-0.2-0.9-0.5-1.3-0.7l-1.4-0.7
			c-1.8-1-3.7-2.2-5.1-3.9c-1.5-1.7-2.1-3.9-2.5-6c-0.4-2.1-0.4-4.1-0.6-6.1c-0.2-2-0.5-4-1.4-5.7c-0.5-0.8-1.1-1.7-1.8-2.3
			c-0.8-0.6-1.6-1.1-2.6-1.4C295.9,273.4,293.9,273.3,291.9,273.4z"/>
	</g>
</g>
</svg>
