<svg id="Layer_1" data-name="Layer 1" xmlns="http://www.w3.org/2000/svg" viewBox="0 0 60 60"><defs><style>.cls-1{fill:none;stroke:#37b34a;stroke-miterlimit:10;stroke-width:0.42px;}.cls-2{fill:#76ac45;}.cls-3{fill:#4b1825;}.cls-4{fill:#d72d2a;}.cls-5{fill:#e44;}.cls-6{fill:#37b34a;}</style></defs><title>btn-food-15</title><path class="cls-1" d="M22.64,3.49S19,30.8,52.56,57.05"/><path class="cls-1" d="M24.4,18.46c2,.81-9.35-4.77-15.59-4.9"/><path class="cls-1" d="M11,3.49c.7,8.19,9.48,13.17,9.48,13.17"/><path class="cls-1" d="M17.34,15.49S9,20,4.71,18.54"/><path class="cls-1" d="M38.43,43.1c-.82,2,4.77-9.35,4.89-15.59"/><path class="cls-1" d="M53.4,29.68c-8.19.7-13.18,9.48-13.18,9.48"/><path class="cls-1" d="M41.39,36s-4.54-8.39-3-12.63"/><path class="cls-2" d="M55.24,27.17a3.39,3.39,0,0,1,.21-.71c.13,0,.61.43.63.47s.11.24.07.29a2.94,2.94,0,0,1-.33.23S55.27,27.1,55.24,27.17Z"/><path class="cls-3" d="M55.89,27.43s.43-.42.66-.37v.27s-.61.19-.61.25"/><circle class="cls-4" cx="54.55" cy="29.41" r="2.42"/><path class="cls-5" d="M53.07,27.73a.88.88,0,0,1,1-.33c.54.29-.23,1.1-.32,1.17s-.87.31-.81-.41A2.35,2.35,0,0,1,53.07,27.73Z"/><ellipse class="cls-5" cx="52.85" cy="28.9" rx="0.19" ry="0.17"/><path class="cls-5" d="M54.28,30.61a.63.63,0,0,1,0,1.11A1.81,1.81,0,0,1,52.84,31s0-.51.22-.67A1.26,1.26,0,0,1,54.28,30.61Z"/><path class="cls-2" d="M44,25.27a3.39,3.39,0,0,1,.21-.71c.13,0,.61.43.63.47s.11.24.07.29-.33.23-.33.23S44,25.2,44,25.27Z"/><path class="cls-3" d="M44.66,25.53s.43-.42.66-.37v.26s-.61.2-.61.26"/><circle class="cls-4" cx="43.32" cy="27.51" r="2.42"/><path class="cls-5" d="M41.84,25.83a.86.86,0,0,1,.95-.33c.54.29-.23,1.1-.32,1.17s-.87.3-.81-.41A2.35,2.35,0,0,1,41.84,25.83Z"/><ellipse class="cls-5" cx="41.62" cy="27" rx="0.19" ry="0.17"/><path class="cls-5" d="M43.05,28.71a.63.63,0,0,1,0,1.11,1.81,1.81,0,0,1-1.42-.68s0-.51.22-.68A1.27,1.27,0,0,1,43.05,28.71Z"/><path class="cls-2" d="M36.18,21.82a3.79,3.79,0,0,1-.51-.53A2.17,2.17,0,0,1,36.4,21s.26,0,.28.08a4,4,0,0,1,0,.41S36.14,21.76,36.18,21.82Z"/><path class="cls-3" d="M36.74,21.4s-.15-.59,0-.76l.23.13a2.78,2.78,0,0,0-.08.66"/><circle class="cls-4" cx="37.77" cy="23.55" r="2.42"/><path class="cls-5" d="M35.57,24a.86.86,0,0,1,.2-1c.52-.32.83.75.85.86s-.18.91-.76.5A2.19,2.19,0,0,1,35.57,24Z"/><ellipse class="cls-5" cx="36.48" cy="24.76" rx="0.19" ry="0.17" transform="translate(-3.27 43.84) rotate(-59.81)"/><path class="cls-5" d="M38.67,24.39c.75-.28,1,.37.95.58a1.8,1.8,0,0,1-1.3.87s-.46-.22-.47-.52S38.27,24.54,38.67,24.39Z"/><path class="cls-2" d="M2.91,17.27a3.22,3.22,0,0,1-.58-.46A2.33,2.33,0,0,1,3,16.4s.26,0,.3.05a3,3,0,0,1,.09.4S2.86,17.22,2.91,17.27Z"/><path class="cls-3" d="M3.4,16.77s-.23-.56-.1-.75l.25.1a2.91,2.91,0,0,0,0,.66"/><circle class="cls-4" cx="4.73" cy="18.75" r="2.42"/><path class="cls-5" d="M2.62,19.49a.85.85,0,0,1,0-1c.47-.39.93.62,1,.73s0,.92-.68.6C3,19.82,2.63,19.55,2.62,19.49Z"/><ellipse class="cls-5" cx="3.62" cy="20.13" rx="0.19" ry="0.17" transform="translate(-16.4 15.94) rotate(-67.97)"/><path class="cls-5" d="M5.74,19.46c.7-.39,1,.22,1,.43A1.8,1.8,0,0,1,5.6,21s-.49-.16-.54-.46S5.37,19.66,5.74,19.46Z"/><path class="cls-2" d="M21.08,2a3.49,3.49,0,0,1-.51-.54,2.17,2.17,0,0,1,.73-.31s.26,0,.28.09a4,4,0,0,1,0,.41S21,2,21.08,2Z"/><path class="cls-3" d="M21.64,1.59s-.15-.59,0-.77l.23.14a2.78,2.78,0,0,0-.08.66"/><circle class="cls-4" cx="22.67" cy="3.74" r="2.42"/><path class="cls-5" d="M20.47,4.17a.86.86,0,0,1,.2-1c.52-.33.83.74.85.86s-.18.9-.76.49A2.52,2.52,0,0,1,20.47,4.17Z"/><ellipse class="cls-5" cx="21.38" cy="4.94" rx="0.19" ry="0.17" transform="translate(6.35 20.93) rotate(-59.81)"/><path class="cls-5" d="M23.57,4.58c.75-.29,1,.37.95.57a1.78,1.78,0,0,1-1.3.88s-.46-.22-.47-.53S23.17,4.73,23.57,4.58Z"/><path class="cls-2" d="M11.24,1.56a3.37,3.37,0,0,1,.13-.73c.12,0,.65.36.68.39s.13.23.1.28a3.1,3.1,0,0,1-.31.27S11.26,1.48,11.24,1.56Z"/><path class="cls-3" d="M11.91,1.75s.39-.48.62-.45l0,.26s-.59.27-.58.33"/><circle class="cls-4" cx="10.82" cy="3.87" r="2.42"/><path class="cls-5" d="M9.15,2.37a.86.86,0,0,1,.9-.43c.58.22-.09,1.11-.17,1.19s-.83.4-.85-.31A2.54,2.54,0,0,1,9.15,2.37Z"/><ellipse class="cls-5" cx="9.07" cy="3.56" rx="0.19" ry="0.17" transform="translate(-0.35 1.08) rotate(-6.71)"/><path class="cls-5" d="M10.68,5.09c.68.43.31,1,.11,1.1a1.75,1.75,0,0,1-1.48-.51s-.09-.5.14-.69A1.23,1.23,0,0,1,10.68,5.09Z"/><path class="cls-2" d="M7.45,11.49A3,3,0,0,1,6.86,11a2.09,2.09,0,0,1,.67-.41s.26,0,.29,0a3.84,3.84,0,0,1,.1.4S7.39,11.44,7.45,11.49Z"/><path class="cls-3" d="M7.93,11s-.24-.56-.11-.75l.24.09a3.06,3.06,0,0,0,0,.67"/><circle class="cls-4" cx="9.29" cy="12.95" r="2.42"/><path class="cls-5" d="M7.19,13.72a.85.85,0,0,1,0-1c.46-.4.94.61,1,.72s0,.92-.67.61A2.55,2.55,0,0,1,7.19,13.72Z"/><ellipse class="cls-5" cx="8.2" cy="14.35" rx="0.19" ry="0.17" transform="translate(-8.13 16.83) rotate(-68.9)"/><path class="cls-5" d="M10.31,13.64c.7-.4,1.06.2,1,.41a1.81,1.81,0,0,1-1.15,1.08s-.48-.15-.54-.45S9.94,13.85,10.31,13.64Z"/><path class="cls-6" d="M33.65,37.15s-12.47,3.75-17.6.3A2.39,2.39,0,0,1,17,33.12c4.62-.73,13.94,4.7,16.69,4"/><path class="cls-6" d="M41.67,47.25S29.2,43.5,24.07,47A2.38,2.38,0,0,0,25,51.27c4.62.73,13.94-4.7,16.69-4"/><path class="cls-6" d="M45.32,51.07S53,44.28,52.88,39.41a1.88,1.88,0,0,0-3.28-1.2c-2.42,2.79-2.68,11.3-4.28,12.86"/><path class="cls-6" d="M27.34,27.08s.42-13,5.33-16.78a2.38,2.38,0,0,1,3.81,2.24c-.79,4.61-8.91,11.72-9.14,14.54"/><path class="cls-6" d="M27.21,26.11S22.47,19,18.45,18.66a1.55,1.55,0,0,0-1.33,2.56c2,2.28,9,3.41,10.09,4.89"/></svg>