<?xml version="1.0" encoding="utf-8"?>
<!-- Generator: Adobe Illustrator 23.0.1, SVG Export Plug-In . SVG Version: 6.00 Build 0)  -->
<svg version="1.1" id="Layer_1" xmlns="http://www.w3.org/2000/svg" xmlns:xlink="http://www.w3.org/1999/xlink" x="0px" y="0px"
	 viewBox="0 0 103.8 103.5" style="enable-background:new 0 0 103.8 103.5;" xml:space="preserve">
<style type="text/css">
	.st0{fill:#A1CC3A;}
	.st1{fill:#41803D;}
	.st2{fill:#ED3454;}
	.st3{fill:#C5DC7E;}
	.st4{fill:#2B1117;}
	.st5{fill:#D11D56;}
</style>
<title>btn-food-07</title>
<g>
	<polygon class="st0" points="78,61.6 79.1,64.3 86.3,65 84.9,62.5 	"/>
	<path class="st1" d="M19.9,65c18.4,12.5,25.2,14.9,43,12c8.6-2.1,16.5-6.2,23.2-12l-7.2-0.7c0,0-8.6,9.7-28.2,11.6
		C50.8,75.9,36.4,77.7,19.9,65z"/>
	<path class="st2" d="M21.7,61.8l33-36.5l23,35.8c0,0-4.3,6.9-8.1,7.7s-19,11.5-33.6,2.9S26.1,67.3,21.7,61.8z"/>
	<path class="st3" d="M21.6,62l-2.1,2.4c0,0,11.7,10,26.3,11.3s28-6.3,33.3-11.4l-1.6-2.8c0,0-11.8,10.6-22,11.1S38.5,73.3,21.6,62z
		"/>
	<path class="st4" d="M52.1,42.7c-0.2-1.1,0.3-2.3,1.2-3c0.4,0.9,0.4,2,0,2.9C53,43.4,52.1,42.7,52.1,42.7z"/>
	<path class="st4" d="M46.7,62c-0.2-1.8,0.5-3.6,2-4.8c0.6,1.5,0.6,3.2,0,4.7C48.1,63.2,46.7,62,46.7,62z"/>
	<path class="st4" d="M43.9,52.8c-0.2-1.8,0.5-3.6,2-4.8c0.6,1.5,0.6,3.2,0.1,4.7C45.4,53.9,43.9,52.8,43.9,52.8z"/>
	<path class="st4" d="M53,53.1c-0.8-1.7-0.6-3.6,0.4-5.1c1,1.2,1.5,2.8,1.5,4.4C54.7,53.8,53,53.1,53,53.1z"/>
	<path class="st4" d="M60.1,53.6c-1-1.5-1.1-3.5-0.3-5.2c1.2,1.1,1.9,2.6,2.1,4.2C61.9,54,60.1,53.6,60.1,53.6z"/>
	<path class="st4" d="M58.1,61.7c-0.7-1.7-0.3-3.7,0.8-5.1c0.9,1.3,1.3,2.9,1.1,4.5C59.8,62.5,58.1,61.7,58.1,61.7z"/>
	<path class="st4" d="M37.3,62c-0.2-1.8,0.5-3.6,2-4.8c0.6,1.5,0.6,3.2,0,4.7C38.8,63.2,37.3,62,37.3,62z"/>
	<polygon class="st5" points="54.7,25.4 61.3,28.8 84.9,62.5 78,61.6 	"/>
	<path class="st4" d="M64.7,60.3c-0.9-1.6-0.9-3.6,0-5.2c1.1,1.2,1.8,2.7,1.8,4.3C66.4,60.9,64.7,60.3,64.7,60.3z"/>
</g>
</svg>
