<?xml version="1.0" encoding="utf-8"?>
<!-- Generator: Adobe Illustrator 23.0.1, SVG Export Plug-In . SVG Version: 6.00 Build 0)  -->
<svg version="1.1" id="Layer_1" xmlns="http://www.w3.org/2000/svg" xmlns:xlink="http://www.w3.org/1999/xlink" x="0px" y="0px"
	 viewBox="0 0 103.8 103.5" style="enable-background:new 0 0 103.8 103.5;" xml:space="preserve">
<style type="text/css">
	.st0{fill:#37B34A;}
	.st1{fill:none;stroke:#37B34A;stroke-width:0.65;stroke-miterlimit:10;}
</style>
<title>btn-food-05</title>
<g>
	<path class="st0" d="M21,45.3c0,0,28.4,4.5,21.3-10.1"/>
	<path class="st0" d="M21,45.3c0,0,13.9-24.6,21.3-10.1"/>
	<path class="st0" d="M32.2,61.1c0,0,28.7,1.5,20.1-12.4"/>
	<path class="st0" d="M32.2,61.1c0,0,11.1-26,20.1-12.4"/>
	<path class="st0" d="M46.8,76.6c0,0,28.7-1.4,18.8-14.3"/>
	<path class="st0" d="M46.8,76.6c0,0,8.5-27,18.8-14.3"/>
	<path class="st0" d="M64,25.5c0,0-13.1,25.6-20.8,11.2"/>
	<path class="st0" d="M64,25.5c0,0-28.1-3.4-20.8,11.2"/>
	<path class="st0" d="M86.6,49.2c0,0-7.4,27.8-18,15.3"/>
	<path class="st0" d="M86.6,49.2c0,0-28.2,2.6-18,15.3"/>
	<path class="st0" d="M75.6,37.2c0,0-9.3,27.2-18.9,14"/>
	<path class="st0" d="M75.6,37.2c0,0-28.3,0.7-18.9,14"/>
	<path class="st1" d="M47.7,21.3c0,0-30.6,4.9,37.3,57.9"/>
</g>
</svg>
