<?xml version="1.0" encoding="utf-8"?>
<!-- Generator: Adobe Illustrator 23.0.1, SVG Export Plug-In . SVG Version: 6.00 Build 0)  -->
<svg version="1.1" id="Layer_1" xmlns="http://www.w3.org/2000/svg" xmlns:xlink="http://www.w3.org/1999/xlink" x="0px" y="0px"
	 viewBox="0 0 103.8 103.5" style="enable-background:new 0 0 103.8 103.5;" xml:space="preserve">
<style type="text/css">
	.st0{fill:#050505;}
	.st1{fill:#D39229;}
	.st2{fill:#EAAA39;}
	.st3{fill:#F9F9F9;}
</style>
<title>btn-food-11</title>
<rect x="35" y="17" transform="matrix(0.7071 -0.7071 0.7071 0.7071 -8.7413 46.6091)" class="st0" width="33.8" height="33.7"/>
<rect x="36.1" y="18.1" transform="matrix(0.7071 -0.7071 0.7071 0.7071 -8.7437 46.6184)" class="st1" width="31.5" height="31.5"/>
<path class="st0" d="M61,93.5c-1.3,0-5.1-2.8-5.5-4c-0.2-0.4-0.2-1,0.1-1.4c0.4-0.6,1.1-0.9,1.8-1l-0.5-4c-0.3,1.5-0.8,2.6-1.9,3
	l-0.4,0.2L54,86.1c-1.1-0.5-1.9-1.5-2.1-2.7c-0.3,1-1.1,1.8-2,2.2l-0.4,0.2l-0.4-0.1c-1-0.4-1.7-1.4-1.8-2.4l-0.5,3.9
	c0.7,0.1,1.3,0.4,1.8,1c0.3,0.4,0.3,0.9,0.1,1.4c-0.5,1.1-4.3,4-5.5,4c-0.3,0-0.6-0.1-0.8-0.3c-1.2-1.6-2.1-3.4-2.5-5.4
	c0-0.4,0.1-0.8,0.4-1.2c0.3-0.4,0.8-0.5,1.3-0.5c0.3,0,0.6,0,0.9,0.1c0.8-5.8,1.1-11.7,0.9-17.6c0-0.6-1.2-0.7-1.4-0.7
	c-1-0.1-1.9,0.4-2.5,1.2c-0.9,2.2-1.7,4.5-2.3,6.9c-0.3,1-1.3,1.5-2.2,1.3c-0.7-0.2-1.2-0.8-1.3-1.5c-0.4-2.8-0.7-6.8,0.5-9.8
	c1.5-3.8,5.6-5.4,7.5-5.8c0.5-2.1,0.8-10.2,0.9-16.2c0.2-7.8,0.5-15.3,1.1-18.1c0.9-3.9,2.4-8,8.7-8.1h0.1l0.9,0.1
	c5.9,0.1,6.6,3.2,7.6,7.4v0.1c0.7,2.9,0.9,10.3,1,18.2c0.2,6.4,0.4,15.2,1,16.5c0.3,0.2,0.7,0.4,1.1,0.6c2.2,0.9,4,2.4,5.2,4.4
	c1.4,2.7,2.3,5.7,2.7,8.7c0.1,1-0.7,1.9-1.7,2c-0.1,0-0.1,0-0.2,0c-0.7,0-1.3-0.3-1.6-0.9c-0.8-1.3-1.7-2.7-2.5-4.1v-0.1v-0.1
	c-0.7-1.5-2.2-2.5-3.8-2.5c-0.2,0-0.9,0-1,0.4c-0.2,5.9,0.1,11.7,0.9,17.6c0.3-0.1,0.6-0.1,0.9-0.1c0.5,0,1,0.2,1.3,0.5
	c0.3,0.3,0.4,0.7,0.4,1.2c-0.4,2-1.3,3.8-2.5,5.4C61.6,93.5,61.3,93.5,61,93.5z"/>
<path class="st2" d="M52.2,19.1c-5.2,0.1-6.6,3.1-7.6,7.3c-1.4,5.8-0.8,33.2-2.4,35.1c-0.8-0.1-5.7,1.3-7.2,5.2
	c-1.1,2.8-0.8,6.6-0.4,9.2c0.1,0.4,0.4,0.6,0.8,0.6c0.3,0,0.5-0.2,0.5-0.5c0.6-2.4,1.4-4.8,2.4-7.1c1-2.3,5.8-2.6,6-0.1
	c0.4,6.3-0.7,18.1-1.2,19.1c0,0-1.8-0.9-2.2-0.4s1.6,4.6,2,5s4.3-2.4,4.6-3.3s-2.1-1-2.1-1l2.2-16c0.8,3.9-0.5,11.7,1.8,12.5
	c2.8-1.2,1.8-6.9,1.5-10c0.1-0.4,0.4-0.8,0.8-1c0.2-0.1,0.5-0.1,0.7,0c0.4,0.2,0.7,0.6,0.8,1c-0.3,3.1-1.4,9.3,1.3,10.5
	c2.3-0.8,1-9.1,1.9-13l2.2,16c0,0-2.5,0.2-2.1,1s4.2,3.6,4.6,3.3s2.5-4.4,2-5s-2.2,0.4-2.2,0.4c-0.5-1-1.6-12.8-1.2-19.1
	c0.2-2.4,5.4-1.8,6.9,1.7c1,1.6,1.9,3,2.6,4.1c0.2,0.4,0.7,0.5,1,0.3c0.3-0.1,0.4-0.4,0.4-0.7c-0.4-2.9-1.2-5.6-2.5-8.2
	C66,62.3,62.6,62,61.8,61c-1.5-2-0.8-29.4-2.2-35.2c-1-4.2-1.5-6.5-6.6-6.6L52.2,19.1z"/>
<circle class="st3" cx="47.6" cy="52.3" r="2"/>
<path d="M47.6,50.7c0,0-1.3,1-0.2,3.2l0.1,0.2c0,0.1,0.1,0.1,0.2,0.1c0,0,0,0,0.1-0.1l0.1-0.2c1.1-2.2-0.1-3.2-0.1-3.2l0,0
	C47.8,50.6,47.7,50.6,47.6,50.7C47.6,50.6,47.6,50.6,47.6,50.7z"/>
<path class="st1" d="M52,27c0,0-6.8,5.2-0.9,16.7l0.6,1c0.2,0.4,0.7,0.5,1,0.3c0.1-0.1,0.2-0.2,0.3-0.3l0.7-1.2
	C59.5,32.1,53.1,27,53.1,27l0,0c-0.3-0.3-0.7-0.4-1-0.1C52.1,26.9,52,27,52,27z"/>
<circle class="st3" cx="56.6" cy="52.3" r="2"/>
<path d="M56.5,50.7c0,0-1.3,1-0.2,3.2l0.1,0.2c0,0.1,0.1,0.1,0.2,0.1c0,0,0,0,0.1-0.1l0.1-0.2c1.1-2.2-0.1-3.2-0.1-3.2l0,0
	C56.7,50.6,56.6,50.6,56.5,50.7C56.6,50.6,56.5,50.6,56.5,50.7z"/>
</svg>
