<?xml version="1.0" encoding="utf-8"?>
<!-- Generator: Adobe Illustrator 23.0.1, SVG Export Plug-In . SVG Version: 6.00 Build 0)  -->
<svg version="1.1" id="Layer_1" xmlns="http://www.w3.org/2000/svg" xmlns:xlink="http://www.w3.org/1999/xlink" x="0px" y="0px"
	 viewBox="0 0 103.8 103.5" style="enable-background:new 0 0 103.8 103.5;" xml:space="preserve">
<style type="text/css">
	.st0{fill:#E89C25;}
	.st1{fill:#7A482E;}
	.st2{fill:#BB7E1F;}
	.st3{fill:#623A25;}
</style>
<title>btn-food-03</title>
<path class="st0" d="M51.9,23.2c-15.8,0-28.5,12.8-28.5,28.5s12.8,28.5,28.5,28.5s28.5-12.8,28.5-28.5c0,0,0,0,0,0
	C80.4,36,67.7,23.2,51.9,23.2z M51.9,62.4c-5.9,0-10.7-4.8-10.7-10.7C41.2,45.8,46,41,51.9,41s10.7,4.8,10.7,10.7c0,0,0,0,0,0
	C62.6,57.6,57.8,62.4,51.9,62.4z"/>
<path class="st1" d="M80.2,55.2c0.2-1.2,0.2-2.3,0.2-3.5c0-15.8-12.8-28.5-28.5-28.5c-15.8,0-28.5,12.8-28.5,28.5c0,0,0,0,0,0
	c0,0.6,0,1.2,0.1,1.7c1.2,0,2.4-0.2,3.5-0.4c8-1.5,8.8-3.8,15.1-5.7c2.4-5.4,8.7-7.9,14.1-5.5c3.9,1.7,6.4,5.6,6.4,9.8V52
	C67.5,54.8,78.5,55.2,80.2,55.2z"/>
<path class="st2" d="M64.4,50c0-5.9-4.8-10.7-10.7-10.7c-3.3,0-6.4,1.5-8.4,4.1c4.7-3.6,11.4-2.8,15,1.9c3,3.9,3,9.3,0,13.1
	C62.9,56.4,64.4,53.3,64.4,50z M53.7,78.5c-15.7,0-28.5-12.8-28.5-28.5c0-7.1,2.7-14,7.5-19.3C21,41.3,20.2,59.3,30.8,71
	s28.6,12.5,40.3,1.9c0.7-0.6,1.3-1.2,1.9-1.9C67.7,75.8,60.8,78.5,53.7,78.5z"/>
<path class="st3" d="M62.6,52c0.5,0.3,0.9,0.5,1.4,0.7c0.2-0.9,0.4-1.8,0.4-2.7c0-5.9-4.8-10.7-10.7-10.7c-3.3,0-6.4,1.5-8.4,4.1
	l0.2-0.2c0.3-0.2,0.7-0.4,1-0.6l0.5-0.3c0.3-0.2,0.7-0.3,1-0.5l0.5-0.2c0.4-0.1,0.8-0.2,1.2-0.3l0.5-0.1c0.6-0.1,1.2-0.2,1.8-0.2
	c5.9,0,10.7,4.8,10.7,10.7l0,0L62.6,52z"/>
<path class="st3" d="M25.4,53.3c-0.1-1.1-0.2-2.2-0.2-3.3c0-7.1,2.7-14,7.5-19.3c-0.7,0.6-1.4,1.3-2,2l0,0c-0.6,0.7-1.2,1.4-1.8,2.2
	l-0.1,0.1c-0.5,0.7-1,1.5-1.5,2.2l-0.1,0.2c-0.4,0.7-0.8,1.5-1.1,2.2l-0.2,0.4c-0.3,0.7-0.6,1.4-0.9,2.2l-0.2,0.6
	c-0.2,0.7-0.4,1.4-0.6,2.1L24,45.8c-0.1,0.7-0.3,1.4-0.4,2.2l-0.1,0.8c-0.1,1-0.2,2-0.2,3c0,0.6,0,1.2,0.1,1.7
	C24.1,53.5,24.7,53.4,25.4,53.3z"/>
</svg>
