<?xml version="1.0" encoding="utf-8"?>
<!-- Generator: Adobe Illustrator 23.0.1, SVG Export Plug-In . SVG Version: 6.00 Build 0)  -->
<svg version="1.1" id="Layer_1" xmlns="http://www.w3.org/2000/svg" xmlns:xlink="http://www.w3.org/1999/xlink" x="0px" y="0px"
	 viewBox="0 0 103.8 103.5" style="enable-background:new 0 0 103.8 103.5;" xml:space="preserve">
<style type="text/css">
	.st0{fill:#F16422;}
	.st1{fill:#020202;}
	.st2{fill:#F5F3B4;}
	.st3{fill:#EE3D23;}
	.st4{fill:#ED6950;}
</style>
<title>btn-food-02</title>
<circle class="st0" cx="50.3" cy="64.8" r="0.8"/>
<circle class="st0" cx="51.7" cy="67" r="0.8"/>
<circle class="st0" cx="49.9" cy="66.6" r="0.4"/>
<path class="st1" d="M41.1,46.6c-1.3,0-2.5-0.5-3.4-1.3l-5.6-4.9c-5.2-0.1-7.7-3.2-8.4-5.1l-0.1-0.3l0-0.4c-0.3-2.5-0.1-6.7,4-8
	c0.5-1.1,1.2-2.2,2-3.1l1-1.1H32c8.5,0,9,5.8,9.3,8.3c0,0.4,0.1,1,0.2,1.3c1,1.2,2,2.3,3.2,3.4c2.7,2.7,2.7,7,0.1,9.7
	c0,0,0,0-0.1,0.1C43.6,46.1,42.3,46.6,41.1,46.6L41.1,46.6z"/>
<path class="st1" d="M62.8,56.9c1.3,0,2.5,0.5,3.4,1.3l5.6,4.9c5.2,0.1,7.7,3.2,8.4,5.1l0.1,0.4v0.4c0.3,2.5,0.1,6.7-4,8
	c-0.5,1.1-1.2,2.2-2,3.1l-1,1.1h-1.5c-8.5,0-9-5.8-9.2-8.3c0-0.4-0.1-1-0.2-1.3c-1-1.2-2-2.3-3.2-3.4c-2.7-2.7-2.7-7-0.1-9.7
	c0,0,0,0,0.1-0.1C60.1,57.4,61.4,56.8,62.8,56.9L62.8,56.9z"/>
<path class="st2" d="M61.5,65.8c1.4,1.3,2.7,2.7,3.8,4.2c1.2,2.9-1,7.9,6.4,7.9c0,0,1.9-2.1,1.7-3.3s4.3,1,3.6-5.3
	c0,0-1.2-3.3-6.4-2.9L64,60.7c-0.7-0.7-1.8-0.6-2.5,0.1l0,0C60.1,62.1,60.1,64.4,61.5,65.8C61.4,65.8,61.5,65.8,61.5,65.8z"/>
<path d="M54.7,74.3c-3.8,0.1-7.4-1.3-10.3-3.8L43.9,70l-0.3-0.7c-1.3-3.3-3.4-6.8-4.3-7.4c-0.5-0.3-1-0.5-1.6-0.8
	c-3.2-1.2-5.9-3.4-7.9-6.2c-1.8-2.6-2-6.4-0.5-11.6c0.6-2.1,1.4-4.2,2.3-6.3l0.2-0.3l0.2-0.3c0.3-0.4,7.4-9.2,17.2-9.2
	c0.6,0,1.2,0,1.8,0.1c1.4,0,4.7,0.6,8.5,5.2l0.4,0.5l0.2,0.5c1.1,1.1,2.2,2.1,3.5,3c4.5,3.5,10.6,8.3,11.4,15.5
	c0.5,4.5-1.1,9.3-4.9,14.1C66.6,71.2,60.9,74.2,54.7,74.3z"/>
<path class="st3" d="M50.9,30.6c0,0,2.6-0.2,6.2,4.1c1.4,4.8,24.1,12.4,10.5,29.6c-5,6.9-15,9.1-21,3.8c0,0-3.1-7.6-5.7-9.1
	s-5.5-1.9-8.4-6s2.1-14.6,2.1-14.6S41.9,29.4,50.9,30.6z"/>
<path class="st4" d="M32.5,53c0,0,6.7,4.8,16.7-3.1s5.3-17.4,5.3-17.4s-4.3-4-13.1,0.5s-10.5,14.8-9.3,18.1"/>
<path class="st2" d="M42.3,37.7c-1.4-1.3-2.7-2.7-3.8-4.2c-1.2-2.9,1-7.9-6.4-7.9c0,0-1.9,2.1-1.7,3.3s-4.3-1-3.6,5.3
	c0,0,1.2,3.3,6.4,2.9l6.6,5.8c0.7,0.6,1.8,0.6,2.5-0.1l0,0C43.8,41.4,43.8,39.1,42.3,37.7C42.4,37.7,42.4,37.7,42.3,37.7z"/>
<circle class="st4" cx="51.3" cy="64.6" r="1.1"/>
<circle class="st4" cx="53.3" cy="67.6" r="1.1"/>
<circle class="st4" cx="50.8" cy="67.1" r="0.6"/>
</svg>
