<svg id="Layer_1" data-name="Layer 1" xmlns="http://www.w3.org/2000/svg" viewBox="0 0 60 60"><defs><style>.cls-1{fill:#fbb146;}.cls-2{fill:none;stroke:#fbb146;stroke-miterlimit:10;stroke-width:0.55px;}</style></defs><title>btn-food-17</title><circle class="cls-1" cx="40.3" cy="37.93" r="4.56"/><circle class="cls-1" cx="46.07" cy="28.8" r="3.49"/><circle class="cls-1" cx="51.86" cy="45.99" r="6.38"/><path class="cls-2" d="M39.4,36.1c-.1-2-3.55-7-2.37-8.43s2.11-6.1,1-11.85S43,3.63,43,3.63s3,8.25,1.58,12.19S44,26.23,46.07,28.2"/><path class="cls-2" d="M1.76,58.94c30.36-22,33.87-42.6,34.07-49.86a9.82,9.82,0,0,1,2.85-6.76C40.26.77,42.07.1,43,3.63c0,0,8.28-1.44,11.87,5.56S51.56,26.41,51.9,31.07s-4.23,11.84-1,15.61"/></svg>