<?xml version="1.0" encoding="utf-8"?>
<!-- Generator: Adobe Illustrator 23.0.1, SVG Export Plug-In . SVG Version: 6.00 Build 0)  -->
<svg version="1.1" id="Layer_1" xmlns="http://www.w3.org/2000/svg" xmlns:xlink="http://www.w3.org/1999/xlink" x="0px" y="0px"
	 viewBox="0 0 103.8 103.5" style="enable-background:new 0 0 103.8 103.5;" xml:space="preserve">
<style type="text/css">
	.st0{fill:#F4CE93;}
	.st1{fill:#FFFFFF;}
	.st2{fill:#F05F74;}
</style>
<title>btn-food-08</title>
<g>
	<path d="M26.9,81.4c-2.7,0-3.6-0.3-4.1-0.8c-0.7-0.7-1.7-2.2-1.8-7.4c0-2.7,0.2-5.1,0.2-5.2l0.9-8.7l61.2-19.6l0.2,1.6
		c0,0.1,1.1,7.1,1.6,9.4c0.5,2.5-0.2,8.3-0.2,9l-0.1,0.5l-4,3.7l0,0C73.2,70.8,61.1,75,52.4,77.4c-4.9,1.3-9.8,2.3-14.7,3
		C34.1,80.9,30.5,81.3,26.9,81.4L26.9,81.4z"/>
	<path class="st0" d="M22.6,68.1c0,0-0.8,9.6,1.2,11.5S63.9,77.3,80,62.9l3.6-3.4c0,0,0.7-6.2,0.2-8.6s-1.6-9.5-1.6-9.5L23.4,60.3
		L22.6,68.1z"/>
	<path d="M72.2,50.7c-1.6,0.1-3.1-0.5-4.2-1.6c-1-1.1-1.4-2.6-1.2-4.1v-0.4l0.2-0.3c0.2-0.3,0.4-0.7,0.6-1.1
		c-1.3-0.2-2.4-0.9-3.2-1.9L64,41.4c-0.6,0.2-1.2,0.3-1.8,0.3c-1,0-1.9-0.2-2.8-0.5h-0.1h-0.1c-1.6-0.8-2.9-2-3.8-3.5
		c-0.5-0.1-1.1-0.2-1.6-0.2c-0.8,0-1.6,0.1-2.3,0.4c-0.6,0.2-1.1,0.4-1.6,0.6C48,39.3,46,39.7,44,39.7c-0.7,0-1.4,0-2.2-0.1
		c-2.6-0.3-4.2-1.1-4.9-2.5c-0.5-1-0.4-2.2,0.1-3.2v-0.1v-0.1c0.1-0.1,2.1-2.7,4.7-5.4c3.7-3.8,6.5-5.9,8.6-6.3h0.1h0.1
		c3.2,0,7.3,1.9,8.1,2.2c2.5,0.7,5,1.2,7.6,1.5h0.2c1.5,0,7.3,2.3,10.2,3.5c8.8,3.8,9.7,5.2,10,5.7l0.1,0.1v0.2
		c0.3,1.4,0.2,2.9-0.3,4.2c-0.7,2.2-0.9,4.5-0.7,6.8c0.3,0.9,0.3,1.9-0.2,2.8c-0.4,0.8-1.1,1.3-2,1.3l0,0c-0.7,0-1.6-0.3-2.2-1.8
		v-0.1v-0.1c-0.3-1.4-1.2-3.7-2.7-3.7c-0.7,0.1-1.4,0.3-2,0.7c-0.2,0.5-0.5,1.2-0.8,2c-1,2.2-1.8,3-2.8,3.2
		C72.8,50.7,72.5,50.7,72.2,50.7z"/>
	<path class="st1" d="M38.2,34.6c0,0,8-10.3,12.5-11.1c3.2,0,7.7,2.2,7.7,2.2s6.7,1.7,8.3,1.6s17.7,6.2,19,8.5
		c0.7,2.4-1.8,4.9-1.1,11c0.7,1.1-0.7,3.7-1.8,1.3c-0.7-2.8-2.5-6.7-7.1-3.5c0,0-1.7,4.5-2.6,4.7s-5.3,0.4-4.9-4.2
		c1.8-2.6,0.6-3.2-0.2-3.2s-2.5-1-2.6-2c-2.2,0-1.9,1.2-5.5,0.1c-1.5-0.8-2.7-1.9-3.5-3.4c-1.7-0.7-3.6-0.7-5.3,0
		c-3.1,1.1-4.4,2.2-9.1,1.7C36.4,37.6,38.2,34.6,38.2,34.6z"/>
	<path d="M21.9,68c-1.5,0-3.1-1.3-3.2-4.1c0.1-1.8,0.5-3.7,1.2-5.4c0.4-1.3,1-2.6,1.7-3.8c0.4-0.5,8.3-11.1,13.6-18.2l1.3-1.8l1,2
		c0.6,1.1,3.5,1.9,7.3,1.9c0.6,0,1.2,0,1.8-0.1c1.8-0.5,3.5-1.2,5.2-1.9l0.1,0h0.1c0.5-0.1,0.9-0.2,1.4-0.2c1.6,0,3.1,0.8,3.9,2.2
		c0.4,0.6,1,1.1,1.7,1.5h0.1h0.1c0.8,0.4,1.6,0.6,2.5,0.5c0.8,0,1.5-0.1,2.2-0.3l1.1-0.3l0.5,1c0.4,0.5,1,0.9,1.7,1.2l1.3,0.5
		L68.1,44c-0.3,1-0.3,2.1-0.1,3.2l0.4,2.3l-2.3-0.8c-0.8-0.3-1.5-0.4-2.3-0.5c-1.2-0.1-2.3,0.7-2.7,1.8c0,0.1-0.1,0.1-0.1,0.2
		c-0.2,1.6-0.2,3.2,0,4.7c0.5,1.3,0.2,5,0.2,5.1c-0.2,1.4-1.3,2.5-2.8,2.5c-0.6,0-1.2-0.2-1.7-0.5c-1.2-0.6-1.8-2.1-1.9-4.3
		c0-1.2,0.1-2.3,0.3-3.5c0.1-0.5-0.6-2.6-1.5-2.9c-0.3-0.1-0.6-0.1-0.9-0.1c-0.6,0-1.2,0.1-1.8,0.3c-0.3,0.1-0.5,0.1-0.8,0.2
		c-1.3,0.7-2.5,1.6-3.6,2.6c-0.8,0.6-1.8,0.9-2.7,0.8c-0.8,0-1.8-0.1-2.8-0.2h-0.3h-0.2c-0.8,0-1.6,0.4-2.1,1.1
		c0.1,1.8-0.1,3.6-0.5,5.4c-0.2,1.2-1.2,2.1-2.4,2.1c-1.2,0-2.2-0.9-2.4-2.1c-0.1-1-0.8-1.8-1.7-2.2c-0.5-0.1-1.1-0.2-1.6-0.2
		c-0.8,0-1.7,0.3-2.3,0.9c-0.3,0.2-0.6,0.5-1,0.7c-0.7,0.4-0.9,2-1,3.1c0,0.7-0.2,1.4-0.5,2.1C24.4,67.1,23.2,67.9,21.9,68z"/>
	<path class="st2" d="M36.3,37.4c0,0-13.2,17.8-13.6,18.3s-2.7,5.7-2.6,8.2c0.1,3.1,2.4,3.7,3.6,1.4c0.5-0.9,0.1-4.5,2-5.7
		s2.2-2.3,6.1-1.6c2.1,1.2,2.4,2.3,2.6,3.3s1.6,1.5,2.1-0.2c0.4-1.7,0.6-3.4,0.5-5.2c-0.2-0.6,1.6-2.6,3.8-2.4s4.2,0.4,4.8-0.2
		s3.6-2.8,4.3-2.9s2.3-1,4.2-0.4s2.7,3.5,2.5,4.5s-0.8,5.3,0.9,6.2s2.4-0.4,2.5-1c0.2-1.5,0.1-2.9-0.1-4.4c-0.3-1.9-0.3-3.8,0-5.8
		c0.2-0.4,1.3-4.3,6.8-2.3c-0.2-1.3-0.2-2.7,0.2-4c-1-0.3-1.8-1-2.4-1.8c0,0-3.3,1-5.7-0.4c-2.8-1.1-2.5-4.2-6.3-3.4
		c-1.8,0.8-3.6,1.4-5.5,2C45.6,40.1,37.8,40.4,36.3,37.4z"/>
</g>
</svg>
