<?xml version="1.0" encoding="utf-8"?>
<!-- Generator: Adobe Illustrator 23.0.1, SVG Export Plug-In . SVG Version: 6.00 Build 0)  -->
<svg version="1.1" id="Layer_1" xmlns="http://www.w3.org/2000/svg" xmlns:xlink="http://www.w3.org/1999/xlink" x="0px" y="0px"
	 viewBox="0 0 599.8 599.8" style="enable-background:new 0 0 599.8 599.8;" xml:space="preserve">
<style type="text/css">
	.st0{fill:#FCF1C6;}
	.st1{fill:#B2B3B2;}
	.st2{fill:#C4C4C4;}
	.st3{fill:#030303;}
	.st4{fill:#EEF0A8;}
</style>
<g id="Ampelosaurus">
	<path class="st0" d="M451.5,241.5c0,0-4.6-7.7-5.7-8.5c-1-0.8,0.8,9.6,0,10.5C445.1,244.3,450.5,244.3,451.5,241.5z"/>
	<path class="st0" d="M442.2,240.2c0,0-6.2-10.3-7.5-11.3s1,12.8,0,13.9C433.6,244,440.8,244,442.2,240.2z"/>
	<path class="st0" d="M434,238.4c0,0-8.3-13.8-10.2-15.2c-1.8-1.4,1.4,17.2,0,18.8C422.4,243.5,432.1,243.5,434,238.4z"/>
	<path class="st0" d="M422.2,235.8c0,0-8.3-13.8-10.2-15.2s1.4,17.2,0,18.8C410.6,240.9,420.3,240.9,422.2,235.8z"/>
	<path class="st0" d="M409.9,231.7c0,0-7.3-12.1-8.9-13.3s1.2,15.1,0,16.4C399.8,236.1,408.2,236.1,409.9,231.7z"/>
	<path class="st0" d="M398.9,229.1c0,0-5.2-8.7-6.4-9.6c-1.2-0.9,0.9,10.8,0,11.8C391.6,232.3,397.7,232.3,398.9,229.1z"/>
	<path class="st0" d="M389.3,226.5c0,0-5.2-8.7-6.4-9.6c-1.2-0.9,0.9,10.8,0,11.8C382,229.7,388.1,229.7,389.3,226.5z"/>
	<path class="st0" d="M381.9,225.3c0,0-4.1-6.8-5-7.5c-0.9-0.7,0.7,8.5,0,9.2C376.2,227.8,381,227.8,381.9,225.3z"/>
	<path class="st0" d="M374.4,224.7c0,0-4.1-6.8-5-7.5c-0.9-0.7,0.7,8.5,0,9.2C368.7,227.2,373.5,227.2,374.4,224.7z"/>
	<path class="st0" d="M367.7,221.8c0,0-4.2-4-4.9-4.3s2.1,5.8,1.8,6.5C364.2,224.6,367.5,223.7,367.7,221.8z"/>
	<path class="st0" d="M360.1,221.8c0,0-4.2-4-4.9-4.3c-0.8-0.3,2.1,5.8,1.8,6.5C356.6,224.6,359.9,223.7,360.1,221.8z"/>
	<path class="st0" d="M353.1,222.2c0,0-4.2-4-4.9-4.3c-0.8-0.3,2.1,5.8,1.8,6.5C349.6,225.1,352.9,224.2,353.1,222.2z"/>
	<path class="st0" d="M348.2,221.8c0,0-4.2-4-4.9-4.3c-0.8-0.3,2.1,5.8,1.8,6.5C344.7,224.6,348,223.7,348.2,221.8z"/>
	<path class="st0" d="M340,221.8c0,0-4.2-4-4.9-4.3c-0.8-0.3,2.1,5.8,1.8,6.5C336.5,224.6,339.9,223.7,340,221.8z"/>
	<path class="st0" d="M330,223c0,0-4.2-4-4.9-4.3c-0.8-0.3,2.1,5.8,1.8,6.5C326.5,225.9,329.8,225,330,223z"/>
	<path class="st0" d="M323.1,223.7c0,0-4.2-4-4.9-4.3c-0.8-0.3,2.1,5.8,1.8,6.5C319.6,226.5,322.9,225.6,323.1,223.7z"/>
	<path class="st0" d="M317.1,225.2c0,0-4.2-4-4.9-4.3c-0.8-0.3,2.1,5.8,1.8,6.5C313.6,228,316.9,227.1,317.1,225.2z"/>
	<path class="st0" d="M309.2,226.6c0,0-4.2-4-4.9-4.3c-0.8-0.3,2.1,5.8,1.8,6.5C305.7,229.5,309,228.6,309.2,226.6z"/>
	<path class="st0" d="M301.8,228.5c0,0-4.2-4-4.9-4.3c-0.8-0.3,2.1,5.8,1.8,6.5C298.3,231.3,301.6,230.4,301.8,228.5z"/>
	<path class="st0" d="M294.3,230c0,0-4.2-4-4.9-4.3c-0.8-0.3,2.1,5.8,1.8,6.5C290.8,232.8,294.1,231.9,294.3,230z"/>
	<path class="st0" d="M287.8,231.9c0,0-4.2-4-4.9-4.3c-0.8-0.3,2.1,5.8,1.8,6.5C284.3,234.7,287.6,233.8,287.8,231.9z"/>
	<path class="st0" d="M280.4,232.9c0,0-4.2-4-4.9-4.3c-0.8-0.3,2.1,5.8,1.8,6.5C276.9,235.7,280.3,234.8,280.4,232.9z"/>
	<path class="st0" d="M272.6,235.2c0,0-4.2-4-4.9-4.3c-0.8-0.3,2.1,5.8,1.8,6.5C269.1,238,272.5,237.1,272.6,235.2z"/>
	<path class="st0" d="M265.3,237.1c0,0-4.2-4-4.9-4.3c-0.8-0.3,2.1,5.8,1.8,6.5C261.8,239.9,265.2,239,265.3,237.1z"/>
	<path class="st0" d="M257.6,239.3c0,0-4.2-4-4.9-4.3c-0.8-0.3,2.1,5.8,1.8,6.5C254.1,242.1,257.4,241.2,257.6,239.3z"/>
	<path class="st0" d="M245.1,241.1c0,0-4.2-4-4.9-4.3c-0.8-0.3,2.1,5.8,1.8,6.5C241.6,244,244.9,243.1,245.1,241.1z"/>
	<path class="st0" d="M251.6,240.1c0,0-4.2-4-4.9-4.3c-0.8-0.3,2.1,5.8,1.8,6.5C248,243,251.4,242.1,251.6,240.1z"/>
	<path class="st0" d="M237,242c0,0-4.2-4-4.9-4.3c-0.8-0.3,2.1,5.8,1.8,6.5C233.5,244.8,236.8,243.9,237,242z"/>
	<path class="st0" d="M230.2,244.7c0,0-3.3-4.7-4-5.2c-0.7-0.4,1,6.1,0.5,6.7C226.2,246.9,229.7,246.6,230.2,244.7z"/>
	<path class="st0" d="M222.1,245.5c0,0-3.3-4.7-4-5.2c-0.7-0.4,1,6.1,0.5,6.7C218.1,247.7,221.6,247.4,222.1,245.5z"/>
	<path class="st0" d="M214.6,246c0,0-3.3-4.7-4-5.2c-0.7-0.4,1,6.1,0.5,6.7C210.6,248.2,214.1,247.9,214.6,246z"/>
	<path class="st0" d="M206.6,246.7c0,0-3.3-4.7-4-5.2c-0.7-0.4,1,6.1,0.5,6.7S206,248.6,206.6,246.7z"/>
	<path class="st0" d="M194,246.2c0,0-3.3-4.7-4-5.2c-0.7-0.4,1,6.1,0.5,6.7C190,248.3,193.4,248.1,194,246.2z"/>
	<path class="st0" d="M200.5,246.4c0,0-3.3-4.7-4-5.2c-0.7-0.4,1,6.1,0.5,6.7C196.5,248.6,200,248.3,200.5,246.4z"/>
	<path class="st0" d="M185.8,245.5c0,0-3.3-4.7-4-5.2c-0.7-0.4,1,6.1,0.5,6.7C181.8,247.7,185.3,247.4,185.8,245.5z"/>
	<path class="st0" d="M176.4,246.7c0,0-3.3-4.7-4-5.2s1,6.1,0.5,6.7S175.9,248.6,176.4,246.7z"/>
	<path class="st0" d="M168.3,247.5c0,0-3.3-4.7-4-5.2c-0.7-0.4,1,6.1,0.5,6.7C164.4,249.6,167.8,249.4,168.3,247.5z"/>
	<path class="st0" d="M160.8,248c0,0-3.3-4.7-4-5.2c-0.7-0.4,1,6.1,0.5,6.7C156.8,250.1,160.3,249.9,160.8,248z"/>
	<path class="st0" d="M152.8,248.7c0,0-3.3-4.7-4-5.2c-0.7-0.4,1,6.1,0.5,6.7C148.8,250.8,152.3,250.5,152.8,248.7z"/>
	<path class="st0" d="M140.2,248.2c0,0-3.3-4.7-4-5.2c-0.7-0.4,1,6.1,0.5,6.7C136.2,250.3,139.7,250,140.2,248.2z"/>
	<path class="st0" d="M146.7,248.4c0,0-3.3-4.7-4-5.2c-0.7-0.4,1,6.1,0.5,6.7C142.7,250.5,146.2,250.3,146.7,248.4z"/>
	<path class="st0" d="M132,247.5c0,0-3.3-4.7-4-5.2c-0.7-0.4,1,6.1,0.5,6.7C128,249.6,131.5,249.4,132,247.5z"/>
	<path class="st0" d="M128.8,251.6c0,0-4-4.2-4.7-4.5c-0.7-0.3,1.8,5.9,1.4,6.6C125.2,254.3,128.6,253.5,128.8,251.6z"/>
	<path class="st0" d="M120.9,253.5c0,0-4-4.2-4.7-4.5c-0.7-0.3,1.8,5.9,1.4,6.6C117.3,256.2,120.7,255.4,120.9,253.5z"/>
	<path class="st0" d="M113.5,255.1c0,0-4-4.2-4.7-4.5c-0.7-0.3,1.8,5.9,1.4,6.6C109.9,257.7,113.3,257,113.5,255.1z"/>
	<path class="st0" d="M105.7,256.8c0,0-4-4.2-4.7-4.5c-0.7-0.3,1.8,5.9,1.4,6.6S105.4,258.8,105.7,256.8z"/>
	<path class="st0" d="M93.1,258.1c0,0-4-4.2-4.7-4.5c-0.7-0.3,1.8,5.9,1.4,6.6C89.5,260.8,92.9,260,93.1,258.1z"/>
	<path class="st0" d="M99.6,257.4c0,0-4-4.2-4.7-4.5c-0.7-0.3,1.8,5.9,1.4,6.6C96,260.1,99.4,259.3,99.6,257.4z"/>
	<path class="st0" d="M84.9,258.6c0,0-4-4.2-4.7-4.5c-0.7-0.3,1.8,5.9,1.4,6.6C81.3,261.2,84.7,260.5,84.9,258.6z"/>
	<path class="st0" d="M78.1,260.2c0,0-2.5-3.2-3-3.5c-0.5-0.3,0.9,4.3,0.6,4.7C75.3,261.8,77.8,261.5,78.1,260.2z"/>
	<path class="st0" d="M72.4,261c0,0-2.5-3.2-3-3.5c-0.5-0.3,0.9,4.3,0.6,4.7C69.7,262.6,72.1,262.3,72.4,261z"/>
	<path class="st0" d="M67.1,261.6c0,0-2.5-3.2-3-3.5c-0.5-0.3,0.9,4.3,0.6,4.7C64.4,263.2,66.8,262.9,67.1,261.6z"/>
	<path class="st0" d="M61.5,262.3c0,0-2.5-3.2-3-3.5c-0.5-0.3,0.9,4.3,0.6,4.7C58.7,263.9,61.2,263.6,61.5,262.3z"/>
	<path class="st0" d="M52.6,262.3c0,0-2.5-3.2-3-3.5c-0.5-0.3,0.9,4.3,0.6,4.7C49.8,264,52.3,263.7,52.6,262.3z"/>
	<path class="st0" d="M57.2,262.3c0,0-2.5-3.2-3-3.5c-0.5-0.3,0.9,4.3,0.6,4.7C54.4,263.9,56.9,263.6,57.2,262.3z"/>
	<path class="st0" d="M46.8,262.1c0,0-2.5-3.2-3-3.5c-0.5-0.3,0.9,4.3,0.6,4.7C44.1,263.8,46.5,263.5,46.8,262.1z"/>
	<path class="st0" d="M519.1,232c0,0-3.2-2.5-3.8-2.6c-0.6-0.2,1.9,3.9,1.7,4.4S519.1,233.4,519.1,232z"/>
	<path class="st0" d="M513.8,234.2c0,0-3.2-2.5-3.8-2.6c-0.6-0.2,1.9,3.9,1.7,4.4S513.8,235.6,513.8,234.2z"/>
	<path class="st0" d="M508.8,236.1c0,0-3.2-2.5-3.8-2.6c-0.6-0.2,1.9,3.9,1.7,4.4S508.8,237.5,508.8,236.1z"/>
	<path class="st0" d="M503.5,238.2c0,0-3.2-2.5-3.8-2.6c-0.6-0.2,1.9,3.9,1.7,4.4S503.6,239.6,503.5,238.2z"/>
	<path class="st0" d="M494.9,240.5c0,0-3.2-2.5-3.8-2.6c-0.6-0.2,1.9,3.9,1.7,4.4S495,241.9,494.9,240.5z"/>
	<path class="st0" d="M499.4,239.3c0,0-3.2-2.5-3.8-2.6c-0.6-0.2,1.9,3.9,1.7,4.4S499.4,240.7,499.4,239.3z"/>
	<path class="st0" d="M489.3,241.8c0,0-3.2-2.5-3.8-2.6c-0.6-0.2,1.9,3.9,1.7,4.4S489.3,243.1,489.3,241.8z"/>
	<path class="st0" d="M481.9,243c0,0-2.9-3.9-3.5-4.3c-0.6-0.4,0.9,5.1,0.5,5.6C478.6,244.9,481.5,244.6,481.9,243z"/>
	<path class="st0" d="M475.1,243.7c0,0-2.9-3.9-3.5-4.3c-0.6-0.4,0.9,5.1,0.5,5.6C471.8,245.5,474.7,245.3,475.1,243.7z"/>
	<path class="st0" d="M464.5,243.5c0,0-2.9-3.9-3.5-4.3c-0.6-0.4,0.9,5.1,0.5,5.6C461.2,245.3,464.1,245.1,464.5,243.5z"/>
	<path class="st0" d="M470,243.6c0,0-2.9-3.9-3.5-4.3c-0.6-0.4,0.9,5.1,0.5,5.6C466.7,245.4,469.6,245.1,470,243.6z"/>
	<path class="st0" d="M457.7,243.1c0,0-2.9-3.9-3.5-4.3c-0.6-0.4,0.9,5.1,0.5,5.6C454.4,244.9,457.3,244.6,457.7,243.1z"/>
	<path class="st1" d="M587.6,239.7c0,0-1.5-15.4-12.9-15.4c-11.3,0-24.7-4.6-82.3,15.4c-26.8,0-37,7.7-95.7-11.3
		s-143.5,9.3-143.5,9.3s-26.8,7.2-36.5,7.2c-9.8,0-80.8-1.5-93.6,4.1c-12.9,5.7-47.8,10.8-47.8,10.8s-23.7,4.6-27.8,3.1
		c-4.1-1.5-34.5-4.5-35.5,0.3c8.7,2.3,65.9,6.9,65.9,6.9s102.4-5.1,123.5,0s72.5,16,79.2,30.9c6.7,14.9,137.4,36.9,164.6-2.4
		c10.3-17.1,6.2-15.6,6.2-15.6s96.2-42.7,101.9-42.7c5.7,0,26.2,4.1,30.9,6.2s-3.3-5.4-3.3-5.4S589.6,243.8,587.6,239.7z"/>
	<path class="st2" d="M574.7,224.2c0,0-27.3-3.4-16.2,16c13.9,3.7,25.5,6.1,25.5,6.1s5.1,1.3-3.3-5.4c5.8,0.9,7.6,2.3,6.9-1.3
		C586.9,236.1,584.6,223.2,574.7,224.2z"/>
	<circle class="st3" cx="576.8" cy="233" r="2.6"/>
	<polygon class="st4" points="307.2,240 310.3,235.6 315.7,235.3 319.4,239.3 318.5,244.6 313.7,247.3 308.7,245.2 	"/>
	<polygon class="st4" points="323.3,231.4 325.8,228.7 329.5,228.9 331.7,231.9 330.6,235.5 327.2,236.9 323.9,235.1 	"/>
	<polygon class="st4" points="287.8,241 289.3,238 292.6,237.2 295.3,239.3 295.3,242.8 292.6,244.9 289.3,244.1 	"/>
	<polygon class="st4" points="267.4,242.2 269.8,240.3 272.9,241 274.3,243.8 272.9,246.6 269.9,247.3 267.4,245.4 	"/>
	<polygon class="st4" points="257.6,244.9 259.2,243.8 261,244.4 261.7,246.2 260.7,247.8 258.8,248.1 257.5,246.8 	"/>
	<polygon class="st4" points="245.1,250.3 245.9,248.7 247.6,248.3 249,249.4 249,251.2 247.6,252.3 245.9,251.9 	"/>
	<polygon class="st4" points="255.1,252.3 256.1,250.2 258.4,249.6 260.3,251.1 260.3,253.5 258.4,255 256.1,254.4 	"/>
	<polygon class="st4" points="271.7,248.9 274.6,245.6 279.1,245.8 281.7,249.4 280.6,253.7 276.4,255.4 272.5,253.3 	"/>
	<polygon class="st4" points="287.8,248.3 291.2,245.3 295.6,246.1 297.8,250 296.1,254.2 291.7,255.4 288.1,252.8 	"/>
	<polygon class="st4" points="297.4,261.4 299.2,259 302.3,258.9 304.2,261.3 303.6,264.2 300.9,265.6 298.2,264.4 	"/>
	<polygon class="st4" points="304.1,252.3 307.2,251.3 309.9,253.1 310.2,256.3 307.8,258.5 304.6,258.1 303,255.3 	"/>
	<polygon class="st4" points="314.4,250.3 319,250.2 321.9,253.7 321,258.2 316.9,260.2 312.8,258.4 311.6,253.9 	"/>
	<polygon class="st4" points="299.5,243.8 301.4,241.9 304.1,242.3 305.5,244.6 304.5,247.1 302,248 299.7,246.5 	"/>
	<polygon class="st4" points="322.8,244.9 327.2,242.5 331.8,244.5 333.1,249.4 330.1,253.4 325.1,253.6 321.9,249.8 	"/>
	<polygon class="st4" points="333.1,241 335.1,240.2 337.1,241.3 337.4,243.5 335.9,245.1 333.7,245 332.5,243.2 	"/>
	<polygon class="st4" points="329.5,237.2 330.7,236.8 331.8,237.5 331.9,238.8 331,239.7 329.7,239.5 329,238.4 	"/>
	<polygon class="st4" points="339.8,235.6 342.8,234.8 345.2,236.7 345.2,239.8 342.8,241.7 339.8,241.1 338.5,238.3 	"/>
	<polygon class="st4" points="333.8,257.7 334.9,257.1 336.1,257.6 336.4,258.8 335.7,259.8 334.4,259.9 333.5,258.9 	"/>
	<polygon class="st4" points="346.3,254.2 347.2,253.9 348.1,254.3 348.2,255.3 347.6,256 346.6,256 346,255.2 	"/>
	<polygon class="st4" points="353.5,239.2 356.9,239.3 358.9,242 358,245.3 354.9,246.7 351.9,245.1 351.3,241.7 	"/>
	<polygon class="st4" points="346.5,248.3 347,247.1 348.3,246.8 349.4,247.6 349.4,249 348.3,249.8 347,249.5 	"/>
	<polygon class="st4" points="339.9,248.3 340.7,246.7 342.5,246.3 343.9,247.4 343.9,249.2 342.5,250.3 340.7,249.9 	"/>
	<polygon class="st4" points="372.4,240 373.8,239.1 375.5,239.6 376.1,241.2 375.2,242.7 373.4,242.9 372.2,241.7 	"/>
	<polygon class="st4" points="393.8,230.7 395.4,229.9 397.1,230.5 397.6,232.3 396.5,233.8 394.7,233.9 393.5,232.5 	"/>
	<polygon class="st4" points="385.9,255 386.2,254.4 386.7,254.3 387.2,254.7 387.2,255.3 386.7,255.7 386.2,255.5 	"/>
	<polygon class="st4" points="226.4,252.3 227.2,250.7 228.9,250.3 230.3,251.4 230.3,253.2 228.9,254.3 227.2,253.9 	"/>
	<polygon class="st4" points="213,252.3 213.8,250.7 215.6,250.3 217,251.4 217,253.2 215.6,254.3 213.8,253.9 	"/>
	<polygon class="st4" points="366.9,258.5 367.8,256.5 370,256 371.8,257.4 371.8,259.6 370,261 367.8,260.5 	"/>
	<polygon class="st4" points="355,265.9 356.8,263.3 359.9,263 362.1,265.3 361.7,268.4 358.9,270 356,268.9 	"/>
	<polygon class="st4" points="340.9,266.4 341.3,265.5 342.2,265.3 343,265.9 343,266.9 342.2,267.5 341.3,267.3 	"/>
	<polygon class="st4" points="318.8,269 320.4,268.1 322.2,268.8 322.8,270.7 321.6,272.2 319.7,272.3 318.4,270.9 	"/>
	<polygon class="st4" points="380.5,261 381.3,259.4 383,259 384.4,260.1 384.4,261.9 383,263 381.3,262.6 	"/>
	<polygon class="st4" points="396.7,252.3 398.9,251.9 400.6,253.2 400.5,255.4 398.8,256.8 396.6,256.3 395.7,254.3 	"/>
	<polygon class="st4" points="385.9,244.9 387,244.8 387.8,245.6 387.7,246.7 386.7,247.3 385.6,246.9 385.3,245.8 	"/>
	<polygon class="st4" points="359.9,253 361.3,252.7 362.4,253.6 362.4,255 361.3,255.9 359.9,255.6 359.3,254.3 	"/>
	<polygon class="st4" points="349.4,230.4 351.6,229 354,229.8 354.9,232.2 353.6,234.4 351,234.8 349.2,233 	"/>
	<polygon class="st4" points="322.4,239.7 322.6,239.3 323,239.2 323.3,239.4 323.3,239.9 323,240.2 322.6,240.1 	"/>
	<path class="st1" d="M309.4,298c0,0-14,44.1-13.2,49c0.8,4.9-9.9,8.9-9.1,19.8c4,7.2,13.5,11.5,13.5,11.5s3-12.5,0.1-14.5
		c-2.8-2,38.6-47.6,36.2-52.7C334.6,306.1,312.1,295.1,309.4,298z"/>
	<path class="st1" d="M405.2,297.5c0,0-17.4,41.2-12.4,67.6c-3.1,6.5-3.1,6.5-3.1,6.5l16.8,8l-4-12.9c0,0,9.7-31.4,7.1-33.8
		s21.2-21.4,20.5-29.5C429.4,295.5,402.5,285.8,405.2,297.5z"/>
	<path class="st0" d="M294.4,375.5c0,0,7.3-11.9,3.7,2.1C296.2,376.7,294.4,375.5,294.4,375.5z"/>
	<path class="st0" d="M298.1,377.6c1.4-4.4,1-5.2,3.3-5.1c2.3,0.2-0.5,6.3-0.5,6.3L298.1,377.6z"/>
	<path class="st0" d="M399.7,376.6c0,0,5.1-10.7,6.7,3.1C404.4,379,399.7,376.6,399.7,376.6z"/>
	<path class="st2" d="M280.4,300.9c0,0,141.1-19.8,157.7,4.7c-12.3,6.9-50.8,18.9-80.6,14.5C327.8,315.8,293.5,311.7,280.4,300.9z"
		/>
	<path class="st1" d="M410,303.6c0,0,7,43.3,24,66.5c0,7.7,0,7.7,0,7.7h19.8l-9.8-10.5c0,0-5.1-34.7-8.7-35.8s10.5-30.3,6.2-37.8
		C437.1,286.2,398.2,286.7,410,303.6z"/>
	<path class="st1" d="M313.4,291.9c-6.1,1.1-14.3,1.5-7.1,13.2c8.8,14.6,20.5,46.7,23.3,49.8c3.9,4.2-3.1,15.6,4.6,25.6
		c8.2,4.2,19.6,1.7,19.6,1.7s-5.4-14.2-9.3-14.2c-3.9,0,3.9-73.1-1.5-76.4C339.5,289.5,324.2,290,313.4,291.9z"/>
	<path class="st0" d="M346.5,382.9c0,0-0.3-14,4.2-0.2C348.6,382.9,346.5,382.9,346.5,382.9z"/>
	<path class="st0" d="M350.7,382.6c-1.2-4.4-2-4.9,0-6c2-1.1,3,5.6,3,5.6L350.7,382.6z"/>
	<path class="st0" d="M447.3,377.9c0,0,0.3-11.9,7.4,0.1"/>
</g>
</svg>
