<?xml version="1.0" encoding="utf-8"?>
<!-- Generator: Adobe Illustrator 23.0.1, SVG Export Plug-In . SVG Version: 6.00 Build 0)  -->
<svg version="1.1" id="Layer_1" xmlns="http://www.w3.org/2000/svg" xmlns:xlink="http://www.w3.org/1999/xlink" x="0px" y="0px"
	 viewBox="0 0 599.8 599.8" style="enable-background:new 0 0 599.8 599.8;" xml:space="preserve">
<style type="text/css">
	.st0{fill:#FFE2B3;}
	.st1{fill:#BCDC9B;}
	.st2{fill:#BAD6A5;}
	.st3{fill:#F8F6BD;}
	.st4{fill:none;}
	.st5{fill:#010101;}
	.st6{fill:#878787;}
	.st7{fill:none;stroke:#010101;stroke-width:2.0284;stroke-miterlimit:10;}
</style>
<g id="A-Ankylosaurus">
	<path class="st0" d="M511.7,252.9l19.5,15.7c2,1.6,1.6,4.7-0.7,5.8l-19.6,9.3c-2.3,1.1-4.9-0.6-4.9-3.1l0.2-25
		C506.1,252.6,509.5,251,511.7,252.9z"/>
	<path class="st0" d="M515.5,326.9l3.1-29l-30.8,11l20.8,20.5C511.1,331.7,515.2,330.3,515.5,326.9z"/>
	<path class="st1" d="M563.9,281.4c-7.7-15.5-64.9-12.6-64.9-12.6c-52.3-98.7-271.1-63.9-298.2-15.5S55.6,305.6,55.6,305.6
		l-35.8,35.8c0,0,111.3-29,152-8.7c143.3,92,255.6,0,255.6,0s45.5-19.4,71.6-10.6c24.4,8.1,70.7,0.2,83.8-4L538,315l0.1-2l47.1,3.3
		l-0.1,1C593.9,313.4,580.3,298.9,563.9,281.4z"/>
	<circle class="st0" cx="47" cy="308.5" r="28.3"/>
	<path class="st1" d="M217.1,356.5c0,0,7.5,31.7,0,36.5s-14.2,15.5-14.2,15.5h74.6L262.9,392h-9.2c-3.5,0-4.8-4.6-1.8-6.4
		c7.2-4.4,14.9-10.2,14.9-14.9"/>
	<path class="st1" d="M263.9,356.6c0,0,5.3,22.4,0,25.8c-5.3,3.4-10.1,10.9-10.1,10.9h52.7l-10.3-11.6h-6.5c-2.5,0-3.4-3.2-1.3-4.5
		c5.1-3.1,10.5-7.2,10.5-10.5"/>
	<path class="st1" d="M368,348.6c0,0,5.3,22.4,0,25.8c-5.3,3.4-10.1,10.9-10.1,10.9h52.7l-10.3-11.6h-6.5c-2.5,0-3.4-3.2-1.3-4.5
		c5.1-3.1,10.5-7.2,10.5-10.5"/>
	<path class="st2" d="M170.1,280.2c0,0,13.9,16.8,32.7,7.2c13.3-6.8,42.5-21.7,68.1-4.5c21.1,14.2,63.6-14.1,88.5,4.6
		c19.5,14.7,49.4-16,73.1,4.5c17.6,15.1,45.4-16.1,66.5-23.1c-27.6-68.2-157.2-63.1-157.2-63.1s-105.5,1-134.7,45.3
		C187.6,268.8,170.1,280.2,170.1,280.2z"/>
	<circle class="st0" cx="40.2" cy="335.2" r="28.3"/>
	<path class="st1" d="M385.4,356.5c0,0-1.5,32.6-6.4,36.5c-4.8,3.9-7.7,10.6-7.7,10.6h64.9c0,0-1-24.9-5.8-21.2
		c-4.8,3.7-21.3,0-21.3,0s31.7-31.6,18.3-49.8"/>
	<path class="st3" d="M197,347.3c0,0,115.9-50.4,239.2-16.5c-53.9,12.6-18.1,29.3-114.9,44.2C255.4,376.2,213.1,356,197,347.3z"/>
	<line class="st4" x1="514.6" y1="289.6" x2="550.4" y2="289.6"/>
	<circle class="st5" cx="532.5" cy="295.2" r="5.6"/>
	<path class="st0" d="M217,267.3h26.3c3.3,0,5.3,3.5,3.7,6.3l-13.1,22.8c-1.6,2.8-5.7,2.8-7.3,0l-13.1-22.8
		C211.7,270.9,213.7,267.3,217,267.3z"/>
	<path class="st0" d="M288.2,262.5h31.3c2.1,0,3.5,2.3,2.4,4.2l-15.6,27.1c-1.1,1.9-3.7,1.9-4.8,0l-15.6-27.1
		C284.7,264.8,286,262.5,288.2,262.5z"/>
	<path class="st0" d="M367.5,259.8h26.9c3.1,0,5.1,3.4,3.5,6.1l-13.4,23.3c-1.6,2.7-5.5,2.7-7,0L364,265.8
		C362.5,263.1,364.4,259.8,367.5,259.8z"/>
	<path class="st0" d="M436.1,267.3h27.2c3,0,4.9,3.3,3.4,5.9l-13.6,23.6c-1.5,2.6-5.3,2.6-6.9,0l-13.6-23.6
		C431.2,270.6,433.1,267.3,436.1,267.3z"/>
	<path class="st0" d="M253,235.8h29.9c2.4,0,4,2.7,2.8,4.8l-14.9,25.9c-1.2,2.1-4.3,2.1-5.5,0l-14.9-25.9
		C249,238.5,250.5,235.8,253,235.8z"/>
	<path class="st0" d="M324.8,229.9h29.6c2.5,0,4.1,2.7,2.8,4.9l-14.8,25.6c-1.3,2.2-4.4,2.2-5.7,0L322,234.8
		C320.7,232.7,322.3,229.9,324.8,229.9z"/>
	<path class="st0" d="M400.7,232.1h28.6c2.7,0,4.4,3,3.1,5.3l-14.3,24.8c-1.4,2.4-4.8,2.4-6.2,0l-14.3-24.8
		C396.3,235.1,398,232.1,400.7,232.1z"/>
	<path class="st0" d="M494.9,330.3l-2.7-24.8c-0.3-2.5,2.2-4.5,4.6-3.6l20.5,7.3c2.4,0.9,3.1,3.9,1.3,5.7l-17.8,17.5
		C498.7,334.4,495.2,333.2,494.9,330.3z"/>
	<path class="st0" d="M207.2,252.1l-2.8-25.8c-0.2-2.3,2-4.1,4.2-3.4l21.2,7.6c2.2,0.8,2.8,3.6,1.2,5.3l-18.5,18.2
		C210.7,255.9,207.4,254.8,207.2,252.1z"/>
	<path class="st0" d="M273.6,218.2l12-20.7c1.4-2.4,4.8-2.5,6.3-0.2l11.7,17.2c1.6,2.3,0.2,5.4-2.5,5.8l-23.7,3.5
		C274.3,224.3,272,220.9,273.6,218.2z"/>
	<path class="st0" d="M340.6,206.9l14.4-14.2c2.5-2.5,6.7-1.5,7.8,1.9l5.7,16.7c1.1,3.3-1.6,6.7-5.1,6.2l-20.1-2.4
		C339.5,214.5,337.8,209.7,340.6,206.9z"/>
	<path class="st0" d="M398.9,214.3l17.5-17.2c1.9-1.9,5-1.1,5.9,1.4l6.9,20.2c0.9,2.5-1.2,5-3.8,4.7l-24.4-3
		C398,220,396.8,216.4,398.9,214.3z"/>
	<path class="st0" d="M447.1,222.9l26.9-4c2.1-0.3,3.8,1.7,3.1,3.7l-7,22.6c-0.6,2-3.1,2.7-4.7,1.2l-19.8-18.6
		C443.9,226.2,444.8,223.2,447.1,222.9z"/>
	<path class="st1" d="M385,363.3c0,0-3.7-52.7,5.3-47.2c9,5.5,36.8-4.4,45.9,14.6c0,0-11,1-5.8,15.7"/>
	<path class="st1" d="M390.3,316.1c33.1-2.6,37.1,16.6,37.1,16.6"/>
	<path class="st1" d="M197,347.3c0,0,17.9-18.7,28.2-18.7c10.3,0,42.8-21.7,42.7,17.9c0,24.3-1.2,24.3-1.2,24.3
		S205.6,363.3,197,347.3z"/>
	<polygon class="st1" points="425.6,328.7 429,336.2 424.7,335.2 	"/>
	<path class="st0" d="M501.8,253.9l19.5,15.7c2,1.6,1.6,4.7-0.7,5.8l-19.6,9.3c-2.3,1.1-4.9-0.6-4.9-3.1l0.2-25
		C496.2,253.7,499.6,252.1,501.8,253.9z"/>
	<g>
		<path class="st0" d="M549.2,315.8l0,0.2c-1,2.8,1.4,8.3,4.5,8l17-2.8c0.2,0,11.3-2.4,12.2-3.1L549.2,315.8z"/>
		<path class="st0" d="M585.2,317.2c-0.8,0,5.4-0.4,1.2-8.8l-3.6-6.1c-1.8-2.4-19.2-21.8-19-20.9l-12,32.3L585.2,317.2z"/>
	</g>
	<path class="st6" d="M564.7,303.4l-1.8-3.8c-0.7-1.5,0.9-3.1,2.4-2.2c4,2.4,8.9,5.4,7.1,5.4c-1.9,0-4,0.8-5.4,1.5
		C566.1,304.6,565.1,304.3,564.7,303.4z"/>
	<path class="st7" d="M542.6,289.6"/>
</g>
</svg>
