<?xml version="1.0" encoding="utf-8"?>
<!-- Generator: Adobe Illustrator 23.0.1, SVG Export Plug-In . SVG Version: 6.00 Build 0)  -->
<svg version="1.1" id="Layer_1" xmlns="http://www.w3.org/2000/svg" xmlns:xlink="http://www.w3.org/1999/xlink" x="0px" y="0px"
	 viewBox="0 0 599.8 599.8" style="enable-background:new 0 0 599.8 599.8;" xml:space="preserve">
<style type="text/css">
	.st0{fill:#FCF7BC;}
	.st1{fill:#F8E38F;}
	.st2{fill:#F7DF79;}
	.st3{fill:#FEECA2;}
	.st4{fill:#010101;}
	.st5{fill:#D2E6B3;}
</style>
<g id="A-Bactosarus">
	<path class="st0" d="M310.1,387.5c0,0,9.7,3.6,12,9.2c0,0-13.1-0.8-13.5,1.7C308.1,400.9,310.1,387.5,310.1,387.5z"/>
	<path class="st0" d="M36.8,211.4c0.7-1.2,2.4-1.3,3.2-0.1l2.4,3.9l2.4,3.9c0.7,1.2-0.1,2.7-1.5,2.8l-4.6,0.1l-4.6,0.1
		c-1.4,0-2.3-1.5-1.6-2.7l2.2-4L36.8,211.4z"/>
	<path class="st0" d="M51.2,205.6c0.7-1.2,2.4-1.3,3.2-0.1l2.4,3.9l2.4,3.9c0.7,1.2-0.1,2.7-1.5,2.8l-4.6,0.1l-4.6,0.1
		c-1.4,0-2.3-1.5-1.6-2.7l2.2-4L51.2,205.6z"/>
	<path class="st0" d="M65.4,197.7c0.7-1.2,2.4-1.3,3.2-0.1l2.4,3.9l2.4,3.9c0.7,1.2-0.1,2.7-1.5,2.8l-4.6,0.1l-4.6,0.1
		c-1.4,0-2.3-1.5-1.6-2.7l2.2-4L65.4,197.7z"/>
	<path class="st0" d="M82,191.8c0.7-1.2,2.4-1.3,3.2-0.1l2.4,3.9l2.4,3.9c0.7,1.2-0.1,2.7-1.5,2.8l-4.6,0.1l-4.6,0.1
		c-1.4,0-2.3-1.5-1.6-2.7l2.2-4L82,191.8z"/>
	<path class="st0" d="M97.9,186c0.7-1.2,2.4-1.3,3.2-0.1l2.4,3.9l2.4,3.9c0.7,1.2-0.1,2.7-1.5,2.8l-4.6,0.1l-4.6,0.1
		c-1.4,0-2.3-1.5-1.6-2.7l2.2-4L97.9,186z"/>
	<path class="st0" d="M112.2,180.2c0.7-1.2,2.4-1.3,3.2-0.1l2.4,3.9l2.4,3.9c0.7,1.2-0.1,2.7-1.5,2.8l-4.6,0.1l-4.6,0.1
		c-1.4,0-2.3-1.5-1.6-2.7l2.2-4L112.2,180.2z"/>
	<path class="st0" d="M125,173.5c0.7-1.2,2.4-1.3,3.2-0.1l2.4,3.9l2.4,3.9c0.7,1.2-0.1,2.7-1.5,2.8l-4.6,0.1l-4.6,0.1
		c-1.4,0-2.3-1.5-1.6-2.7l2.2-4L125,173.5z"/>
	<path class="st0" d="M145.8,164.8c0.7-1.2,2.4-1.3,3.2-0.1l2.4,3.9l2.4,3.9c0.7,1.2-0.1,2.7-1.5,2.8l-4.6,0.1l-4.6,0.1
		c-1.4,0-2.3-1.5-1.6-2.7l2.2-4L145.8,164.8z"/>
	<path class="st0" d="M159.3,159.5c0.7-1.2,2.4-1.3,3.2-0.1l2.4,3.9l2.4,3.9c0.7,1.2-0.1,2.7-1.5,2.8l-4.6,0.1l-4.6,0.1
		c-1.4,0-2.3-1.5-1.6-2.7l2.2-4L159.3,159.5z"/>
	<path class="st0" d="M173.7,155.5c0.7-1.2,2.4-1.3,3.2-0.1l2.4,3.9l2.4,3.9c0.7,1.2-0.1,2.7-1.5,2.8l-4.6,0.1l-4.6,0.1
		c-1.4,0-2.3-1.5-1.6-2.7l2.2-4L173.7,155.5z"/>
	<path class="st0" d="M192,153.5c0.7-1.2,2.5-1.1,3.1,0.1l2.1,4l2.1,4c0.6,1.2-0.3,2.7-1.7,2.7l-4.6-0.2l-4.6-0.2
		c-1.4-0.1-2.2-1.6-1.5-2.8l2.4-3.8L192,153.5z"/>
	<path class="st0" d="M212.6,152.5c1.3-0.5,2.7,0.6,2.4,2l-0.7,4.5l-0.7,4.5c-0.2,1.4-1.9,2-3,1.1l-3.5-2.9l-3.5-2.9
		c-1.1-0.9-0.8-2.6,0.5-3.1l4.3-1.6L212.6,152.5z"/>
	<path class="st0" d="M230.8,154.6c1.3-0.5,2.7,0.6,2.4,2l-0.7,4.5l-0.7,4.5c-0.2,1.4-1.9,2-3,1.1l-3.5-2.9l-3.5-2.9
		c-1.1-0.9-0.8-2.6,0.5-3.1l4.3-1.6L230.8,154.6z"/>
	<path class="st0" d="M248.6,157.1c1.3-0.5,2.7,0.6,2.4,2l-0.7,4.5l-0.7,4.5c-0.2,1.4-1.9,2-3,1.1l-3.5-2.9l-3.5-2.9
		c-1.1-0.9-0.8-2.6,0.5-3.1l4.3-1.6L248.6,157.1z"/>
	<path class="st0" d="M267.1,158.9c1.3-0.5,2.7,0.6,2.4,2l-0.7,4.5l-0.7,4.5c-0.2,1.4-1.9,2-3,1.1l-3.5-2.9l-3.5-2.9
		c-1.1-0.9-0.8-2.6,0.5-3.1l4.3-1.6L267.1,158.9z"/>
	<path class="st0" d="M285.4,163.5c1.3-0.5,2.7,0.6,2.4,2l-0.7,4.5l-0.7,4.5c-0.2,1.4-1.9,2-3,1.1l-3.5-2.9l-3.5-2.9
		c-1.1-0.9-0.8-2.6,0.5-3.1l4.3-1.6L285.4,163.5z"/>
	<path class="st0" d="M303.5,168c1.3-0.5,2.7,0.6,2.4,2l-0.7,4.5l-0.7,4.5c-0.2,1.4-1.9,2-3,1.1l-3.5-2.9l-3.5-2.9
		c-1.1-0.9-0.8-2.6,0.5-3.1l4.3-1.6L303.5,168z"/>
	<path class="st0" d="M322.1,174.2c1.3-0.5,2.7,0.6,2.4,2l-0.7,4.5l-0.7,4.5c-0.2,1.4-1.9,2-3,1.1l-3.5-2.9l-3.5-2.9
		c-1.1-0.9-0.8-2.6,0.5-3.1l4.3-1.6L322.1,174.2z"/>
	<path class="st0" d="M339.6,181.2c1.3-0.5,2.7,0.6,2.4,2l-0.7,4.5l-0.7,4.5c-0.2,1.4-1.9,2-3,1.1l-3.5-2.9l-3.5-2.9
		c-1.1-0.9-0.8-2.6,0.5-3.1l4.3-1.6L339.6,181.2z"/>
	<path class="st0" d="M355.1,187.5c1.3-0.5,2.7,0.6,2.4,2l-0.7,4.5l-0.7,4.5c-0.2,1.4-1.9,2-3,1.1l-3.5-2.9l-3.5-2.9
		c-1.1-0.9-0.8-2.6,0.5-3.1l4.3-1.6L355.1,187.5z"/>
	<path class="st0" d="M367.3,195.9c1.3-0.5,2.7,0.6,2.4,2l-0.7,4.5l-0.7,4.5c-0.2,1.4-1.9,2-3,1.1l-3.5-2.9l-3.5-2.9
		c-1.1-0.9-0.8-2.6,0.5-3.1l4.3-1.6L367.3,195.9z"/>
	<path class="st0" d="M380,202.2c1.3-0.5,2.7,0.6,2.4,2l-0.7,4.5l-0.7,4.5c-0.2,1.4-1.9,2-3,1.1l-3.5-2.9l-3.5-2.9
		c-1.1-0.9-0.8-2.6,0.5-3.1l4.3-1.6L380,202.2z"/>
	<path class="st0" d="M393.4,213.4c1.4,0.2,2.1,1.8,1.2,2.9l-2.8,3.6l-2.8,3.6c-0.8,1.1-2.6,0.9-3.1-0.4l-1.8-4.2l-1.8-4.2
		c-0.5-1.3,0.5-2.7,1.9-2.5l4.5,0.6L393.4,213.4z"/>
	<path class="st0" d="M399.7,225.9c1.4,0.2,2.1,1.8,1.2,2.9l-2.8,3.6l-2.8,3.6c-0.8,1.1-2.6,0.9-3.1-0.4l-1.8-4.2l-1.8-4.2
		c-0.5-1.3,0.5-2.7,1.9-2.5l4.5,0.6L399.7,225.9z"/>
	<path class="st0" d="M400.9,237.3c1.3-0.6,2.7,0.4,2.6,1.8l-0.3,4.6l-0.3,4.6c-0.1,1.4-1.7,2.2-2.8,1.4l-3.8-2.5l-3.8-2.5
		c-1.2-0.8-1-2.5,0.2-3.1l4.1-2L400.9,237.3z"/>
	<path class="st0" d="M410.5,247.5c1.3-0.6,2.7,0.4,2.6,1.8l-0.3,4.6l-0.3,4.6c-0.1,1.4-1.7,2.2-2.8,1.4l-3.8-2.5l-3.8-2.5
		c-1.2-0.8-1-2.5,0.2-3.1l4.1-2L410.5,247.5z"/>
	<path class="st0" d="M416.4,256.4c1.3-0.6,2.7,0.4,2.6,1.8l-0.3,4.6l-0.3,4.6c-0.1,1.4-1.7,2.2-2.8,1.4l-3.8-2.5l-3.8-2.5
		c-1.2-0.8-1-2.5,0.2-3.1l4.1-2L416.4,256.4z"/>
	<path class="st0" d="M425.1,268.2c1.2-0.7,2.7,0.1,2.8,1.5l0.1,4.6l0.1,4.6c0,1.4-1.5,2.3-2.7,1.6l-4-2.2l-4-2.2
		c-1.2-0.7-1.2-2.4,0-3.2l3.9-2.3L425.1,268.2z"/>
	<path class="st0" d="M438,272.8c0.2-1.4,1.8-2.1,2.9-1.3l3.7,2.7l3.7,2.7c1.1,0.8,0.9,2.6-0.4,3.1l-4.2,1.8l-4.2,1.8
		c-1.3,0.6-2.7-0.5-2.5-1.9l0.5-4.5L438,272.8z"/>
	<path class="st0" d="M452,270.2c0.2-1.4,1.8-2.1,2.9-1.3l3.7,2.7l3.7,2.7c1.1,0.8,0.9,2.6-0.4,3.1l-4.2,1.8l-4.2,1.8
		c-1.3,0.6-2.7-0.5-2.5-1.9l0.5-4.5L452,270.2z"/>
	<path class="st0" d="M471.6,264.2c0.2-1.4,1.8-2.1,2.9-1.3l3.7,2.7l3.7,2.7c1.1,0.8,0.9,2.6-0.4,3.1l-4.2,1.8l-4.2,1.8
		c-1.3,0.6-2.7-0.5-2.5-1.9l0.5-4.5L471.6,264.2z"/>
	<path class="st0" d="M486.5,260.1c0.2-1.4,1.8-2.1,2.9-1.3l3.7,2.7l3.7,2.7c1.1,0.8,0.9,2.6-0.4,3.1l-4.2,1.8l-4.2,1.8
		c-1.3,0.6-2.7-0.5-2.5-1.9l0.5-4.5L486.5,260.1z"/>
	<path class="st0" d="M499.1,257.8c0.2-1.4,1.8-2.1,2.9-1.3l3.7,2.7l3.7,2.7c1.1,0.8,0.9,2.6-0.4,3.1l-4.2,1.8l-4.2,1.8
		c-1.3,0.6-2.7-0.5-2.5-1.9l0.5-4.5L499.1,257.8z"/>
	<path class="st1" d="M557.6,288.4c0,0-23.9-26.6-45.8-26.4c-22,0.2-71.1,19.4-78.3,17.1s-30.7-30.5-41.2-57.3
		c-10.5-26.8-161.4-88-245.9-52.4C62,204.9,11.9,226.5,11.9,226.5s84.5-13.4,115.4-8.7c30.9,4.7,82.7,16.3,88.6,30.9
		c5.8,14.6,27.4,44.3,27.4,54.2s80.4,68.2,148.6,44.9c68.2-23.3,53.9-11.1,71.4-23c0,0,44.9-0.6,51,3.5c6.1,4.1,25.1,2.3,25.1,2.3
		s24.5,12.7,29.1,10.5c0.7-0.3,3.2-1,6.3-2.1l-12.1-11.6l15.8,10.1c4.9-2.2,9.7-5.5,9.6-10.1C587.9,327.3,588.6,307,557.6,288.4z"/>
	<path class="st2" d="M565.9,294.6c-2.6-1.8-27.7,1.2-35.5,0c-7.6-19.2-29.1-25.1-29.1-25.1s1.7,26.5,1.4,34.4
		c-0.3,7.9,2,21.8,15.4,26.2c23.9-3.2,42.8,10.5,42.8,10.5s6.2,1.7,13.8-1.1l-12.4-12.3l15.8,10.8c2.8-1.5,5.6-3.6,8.4-6.7
		C593.1,318.1,568.5,296.4,565.9,294.6z"/>
	<ellipse class="st3" cx="576.4" cy="320.3" rx="6.4" ry="3.5"/>
	<circle class="st4" cx="539.1" cy="287.6" r="6.1"/>
	<circle class="st5" cx="382" cy="287.6" r="11.5"/>
	<circle class="st5" cx="433.1" cy="298.2" r="7.2"/>
	<circle class="st5" cx="470.5" cy="287.6" r="6.1"/>
	<circle class="st5" cx="489" cy="292.9" r="1.8"/>
	<circle class="st5" cx="464.3" cy="302.2" r="3.1"/>
	<circle class="st5" cx="447.4" cy="309.9" r="4.5"/>
	<ellipse class="st5" cx="419.5" cy="318.1" rx="6.4" ry="3.7"/>
	<circle class="st5" cx="385.4" cy="313.4" r="8"/>
	<circle class="st5" cx="363.6" cy="300.9" r="8"/>
	<ellipse class="st5" cx="410.5" cy="289.2" rx="9" ry="13"/>
	<circle class="st5" cx="450.9" cy="291.1" r="3.5"/>
	<path class="st5" d="M506.3,262.4c0,0-13.8,21.8-15.5,25.2c-1.8,3.4-14.2-18.1-14.2-18.1S500.5,261.6,506.3,262.4z"/>
	<path class="st5" d="M438.3,281.5c0,0,8.9,22,16.1,17.6c7.2-4.5,2.2-22.9,2.2-22.9L438.3,281.5z"/>
	<path class="st5" d="M383.9,211.8c0,0-27.2,44.4-34.2,44c-7-0.4,3.9-35.4-8.5-39.3s18.1-20.3,18.1-20.3L383.9,211.8z"/>
	<path class="st5" d="M326.6,181.9c0,0-22.2,35.4-19.5,49.8c-7.2,14.4-20.2,10.1-13.2-12.8c7-22.9,19.3-41.9,26-39.4
		C326.6,181.9,326.6,181.9,326.6,181.9z"/>
	<path class="st5" d="M280.8,167.9c0,0-29.6,20.3-29.6,31.6c0,11.3,7,37.7,7,37.7l26.4-37.3l8.7-28.7L280.8,167.9z"/>
	<path class="st5" d="M228.3,159.4c0,0-26.3,37.3-23.6,51.6c-7.2,14.4-20.2,10.1-13.2-12.8c7-22.9,18.8-39.1,26-39.4
		C222.8,158.6,228.3,159.4,228.3,159.4z"/>
	<path class="st1" d="M374.9,337.4c0,0,29.1,34.2,30.2,45c1.2,10.9,14.3,62.9,14.3,62.9s-5,2.3-7.6,0c-2.6-2.3-5.6-12.8-5.6-12.8
		l0.9,13.8c0,0-8.2,2.2-8.2,0c0-2.2-4-22-1.8-28.6c2.2-6.6-15.5-24.5-15.1-40.8c0.4-16.3-38.5-25-21.2-35.8
		C378.2,330.4,374.9,337.4,374.9,337.4z"/>
	<path class="st1" d="M383.8,317.6c0,0,29.4,27.1,31.5,36.5c2.1,9.4,19,53.8,19,53.8s-4.2,2.5-6.8,0.8c-2.5-1.8-6.3-10.7-6.3-10.7
		l2.1,12.1c0,0-7.1,2.8-7.3,0.8c-0.2-1.9-5.7-18.9-4.4-25c1.3-6-16.3-19.9-17.5-34.3c-1.2-14.4-36.9-18.1-22.5-29.3
		C386,311.1,383.8,317.6,383.8,317.6z"/>
	<path class="st1" d="M251.1,298.2c0,0-12.8,32.2,0,68.7c-2.9,24.4-4.3,30.3,0,39.6c4.3,9.3-5.7,31.1-5.7,31.1s11.4-7.8,18.1-3.1
		c6.6,4.7,18.2,6.2,18.2,6.2l-6.1-12.4l17.6,3.1l-17.6-19.7c0,0,1.6-28.4,0-38.5c-1.6-10.1,19.2-43.5,18.1-49.3
		C292.7,317.9,260,287,251.1,298.2z"/>
	<path class="st1" d="M288.2,289.8c0,0-11.3,28.4,0,60.6c-2.5,21.5-3.8,26.7,0,34.9c3.8,8.2,4.1,18.8,4.1,18.8s1,1.7,6.9,5.9
		s16.1,5.5,16.1,5.5l-5.4-11l15.5,2.7l-15.5-17.4c0,0,1.4-25.1,0-34c-1.4-8.9,16.9-38.4,16-43.5
		C324.9,307.2,296.1,279.9,288.2,289.8z"/>
	<path class="st0" d="M248.8,425.9c0,0-5.2,8.9-3.4,14.8c0,0,9.5-9,11.5-7.4C258.8,434.9,248.8,425.9,248.8,425.9z"/>
	<path class="st0" d="M276.6,430.1c0,0,10.1,10.4,10.1,12.5c-3.3,0-17.9-5.4-17.9-5.4S273.5,428.6,276.6,430.1z"/>
	<path class="st0" d="M285.5,421.7c0,0,10.1,10.4,10.1,12.5c-3.3,0-17.9-5.4-17.9-5.4S282.4,420.3,285.5,421.7z"/>
	<path class="st0" d="M320.7,397.9c0,0,10.1,10.4,10.1,12.5c-3.3,0-17.9-5.4-17.9-5.4S317.6,396.5,320.7,397.9z"/>
	<path class="st0" d="M310.9,406.3c0,0,7.7,12.3,7.2,14.4c-3.3-0.7-16.4-9-16.4-9S308.1,404.3,310.9,406.3z"/>
	<path class="st0" d="M398.2,445.2c0.1-1.6,0.3-7.3,0.9-11.3c0.2-1.7,2.6-2.1,3.4-0.6c1.9,3.4,4.1,8.3,5.3,11
		c0.5,1.1-0.2,2.3-1.3,2.5c-2.7,0.5-6.9,1-8.1-0.8C398.2,445.9,398.2,445.5,398.2,445.2z"/>
	<path class="st0" d="M410.6,444.4c0.1-1.6,0.3-7.3,0.9-11.3c0.2-1.7,2.6-2.1,3.4-0.6c1.9,3.4,4.1,8.3,5.3,11
		c0.5,1.1-0.2,2.3-1.3,2.5c-2.7,0.5-6.9,1-8.1-0.8C410.6,445.1,410.5,444.7,410.6,444.4z"/>
	<path class="st0" d="M414.6,409.5c0.1-1.6,0.3-7.3,0.9-11.3c0.2-1.7,2.6-2.1,3.4-0.6c1.9,3.4,4.1,8.3,5.3,11
		c0.5,1.1-0.2,2.3-1.3,2.5c-2.7,0.5-6.9,1-8.1-0.8C414.6,410.1,414.6,409.8,414.6,409.5z"/>
	<path class="st0" d="M425.5,407.8c0.1-1.5,0.4-6.8,1-10.5c0.2-1.6,2.4-2,3.2-0.6c1.7,3.2,3.7,7.7,4.8,10.2c0.4,1-0.2,2.2-1.3,2.4
		c-2.5,0.5-6.5,1-7.5-0.6C425.5,408.4,425.5,408.1,425.5,407.8z"/>
</g>
</svg>
