<?xml version="1.0" encoding="utf-8"?>
<!-- Generator: Adobe Illustrator 23.0.1, SVG Export Plug-In . SVG Version: 6.00 Build 0)  -->
<svg version="1.1" id="Layer_1" xmlns="http://www.w3.org/2000/svg" xmlns:xlink="http://www.w3.org/1999/xlink" x="0px" y="0px"
	 viewBox="0 0 599.8 599.8" style="enable-background:new 0 0 599.8 599.8;" xml:space="preserve">
<style type="text/css">
	.st0{fill:#F9F1A7;}
	.st1{fill:#010101;}
	.st2{fill:#F6AECD;}
	.st3{fill:#FFF8D1;}
</style>
<g id="A-Brachio">
	<path class="st0" d="M496.7,53.4c0,0-2.9-18,0-19.9c2.9-1.9-2.9-34.1-30.3-16.1c-16.1-9.3-31.3,36-31.3,36s-28.6,136-29.1,171.8
		s-52.7,56.1-52.7,56.1l-69.9,32.9c0,0-64.5,57.3-72.5,99.5c-8,42.1-108.7,95.7-108.7,95.7s135.7-13.9,145.8-17.7
		s132.7-8.9,171.5-63.2c31.2-43.4,10.9-65.3,10.9-65.3s8-48.5,2.5-54.4c0,0,6.3-40.9,9.7-42.1c3.4-1.3,7.2-89.8,4.6-96.5
		c-2.5-6.7,13.4-95.6,14.7-105.4c0.9-6.7,9.7-17.6,9.7-17.6s13,17.2,16.4,15.1C491.5,60,500.2,59.8,496.7,53.4z"/>
	<path class="st0" d="M360.2,445.8c0,0,12.3,86.1,19.9,96.4c7.6,10.2-5.7,41,0,43.1c5.7,2.1,50.7,8.2,37.7-10.3
		c-13-18.5-16.8-88.2-15.9-100.5c0.9-12.3,20.8-88.2-1.9-89.2C377.3,384.2,340.3,405.8,360.2,445.8z"/>
	<path class="st0" d="M240,456.5c0,0,12.3,79.6,19.9,89.1c7.6,9.5-5.7,37.9,0,39.8c5.7,1.9,50.7,7.6,37.7-9.5
		c-13-17.1-16.8-81.5-15.9-92.9c0.9-11.4,20.8-81.6-1.9-82.5C257.1,399.6,220.1,419.5,240,456.5z"/>
	<path class="st0" d="M392.5,420.2c0,0,11.1,74.9,17.9,83.8c6.8,8.9-5.1,35.7,0,37.4c5.1,1.8,45.6,7.1,33.9-8.9
		c-11.7-16-15.1-76.6-14.3-87.3c0.9-10.7,18.8-76.6-1.7-77.5C407.8,366.7,374.5,385.4,392.5,420.2z"/>
	<path class="st0" d="M272.5,425.5c0,0,11.6,74.6,18.7,83.5c7.1,8.9-5.3,35.5,0,37.3c5.3,1.8,47.5,7.1,35.3-8.9
		c-12.2-16-15.7-76.4-14.9-87c0.9-10.7,19.5-76.4-1.8-77.2S253.8,390.9,272.5,425.5z"/>
	<circle class="st1" cx="484.7" cy="31.2" r="3.5"/>
	<path class="st2" d="M322.2,295.9c0,0-4.6,47.6,11.5,59c-5.1-19.9,19.7-73.7,19.7-73.7L322.2,295.9z"/>
	<path class="st2" d="M297.8,307.4c0,0-7.3,63,11.9,65.7c-30.1-5.5-40.4-45.5-40.4-45.5S288.4,311.8,297.8,307.4z"/>
	<path class="st2" d="M250.4,347.8c0,0-26.8,19.8-25.3,33.4c1.4,13.6,32.7,36.3,32.7,36.3L250.4,347.8z"/>
	<path class="st3" d="M402.4,586.8c0,0,0.1-17.6,10.5-9.1C423.3,586.1,411.3,589.9,402.4,586.8z"/>
	<path class="st3" d="M409.6,582.9c0,0,0.1-17.6,10.5-9.1C430.5,582.3,418.5,586.1,409.6,582.9z"/>
	<path class="st3" d="M428.6,542.6c0,0,0.1-17.6,10.5-9.1C449.5,541.9,437.5,545.7,428.6,542.6z"/>
	<path class="st3" d="M435.8,538.8c0,0,0.1-17.6,10.5-9.1C456.7,538.1,444.7,541.9,435.8,538.8z"/>
	<path class="st3" d="M310.8,550.7c0,0,0.1-17.6,10.5-9.1C331.6,550.1,319.6,553.9,310.8,550.7z"/>
	<path class="st3" d="M317.9,546.9c0,0,0.1-17.6,10.5-9.1S326.8,550.1,317.9,546.9z"/>
	<path class="st3" d="M282.5,527.6c0,0,0.1-17.6,10.5-9.1S291.3,530.7,282.5,527.6z"/>
	<path class="st3" d="M289.6,584.9c0,0,0.1-17.6,10.5-9.1C310.5,584.2,298.5,588,289.6,584.9z"/>
</g>
</svg>
