<?xml version="1.0" encoding="utf-8"?>
<!-- Generator: Adobe Illustrator 23.0.1, SVG Export Plug-In . SVG Version: 6.00 Build 0)  -->
<svg version="1.1" id="Layer_1" xmlns="http://www.w3.org/2000/svg" xmlns:xlink="http://www.w3.org/1999/xlink" x="0px" y="0px"
	 viewBox="0 0 600 600" style="enable-background:new 0 0 600 600;" xml:space="preserve">
<style type="text/css">
	.st0{fill:#F9EECA;}
	.st1{fill:#FCFACD;}
	.st2{fill:#DEB9FC;}
</style>
<title>aSpinosaurus</title>
<g id="A-CAmpto">
	<path class="st0" d="M489.7,245.4c0,0,21.2-5.5,26.7-3.3c-7.4,3.3-19.7,15.8-19.7,15.8S484.8,250.9,489.7,245.4z"/>
	<path class="st1" d="M394.9,236.3c0,0-1.8,24.8,12.5,30.2c41,15.5,86.2,7.6,90.7,6.9s17.5-29.8-22.5-27.5c0,0-42.1,7.2-46.9,1.7
		c-4.8-5.5,3.7-42.3,3.7-42.3S389,204.3,394.9,236.3z"/>
	<path class="st0" d="M491.4,260.7c0,0,14.9,14.1,17.4,19.3c-7.8-2.6-27.3-5.8-27.3-5.8S483.8,261.5,491.4,260.7z"/>
	<path class="st0" d="M496.6,251.9c0,0,19.8,3.3,24.2,6.9c-8.1,0.9-19.5,10.8-19.5,10.8S490.1,255.7,496.6,251.9z"/>
	<path class="st0" d="M316.2,508.4c0,0,24.2,13.4,27,20.3c-9.7-3.4-32.6-2.1-32.6-2.1S306.6,509.5,316.2,508.4z"/>
	<path class="st1" d="M549.4,125.6l12.1,5.5c8.5-15.8,17-53.6-61.3-93.1c-38.7-18.4-56,50.4-56,50.4s-11.2,51.4-46.9,50.4
		c-35.7-1-132.4-9.2-206.8,85.6c-30.6,44.8-44.8,86.6-44.8,86.6s-31.6,34.8-64.2-14.2c0-36.7-30.6-55.1-48.9-54.1
		c10.2,16.3,20.4,4.1,18.3,69.3c-2,65.2,123.3,92.7,123.3,92.7s61.1-32.6,79.5-32.6c18.3,0,128.4-47.9,139.6-89.6
		c20.4-6.1,91.7-23.4,89.6-97.8c7.1-29.5,16.3-25.5,16.3-25.5s10.2-25.5,20.4-24.4c10.2,1,25.5,7.1,36.7,4.1c0,0,1.4-1.4,3.1-4.1
		L549.4,125.6z"/>
	<path class="st0" d="M374.8,461.6c0,0,24.2,13.3,27.1,20.3c-9.7-3.4-32.6-2-32.6-2S365.1,462.7,374.8,461.6z"/>
	<path class="st2" d="M566.8,112.6l-37.1-22.7c0,0-22.4,11.2-37.7-19.4c-15.3-30.6-11.2,31.6-11.2,31.6s-31.5-10.2-0.5,34.6
		c-25-10.2-45.2-13.2-13.7,21.4c-39.8-19.4-35.7-6.1-30.7,14.3c-14.3-17.3-5.1,25.5-24.4,21.4c-19.4-4.1-40.7-45.8-45.8-20.4
		c-5.1,25.5-16.3,74.4-21.4,73.3c-5.1-1-41.4-26.5-41.6,8.1c-0.2,34.6-40.9-47.9-47.1,0s-23.4,23.4-23.4,23.4s-34.6,4.2-34.6,18.4
		c0,14.2-15.3-24.4-21.4,0c-6.1,24.4-11.2,51.9-11.2,51.9s-25.5-3.1-27.5,20.4c-2,23.4-32.6-24.4-32.6-24.4s-14.3,10.2-14.3,15.3
		c0,5.1,10.2-20.4,0-20.4s-29.5-11.2-29.5-36.7s4.6-56.3-28.5-60.1c31.2,2.3,44.7,21.5,46.7,37.8c2,16.3,36.1,64,67.4,29.4
		c9.2-39.7,67.2-123.6,85.6-130.7s55-37.4,90.7-41.4c35.7-4.1,85.6-1,85.6-1s20.4,10.6,44.8-74.7c28-56,73.3-8.9,73.3-8.9
		S573.2,82,566.8,112.6z"/>
	<circle cx="511.4" cy="73.4" r="7.4"/>
	<path class="st1" d="M239.9,349.7c0,0,7.6,59.6,0,110c19.9,30.6,18.3,87.1,18.3,87.1l33.6,9.2l32.1-7.6c0,0,18.3-27.5,0-35.1
		c-18.3-7.6-33.2-44.3-21.2-73.3c12-29,30.4-109.5,16.6-112.8C305.6,323.7,226.1,327.3,239.9,349.7z"/>
	<path class="st0" d="M490.3,279.2c0,0,21.2-5.5,26.7-3.3c-7.4,3.3-19.7,15.8-19.7,15.8S485.4,284.8,490.3,279.2z"/>
	<path class="st1" d="M287.1,329.5c0,0,12.6,52.3,10.7,97.9c20.6,25.3,24.8,75.7,24.8,75.7l30.8,4.9l27.8-9.9
		c0,0,13.6-26.2-3.4-31.3c-17.1-5-33.9-36.2-26-63.2c7.9-27,16.4-100.3,3.8-102C343,300,272.7,310.9,287.1,329.5z"/>
	<path class="st1" d="M386.3,285.5c0,0,2.1,27.1,18.6,30.6c46.9,9.9,94.4-6.1,99.1-7.6c4.8-1.5,13.9-35.1-28.9-26
		c0,0-44.3,14.8-50.4,9.7c-6.1-5.2-3.1-46.4-3.1-46.4S374.6,251.9,386.3,285.5z"/>
	<path class="st0" d="M279.8,534.4c0,0,11.2,23.4,11.7,30.9c-8.2-6.3-30.2-18.1-30.2-18.1S270.3,532.4,279.8,534.4z"/>
	<path class="st0" d="M322.4,528.7c0,0,14.6,20.5,15.1,28c-8.2-6.3-27.7-6.7-27.7-6.7S312.9,526.7,322.4,528.7z"/>
	<path class="st0" d="M338.4,487.7c0,0,11.3,23.4,11.8,30.9c-8.2-6.3-30.3-18-30.3-18S328.9,485.7,338.4,487.7z"/>
	<path class="st0" d="M381,481.9c0,0,14.7,20.5,15.2,28c-8.2-6.3-27.7-6.7-27.7-6.7S371.5,479.9,381,481.9z"/>
	<path class="st0" d="M495.8,298.6c0,0,14.9,14.1,17.4,19.3c-7.8-2.6-27.3-5.8-27.3-5.8S488.3,299.4,495.8,298.6z"/>
	<path class="st0" d="M497.2,282.9c0,0,19.8,3.3,24.2,6.9c-8.1,0.9-19.5,10.8-19.5,10.8S490.7,286.7,497.2,282.9z"/>
</g>
</svg>
