<?xml version="1.0" encoding="utf-8"?>
<!-- Generator: Adobe Illustrator 23.0.1, SVG Export Plug-In . SVG Version: 6.00 Build 0)  -->
<svg version="1.1" id="Layer_1" xmlns="http://www.w3.org/2000/svg" xmlns:xlink="http://www.w3.org/1999/xlink" x="0px" y="0px"
	 viewBox="0 0 599.8 599.8" style="enable-background:new 0 0 599.8 599.8;" xml:space="preserve">
<style type="text/css">
	.st0{fill:#FFE2B3;}
	.st1{fill:#F16C93;}
	.st2{fill:#090909;}
	.st3{fill:#F7B4CD;}
	.st4{fill:#FBBE6A;}
	.st5{fill:#F8E1C2;}
</style>
<g id="A-Crono">
	<path class="st0" d="M472,44.9c0,0,20.9,23.1,30.4,16.2c9.5-6.9,25.7-44.9,46.5-34.8C529.4,10.6,477.2,28.8,472,44.9z"/>
	<polygon class="st0" points="561.4,135.7 587.2,110.9 552.8,101 	"/>
	<polygon class="st0" points="547.5,135.5 573.3,110.6 538.9,100.7 	"/>
	<polygon class="st0" points="526.4,126.1 552.2,101.3 517.8,91.4 	"/>
	<polygon class="st0" points="515.6,122.4 541.4,97.6 507,87.7 	"/>
	<polygon class="st0" points="511,108.6 479,124.8 509.1,144.3 	"/>
	<polygon class="st0" points="528.9,122.1 497,138.3 527,157.9 	"/>
	<polygon class="st0" points="546.4,137.2 514.4,153.4 544.5,172.9 	"/>
	<polygon class="st0" points="555.6,143.9 523.7,160.1 553.7,179.6 	"/>
	<path class="st1" d="M579.2,113.5c4.7,2.1,9.8-2.2,8.4-7.1c-11.3-39.9-37.1-66.2-107-90.7C438,0.8,405.3,85.8,402.7,98.5
		c-0.6,2.8-3,4.9-6,4.9c-21,0-102.8,5.4-217.6,82.5c-133.9,89.9-143-55.5-103-95.8c15.8-16,18.3-36.2,15.5-54.9
		C90.5,27.5,79,29,79.6,36.8c0.8,10.1,0.7,18.8-1.3,23.1C71.9,74,13.6,126,12.2,153.3c-1.4,27.2-1.1,102.2,76.7,135.8
		c0.5,0.2,1,0.5,1.4,0.8c42.9,34.6,31.2,94.8,181.9,79c0.9-0.1,1.8-0.4,2.5-0.8c55.2-33.3,110.3-80.6,129.3-83.9
		c19.1-3.3,65.8-82.2,70.8-96.8c5-14.6,22.8-28.2,26.6-25.2c3.9,3,41.3,32.2,47.2,34.2c4.7,1.6,8.1-23.9,9.2-33.8
		c0.3-2.3-0.8-4.6-2.8-5.8l-47.7-30.2c-4.4-2.8-3.5-9.5,1.5-11C526.2,110.5,557.9,103.8,579.2,113.5z"/>
	<circle class="st2" cx="519.5" cy="50.7" r="7.7"/>
	<path class="st1" d="M406.3,188c0,0,56.3,43.3,57.9,66.7s-9.5,34.9-9.5,34.9l-1.5-22l-1.3-9.3l-5.3,28.5l-4.2-35.3
		c0,0-59.8-47.1-48-55.3C406.3,188,406.3,188,406.3,188z"/>
	<path class="st1" d="M376.4,209c0,0,56.3,43.3,57.9,66.7c1.6,23.4-9.5,34.9-9.5,34.9l-1.5-22l-1.3-9.3l-5.3,28.5l-4.2-35.3
		c0,0-59.8-47.1-48-55.3C376.4,209,376.4,209,376.4,209z"/>
	<circle class="st3" cx="564.4" cy="92.4" r="3"/>
	<polygon class="st4" points="378.7,104.4 356,170.7 305.8,184.8 313.6,212.1 283.7,177.3 324.6,160 334.3,112.7 	"/>
	<polygon class="st4" points="265.2,137.5 254,185.6 274.3,204.8 234.5,185.1 248.1,145.6 	"/>
	<polygon class="st4" points="350.7,211.4 358.2,233.5 342.8,234.4 330.9,204.6 	"/>
	<polygon class="st4" points="277.4,217.6 224.7,199.5 236.6,214.8 	"/>
	<polygon class="st4" points="199.2,172.9 192,193.9 179.1,185.9 	"/>
	<path class="st4" d="M127.8,211.4L98,229.1l-34-11.7l26.8-4.8C90.7,212.7,112.6,216.9,127.8,211.4z"/>
	<polygon class="st4" points="199.9,236.1 167.4,243 166.7,222.2 194.3,213 	"/>
	<polygon class="st4" points="139.1,243.2 146.6,265.3 131.2,266.2 119.3,236.4 	"/>
	<polygon class="st4" points="49.2,150.4 56.7,172.6 41.3,173.4 29.4,143.6 	"/>
	<polygon class="st4" points="405.5,140.1 399.4,179.5 377.2,175.9 383,122.3 	"/>
	<path class="st1" d="M213.6,306.8c0,0,63.5,53.3,52.6,96.3c-10.8,43-88.2,103.4-88.2,103.4l28.5,49.5c0,0,25.1,7.7,33.1,20.1
		c-18.4-6.2-50.6-7.7-50.6-7.7l32.2,16c0,0-37.5-4.5-57.6-4.5c0-27.9-35.2-65.8-17.3-85.9c29.5-33.1,25.5-102.2,25.5-102.2
		s-38.7-32.5-25.5-57.3C159.5,309.9,213.6,306.8,213.6,306.8z"/>
	<path class="st1" d="M276.9,326.5c0,0,57.5,28.7,57.1,63.1s-47.8,94-47.8,94l30.5,32.2c0,0,20.3,1.3,28.6,9.2
		c-15-1.3-39.6,3.3-39.6,3.3l27.2,6.3c0,0-29.8,3.7-45,7.3c-5-21-37.8-43.4-27.9-61.9c16.2-30.3,0.7-81.7,0.7-81.7
		s-35.1-17.5-29.7-38.6C236.6,338.7,276.9,326.5,276.9,326.5z"/>
	<path class="st5" d="M213.6,558.6l-3.1,11.7l33.6,6.7C244.1,577,227,560.7,213.6,558.6z"/>
	<path class="st5" d="M225.1,588.8c0,0-12.6-15.5-26-17.5l-3.1,11.7"/>
	<path class="st5" d="M316.6,515.4l-1.2,12.8l34.5-0.6C349.9,527.7,332.4,514.5,316.6,515.4z"/>
	<path class="st5" d="M305.3,526.6l-1.2,12.8l34.5-0.6C338.6,538.8,321.1,525.7,305.3,526.6z"/>
	<path class="st5" d="M464.1,257.2l-12.9,0l3.7,34.3C454.9,291.5,466.4,272.9,464.1,257.2z"/>
	<path class="st5" d="M453.2,253.5l-10.8-2.1l4.2,35.3C446.6,286.7,455.5,269.1,453.2,253.5z"/>
	<path class="st5" d="M434.6,281.7l-12.9,0l3.7,34.3C425.5,316,437,297.3,434.6,281.7z"/>
	<path class="st5" d="M422,278.3l-10.8-2.1l4.2,35.3C415.4,311.5,424.3,293.9,422,278.3z"/>
	<path class="st0" d="M454.2,35.6c0,0,20.9,23.1,30.4,16.2c9.5-6.9,25.7-44.9,46.5-34.8C511.6,1.3,459.4,19.5,454.2,35.6z"/>
</g>
</svg>
