<?xml version="1.0" encoding="utf-8"?>
<!-- Generator: Adobe Illustrator 23.0.1, SVG Export Plug-In . SVG Version: 6.00 Build 0)  -->
<svg version="1.1" id="Layer_1" xmlns="http://www.w3.org/2000/svg" xmlns:xlink="http://www.w3.org/1999/xlink" x="0px" y="0px"
	 viewBox="0 0 599.8 599.8" style="enable-background:new 0 0 599.8 599.8;" xml:space="preserve">
<style type="text/css">
	.st0{fill:#FDF7BB;}
	.st1{fill:#CEB9DA;}
	.st2{fill:#010101;}
	.st3{fill:#DFEED0;}
	.st4{fill:#D9E9B6;}
	.st5{fill:#9377B6;}
</style>
<g id="A-Guiabasaurus">
	<path class="st0" d="M407,422.9c0,0,14.8,2.8,18,7.2c-5.5,0-10.3-1.7-21.3-0.7C402.7,424.3,404.3,422.3,407,422.9z"/>
	<path class="st0" d="M372.5,441.3c0,0,14.3,4.6,17,9.4c-5.4-0.7-10-2.9-21.1-3.3C368.1,442.2,370,440.4,372.5,441.3z"/>
	<path class="st0" d="M525.3,330.7c0,0,11.7,10.5,11.4,16.1c-2.9-2.9-12.1-14.5-12.8-13.1C523.1,335.2,521.1,329.2,525.3,330.7z"/>
	<path class="st0" d="M530,326.1c0,0,11.7,10.5,11.4,16.1c-2.9-2.9-12.1-14.5-12.8-13.1C527.8,330.6,525.8,324.6,530,326.1z"/>
	<path class="st0" d="M544.7,299c0,0,15.7-1,19.5,3.2c-4.1,0-18.8-1.6-18.3,0C546.4,303.7,540.7,300.9,544.7,299z"/>
	<path class="st0" d="M544.7,292.4c0,0,15.7-1,19.5,3.2c-4.1,0-18.8-1.6-18.3,0C546.4,297.1,540.7,294.4,544.7,292.4z"/>
	<path class="st1" d="M587.8,163.6c0,0-5.5-14.3-20.6-13.1c-3.5-5.3-9.8,1.5-12.8-0.1c-5.3-2.7-18.1-5.8-21.6,0.7
		c-3.5,6.4-26.3,30.3-24.5,60.1c-0.1,12.3-16.9,17.5-31.5,17.5c-14.6,0-92.7,0-144.6,32.7s-146.4,65.9-166.2,63.6
		c-19.8-2.3-49.6,1.2-86.3-10.5c-36.7-11.7-67.7-7-67.7-7s51.3,10.5,58.3,13.4c7,2.9,67.7,22.7,100.3,20.4s99.7-13.4,148.7-32.7
		c12.8,8.7,35,11.1,35,11.1s39.7,10.5,65.3-1.7c25.7-12.3,74.1-22.7,77-27.4c2.9-4.7,17.5-19.8,17.5-28c0-8.2,30.3-68.2,35.6-68.2
		S590.3,174.4,587.8,163.6z"/>
	<circle class="st2" cx="548.2" cy="163.6" r="5.5"/>
	<path class="st3" d="M548.2,148.2l-4.1-13.2c0,0-55.7,14.8-35.6,66.3c4.1-16.4,16.1-39,27.2-53
		C535.7,148.3,542.6,146.8,548.2,148.2z"/>
	<path class="st4" d="M581.4,168.1c0,0-31.9,0.2-41.6,11.2c0-8.3-4.8-15.7-4.8-15.7s-6.1,3.1,0,17.9c6.1,14.9-7-4.7-7-4.7
		s-5.3-0.3,4.4,12.7c9.6,13-10.5-7.3-10.5-7.3s-8-0.4,6.1,15c14.1,15.5-10.3-4.5-10.3-4.5s-5.3,2.3,5.7,10.4c10.9,8.1-8.3,2-8.7,3.2
		c-0.4,1.2-2,7.4,5.5,14c7.6,6.6-10.8-2.3-10.8-2.3s-3.5,2.6,5.8,11.8c9.3,9.2-6.3,3.1-11.1-1.7c-4.8-4.8-5.2,7.7,3.5,12.7
		s-5.6,8.2-6.9,5.5c-1.3-2.6-9-10.2-11-8.7c-2,1.5,11.1,23.2,2.2,23.6c-8.9,0.4-18.5-13.4-18.5-13.4s3.2,25.7-2.5,26
		c-5.7,0.3-3.3-13.1-10.1-12.5c-6.7,0.6-9.6,24.3-19.1,22.3c-9.5-2-1.5-15.6-8.9-16.2c-7.4-0.6-6.1,16.9-12.8,15
		c-6.7-1.9-3.3-17.9-8.2-18.1c-4.8-0.1-6.4,23.9-13.4,23.5c-7-0.4-5.5-19.5-13.3-17.7c-7.7,1.9-3.8,26.3-11.4,23.5
		c-7.6-2.8-8.9-26-10.8-26c-1.9,0-16.3,10.5-18.1,17.1c-1.7,6.6-10.5,5.8-10.8,0.3c-0.3-5.5-2.3-6-4.4-5.7c-2,0.3-0.6,13.7-7.9,14.5
		c-7.3,0.8-8.7-2.7-9.3-8.2c-0.6-5.5-7.3,6.4-7.3,6.4s-4.1,17.8-15.9,14.6c-11.8-3.2-22.2,6.9-22.2,6.9s4.7-8.5,2.3-8.5
		c-2.3,0-15.2,13.1-19.7,13.1s-3.9-8-3.9-8s-18.4,5.1-20.3,12.1c-1.9,7-6.4-3.2-9.8-3.2s-22,12.8-24.9,12.8s-9,3.3-8.7,0
		s2.6-6.7-2.6-5.5s-18.8,8.7-22.6,7c-3.8-1.6-145.1-25.8-145.1-25.8l58.3,13.4c0,0,56.1,20.6,89.8,20.5
		c27.3,0.4,114.9-12,159.2-32.7c7.6,8.6,57.5,14.8,57.5,14.8s12.7,3.6,36-2.8c6.7-2.6,36.6-13.9,36.6-13.9l42.5-13.5
		c0,0,7.2-0.7,20.1-24.2c3.4-6.1,6.9-20.9,8.6-24.6c1.7-3.7,21.5-47.4,29-50.1C558.5,192.9,596.1,171.9,581.4,168.1z"/>
	<circle class="st5" cx="578.1" cy="159.6" r="1.6"/>
	<path class="st4" d="M359.7,313.2c0,0,18.8,21.9,13.1,24.5s-14.4,31.9-13.1,42c1.3,10.1-12.3,12.3-12.3,20.6s0,50.5,0,50.5
		s20.6,5.5,30.2,11.6c9.6,6.1-15.1-14.4-15.1-14.4l24.7,11.4c0,0-10.9-19.3-19.9-18.8c-9,0.4-9-37.2-5.5-41.1
		c3.5-3.9,41.8-48.4,41.6-62.6C403.2,322.7,402.1,274.3,359.7,313.2z"/>
	<path class="st4" d="M376,312.8c0,0,19.8,16.2,15.2,19.4c-4.6,3.2-7.7,30.1-5,38.7c2.7,8.6-8.8,12.6-7.5,19.9
		c1.3,7.3,7.8,44.1,7.8,44.1s18.8,1.6,28.2,5.5c9.3,3.9-15.4-10.3-15.4-10.3l23.3,6.1c0,0-12.5-15.1-20.3-13.4
		c-7.8,1.8-13.6-31.1-11.1-35.1s29-48.8,26.7-61.1C415.5,314.4,407.1,272.3,376,312.8z"/>
	<path class="st4" d="M504.1,271.2c0,0,5.3,20.5,4.7,27.2c-0.6,6.7,7.6,12.5,13.4,18.3c5.8,5.8,20.4,4.7,20.4,4.7l-12.8,5.3
		c0,0-2.9,11.7-9.9,5.8c-7-5.8-24.6-20.3-26.3-29.8C492,293.1,486,270.6,504.1,271.2z"/>
	<path class="st4" d="M488.2,269.3c0,0,17.8,11.4,21.9,16.7c4.1,5.3,14.1,4,22.3,4.3c8.2,0.3,18.1-10.5,18.1-10.5l-5.8,12.6
		c0,0,5.8,10.5-3.3,11c-9.1,0.5-31.8,1.9-39.5-3.9C494.2,293.6,474.6,281.2,488.2,269.3z"/>
	<path class="st0" d="M550.6,279.8c0,0,5.5-4.5,9.6-4.5c-2.6,4.5-10.1,5.6-12.7,11.4S545.6,283,550.6,279.8z"/>
	<path class="st0" d="M543,321.4c0,0,7.1,0.7,10,3.7c-5.1,1.3-11.1-3.3-17.1-1.1C530,326.1,537.3,320.1,543,321.4z"/>
	<path class="st0" d="M415.3,428.3c0,0,13,7.5,14.7,12.7c-5.2-1.8-9.2-4.9-20-7.6C410.9,428.3,413.1,426.9,415.3,428.3z"/>
	<path class="st0" d="M404.6,431.8c0,0,13,7.5,14.7,12.7c-5.2-1.8-9.2-4.9-20-7.6C400.1,431.8,402.3,430.4,404.6,431.8z"/>
	<path class="st0" d="M381.1,449.5c0,0,12.3,8.6,13.5,14c-5-2.3-8.7-5.7-19.2-9.4C376.6,449.1,378.9,447.9,381.1,449.5z"/>
	<path class="st0" d="M368.4,452c0,0,13,7.5,14.7,12.7c-5.2-1.8-9.2-4.9-20-7.6C363.9,452,366.1,450.6,368.4,452z"/>
</g>
</svg>
