<?xml version="1.0" encoding="utf-8"?>
<!-- Generator: Adobe Illustrator 23.0.1, SVG Export Plug-In . SVG Version: 6.00 Build 0)  -->
<svg version="1.1" id="Layer_1" xmlns="http://www.w3.org/2000/svg" xmlns:xlink="http://www.w3.org/1999/xlink" x="0px" y="0px"
	 viewBox="0 0 599.8 599.8" style="enable-background:new 0 0 599.8 599.8;" xml:space="preserve">
<style type="text/css">
	.st0{fill:#FFF1BA;}
	.st1{fill:#B4DFD1;}
	.st2{fill:#FDF7BB;}
	.st3{fill:#010101;}
	.st4{fill:#48BA7F;}
	.st5{fill:#F6E0ED;}
</style>
<g id="A-Isi">
	<polygon class="st0" points="564,210.9 558.9,211.3 553.8,211.7 555.5,199.3 557.1,186.9 560.5,198.9 	"/>
	<polygon class="st0" points="571.7,215 566.6,215.4 561.5,215.8 563.2,203.4 564.8,191 568.2,203 	"/>
	<polygon class="st0" points="553.8,200.8 548.7,201.1 543.6,201.5 545.3,189.1 547,176.7 550.4,188.7 	"/>
	<polygon class="st0" points="543.6,194.9 538.5,195.3 533.4,195.6 535.1,183.2 536.8,170.9 540.2,182.9 	"/>
	<polygon class="st0" points="531.3,188.4 526.3,188.7 521.2,189.1 522.8,176.7 524.5,164.4 527.9,176.4 	"/>
	<polygon class="st0" points="504.3,178.8 499.2,179.2 494.1,179.5 495.8,167.2 497.5,154.8 500.9,166.8 	"/>
	<polygon class="st0" points="519.5,182.5 514.4,182.9 509.3,183.2 511,170.9 512.6,158.5 516,170.5 	"/>
	<polygon class="st0" points="494.1,176 489,176.4 483.9,176.7 485.6,164.4 487.3,152 490.7,164 	"/>
	<polygon class="st0" points="481,171.5 476.5,174 472,176.4 468.4,164.5 464.7,152.6 472.8,162 	"/>
	<polygon class="st0" points="489.7,172 485.2,174.5 480.7,176.9 477.1,165 473.4,153.1 481.5,162.5 	"/>
	<polygon class="st0" points="467.4,166.5 463,169 458.5,171.5 454.8,159.5 451.2,147.6 459.3,157.1 	"/>
	<polygon class="st0" points="455.8,165.5 451.3,168 446.8,170.4 443.1,158.5 439.5,146.6 447.6,156 	"/>
	<polygon class="st0" points="441.9,164.7 437.4,167.2 433,169.7 429.3,157.8 425.6,145.8 433.7,155.3 	"/>
	<polygon class="st0" points="413.3,167.4 408.9,169.9 404.4,172.4 400.7,160.5 397,148.5 405.2,158 	"/>
	<polygon class="st0" points="428.6,164.4 424.2,166.9 419.7,169.4 416,157.4 412.3,145.5 420.5,155 	"/>
	<polygon class="st0" points="402.9,169.2 398.4,171.7 394,174.1 390.3,162.2 386.6,150.3 394.8,159.7 	"/>
	<polygon class="st0" points="391,175.6 387.8,179.5 384.5,183.4 376.8,173.6 369,163.8 380,169.7 	"/>
	<polygon class="st0" points="399.3,172.9 396.1,176.8 392.8,180.7 385.1,170.9 377.4,161.1 388.4,167 	"/>
	<polygon class="st0" points="376.7,175.8 373.4,179.7 370.1,183.6 362.4,173.8 354.7,164 365.7,169.9 	"/>
	<polygon class="st0" points="365.4,179 362.1,182.9 358.8,186.8 351.1,177 343.4,167.2 354.4,173.1 	"/>
	<polygon class="st0" points="352.1,183.3 348.9,187.2 345.6,191.1 337.9,181.3 330.2,171.5 341.1,177.4 	"/>
	<polygon class="st0" points="326.4,196.1 323.2,200 319.9,203.9 312.2,194.1 304.5,184.3 315.4,190.2 	"/>
	<polygon class="st0" points="339.7,187.8 336.4,191.7 333.1,195.6 325.4,185.8 317.7,175.9 328.7,181.9 	"/>
	<polygon class="st0" points="317.4,201.4 314.1,205.3 310.8,209.2 303.1,199.4 295.4,189.6 306.4,195.5 	"/>
	<polygon class="st0" points="310,215 307.6,219.4 305.1,223.9 295.6,215.7 286.2,207.5 298.1,211.2 	"/>
	<polygon class="st0" points="317.7,210.8 315.2,215.2 312.7,219.7 303.3,211.5 293.9,203.3 305.8,207.1 	"/>
	<polygon class="st0" points="296,217.9 293.5,222.4 291,226.8 281.6,218.6 272.1,210.5 284,214.2 	"/>
	<polygon class="st0" points="285.5,223.2 283,227.7 280.5,232.1 271.1,223.9 261.7,215.8 273.6,219.5 	"/>
	<polygon class="st0" points="273.3,229.9 270.8,234.4 268.3,238.8 258.9,230.6 249.5,222.4 261.4,226.2 	"/>
	<polygon class="st0" points="250.5,247.3 248,251.8 245.5,256.2 236.1,248 226.7,239.8 238.6,243.6 	"/>
	<polygon class="st0" points="261.9,236.6 259.4,241.1 256.9,245.5 247.5,237.4 238.1,229.2 250,232.9 	"/>
	<polygon class="st0" points="242.6,254.3 240.1,258.7 237.6,263.2 228.2,255 218.7,246.8 230.7,250.5 	"/>
	<polygon class="st0" points="235.6,260.1 234.1,265 232.7,269.9 221.7,263.8 210.8,257.9 223.2,259 	"/>
	<polygon class="st0" points="236.1,268.2 234.6,273.1 233.1,278 222.1,272 211.2,266 223.6,267.1 	"/>
	<polygon class="st0" points="230.2,276.7 228.7,281.6 227.2,286.5 216.3,280.5 205.3,274.5 217.8,275.6 	"/>
	<polygon class="st0" points="222.6,285.7 221.1,290.5 219.6,295.4 208.7,289.4 197.7,283.4 210.2,284.5 	"/>
	<polygon class="st0" points="212.1,294.8 210.7,299.7 209.2,304.5 198.2,298.5 187.3,292.6 199.7,293.7 	"/>
	<polygon class="st0" points="193.5,316.6 192,321.5 190.5,326.4 179.6,320.4 168.7,314.4 181.1,315.5 	"/>
	<polygon class="st0" points="204,306.9 202.5,311.7 201,316.6 190,310.6 179.1,304.6 191.5,305.7 	"/>
	<polygon class="st0" points="187.3,325.1 185.8,330 184.3,334.9 173.3,328.9 162.4,322.9 174.8,324 	"/>
	<path class="st1" d="M314.7,317.4c0,0,10.9,45.9,5.7,64.4c0,0-3.2,13.9,1.5,26.3c4.7,12.4,0.2,22.2,0.2,22.2l-22.2-1.5
		c0,0,0.4-19.4,1.9-27.4s-17.4-55.9-16.7-60.5C285.7,336.1,313.5,312,314.7,317.4z"/>
	<path class="st2" d="M314.2,429.2c0,0,7.6-18.5,10.1-13c2.6,5.5-1.5,14.3-1.5,14.3S318.3,431.5,314.2,429.2z"/>
	<path class="st2" d="M308.7,429.2c0,0,7.6-18.5,10.1-13c2.6,5.5-1.5,14.3-1.5,14.3S312.8,431.5,308.7,429.2z"/>
	<path class="st1" d="M218.7,334.1c0,0,10.7,41.1,6.2,57.6c0,0-2.8,12.5,1.7,23.5c4.5,11.1,0.5,19.9,0.5,19.9l-20.5-1.1
		c0,0,0.1-17.4,1.3-24.6c1.3-7.1-16.8-49.9-16.3-54.1C192.2,351.2,217.5,329.4,218.7,334.1z"/>
	<path class="st1" d="M582.7,223.6c4.3-8.7-12.1-13.9-12.1-13.9S450.9,79.6,279.2,227c-50.3,4.3-71.1,60.7-71.1,60.7
		s-15.6,37.3-57.2,36.4c-41.6-0.9-100.6-19.1-130.9,18.2c-30.3,37.3,33.8,13.9,33.8,13.9s-26,6.9-27.7,0.9s6.9-32.1,76.3-22.5
		s84.1,47.7,84.1,47.7s78,30.3,128.3-25.1c43.3-28.6,26-41.4,26-41.4s-19.1-56.5,104-89.5c123.1-32.9,127.4,40.7,127.4,40.7
		s12.1,5.2,15.6-6.9C587.9,260,578.3,232.2,582.7,223.6z M577.4,268v-11.2l0.7,11.2L577.4,268z"/>
	<circle class="st3" cx="570.6" cy="221.3" r="4.2"/>
	<circle class="st4" cx="583" cy="258.6" r="1.8"/>
	<path class="st2" d="M220.5,433.7c0,0,7.6-18.5,10.1-13s-1.5,14.3-1.5,14.3S224.5,436,220.5,433.7z"/>
	<path class="st2" d="M215,433.7c0,0,7.6-18.5,10.1-13s-1.5,14.3-1.5,14.3S219,436,215,433.7z"/>
	<path class="st1" d="M334.2,299.4c0,0,18.6,58.4,13.4,82.6c0,0-3,18.2,4.3,33.8s2.4,28.6,2.4,28.6h-29.6c0,0-1.3-25.1,0-35.5
		c1.3-10.4-28.2-70.7-27.8-76.7C297.3,326.2,332.1,292.6,334.2,299.4z"/>
	<path class="st1" d="M233.6,331.2c0,0,13,50,7.5,70.2c0,0-3.4,15.2,2.1,28.7c5.5,13.5,0.6,24.2,0.6,24.2l-24.9-1.4
		c0,0,0.1-21.2,1.6-29.9c1.5-8.7-20.5-60.8-19.8-65.9C201.3,352,232.2,325.3,233.6,331.2z"/>
	<path class="st2" d="M345.7,443.2c0,0,7.6-18.5,10.1-13c2.6,5.5-1.5,14.3-1.5,14.3S349.7,445.5,345.7,443.2z"/>
	<path class="st2" d="M340.2,443.2c0,0,7.6-18.5,10.1-13c2.6,5.5-1.5,14.3-1.5,14.3S344.3,445.5,340.2,443.2z"/>
	<path class="st2" d="M236.8,452.7c0,0,7.6-18.5,10.1-13c2.6,5.5-1.5,14.3-1.5,14.3S240.8,455,236.8,452.7z"/>
	<path class="st2" d="M231.3,452.7c0,0,7.6-18.5,10.1-13c2.6,5.5-1.5,14.3-1.5,14.3S235.3,455,231.3,452.7z"/>
	<path class="st5" d="M522.8,176.7L509.3,191l11.9,27.6l-27.1-14.7l5.1-24.7l9.7-9.5C508.9,169.7,522.6,174.6,522.8,176.7z"/>
	<path class="st5" d="M490.7,164l-25.4,20.7l13.9,33.9l-31.6-18.1l5.9-30.4l11.3-11.7C464.8,158.5,490.5,161.3,490.7,164z"/>
	<path class="st5" d="M429.3,157.8l-22.5,29l23.8,43.5L392.8,206l-0.6-30.9l8.6-13.8C400.8,161.3,428.5,155.2,429.3,157.8z"/>
	<path class="st5" d="M370.6,171.5L352.8,220l23.8,34l-41.5-18.2l5.9-30.4l4-23.6C345.1,181.8,370.3,168.8,370.6,171.5z"/>
	<path class="st5" d="M320.6,197.8l-9.5,57.7l31.8,35.4l-49.5-19.6l5.9-30.4l-5.9-25.5C293.4,215.4,320.4,195.1,320.6,197.8z"/>
	<path class="st5" d="M279.2,227l-19.1,32.1l23.8,43.5l-37.8-24.3l-0.6-30.9l8.6-13.8C254.2,233.6,278.4,224.5,279.2,227z"/>
	<path class="st5" d="M225.9,259.1l-0.6,34.1l23.8,43.5l-37.8-24.3l-0.6-30.9l7.7-13.5C218.5,268,225.1,256.5,225.9,259.1z"/>
	<path class="st5" d="M198,304.6l-0.4,22.5l15.7,28.6l-24.9-16l-5.6-23.8l8.8-6.4C191.6,309.5,198.1,301.9,198,304.6z"/>
	<polygon class="st5" points="166.4,322.6 165.5,331.1 171.1,341.4 162.1,335.7 158.5,323.8 163.1,323.2 	"/>
	<polygon class="st5" points="147.8,323.9 147.1,331 151.7,339.5 144.3,334.7 140.9,323.6 144.6,323.6 	"/>
	<polygon class="st5" points="127.9,322.5 127.5,326.1 129.9,330.4 126.1,328 123.9,322.1 126.3,322.3 	"/>
	<polygon class="st5" points="116,321.3 115.6,324.9 118,329.2 114.2,326.8 111.9,320.8 114.4,321 	"/>
	<polygon class="st5" points="100.4,319.9 100,323.5 102.4,327.8 98.6,325.4 96.3,319.4 98.8,319.6 	"/>
	<polygon class="st5" points="85.6,319 85.2,323 87.6,327.3 83.8,324.9 81.4,318.9 83.9,318.9 	"/>
	<polygon class="st5" points="72.7,319.1 72.3,323.4 74.6,327.8 70.9,325.3 68.5,319.3 70.9,319.3 	"/>
	<polygon class="st5" points="58.3,320.8 57.8,325.7 60.1,330.1 56.4,327.6 54,321.7 56.4,321.2 	"/>
	<polygon class="st5" points="42.9,325.3 42.7,327.9 43.9,330 42.1,328.8 40.9,326.2 41.9,325.7 	"/>
	<polygon class="st5" points="30,332.7 30.5,335.9 31.7,338 29.8,336.8 28.3,334 29,333.4 	"/>
	<polygon class="st5" points="18.6,344.2 19.5,347.4 20.7,349.5 18.8,348.3 17.5,345.5 18,344.9 	"/>
	<polygon class="st5" points="13.3,352.4 15,354.2 17.4,354.6 15.3,355.3 12.5,354.4 12.8,353.4 	"/>
	<polygon class="st5" points="17.5,363.1 20.6,360.7 22,358.8 21.7,361 19.6,363.4 18.7,363.3 	"/>
</g>
</svg>
