<?xml version="1.0" encoding="utf-8"?>
<!-- Generator: Adobe Illustrator 23.0.1, SVG Export Plug-In . SVG Version: 6.00 Build 0)  -->
<svg version="1.1" id="Layer_1" xmlns="http://www.w3.org/2000/svg" xmlns:xlink="http://www.w3.org/1999/xlink" x="0px" y="0px"
	 viewBox="0 0 600 599.8" style="enable-background:new 0 0 600 599.8;" xml:space="preserve">
<style type="text/css">
	.st0{fill:#C6A6CF;}
	.st1{fill:#F9F1C5;}
	.st2{fill:#F7F3B1;}
	.st3{fill:#F5E2B0;}
	.st4{fill:#030303;}
	.st5{fill:#8159A5;}
</style>
<g id="A-Majunga">
	<path class="st0" d="M452.8,306c0,0,7.3,3,7.1,6.5c-0.2,3.6-19.5-2.5-19.5-2.5L452.8,306z"/>
	<path class="st1" d="M459.8,313c0,0-2.3,13.8-5.7,19.4c0.6-4.7-4.1-18-5.5-20.8C446.9,308.3,461.2,306.4,459.8,313z"/>
	<path class="st0" d="M428.3,320.5c0,0,7.3,3,7.1,6.5c-0.2,3.6-19.5-2.5-19.5-2.5L428.3,320.5z"/>
	<path class="st1" d="M435.5,329c0,0-2.3,13.8-5.7,19.4c0.6-4.7-4.1-18-5.5-20.8C422.6,324.3,437,322.4,435.5,329z"/>
	<path class="st0" d="M414.3,290.6c0,0,36.9,7.7,40.1,17c3.2,9.3-5,17-5,17l-5.5-12.7c0,0-40-4.2-34.8-12.7
		C414.3,290.6,414.3,290.6,414.3,290.6z"/>
	<polygon class="st1" points="32.6,181.5 28.2,192.9 20.5,183.4 	"/>
	<polygon class="st1" points="25.7,165.9 20.9,177.1 13.6,167.3 	"/>
	<polygon class="st1" points="39.4,194.4 36.4,206.2 27.7,197.7 	"/>
	<polygon class="st1" points="34.9,207.5 46.7,204.7 43.2,216.4 	"/>
	<polygon class="st1" points="54.9,214.8 51.4,226.5 43.1,217.6 	"/>
	<polygon class="st1" points="64.1,223.4 59.7,234.8 52.1,225.3 	"/>
	<polygon class="st1" points="74.8,231.6 71.6,243.4 63,234.8 	"/>
	<polygon class="st1" points="89.9,238 89.4,250.2 79.1,243.7 	"/>
	<polygon class="st1" points="106.2,237.5 112.3,248 100.1,248 	"/>
	<polygon class="st1" points="116.5,232.9 130.1,243 114.5,249.7 	"/>
	<polygon class="st1" points="135.6,227.5 146.6,240.4 129.9,243.4 	"/>
	<polygon class="st1" points="150.3,215.3 162.7,226.7 146.6,231.8 	"/>
	<polygon class="st1" points="163.7,224.8 168.2,208.5 180.1,220.5 	"/>
	<polygon class="st1" points="185.9,205.2 197.8,217.3 181.4,221.6 	"/>
	<polygon class="st1" points="204.9,204.2 215.9,217.1 199.2,220.2 	"/>
	<polygon class="st1" points="224.6,203.9 232.4,218.9 215.5,218.2 	"/>
	<polygon class="st1" points="258.7,210.9 264.2,226.9 247.6,223.6 	"/>
	<polygon class="st1" points="242.2,204.6 247.7,220.6 231,217.3 	"/>
	<polygon class="st1" points="270.7,201.7 282.3,214.2 265.7,217.9 	"/>
	<polygon class="st1" points="289.5,196.6 298,211.3 281,211.3 	"/>
	<polygon class="st1" points="304.8,194.6 315,208.2 298.2,210.3 	"/>
	<polygon class="st1" points="316.3,206.4 323.6,191.1 333.1,205.2 	"/>
	<polygon class="st1" points="341.6,191.1 351.1,205.2 334.3,206.4 	"/>
	<polygon class="st1" points="360.5,193.6 369,208.2 352,208.2 	"/>
	<polygon class="st1" points="380.5,193.8 385.5,210 369,206.2 	"/>
	<polygon class="st1" points="412.3,209.8 414.8,226.5 399,220.3 	"/>
	<polygon class="st1" points="397.1,200.6 399.6,217.4 383.9,211.2 	"/>
	<polygon class="st1" points="462.5,194.3 473.5,217.3 448.1,215.4 	"/>
	<polygon class="st1" points="541.1,205 550.7,235.9 519.2,228.7 	"/>
	<polygon class="st1" points="500.9,201.9 508.4,226.2 483.5,220.5 	"/>
	<polyline class="st1" points="579.2,306.8 578.5,288.7 568.8,304.6 	"/>
	<polyline class="st1" points="575.4,269.3 581.2,287.6 585.1,268.9 	"/>
	<polyline class="st1" points="571.9,269.4 576.3,279.6 579.7,269.1 	"/>
	<polyline class="st1" points="560.9,271 573.4,288.9 584,270 	"/>
	<polyline class="st1" points="546,269.8 558.6,287.7 569.1,268.8 	"/>
	<polyline class="st1" points="565.6,305.5 559.3,285 543.2,300.3 	"/>
	<polyline class="st1" points="575.5,308.6 570.9,289.5 557.2,304.4 	"/>
	<polyline class="st1" points="577.7,306.4 569,290.3 552.8,300.4 	"/>
	<polyline class="st1" points="554.8,259.8 568.6,281.2 580.2,258.6 	"/>
	<polyline class="st1" points="545.4,262.9 559.2,284.2 570.8,261.6 	"/>
	<polyline class="st1" points="529.1,261.5 542.9,282.8 554.5,260.2 	"/>
	<polyline class="st1" points="550.6,304 543.6,279.5 525.9,297.8 	"/>
	<polyline class="st1" points="565.8,310.1 558.8,285.6 541.1,303.9 	"/>
	<polyline class="st1" points="555.5,307.6 548.5,283.2 530.8,301.4 	"/>
	<polyline class="st1" points="548.6,257.3 562.4,278.7 574,256.1 	"/>
	<polyline class="st1" points="539.2,260.4 553,281.8 564.6,259.1 	"/>
	<polyline class="st1" points="522.9,259 536.7,280.3 548.3,257.7 	"/>
	<polyline class="st1" points="544.4,301.5 537.4,277 519.7,295.3 	"/>
	<polyline class="st1" points="559.6,307.6 552.6,283.2 534.9,301.4 	"/>
	<polyline class="st1" points="567.3,310 560.4,285.5 542.7,303.8 	"/>
	<path class="st0" d="M12,155.3c0,0,33.1,104.3,100.5,90.3s11.4-35.6,150-28c33.1-16.5,110.6-25.4,155.1,7.6
		c35.6-24.2,85.2-1.3,85.2-1.3s77.6,6.4,85.2,50.9c-36.9,0-58.5,8.9-58.5,8.9s34.3,17.8,48.3,19.1c14,1.3-12.7,10.2-12.7,10.2
		s-83.9-5.1-99.2-8.9c-15.3-3.8-36.9-8.9-49.6,8.9c-12.7,17.8-87.7,34.3-134.8,0s-24.2-52.1-105.5-56c-47.1,20.3-91.6,14-103,5.1
		C61.6,253.2,12,192.2,12,155.3z"/>
	<polygon class="st2" points="476.7,246.7 486.9,237.5 509.6,235.2 527.9,241.6 527.9,251.9 509.6,258.3 486.9,256 	"/>
	<polygon class="st3" points="488.8,251.7 483.4,246.7 488.8,241.8 509.1,239.8 523.3,244.8 523.3,248.7 509.1,253.7 	"/>
	<circle class="st4" cx="518.5" cy="246.7" r="3.3"/>
	<path class="st0" d="M326.8,289.3c0,0,9,48.6,2.8,60.5c-6.2,11.9-15.3,30-15.3,30s12.9,19.8,8.7,25.4c-4.2,5.6-5.9,14.7-5.9,14.7
		l-2.8,23.2l17.4-2.8l28.3-1c0,0-4-13.1-13.6-13.1c-9.6,0,3.4-14.1,3.4-14.1s-17.7-36.8-4-45.8c21.2-13.8,33.9-50.6,30-73.1
		S324,271.1,326.8,289.3z"/>
	<path class="st0" d="M325.6,288.3c0,0-28.1,40.7-40.9,44.6s-32,10.3-32,10.3s-4.9,23.1-11.9,24.1c-7,1-14.6,6.2-14.6,6.2
		l-18.4,14.3l14.3,10.4l23.1,24c0,0,4.1-16.6-2.7-23.4s12.4-7.6,12.4-7.6s13.6-38.5,29.7-35.1c24.8,5.3,59.8-11.6,73-30.2
		C370.7,307.3,336.5,273.5,325.6,288.3z"/>
	<polygon class="st2" points="419.2,249.4 421.3,245 426,244 429.7,247 429.7,251.7 426,254.7 421.3,253.7 	"/>
	<polygon class="st3" points="424.4,249.7 424.2,249.3 424.4,249 424.9,248.9 425.2,249.1 425.2,249.6 424.9,249.8 	"/>
	<polygon class="st2" points="384.4,230 388.9,220.7 399,218.5 407,224.9 407,235.2 399,241.6 388.9,239.3 	"/>
	<polygon class="st3" points="392,235.4 389.5,230 392,224.7 397.8,223.3 402.5,227 402.5,233 397.8,236.7 	"/>
	<polygon class="st2" points="356.4,228.1 359.7,221.4 366.9,219.7 372.7,224.4 372.7,231.8 366.9,236.4 359.7,234.8 	"/>
	<polygon class="st3" points="362.8,230.9 361.5,228.1 362.8,225.3 365.8,224.6 368.2,226.5 368.2,229.6 365.8,231.6 	"/>
	<polygon class="st2" points="341.2,250.9 344.5,244.2 351.7,242.6 357.5,247.2 357.5,254.6 351.7,259.3 344.5,257.6 	"/>
	<polygon class="st3" points="347.6,253.7 346.2,250.9 347.6,248.1 350.6,247.4 353,249.4 353,252.5 350.6,254.4 	"/>
	<polygon class="st2" points="328.4,218.9 331.7,212.2 338.9,210.5 344.7,215.1 344.7,222.6 338.9,227.2 331.7,225.6 	"/>
	<polygon class="st3" points="334.8,221.7 333.4,218.9 334.8,216.1 337.8,215.4 340.2,217.3 340.2,220.4 337.8,222.3 	"/>
	<polygon class="st2" points="318.8,245.5 320.9,241.2 325.6,240.2 329.3,243.2 329.3,247.9 325.6,250.9 320.9,249.9 	"/>
	<polygon class="st3" points="324,245.9 323.8,245.5 324,245.2 324.4,245.1 324.8,245.3 324.8,245.8 324.4,246 	"/>
	<polygon class="st2" points="297.8,229.9 302.3,220.6 312.4,218.3 320.4,224.8 320.4,235.1 312.4,241.5 302.3,239.2 	"/>
	<polygon class="st3" points="305.4,235.3 302.9,229.9 305.4,224.5 311.2,223.2 315.9,226.9 315.9,232.9 311.2,236.6 	"/>
	<polygon class="st2" points="286,234.6 289.2,227.9 296.5,226.2 302.3,230.9 302.3,238.3 296.5,243 289.2,241.3 	"/>
	<polygon class="st3" points="292.4,237.4 291,234.6 292.4,231.8 295.4,231.1 297.8,233.1 297.8,236.1 295.4,238.1 	"/>
	<polygon class="st2" points="246.5,238.4 249.7,231.7 257,230 262.8,234.7 262.8,242.1 257,246.7 249.7,245.1 	"/>
	<polygon class="st3" points="252.8,241.2 251.5,238.4 252.8,235.6 255.8,234.9 258.3,236.8 258.3,239.9 255.8,241.9 	"/>
	<polygon class="st2" points="200.2,234.6 203.1,228.6 209.6,227.2 214.8,231.3 214.8,237.9 209.6,242 203.1,240.6 	"/>
	<polygon class="st3" points="206.2,236.6 205.3,234.6 206.2,232.6 208.5,232 210.2,233.5 210.2,235.7 208.5,237.2 	"/>
	<polygon class="st2" points="219.1,238.4 222,232.4 228.4,230.9 233.6,235.1 233.6,241.7 228.4,245.8 222,244.3 	"/>
	<polygon class="st3" points="225.1,240.4 224.1,238.4 225.1,236.3 227.3,235.8 229.1,237.2 229.1,239.5 227.3,240.9 	"/>
	<polygon class="st2" points="444.7,245.6 446.5,241.8 450.7,240.8 454,243.5 454,247.7 450.7,250.4 446.5,249.5 	"/>
	<polygon class="st3" points="444.7,245.6 446.5,241.8 450.7,240.8 454,243.5 454,247.7 450.7,250.4 446.5,249.5 	"/>
	<circle class="st5" cx="570.6" cy="261.8" r="1.8"/>
	<path class="st0" d="M389.6,305.7c0,0,36.9,7.7,40.1,17c3.2,9.3-5,17-5,17l-5.5-12.7c0,0-40-4.2-34.8-12.7
		C389.6,305.7,389.6,305.7,389.6,305.7z"/>
	<path class="st1" d="M430.4,328.3c0,0-2.3,13.8-5.7,19.4c0.6-4.7-4.1-18-5.5-20.8C417.6,323.6,431.9,321.8,430.4,328.3z"/>
	<path class="st1" d="M455,314.2c0,0-2.3,13.8-5.7,19.4c0.6-4.7-4.1-18-5.5-20.8C442.2,309.5,456.5,307.6,455,314.2z"/>
	<path class="st1" d="M349.4,426.3c0,0,16.8,8.4,22.6,14.6c-5.7-2.6-24.4-2.8-28.5-2.4C338.6,438.9,341.6,421.8,349.4,426.3z"/>
	<path class="st1" d="M345.3,429.9c0,0,16.8,8.4,22.6,14.6c-5.7-2.6-24.4-2.8-28.5-2.4C334.6,442.5,337.5,425.5,345.3,429.9z"/>
	<path class="st1" d="M246.3,404.6c0,0,5,18.1,4.2,26.6c-1.8-6-14.2-20.1-17.2-22.9C229.7,405,244.4,395.8,246.3,404.6z"/>
	<path class="st1" d="M240.9,404c0,0,5,18.1,4.2,26.6c-1.8-6-14.2-20.1-17.2-22.9C224.3,404.4,239,395.2,240.9,404z"/>
</g>
</svg>
