<?xml version="1.0" encoding="utf-8"?>
<!-- Generator: Adobe Illustrator 23.0.1, SVG Export Plug-In . SVG Version: 6.00 Build 0)  -->
<svg version="1.1" id="Layer_1" xmlns="http://www.w3.org/2000/svg" xmlns:xlink="http://www.w3.org/1999/xlink" x="0px" y="0px"
	 viewBox="0 0 599.8 599.8" style="enable-background:new 0 0 599.8 599.8;" xml:space="preserve">
<style type="text/css">
	.st0{fill:#F9C973;}
	.st1{fill:#030303;}
	.st2{fill:#F9F5C3;}
	.st3{fill:#D5E6A1;}
	.st4{fill:#F9E381;}
</style>
<g id="A-oviraptor">
	<path class="st0" d="M11.9,350.1c0,0,105.2-39.3,129.3-85.4c22.6-43.1,134.3-31.3,134.3-31.3s118-57.3,195.9-1.1
		c26.4,1.1,37.7-2.7,42.7-44.2c5-41.4,25.1-51.5,25.1-51.5s28.9-30.1,41.4-21.3s6.3,30.1,0,38.9c13.8,8.8-21.5-13.3-33.8,1.8
		c-12.3,15.1,6.7,20.1,6.1,27.9c-7.8-7.3-16.2-5-16.2,11.2c0,16.2-5,45.2-26.2,56.3c-21.2,11.2-26.8,10-26.8,10s-25.1,50.8-51.3,53
		c-26.2,2.2-92,36.3-126.1-15.1c-65.6-98.8-207,25.3-248.9,47.4C25.1,359.1,14.8,355.5,11.9,350.1z"/>
	<circle class="st1" cx="557.4" cy="143.1" r="3.6"/>
	<path class="st2" d="M583.7,156c0,0,5.6,7.3,0,21.2c-5-10.6-33.5-26.2-41.9-18.4c15.5-0.4,21.5,2.8,22.2,11.7s13.6,6.7,13.6,6.7
		s4.3,12.3-23.8,6.7c-8.6-3.9-21.9-13.4-20.3-23.4C535.2,150.5,560.8,141,583.7,156z"/>
	<path class="st2" d="M542.8,133.1"/>
	<path class="st0" d="M353,315.3c0,0,41.9,31,41.9,44.4c0,13.4,17.6,39.3,28.5,54.4c10.9,15.1,12.6,41,12.6,41s23.4,13.4,23.4,17.6
		c0,4.2,54.4,11.7,54.4,11.7s-23.4-13.4-27.6-12.6s35.6,8.4,35.6,8.4s-28.9-18.4-36.4-16.7c-7.5,1.7-40.2-21.8-40.2-35.1
		s-16.7-59.4-16.7-59.4s-3.3-72-10.9-71.1C409.9,298.6,353,315.3,353,315.3z"/>
	<path class="st0" d="M362.8,266c0,0-2.3,47.8-12.5,54.6c-10.2,6.8-21.1,33.5-27.1,49.5c-5.9,16-24.9,30.5-24.9,30.5
		s1.7,24.8-1.5,26.9c-3.2,2.1,18.8,47.6,18.8,47.6s-1.7-24.8-4.5-27.5s11.8,31.5,11.8,31.5s-0.7-31.5-5.8-36.4
		c-5.1-4.9-3.9-41.8,6.3-48.7c10.2-6.8,36.9-43.1,36.9-43.1s53.3-39.3,48.8-44.7C404.7,300.9,362.8,266,362.8,266z"/>
	<path class="st0" d="M462.6,276l28.5,29.3l38.5-7.6c0,0,17.6,8.4,18.4,11.7c0.8,3.3-3.5,12.4-3.5,12.4l-2.2-8.9
		c0,0-5.2,11.7-6.3,11.7c-1.1,0,3.8-13.3,1-14.1c-2.8-0.8-8.8,9.1-8.8,9.1s2.9-11.4,0-11.4s-29.8,8.9-34.5,13.4
		c-4.6,4.5-17.3-6.4-20.2-9.4c-2.9-2.9-23.2-26.1-23.2-26.1L462.6,276z"/>
	<path class="st0" d="M459.6,256.6l21.6,22.2l29.2-5.8c0,0,13.3,6.4,14,8.9c0.6,2.5-2.7,9.4-2.7,9.4l-1.7-6.8c0,0-3.9,8.9-4.8,8.9
		s2.9-10,0.7-10.7c-2.1-0.6-6.7,6.9-6.7,6.9s2.2-8.7,0-8.7c-2.2,0-22.6,6.8-26.1,10.2c-3.5,3.4-13.1-4.9-15.3-7.1
		c-2.2-2.2-17.6-19.8-17.6-19.8L459.6,256.6z"/>
	<path class="st3" d="M345.8,231.9L345.8,231.9c3.7,0,6.7-3,6.7-6.7l0,0c0-3.7-3-6.7-6.7-6.7l0,0c-3.7,0-6.7,3-6.7,6.7l0,0
		C339.1,228.9,342.1,231.9,345.8,231.9z"/>
	<path class="st3" d="M332.6,254.2L332.6,254.2c3.7,0,6.7-3,6.7-6.7l0,0c0-3.7-3-6.7-6.7-6.7l0,0c-3.7,0-6.7,3-6.7,6.7l0,0
		C325.9,251.2,328.9,254.2,332.6,254.2z"/>
	<path class="st3" d="M443.7,238.6L443.7,238.6c3.7,0,6.7-3,6.7-6.7l0,0c0-3.7-3-6.7-6.7-6.7l0,0c-3.7,0-6.7,3-6.7,6.7l0,0
		C437,235.6,440,238.6,443.7,238.6z"/>
	<path class="st3" d="M247.9,245.3L247.9,245.3c3.7,0,6.7-3,6.7-6.7l0,0c0-3.7-3-6.7-6.7-6.7l0,0c-3.7,0-6.7,3-6.7,6.7l0,0
		C241.2,242.3,244.2,245.3,247.9,245.3z"/>
	<circle class="st3" cx="372.6" cy="236.5" r="2.1"/>
	<circle class="st3" cx="298.2" cy="242.6" r="1.7"/>
	<ellipse class="st3" cx="405.9" cy="249.2" rx="3.5" ry="1.7"/>
	<circle class="st3" cx="440.5" cy="269.2" r="3.2"/>
	<circle class="st3" cx="161.1" cy="265.3" r="2.7"/>
	<circle class="st3" cx="194.8" cy="247.6" r="3.3"/>
	<ellipse class="st3" cx="521.1" cy="201.5" rx="3.3" ry="0.8"/>
	<circle class="st3" cx="489.9" cy="237.6" r="1.1"/>
	<circle class="st4" cx="578.3" cy="160.1" r="1.5"/>
	<circle class="st3" cx="404.1" cy="223.5" r="1.8"/>
	<circle class="st3" cx="376.4" cy="215.9" r="5.9"/>
	<path class="st2" d="M528.9,311c0,0-0.2,8.3-1.6,9.6c3.1-1.5,6.8-8.6,6.8-8.6S529.5,308.8,528.9,311z"/>
	<path class="st2" d="M536.5,314.6c0,0-0.2,9.7-1.7,11.2c3.1-1.8,6.8-10.1,6.8-10.1S537,312,536.5,314.6z"/>
	<path class="st2" d="M542.5,314.8c0,0,2.8,9.3,1.9,11.2c2.4-2.7,3.4-11.7,3.4-11.7S542.1,312.1,542.5,314.8z"/>
	<path class="st2" d="M509.6,282.9c0,0-0.1,7.1-1.4,8.2c2.7-1.3,5.8-7.4,5.8-7.4S510,281,509.6,282.9z"/>
	<path class="st2" d="M515.4,285.7c0,0-0.2,8.3-1.4,9.6c2.7-1.5,5.9-8.6,5.9-8.6S515.8,283.4,515.4,285.7z"/>
	<path class="st2" d="M519.9,285.9c0,0,2.4,8,1.6,9.6c2.1-2.3,2.9-10,2.9-10S519.6,283.6,519.9,285.9z"/>
	<path class="st2" d="M500.1,476.6c0,0,22.4,2.6,25.5,5.7c-3.5-6.1-21.9-14.8-21.9-14.8S494.2,475,500.1,476.6z"/>
	<path class="st2" d="M489,482.2c0,0,24.7,0.9,27.8,3.9c-3.5-6.1-24.2-13-24.2-13S483.1,480.6,489,482.2z"/>
	<path class="st2" d="M314.1,462c0,0,8.3,17.6,7.5,21.3c2.8-5.4,0.8-22.8,0.8-22.8S312.6,457,314.1,462z"/>
	<path class="st2" d="M304.9,456.5c0,0,10.7,18.5,9.9,22.1c2.8-5.4-1.5-23.7-1.5-23.7S303.4,451.5,304.9,456.5z"/>
</g>
</svg>
