<svg xmlns="http://www.w3.org/2000/svg" viewBox="0 0 600 600"><defs><style>.cls-1{fill:#94ad38;}.cls-2{fill:#81992b;}.cls-3{fill:#272525;}</style></defs><title>aTyrannosaurus</title><g id="Layer_17" data-name="Layer 17"><path class="cls-1" d="M378.31,389.4v40c0,.76,0,1.51,0,2.27A74.65,74.65,0,0,1,303.66,504v53.22h9.95a26.5,26.5,0,0,1,26.5,26.51h-50A28.08,28.08,0,0,1,262,555.69V339.84Z"/><path class="cls-1" d="M583.55,92.61H488.07L516,122.29h66.36l-17,37.81H458l-1.15,102.63a144,144,0,0,1-144,142.35H277l-29.45.82-87,2.42A236.66,236.66,0,0,1,16.45,583.77l13.74-20.55A200.26,200.26,0,0,0,64,452a279.49,279.49,0,0,1,279.49-279.5L366.8,73.81a74.84,74.84,0,0,1,72.82-57.58,75.62,75.62,0,0,1,11.84.94A74.6,74.6,0,0,1,463,20L583.55,59.62v33Z"/><path class="cls-1" d="M277,382.1v47.29A74.64,74.64,0,0,1,202.34,504h0v53.24h9.95a26.49,26.49,0,0,1,26.5,26.5h-50a28.08,28.08,0,0,1-28.08-28.08V490.58a32.1,32.1,0,0,1,12.85-25.69l28.82-21.62-19.62-12.39c-41.52-26.24-42.81-86.33-2.46-114.33h0l26.07-1.4A67,67,0,0,1,277,382.1Z"/><path class="cls-2" d="M423.29,290.51a8.68,8.68,0,0,0,8.68-8.68v-19.1a8.68,8.68,0,0,0-8.68-8.68H404.37l17.15-22.51A8.68,8.68,0,1,0,407.71,221l-27.78,36.45a8.68,8.68,0,0,0,6.91,13.94h27.77v10.42A8.68,8.68,0,0,0,423.29,290.51Z"/><circle class="cls-3" cx="476.01" cy="54.89" r="10.19"/></g></svg>