<svg xmlns="http://www.w3.org/2000/svg" viewBox="0 0 600 600"><defs><style>.cls-1{fill:#43a047;}.cls-2{fill:#66bb6a;}</style></defs><title>aVelociraptor</title><g id="Layer_17" data-name="Layer 17"><path class="cls-1" d="M225.65,259.56s-27,6.11-43.72,16.91c0,0-25.18,66-25.33,103.93,0,0-46.21,11.1-71.88,29.83l3.2,61,60.92,32.55,3-28.61-36.08-20.4L113.9,424.7l89.62-.21s62.37-53.93,84.11-90.41c0,0,4.14-22.4-5.94-41.21Z"/><path class="cls-2" d="M587.71,185.87s-39.47-48.33-107.55-92.73a151.22,151.22,0,0,0-28.1-3.48c-14.65-.59-33.51.47-52.79,6.44,0,0-33.55,52.28-43.43,104.57,0,0-70-16.77-150-6.89S47,261.85,9.53,307.23c0,0,5.35-1.14,14.26-2.61,25.44-4.18,79.89-11,121.41-1.05a111.6,111.6,0,0,1,19,6.22,68.45,68.45,0,0,1,18.31,11.39c4.26,23.39,11.72,56.69,22.38,76.83,0,0-35.52,31.57-49.33,60.18l31.57,52.3H256.2l-10.86-26.64-41.44-1-15.78-25.65,78.93-42.43s9.88-25.69,18.6-55.56c36-18.44,101.18-54.25,121.5-81.59l18.76-95.7s60.17,39.46,98.65,46.37c0,0,27.63-4.92,43.42-14.8,0,0,11.3,6.49,17.76,5.92C590.38,214.84,587.71,185.87,587.71,185.87Zm-28,32-8.9-15.22-20.72,4.07L522.3,186l-21.09,6.66L489.37,173,469,174.88l-9.57-23.53,12.83,13.81,19.73,3,13.32,13.81,19.24-3,9.86,18.75,16.78-1L568,213.5Z"/><path class="cls-1" d="M389.4,270.73c0,15.79-14.52,35.93-14.52,35.93,30.92-20.25,68.78-25.07,68.78-25.07-3.94,46.37-36.5,74-36.5,74,7.89-17.76,2-40.45,2-40.45-22.69,20.72-77.95,41.44-77.95,41.44-3.94-35.52,5.92-78.44,5.92-78.44l25.36-22.22Z"/><path class="cls-1" d="M426.1,124.93s-7.7-27.56-26.64-11.1c-18.74,16.28,3.92,39.44,4.42,39.94-.68-.34-23.78-12.15-31.8,15.56-7.94,27.39,10.82,36.52,11.79,37l-28-5.64c9.87-52.29,43.42-104.57,43.42-104.57,19.29-6,38.14-7,52.79-6.44C452.06,89.66,423.88,99.77,426.1,124.93Z"/><path class="cls-1" d="M355.84,200.67h0s-8.18-.26-41.48-1-35.52,14.8-35.52,14.8-12.58-18.5-38.48-17-33.3,19.24-33.3,19.24-23.68-16.28-51.06-4.44-25.9,22.19-25.9,22.19-11.84-6.65-23.68,0S96.8,250,96.8,250s-14.8-3.7-25.16,6.65-11.1,17.76-11.1,17.76-5.92-3.7-14.06,4.44-8.14,12.58-8.14,12.58-10,.49-15.54,7.4c-1,1.29-.52,3.33,1,5.81-8.91,1.46-14.26,2.6-14.26,2.6C47,261.85,126,203.63,205.88,193.78S355.84,200.67,355.84,200.67Z"/><circle cx="480.11" cy="126.67" r="9.26"/></g></svg>