<?xml version="1.0" encoding="utf-8"?>
<!-- Generator: Adobe Illustrator 23.0.3, SVG Export Plug-In . SVG Version: 6.00 Build 0)  -->
<svg version="1.1" id="Layer_1" xmlns="http://www.w3.org/2000/svg" xmlns:xlink="http://www.w3.org/1999/xlink" x="0px" y="0px"
	 viewBox="0 0 673.8 673.8" style="enable-background:new 0 0 673.8 673.8;" xml:space="preserve">
<style type="text/css">
	.st0{fill:#B2B3B2;}
	.st1{fill:#F5F6D4;}
</style>
<g id="E-ample">
	<ellipse class="st0" cx="337" cy="336.9" rx="220.3" ry="305.1"/>
	<polygon class="st1" points="229.1,358.3 178.5,369 138.6,336.3 139.3,284.6 180.2,253 230.3,265.2 252.1,312 	"/>
	<polygon class="st1" points="427.5,163.5 377,174.3 337,141.5 337.8,89.8 378.6,58.1 428.9,70.4 450.6,117.3 	"/>
	<polygon class="st1" points="481.6,352 431,362.7 391.1,329.9 391.8,278.2 432.7,246.6 482.9,258.8 504.7,305.7 	"/>
	<polygon class="st1" points="333.9,497.4 283.3,508.2 243.4,475.4 244.1,423.7 285,392 335.2,404.3 357,451.2 	"/>
	<polygon class="st1" points="465.1,563.2 414.6,573.9 374.6,541.1 375.3,489.4 416.2,457.8 466.5,470 488.3,516.8 	"/>
	<polygon class="st1" points="292.4,266.2 260.3,273 235,252.3 235.4,219.5 261.4,199.4 293.2,207.2 307,236.9 	"/>
	<polygon class="st1" points="496.8,443.2 464.7,450.1 439.4,429.3 439.8,396.5 465.7,376.4 497.6,384.2 511.4,413.9 	"/>
	<polygon class="st1" points="207.4,491.3 175.4,498.1 150,477.3 150.5,444.5 176.4,424.5 208.2,432.2 222,462 	"/>
	<polygon class="st1" points="342.9,355 310.9,361.9 285.6,341.1 286,308.3 312,288.2 343.8,296 357.6,325.7 	"/>
	<polygon class="st1" points="280,163.2 247.9,170 222.6,149.2 223.1,116.5 249,96.4 280.8,104.2 294.6,133.9 	"/>
</g>
</svg>
