<?xml version="1.0" encoding="utf-8"?>
<!-- Generator: Adobe Illustrator 23.0.1, SVG Export Plug-In . SVG Version: 6.00 Build 0)  -->
<svg version="1.1" id="Layer_1" xmlns="http://www.w3.org/2000/svg" xmlns:xlink="http://www.w3.org/1999/xlink" x="0px" y="0px"
	 viewBox="0 0 599.8 599.8" style="enable-background:new 0 0 599.8 599.8;" xml:space="preserve">
<style type="text/css">
	.st0{fill:#B2B3B2;}
	.st1{fill:#F5F6D4;}
</style>
<g id="E-ample">
	<ellipse class="st0" cx="299.9" cy="299.9" rx="207.6" ry="287.5"/>
	<polygon class="st1" points="198.1,320 150.5,330.2 112.9,299.3 113.6,250.6 152.1,220.8 199.4,232.3 219.9,276.5 	"/>
	<polygon class="st1" points="385.1,136.5 337.6,146.7 299.9,115.8 300.6,67 339.1,37.2 386.4,48.8 406.9,93 	"/>
	<polygon class="st1" points="436.1,314.1 388.4,324.2 350.8,293.2 351.5,244.6 390,214.8 437.3,226.3 457.8,270.4 	"/>
	<polygon class="st1" points="296.9,451.1 249.2,461.3 211.6,430.4 212.3,381.6 250.8,351.8 298.1,363.4 318.6,407.6 	"/>
	<polygon class="st1" points="420.5,513.1 372.9,523.2 335.3,492.3 336,443.6 374.5,413.8 421.8,425.3 442.4,469.4 	"/>
	<polygon class="st1" points="257.8,233.3 227.6,239.7 203.7,220.2 204.2,189.3 228.6,170.4 258.5,177.7 271.6,205.7 	"/>
	<polygon class="st1" points="450.4,400 420.2,406.5 396.3,386.9 396.7,356 421.1,337.1 451.1,344.4 464.2,372.4 	"/>
	<polygon class="st1" points="177.8,445.3 147.6,451.7 123.7,432.1 124.2,401.2 148.6,382.4 178.5,389.6 191.5,417.7 	"/>
	<polygon class="st1" points="305.4,317 275.2,323.4 251.4,303.8 251.8,273 276.3,254 306.3,261.4 319.3,289.4 	"/>
	<polygon class="st1" points="246.1,136.2 215.9,142.6 192,123 192.5,92.2 216.9,73.3 246.9,80.6 259.9,108.6 	"/>
</g>
</svg>
