<?xml version="1.0" encoding="utf-8"?>
<!-- Generator: Adobe Illustrator 23.0.3, SVG Export Plug-In . SVG Version: 6.00 Build 0)  -->
<svg version="1.0" id="Layer_1" xmlns="http://www.w3.org/2000/svg" xmlns:xlink="http://www.w3.org/1999/xlink" x="0px" y="0px"
	 viewBox="0 0 400 400" style="enable-background:new 0 0 400 400;" xml:space="preserve">
<style type="text/css">
	.st0{fill:#B2B3B2;}
	.st1{fill:#F5F6D4;}
</style>
<g id="E-ample">
	<ellipse class="st0" cx="200.16" cy="200.02" rx="27.22" ry="37.69"/>
	<polygon class="st1" points="186.82,202.66 180.57,203.99 175.64,199.94 175.73,193.56 180.78,189.65 186.98,191.16 189.67,196.95 
			"/>
	<polygon class="st1" points="211.34,178.6 205.1,179.93 200.16,175.88 200.25,169.49 205.3,165.58 211.51,167.1 214.19,172.89 	"/>
	<polygon class="st1" points="218.02,201.88 211.77,203.21 206.84,199.15 206.93,192.77 211.98,188.86 218.18,190.37 220.87,196.16 
			"/>
	<polygon class="st1" points="199.77,219.85 193.52,221.18 188.59,217.13 188.68,210.74 193.73,206.83 199.93,208.35 202.62,214.14 
			"/>
	<polygon class="st1" points="215.98,227.97 209.74,229.3 204.8,225.25 204.89,218.86 209.94,214.95 216.15,216.46 218.84,222.25 	
		"/>
	<polygon class="st1" points="194.64,191.29 190.68,192.13 187.55,189.57 187.61,185.52 190.81,183.04 194.74,184 196.45,187.67 	
		"/>
	<polygon class="st1" points="219.89,213.15 215.93,214 212.8,211.43 212.86,207.38 216.06,204.9 219.99,205.86 221.7,209.53 	"/>
	<polygon class="st1" points="184.15,219.09 180.19,219.93 177.06,217.36 177.12,213.31 180.32,210.84 184.25,211.79 185.95,215.47 
			"/>
	<polygon class="st1" points="200.89,202.26 196.93,203.11 193.81,200.54 193.86,196.49 197.07,194.01 201,194.97 202.7,198.64 	"/>
	<polygon class="st1" points="193.11,178.56 189.15,179.4 186.02,176.83 186.08,172.79 189.28,170.31 193.21,171.27 194.92,174.94 	
		"/>
</g>
</svg>
