<?xml version="1.0" encoding="utf-8"?>
<!-- Generator: Adobe Illustrator 23.0.1, SVG Export Plug-In . SVG Version: 6.00 Build 0)  -->
<svg version="1.1" id="Layer_1" xmlns="http://www.w3.org/2000/svg" xmlns:xlink="http://www.w3.org/1999/xlink" x="0px" y="0px"
	 viewBox="0 0 599.8 599.8" style="enable-background:new 0 0 599.8 599.8;" xml:space="preserve">
<style type="text/css">
	.st0{fill:#F9E48F;}
	.st1{fill:#CEFFB9;}
</style>
<g id="E-Bactosarus">
	<g id="E-ample_1_">
		<ellipse class="st0" cx="299.9" cy="299.9" rx="205.4" ry="284.4"/>
	</g>
	<path class="st1" d="M244.7,397.6c0,0-29.7,47.1-33.5,54.5s-30.6-39-30.6-39"/>
	<path class="st1" d="M276.8,188c0,0-29.7,47.1-33.5,54.5c-3.8,7.4-30.6-39-30.6-39"/>
	<path class="st1" d="M457.6,273.9c0,0-29.7,47.1-33.5,54.5c-3.8,7.4-30.6-39-30.6-39"/>
	<path class="st1" d="M393.4,94.5c0,0-29.7,47.1-33.5,54.5c-3.8,7.4-30.6-39-30.6-39"/>
	<path class="st1" d="M393.4,442.9c0,0-29.7,47.1-33.5,54.5c-3.8,7.4-30.6-39-30.6-39"/>
	<path class="st1" d="M180.6,264c0,0-29.7,47.1-33.5,54.5c-3.8,7.4-30.6-39-30.6-39"/>
	<path class="st1" d="M255.8,75.4c0,0-29.7,47.1-33.5,54.5c-3.8,7.4-30.6-39-30.6-39"/>
	<path class="st1" d="M340.9,299.9c0,0-29.7,47.1-33.5,54.5s-30.6-39-30.6-39"/>
</g>
</svg>
