<?xml version="1.0" encoding="utf-8"?>
<!-- Generator: Adobe Illustrator 23.0.3, SVG Export Plug-In . SVG Version: 6.00 Build 0)  -->
<svg version="1.0" id="Layer_1" xmlns="http://www.w3.org/2000/svg" xmlns:xlink="http://www.w3.org/1999/xlink" x="0px" y="0px"
	 viewBox="0 0 400 400" style="enable-background:new 0 0 400 400;" xml:space="preserve">
<style type="text/css">
	.st0{fill:#F16C93;}
	.st1{fill:#FBBE6A;}
</style>
<g id="E-crono">
	<ellipse class="st0" cx="200.13" cy="199.92" rx="23.62" ry="32.7"/>
	<path class="st1" d="M202.01,176.19l-3.84,14.32c-0.13,0.48-0.5,0.86-0.98,1l-11.81,3.33c-0.75,0.21-1.19,1-0.98,1.75v0
		c0.42,1.46-1.44,2.46-2.43,1.31l-2.84-3.31c-0.62-0.73-0.36-1.85,0.52-2.22l8.75-3.7c0.52-0.22,0.86-0.72,0.86-1.28l0.22-15.53
		c0.01-0.67,0.48-1.23,1.13-1.37l5.07-1.03C199.64,168.66,203.05,172.29,202.01,176.19z"/>
	<path class="st1" d="M219.34,217.64l-10.9-1.24c-5.3-0.6-9.97-3.77-12.48-8.47l-2.82-5.27l-6.95,3.76l7.68-10.21l7.14,10.08
		l13.44-0.2L219.34,217.64z"/>
	<polygon class="st1" points="217.74,197.05 209.41,196.1 206.47,190.6 203.48,192.22 206.78,187.83 209.86,192.17 215.64,192.08 	
		"/>
	<path class="st1" d="M217.74,197.05l-8.33-0.95l-2.94-5.5l-2.99,1.62l3.31-4.39l0,0c1.92,2.71,5.06,4.31,8.39,4.26l0.47-0.01
		L217.74,197.05z"/>
	<path class="st1" d="M193.65,214.44l1.29,3.07c0.29,0.69,0.22,1.47-0.18,2.09l-1.5,2.34c-0.68,1.06-0.36,2.46,0.7,3.13l0.95,0.6
		l-2.38-0.32c-1.52-0.21-2.4-1.83-1.74-3.21l0.44-0.93c0.32-0.67,0.29-1.46-0.09-2.11l-1.54-2.66c-0.46-0.8-0.39-1.79,0.17-2.52h0
		C190.83,212.56,192.98,212.84,193.65,214.44z"/>
	<path class="st1" d="M200.68,220.29l3.32-0.25c0.74-0.06,1.46,0.25,1.93,0.83l1.75,2.16c0.79,0.97,2.22,1.12,3.19,0.33l0.87-0.71
		l-1.06,2.16c-0.67,1.38-2.49,1.7-3.6,0.64l-0.74-0.71c-0.54-0.52-1.3-0.73-2.02-0.58l-3,0.62c-0.9,0.19-1.83-0.19-2.34-0.96h0
		C198.01,222.36,198.95,220.42,200.68,220.29z"/>
</g>
</svg>
