<?xml version="1.0" encoding="utf-8"?>
<!-- Generator: Adobe Illustrator 23.0.1, SVG Export Plug-In . SVG Version: 6.00 Build 0)  -->
<svg version="1.1" id="Layer_1" xmlns="http://www.w3.org/2000/svg" xmlns:xlink="http://www.w3.org/1999/xlink" x="0px" y="0px"
	 viewBox="0 0 599.8 599.8" style="enable-background:new 0 0 599.8 599.8;" xml:space="preserve">
<style type="text/css">
	.st0{fill:#F16C93;}
	.st1{fill:#FBBE6A;}
</style>
<g id="E-crono">
	<ellipse class="st0" cx="299.9" cy="299.9" rx="207.6" ry="287.5"/>
	<path class="st1" d="M316.4,91.3l-33.8,125.9c-1.1,4.2-4.4,7.6-8.6,8.8l-103.8,29.3c-6.6,1.8-10.5,8.8-8.6,15.4l0,0
		c3.7,12.8-12.7,21.6-21.4,11.5l-25-29.1c-5.5-6.4-3.2-16.3,4.6-19.5l76.9-32.5c4.6-1.9,7.6-6.3,7.6-11.3l1.9-136.5
		c0.1-5.9,4.2-10.8,9.9-12l44.6-9.1C295.6,25.1,325.5,57,316.4,91.3z"/>
	<path class="st1" d="M468.8,455.7l-95.8-10.9c-46.6-5.3-87.6-33.1-109.7-74.5L238.4,324L177.3,357l67.5-89.8l62.8,88.6l118.1-1.8
		L468.8,455.7z"/>
	<polygon class="st1" points="454.7,274.7 381.5,266.3 355.6,217.9 329.3,232.2 358.3,193.6 385.4,231.8 436.2,231 	"/>
	<path class="st1" d="M454.7,274.7l-73.2-8.4l-25.8-48.3l-26.3,14.2l29.1-38.6l0,0c16.9,23.8,44.5,37.9,73.8,37.4l4.1-0.1
		L454.7,274.7z"/>
	<path class="st1" d="M242.9,427.5l11.3,27c2.5,6.1,1.9,12.9-1.6,18.4l-13.2,20.6c-6,9.3-3.2,21.6,6.2,27.5l8.4,5.3l-20.9-2.8
		c-13.4-1.8-21.1-16.1-15.3-28.2l3.9-8.2c2.8-5.9,2.5-12.8-0.8-18.5l-13.5-23.4c-4-7-3.4-15.7,1.5-22.2l0,0
		C218.1,411,237,413.5,242.9,427.5z"/>
	<path class="st1" d="M304.7,478.9l29.2-2.2c6.5-0.5,12.8,2.2,17,7.3l15.4,19c6.9,8.5,19.5,9.8,28,2.9l7.6-6.2l-9.3,19
		c-5.9,12.1-21.9,14.9-31.6,5.6l-6.5-6.2c-4.7-4.6-11.4-6.4-17.8-5.1l-26.4,5.5c-7.9,1.7-16.1-1.7-20.6-8.4l0,0
		C281.2,497.1,289.5,480.1,304.7,478.9z"/>
</g>
</svg>
