<?xml version="1.0" encoding="utf-8"?>
<!-- Generator: Adobe Illustrator 23.0.3, SVG Export Plug-In . SVG Version: 6.00 Build 0)  -->
<svg version="1.1" id="Layer_1" xmlns="http://www.w3.org/2000/svg" xmlns:xlink="http://www.w3.org/1999/xlink" x="0px" y="0px"
	 viewBox="0 0 694 694" style="enable-background:new 0 0 694 694;" xml:space="preserve">
<style type="text/css">
	.st0{fill:#F16C93;}
	.st1{fill:#FBBE6A;}
</style>
<g id="E-crono">
	<ellipse class="st0" cx="347.1" cy="346.9" rx="200.8" ry="278"/>
	<path class="st1" d="M363.1,145.2l-32.6,121.7c-1.1,4.1-4.3,7.3-8.3,8.5l-100.4,28.3c-6.4,1.8-10.1,8.5-8.3,14.9l0,0
		c3.6,12.4-12.2,20.9-20.7,11.1l-24.1-28.1c-5.3-6.2-3.1-15.7,4.4-18.9l74.4-31.5c4.4-1.9,7.3-6.1,7.3-10.9l1.9-132
		c0.1-5.7,4.1-10.5,9.6-11.6l43.1-8.8C343,81.2,372,112.1,363.1,145.2z"/>
	<path class="st1" d="M510.4,497.6L417.8,487c-45.1-5.1-84.8-32-106.1-72l-24-44.8l-59.1,32l65.3-86.8l60.7,85.7l114.2-1.7
		L510.4,497.6z"/>
	<polygon class="st1" points="496.8,322.5 426,314.5 401,267.7 375.6,281.5 403.7,244.2 429.9,281.1 479,280.3 	"/>
	<path class="st1" d="M496.8,322.5l-70.8-8.1l-25-46.8l-25.4,13.8l28.1-37.3l0,0c16.3,23,43,36.6,71.3,36.2l4-0.1L496.8,322.5z"/>
	<path class="st1" d="M292.1,470.4l11,26.1c2.5,5.9,1.9,12.5-1.5,17.8l-12.8,19.9c-5.8,9-3.1,20.9,6,26.6l8.1,5.1l-20.2-2.7
		c-12.9-1.8-20.4-15.6-14.8-27.3l3.7-7.9c2.7-5.7,2.5-12.4-0.8-17.9l-13.1-22.6c-3.9-6.8-3.3-15.2,1.4-21.4l0,0
		C268.1,454.4,286.4,456.8,292.1,470.4z"/>
	<path class="st1" d="M351.8,520.1L380,518c6.3-0.5,12.4,2.1,16.4,7.1l14.9,18.4c6.7,8.2,18.9,9.5,27.1,2.8l7.4-6l-9,18.4
		c-5.7,11.7-21.2,14.5-30.6,5.4l-6.3-6c-4.6-4.4-11.1-6.2-17.2-4.9l-25.5,5.3c-7.7,1.6-15.6-1.6-19.9-8.2l0,0
		C329.1,537.7,337.1,521.2,351.8,520.1z"/>
</g>
</svg>
