<?xml version="1.0" encoding="utf-8"?>
<!-- Generator: Adobe Illustrator 23.0.3, SVG Export Plug-In . SVG Version: 6.00 Build 0)  -->
<svg version="1.1" id="Layer_1" xmlns="http://www.w3.org/2000/svg" xmlns:xlink="http://www.w3.org/1999/xlink" x="0px" y="0px"
	 viewBox="0 0 700.8 700.8" style="enable-background:new 0 0 700.8 700.8;" xml:space="preserve">
<style type="text/css">
	.st0{fill:#D9E9B6;}
	.st1{fill:#CEB9DA;}
</style>
<g id="E-Gui">
	<ellipse class="st0" cx="351.9" cy="350.4" rx="208.7" ry="284.3"/>
	<path class="st1" d="M328.1,126.1c0,0-110.1,14.6-84.4,62.3c25.7,47.7,146.9-25.7,198.3,0c51.5,25.7-290.1,68-242.4,87.3
		C247.3,295,552.2,247,508,287.5c-44,40.5-391.1,47.9-313,69.9c78.1,22,376.8-30.9,317.4,21.2c-59.5,52.1-353.2,66.8-243.1,85.2
		c110.1,18.4,253.4-55.1,202,0S254.7,504.3,313.5,519c58.8,14.7,51.3,64.6,51.3,64.6"/>
</g>
</svg>
