<?xml version="1.0" encoding="utf-8"?>
<!-- Generator: Adobe Illustrator 23.0.3, SVG Export Plug-In . SVG Version: 6.00 Build 0)  -->
<svg version="1.0" id="Layer_1" xmlns="http://www.w3.org/2000/svg" xmlns:xlink="http://www.w3.org/1999/xlink" x="0px" y="0px"
	 viewBox="0 0 400 400" style="enable-background:new 0 0 400 400;" xml:space="preserve">
<style type="text/css">
	.st0{fill:#B4DFD1;}
	.st1{fill:#F6E0ED;}
</style>
<g id="E-isi">
	<ellipse class="st0" cx="200.23" cy="199.32" rx="27.43" ry="37.99"/>
	<path class="st1" d="M174.29,186.99c2.11-0.95,16.75-6.86,16.75-6.86l14.64,6.86l15.86-11.58l3.76,8.5l-12.87,4.38l-18.58-2.53
		l-20.65,7.04L174.29,186.99z"/>
	<polygon class="st1" points="172.8,199.32 186.54,193.95 197.52,204.34 213.29,193.95 227.67,199.32 226.97,207.84 214.41,204.06 
		200.23,209.69 184.29,201.82 173.24,206.04 	"/>
	<path class="st1" d="M176.65,218.71h14.68v5.62l12.95-5.62l1.41,5.62l11.54-11.83l5.91,7.72c0,0-12.95,11.14-14.64,11.14
		c-1.69,0-13.51-3.94-13.51-3.94l-10.7-5.49l-4.51,2.68L176.65,218.71z"/>
	<polygon class="st1" points="180.66,172.72 194.42,169.15 205.12,169.15 216.89,169.15 219.82,172.72 207.94,173.93 199.26,171.54 
		190.2,175.41 178.92,175.41 	"/>
</g>
</svg>
