<?xml version="1.0" encoding="utf-8"?>
<!-- Generator: Adobe Illustrator 23.0.1, SVG Export Plug-In . SVG Version: 6.00 Build 0)  -->
<svg version="1.1" id="Layer_1" xmlns="http://www.w3.org/2000/svg" xmlns:xlink="http://www.w3.org/1999/xlink" x="0px" y="0px"
	 viewBox="0 0 599.8 599.8" style="enable-background:new 0 0 599.8 599.8;" xml:space="preserve">
<style type="text/css">
	.st0{fill:#B4DFD1;}
	.st1{fill:#F6E0ED;}
</style>
<g id="E-isi">
	<ellipse class="st0" cx="299.8" cy="299.9" rx="207.6" ry="287.5"/>
	<path class="st1" d="M103.6,206.6c16-7.2,126.7-51.9,126.7-51.9l110.8,51.9l120-87.6l28.5,64.3l-97.4,33.1l-140.6-19.1L95.3,250.5
		L103.6,206.6z"/>
	<polygon class="st1" points="92.3,299.9 196.3,259.2 279.3,337.9 398.7,259.2 507.5,299.9 502.2,364.3 407.1,335.7 299.8,378.3 
		179.2,318.8 95.6,350.7 	"/>
	<path class="st1" d="M121.4,446.6h111.1v42.5l98-42.5l10.7,42.5l87.3-89.5l44.7,58.4c0,0-98,84.3-110.8,84.3
		c-12.8,0-102.2-29.8-102.2-29.8l-81-41.5l-34.1,20.3L121.4,446.6z"/>
	<polygon class="st1" points="151.8,98.6 255.9,71.6 336.8,71.6 425.9,71.6 448.1,98.6 358.2,107.8 292.5,89.7 223.9,119 138.6,119 
			"/>
</g>
</svg>
