<?xml version="1.0" encoding="utf-8"?>
<!-- Generator: Adobe Illustrator 23.0.3, SVG Export Plug-In . SVG Version: 6.00 Build 0)  -->
<svg version="1.1" id="Layer_1" xmlns="http://www.w3.org/2000/svg" xmlns:xlink="http://www.w3.org/1999/xlink" x="0px" y="0px"
	 viewBox="0 0 718.8 718.8" style="enable-background:new 0 0 718.8 718.8;" xml:space="preserve">
<style type="text/css">
	.st0{fill:#B4DFD1;}
	.st1{fill:#F6E0ED;}
</style>
<g id="E-isi">
	<ellipse class="st0" cx="359.6" cy="358.7" rx="220" ry="304.6"/>
	<path class="st1" d="M151.6,259.9c16.9-7.6,134.3-55,134.3-55l117.4,55L530.5,167l30.2,68.2l-103.2,35.1l-149-20.3l-165.6,56.5
		L151.6,259.9z"/>
	<polygon class="st1" points="139.6,358.7 249.8,315.7 337.9,399 464.3,315.7 579.6,358.7 574,427 473.3,396.7 359.6,441.9 
		231.8,378.8 143.2,412.6 	"/>
	<path class="st1" d="M170.5,514.2h117.7v45.1l103.8-45.1l11.3,45.1l92.5-94.9l47.4,61.9c0,0-103.8,89.3-117.4,89.3
		s-108.3-31.6-108.3-31.6l-85.8-44l-36.2,21.5L170.5,514.2z"/>
	<polygon class="st1" points="202.7,145.4 313,116.8 398.8,116.8 493.2,116.8 516.7,145.4 421.4,155.1 351.8,136 279.2,167 
		188.7,167 	"/>
</g>
</svg>
