<?xml version="1.0" encoding="utf-8"?>
<!-- Generator: Adobe Illustrator 23.0.1, SVG Export Plug-In . SVG Version: 6.00 Build 0)  -->
<svg version="1.1" id="Layer_1" xmlns="http://www.w3.org/2000/svg" xmlns:xlink="http://www.w3.org/1999/xlink" x="0px" y="0px"
	 viewBox="0 0 599.8 599.8" style="enable-background:new 0 0 599.8 599.8;" xml:space="preserve">
<style type="text/css">
	.st0{fill:#B1DCBF;}
	.st1{fill:#F3D0E3;}
</style>
<g id="E-Khaan_1_">
	<g id="E-Khaan">
		<ellipse class="st0" cx="299.9" cy="299.9" rx="207.6" ry="287.5"/>
	</g>
	<polygon class="st1" points="164,283.4 187.1,284.2 200.9,265.6 207.2,287.9 229.1,295.3 209.9,308.2 209.6,331.2 191.5,317
		169.5,323.9 177.4,302.2 	"/>
	<polygon class="st1" points="311.6,193.4 333.5,189.2 342.6,168.7 353.3,188.3 375.5,190.6 360.2,206.8 364.9,228.7 344.7,219.1
		325.4,230.3 328.3,208.2 	"/>
	<polygon class="st1" points="343.6,375.2 353.9,371.3 356.8,360.5 363.7,369.3 374.7,368.6 368.5,377.8 372.6,388.2 361.9,385.1
		353.3,392.2 352.9,381 	"/>
	<polygon class="st1" points="257.6,461.4 224.6,456.7 202,481.1 196.3,448.3 166.1,434.2 195.6,418.7 199.5,385.5 223.4,408.9
		256.2,402.4 241.3,432.3 	"/>
	<polygon class="st1" points="239.7,100.9 250.3,95.6 252.1,83.7 260.4,92.3 272.1,90.3 266.6,100.9 272.1,111.5 260.4,109.4
		252.1,118 250.3,106.2 	"/>
	<polygon class="st1" points="426.8,230.3 430,228.8 430.5,225.2 432.9,227.8 436.5,227.3 434.9,230.3 436.5,233.5 432.9,232.9
		430.5,235.6 430,232 	"/>
	<polygon class="st1" points="426.8,331.2 429.6,329.8 430.1,326.6 432.4,328.9 435.6,328.4 434.1,331.2 435.6,334.1 432.4,333.5
		430.1,335.8 429.6,332.6 	"/>
	<polygon class="st1" points="320.6,299.9 323.8,298.2 324.3,294.8 326.8,297.3 330.4,296.7 328.6,299.9 330.4,303.1 326.8,302.4
		324.3,305 323.8,301.4 	"/>
	<polygon class="st1" points="343.6,506.4 334.1,507.1 329.3,515.3 325.8,506.6 316.5,504.4 323.8,498.4 322.9,488.9 330.9,493.9
		339.6,490.2 337.3,499.4 	"/>
	<polygon class="st1" points="196.6,199.5 201.8,197 202.7,191.1 206.8,195.3 212.6,194.4 209.9,199.5 212.6,204.8 206.8,203.8
		202.7,208 201.8,202.2 	"/>
	<polygon class="st1" points="383.6,83.7 373.9,88.5 372.4,99.2 364.9,91.4 354.3,93.3 359.3,83.7 354.3,74.3 364.9,76.1
		372.4,68.4 373.9,79 	"/>
</g>
</svg>
