<?xml version="1.0" encoding="utf-8"?>
<!-- Generator: Adobe Illustrator 23.0.3, SVG Export Plug-In . SVG Version: 6.00 Build 0)  -->
<svg version="1.0" id="Layer_1" xmlns="http://www.w3.org/2000/svg" xmlns:xlink="http://www.w3.org/1999/xlink" x="0px" y="0px"
	 viewBox="0 0 400 400" style="enable-background:new 0 0 400 400;" xml:space="preserve">
<style type="text/css">
	.st0{fill:#B1DCBF;}
	.st1{fill:#F3D0E3;}
</style>
<g id="E-Khaan_1_">
	<g id="E-Khaan">
		<ellipse class="st0" cx="200.34" cy="199.98" rx="16.24" ry="22.49"/>
	</g>
	<polygon class="st1" points="189.71,198.69 191.52,198.75 192.6,197.3 193.09,199.04 194.8,199.62 193.3,200.63 193.28,202.43 
		191.86,201.32 190.14,201.86 190.76,200.16 	"/>
	<polygon class="st1" points="201.26,191.65 202.97,191.32 203.68,189.72 204.52,191.25 206.26,191.43 205.06,192.7 205.43,194.41 
		203.85,193.66 202.34,194.54 202.56,192.81 	"/>
	<polygon class="st1" points="203.76,205.87 204.57,205.57 204.79,204.72 205.33,205.41 206.19,205.36 205.71,206.08 206.03,206.89 
		205.19,206.65 204.52,207.2 204.49,206.33 	"/>
	<polygon class="st1" points="197.03,212.62 194.45,212.25 192.68,214.16 192.24,211.59 189.87,210.49 192.18,209.28 192.49,206.68 
		194.36,208.51 196.92,208 195.76,210.34 	"/>
	<polygon class="st1" points="195.63,184.41 196.46,184 196.6,183.07 197.25,183.74 198.17,183.58 197.74,184.41 198.17,185.24 
		197.25,185.08 196.6,185.75 196.46,184.83 	"/>
	<polygon class="st1" points="210.27,194.54 210.52,194.42 210.56,194.14 210.75,194.34 211.03,194.3 210.9,194.54 211.03,194.79 
		210.75,194.74 210.56,194.95 210.52,194.67 	"/>
	<polygon class="st1" points="210.27,202.43 210.49,202.32 210.53,202.07 210.71,202.25 210.96,202.21 210.84,202.43 210.96,202.66 
		210.71,202.61 210.53,202.79 210.49,202.54 	"/>
	<polygon class="st1" points="201.96,199.98 202.21,199.85 202.25,199.58 202.45,199.78 202.73,199.73 202.59,199.98 202.73,200.23 
		202.45,200.18 202.25,200.38 202.21,200.1 	"/>
	<polygon class="st1" points="203.76,216.14 203.02,216.19 202.64,216.83 202.37,216.15 201.64,215.98 202.21,215.51 202.14,214.77 
		202.77,215.16 203.45,214.87 203.27,215.59 	"/>
	<polygon class="st1" points="192.26,192.13 192.67,191.93 192.74,191.47 193.06,191.8 193.51,191.73 193.3,192.13 193.51,192.54 
		193.06,192.46 192.74,192.79 192.67,192.34 	"/>
	<polygon class="st1" points="206.89,183.07 206.13,183.44 206.01,184.28 205.43,183.67 204.6,183.82 204.99,183.07 204.6,182.33 
		205.43,182.47 206.01,181.87 206.13,182.7 	"/>
</g>
</svg>
