<?xml version="1.0" encoding="utf-8"?>
<!-- Generator: Adobe Illustrator 23.0.3, SVG Export Plug-In . SVG Version: 6.00 Build 0)  -->
<svg version="1.1" id="Layer_1" xmlns="http://www.w3.org/2000/svg" xmlns:xlink="http://www.w3.org/1999/xlink" x="0px" y="0px"
	 viewBox="0 0 657.5 657.5" style="enable-background:new 0 0 657.5 657.5;" xml:space="preserve">
<style type="text/css">
	.st0{fill:#B1DCBF;}
	.st1{fill:#F3D0E3;}
</style>
<g id="E-Khaan_1_">
	<g id="E-Khaan">
		<ellipse class="st0" cx="329.1" cy="328.7" rx="220" ry="304.6"/>
	</g>
	<polygon class="st1" points="185.1,311.2 209.6,312 224.2,292.4 230.9,316 254,323.8 233.7,337.5 233.4,361.9 214.2,346.9 
		190.9,354.2 199.3,331.1 	"/>
	<polygon class="st1" points="341.5,215.9 364.7,211.4 374.3,189.7 385.7,210.5 409.3,212.9 393,230.1 398,253.3 376.6,243.1 
		356.2,255 359.1,231.6 	"/>
	<polygon class="st1" points="375.4,408.5 386.4,404.4 389.3,392.9 396.7,402.3 408.3,401.6 401.8,411.3 406.1,422.3 394.8,419.1 
		385.7,426.5 385.3,414.7 	"/>
	<polygon class="st1" points="284.2,499.9 249.3,494.9 225.3,520.8 219.4,486 187.2,471.1 218.5,454.7 222.7,419.5 248.1,444.2 
		282.7,437.3 267,469 	"/>
	<polygon class="st1" points="265.3,117.8 276.5,112.3 278.4,99.7 287.2,108.7 299.7,106.6 293.9,117.8 299.7,129.1 287.2,126.9 
		278.4,136 276.5,123.5 	"/>
	<polygon class="st1" points="463.6,255 467,253.4 467.5,249.6 470.1,252.3 473.9,251.8 472.1,255 473.9,258.4 470.1,257.7 
		467.5,260.6 467,256.8 	"/>
	<polygon class="st1" points="463.6,361.9 466.6,360.4 467.1,357 469.5,359.5 472.9,358.9 471.3,361.9 472.9,365 469.5,364.3 
		467.1,366.8 466.6,363.4 	"/>
	<polygon class="st1" points="351,328.7 354.4,326.9 354.9,323.3 357.6,326 361.4,325.3 359.5,328.7 361.4,332.1 357.6,331.4 
		354.9,334.1 354.4,330.3 	"/>
	<polygon class="st1" points="375.4,547.6 365.4,548.3 360.2,556.9 356.6,547.7 346.7,545.4 354.4,539.1 353.4,529 362,534.3 
		371.2,530.4 368.8,540.1 	"/>
	<polygon class="st1" points="219.6,222.4 225.2,219.7 226.1,213.4 230.5,217.9 236.6,217 233.7,222.4 236.6,227.9 230.5,226.8 
		226.1,231.3 225.2,225.2 	"/>
	<polygon class="st1" points="417.8,99.7 407.5,104.7 405.9,116 398,107.8 386.8,109.8 392.1,99.7 386.8,89.6 398,91.5 405.9,83.4 
		407.5,94.6 	"/>
</g>
</svg>
