<?xml version="1.0" encoding="utf-8"?>
<!-- Generator: Adobe Illustrator 23.0.3, SVG Export Plug-In . SVG Version: 6.00 Build 0)  -->
<svg version="1.1" id="Layer_1" xmlns="http://www.w3.org/2000/svg" xmlns:xlink="http://www.w3.org/1999/xlink" x="0px" y="0px"
	 viewBox="0 0 677.7 677.7" style="enable-background:new 0 0 677.7 677.7;" xml:space="preserve">
<style type="text/css">
	.st0{fill:#C6A6CF;}
	.st1{fill:#F5E2B0;}
</style>
<g id="E-Majunga">
	<ellipse class="st0" cx="339" cy="338.3" rx="223.2" ry="309"/>
	<polygon class="st1" points="204.1,207.5 228.9,181 265.1,184 285.4,214 274.5,248.7 240.6,261.7 209.3,243.4 	"/>
	<polygon class="st1" points="299.1,519.6 324,493.1 360.1,496.1 380.4,526.2 369.5,560.8 335.7,573.8 304.3,555.6 	"/>
	<polygon class="st1" points="461.8,288.6 486.7,262.1 522.8,264.9 543.1,295.1 532.2,329.7 498.4,342.8 467,324.5 	"/>
	<polygon class="st1" points="147,389.1 171.8,362.6 208,365.6 228.3,395.6 217.4,430.3 183.5,443.3 152.2,425 	"/>
	<polygon class="st1" points="339,328.2 363.8,301.6 400,304.5 420.3,334.7 409.4,369.3 375.6,382.4 344.2,364.1 	"/>
	<polygon class="st1" points="351.3,131.7 376,105.3 412.2,108.2 432.5,138.2 421.7,172.9 387.8,185.9 356.5,167.6 	"/>
</g>
</svg>
