<?xml version="1.0" encoding="utf-8"?>
<!-- Generator: Adobe Illustrator 23.0.1, SVG Export Plug-In . SVG Version: 6.00 Build 0)  -->
<svg version="1.1" id="Layer_1" xmlns="http://www.w3.org/2000/svg" xmlns:xlink="http://www.w3.org/1999/xlink" x="0px" y="0px"
	 viewBox="0 0 599.8 599.8" style="enable-background:new 0 0 599.8 599.8;" xml:space="preserve">
<style type="text/css">
	.st0{fill:#C6A6CF;}
	.st1{fill:#F5E2B0;}
</style>
<g id="E-Majunga">
	<ellipse class="st0" cx="299.9" cy="299.9" rx="207.6" ry="287.5"/>
	<polygon class="st1" points="174.3,178.2 197.5,153.6 231.1,156.3 250,184.3 239.9,216.5 208.4,228.7 179.3,211.6 	"/>
	<polygon class="st1" points="262.8,468.6 285.9,444 319.6,446.7 338.4,474.7 328.3,506.9 296.8,519 267.6,502.1 	"/>
	<polygon class="st1" points="414.2,253.6 437.3,229 470.9,231.7 489.8,259.7 479.7,291.9 448.2,304.1 419,287 	"/>
	<polygon class="st1" points="121.3,347.2 144.4,322.6 178,325.3 196.9,353.2 186.7,385.5 155.3,397.6 126.1,380.6 	"/>
	<polygon class="st1" points="299.9,290.5 323,265.8 356.7,268.5 375.6,296.5 365.4,328.7 333.9,340.9 304.7,323.9 	"/>
	<polygon class="st1" points="311.3,107.7 334.3,83.1 368,85.8 386.9,113.8 376.8,146 345.3,158.2 316.1,141.1 	"/>
</g>
</svg>
