<?xml version="1.0" encoding="utf-8"?>
<!-- Generator: Adobe Illustrator 23.0.3, SVG Export Plug-In . SVG Version: 6.00 Build 0)  -->
<svg version="1.0" id="Layer_1" xmlns="http://www.w3.org/2000/svg" xmlns:xlink="http://www.w3.org/1999/xlink" x="0px" y="0px"
	 viewBox="0 0 400 400" style="enable-background:new 0 0 400 400;" xml:space="preserve">
<style type="text/css">
	.st0{fill:#C6A6CF;}
	.st1{fill:#F5E2B0;}
</style>
<g id="E-Majunga">
	<ellipse class="st0" cx="200.12" cy="199.4" rx="23.62" ry="32.7"/>
	<polygon class="st1" points="185.84,185.56 188.47,182.76 192.3,183.07 194.45,186.25 193.3,189.92 189.71,191.3 186.4,189.36 	"/>
	<polygon class="st1" points="195.9,218.59 198.53,215.79 202.36,216.1 204.5,219.29 203.35,222.95 199.77,224.33 196.45,222.4 	"/>
	<polygon class="st1" points="213.12,194.14 215.75,191.34 219.57,191.64 221.72,194.83 220.57,198.49 216.99,199.88 213.67,197.94 
			"/>
	<polygon class="st1" points="179.8,204.78 182.43,201.98 186.26,202.29 188.41,205.47 187.25,209.14 183.67,210.52 180.35,208.58 	
		"/>
	<polygon class="st1" points="200.12,198.33 202.75,195.52 206.58,195.83 208.73,199.02 207.57,202.68 203.99,204.07 200.67,202.13 
			"/>
	<polygon class="st1" points="201.42,177.54 204.04,174.74 207.87,175.05 210.02,178.23 208.87,181.9 205.29,183.28 201.97,181.34 	
		"/>
</g>
</svg>
