<?xml version="1.0" encoding="utf-8"?>
<!-- Generator: Adobe Illustrator 23.0.3, SVG Export Plug-In . SVG Version: 6.00 Build 0)  -->
<svg version="1.1" id="Layer_1" xmlns="http://www.w3.org/2000/svg" xmlns:xlink="http://www.w3.org/1999/xlink" x="0px" y="0px"
	 viewBox="0 0 700.8 700.8" style="enable-background:new 0 0 700.8 700.8;" xml:space="preserve">
<style type="text/css">
	.st0{fill:#8788C2;}
	.st1{fill:#485CA9;}
</style>
<g id="E-Mosa">
	<ellipse class="st0" cx="350.9" cy="350.1" rx="234.4" ry="306"/>
	<polygon class="st1" points="254.4,327.1 209.5,343.3 168.9,318.3 163.2,270.9 196.5,236.9 244,241.8 269.7,281.9 	"/>
	<polygon class="st1" points="448,543.5 378.2,585.3 301.8,556.9 276.6,479.4 321.3,411.4 402.4,404 458.8,462.7 	"/>
	<polygon class="st1" points="462.7,327.1 442.5,340.9 419,333.7 410,311 422.2,289.7 446.5,286 464.5,302.6 	"/>
	<polygon class="st1" points="293.6,139.1 273.8,150.8 252.2,142.5 245.2,120.6 258.1,101.5 281,99.5 296.9,116.3 	"/>
	<polygon class="st1" points="413.7,148.9 382.2,159.7 354.1,141.9 350.6,108.8 374.3,85.4 407.3,89.3 424.8,117.5 	"/>
	<polygon class="st1" points="350.9,261.6 356,246.1 371.4,240.4 385.3,248.9 387.5,265.1 376.1,276.9 359.9,275.3 	"/>
	<polygon class="st1" points="190.7,437.3 192.8,414.8 211.8,402.4 233.4,409.5 241.2,430.8 229.4,450.2 207,453.1 	"/>
	<polygon class="st1" points="509.3,389.3 500.8,387.6 496.9,379.9 500.4,372.1 508.8,369.9 515.6,375.1 515.9,383.7 	"/>
	<polygon class="st1" points="492.1,237.1 478.8,240.2 468.2,231.7 468.2,218.1 478.8,209.6 492.1,212.6 498,224.8 	"/>
</g>
</svg>
