<?xml version="1.0" encoding="utf-8"?>
<!-- Generator: Adobe Illustrator 23.0.3, SVG Export Plug-In . SVG Version: 6.00 Build 0)  -->
<svg version="1.0" id="Layer_1" xmlns="http://www.w3.org/2000/svg" xmlns:xlink="http://www.w3.org/1999/xlink" x="0px" y="0px"
	 viewBox="0 0 400 400" style="enable-background:new 0 0 400 400;" xml:space="preserve">
<style type="text/css">
	.st0{fill:#8788C2;}
	.st1{fill:#485CA9;}
</style>
<g id="E-Mosa">
	<ellipse class="st0" cx="200.47" cy="199.73" rx="35.9" ry="46.88"/>
	<polygon class="st1" points="185.69,196.2 178.82,198.68 172.6,194.85 171.72,187.6 176.83,182.38 184.1,183.14 188.04,189.28 	"/>
	<polygon class="st1" points="215.35,229.35 204.65,235.76 192.96,231.4 189.09,219.54 195.94,209.12 208.37,207.98 217,216.98 	"/>
	<polygon class="st1" points="217.6,196.2 214.5,198.32 210.91,197.22 209.53,193.73 211.4,190.47 215.12,189.9 217.88,192.45 	"/>
	<polygon class="st1" points="191.7,167.4 188.66,169.19 185.36,167.93 184.29,164.57 186.26,161.64 189.77,161.34 192.2,163.91 	
		"/>
	<polygon class="st1" points="210.09,168.91 205.27,170.56 200.97,167.83 200.43,162.76 204.06,159.18 209.12,159.77 211.8,164.1 	
		"/>
	<polygon class="st1" points="200.47,186.17 201.26,183.79 203.61,182.92 205.75,184.22 206.08,186.7 204.34,188.51 201.85,188.27 	
		"/>
	<polygon class="st1" points="175.93,213.09 176.26,209.63 179.17,207.74 182.47,208.83 183.67,212.09 181.87,215.06 178.43,215.5 	
		"/>
	<polygon class="st1" points="224.74,205.73 223.44,205.47 222.84,204.29 223.38,203.09 224.66,202.76 225.71,203.56 225.75,204.88 
			"/>
	<polygon class="st1" points="222.11,182.42 220.07,182.89 218.44,181.59 218.44,179.5 220.07,178.2 222.1,178.66 223.01,180.54 	
		"/>
</g>
</svg>
