<?xml version="1.0" encoding="utf-8"?>
<!-- Generator: Adobe Illustrator 23.0.1, SVG Export Plug-In . SVG Version: 6.00 Build 0)  -->
<svg version="1.1" id="Layer_1" xmlns="http://www.w3.org/2000/svg" xmlns:xlink="http://www.w3.org/1999/xlink" x="0px" y="0px"
	 viewBox="0 0 599.8 599.8" style="enable-background:new 0 0 599.8 599.8;" xml:space="preserve">
<style type="text/css">
	.st0{fill:#8788C2;}
	.st1{fill:#485CA9;}
</style>
<g id="E-Mosa">
	<ellipse class="st0" cx="299.9" cy="299.9" rx="220.1" ry="287.5"/>
	<polygon class="st1" points="209.3,278.2 167.1,293.4 129,270 123.6,225.5 154.9,193.5 199.5,198.2 223.7,235.8 	"/>
	<polygon class="st1" points="391.1,481.5 325.5,520.8 253.8,494.1 230.1,421.4 272.1,357.5 348.3,350.5 401.2,405.7 	"/>
	<polygon class="st1" points="404.9,278.2 385.9,291.2 363.9,284.5 355.4,263.1 366.9,243.1 389.7,239.6 406.6,255.2 	"/>
	<polygon class="st1" points="246.1,101.6 227.5,112.6 207.2,104.9 200.7,84.3 212.7,66.3 234.3,64.5 249.2,80.2 	"/>
	<polygon class="st1" points="358.9,110.9 329.3,121 302.9,104.3 299.6,73.2 321.9,51.2 352.9,54.9 369.4,81.4 	"/>
	<polygon class="st1" points="299.9,216.7 304.7,202.1 319.1,196.8 332.3,204.8 334.3,220 323.6,231.1 308.3,229.6 	"/>
	<polygon class="st1" points="149.4,381.8 151.4,360.6 169.3,349 189.5,355.7 196.9,375.7 185.8,393.9 164.7,396.6 	"/>
	<polygon class="st1" points="448.7,336.7 440.7,335.1 437,327.8 440.4,320.5 448.2,318.5 454.6,323.4 454.9,331.5 	"/>
	<polygon class="st1" points="432.6,193.7 420.1,196.6 410.1,188.6 410.1,175.8 420.1,167.9 432.5,170.7 438.1,182.2 	"/>
</g>
</svg>
