<?xml version="1.0" encoding="utf-8"?>
<!-- Generator: Adobe Illustrator 23.0.1, SVG Export Plug-In . SVG Version: 6.00 Build 0)  -->
<svg version="1.1" id="Layer_1" xmlns="http://www.w3.org/2000/svg" xmlns:xlink="http://www.w3.org/1999/xlink" x="0px" y="0px"
	 viewBox="0 0 599.8 599.8" style="enable-background:new 0 0 599.8 599.8;" xml:space="preserve">
<style type="text/css">
	.st0{fill:#F9C973;}
	.st1{fill:#D5E6A1;}
</style>
<g id="E-Ovira">
	<ellipse class="st0" cx="299.9" cy="299.9" rx="207.6" ry="287.5"/>
	<path class="st1" d="M286.9,201.9h-80.7c-7,0-13-5.8-13-13l0,0c0-7,5.8-13,13-13h80.7c7,0,13,5.8,13,13l0,0
		C299.9,196,294.1,201.9,286.9,201.9z"/>
	<path class="st1" d="M439.5,315.8h-106c-4.4,0-8-3.6-8-8l0,0c0-4.4,3.6-8,8-8h106c4.4,0,8,3.6,8,8l0,0
		C447.5,312.3,443.9,315.8,439.5,315.8z"/>
	<path class="st1" d="M247.8,429.9h-80.4c-7.2,0-13-5.8-13-13l0,0c0-7.2,5.8-13,13-13h80.4c7.2,0,13,5.8,13,13l0,0
		C260.8,424.1,254.8,429.9,247.8,429.9z"/>
	<path class="st1" d="M348.9,487h-59.7c-4.3,0-7.7-3.5-7.7-7.7l0,0c0-4.3,3.5-7.7,7.7-7.7h59.7c4.3,0,7.7,3.5,7.7,7.7l0,0
		C356.7,483.6,353.2,487,348.9,487z"/>
	<path class="st1" d="M264.8,118.7h103.7c10,0,18.1-8.2,18.1-18.1l0,0c0-10-8.2-18.1-18.1-18.1H264.8c-10,0-18.1,8.2-18.1,18.1l0,0
		C246.5,110.5,254.7,118.7,264.8,118.7z"/>
	<polygon class="st1" points="207.6,315.8 172.5,315.8 172.5,315.8 	"/>
	<path class="st1" d="M177.7,357.4h-15.6c-4.3,0-7.7-3.5-7.7-7.7l0,0c0-4.3,3.5-7.7,7.7-7.7h15.6c4.3,0,7.7,3.5,7.7,7.7l0,0
		C185.4,353.8,182,357.4,177.7,357.4z"/>
	<path class="st1" d="M399.5,416.9h22.1c7.2,0,13-5.8,13-13l0,0c0-7.2-5.8-13-13-13h-22.1c-7.2,0-13,5.8-13,13l0,0
		C386.5,411.1,392.3,416.9,399.5,416.9z"/>
	<path class="st1" d="M433.2,230.2h-32.6c-7.7,0-14.2-6.4-14.2-14.2l0,0c0-7.7,6.4-14.2,14.2-14.2h32.6c7.7,0,14.2,6.4,14.2,14.2
		l0,0C447.5,223.9,441.1,230.2,433.2,230.2z"/>
</g>
</svg>
