<?xml version="1.0" encoding="utf-8"?>
<!-- Generator: Adobe Illustrator 23.0.3, SVG Export Plug-In . SVG Version: 6.00 Build 0)  -->
<svg version="1.0" id="Layer_1" xmlns="http://www.w3.org/2000/svg" xmlns:xlink="http://www.w3.org/1999/xlink" x="0px" y="0px"
	 viewBox="0 0 400 400" style="enable-background:new 0 0 400 400;" xml:space="preserve">
<style type="text/css">
	.st0{fill:#F9C973;}
	.st1{fill:#D5E6A1;}
</style>
<g id="E-Ovira">
	<ellipse class="st0" cx="200.92" cy="199.69" rx="15.02" ry="20.8"/>
	<path class="st1" d="M199.98,192.6h-5.84c-0.51,0-0.94-0.42-0.94-0.94l0,0c0-0.51,0.42-0.94,0.94-0.94h5.84
		c0.51,0,0.94,0.42,0.94,0.94l0,0C200.92,192.17,200.5,192.6,199.98,192.6z"/>
	<path class="st1" d="M211.02,200.84h-7.67c-0.32,0-0.58-0.26-0.58-0.58l0,0c0-0.32,0.26-0.58,0.58-0.58h7.67
		c0.32,0,0.58,0.26,0.58,0.58l0,0C211.6,200.59,211.34,200.84,211.02,200.84z"/>
	<path class="st1" d="M197.15,209.1h-5.82c-0.52,0-0.94-0.42-0.94-0.94l0,0c0-0.52,0.42-0.94,0.94-0.94h5.82
		c0.52,0,0.94,0.42,0.94,0.94l0,0C198.09,208.68,197.66,209.1,197.15,209.1z"/>
	<path class="st1" d="M204.47,213.23h-4.32c-0.31,0-0.56-0.25-0.56-0.56l0,0c0-0.31,0.25-0.56,0.56-0.56h4.32
		c0.31,0,0.56,0.25,0.56,0.56l0,0C205.03,212.98,204.78,213.23,204.47,213.23z"/>
	<path class="st1" d="M198.38,186.58h7.5c0.72,0,1.31-0.59,1.31-1.31v0c0-0.72-0.59-1.31-1.31-1.31h-7.5
		c-0.72,0-1.31,0.59-1.31,1.31v0C197.06,185.99,197.65,186.58,198.38,186.58z"/>
	<polygon class="st1" points="194.24,200.84 191.7,200.84 191.7,200.84 194.24,200.84 	"/>
	<path class="st1" d="M192.08,203.85h-1.13c-0.31,0-0.56-0.25-0.56-0.56l0,0c0-0.31,0.25-0.56,0.56-0.56h1.13
		c0.31,0,0.56,0.25,0.56,0.56l0,0C192.64,203.59,192.39,203.85,192.08,203.85z"/>
	<path class="st1" d="M208.13,208.16h1.6c0.52,0,0.94-0.42,0.94-0.94l0,0c0-0.52-0.42-0.94-0.94-0.94h-1.6
		c-0.52,0-0.94,0.42-0.94,0.94l0,0C207.19,207.74,207.61,208.16,208.13,208.16z"/>
	<path class="st1" d="M210.57,194.65h-2.36c-0.56,0-1.03-0.46-1.03-1.03l0,0c0-0.56,0.46-1.03,1.03-1.03h2.36
		c0.56,0,1.03,0.46,1.03,1.03l0,0C211.6,194.19,211.14,194.65,210.57,194.65z"/>
</g>
</svg>
