<?xml version="1.0" encoding="utf-8"?>
<!-- Generator: Adobe Illustrator 23.0.3, SVG Export Plug-In . SVG Version: 6.00 Build 0)  -->
<svg version="1.1" id="Layer_1" xmlns="http://www.w3.org/2000/svg" xmlns:xlink="http://www.w3.org/1999/xlink" x="0px" y="0px"
	 viewBox="0 0 620.3 620.3" style="enable-background:new 0 0 620.3 620.3;" xml:space="preserve">
<style type="text/css">
	.st0{fill:#F9C973;}
	.st1{fill:#D5E6A1;}
</style>
<g id="E-Ovira">
	<ellipse class="st0" cx="311.1" cy="309.8" rx="205.4" ry="284.5"/>
	<path class="st1" d="M298.2,212.9h-79.9c-7,0-12.9-5.7-12.9-12.9l0,0c0-7,5.7-12.9,12.9-12.9h79.9c7,0,12.9,5.7,12.9,12.9l0,0
		C311.1,207,305.3,212.9,298.2,212.9z"/>
	<path class="st1" d="M449.2,325.6H344.3c-4.4,0-7.9-3.6-7.9-7.9l0,0c0-4.4,3.6-7.9,7.9-7.9h104.9c4.4,0,7.9,3.6,7.9,7.9l0,0
		C457.1,322.1,453.6,325.6,449.2,325.6z"/>
	<path class="st1" d="M259.5,438.5h-79.6c-7.1,0-12.9-5.7-12.9-12.9l0,0c0-7.1,5.7-12.9,12.9-12.9h79.6c7.1,0,12.9,5.7,12.9,12.9
		l0,0C272.4,432.8,266.5,438.5,259.5,438.5z"/>
	<path class="st1" d="M359.6,495h-59.1c-4.2,0-7.7-3.4-7.7-7.7l0,0c0-4.2,3.4-7.7,7.7-7.7h59.1c4.2,0,7.7,3.4,7.7,7.7l0,0
		C367.3,491.6,363.9,495,359.6,495z"/>
	<path class="st1" d="M276.3,130.5h102.6c9.8,0,17.9-8.1,17.9-17.9l0,0c0-9.8-8.1-17.9-17.9-17.9H276.3c-9.8,0-17.9,8.1-17.9,17.9
		l0,0C258.3,122.5,266.3,130.5,276.3,130.5z"/>
	<polygon class="st1" points="219.7,325.6 185,325.6 185,325.6 	"/>
	<path class="st1" d="M190.2,366.7h-15.5c-4.2,0-7.7-3.4-7.7-7.7l0,0c0-4.2,3.4-7.7,7.7-7.7h15.5c4.2,0,7.7,3.4,7.7,7.7l0,0
		C197.8,363.2,194.4,366.7,190.2,366.7z"/>
	<path class="st1" d="M409.7,425.7h21.9c7.1,0,12.9-5.7,12.9-12.9l0,0c0-7.1-5.7-12.9-12.9-12.9h-21.9c-7.1,0-12.9,5.7-12.9,12.9
		l0,0C396.8,419.9,402.6,425.7,409.7,425.7z"/>
	<path class="st1" d="M443.1,240.9h-32.3c-7.7,0-14.1-6.3-14.1-14.1l0,0c0-7.7,6.3-14.1,14.1-14.1h32.3c7.7,0,14.1,6.3,14.1,14.1
		l0,0C457.1,234.6,450.8,240.9,443.1,240.9z"/>
</g>
</svg>
