<svg xmlns="http://www.w3.org/2000/svg" viewBox="0 0 600 600"><defs><style>.cls-1{fill:#f6e277;}.cls-2{fill:#dd916f;}</style></defs><title>eParasaurolophus</title><g id="Layer_17" data-name="Layer 17"><path class="cls-1" d="M318,589.77c-191.69,0-220.31-169.8-220.31-271,0-161.89,103-303.9,220.31-303.9,89.76,0,184.69,170.3,184.69,331.31C502.64,503,393.44,589.77,318,589.77Z"/><circle class="cls-2" cx="349.47" cy="417.42" r="16.44"/><circle class="cls-2" cx="292.22" cy="469.49" r="8.53"/><circle class="cls-2" cx="222.79" cy="469.49" r="21.32"/><circle class="cls-2" cx="370.18" cy="48.96" r="4.26"/><circle class="cls-2" cx="370.18" cy="417.42" r="12.79"/><circle class="cls-2" cx="431.69" cy="293.79" r="25.58"/><circle class="cls-2" cx="118.96" cy="400.97" r="12.79"/><circle class="cls-2" cx="144.53" cy="469.49" r="4.26"/><circle class="cls-2" cx="165.85" cy="521.26" r="4.26"/><circle class="cls-2" cx="406.11" cy="281" r="12.79"/><circle class="cls-2" cx="365.91" cy="347.08" r="12.79"/><circle class="cls-2" cx="309.28" cy="521.26" r="12.79"/></g></svg>