<?xml version="1.0" encoding="utf-8"?>
<!-- Generator: Adobe Illustrator 23.0.1, SVG Export Plug-In . SVG Version: 6.00 Build 0)  -->
<svg version="1.1" id="Layer_1" xmlns="http://www.w3.org/2000/svg" xmlns:xlink="http://www.w3.org/1999/xlink" x="0px" y="0px"
	 viewBox="0 0 599.8 599.8" style="enable-background:new 0 0 599.8 599.8;" xml:space="preserve">
<style type="text/css">
	.st0{fill:#90B6E0;}
	.st1{fill:#6C77B9;}
</style>
<g id="E-Plesiosaurus">
	<ellipse class="st0" cx="299.9" cy="299.9" rx="203" ry="287.5"/>
	<polygon class="st1" points="184.4,214.6 171.4,205 171.4,221.2 164.3,206.7 156.7,221 157.2,204.8 143.9,213.9 151.8,199.9 
		135.8,201.8 149.3,193 134.2,187.2 150.3,185.7 139.6,173.6 154.6,179.8 150.8,164.1 161.1,176.5 165,160.8 168.5,176.6 
		179.2,164.6 174.8,180.1 190,174.4 178.9,186.2 195,188.2 179.7,193.5 192.9,202.7 177,200.3 	"/>
	<polygon class="st1" points="405.4,403 390.9,391.8 390.4,410.1 382.8,393.5 373.9,409.5 374.8,391.2 359.5,401.2 368.8,385.4 
		350.6,387.2 366.2,377.6 349.3,370.6 367.6,369.4 355.8,355.4 372.6,362.8 368.7,344.9 380.1,359.2 384.9,341.6 388.3,359.5 
		400.8,346.2 395.5,363.7 412.8,357.7 399.9,370.7 418,373.4 400.6,379 415.4,389.8 397.3,386.6 	"/>
	<polygon class="st1" points="228.2,376.2 217.9,378.4 225.8,385.4 215.7,382.6 219.4,392.4 211.7,385.2 210.4,395.6 206.9,385.7 
		201,394.3 202.5,383.9 193.2,388.8 199.5,380.3 188.9,380.3 198.4,375.7 189.1,370.8 199.6,371.1 193.7,362.4 202.8,367.6 
		201.6,357.1 207.3,365.9 211,356.1 212,366.6 219.9,359.7 215.9,369.4 226.1,366.9 218,373.6 	"/>
	<polygon class="st1" points="337.7,85.2 329.9,79.5 329.9,89.2 325.6,80.5 321.1,89.1 321.4,79.3 313.4,84.8 318.1,76.4 
		308.5,77.5 316.6,72.3 307.6,68.8 317.2,67.9 310.8,60.6 319.8,64.3 317.5,54.9 323.7,62.4 326.1,52.9 328.1,62.4 334.6,55.2 
		332,64.5 341.1,61.1 334.4,68.2 344,69.4 334.9,72.5 342.8,78.1 333.2,76.6 	"/>
	<polygon class="st1" points="344,195.4 332.9,190 335.2,202.2 327.8,192.3 324.1,204 322.2,191.9 313.5,200.6 317.4,189 
		305.7,192.6 314.6,184.1 302.5,181.9 314.3,178.6 304.6,171 316.7,173.5 311.6,162.2 321.1,170.1 321.9,157.8 326.6,169.1 
		333,158.6 331.9,170.9 342.5,164.5 335.9,174.8 348.2,174.1 337.5,180.2 348.7,185.2 336.4,185.7 	"/>
	<polygon class="st1" points="270,274.3 274.2,269.1 267.5,268.8 273.6,266.1 267.8,262.7 274.5,263.1 270.9,257.5 276.6,261 
		276.1,254.2 279.6,260 282.2,253.8 282.6,260.5 287.8,256.3 285,262.4 291.6,261 286.2,265.2 292.7,267 286.1,268.2 291,272.9 
		284.5,270.8 286.7,277.2 282,272.4 280.9,279.1 278.9,272.7 274.9,278 276.1,271.4 	"/>
	<polygon class="st1" points="254.1,489.9 238.6,483.6 242.6,499.8 231.9,487 227.9,503.3 224.3,486.9 213.2,499.5 217.6,483.3 
		202,489.3 213.3,477.1 196.7,475.1 212.5,469.5 198.7,460 215.3,462.5 207.5,447.7 221,457.5 221,440.8 228.4,455.8 236.1,440.9 
		235.8,457.7 249.5,448.1 241.4,462.8 258,460.7 244,469.9 259.7,475.8 243,477.4 	"/>
	<polygon class="st1" points="307.6,511.7 317,509.5 309.7,503.2 319,505.6 315.5,496.7 322.6,503.1 323.6,493.6 326.9,502.6 
		332.3,494.6 331,504.2 339.4,499.6 333.9,507.4 343.5,507.3 334.9,511.7 343.5,516 333.9,515.9 339.4,523.7 331,519.2 332.3,528.7 
		326.9,520.7 323.6,529.7 322.6,520.2 315.5,526.6 319,517.7 309.7,520.1 317,513.8 	"/>
	<polygon class="st1" points="409.4,253.8 401.9,249.4 402.7,258.1 398.2,250.7 394.9,258.7 394.3,250.1 387.6,255.7 391.1,247.7 
		382.6,249.6 389.4,244.2 381,241.9 389.5,240.2 383.1,234.3 391.5,236.8 388.5,228.6 394.8,234.7 396,226.1 398.7,234.3 
		403.8,227.3 402.3,235.9 410.1,232 404.8,238.9 413.5,239.1 405.6,242.8 413.3,247 404.6,246.6 	"/>
	<polygon class="st1" points="228.2,107.1 232.1,105.1 228.2,103.2 232.5,103.2 230,99.7 233.8,101.8 233.2,97.5 235.7,101.1 
		237.2,97 237.6,101.3 240.8,98.4 239.3,102.4 243.5,101.3 240.2,104.2 244.4,105.1 240.2,106.1 243.5,108.9 239.3,107.9 
		240.9,111.9 237.7,109 237.2,113.3 235.7,109.2 233.3,112.8 233.9,108.5 230.1,110.6 232.6,107 	"/>
	<polygon class="st1" points="152.6,313.4 146.5,310.5 147.8,317.1 143.7,311.8 141.8,318.2 140.7,311.5 136,316.4 138.1,310 
		131.7,312 136.6,307.4 130,306.2 136.4,304.3 131.1,300.2 137.7,301.6 134.9,295.5 140.1,299.7 140.4,293 143.1,299.2 146.5,293.4 
		145.9,300.1 151.7,296.6 148.1,302.2 154.8,301.8 149,305.1 155.1,307.9 148.4,308.2 	"/>
	<polygon class="st1" points="413.5,474.1 409,473.8 411.4,477.6 407.6,475.2 408,479.7 405.7,475.8 403.9,480 403.7,475.5 
		400.2,478.4 402.1,474.3 397.7,475.1 401.2,472.4 396.9,471.1 401.3,470.4 398.1,467.3 402.4,468.6 400.9,464.4 404.1,467.5 
		404.8,463.1 406.1,467.4 408.8,463.8 408,468.2 412.1,466.3 409.3,469.8 413.8,470 409.6,471.9 	"/>
</g>
</svg>
