<?xml version="1.0" encoding="utf-8"?>
<!-- Generator: Adobe Illustrator 23.0.3, SVG Export Plug-In . SVG Version: 6.00 Build 0)  -->
<svg version="1.0" id="Layer_1" xmlns="http://www.w3.org/2000/svg" xmlns:xlink="http://www.w3.org/1999/xlink" x="0px" y="0px"
	 viewBox="0 0 400 400" style="enable-background:new 0 0 400 400;" xml:space="preserve">
<style type="text/css">
	.st0{fill:#90B6E0;}
	.st1{fill:#6C77B9;}
</style>
<g id="E-Plesiosaurus">
	<ellipse class="st0" cx="199.97" cy="199.5" rx="57.44" ry="81.32"/>
	<polygon class="st1" points="167.31,175.38 163.63,172.67 163.62,177.24 161.61,173.14 159.47,177.18 159.61,172.61 155.84,175.19 
		158.08,171.21 153.54,171.75 157.38,169.26 153.11,167.63 157.66,167.21 154.64,163.78 158.87,165.53 157.79,161.08 160.72,164.59 
		161.82,160.16 162.79,164.63 165.83,161.22 164.6,165.62 168.88,164.01 165.75,167.34 170.29,167.91 165.97,169.4 169.72,172.01 
		165.2,171.33 	"/>
	<polygon class="st1" points="229.82,228.68 225.72,225.51 225.58,230.69 223.43,225.98 220.9,230.5 221.17,225.33 216.84,228.15 
		219.48,223.7 214.33,224.19 218.74,221.48 213.95,219.51 219.12,219.17 215.79,215.2 220.53,217.29 219.43,212.23 222.65,216.29 
		224.02,211.3 224.99,216.38 228.53,212.6 227.02,217.56 231.91,215.85 228.27,219.54 233.39,220.3 228.46,221.87 232.64,224.93 
		227.54,224.03 	"/>
	<polygon class="st1" points="179.7,221.09 176.79,221.71 179.01,223.69 176.15,222.9 177.19,225.68 175.02,223.64 174.66,226.59 
		173.68,223.78 171.99,226.22 172.43,223.28 169.79,224.66 171.56,222.26 168.58,222.25 171.26,220.95 168.63,219.55 171.6,219.64 
		169.92,217.19 172.51,218.65 172.16,215.69 173.78,218.19 174.84,215.41 175.11,218.38 177.35,216.41 176.21,219.16 179.1,218.46 
		176.82,220.36 	"/>
	<polygon class="st1" points="210.67,138.78 208.46,137.15 208.45,139.9 207.25,137.43 205.97,139.86 206.05,137.11 203.79,138.66 
		205.13,136.28 202.41,136.6 204.71,135.11 202.15,134.13 204.88,133.88 203.07,131.82 205.61,132.86 204.96,130.2 206.72,132.31 
		207.38,129.64 207.96,132.33 209.78,130.28 209.05,132.92 211.62,131.96 209.74,133.96 212.46,134.29 209.87,135.19 212.12,136.76 
		209.41,136.35 	"/>
	<polygon class="st1" points="212.46,169.94 209.31,168.43 209.95,171.86 207.86,169.06 206.83,172.39 206.29,168.95 203.83,171.42 
		204.94,168.12 201.62,169.16 204.14,166.75 200.71,166.13 204.06,165.18 201.31,163.03 204.73,163.74 203.29,160.56 205.98,162.78 
		206.19,159.3 207.54,162.51 209.34,159.52 209.04,163 212.03,161.19 210.15,164.13 213.63,163.91 210.6,165.64 213.79,167.07 
		210.3,167.2 	"/>
	<polygon class="st1" points="191.53,192.27 192.71,190.78 190.8,190.71 192.54,189.93 190.89,188.98 192.79,189.1 191.77,187.5 
		193.39,188.49 193.24,186.59 194.22,188.22 194.96,186.47 195.07,188.37 196.54,187.16 195.75,188.9 197.62,188.51 196.11,189.68 
		197.94,190.2 196.07,190.54 197.45,191.86 195.63,191.28 196.24,193.09 194.9,191.74 194.6,193.62 194.04,191.8 192.9,193.32 
		193.25,191.45 	"/>
	<polygon class="st1" points="187.02,253.25 182.64,251.47 183.78,256.06 180.73,252.44 179.61,257.04 178.58,252.42 175.45,255.97 
		176.69,251.4 172.27,253.09 175.49,249.63 170.79,249.07 175.26,247.49 171.36,244.81 176.04,245.5 173.83,241.31 177.66,244.09 
		177.65,239.36 179.75,243.6 181.94,239.4 181.83,244.14 185.72,241.44 183.42,245.58 188.12,244.99 184.16,247.59 188.59,249.26 
		183.87,249.72 	"/>
	<polygon class="st1" points="202.15,259.41 204.8,258.79 202.74,257.01 205.38,257.7 204.38,255.17 206.39,257 206.68,254.29 
		207.62,256.85 209.13,254.59 208.77,257.29 211.16,255.99 209.59,258.21 212.31,258.17 209.88,259.41 212.31,260.64 209.59,260.6 
		211.16,262.82 208.77,261.53 209.13,264.23 207.62,261.96 206.68,264.52 206.39,261.82 204.38,263.65 205.38,261.12 202.74,261.8 
		204.8,260.02 	"/>
	<polygon class="st1" points="230.95,186.47 228.82,185.22 229.07,187.67 227.77,185.58 226.85,187.86 226.67,185.41 224.79,187 
		225.77,184.75 223.37,185.29 225.29,183.74 222.91,183.11 225.33,182.63 223.52,180.96 225.88,181.66 225.05,179.34 226.82,181.06 
		227.16,178.63 227.93,180.96 229.36,178.97 228.95,181.39 231.16,180.3 229.66,182.25 232.12,182.3 229.89,183.34 232.05,184.53 
		229.59,184.42 	"/>
	<polygon class="st1" points="179.7,144.97 180.79,144.41 179.7,143.86 180.92,143.87 180.21,142.87 181.29,143.46 181.12,142.24 
		181.81,143.26 182.23,142.1 182.36,143.32 183.27,142.49 182.82,143.64 184.01,143.32 183.08,144.13 184.28,144.4 183.08,144.68 
		184.01,145.48 182.83,145.18 183.28,146.32 182.37,145.49 182.24,146.71 181.82,145.56 181.14,146.58 181.3,145.37 180.22,145.95 
		180.93,144.95 	"/>
	<polygon class="st1" points="158.3,203.32 156.59,202.51 156.94,204.38 155.8,202.86 155.25,204.68 154.94,202.8 153.61,204.16 
		154.21,202.36 152.4,202.93 153.77,201.62 151.9,201.29 153.72,200.76 152.22,199.6 154.08,199.98 153.29,198.25 154.76,199.45 
		154.86,197.56 155.61,199.3 156.57,197.67 156.42,199.56 158.04,198.57 157.03,200.17 158.92,200.04 157.28,200.99 159.02,201.76 
		157.12,201.84 	"/>
	<polygon class="st1" points="232.12,248.78 230.85,248.7 231.53,249.78 230.45,249.11 230.55,250.38 229.9,249.28 229.4,250.45 
		229.33,249.18 228.35,249.99 228.88,248.83 227.63,249.08 228.64,248.31 227.41,247.95 228.67,247.73 227.75,246.85 228.96,247.24 
		228.56,246.03 229.45,246.93 229.66,245.68 230.03,246.9 230.79,245.88 230.56,247.13 231.71,246.59 230.91,247.58 232.19,247.63 
		231.02,248.15 	"/>
</g>
</svg>
