<?xml version="1.0" encoding="utf-8"?>
<!-- Generator: Adobe Illustrator 23.0.3, SVG Export Plug-In . SVG Version: 6.00 Build 0)  -->
<svg version="1.1" id="Layer_1" xmlns="http://www.w3.org/2000/svg" xmlns:xlink="http://www.w3.org/1999/xlink" x="0px" y="0px"
	 viewBox="0 0 687.3 687.3" style="enable-background:new 0 0 687.3 687.3;" xml:space="preserve">
<style type="text/css">
	.st0{fill:#90B6E0;}
	.st1{fill:#6C77B9;}
</style>
<g id="E-Plesiosaurus">
	<ellipse class="st0" cx="350" cy="337.8" rx="197.2" ry="279.2"/>
	<polygon class="st1" points="237.8,254.9 225.2,245.6 225.2,261.3 218.3,247.3 210.9,261.1 211.4,245.4 198.5,254.3 206.2,240.6 
		190.6,242.5 203.8,233.9 189.1,228.3 204.7,226.9 194.3,215.1 208.9,221.1 205.2,205.9 215.2,217.9 219,202.7 222.3,218 
		232.8,206.3 228.5,221.4 243.2,215.9 232.5,227.3 248.1,229.3 233.2,234.4 246.1,243.4 230.6,241 	"/>
	<polygon class="st1" points="452.4,437.9 438.4,427.1 437.9,444.8 430.5,428.7 421.8,444.2 422.8,426.4 407.9,436.1 416.9,420.8 
		399.3,422.5 414.4,413.2 398,406.5 415.7,405.3 404.3,391.7 420.6,398.8 416.8,381.5 427.8,395.4 432.5,378.3 435.9,395.7 
		448,382.7 442.8,399.8 459.6,393.9 447.1,406.6 464.7,409.2 447.8,414.6 462.1,425.1 444.6,422 	"/>
	<polygon class="st1" points="280.4,411.9 270.4,414 278,420.8 268.2,418.1 271.8,427.6 264.3,420.6 263.1,430.8 259.7,421.1 
		253.9,429.5 255.4,419.4 246.4,424.1 252.4,415.9 242.2,415.9 251.4,411.4 242.4,406.6 252.6,406.9 246.8,398.5 255.7,403.5 
		254.5,393.3 260.1,401.9 263.7,392.4 264.6,402.6 272.3,395.8 268.4,405.3 278.3,402.8 270.5,409.4 	"/>
	<polygon class="st1" points="386.7,129.3 379.1,123.7 379.1,133.1 375,124.7 370.6,133 370.8,123.6 363.1,128.9 367.7,120.7 
		358.3,121.8 366.2,116.7 357.5,113.3 366.8,112.5 360.6,105.4 369.3,109 367.1,99.8 373.1,107.1 375.4,97.9 377.4,107.1 
		383.6,100.1 381.1,109.2 390,105.9 383.5,112.7 392.8,113.9 384,117 391.7,122.4 382.4,121 	"/>
	<polygon class="st1" points="392.8,236.3 382,231.1 384.2,242.9 377.1,233.2 373.5,244.7 371.7,232.9 363.2,241.4 367,230 
		355.6,233.6 364.3,225.3 352.5,223.2 364,219.9 354.6,212.5 366.3,215 361.4,204.1 370.6,211.7 371.3,199.7 376,210.8 382.1,200.5 
		381.1,212.4 391.4,206.2 384.9,216.3 396.9,215.6 386.5,221.5 397.4,226.4 385.4,226.9 	"/>
	<polygon class="st1" points="321,312.9 325,307.8 318.5,307.6 324.5,304.9 318.8,301.6 325.3,302 321.8,296.6 327.4,300 
		326.9,293.4 330.2,299 332.8,293 333.1,299.5 338.2,295.4 335.5,301.4 341.9,300 336.7,304 343,305.8 336.6,307 341.3,311.5 
		335.1,309.5 337.2,315.7 332.6,311.1 331.5,317.6 329.6,311.3 325.7,316.5 326.9,310.1 	"/>
	<polygon class="st1" points="305.5,522.3 290.5,516.2 294.4,531.9 283.9,519.5 280.1,535.3 276.5,519.4 265.8,531.6 270,515.9 
		254.9,521.7 265.9,509.9 249.8,507.9 265.1,502.5 251.7,493.3 267.8,495.7 260.2,481.3 273.4,490.8 273.3,474.6 280.6,489.2 
		288.1,474.7 287.7,491 301,481.7 293.1,496 309.3,493.9 295.7,502.9 310.9,508.6 294.7,510.2 	"/>
	<polygon class="st1" points="357.5,543.4 366.6,541.3 359.5,535.2 368.5,537.6 365.1,528.9 372,535.2 373,525.9 376.2,534.6 
		381.4,526.9 380.2,536.2 388.4,531.7 383,539.3 392.3,539.2 384,543.4 392.3,547.7 383,547.5 388.4,555.1 380.2,550.7 381.4,560 
		376.2,552.2 373,561 372,551.7 365.1,558 368.5,549.3 359.5,551.6 366.6,545.5 	"/>
	<polygon class="st1" points="456.3,293 449,288.7 449.9,297.1 445.4,290 442.3,297.8 441.6,289.4 435.2,294.8 438.5,287.1 
		430.3,289 436.9,283.6 428.7,281.5 437,279.8 430.8,274.1 438.9,276.5 436.1,268.5 442.1,274.4 443.3,266.1 446,274.1 450.9,267.3 
		449.5,275.6 457,271.8 451.9,278.5 460.3,278.7 452.7,282.3 460.1,286.4 451.7,286 	"/>
	<polygon class="st1" points="280.4,150.5 284.1,148.6 280.4,146.7 284.6,146.8 282.1,143.3 285.8,145.4 285.3,141.2 287.6,144.7 
		289.1,140.7 289.5,144.9 292.6,142 291.1,146 295.2,144.9 292,147.7 296.1,148.6 292,149.5 295.2,152.3 291.1,151.3 292.7,155.2 
		289.5,152.3 289.1,156.5 287.7,152.6 285.3,156.1 285.9,151.9 282.2,153.9 284.6,150.5 	"/>
	<polygon class="st1" points="206.9,350.9 201,348.1 202.2,354.5 198.3,349.3 196.4,355.5 195.4,349.1 190.8,353.8 192.9,347.6 
		186.7,349.5 191.4,345 184.9,343.9 191.2,342.1 186,338.1 192.4,339.4 189.7,333.5 194.8,337.6 195.1,331.1 197.7,337.1 201,331.5 
		200.5,338 206,334.6 202.5,340.1 209,339.6 203.4,342.9 209.4,345.5 202.9,345.8 	"/>
	<polygon class="st1" points="460.3,506.9 456,506.7 458.3,510.4 454.6,508.1 455,512.4 452.7,508.7 451,512.7 450.8,508.3 
		447.4,511.1 449.2,507.1 444.9,508 448.4,505.3 444.2,504.1 448.5,503.3 445.3,500.3 449.5,501.7 448.1,497.5 451.2,500.6 
		451.9,496.3 453.2,500.5 455.8,497 455,501.3 458.9,499.4 456.2,502.8 460.6,503 456.6,504.8 	"/>
</g>
</svg>
