<?xml version="1.0" encoding="utf-8"?>
<!-- Generator: Adobe Illustrator 22.1.0, SVG Export Plug-In . SVG Version: 6.00 Build 0)  -->
<svg version="1.1" id="Layer_1" xmlns="http://www.w3.org/2000/svg" xmlns:xlink="http://www.w3.org/1999/xlink" x="0px" y="0px"
	 viewBox="0 0 600 600" style="enable-background:new 0 0 600 600;" xml:space="preserve">
<style type="text/css">
	.st0{fill:#CCCCCC;}
	.st1{fill:#993333;}
</style>
<title>trinisaura</title>
<g id="Layer_17">
	<path class="st0" d="M317.8,587.5c-191.7,0-220.3-169.8-220.3-271c0-161.9,103-303.9,220.3-303.9c89.8,0,184.7,170.3,184.7,331.3
		C502.5,500.7,393.3,587.5,317.8,587.5z"/>
	<circle class="st1" cx="249" cy="470.5" r="21.3"/>
	<circle class="st1" cx="300" cy="46.7" r="12.8"/>
	<circle class="st1" cx="287.2" cy="59.4" r="4.3"/>
	
		<ellipse transform="matrix(0.9799 -0.1995 0.1995 0.9799 -83.6121 34.7382)" class="st1" cx="130.6" cy="432.4" rx="12.8" ry="12.8"/>
	
		<ellipse transform="matrix(0.9633 -0.2684 0.2684 0.9633 -125.559 64.6448)" class="st1" cx="173.6" cy="491.5" rx="4.3" ry="4.3"/>
	
		<ellipse transform="matrix(0.9633 -0.2684 0.2684 0.9633 -136.1407 75.5035)" class="st1" cx="208.1" cy="535.6" rx="4.3" ry="4.3"/>
	<path class="st1" d="M216.7,382.4c23.9,8.8,27.4,48.6,14.9,80.1c-12.7,31.7-53.4,25.4-68.3,14s-18.4-42.9,0.7-71.1
		C183,377.6,190.1,372.5,216.7,382.4z"/>
	<path class="st1" d="M266.9,385.2c-5.7,8.8,14,23.2,35.2,17.5s39.4-22.5,39.4-22.5s10.5-28.9-18.4-26.7S278,367.7,266.9,385.2z"/>
</g>
</svg>
